<svg width="390" height="889" viewBox="0 0 390 889" fill="none" xmlns="http://www.w3.org/2000/svg">
<g clip-path="url(#clip0_542_6705)">
<rect width="390" height="889" fill="#D7FFCC"/>
<g style="mix-blend-mode:multiply" opacity="0.5">
<path d="M2.71772 891.027C1.44028 889.823 -0.499379 889.768 -1.61031 890.947C-2.72125 892.126 -2.57241 894.04 -1.2747 895.263C0.0230131 896.486 1.94241 896.521 3.05334 895.343C4.16427 894.164 4.01543 892.25 2.71772 891.027Z" fill="#A0D591"/>
<path d="M1.95685 876.642C0.476653 875.247 -1.74381 875.206 -3.01097 876.551C-4.27813 877.895 -4.10595 880.109 -2.62575 881.504C-1.14554 882.9 1.07492 882.941 2.34208 881.596C3.60924 880.252 3.43705 878.037 1.95685 876.642Z" fill="#A0D591"/>
<path d="M0.777029 862.659C-0.662618 861.302 -2.80781 861.263 -4.04025 862.57C-5.27269 863.878 -5.10635 866.017 -3.66671 867.374C-2.22706 868.731 -0.0818596 868.77 1.15058 867.463C2.38302 866.155 2.21668 864.016 0.777029 862.659Z" fill="#A0D591"/>
<path d="M-0.638251 848.062C-2.36343 846.858 -4.61314 847.186 -5.66314 848.793C-6.71314 850.401 -6.1658 852.68 -4.44062 853.883C-2.71544 855.087 -0.465707 854.759 0.584289 853.151C1.63428 851.544 1.08693 849.265 -0.638251 848.062Z" fill="#A0D591"/>
<path d="M-1.0942 834.257C-2.71799 832.726 -5.1612 832.681 -6.55128 834.156C-7.94136 835.631 -7.75191 838.067 -6.12812 839.598C-4.50434 841.128 -2.06111 841.173 -0.671029 839.698C0.719048 838.224 0.529582 835.787 -1.0942 834.257Z" fill="#A0D591"/>
<path d="M-2.207 820.204C-3.83078 818.674 -6.274 818.629 -7.66407 820.103C-9.05415 821.578 -8.8647 824.015 -7.24091 825.545C-5.61713 827.075 -3.1739 827.121 -1.78382 825.646C-0.393745 824.171 -0.58321 821.735 -2.207 820.204Z" fill="#A0D591"/>
<path d="M15.6685 877.287C14.4114 876.102 12.5296 876.067 11.4534 877.209C10.3772 878.351 10.5231 880.227 11.7803 881.412C13.0374 882.597 14.9192 882.632 15.9954 881.49C17.0716 880.348 16.9257 878.472 15.6685 877.287Z" fill="#A0D591"/>
<path d="M14.767 863.049C13.4085 861.769 11.3386 861.731 10.1756 862.965C9.01255 864.199 9.17307 866.263 10.5316 867.543C11.8901 868.824 13.9601 868.862 15.1231 867.628C16.2861 866.394 16.1256 864.33 14.767 863.049Z" fill="#A0D591"/>
<path d="M13.5165 849.143C12.2593 847.958 10.3399 847.922 9.26372 849.064C8.1875 850.206 8.33635 852.12 9.5935 853.305C10.8507 854.49 12.77 854.525 13.8463 853.383C14.9225 852.242 14.7736 850.328 13.5165 849.143Z" fill="#A0D591"/>
<path d="M12.7026 834.814C11.258 833.453 9.08438 833.412 7.84769 834.725C6.611 836.037 6.77954 838.204 8.22415 839.566C9.66875 840.927 11.8424 840.967 13.0791 839.655C14.3158 838.343 14.1472 836.176 12.7026 834.814Z" fill="#A0D591"/>
<path d="M11.7673 820.611C10.2331 819.165 7.92473 819.122 6.61134 820.516C5.29796 821.909 5.47695 824.211 7.01115 825.657C8.54534 827.103 10.8538 827.146 12.1672 825.752C13.4805 824.359 13.3015 822.057 11.7673 820.611Z" fill="#A0D591"/>
<path d="M10.4654 806.759C9.04606 805.421 6.92113 805.401 5.72341 806.672C4.52568 807.943 4.69203 810.082 6.09113 811.4C7.49022 812.719 9.63542 812.759 10.8331 811.488C12.0309 810.217 11.8645 808.078 10.4654 806.759Z" fill="#A0D591"/>
<path d="M9.61631 792.467C8.055 790.995 5.72163 790.952 4.38504 792.37C3.04845 793.788 3.21203 796.133 4.77333 797.605C6.33464 799.077 8.66802 799.12 10.022 797.683C11.3759 796.247 11.1776 793.938 9.61631 792.467Z" fill="#A0D591"/>
<path d="M8.59057 778.319C6.98871 776.809 4.55978 776.745 3.17112 778.219C1.78245 779.692 1.96924 782.094 3.59138 783.623C5.21352 785.152 7.62215 785.196 9.01082 783.723C10.3995 782.249 10.2127 779.848 8.59057 778.319Z" fill="#A0D591"/>
<path d="M7.50075 764.284C5.89888 762.774 3.46997 762.71 2.0813 764.184C0.692635 765.657 0.879412 768.059 2.50155 769.588C4.12369 771.116 6.53232 771.161 7.92099 769.688C9.30966 768.214 9.12288 765.812 7.50075 764.284Z" fill="#A0D591"/>
<path d="M6.40602 750.209C4.79343 748.689 2.36707 748.645 0.986575 750.109C-0.393916 751.574 -0.205764 753.993 1.40682 755.513C3.01941 757.033 5.44577 757.078 6.82626 755.613C8.20676 754.149 8.01861 751.729 6.40602 750.209Z" fill="#A0D591"/>
<path d="M5.22834 736.266C3.67175 734.799 1.32963 734.756 -0.00292645 736.17C-1.33548 737.584 -1.15387 739.919 0.402729 741.386C1.95932 742.853 4.30144 742.897 5.634 741.483C6.96656 740.069 6.78494 737.734 5.22834 736.266Z" fill="#A0D591"/>
<path d="M4.08367 722.287C2.57187 720.862 0.297152 720.82 -0.997058 722.193C-2.29127 723.566 -2.11488 725.835 -0.603076 727.26C0.908724 728.684 3.18344 728.726 4.47765 727.353C5.77186 725.98 5.59547 723.712 4.08367 722.287Z" fill="#A0D591"/>
<path d="M2.72839 708.491C1.39013 707.23 -0.64215 707.193 -1.7878 708.408C-2.93345 709.624 -2.77586 711.65 -1.43759 712.911C-0.0993312 714.173 1.93295 714.21 3.0786 712.995C4.22425 711.779 4.06666 709.753 2.72839 708.491Z" fill="#A0D591"/>
<path d="M1.79488 694.289C0.355237 692.932 -1.8276 692.892 -3.06004 694.199C-4.29248 695.507 -4.12322 697.683 -2.68357 699.04C-1.24392 700.397 0.938914 700.437 2.17136 699.13C3.4038 697.822 3.23453 695.646 1.79488 694.289Z" fill="#A0D591"/>
<path d="M0.526259 680.4C-0.812004 679.138 -2.8443 679.101 -3.98995 680.316C-5.1356 681.532 -4.97801 683.558 -3.63974 684.82C-2.30148 686.081 -0.269185 686.119 0.876465 684.903C2.02211 683.687 1.86452 681.661 0.526259 680.4Z" fill="#A0D591"/>
<path d="M-0.860359 666.677C-2.01613 665.588 -3.74734 665.556 -4.73676 666.605C-5.72619 667.655 -5.59194 669.381 -4.43617 670.471C-3.2804 671.56 -1.54918 671.592 -0.55975 670.542C0.429675 669.493 0.295414 667.766 -0.860359 666.677Z" fill="#A0D591"/>
<path d="M-1.85183 652.496C-3.06844 651.349 -4.91254 651.315 -5.95404 652.42C-6.99554 653.525 -6.85255 655.364 -5.63595 656.511C-4.41935 657.657 -2.57522 657.691 -1.53372 656.586C-0.492216 655.481 -0.635231 653.642 -1.85183 652.496Z" fill="#A0D591"/>
<path d="M29.3476 878.008C28.3743 877.09 26.9065 877.063 26.0733 877.947C25.2401 878.831 25.354 880.295 26.3272 881.212C27.3005 882.129 28.7683 882.157 29.6015 881.272C30.4347 880.388 30.3209 878.925 29.3476 878.008Z" fill="#A0D591"/>
<path d="M28.4429 863.734C27.348 862.702 25.6921 862.671 24.7547 863.666C23.8174 864.66 23.9458 866.312 25.0407 867.344C26.1357 868.376 27.7916 868.406 28.7289 867.412C29.6663 866.417 29.5379 864.766 28.4429 863.734Z" fill="#A0D591"/>
<path d="M27.6127 849.422C26.3472 848.229 24.4432 848.194 23.3599 849.344C22.2766 850.493 22.4243 852.392 23.6897 853.584C24.9551 854.777 26.8591 854.812 27.9425 853.663C29.0258 852.513 28.8781 850.615 27.6127 849.422Z" fill="#A0D591"/>
<path d="M26.3817 835.495C25.2057 834.387 23.4165 834.335 22.3924 835.422C21.3682 836.508 21.5054 838.272 22.7017 839.4C23.8981 840.527 25.6669 840.56 26.6911 839.473C27.7152 838.387 27.578 836.623 26.3817 835.495Z" fill="#A0D591"/>
<path d="M25.4093 821.332C24.155 820.149 22.2679 820.115 21.1941 821.254C20.1204 822.393 20.2668 824.275 21.521 825.457C22.7752 826.639 24.6624 826.674 25.7361 825.535C26.8098 824.396 26.6635 822.514 25.4093 821.332Z" fill="#A0D591"/>
<path d="M24.5787 807.019C23.1593 805.681 21.0344 805.661 19.8367 806.932C18.639 808.202 18.8053 810.341 20.2044 811.66C21.6035 812.979 23.7487 813.018 24.9464 811.748C26.1442 810.477 25.9778 808.338 24.5787 807.019Z" fill="#A0D591"/>
<path d="M23.2927 793.149C21.995 791.926 20.038 791.89 18.927 793.068C17.8161 794.247 17.9679 796.198 19.2656 797.422C20.5633 798.645 22.5203 798.681 23.6312 797.502C24.7422 796.323 24.5904 794.372 23.2927 793.149Z" fill="#A0D591"/>
<path d="M22.253 779.057C20.9204 777.801 18.9153 777.764 17.7744 778.974C16.6336 780.185 16.7891 782.184 18.1217 783.44C19.4544 784.696 21.4595 784.733 22.6003 783.523C23.7411 782.313 23.5856 780.313 22.253 779.057Z" fill="#A0D591"/>
<path d="M21.3496 764.782C19.8897 763.406 17.6693 763.365 16.4195 764.691C15.1697 766.017 15.3418 768.231 16.8018 769.608C18.2617 770.984 20.4821 771.024 21.7319 769.698C22.9817 768.372 22.8096 766.158 21.3496 764.782Z" fill="#A0D591"/>
<path d="M20.2402 750.767C18.7956 749.406 16.622 749.366 15.3853 750.678C14.1486 751.99 14.3171 754.157 15.7618 755.519C17.2064 756.88 19.38 756.92 20.6167 755.608C21.8534 754.296 21.6848 752.129 20.2402 750.767Z" fill="#A0D591"/>
<path d="M18.8862 736.97C17.6088 735.766 15.6691 735.712 14.5582 736.891C13.4472 738.069 13.5961 739.983 14.8938 741.206C16.1915 742.429 18.1109 742.465 19.2218 741.286C20.3327 740.107 20.1839 738.194 18.8862 736.97Z" fill="#A0D591"/>
<path d="M17.7603 722.97C16.5061 721.788 14.6189 721.753 13.5452 722.892C12.4715 724.032 12.6178 725.913 13.8721 727.096C15.1263 728.278 17.0135 728.313 18.0872 727.173C19.1609 726.034 19.0146 724.152 17.7603 722.97Z" fill="#A0D591"/>
<path d="M16.8246 708.769C15.4863 707.507 13.454 707.47 12.3084 708.685C11.1627 709.901 11.3203 711.927 12.6586 713.189C13.9969 714.45 16.0291 714.488 17.1748 713.272C18.3204 712.057 18.1629 710.03 16.8246 708.769Z" fill="#A0D591"/>
<path d="M15.4691 694.972C14.2931 693.863 12.504 693.812 11.4798 694.898C10.4557 695.985 10.5928 697.749 11.7891 698.876C12.9855 700.004 14.7543 700.036 15.7785 698.95C16.8026 697.863 16.6654 696.099 15.4691 694.972Z" fill="#A0D591"/>
<path d="M14.2058 681.121C13.1311 680.108 11.5331 680.097 10.6305 681.055C9.72782 682.012 9.85331 683.626 10.9077 684.62C11.9621 685.614 13.5804 685.643 14.483 684.686C15.3857 683.728 15.2602 682.114 14.2058 681.121Z" fill="#A0D591"/>
<path d="M13.2324 666.919C12.0767 665.83 10.3454 665.798 9.35602 666.848C8.3666 667.897 8.50085 669.624 9.65662 670.713C10.8124 671.802 12.5436 671.834 13.533 670.784C14.5224 669.735 14.3882 668.008 13.2324 666.919Z" fill="#A0D591"/>
<path d="M11.8289 653.213C10.8759 652.315 9.44581 652.289 8.62997 653.154C7.81412 654.02 7.92502 655.446 8.87803 656.344C9.83103 657.242 11.2612 657.269 12.077 656.403C12.8929 655.537 12.7819 654.111 11.8289 653.213Z" fill="#A0D591"/>
<path d="M10.5268 639.363C9.70927 638.593 8.47924 638.57 7.77941 639.313C7.07958 640.055 7.17496 641.282 7.99245 642.052C8.80994 642.823 10.04 642.845 10.7398 642.103C11.4396 641.36 11.3443 640.134 10.5268 639.363Z" fill="#A0D591"/>
<path d="M9.20968 625.567C8.53777 624.934 7.52676 624.915 6.95156 625.525C6.37635 626.136 6.45477 627.144 7.12668 627.777C7.79859 628.41 8.80955 628.429 9.38476 627.819C9.95996 627.209 9.8816 626.2 9.20968 625.567Z" fill="#A0D591"/>
<path d="M8.14821 611.457C7.4539 610.803 6.40919 610.784 5.81481 611.414C5.22044 612.045 5.30147 613.087 5.99578 613.741C6.69009 614.396 7.73476 614.415 8.32914 613.784C8.92352 613.154 8.84252 612.112 8.14821 611.457Z" fill="#A0D591"/>
<path d="M6.72836 597.77C6.24171 597.312 5.52664 597.299 5.11004 597.741C4.69344 598.183 4.7489 598.896 5.23554 599.354C5.72218 599.813 6.43724 599.826 6.85384 599.384C7.27044 598.942 7.215 598.229 6.72836 597.77Z" fill="#A0D591"/>
<path d="M5.41093 583.975C5.0865 583.67 4.59727 583.661 4.31954 583.955C4.04181 584.25 4.07972 584.738 4.40415 585.044C4.72857 585.349 5.21786 585.358 5.49559 585.064C5.77333 584.769 5.73536 584.281 5.41093 583.975Z" fill="#A0D591"/>
<path d="M4.2996 569.921C3.97518 569.615 3.48592 569.606 3.20819 569.901C2.93045 570.195 2.96839 570.683 3.29282 570.989C3.61724 571.295 4.10651 571.304 4.38424 571.009C4.66197 570.714 4.62403 570.227 4.2996 569.921Z" fill="#A0D591"/>
<path d="M2.87732 556.234C2.76534 556.128 2.59682 556.125 2.50095 556.227C2.40508 556.329 2.41818 556.497 2.53016 556.602C2.64215 556.708 2.81061 556.711 2.90648 556.609C3.00235 556.507 2.98931 556.339 2.87732 556.234Z" fill="#A0D591"/>
<path d="M43.0225 878.694C42.3128 878.025 41.259 878.006 40.6515 878.65C40.044 879.295 40.1257 880.346 40.8354 881.014C41.5451 881.683 42.5988 881.703 43.2064 881.058C43.8139 880.414 43.7322 879.363 43.0225 878.694Z" fill="#A0D591"/>
<path d="M42.2443 864.324C41.3373 863.469 39.9724 863.444 39.1959 864.267C38.4194 865.091 38.5252 866.452 39.4323 867.307C40.3394 868.162 41.7042 868.187 42.4807 867.363C43.2573 866.54 43.1514 865.179 42.2443 864.324Z" fill="#A0D591"/>
<path d="M41.2712 850.123C40.2776 849.187 38.8099 849.16 37.9593 850.062C37.1088 850.965 37.2226 852.428 38.2161 853.365C39.2097 854.301 40.6775 854.328 41.528 853.426C42.3786 852.524 42.2648 851.06 41.2712 850.123Z" fill="#A0D591"/>
<path d="M40.3541 835.904C39.2566 834.869 37.6053 834.839 36.6658 835.836C35.7263 836.833 35.8544 838.479 36.9519 839.514C38.0493 840.548 39.7006 840.578 40.6401 839.582C41.5796 838.585 41.4515 836.938 40.3541 835.904Z" fill="#A0D591"/>
<path d="M39.2589 821.832C38.1639 820.8 36.508 820.769 35.5706 821.764C34.6333 822.758 34.7617 824.409 35.8566 825.441C36.9516 826.473 38.6075 826.504 39.5449 825.509C40.4822 824.515 40.3538 822.864 39.2589 821.832Z" fill="#A0D591"/>
<path d="M38.2211 807.74C37.0856 806.67 35.3921 806.638 34.42 807.67C33.4479 808.701 33.5792 810.39 34.7147 811.46C35.8502 812.53 37.5438 812.562 38.5159 811.53C39.4879 810.499 39.3566 808.81 38.2211 807.74Z" fill="#A0D591"/>
<path d="M37.2147 793.613C36.0387 792.504 34.2496 792.452 33.2254 793.539C32.2013 794.626 32.3384 796.389 33.5348 797.517C34.7311 798.644 36.4999 798.677 37.5241 797.591C38.5482 796.504 38.4111 794.74 37.2147 793.613Z" fill="#A0D591"/>
<path d="M36.12 779.538C34.9439 778.43 33.1548 778.378 32.1307 779.465C31.1066 780.551 31.2437 782.315 32.44 783.443C33.6364 784.57 35.4052 784.603 36.4293 783.516C37.4535 782.43 37.3163 780.666 36.12 779.538Z" fill="#A0D591"/>
<path d="M35.0292 765.503C33.8531 764.395 32.064 764.343 31.0399 765.43C30.0157 766.516 30.1529 768.28 31.3492 769.408C32.5455 770.535 34.3144 770.568 35.3385 769.481C36.3627 768.395 36.2255 766.631 35.0292 765.503Z" fill="#A0D591"/>
<path d="M33.9188 751.448C32.7428 750.34 30.9536 750.288 29.9295 751.375C28.9054 752.461 29.0425 754.225 30.2389 755.353C31.4352 756.48 33.204 756.513 34.2282 755.426C35.2523 754.34 35.1152 752.576 33.9188 751.448Z" fill="#A0D591"/>
<path d="M32.7568 737.486C31.6257 736.42 29.9239 736.389 28.9556 737.416C27.9874 738.443 28.1194 740.14 29.2504 741.206C30.3815 742.272 32.0833 742.304 33.0515 741.276C34.0198 740.249 33.8878 738.552 32.7568 737.486Z" fill="#A0D591"/>
<path d="M31.6625 723.414C30.5315 722.348 28.8297 722.316 27.8614 723.344C26.8931 724.371 27.0251 726.068 28.1562 727.134C29.2872 728.2 30.989 728.231 31.9573 727.204C32.9255 726.177 32.7936 724.48 31.6625 723.414Z" fill="#A0D591"/>
<path d="M30.467 709.49C29.3923 708.477 27.7943 708.466 26.8917 709.424C25.9891 710.381 26.1145 711.995 27.1689 712.989C28.2233 713.983 29.8416 714.013 30.7443 713.055C31.6469 712.097 31.5214 710.483 30.467 709.49Z" fill="#A0D591"/>
<path d="M29.2712 695.563C28.2777 694.626 26.8099 694.599 25.9593 695.502C25.1088 696.404 25.2226 697.868 26.2161 698.804C27.2097 699.741 28.6775 699.768 29.528 698.865C30.3786 697.963 30.2648 696.499 29.2712 695.563Z" fill="#A0D591"/>
<path d="M28.1579 681.51C27.1644 680.574 25.6966 680.547 24.8461 681.449C23.9955 682.352 24.1093 683.815 25.1029 684.752C26.0964 685.688 27.5642 685.715 28.4147 684.813C29.2653 683.91 29.1515 682.447 28.1579 681.51Z" fill="#A0D591"/>
<path d="M26.9298 667.619C26.0376 666.778 24.7204 666.754 23.9566 667.564C23.1929 668.375 23.295 669.688 24.1872 670.529C25.0794 671.37 26.3966 671.394 27.1604 670.584C27.9241 669.774 27.822 668.46 26.9298 667.619Z" fill="#A0D591"/>
<path d="M25.6443 653.749C24.8738 653.023 23.7071 653.001 23.0475 653.701C22.3879 654.401 22.4784 655.564 23.2489 656.29C24.0194 657.017 25.1861 657.038 25.8457 656.338C26.5053 655.639 26.4148 654.475 25.6443 653.749Z" fill="#A0D591"/>
<path d="M24.2215 640.066C23.6538 639.531 22.8258 639.515 22.3398 640.031C21.8537 640.547 21.9179 641.372 22.4857 641.907C23.0534 642.443 23.8814 642.458 24.3674 641.942C24.8535 641.427 24.7893 640.601 24.2215 640.066Z" fill="#A0D591"/>
<path d="M23.2325 625.881C22.6053 625.29 21.6618 625.273 21.1249 625.842C20.588 626.412 20.6612 627.353 21.2883 627.944C21.9154 628.535 22.859 628.552 23.3959 627.983C23.9327 627.413 23.8596 626.472 23.2325 625.881Z" fill="#A0D591"/>
<path d="M21.9159 612.085C21.4292 611.626 20.7141 611.613 20.2975 612.055C19.8809 612.497 19.9364 613.21 20.423 613.669C20.9097 614.127 21.6247 614.141 22.0413 613.699C22.4579 613.257 22.4025 612.544 21.9159 612.085Z" fill="#A0D591"/>
<path d="M20.4923 598.361C20.2085 598.094 19.7945 598.086 19.5515 598.344C19.3085 598.602 19.3406 599.015 19.6244 599.282C19.9083 599.55 20.3223 599.557 20.5653 599.3C20.8083 599.042 20.7762 598.629 20.4923 598.361Z" fill="#A0D591"/>
<path d="M19.4172 584.307C19.1333 584.039 18.7193 584.032 18.4763 584.289C18.2333 584.547 18.2654 584.96 18.5492 585.228C18.8331 585.495 19.2471 585.503 19.4901 585.245C19.7331 584.987 19.701 584.574 19.4172 584.307Z" fill="#A0D591"/>
<path d="M18.0819 570.533C17.9602 570.418 17.7923 570.434 17.7055 570.526C17.6187 570.618 17.6333 570.805 17.7347 570.901C17.8361 570.996 18.0243 571 18.1111 570.908C18.1979 570.816 18.1833 570.628 18.0819 570.533Z" fill="#A0D591"/>
<path d="M57.1187 878.971C56.4132 878.306 55.3517 878.287 54.7477 878.928C54.1437 879.568 54.226 880.627 54.9316 881.292C55.6371 881.957 56.6986 881.976 57.3026 881.336C57.9065 880.695 57.8242 879.636 57.1187 878.971Z" fill="#A0D591"/>
<path d="M55.8868 865.045C55.2582 864.452 54.3173 864.435 53.7792 865.006C53.2411 865.577 53.3141 866.515 53.9426 867.107C54.5712 867.7 55.5121 867.717 56.0502 867.146C56.5883 866.575 56.5153 865.637 55.8868 865.045Z" fill="#A0D591"/>
<path d="M54.9336 850.862C54.2281 850.197 53.1666 850.177 52.5626 850.818C51.9587 851.459 52.041 852.518 52.7465 853.182C53.452 853.847 54.5135 853.867 55.1175 853.226C55.7215 852.585 55.6392 851.527 54.9336 850.862Z" fill="#A0D591"/>
<path d="M54.134 836.476C53.2269 835.621 51.8621 835.596 51.0855 836.42C50.309 837.244 50.4149 838.605 51.3219 839.46C52.229 840.314 53.5939 840.34 54.3704 839.516C55.1469 838.692 55.0411 837.331 54.134 836.476Z" fill="#A0D591"/>
<path d="M53.164 822.312C52.1907 821.395 50.7229 821.368 49.8897 822.252C49.0565 823.136 49.1704 824.599 50.1437 825.517C51.1169 826.434 52.5847 826.461 53.4179 825.577C54.2511 824.693 54.1373 823.23 53.164 822.312Z" fill="#A0D591"/>
<path d="M51.8457 808.478C51.0143 807.694 49.7348 807.671 49.0231 808.426C48.3114 809.181 48.4106 810.457 49.2419 811.24C50.0733 812.024 51.3529 812.047 52.0646 811.292C52.7763 810.537 52.677 809.261 51.8457 808.478Z" fill="#A0D591"/>
<path d="M51.0484 794.129C50.0346 793.174 48.4915 793.145 47.6236 794.066C46.7557 794.987 46.8754 796.526 47.8892 797.481C48.903 798.437 50.4461 798.465 51.314 797.545C52.1819 796.624 52.0622 795.085 51.0484 794.129Z" fill="#A0D591"/>
<path d="M49.9909 780.059C48.9494 779.077 47.3824 779.048 46.4908 779.994C45.5992 780.94 45.7208 782.503 46.7622 783.484C47.8037 784.466 49.3707 784.495 50.2623 783.549C51.1538 782.603 51.0323 781.04 49.9909 780.059Z" fill="#A0D591"/>
<path d="M48.6711 766.222C47.7587 765.362 46.4038 765.337 45.6227 766.166C44.8415 766.995 44.9466 768.346 45.8591 769.206C46.7715 770.066 48.1264 770.091 48.9075 769.262C49.6886 768.433 49.5836 767.082 48.6711 766.222Z" fill="#A0D591"/>
<path d="M47.5621 752.207C46.67 751.366 45.3354 751.36 44.589 752.152C43.8426 752.944 43.9273 754.276 44.8195 755.117C45.7117 755.958 47.0289 755.982 47.7927 755.172C48.5565 754.361 48.4543 753.048 47.5621 752.207Z" fill="#A0D591"/>
<path d="M46.6754 737.913C45.6563 736.952 44.123 736.924 43.2506 737.849C42.3782 738.775 42.4971 740.304 43.5162 741.265C44.5352 742.225 46.0685 742.253 46.9409 741.328C47.8133 740.402 47.6944 738.873 46.6754 737.913Z" fill="#A0D591"/>
<path d="M45.4798 723.989C44.5268 723.09 43.0967 723.064 42.2809 723.93C41.465 724.795 41.5759 726.221 42.5289 727.119C43.4819 728.018 44.9121 728.044 45.7279 727.178C46.5438 726.313 46.4329 724.887 45.4798 723.989Z" fill="#A0D591"/>
<path d="M44.1427 710.173C43.3317 709.408 42.1273 709.386 41.433 710.123C40.7387 710.86 40.832 712.06 41.6431 712.825C42.4542 713.589 43.6585 713.612 44.3528 712.875C45.0472 712.138 44.9538 710.937 44.1427 710.173Z" fill="#A0D591"/>
<path d="M43.2248 695.953C42.3177 695.098 40.9529 695.072 40.1764 695.896C39.3998 696.72 39.5057 698.081 40.4128 698.936C41.3198 699.791 42.6847 699.816 43.4612 698.992C44.2377 698.168 44.1319 696.808 43.2248 695.953Z" fill="#A0D591"/>
<path d="M41.9762 682.083C41.1651 681.319 39.9608 681.296 39.2665 682.033C38.5721 682.77 38.6655 683.971 39.4766 684.735C40.2877 685.5 41.492 685.522 42.1863 684.785C42.8807 684.048 42.7873 682.847 41.9762 682.083Z" fill="#A0D591"/>
<path d="M40.605 668.304C39.9764 667.712 39.0356 667.695 38.4975 668.265C37.9594 668.836 38.0323 669.775 38.6609 670.367C39.2895 670.959 40.2303 670.977 40.7684 670.406C41.3066 669.835 41.2336 668.897 40.605 668.304Z" fill="#A0D591"/>
<path d="M39.2894 654.508C38.8027 654.05 38.0877 654.036 37.6711 654.478C37.2545 654.92 37.3099 655.633 37.7966 656.092C38.2832 656.551 38.9983 656.564 39.4149 656.122C39.8315 655.68 39.776 654.967 39.2894 654.508Z" fill="#A0D591"/>
<path d="M38.3143 640.306C37.7465 639.771 36.9186 639.756 36.4325 640.272C35.9465 640.787 36.0107 641.613 36.5784 642.148C37.1462 642.683 37.9742 642.698 38.4602 642.183C38.9462 641.667 38.882 640.841 38.3143 640.306Z" fill="#A0D591"/>
<path d="M36.8924 626.621C36.5477 626.296 36.0209 626.287 35.7258 626.6C35.4307 626.913 35.4715 627.438 35.8162 627.763C36.1609 628.088 36.6878 628.098 36.9829 627.785C37.278 627.471 37.2371 626.946 36.8924 626.621Z" fill="#A0D591"/>
<path d="M35.5558 612.806C35.3531 612.615 35.052 612.609 34.8784 612.793C34.7048 612.977 34.7281 613.278 34.9309 613.469C35.1337 613.66 35.4348 613.665 35.6083 613.481C35.7819 613.297 35.7586 612.997 35.5558 612.806Z" fill="#A0D591"/>
<path d="M34.569 598.661C34.3054 598.412 33.9116 598.424 33.7033 598.645C33.495 598.866 33.5271 599.279 33.7705 599.508C34.0138 599.737 34.4278 599.745 34.6361 599.524C34.8444 599.303 34.8123 598.89 34.569 598.661Z" fill="#A0D591"/>
<path d="M33.1626 584.918C33.1626 584.918 32.9883 584.858 32.9361 584.913C32.884 584.968 32.8929 585.081 32.954 585.139C33.0151 585.197 33.1283 585.199 33.1805 585.143C33.2327 585.088 33.2237 584.975 33.1626 584.918Z" fill="#A0D591"/>
<path d="M70.7782 879.673C70.3527 879.272 69.7124 879.26 69.3481 879.646C68.9838 880.033 69.0334 880.671 69.459 881.072C69.8845 881.473 70.5248 881.485 70.8891 881.099C71.2534 880.712 71.2037 880.074 70.7782 879.673Z" fill="#A0D591"/>
<path d="M69.8601 865.455C69.3126 864.939 68.5049 864.943 68.0536 865.422C67.6023 865.901 67.6665 866.726 68.1937 867.223C68.7209 867.72 69.5489 867.735 70.0002 867.256C70.4515 866.778 70.3873 865.952 69.8601 865.455Z" fill="#A0D591"/>
<path d="M68.7644 851.383C68.2169 850.867 67.4092 850.871 66.9579 851.349C66.5066 851.828 66.5708 852.654 67.098 853.151C67.6252 853.648 68.4532 853.663 68.9045 853.184C69.3558 852.705 69.2916 851.88 68.7644 851.383Z" fill="#A0D591"/>
<path d="M67.813 837.197C67.1845 836.604 66.2436 836.587 65.7055 837.158C65.1674 837.729 65.2403 838.667 65.8689 839.26C66.4975 839.852 67.4383 839.869 67.9765 839.298C68.5146 838.728 68.4416 837.789 67.813 837.197Z" fill="#A0D591"/>
<path d="M66.7878 823.051C66.1187 822.421 65.1025 822.402 64.5297 823.01C63.9569 823.617 64.0357 824.631 64.7048 825.261C65.3739 825.892 66.3901 825.911 66.9629 825.303C67.5357 824.695 67.4569 823.682 66.7878 823.051Z" fill="#A0D591"/>
<path d="M65.9585 808.737C65.1186 807.946 63.8549 807.923 63.1359 808.685C62.4168 809.448 62.5148 810.708 63.3547 811.5C64.1946 812.292 65.4584 812.315 66.1774 811.552C66.8964 810.789 66.7984 809.529 65.9585 808.737Z" fill="#A0D591"/>
<path d="M64.6879 794.85C63.958 794.162 62.8289 794.142 62.204 794.805C61.5791 795.468 61.6666 796.593 62.3966 797.281C63.1266 797.969 64.2556 797.99 64.8805 797.327C65.5054 796.664 65.4179 795.538 64.6879 794.85Z" fill="#A0D591"/>
<path d="M63.6328 780.778C62.8826 780.07 61.7332 780.03 61.0736 780.73C60.414 781.43 60.5015 782.556 61.2721 783.282C62.0426 784.008 63.1716 784.029 63.8312 783.329C64.4909 782.63 64.4033 781.504 63.6328 780.778Z" fill="#A0D591"/>
<path d="M62.5586 766.723C61.8083 766.016 60.659 765.976 59.9994 766.676C59.3398 767.375 59.4273 768.501 60.1978 769.228C60.9684 769.954 62.0974 769.975 62.757 769.275C63.4166 768.575 63.3291 767.449 62.5586 766.723Z" fill="#A0D591"/>
<path d="M61.4458 752.67C60.6955 751.963 59.5462 751.923 58.8866 752.623C58.227 753.323 58.3145 754.449 59.085 755.175C59.8556 755.901 60.9846 755.922 61.6442 755.222C62.3039 754.522 62.2163 753.396 61.4458 752.67Z" fill="#A0D591"/>
<path d="M60.2867 738.706C59.5812 738.041 58.5196 738.021 57.9157 738.662C57.3117 739.303 57.394 740.361 58.0995 741.026C58.805 741.691 59.8666 741.711 60.4705 741.07C61.0745 740.429 60.9922 739.371 60.2867 738.706Z" fill="#A0D591"/>
<path d="M59.1389 724.69C58.4697 724.059 57.4536 724.041 56.8808 724.648C56.3079 725.256 56.3867 726.269 57.0559 726.9C57.725 727.531 58.7411 727.549 59.314 726.942C59.8868 726.334 59.808 725.321 59.1389 724.69Z" fill="#A0D591"/>
<path d="M58.256 710.433C57.4497 709.673 56.2365 709.65 55.5463 710.383C54.856 711.115 54.9501 712.325 55.7564 713.085C56.5627 713.845 57.7759 713.867 58.4661 713.135C59.1564 712.402 59.0623 711.193 58.256 710.433Z" fill="#A0D591"/>
<path d="M56.8496 696.69C56.2413 696.116 55.3381 696.1 54.8173 696.652C54.2966 697.205 54.3666 698.105 54.9749 698.679C55.5832 699.252 56.4864 699.269 57.0072 698.716C57.5279 698.164 57.4579 697.263 56.8496 696.69Z" fill="#A0D591"/>
<path d="M55.6362 682.784C55.109 682.288 54.3187 682.273 53.8673 682.752C53.416 683.231 53.4773 684.019 54.0045 684.516C54.5317 685.012 55.322 685.027 55.7734 684.548C56.2247 684.069 56.1634 683.281 55.6362 682.784Z" fill="#A0D591"/>
<path d="M54.3702 668.934C53.9559 668.543 53.3324 668.532 52.9777 668.908C52.623 669.284 52.6713 669.906 53.0857 670.297C53.5 670.687 54.1235 670.699 54.4782 670.322C54.8329 669.946 54.7846 669.324 54.3702 668.934Z" fill="#A0D591"/>
<path d="M53.2589 654.877C52.8533 654.495 52.2309 654.465 51.8664 654.852C51.5019 655.238 51.5486 655.839 51.9744 656.24C52.4002 656.641 53.0023 656.653 53.3669 656.266C53.7314 655.879 53.6847 655.279 53.2589 654.877Z" fill="#A0D591"/>
<path d="M51.9941 641.026C51.69 640.739 51.2586 640.75 51.0156 641.008C50.7726 641.266 50.8076 641.716 51.0915 641.984C51.3753 642.251 51.827 642.259 52.07 642.002C52.313 641.744 52.278 641.293 51.9941 641.026Z" fill="#A0D591"/>
<path d="M50.7257 627.14C50.5432 626.968 50.2797 626.963 50.1235 627.129C49.9673 627.295 49.9877 627.557 50.1702 627.729C50.3527 627.901 50.6161 627.906 50.7724 627.74C50.9286 627.575 50.9082 627.312 50.7257 627.14Z" fill="#A0D591"/>
<path d="M49.6343 613.103C49.4518 612.931 49.1884 612.926 49.0322 613.092C48.876 613.258 48.8964 613.52 49.0789 613.692C49.2614 613.864 49.5248 613.869 49.681 613.703C49.8373 613.538 49.8168 613.275 49.6343 613.103Z" fill="#A0D591"/>
<path d="M48.2616 599.325C48.2501 599.314 48.2332 599.314 48.2237 599.324C48.2142 599.334 48.2158 599.351 48.2273 599.362C48.2388 599.372 48.2557 599.373 48.2652 599.363C48.2747 599.353 48.2731 599.336 48.2616 599.325Z" fill="#A0D591"/>
<path d="M84.4923 880.357C84.3131 880.188 84.0435 880.183 83.8901 880.345C83.7367 880.508 83.7576 880.777 83.9368 880.946C84.116 881.115 84.3856 881.12 84.539 880.957C84.6923 880.794 84.6714 880.525 84.4923 880.357Z" fill="#A0D591"/>
<path d="M83.64 866.027C83.2953 865.702 82.7684 865.693 82.4733 866.006C82.1782 866.319 82.2191 866.844 82.5638 867.169C82.9085 867.494 83.4354 867.504 83.7305 867.191C84.0256 866.877 83.9847 866.352 83.64 866.027Z" fill="#A0D591"/>
<path d="M82.6889 851.843C82.2631 851.441 81.6232 851.429 81.2587 851.816C80.8942 852.203 80.9438 852.841 81.3696 853.242C81.7954 853.644 82.4352 853.655 82.7997 853.269C83.1643 852.882 83.1147 852.244 82.6889 851.843Z" fill="#A0D591"/>
<path d="M81.4383 837.936C81.1139 837.63 80.6246 837.621 80.3469 837.916C80.0691 838.21 80.1071 838.698 80.4315 839.004C80.7559 839.31 81.2452 839.319 81.5229 839.024C81.8006 838.73 81.7627 838.242 81.4383 837.936Z" fill="#A0D591"/>
<path d="M80.6061 823.624C80.1194 823.165 79.3667 823.152 78.9501 823.594C78.5335 824.036 78.5919 824.786 79.0785 825.245C79.5652 825.703 80.3179 825.717 80.7345 825.275C81.1511 824.833 81.0927 824.083 80.6061 823.624Z" fill="#A0D591"/>
<path d="M79.598 809.458C79.0302 808.923 78.2023 808.908 77.7162 809.424C77.2302 809.939 77.2944 810.765 77.8621 811.3C78.4299 811.835 79.2579 811.85 79.7439 811.335C80.2299 810.819 80.1657 809.993 79.598 809.458Z" fill="#A0D591"/>
<path d="M78.5773 795.349C77.9893 794.795 77.0861 794.778 76.5827 795.312C76.0793 795.846 76.1493 796.747 76.7373 797.301C77.3254 797.856 78.2286 797.872 78.732 797.338C79.2354 796.804 79.1654 795.903 78.5773 795.349Z" fill="#A0D591"/>
<path d="M77.2561 781.515C76.7897 781.075 76.1123 781.063 75.7131 781.486C75.3138 781.91 75.3664 782.585 75.8327 783.025C76.2991 783.464 76.9765 783.477 77.3757 783.053C77.775 782.63 77.7225 781.954 77.2561 781.515Z" fill="#A0D591"/>
<path d="M76.4082 767.223C75.8035 766.653 74.8936 766.636 74.3759 767.185C73.8582 767.735 73.9288 768.642 74.5335 769.212C75.1382 769.782 76.0481 769.799 76.5658 769.249C77.0835 768.7 77.0129 767.793 76.4082 767.223Z" fill="#A0D591"/>
<path d="M75.298 753.207C74.71 752.652 73.8068 752.636 73.3034 753.17C72.8 753.704 72.87 754.605 73.4581 755.159C74.0461 755.713 74.9493 755.73 75.4527 755.196C75.9561 754.661 75.8861 753.761 75.298 753.207Z" fill="#A0D591"/>
<path d="M73.9447 739.409C73.5189 739.008 72.8791 738.996 72.5146 739.383C72.1501 739.769 72.1997 740.407 72.6255 740.809C73.0513 741.21 73.6911 741.222 74.0556 740.835C74.4201 740.448 74.3705 739.81 73.9447 739.409Z" fill="#A0D591"/>
<path d="M73.0271 725.189C72.4796 724.673 71.6719 724.677 71.2206 725.156C70.7693 725.635 70.8335 726.461 71.3607 726.957C71.8879 727.454 72.7159 727.47 73.1672 726.991C73.6185 726.512 73.5543 725.686 73.0271 725.189Z" fill="#A0D591"/>
<path d="M71.8458 711.208C71.3531 710.744 70.6117 710.73 70.1899 711.178C69.768 711.625 69.8255 712.364 70.3183 712.829C70.811 713.293 71.5524 713.307 71.9742 712.859C72.396 712.412 72.3385 711.672 71.8458 711.208Z" fill="#A0D591"/>
<path d="M70.6674 697.264C70.2418 696.863 69.6015 696.852 69.2372 697.238C68.8729 697.625 68.9226 698.263 69.3481 698.664C69.7737 699.065 70.414 699.077 70.7783 698.691C71.1426 698.304 71.0929 697.666 70.6674 697.264Z" fill="#A0D591"/>
<path d="M69.2776 683.505C69.0343 683.276 68.658 683.269 68.4497 683.49C68.2414 683.711 68.2706 684.086 68.5139 684.316C68.7572 684.545 69.1335 684.552 69.3418 684.331C69.5501 684.11 69.521 683.735 69.2776 683.505Z" fill="#A0D591"/>
<path d="M68.325 669.321C68.0002 669.015 67.5116 669.006 67.2336 669.301C66.9556 669.596 66.9935 670.083 67.3182 670.389C67.643 670.695 68.1316 670.704 68.4096 670.409C68.6876 670.114 68.6498 669.627 68.325 669.321Z" fill="#A0D591"/>
<path d="M67.0595 655.47C66.8467 655.27 66.5266 655.264 66.3444 655.457C66.1623 655.65 66.1871 655.97 66.3999 656.17C66.6127 656.371 66.9328 656.377 67.115 656.183C67.2971 655.99 67.2723 655.671 67.0595 655.47Z" fill="#A0D591"/>
<path d="M65.6537 641.727C65.6537 641.727 65.633 641.708 65.6158 641.726C65.5987 641.744 65.5986 641.744 65.6194 641.764C65.6401 641.783 65.6402 641.783 65.6573 641.765C65.6745 641.747 65.6745 641.747 65.6537 641.727Z" fill="#A0D591"/>
<path d="M64.6646 627.583C64.6646 627.583 64.4705 627.504 64.4011 627.578C64.3317 627.652 64.3404 627.764 64.4215 627.841C64.5026 627.917 64.6155 627.919 64.685 627.846C64.7544 627.772 64.7457 627.659 64.6646 627.583Z" fill="#A0D591"/>
<path d="M98.5841 880.599C98.4016 880.427 98.1381 880.422 97.9819 880.588C97.8257 880.753 97.8461 881.016 98.0286 881.188C98.2111 881.36 98.4745 881.365 98.6308 881.199C98.787 881.033 98.7666 880.771 98.5841 880.599Z" fill="#A0D591"/>
<path d="M97.3189 866.747C97.3189 866.747 97.1445 866.687 97.0924 866.743C97.0402 866.798 97.0492 866.911 97.1102 866.969C97.1713 867.026 97.2846 867.028 97.3367 866.973C97.3889 866.918 97.38 866.805 97.3189 866.747Z" fill="#A0D591"/>
<path d="M96.3474 852.544C96.2055 852.41 95.9796 852.406 95.8581 852.535C95.7366 852.664 95.7541 852.889 95.8961 853.023C96.038 853.157 96.2638 853.161 96.3853 853.032C96.5068 852.903 96.4893 852.678 96.3474 852.544Z" fill="#A0D591"/>
<path d="M95.5345 838.215C95.2101 837.909 94.7208 837.9 94.4431 838.195C94.1653 838.49 94.2033 838.978 94.5277 839.283C94.8521 839.589 95.3414 839.598 95.6191 839.304C95.8968 839.009 95.8589 838.521 95.5345 838.215Z" fill="#A0D591"/>
<path d="M94.2485 824.343C94.0254 824.133 93.707 824.146 93.5334 824.33C93.3598 824.514 93.3861 824.852 93.5889 825.043C93.7916 825.234 94.1304 825.24 94.3039 825.056C94.4775 824.872 94.4513 824.534 94.2485 824.343Z" fill="#A0D591"/>
<path d="M93.2433 810.217C92.9797 809.968 92.586 809.98 92.3777 810.201C92.1694 810.422 92.2014 810.835 92.4448 811.064C92.6881 811.293 93.1021 811.301 93.3104 811.08C93.5187 810.859 93.4866 810.446 93.2433 810.217Z" fill="#A0D591"/>
<path d="M92.1845 796.106C91.8933 795.831 91.4552 795.823 91.206 796.088C90.9567 796.352 90.9907 796.789 91.2819 797.063C91.573 797.338 92.0111 797.346 92.2604 797.081C92.5096 796.817 92.4757 796.38 92.1845 796.106Z" fill="#A0D591"/>
<path d="M91.3694 781.776C90.903 781.337 90.2256 781.324 89.8263 781.748C89.4271 782.171 89.4796 782.847 89.946 783.287C90.4124 783.726 91.0898 783.739 91.489 783.315C91.8883 782.891 91.8358 782.216 91.3694 781.776Z" fill="#A0D591"/>
<path d="M89.9985 767.996C89.6943 767.71 89.263 767.72 89.02 767.978C88.777 768.236 88.812 768.686 89.0959 768.954C89.3797 769.222 89.8314 769.23 90.0744 768.972C90.3174 768.714 90.2824 768.264 89.9985 767.996Z" fill="#A0D591"/>
<path d="M88.9252 753.944C88.6211 753.657 88.1898 753.668 87.9467 753.926C87.7037 754.183 87.7387 754.634 88.0226 754.901C88.3065 755.169 88.7581 755.177 89.0011 754.919C89.2441 754.662 89.2091 754.211 88.9252 753.944Z" fill="#A0D591"/>
<path d="M88.0399 739.688C87.6141 739.287 86.9743 739.275 86.6098 739.662C86.2453 740.049 86.2949 740.687 86.7207 741.088C87.1465 741.489 87.7863 741.501 88.1508 741.114C88.5154 740.728 88.4657 740.09 88.0399 739.688Z" fill="#A0D591"/>
<path d="M86.6851 725.891C86.4215 725.642 86.0278 725.654 85.8195 725.875C85.6112 726.096 85.6433 726.509 85.8867 726.738C86.13 726.967 86.544 726.975 86.7523 726.754C86.9606 726.533 86.9285 726.12 86.6851 725.891Z" fill="#A0D591"/>
<path d="M85.5075 711.948C85.3059 711.758 85.0026 711.752 84.83 711.935C84.6575 712.118 84.681 712.421 84.8826 712.611C85.0842 712.801 85.3874 712.806 85.56 712.623C85.7326 712.44 85.7091 712.138 85.5075 711.948Z" fill="#A0D591"/>
<path d="M84.3088 697.983C84.1669 697.85 83.9411 697.845 83.8196 697.974C83.6981 698.103 83.7156 698.328 83.8575 698.462C83.9994 698.596 84.2252 698.6 84.3467 698.471C84.4683 698.342 84.4508 698.117 84.3088 697.983Z" fill="#A0D591"/>
<path d="M83.3904 683.765C83.1471 683.536 82.7708 683.529 82.5625 683.75C82.3542 683.971 82.3834 684.346 82.6267 684.576C82.87 684.805 83.2463 684.812 83.4546 684.591C83.6629 684.37 83.6338 683.995 83.3904 683.765Z" fill="#A0D591"/>
<path d="M81.9664 670.041C81.9664 670.041 81.8501 670.001 81.8154 670.038C81.7806 670.075 81.7865 670.15 81.8273 670.189C81.868 670.227 81.9435 670.229 81.9783 670.192C82.013 670.155 82.0071 670.08 81.9664 670.041Z" fill="#A0D591"/>
<path d="M79.7465 642.008C79.7465 642.008 79.7257 641.989 79.7086 642.007C79.6914 642.025 79.6914 642.025 79.7122 642.045C79.7329 642.064 79.7329 642.064 79.7501 642.046C79.7672 642.028 79.7672 642.028 79.7465 642.008Z" fill="#A0D591"/>
<path d="M109.139 838.973C109.139 838.973 109.118 838.954 109.101 838.972C109.084 838.99 109.084 838.99 109.104 839.009C109.125 839.029 109.125 839.029 109.142 839.011C109.159 838.993 109.159 838.993 109.139 838.973Z" fill="#A0D591"/>
<path d="M108.153 824.825C108.153 824.825 107.959 824.746 107.889 824.82C107.82 824.894 107.829 825.006 107.91 825.083C107.991 825.159 108.104 825.161 108.173 825.088C108.243 825.014 108.234 824.901 108.153 824.825Z" fill="#A0D591"/>
<path d="M106.036 796.643C105.914 796.528 105.705 796.506 105.584 796.635C105.462 796.763 105.477 796.951 105.619 797.085C105.761 797.219 105.949 797.222 106.071 797.093C106.192 796.964 106.178 796.777 106.036 796.643Z" fill="#A0D591"/>
<path d="M104.96 782.552C104.818 782.418 104.592 782.414 104.47 782.543C104.349 782.672 104.366 782.897 104.508 783.031C104.65 783.164 104.876 783.169 104.998 783.04C105.119 782.911 105.102 782.686 104.96 782.552Z" fill="#A0D591"/>
<path d="M103.885 768.499C103.744 768.365 103.518 768.361 103.396 768.49C103.275 768.619 103.292 768.844 103.434 768.978C103.576 769.112 103.802 769.116 103.923 768.987C104.045 768.858 104.027 768.633 103.885 768.499Z" fill="#A0D591"/>
<path d="M102.773 754.444C102.631 754.311 102.405 754.306 102.284 754.435C102.162 754.564 102.18 754.789 102.322 754.923C102.464 755.057 102.69 755.061 102.811 754.932C102.933 754.803 102.915 754.578 102.773 754.444Z" fill="#A0D591"/>
<path d="M101.664 740.426C101.53 740.299 101.328 740.296 101.213 740.418C101.098 740.54 101.114 740.741 101.248 740.868C101.382 740.995 101.584 740.998 101.7 740.876C101.815 740.754 101.799 740.553 101.664 740.426Z" fill="#A0D591"/>
<path d="M100.505 726.464C100.505 726.464 100.311 726.385 100.241 726.459C100.172 726.532 100.181 726.645 100.262 726.721C100.343 726.798 100.456 726.8 100.525 726.726C100.595 726.653 100.586 726.54 100.505 726.464Z" fill="#A0D591"/>
<path d="M98.2128 698.467C98.2128 698.467 98.192 698.448 98.1749 698.466C98.1577 698.484 98.1577 698.484 98.1785 698.504C98.1992 698.523 98.1992 698.523 98.2164 698.505C98.2335 698.487 98.2335 698.487 98.2128 698.467Z" fill="#A0D591"/>
</g>
<g style="mix-blend-mode:multiply" opacity="0.5">
<path d="M374.466 28.0584C375.697 28.7442 377.247 28.2646 377.965 26.9762C378.683 25.6879 378.275 24.1166 377.045 23.4308C375.814 22.745 374.263 23.2246 373.545 24.513C372.827 25.8014 373.235 27.3726 374.466 28.0584Z" fill="#A0D591"/>
<path d="M378.42 43.113C379.625 43.7848 381.176 43.3052 381.88 42.0432C382.583 40.7811 382.175 39.2099 380.969 38.5381C379.764 37.8663 378.213 38.3459 377.509 39.6079C376.806 40.87 377.214 42.4412 378.42 43.113Z" fill="#A0D591"/>
<path d="M382.099 58.6002C383.53 59.398 385.36 58.8323 386.195 57.3336C387.03 55.8349 386.549 53.9816 385.117 53.1839C383.686 52.3861 381.856 52.9518 381.021 54.4505C380.186 55.9492 380.667 57.8025 382.099 58.6002Z" fill="#A0D591"/>
<path d="M385.744 74.2108C387.427 75.1486 389.614 74.4722 390.596 72.7106C391.577 70.949 391.002 68.7331 389.319 67.7954C387.636 66.8577 385.449 67.534 384.467 69.2956C383.486 71.0573 384.061 73.2731 385.744 74.2108Z" fill="#A0D591"/>
<path d="M389.453 89.6487C391.325 90.6922 393.729 89.9489 394.821 87.9885C395.914 86.0282 395.281 83.5931 393.409 82.5496C391.536 81.5061 389.132 82.2493 388.04 84.2097C386.948 86.1701 387.58 88.6052 389.453 89.6487Z" fill="#A0D591"/>
<path d="M356.211 16.5771C356.915 16.969 357.79 16.6985 358.2 15.9623C358.61 15.2261 358.38 14.3397 357.677 13.9478C356.973 13.556 356.099 13.8265 355.688 14.5627C355.278 15.2989 355.508 16.1852 356.211 16.5771Z" fill="#A0D591"/>
<path d="M359.873 32.1566C360.827 32.6885 362.06 32.3072 362.617 31.3081C363.173 30.309 362.849 29.06 361.895 28.5282C360.94 27.9964 359.707 28.3776 359.151 29.3767C358.594 30.3758 358.918 31.6248 359.873 32.1566Z" fill="#A0D591"/>
<path d="M363.536 47.6711C364.717 48.3289 366.228 47.8617 366.916 46.6259C367.605 45.3901 367.207 43.8591 366.027 43.2014C364.846 42.5436 363.335 43.0109 362.647 44.2466C361.958 45.4824 362.356 47.0133 363.536 47.6711Z" fill="#A0D591"/>
<path d="M367.476 62.7551C368.656 63.4129 370.167 62.9456 370.856 61.7099C371.544 60.4741 371.147 58.9431 369.966 58.2853C368.786 57.6275 367.275 58.0948 366.586 59.3306C365.897 60.5664 366.295 62.0973 367.476 62.7551Z" fill="#A0D591"/>
<path d="M371.139 78.2697C372.545 79.0534 374.335 78.5 375.155 77.0276C375.976 75.5552 375.505 73.7422 374.099 72.9585C372.692 72.1747 370.903 72.7281 370.082 74.2005C369.262 75.6729 369.733 77.4859 371.139 78.2697Z" fill="#A0D591"/>
<path d="M374.888 93.692C376.47 94.5738 378.524 93.9606 379.461 92.2779C380.399 90.5951 379.865 88.5404 378.258 87.6447C376.651 86.7489 374.622 87.3761 373.685 89.0588C372.747 90.7416 373.281 92.7963 374.888 93.692Z" fill="#A0D591"/>
<path d="M378.523 109.261C380.356 110.283 382.703 109.558 383.772 107.638C384.842 105.719 384.224 103.342 382.391 102.32C380.557 101.298 378.211 102.024 377.142 103.943C376.072 105.863 376.689 108.24 378.523 109.261Z" fill="#A0D591"/>
<path d="M382.519 124.239C384.302 125.233 386.569 124.532 387.609 122.665C388.649 120.798 388.053 118.502 386.269 117.508C384.486 116.515 382.22 117.216 381.179 119.082C380.139 120.949 380.735 123.246 382.519 124.239Z" fill="#A0D591"/>
<path d="M386.884 139.814C388.938 140.54 391.242 139.399 392.031 137.265C392.82 135.131 391.795 132.813 389.741 132.088C387.688 131.362 385.383 132.503 384.594 134.637C383.805 136.77 384.83 139.088 386.884 139.814Z" fill="#A0D591"/>
<path d="M390.083 154.846C392.094 155.967 394.676 155.168 395.849 153.063C397.022 150.957 396.343 148.342 394.332 147.221C392.32 146.1 389.739 146.898 388.565 149.004C387.392 151.109 388.071 153.725 390.083 154.846Z" fill="#A0D591"/>
<path d="M337.705 5.60504C338.132 5.84297 338.688 5.67081 338.937 5.22383C339.187 4.77685 339.04 4.21281 338.613 3.97488C338.186 3.73696 337.629 3.90912 337.38 4.3561C337.131 4.80307 337.278 5.36712 337.705 5.60504Z" fill="#A0D591"/>
<path d="M341.339 21.1728C342.043 21.5647 342.918 21.2942 343.328 20.558C343.738 19.8218 343.508 18.9354 342.805 18.5435C342.101 18.1517 341.226 18.4222 340.816 19.1584C340.406 19.8946 340.636 20.7809 341.339 21.1728Z" fill="#A0D591"/>
<path d="M345.266 36.2154C345.932 36.5865 346.787 36.3222 347.175 35.6252C347.563 34.9282 347.339 34.0623 346.673 33.6913C346.007 33.3203 345.152 33.5846 344.764 34.2816C344.376 34.9786 344.6 35.8444 345.266 36.2154Z" fill="#A0D591"/>
<path d="M348.911 51.8244C349.841 52.3423 351.059 51.9873 351.616 50.9882C352.172 49.9891 351.859 48.7804 350.904 48.2486C349.95 47.7167 348.757 48.0857 348.2 49.0848C347.643 50.0839 347.957 51.2926 348.911 51.8244Z" fill="#A0D591"/>
<path d="M352.562 67.3665C353.743 68.0243 355.254 67.557 355.943 66.3212C356.631 65.0854 356.234 63.5545 355.053 62.8967C353.873 62.2389 352.362 62.7062 351.673 63.9419C350.984 65.1777 351.382 66.7087 352.562 67.3665Z" fill="#A0D591"/>
<path d="M356.557 82.3423C357.687 82.9721 359.119 82.5294 359.778 81.3463C360.438 80.1631 360.061 78.7127 358.931 78.0829C357.801 77.4531 356.369 77.8958 355.71 79.0789C355.05 80.2621 355.427 81.7125 356.557 82.3423Z" fill="#A0D591"/>
<path d="M360.209 97.8824C361.565 98.6382 363.315 98.0971 364.106 96.6773C364.898 95.2575 364.437 93.4848 363.081 92.729C361.725 91.9732 359.975 92.5143 359.184 93.9341C358.393 95.3539 358.853 97.1266 360.209 97.8824Z" fill="#A0D591"/>
<path d="M363.956 113.307C365.513 114.174 367.502 113.56 368.41 111.929C369.319 110.299 368.795 108.285 367.238 107.417C365.681 106.549 363.693 107.164 362.784 108.794C361.876 110.425 362.399 112.439 363.956 113.307Z" fill="#A0D591"/>
<path d="M367.709 128.666C369.392 129.603 371.579 128.927 372.56 127.165C373.542 125.404 372.967 123.188 371.284 122.25C369.601 121.312 367.414 121.989 366.432 123.75C365.451 125.512 366.026 127.728 367.709 128.666Z" fill="#A0D591"/>
<path d="M371.765 143.535C373.322 144.403 375.35 143.776 376.259 142.146C377.167 140.516 376.633 138.461 375.076 137.593C373.519 136.725 371.491 137.353 370.583 138.983C369.674 140.613 370.208 142.668 371.765 143.535Z" fill="#A0D591"/>
<path d="M375.444 159.025C377.233 160.022 379.53 159.312 380.574 157.438C381.618 155.565 381.014 153.238 379.224 152.241C377.435 151.244 375.138 151.954 374.094 153.828C373.05 155.701 373.655 158.028 375.444 159.025Z" fill="#A0D591"/>
<path d="M379.226 174.329C381.126 175.388 383.566 174.633 384.674 172.644C385.783 170.655 385.141 168.183 383.241 167.124C381.34 166.065 378.901 166.82 377.792 168.809C376.684 170.799 377.326 173.27 379.226 174.329Z" fill="#A0D591"/>
<path d="M383.325 189.122C385.083 190.101 387.325 189.386 388.336 187.572C389.347 185.758 388.751 183.462 387.018 182.496C385.285 181.53 383.018 182.231 382.007 184.045C380.996 185.86 381.592 188.156 383.325 189.122Z" fill="#A0D591"/>
<path d="M387.033 204.557C388.967 205.634 391.433 204.872 392.561 202.847C393.689 200.823 393.055 198.298 391.121 197.221C389.187 196.143 386.721 196.906 385.579 198.956C384.436 201.007 385.099 203.479 387.033 204.557Z" fill="#A0D591"/>
<path d="M390.899 219.771C392.883 220.877 395.454 220.104 396.626 218.001C397.798 215.897 397.128 213.319 395.119 212.199C393.11 211.079 390.565 211.866 389.393 213.97C388.22 216.073 388.89 218.652 390.899 219.771Z" fill="#A0D591"/>
<path d="M323.071 9.71932C323.246 9.81729 323.485 9.74351 323.588 9.55946C323.69 9.37541 323.627 9.13368 323.452 9.03571C323.276 8.93774 323.037 9.01152 322.935 9.19557C322.832 9.37962 322.895 9.62135 323.071 9.71932Z" fill="#A0D591"/>
<path d="M326.76 25.2475C327.162 25.4717 327.678 25.312 327.913 24.8909C328.148 24.4698 328.012 23.9467 327.61 23.7225C327.207 23.4984 326.691 23.658 326.456 24.0791C326.222 24.5003 326.358 25.0234 326.76 25.2475Z" fill="#A0D591"/>
<path d="M330.393 40.8151C331.059 41.1861 331.913 40.9218 332.302 40.2248C332.69 39.5278 332.465 38.662 331.799 38.2909C331.133 37.9199 330.279 38.1842 329.89 38.8812C329.502 39.5782 329.727 40.444 330.393 40.8151Z" fill="#A0D591"/>
<path d="M334.307 55.8832C334.959 56.2465 335.796 55.9878 336.176 55.3053C336.556 54.6228 336.336 53.775 335.684 53.4117C335.032 53.0484 334.196 53.3072 333.815 53.9897C333.435 54.6722 333.655 55.5199 334.307 55.8832Z" fill="#A0D591"/>
<path d="M338.026 71.3607C338.88 71.8366 339.993 71.4922 340.492 70.5983C340.99 69.7043 340.697 68.5763 339.843 68.1004C338.989 67.6245 337.875 67.9689 337.377 68.8628C336.879 69.7568 337.172 70.8849 338.026 71.3607Z" fill="#A0D591"/>
<path d="M341.661 86.9283C342.791 87.5581 344.223 87.1154 344.882 85.9322C345.541 84.749 345.165 83.2986 344.034 82.6688C342.904 82.039 341.473 82.4817 340.813 83.6649C340.154 84.8481 340.531 86.2984 341.661 86.9283Z" fill="#A0D591"/>
<path d="M345.672 101.878C346.702 102.452 348.054 102.034 348.655 100.956C349.255 99.8781 348.9 98.5083 347.87 97.9344C346.84 97.3606 345.488 97.7787 344.887 98.8567C344.287 99.9347 344.642 101.305 345.672 101.878Z" fill="#A0D591"/>
<path d="M349.41 117.261C350.615 117.933 352.166 117.454 352.869 116.191C353.573 114.929 353.165 113.358 351.959 112.686C350.753 112.015 349.203 112.494 348.499 113.756C347.796 115.018 348.204 116.59 349.41 117.261Z" fill="#A0D591"/>
<path d="M353.174 132.658C354.53 133.414 356.28 132.872 357.071 131.453C357.862 130.033 357.402 128.26 356.046 127.504C354.69 126.749 352.94 127.29 352.149 128.71C351.357 130.129 351.818 131.902 353.174 132.658Z" fill="#A0D591"/>
<path d="M356.867 148.119C358.434 148.993 360.446 148.371 361.361 146.73C362.275 145.089 361.746 143.051 360.178 142.177C358.611 141.304 356.599 141.926 355.685 143.567C354.77 145.208 355.3 147.246 356.867 148.119Z" fill="#A0D591"/>
<path d="M360.905 163.021C362.362 163.832 364.256 163.268 365.121 161.717C365.985 160.166 365.493 158.272 364.011 157.446C362.53 156.621 360.66 157.199 359.796 158.75C358.932 160.301 359.423 162.195 360.905 163.021Z" fill="#A0D591"/>
<path d="M364.719 178.27C366.272 179.135 368.267 178.519 369.173 176.892C370.079 175.266 369.554 173.246 368.001 172.38C366.447 171.514 364.453 172.131 363.547 173.757C362.641 175.384 363.165 177.404 364.719 178.27Z" fill="#A0D591"/>
<path d="M368.412 193.735C370.17 194.715 372.412 194 373.423 192.185C374.434 190.371 373.837 188.075 372.104 187.109C370.372 186.143 368.105 186.844 367.094 188.658C366.083 190.473 366.679 192.769 368.412 193.735Z" fill="#A0D591"/>
<path d="M372.498 208.554C374.105 209.449 376.173 208.81 377.111 207.127C378.048 205.444 377.504 203.349 375.897 202.454C374.289 201.558 372.222 202.197 371.284 203.88C370.346 205.563 370.89 207.658 372.498 208.554Z" fill="#A0D591"/>
<path d="M376.367 223.701C378.018 224.62 380.137 223.965 381.1 222.237C382.063 220.509 381.505 218.363 379.854 217.443C378.204 216.523 376.085 217.178 375.122 218.906C374.159 220.634 374.717 222.781 376.367 223.701Z" fill="#A0D591"/>
<path d="M380.131 239.095C381.939 240.103 384.285 239.377 385.34 237.484C386.395 235.591 385.778 233.214 383.969 232.206C382.161 231.199 379.815 231.924 378.76 233.817C377.705 235.711 378.322 238.088 380.131 239.095Z" fill="#A0D591"/>
<path d="M384.058 254.136C385.847 255.133 388.144 254.423 389.188 252.55C390.232 250.676 389.627 248.35 387.838 247.352C386.049 246.355 383.752 247.066 382.708 248.939C381.664 250.812 382.268 253.139 384.058 254.136Z" fill="#A0D591"/>
<path d="M388.201 268.85C389.783 269.732 391.836 269.119 392.774 267.436C393.712 265.753 393.178 263.699 391.571 262.803C389.963 261.907 387.935 262.534 386.998 264.217C386.06 265.9 386.594 267.955 388.201 268.85Z" fill="#A0D591"/>
<path d="M392.144 283.865C393.697 284.731 395.691 284.114 396.598 282.488C397.504 280.862 396.979 278.841 395.426 277.976C393.872 277.11 391.878 277.727 390.972 279.353C390.065 280.979 390.59 283 392.144 283.865Z" fill="#A0D591"/>
<path d="M308.211 14.2931C308.362 14.3771 308.586 14.3296 308.688 14.1456C308.791 13.9615 308.738 13.7601 308.563 13.6621C308.387 13.5641 308.188 13.6256 308.085 13.8097C307.983 13.9937 308.035 14.1952 308.211 14.2931Z" fill="#A0D591"/>
<path d="M312.109 29.3869C312.26 29.4709 312.484 29.4234 312.587 29.2393C312.689 29.0553 312.637 28.8538 312.461 28.7558C312.285 28.6579 312.086 28.7194 311.984 28.9034C311.881 29.0875 311.934 29.2889 312.109 29.3869Z" fill="#A0D591"/>
<path d="M315.786 44.9406C316.188 45.1648 316.704 45.0051 316.939 44.584C317.174 44.1629 317.038 43.6398 316.636 43.4156C316.233 43.1915 315.717 43.3511 315.482 43.7723C315.248 44.1934 315.384 44.7165 315.786 44.9406Z" fill="#A0D591"/>
<path d="M319.493 60.3786C320.096 60.7145 320.851 60.4809 321.203 59.8499C321.554 59.2188 321.356 58.4533 320.753 58.1174C320.15 57.7815 319.394 58.0152 319.043 58.6462C318.691 59.2773 318.89 60.0427 319.493 60.3786Z" fill="#A0D591"/>
<path d="M323.406 75.4431C324.009 75.779 324.764 75.5453 325.116 74.9143C325.467 74.2833 325.269 73.5178 324.666 73.1819C324.063 72.846 323.308 73.0796 322.956 73.7107C322.604 74.3417 322.803 75.1072 323.406 75.4431Z" fill="#A0D591"/>
<path d="M327.095 90.9771C327.898 91.425 328.957 91.1193 329.441 90.2516C329.924 89.3839 329.652 88.3364 328.824 87.8746C327.995 87.4127 326.961 87.7324 326.477 88.6001C325.994 89.4678 326.266 90.5153 327.095 90.9771Z" fill="#A0D591"/>
<path d="M330.861 106.305C331.815 106.837 333.048 106.455 333.605 105.456C334.162 104.457 333.837 103.208 332.883 102.676C331.928 102.145 330.696 102.526 330.139 103.525C329.582 104.524 329.907 105.773 330.861 106.305Z" fill="#A0D591"/>
<path d="M334.875 121.253C335.754 121.743 336.868 121.399 337.381 120.479C337.893 119.558 337.6 118.43 336.721 117.94C335.842 117.45 334.729 117.795 334.216 118.715C333.703 119.635 333.996 120.763 334.875 121.253Z" fill="#A0D591"/>
<path d="M338.524 136.799C339.648 137.425 341.09 136.98 341.745 135.803C342.401 134.627 342.021 133.166 340.898 132.54C339.774 131.914 338.332 132.36 337.676 133.536C337.021 134.712 337.4 136.173 338.524 136.799Z" fill="#A0D591"/>
<path d="M342.346 152.09C343.576 152.776 345.127 152.296 345.845 151.008C346.563 149.719 346.155 148.148 344.925 147.462C343.694 146.776 342.143 147.256 341.425 148.544C340.707 149.833 341.115 151.404 342.346 152.09Z" fill="#A0D591"/>
<path d="M346.112 167.421C347.471 168.179 349.216 167.639 350.009 166.216C350.802 164.793 350.343 163.026 348.984 162.268C347.624 161.511 345.88 162.05 345.087 163.473C344.294 164.896 344.753 166.664 346.112 167.421Z" fill="#A0D591"/>
<path d="M350.036 182.529C351.393 183.285 353.142 182.744 353.934 181.324C354.725 179.904 354.264 178.131 352.908 177.375C351.552 176.62 349.802 177.161 349.011 178.581C348.22 180 348.68 181.773 350.036 182.529Z" fill="#A0D591"/>
<path d="M353.904 197.678C355.311 198.462 357.1 197.908 357.921 196.436C358.741 194.963 358.27 193.15 356.864 192.367C355.457 191.583 353.668 192.136 352.847 193.609C352.027 195.081 352.498 196.894 353.904 197.678Z" fill="#A0D591"/>
<path d="M357.746 212.874C359.203 213.686 361.097 213.122 361.961 211.571C362.826 210.019 362.334 208.126 360.852 207.3C359.37 206.474 357.501 207.052 356.637 208.603C355.772 210.155 356.264 212.048 357.746 212.874Z" fill="#A0D591"/>
<path d="M361.671 227.983C363.128 228.795 365.022 228.231 365.887 226.68C366.751 225.129 366.259 223.235 364.777 222.409C363.296 221.584 361.427 222.162 360.562 223.713C359.698 225.264 360.189 227.158 361.671 227.983Z" fill="#A0D591"/>
<path d="M365.584 243.05C367.041 243.862 368.935 243.298 369.799 241.746C370.664 240.195 370.172 238.301 368.69 237.476C367.208 236.65 365.339 237.228 364.475 238.779C363.61 240.331 364.102 242.224 365.584 243.05Z" fill="#A0D591"/>
<path d="M369.521 258.132C370.978 258.944 372.872 258.38 373.736 256.828C374.601 255.277 374.109 253.384 372.627 252.558C371.145 251.732 369.276 252.31 368.412 253.861C367.547 255.413 368.039 257.306 369.521 258.132Z" fill="#A0D591"/>
<path d="M373.493 273.096C374.894 273.877 376.693 273.32 377.51 271.854C378.327 270.387 377.854 268.565 376.453 267.785C375.052 267.004 373.254 267.56 372.437 269.027C371.619 270.493 372.093 272.315 373.493 273.096Z" fill="#A0D591"/>
<path d="M377.417 288.203C378.818 288.984 380.616 288.428 381.433 286.961C382.251 285.495 381.777 283.673 380.376 282.892C378.976 282.111 377.177 282.667 376.36 284.134C375.543 285.601 376.016 287.423 377.417 288.203Z" fill="#A0D591"/>
<path d="M381.418 303.11C382.749 303.852 384.434 303.309 385.195 301.942C385.957 300.575 385.507 298.843 384.201 298.115C382.895 297.387 381.185 297.916 380.423 299.283C379.662 300.65 380.112 302.383 381.418 303.11Z" fill="#A0D591"/>
<path d="M385.419 318.023C386.65 318.709 388.201 318.23 388.919 316.941C389.636 315.653 389.228 314.082 387.998 313.396C386.767 312.71 385.216 313.19 384.498 314.478C383.78 315.766 384.188 317.338 385.419 318.023Z" fill="#A0D591"/>
<path d="M389.358 333.101C390.589 333.787 392.14 333.308 392.858 332.019C393.576 330.731 393.168 329.16 391.937 328.474C390.707 327.788 389.156 328.268 388.438 329.556C387.72 330.844 388.128 332.416 389.358 333.101Z" fill="#A0D591"/>
<path d="M297.25 33.9587C297.401 34.0426 297.575 33.9672 297.648 33.8357C297.721 33.7042 297.669 33.5028 297.543 33.4328C297.418 33.3628 297.219 33.4243 297.145 33.5558C297.072 33.6872 297.125 33.8887 297.25 33.9587Z" fill="#A0D591"/>
<path d="M301.223 48.9238C301.223 48.9238 301.419 48.9292 301.463 48.8503C301.507 48.7713 301.475 48.6501 301.399 48.6079C301.324 48.5658 301.204 48.6025 301.16 48.6815C301.116 48.7605 301.148 48.8816 301.223 48.9238Z" fill="#A0D591"/>
<path d="M304.884 64.5024C305.235 64.6984 305.673 64.5631 305.878 64.195C306.083 63.8269 305.968 63.3837 305.616 63.1878C305.265 62.9918 304.827 63.1271 304.622 63.4952C304.417 63.8633 304.532 64.3065 304.884 64.5024Z" fill="#A0D591"/>
<path d="M308.592 79.9402C309.119 80.2342 309.795 80.0251 310.103 79.473C310.411 78.9208 310.233 78.2359 309.705 77.942C309.178 77.6481 308.502 77.8571 308.194 78.4093C307.887 78.9614 308.064 79.6463 308.592 79.9402Z" fill="#A0D591"/>
<path d="M312.578 94.8767C313.03 95.1286 313.587 94.9565 313.851 94.4832C314.115 94.0099 313.968 93.4459 313.516 93.194C313.064 92.942 312.507 93.1142 312.244 93.5875C311.98 94.0607 312.126 94.6248 312.578 94.8767Z" fill="#A0D591"/>
<path d="M316.342 110.275C316.952 110.615 317.736 110.373 318.092 109.734C318.448 109.095 318.242 108.302 317.631 107.962C317.021 107.621 316.238 107.864 315.882 108.503C315.526 109.142 315.732 109.935 316.342 110.275Z" fill="#A0D591"/>
<path d="M319.976 125.839C320.85 126.326 321.972 125.979 322.482 125.064C322.992 124.15 322.696 123.013 321.823 122.526C320.949 122.039 319.827 122.386 319.317 123.301C318.807 124.216 319.103 125.352 319.976 125.839Z" fill="#A0D591"/>
<path d="M324.016 140.74C324.795 141.174 325.789 140.867 326.243 140.052C326.698 139.237 326.436 138.229 325.657 137.795C324.879 137.362 323.885 137.669 323.43 138.484C322.976 139.299 323.238 140.306 324.016 140.74Z" fill="#A0D591"/>
<path d="M327.813 156.019C328.687 156.506 329.809 156.159 330.319 155.244C330.828 154.329 330.533 153.193 329.659 152.706C328.786 152.219 327.664 152.566 327.154 153.481C326.644 154.396 326.939 155.532 327.813 156.019Z" fill="#A0D591"/>
<path d="M331.489 171.571C332.612 172.197 334.055 171.751 334.71 170.575C335.365 169.399 334.986 167.937 333.862 167.311C332.739 166.685 331.297 167.131 330.641 168.307C329.986 169.484 330.365 170.945 331.489 171.571Z" fill="#A0D591"/>
<path d="M335.299 186.826C336.505 187.498 338.056 187.018 338.759 185.756C339.462 184.494 339.054 182.923 337.849 182.251C336.643 181.579 335.092 182.059 334.389 183.321C333.686 184.583 334.094 186.154 335.299 186.826Z" fill="#A0D591"/>
<path d="M339.412 201.592C340.442 202.165 341.794 201.747 342.395 200.669C342.995 199.591 342.639 198.221 341.61 197.648C340.58 197.074 339.228 197.492 338.627 198.57C338.026 199.648 338.382 201.018 339.412 201.592Z" fill="#A0D591"/>
<path d="M343.077 217.106C344.333 217.806 345.964 217.302 346.696 215.987C347.429 214.672 347 213.021 345.744 212.321C344.488 211.621 342.858 212.125 342.125 213.44C341.393 214.754 341.822 216.406 343.077 217.106Z" fill="#A0D591"/>
<path d="M346.963 232.227C348.253 232.946 349.909 232.434 350.661 231.084C351.414 229.733 350.978 228.056 349.688 227.337C348.398 226.618 346.742 227.13 345.99 228.48C345.237 229.831 345.673 231.508 346.963 232.227Z" fill="#A0D591"/>
<path d="M351.077 246.995C352.207 247.624 353.639 247.182 354.298 245.999C354.957 244.815 354.581 243.365 353.45 242.735C352.32 242.105 350.889 242.548 350.229 243.731C349.57 244.914 349.947 246.365 351.077 246.995Z" fill="#A0D591"/>
<path d="M355.005 262.035C356.11 262.651 357.517 262.194 358.147 261.064C358.777 259.933 358.425 258.497 357.32 257.881C356.215 257.265 354.823 257.696 354.178 258.853C353.534 260.009 353.9 261.42 355.005 262.035Z" fill="#A0D591"/>
<path d="M358.754 277.457C360.016 278.161 361.636 277.66 362.372 276.338C363.109 275.017 362.683 273.375 361.42 272.672C360.158 271.969 358.538 272.47 357.801 273.791C357.065 275.113 357.491 276.754 358.754 277.457Z" fill="#A0D591"/>
<path d="M362.754 292.365C363.934 293.022 365.445 292.555 366.134 291.319C366.823 290.084 366.425 288.553 365.245 287.895C364.064 287.237 362.553 287.704 361.864 288.94C361.176 290.176 361.573 291.707 362.754 292.365Z" fill="#A0D591"/>
<path d="M366.882 307.108C367.887 307.668 369.159 307.275 369.745 306.223C370.331 305.171 369.997 303.882 368.992 303.322C367.987 302.762 366.715 303.156 366.129 304.208C365.543 305.259 365.877 306.548 366.882 307.108Z" fill="#A0D591"/>
<path d="M370.649 322.438C371.773 323.064 373.215 322.618 373.87 321.442C374.526 320.266 374.146 318.805 373.023 318.179C371.899 317.552 370.457 317.998 369.801 319.175C369.146 320.351 369.526 321.812 370.649 322.438Z" fill="#A0D591"/>
<path d="M374.695 337.268C375.7 337.828 376.972 337.435 377.558 336.383C378.144 335.331 377.81 334.042 376.805 333.482C375.8 332.922 374.528 333.316 373.942 334.368C373.356 335.419 373.69 336.709 374.695 337.268Z" fill="#A0D591"/>
<path d="M378.853 351.959C379.632 352.393 380.626 352.085 381.08 351.27C381.535 350.455 381.273 349.448 380.494 349.014C379.716 348.58 378.722 348.888 378.267 349.703C377.813 350.518 378.075 351.525 378.853 351.959Z" fill="#A0D591"/>
<path d="M382.955 366.683C383.557 367.019 384.313 366.786 384.665 366.155C385.016 365.524 384.818 364.758 384.215 364.422C383.612 364.086 382.856 364.32 382.505 364.951C382.153 365.582 382.352 366.347 382.955 366.683Z" fill="#A0D591"/>
<path d="M386.778 381.974C387.481 382.365 388.356 382.095 388.766 381.359C389.177 380.623 388.946 379.736 388.243 379.344C387.54 378.952 386.665 379.223 386.255 379.959C385.844 380.695 386.075 381.582 386.778 381.974Z" fill="#A0D591"/>
<path d="M286.35 53.5194C286.35 53.5194 286.546 53.5248 286.59 53.4458C286.634 53.3669 286.602 53.2457 286.526 53.2035C286.451 53.1613 286.331 53.1981 286.287 53.2771C286.243 53.356 286.275 53.4772 286.35 53.5194Z" fill="#A0D591"/>
<path d="M290.323 68.4823C290.323 68.4823 290.349 68.4967 290.364 68.4707C290.378 68.4447 290.378 68.4447 290.352 68.4303C290.327 68.416 290.327 68.416 290.312 68.442C290.298 68.468 290.298 68.468 290.323 68.4823Z" fill="#A0D591"/>
<path d="M294.04 83.9637C294.266 84.0897 294.544 84.0036 294.676 83.767C294.808 83.5303 294.735 83.2483 294.509 83.1224C294.283 82.9964 294.004 83.0825 293.873 83.3191C293.741 83.5558 293.814 83.8378 294.04 83.9637Z" fill="#A0D591"/>
<path d="M297.748 99.3977C298.15 99.6218 298.667 99.4622 298.901 99.041C299.136 98.6199 299 98.0968 298.598 97.8727C298.196 97.6485 297.679 97.8082 297.445 98.2293C297.21 98.6504 297.346 99.1735 297.748 99.3977Z" fill="#A0D591"/>
<path d="M301.648 114.491C302.049 114.715 302.566 114.555 302.801 114.135C303.035 113.714 302.899 113.19 302.497 112.966C302.096 112.742 301.579 112.902 301.344 113.323C301.11 113.744 301.246 114.267 301.648 114.491Z" fill="#A0D591"/>
<path d="M305.455 129.807C305.982 130.101 306.659 129.892 306.966 129.34C307.274 128.788 307.096 128.103 306.569 127.809C306.042 127.515 305.365 127.725 305.057 128.276C304.75 128.828 304.928 129.514 305.455 129.807Z" fill="#A0D591"/>
<path d="M309.221 145.137C309.899 145.515 310.749 145.231 311.13 144.547C311.511 143.863 311.281 142.977 310.628 142.613C309.975 142.249 309.1 142.52 308.719 143.203C308.338 143.887 308.568 144.773 309.221 145.137Z" fill="#A0D591"/>
<path d="M313.146 160.247C313.824 160.625 314.674 160.34 315.055 159.656C315.436 158.973 315.206 158.086 314.553 157.723C313.9 157.359 313.025 157.629 312.644 158.313C312.263 158.996 312.493 159.883 313.146 160.247Z" fill="#A0D591"/>
<path d="M316.942 175.527C317.721 175.961 318.715 175.654 319.169 174.839C319.623 174.024 319.362 173.016 318.583 172.583C317.805 172.149 316.81 172.456 316.356 173.271C315.902 174.086 316.164 175.094 316.942 175.527Z" fill="#A0D591"/>
<path d="M320.807 190.739C321.636 191.201 322.71 190.869 323.193 190.001C323.677 189.134 323.394 188.046 322.566 187.584C321.737 187.122 320.663 187.454 320.179 188.322C319.696 189.189 319.978 190.277 320.807 190.739Z" fill="#A0D591"/>
<path d="M324.5 206.201C325.541 206.78 326.876 206.367 327.483 205.278C328.09 204.189 327.738 202.836 326.698 202.257C325.658 201.677 324.322 202.09 323.716 203.179C323.109 204.268 323.46 205.621 324.5 206.201Z" fill="#A0D591"/>
<path d="M328.573 221.045C329.477 221.549 330.67 221.18 331.198 220.233C331.725 219.287 331.411 218.078 330.507 217.574C329.603 217.07 328.41 217.439 327.883 218.386C327.355 219.332 327.669 220.541 328.573 221.045Z" fill="#A0D591"/>
<path d="M332.455 236.168C333.384 236.686 334.602 236.331 335.159 235.332C335.716 234.333 335.402 233.124 334.448 232.592C333.493 232.06 332.3 232.429 331.743 233.429C331.187 234.428 331.501 235.636 332.455 236.168Z" fill="#A0D591"/>
<path d="M336.354 251.264C337.284 251.782 338.502 251.427 339.059 250.428C339.615 249.429 339.301 248.22 338.347 247.688C337.393 247.156 336.2 247.525 335.643 248.524C335.086 249.523 335.4 250.732 336.354 251.264Z" fill="#A0D591"/>
<path d="M340.294 266.34C341.223 266.858 342.441 266.503 342.998 265.504C343.555 264.505 343.241 263.296 342.286 262.764C341.332 262.232 340.139 262.601 339.582 263.6C339.026 264.6 339.339 265.808 340.294 266.34Z" fill="#A0D591"/>
<path d="M344.263 281.31C345.137 281.797 346.259 281.45 346.769 280.535C347.279 279.62 346.983 278.484 346.11 277.997C345.236 277.51 344.114 277.857 343.604 278.772C343.094 279.686 343.39 280.823 344.263 281.31Z" fill="#A0D591"/>
<path d="M348.233 296.335C349.062 296.797 350.136 296.465 350.619 295.597C351.103 294.729 350.82 293.641 349.991 293.18C349.162 292.718 348.089 293.05 347.605 293.917C347.122 294.785 347.404 295.873 348.233 296.335Z" fill="#A0D591"/>
<path d="M351.97 311.718C352.969 312.274 354.251 311.878 354.833 310.832C355.416 309.787 355.078 308.488 354.08 307.932C353.081 307.375 351.799 307.771 351.217 308.817C350.634 309.862 350.971 311.161 351.97 311.718Z" fill="#A0D591"/>
<path d="M356.157 326.355C356.911 326.775 357.865 326.48 358.305 325.691C358.744 324.902 358.493 323.935 357.74 323.516C356.986 323.096 356.032 323.391 355.592 324.18C355.153 324.968 355.404 325.935 356.157 326.355Z" fill="#A0D591"/>
<path d="M360.173 341.235C360.826 341.599 361.661 341.34 362.042 340.657C362.423 339.973 362.203 339.127 361.55 338.763C360.897 338.399 360.062 338.658 359.681 339.341C359.3 340.025 359.52 340.871 360.173 341.235Z" fill="#A0D591"/>
<path d="M364.234 356.042C364.747 356.328 365.406 356.124 365.705 355.587C366.005 355.049 365.831 354.382 365.318 354.096C364.805 353.81 364.146 354.014 363.847 354.551C363.547 355.088 363.72 355.756 364.234 356.042Z" fill="#A0D591"/>
<path d="M368.172 371.128C368.674 371.407 369.335 371.225 369.643 370.673C369.951 370.12 369.783 369.476 369.256 369.182C368.729 368.888 368.092 369.085 367.785 369.637C367.477 370.189 367.644 370.834 368.172 371.128Z" fill="#A0D591"/>
<path d="M372.232 385.93C372.609 386.14 373.061 385.979 373.266 385.611C373.471 385.243 373.345 384.759 372.994 384.563C372.642 384.367 372.165 384.515 371.96 384.883C371.755 385.251 371.88 385.734 372.232 385.93Z" fill="#A0D591"/>
<path d="M376.301 400.774C376.527 400.9 376.806 400.814 376.937 400.578C377.069 400.341 376.996 400.059 376.77 399.933C376.544 399.807 376.266 399.893 376.134 400.13C376.002 400.366 376.075 400.648 376.301 400.774Z" fill="#A0D591"/>
<path d="M380.215 415.845C380.441 415.971 380.719 415.884 380.851 415.648C380.983 415.411 380.91 415.129 380.684 415.003C380.458 414.877 380.179 414.963 380.047 415.2C379.915 415.437 379.989 415.719 380.215 415.845Z" fill="#A0D591"/>
<path d="M384.375 430.527C384.389 430.535 384.407 430.53 384.415 430.516C384.423 430.501 384.418 430.483 384.404 430.475C384.389 430.467 384.371 430.473 384.363 430.487C384.355 430.501 384.361 430.519 384.375 430.527Z" fill="#A0D591"/>
<path d="M283.154 103.496C283.293 103.573 283.471 103.518 283.552 103.373C283.633 103.228 283.586 103.047 283.447 102.97C283.309 102.893 283.131 102.948 283.05 103.093C282.969 103.238 283.016 103.419 283.154 103.496Z" fill="#A0D591"/>
<path d="M286.878 118.906C287.183 119.076 287.575 118.955 287.753 118.636C287.931 118.316 287.828 117.919 287.523 117.749C287.218 117.579 286.826 117.7 286.648 118.02C286.47 118.339 286.573 118.736 286.878 118.906Z" fill="#A0D591"/>
<path d="M290.879 133.813C291.101 133.937 291.386 133.849 291.516 133.617C291.645 133.384 291.57 133.096 291.348 132.972C291.126 132.848 290.841 132.936 290.712 133.169C290.582 133.401 290.657 133.69 290.879 133.813Z" fill="#A0D591"/>
<path d="M294.599 149.289C295.026 149.527 295.582 149.354 295.831 148.907C296.081 148.46 295.934 147.896 295.507 147.658C295.08 147.421 294.523 147.593 294.274 148.04C294.025 148.487 294.172 149.051 294.599 149.289Z" fill="#A0D591"/>
<path d="M298.394 164.571C298.921 164.865 299.597 164.656 299.905 164.104C300.212 163.552 300.035 162.867 299.507 162.573C298.98 162.279 298.304 162.488 297.996 163.04C297.688 163.592 297.866 164.277 298.394 164.571Z" fill="#A0D591"/>
<path d="M302.448 179.443C302.85 179.666 303.367 179.507 303.602 179.086C303.836 178.665 303.7 178.142 303.298 177.918C302.896 177.694 302.379 177.854 302.145 178.274C301.911 178.695 302.047 179.219 302.448 179.443Z" fill="#A0D591"/>
<path d="M306.144 194.902C306.747 195.238 307.542 194.992 307.894 194.361C308.245 193.73 308.036 192.924 307.433 192.588C306.83 192.253 306.035 192.499 305.683 193.13C305.332 193.761 305.541 194.566 306.144 194.902Z" fill="#A0D591"/>
<path d="M309.996 210.144C310.699 210.536 311.574 210.265 311.984 209.529C312.394 208.793 312.164 207.906 311.461 207.514C310.758 207.122 309.883 207.393 309.472 208.129C309.062 208.865 309.292 209.752 309.996 210.144Z" fill="#A0D591"/>
<path d="M313.849 225.318C314.578 225.724 315.532 225.429 315.957 224.666C316.382 223.904 316.131 222.937 315.402 222.531C314.674 222.125 313.72 222.42 313.295 223.183C312.87 223.945 313.121 224.912 313.849 225.318Z" fill="#A0D591"/>
<path d="M317.964 240.081C318.542 240.403 319.257 240.182 319.594 239.577C319.931 238.972 319.743 238.247 319.165 237.925C318.588 237.603 317.872 237.825 317.535 238.43C317.198 239.034 317.386 239.759 317.964 240.081Z" fill="#A0D591"/>
<path d="M321.672 255.517C322.421 255.935 323.383 255.637 323.82 254.853C324.257 254.069 324.004 253.095 323.255 252.678C322.506 252.26 321.544 252.558 321.107 253.342C320.67 254.126 320.923 255.1 321.672 255.517Z" fill="#A0D591"/>
<path d="M325.601 270.562C326.33 270.968 327.284 270.673 327.709 269.91C328.134 269.148 327.883 268.181 327.154 267.775C326.426 267.369 325.472 267.664 325.047 268.427C324.622 269.189 324.873 270.156 325.601 270.562Z" fill="#A0D591"/>
<path d="M329.744 285.274C330.271 285.568 330.947 285.359 331.255 284.807C331.563 284.255 331.385 283.57 330.857 283.276C330.33 282.982 329.654 283.191 329.346 283.743C329.038 284.295 329.216 284.98 329.744 285.274Z" fill="#A0D591"/>
<path d="M333.51 300.604C334.188 300.982 335.038 300.697 335.419 300.014C335.8 299.33 335.57 298.444 334.917 298.08C334.264 297.716 333.389 297.987 333.008 298.67C332.627 299.354 332.857 300.24 333.51 300.604Z" fill="#A0D591"/>
<path d="M337.508 315.584C338.118 315.924 338.901 315.682 339.257 315.043C339.613 314.404 339.407 313.61 338.797 313.27C338.187 312.93 337.403 313.172 337.047 313.811C336.691 314.45 336.897 315.244 337.508 315.584Z" fill="#A0D591"/>
<path d="M341.493 330.518C342.02 330.812 342.697 330.603 343.004 330.051C343.312 329.499 343.134 328.814 342.607 328.52C342.08 328.226 341.403 328.436 341.096 328.987C340.788 329.539 340.966 330.225 341.493 330.518Z" fill="#A0D591"/>
<path d="M345.667 345.178C345.968 345.346 346.366 345.223 346.542 344.907C346.717 344.592 346.613 344.189 346.311 344.021C346.01 343.853 345.612 343.976 345.436 344.291C345.261 344.607 345.365 345.01 345.667 345.178Z" fill="#A0D591"/>
<path d="M349.463 360.456C349.865 360.68 350.381 360.521 350.616 360.1C350.85 359.679 350.715 359.155 350.312 358.931C349.91 358.707 349.394 358.867 349.159 359.288C348.924 359.709 349.06 360.232 349.463 360.456Z" fill="#A0D591"/>
<path d="M353.522 375.261C353.786 375.408 354.124 375.303 354.278 375.028C354.432 374.752 354.343 374.409 354.079 374.262C353.816 374.115 353.477 374.22 353.324 374.496C353.17 374.772 353.259 375.114 353.522 375.261Z" fill="#A0D591"/>
<path d="M357.709 389.898C357.709 389.898 357.735 389.913 357.749 389.887C357.764 389.861 357.764 389.861 357.738 389.846C357.712 389.832 357.712 389.832 357.698 389.858C357.683 389.884 357.683 389.884 357.709 389.898Z" fill="#A0D591"/>
<path d="M361.536 405.121C361.536 405.121 361.757 405.141 361.815 405.035C361.874 404.93 361.843 404.809 361.742 404.753C361.641 404.696 361.521 404.733 361.463 404.839C361.404 404.944 361.435 405.065 361.536 405.121Z" fill="#A0D591"/>
<path d="M275.993 138.44C276.219 138.566 276.497 138.48 276.629 138.244C276.761 138.007 276.688 137.725 276.462 137.599C276.236 137.473 275.958 137.559 275.826 137.796C275.694 138.032 275.767 138.314 275.993 138.44Z" fill="#A0D591"/>
<path d="M280.053 153.246C280.053 153.246 280.248 153.251 280.292 153.173C280.336 153.094 280.304 152.972 280.229 152.93C280.153 152.888 280.033 152.925 279.989 153.004C279.945 153.083 279.977 153.204 280.053 153.246Z" fill="#A0D591"/>
<path d="M283.872 168.541C284.048 168.639 284.287 168.566 284.389 168.381C284.492 168.197 284.429 167.956 284.253 167.858C284.077 167.76 283.839 167.834 283.736 168.018C283.634 168.202 283.697 168.443 283.872 168.541Z" fill="#A0D591"/>
<path d="M287.551 184.029C287.953 184.252 288.47 184.093 288.704 183.672C288.939 183.251 288.803 182.727 288.401 182.504C287.999 182.28 287.482 182.439 287.247 182.86C287.013 183.281 287.149 183.805 287.551 184.029Z" fill="#A0D591"/>
<path d="M291.637 198.843C291.913 198.997 292.246 198.872 292.392 198.61C292.539 198.347 292.445 197.984 292.193 197.844C291.942 197.704 291.584 197.815 291.438 198.078C291.291 198.341 291.386 198.703 291.637 198.843Z" fill="#A0D591"/>
<path d="M295.477 214.045C295.804 214.227 296.216 214.078 296.392 213.762C296.568 213.447 296.453 213.004 296.151 212.836C295.85 212.668 295.413 212.803 295.237 213.118C295.061 213.434 295.176 213.877 295.477 214.045Z" fill="#A0D591"/>
<path d="M299.371 229.206C299.731 229.407 300.194 229.264 300.405 228.886C300.615 228.508 300.493 228.039 300.132 227.839C299.772 227.638 299.309 227.781 299.099 228.158C298.888 228.536 299.01 229.005 299.371 229.206Z" fill="#A0D591"/>
<path d="M303.051 244.695C303.629 245.017 304.345 244.795 304.682 244.19C305.019 243.586 304.831 242.861 304.253 242.539C303.675 242.217 302.959 242.438 302.622 243.043C302.285 243.648 302.474 244.373 303.051 244.695Z" fill="#A0D591"/>
<path d="M307.209 259.383C307.586 259.593 308.038 259.432 308.243 259.064C308.448 258.696 308.322 258.212 307.971 258.016C307.619 257.82 307.142 257.968 306.937 258.336C306.732 258.704 306.857 259.188 307.209 259.383Z" fill="#A0D591"/>
<path d="M311.107 274.477C311.484 274.687 311.936 274.526 312.141 274.157C312.346 273.789 312.22 273.306 311.869 273.11C311.517 272.914 311.04 273.062 310.835 273.43C310.63 273.798 310.755 274.281 311.107 274.477Z" fill="#A0D591"/>
<path d="M314.846 289.858C315.373 290.152 316.049 289.943 316.357 289.391C316.665 288.839 316.487 288.154 315.959 287.86C315.432 287.566 314.756 287.775 314.448 288.327C314.14 288.879 314.318 289.564 314.846 289.858Z" fill="#A0D591"/>
<path d="M318.99 304.572C319.316 304.754 319.728 304.605 319.904 304.29C320.08 303.974 319.965 303.531 319.664 303.363C319.362 303.195 318.925 303.33 318.749 303.646C318.573 303.961 318.688 304.404 318.99 304.572Z" fill="#A0D591"/>
<path d="M322.975 319.507C323.225 319.646 323.546 319.547 323.691 319.286C323.837 319.024 323.753 318.7 323.503 318.561C323.253 318.421 322.933 318.52 322.787 318.782C322.641 319.043 322.726 319.368 322.975 319.507Z" fill="#A0D591"/>
<path d="M326.988 334.461C327.163 334.559 327.402 334.485 327.505 334.301C327.607 334.117 327.544 333.876 327.368 333.778C327.193 333.68 326.954 333.753 326.852 333.938C326.749 334.122 326.812 334.363 326.988 334.461Z" fill="#A0D591"/>
<path d="M330.753 349.793C331.054 349.961 331.452 349.838 331.628 349.522C331.804 349.207 331.699 348.804 331.398 348.636C331.096 348.468 330.699 348.591 330.523 348.907C330.347 349.222 330.452 349.625 330.753 349.793Z" fill="#A0D591"/>
<path d="M334.956 364.4C334.956 364.4 335.086 364.403 335.115 364.351C335.145 364.298 335.124 364.217 335.073 364.189C335.023 364.161 334.943 364.185 334.913 364.238C334.884 364.291 334.905 364.372 334.956 364.4Z" fill="#A0D591"/>
<path d="M342.814 394.48C342.814 394.48 342.84 394.495 342.854 394.469C342.869 394.443 342.869 394.443 342.843 394.428C342.817 394.414 342.817 394.414 342.803 394.44C342.788 394.466 342.788 394.466 342.814 394.48Z" fill="#A0D591"/>
<path d="M273.076 187.914C273.076 187.914 273.102 187.928 273.117 187.902C273.131 187.876 273.131 187.876 273.105 187.862C273.08 187.848 273.08 187.848 273.065 187.874C273.051 187.9 273.051 187.9 273.076 187.914Z" fill="#A0D591"/>
<path d="M276.901 203.141C276.901 203.141 277.121 203.16 277.18 203.055C277.238 202.949 277.207 202.828 277.106 202.772C277.005 202.716 276.886 202.753 276.827 202.858C276.768 202.964 276.8 203.085 276.901 203.141Z" fill="#A0D591"/>
<path d="M284.679 233.422C284.83 233.506 285.054 233.459 285.156 233.274C285.259 233.09 285.207 232.889 285.031 232.791C284.855 232.693 284.656 232.755 284.554 232.939C284.451 233.123 284.503 233.324 284.679 233.422Z" fill="#A0D591"/>
<path d="M288.588 248.557C288.763 248.655 289.002 248.581 289.105 248.397C289.207 248.213 289.144 247.971 288.969 247.873C288.793 247.775 288.554 247.849 288.452 248.033C288.349 248.217 288.412 248.459 288.588 248.557Z" fill="#A0D591"/>
<path d="M292.487 263.651C292.663 263.749 292.901 263.675 293.004 263.491C293.107 263.307 293.044 263.065 292.868 262.967C292.692 262.869 292.454 262.943 292.351 263.127C292.248 263.311 292.311 263.553 292.487 263.651Z" fill="#A0D591"/>
<path d="M296.426 278.735C296.601 278.833 296.84 278.759 296.943 278.575C297.045 278.391 296.982 278.149 296.806 278.051C296.631 277.953 296.392 278.027 296.289 278.211C296.187 278.395 296.25 278.637 296.426 278.735Z" fill="#A0D591"/>
<path d="M300.354 293.774C300.52 293.866 300.734 293.8 300.831 293.626C300.928 293.452 300.872 293.235 300.705 293.143C300.539 293.05 300.325 293.116 300.228 293.29C300.131 293.464 300.187 293.681 300.354 293.774Z" fill="#A0D591"/>
<path d="M304.325 308.741C304.325 308.741 304.545 308.76 304.604 308.654C304.663 308.549 304.631 308.428 304.53 308.372C304.43 308.316 304.31 308.352 304.251 308.458C304.193 308.563 304.224 308.684 304.325 308.741Z" fill="#A0D591"/>
<path d="M312.252 338.758C312.252 338.758 312.277 338.772 312.292 338.746C312.306 338.72 312.306 338.72 312.281 338.706C312.255 338.691 312.255 338.691 312.24 338.717C312.226 338.743 312.226 338.743 312.252 338.758Z" fill="#A0D591"/>
</g>
</g>
<defs>
<clipPath id="clip0_542_6705">
<rect width="390" height="889" fill="white"/>
</clipPath>
</defs>
</svg>
