<svg width="239" height="484" viewBox="0 0 239 484" fill="none" xmlns="http://www.w3.org/2000/svg">
<g style="mix-blend-mode:multiply" opacity="0.5">
<path d="M7.09138 450.478C6.52363 449.943 5.69566 449.927 5.20963 450.443C4.7236 450.959 4.7878 451.784 5.35555 452.319C5.9233 452.854 6.75127 452.87 7.2373 452.354C7.72333 451.838 7.65913 451.013 7.09138 450.478Z" fill="#A0D591"/>
<path d="M6.30813 436.073C5.53761 435.347 4.37093 435.325 3.71131 436.025C3.0517 436.725 3.14216 437.888 3.91268 438.614C4.68319 439.341 5.84988 439.362 6.50949 438.662C7.16911 437.963 7.07864 436.799 6.30813 436.073Z" fill="#A0D591"/>
<path d="M5.5128 421.723C4.55979 420.824 3.12966 420.798 2.31382 421.664C1.49797 422.529 1.60888 423.955 2.56188 424.854C3.51489 425.752 4.94502 425.778 5.76086 424.913C6.5767 424.047 6.4658 422.621 5.5128 421.723Z" fill="#A0D591"/>
<path d="M4.4005 407.668C3.44749 406.77 2.01736 406.743 1.20151 407.609C0.385673 408.475 0.496572 409.901 1.44958 410.799C2.40258 411.697 3.83272 411.723 4.64856 410.858C5.4644 409.992 5.3535 408.566 4.4005 407.668Z" fill="#A0D591"/>
<path d="M3.60468 393.322C2.46918 392.251 0.775612 392.22 -0.196455 393.252C-1.16852 394.283 -1.0372 395.972 0.0982952 397.042C1.23379 398.112 2.92737 398.143 3.89944 397.112C4.8715 396.081 4.74018 394.392 3.60468 393.322Z" fill="#A0D591"/>
<path d="M2.71747 379.027C1.44004 377.823 -0.499623 377.768 -1.61056 378.947C-2.72149 380.126 -2.57265 382.04 -1.27494 383.263C0.0227689 384.486 1.94216 384.521 3.0531 383.343C4.16403 382.164 4.01518 380.25 2.71747 379.027Z" fill="#A0D591"/>
<path d="M1.95661 364.642C0.476409 363.247 -1.74406 363.206 -3.01122 364.55C-4.27837 365.895 -4.10619 368.109 -2.62599 369.504C-1.14579 370.899 1.07468 370.94 2.34184 369.596C3.609 368.251 3.43681 366.037 1.95661 364.642Z" fill="#A0D591"/>
<path d="M0.776785 350.659C-0.662862 349.302 -2.80806 349.262 -4.0405 350.57C-5.27294 351.878 -5.1066 354.017 -3.66695 355.374C-2.2273 356.73 -0.0821038 356.77 1.15034 355.462C2.38278 354.155 2.21643 352.016 0.776785 350.659Z" fill="#A0D591"/>
<path d="M-0.638495 336.061C-2.36368 334.858 -4.61339 335.185 -5.66338 336.793C-6.71338 338.401 -6.16604 340.679 -4.44086 341.883C-2.71568 343.086 -0.465951 342.759 0.584045 341.151C1.63404 339.544 1.08669 337.265 -0.638495 336.061Z" fill="#A0D591"/>
<path d="M-1.09445 322.257C-2.71823 320.726 -5.16145 320.681 -6.55152 322.156C-7.9416 323.631 -7.75215 326.067 -6.12837 327.598C-4.50458 329.128 -2.06135 329.173 -0.671273 327.698C0.718804 326.223 0.529338 323.787 -1.09445 322.257Z" fill="#A0D591"/>
<path d="M-2.20724 308.204C-3.83103 306.673 -6.27424 306.628 -7.66432 308.103C-9.05439 309.578 -8.86494 312.014 -7.24116 313.545C-5.61737 315.075 -3.17414 315.12 -1.78407 313.645C-0.393989 312.171 -0.583455 309.734 -2.20724 308.204Z" fill="#A0D591"/>
<path d="M21.9274 465.123C21.5827 464.798 21.0558 464.788 20.7607 465.101C20.4656 465.414 20.5065 465.94 20.8512 466.264C21.1959 466.589 21.7228 466.599 22.0178 466.286C22.3129 465.973 22.2721 465.448 21.9274 465.123Z" fill="#A0D591"/>
<path d="M21.1656 450.739C20.5979 450.204 19.7699 450.189 19.2838 450.705C18.7978 451.22 18.862 452.046 19.4298 452.581C19.9975 453.116 20.8255 453.131 21.3115 452.616C21.7976 452.1 21.7333 451.274 21.1656 450.739Z" fill="#A0D591"/>
<path d="M20.0576 436.72C19.5201 436.214 18.7113 436.199 18.2511 436.687C17.791 437.175 17.8537 437.982 18.3912 438.488C18.9287 438.995 19.7375 439.01 20.1977 438.522C20.6579 438.034 20.5951 437.227 20.0576 436.72Z" fill="#A0D591"/>
<path d="M19.2937 422.297C18.5434 421.59 17.3941 421.55 16.7345 422.25C16.0749 422.949 16.1624 424.075 16.933 424.802C17.7035 425.528 18.8325 425.549 19.4921 424.849C20.1518 424.149 20.0642 423.023 19.2937 422.297Z" fill="#A0D591"/>
<path d="M18.5138 407.93C17.5608 407.032 16.1306 407.005 15.3148 407.871C14.499 408.736 14.6099 410.162 15.5629 411.061C16.5159 411.959 17.946 411.985 18.7618 411.12C19.5777 410.254 19.4668 408.828 18.5138 407.93Z" fill="#A0D591"/>
<path d="M17.3344 393.948C16.422 393.088 15.0671 393.063 14.286 393.892C13.5049 394.721 13.6099 396.072 14.5224 396.932C15.4348 397.792 16.7897 397.817 17.5708 396.988C18.3519 396.159 18.2469 394.808 17.3344 393.948Z" fill="#A0D591"/>
<path d="M16.5531 379.581C15.4581 378.549 13.8022 378.519 12.8648 379.513C11.9275 380.508 12.0559 382.159 13.1508 383.191C14.2458 384.223 15.9017 384.254 16.8391 383.259C17.7764 382.265 17.648 380.613 16.5531 379.581Z" fill="#A0D591"/>
<path d="M15.6683 365.286C14.4111 364.102 12.5294 364.067 11.4532 365.209C10.377 366.35 10.5229 368.227 11.78 369.412C13.0372 370.597 14.9189 370.631 15.9952 369.49C17.0714 368.348 16.9255 366.471 15.6683 365.286Z" fill="#A0D591"/>
<path d="M14.7668 351.049C13.4083 349.769 11.3383 349.731 10.1753 350.964C9.01231 352.198 9.17282 354.262 10.5314 355.543C11.8899 356.823 13.9598 356.862 15.1228 355.628C16.2858 354.394 16.1253 352.33 14.7668 351.049Z" fill="#A0D591"/>
<path d="M13.5162 337.143C12.2591 335.958 10.3397 335.922 9.26347 337.064C8.18726 338.206 8.3361 340.12 9.59326 341.305C10.8504 342.49 12.7698 342.525 13.846 341.383C14.9222 340.241 14.7734 338.327 13.5162 337.143Z" fill="#A0D591"/>
<path d="M12.7024 322.814C11.2577 321.452 9.08413 321.412 7.84744 322.724C6.61075 324.036 6.77929 326.204 8.2239 327.565C9.66851 328.927 11.8421 328.967 13.0788 327.655C14.3155 326.343 14.147 324.175 12.7024 322.814Z" fill="#A0D591"/>
<path d="M11.7671 308.61C10.2329 307.164 7.92448 307.122 6.6111 308.515C5.29771 309.909 5.4767 312.211 7.0109 313.657C8.5451 315.103 10.8535 315.145 12.1669 313.752C13.4803 312.358 13.3013 310.056 11.7671 308.61Z" fill="#A0D591"/>
<path d="M10.4652 294.759C9.04582 293.421 6.92089 293.401 5.72316 294.672C4.52544 295.942 4.69179 298.081 6.09088 299.4C7.48997 300.719 9.63518 300.758 10.8329 299.488C12.0306 298.217 11.8643 296.078 10.4652 294.759Z" fill="#A0D591"/>
<path d="M9.61607 280.466C8.05476 278.995 5.72139 278.952 4.3848 280.37C3.04821 281.788 3.21178 284.133 4.77309 285.605C6.3344 287.076 8.66777 287.119 10.0217 285.683C11.3757 284.246 11.1774 281.938 9.61607 280.466Z" fill="#A0D591"/>
<path d="M8.59033 266.318C6.98847 264.809 4.55954 264.745 3.17087 266.218C1.78221 267.692 1.969 270.094 3.59113 271.622C5.21327 273.151 7.62191 273.196 9.01058 271.722C10.3992 270.249 10.2125 267.847 8.59033 266.318Z" fill="#A0D591"/>
<path d="M7.5005 252.283C5.89864 250.773 3.46972 250.71 2.08106 252.183C0.692391 253.657 0.879168 256.058 2.50131 257.587C4.12344 259.116 6.53208 259.161 7.92075 257.687C9.30941 256.214 9.12264 253.812 7.5005 252.283Z" fill="#A0D591"/>
<path d="M6.40577 238.209C4.79319 236.689 2.36682 236.644 0.986331 238.109C-0.39416 239.574 -0.206008 241.993 1.40658 243.513C3.01917 245.033 5.44553 245.078 6.82602 243.613C8.20651 242.148 8.01836 239.729 6.40577 238.209Z" fill="#A0D591"/>
<path d="M5.2281 224.266C3.6715 222.799 1.32939 222.756 -0.00317059 224.17C-1.33573 225.583 -1.15411 227.919 0.402485 229.386C1.95908 230.853 4.3012 230.896 5.63375 229.483C6.96631 228.069 6.78469 225.733 5.2281 224.266Z" fill="#A0D591"/>
<path d="M4.08342 210.287C2.57162 208.862 0.296908 208.82 -0.997302 210.193C-2.29151 211.566 -2.11512 213.834 -0.603321 215.259C0.90848 216.684 3.1832 216.726 4.47741 215.353C5.77162 213.98 5.59522 211.712 4.08342 210.287Z" fill="#A0D591"/>
<path d="M2.72815 196.491C1.38989 195.23 -0.642395 195.192 -1.78804 196.408C-2.93369 197.623 -2.7761 199.65 -1.43784 200.911C-0.0995753 202.173 1.93271 202.21 3.07836 200.995C4.22401 199.779 4.06641 197.753 2.72815 196.491Z" fill="#A0D591"/>
<path d="M1.79464 182.288C0.354992 180.932 -1.82784 180.891 -3.06029 182.199C-4.29273 183.506 -4.12346 185.683 -2.68381 187.04C-1.24417 188.397 0.93867 188.437 2.17111 187.13C3.40355 185.822 3.23429 183.645 1.79464 182.288Z" fill="#A0D591"/>
<path d="M0.526015 168.399C-0.812248 167.138 -2.84454 167.101 -3.99019 168.316C-5.13584 169.532 -4.97825 171.558 -3.63999 172.819C-2.30172 174.081 -0.269429 174.118 0.876221 172.903C2.02187 171.687 1.86428 169.661 0.526015 168.399Z" fill="#A0D591"/>
<path d="M-0.860603 154.677C-2.01638 153.587 -3.74758 153.555 -4.73701 154.605C-5.72643 155.655 -5.59219 157.381 -4.43642 158.47C-3.28064 159.56 -1.54942 159.592 -0.559994 158.542C0.42943 157.492 0.29517 155.766 -0.860603 154.677Z" fill="#A0D591"/>
<path d="M-1.85208 140.495C-3.06868 139.349 -4.91279 139.315 -5.95429 140.42C-6.99579 141.525 -6.8528 143.363 -5.6362 144.51C-4.41959 145.657 -2.57546 145.691 -1.53396 144.586C-0.492461 143.481 -0.635475 141.642 -1.85208 140.495Z" fill="#A0D591"/>
<path d="M36.8037 479.768C36.6618 479.635 36.4359 479.63 36.3144 479.759C36.1929 479.888 36.2104 480.113 36.3524 480.247C36.4943 480.381 36.7201 480.385 36.8416 480.256C36.9631 480.127 36.9456 479.902 36.8037 479.768Z" fill="#A0D591"/>
<path d="M35.7104 465.733C35.5685 465.599 35.3427 465.595 35.2212 465.724C35.0997 465.853 35.1172 466.078 35.2591 466.212C35.401 466.346 35.6269 466.35 35.7484 466.221C35.8699 466.092 35.8524 465.867 35.7104 465.733Z" fill="#A0D591"/>
<path d="M34.8936 451.365C34.5689 451.059 34.0802 451.05 33.8022 451.345C33.5242 451.64 33.5621 452.127 33.8868 452.434C34.2116 452.74 34.7002 452.749 34.9782 452.454C35.2563 452.159 35.2184 451.671 34.8936 451.365Z" fill="#A0D591"/>
<path d="M34.1348 436.98C33.5972 436.474 32.7885 436.459 32.3283 436.947C31.8681 437.435 31.9308 438.242 32.4684 438.748C33.0059 439.255 33.8147 439.27 34.2749 438.782C34.735 438.293 34.6723 437.487 34.1348 436.98Z" fill="#A0D591"/>
<path d="M33.0422 422.944C32.5159 422.448 31.7239 422.434 31.2734 422.912C30.8228 423.39 30.8842 424.179 31.4105 424.675C31.9368 425.172 32.7288 425.186 33.1794 424.708C33.6299 424.23 33.5685 423.44 33.0422 422.944Z" fill="#A0D591"/>
<path d="M32.19 408.613C31.5005 407.963 30.4468 407.944 29.8566 408.57C29.2664 409.196 29.3481 410.247 30.0375 410.897C30.7269 411.546 31.7807 411.566 32.3709 410.94C32.9611 410.314 32.8794 409.263 32.19 408.613Z" fill="#A0D591"/>
<path d="M31.4282 394.23C30.5157 393.37 29.1609 393.345 28.3797 394.173C27.5986 395.002 27.7037 396.353 28.6161 397.213C29.5286 398.073 30.8834 398.098 31.6646 397.269C32.4457 396.441 32.3406 395.09 31.4282 394.23Z" fill="#A0D591"/>
<path d="M30.2307 380.265C29.3994 379.481 28.1198 379.457 27.4081 380.212C26.6964 380.968 26.7956 382.244 27.627 383.027C28.4583 383.811 29.7379 383.834 30.4496 383.079C31.1613 382.324 31.062 381.048 30.2307 380.265Z" fill="#A0D591"/>
<path d="M29.3473 366.007C28.3741 365.09 26.9063 365.063 26.0731 365.947C25.2399 366.831 25.3537 368.294 26.327 369.212C27.3003 370.129 28.768 370.156 29.6012 369.272C30.4344 368.388 30.3206 366.925 29.3473 366.007Z" fill="#A0D591"/>
<path d="M28.4427 351.734C27.3478 350.702 25.6918 350.671 24.7545 351.666C23.8171 352.66 23.9455 354.311 25.0405 355.343C26.1354 356.375 27.7914 356.406 28.7287 355.411C29.6661 354.417 29.5376 352.766 28.4427 351.734Z" fill="#A0D591"/>
<path d="M27.6124 337.422C26.347 336.229 24.443 336.194 23.3597 337.343C22.2764 338.493 22.424 340.391 23.6894 341.584C24.9549 342.777 26.8589 342.812 27.9422 341.663C29.0255 340.513 28.8779 338.615 27.6124 337.422Z" fill="#A0D591"/>
<path d="M26.3815 323.495C25.2054 322.387 23.4163 322.335 22.3921 323.422C21.368 324.508 21.5052 326.272 22.7015 327.399C23.8978 328.527 25.6667 328.56 26.6908 327.473C27.715 326.387 27.5778 324.623 26.3815 323.495Z" fill="#A0D591"/>
<path d="M25.409 309.331C24.1548 308.149 22.2676 308.114 21.1939 309.254C20.1202 310.393 20.2665 312.275 21.5208 313.457C22.775 314.639 24.6622 314.674 25.7359 313.534C26.8096 312.395 26.6632 310.513 25.409 309.331Z" fill="#A0D591"/>
<path d="M24.5785 295.019C23.1591 293.681 21.0342 293.661 19.8364 294.931C18.6387 296.202 18.8051 298.341 20.2042 299.66C21.6033 300.979 23.7485 301.018 24.9462 299.747C26.1439 298.477 25.9776 296.337 24.5785 295.019Z" fill="#A0D591"/>
<path d="M23.2925 281.149C21.9947 279.925 20.0377 279.889 18.9268 281.068C17.8159 282.247 17.9676 284.198 19.2653 285.421C20.563 286.644 22.5201 286.681 23.631 285.502C24.7419 284.323 24.5902 282.372 23.2925 281.149Z" fill="#A0D591"/>
<path d="M22.2528 267.057C20.9201 265.801 18.915 265.764 17.7742 266.974C16.6334 268.185 16.7889 270.184 18.1215 271.44C19.4541 272.696 21.4592 272.733 22.6001 271.523C23.7409 270.312 23.5854 268.313 22.2528 267.057Z" fill="#A0D591"/>
<path d="M21.3494 252.782C19.8895 251.406 17.669 251.365 16.4192 252.691C15.1694 254.017 15.3416 256.231 16.8015 257.607C18.2614 258.983 20.4819 259.024 21.7317 257.698C22.9815 256.372 22.8093 254.158 21.3494 252.782Z" fill="#A0D591"/>
<path d="M20.24 238.767C18.7954 237.405 16.6217 237.365 15.385 238.677C14.1484 239.99 14.3169 242.157 15.7615 243.519C17.2061 244.88 19.3797 244.92 20.6164 243.608C21.8531 242.296 21.6846 240.129 20.24 238.767Z" fill="#A0D591"/>
<path d="M18.886 224.97C17.6085 223.766 15.6688 223.712 14.5579 224.89C13.447 226.069 13.5958 227.983 14.8935 229.206C16.1912 230.429 18.1106 230.465 19.2216 229.286C20.3325 228.107 20.1837 226.193 18.886 224.97Z" fill="#A0D591"/>
<path d="M17.7601 210.97C16.5059 209.788 14.6187 209.753 13.545 210.892C12.4713 212.031 12.6176 213.913 13.8718 215.095C15.1261 216.278 17.0132 216.312 18.0869 215.173C19.1607 214.034 19.0143 212.152 17.7601 210.97Z" fill="#A0D591"/>
<path d="M16.8244 196.769C15.4861 195.507 13.4538 195.47 12.3081 196.685C11.1625 197.901 11.3201 199.927 12.6584 201.189C13.9966 202.45 16.0289 202.487 17.1745 201.272C18.3202 200.056 18.1626 198.03 16.8244 196.769Z" fill="#A0D591"/>
<path d="M15.4689 182.972C14.2928 181.863 12.5037 181.811 11.4796 182.898C10.4554 183.985 10.5926 185.748 11.7889 186.876C12.9852 188.004 14.7541 188.036 15.7782 186.95C16.8024 185.863 16.6652 184.099 15.4689 182.972Z" fill="#A0D591"/>
<path d="M14.2055 169.12C13.1309 168.107 11.5328 168.097 10.6302 169.054C9.72758 170.012 9.85307 171.626 10.9075 172.619C11.9618 173.613 13.5802 173.643 14.4828 172.685C15.3854 171.728 15.2599 170.114 14.2055 169.12Z" fill="#A0D591"/>
<path d="M13.2322 154.919C12.0764 153.829 10.3452 153.798 9.35578 154.847C8.36636 155.897 8.5006 157.623 9.65637 158.713C10.8121 159.802 12.5434 159.834 13.5328 158.784C14.5222 157.734 14.388 156.008 13.2322 154.919Z" fill="#A0D591"/>
<path d="M11.8287 141.213C10.8757 140.315 9.44556 140.288 8.62972 141.154C7.81388 142.019 7.92478 143.446 8.87778 144.344C9.83079 145.242 11.2609 145.268 12.0768 144.403C12.8926 143.537 12.7817 142.111 11.8287 141.213Z" fill="#A0D591"/>
<path d="M10.5265 127.363C9.70903 126.592 8.479 126.57 7.77916 127.312C7.07933 128.055 7.17471 129.281 7.9922 130.052C8.8097 130.822 10.0397 130.845 10.7396 130.102C11.4394 129.36 11.344 128.133 10.5265 127.363Z" fill="#A0D591"/>
<path d="M9.20944 113.567C8.53753 112.933 7.52652 112.915 6.95131 113.525C6.37611 114.135 6.45452 115.143 7.12643 115.777C7.79834 116.41 8.80931 116.429 9.38451 115.818C9.95972 115.208 9.88135 114.2 9.20944 113.567Z" fill="#A0D591"/>
<path d="M8.14797 99.4567C7.45366 98.8023 6.40895 98.783 5.81457 99.4136C5.22019 100.044 5.30123 101.086 5.99554 101.74C6.68985 102.395 7.73452 102.414 8.32889 101.783C8.92327 101.153 8.84228 100.111 8.14797 99.4567Z" fill="#A0D591"/>
<path d="M6.72811 85.7697C6.24147 85.311 5.5264 85.2978 5.1098 85.7398C4.6932 86.1818 4.74865 86.8948 5.23529 87.3535C5.72193 87.8122 6.437 87.8254 6.8536 87.3834C7.2702 86.9413 7.21475 86.2283 6.72811 85.7697Z" fill="#A0D591"/>
<path d="M5.41069 71.9747C5.08626 71.669 4.59703 71.6599 4.3193 71.9546C4.04156 72.2493 4.07947 72.7371 4.4039 73.0429C4.72833 73.3487 5.21762 73.3577 5.49535 73.0631C5.77308 72.7684 5.73512 72.2805 5.41069 71.9747Z" fill="#A0D591"/>
<path d="M4.29936 57.9201C3.97493 57.6143 3.48568 57.6053 3.20794 57.8999C2.93021 58.1946 2.96815 58.6825 3.29257 58.9882C3.617 59.294 4.10626 59.3031 4.384 59.0084C4.66173 58.7137 4.62379 58.2258 4.29936 57.9201Z" fill="#A0D591"/>
<path d="M2.87708 44.2331C2.76509 44.1275 2.59657 44.1244 2.50071 44.2261C2.40484 44.3278 2.41793 44.4958 2.52992 44.6014C2.6419 44.7069 2.81037 44.71 2.90623 44.6083C3.0021 44.5066 2.98906 44.3386 2.87708 44.2331Z" fill="#A0D591"/>
<path d="M49.7697 466.012C49.6481 465.897 49.4396 465.875 49.3181 466.003C49.1966 466.132 49.2112 466.32 49.3531 466.454C49.4951 466.588 49.6832 466.591 49.8047 466.462C49.9262 466.333 49.9117 466.146 49.7697 466.012Z" fill="#A0D591"/>
<path d="M48.6955 451.957C48.5738 451.842 48.3654 451.82 48.2439 451.949C48.1224 452.078 48.137 452.265 48.2789 452.399C48.4208 452.533 48.609 452.536 48.7305 452.407C48.852 452.278 48.8374 452.091 48.6955 451.957Z" fill="#A0D591"/>
<path d="M47.8951 437.572C47.5703 437.266 47.0817 437.257 46.8037 437.552C46.5256 437.847 46.5635 438.335 46.8883 438.641C47.213 438.947 47.7017 438.956 47.9797 438.661C48.2577 438.366 48.2198 437.879 47.8951 437.572Z" fill="#A0D591"/>
<path d="M47.0484 423.276C46.5618 422.817 45.8467 422.804 45.4301 423.246C45.0135 423.688 45.0689 424.401 45.5556 424.859C46.0422 425.318 46.7573 425.331 47.1739 424.889C47.5905 424.447 47.535 423.734 47.0484 423.276Z" fill="#A0D591"/>
<path d="M45.9561 409.242C45.4695 408.784 44.7544 408.77 44.3378 409.212C43.9212 409.654 43.9767 410.367 44.4633 410.826C44.9499 411.285 45.665 411.298 46.0816 410.856C46.4982 410.414 46.4428 409.701 45.9561 409.242Z" fill="#A0D591"/>
<path d="M45.1408 394.873C44.4919 394.261 43.4931 394.224 42.9203 394.832C42.3475 395.439 42.4234 396.415 43.0925 397.046C43.7616 397.676 44.7401 397.695 45.313 397.087C45.8858 396.479 45.8099 395.503 45.1408 394.873Z" fill="#A0D591"/>
<path d="M44.2222 380.655C43.4517 379.929 42.285 379.907 41.6254 380.607C40.9657 381.307 41.0562 382.47 41.8267 383.196C42.5973 383.923 43.7639 383.944 44.4236 383.244C45.0832 382.545 44.9927 381.381 44.2222 380.655Z" fill="#A0D591"/>
<path d="M43.0223 366.694C42.3126 366.025 41.2588 366.005 40.6513 366.65C40.0437 367.295 40.1254 368.345 40.8351 369.014C41.5448 369.683 42.5986 369.703 43.2061 369.058C43.8137 368.413 43.732 367.363 43.0223 366.694Z" fill="#A0D591"/>
<path d="M42.2441 352.323C41.337 351.468 39.9722 351.443 39.1957 352.267C38.4191 353.091 38.525 354.452 39.432 355.307C40.3391 356.162 41.704 356.187 42.4805 355.363C43.257 354.539 43.1512 353.178 42.2441 352.323Z" fill="#A0D591"/>
<path d="M41.2709 338.123C40.2774 337.187 38.8096 337.16 37.9591 338.062C37.1085 338.965 37.2223 340.428 38.2159 341.365C39.2094 342.301 40.6772 342.328 41.5278 341.426C42.3783 340.523 42.2645 339.06 41.2709 338.123Z" fill="#A0D591"/>
<path d="M40.3538 323.904C39.2564 322.869 37.6051 322.839 36.6656 323.836C35.7261 324.832 35.8542 326.479 36.9516 327.513C38.0491 328.548 39.7003 328.578 40.6398 327.581C41.5793 326.585 41.4513 324.938 40.3538 323.904Z" fill="#A0D591"/>
<path d="M39.2586 309.831C38.1637 308.799 36.5077 308.769 35.5704 309.763C34.633 310.758 34.7615 312.409 35.8564 313.441C36.9513 314.473 38.6073 314.504 39.5446 313.509C40.482 312.515 40.3536 310.863 39.2586 309.831Z" fill="#A0D591"/>
<path d="M38.2209 295.74C37.0854 294.669 35.3918 294.638 34.4197 295.67C33.4477 296.701 33.579 298.39 34.7145 299.46C35.85 300.53 37.5436 300.561 38.5156 299.53C39.4877 298.499 39.3564 296.81 38.2209 295.74Z" fill="#A0D591"/>
<path d="M37.2145 281.612C36.0384 280.504 34.2493 280.452 33.2252 281.539C32.201 282.625 32.3382 284.389 33.5345 285.517C34.7308 286.644 36.4997 286.677 37.5238 285.59C38.548 284.504 38.4108 282.74 37.2145 281.612Z" fill="#A0D591"/>
<path d="M36.1198 267.538C34.9437 266.43 33.1546 266.378 32.1304 267.464C31.1063 268.551 31.2435 270.315 32.4398 271.442C33.6361 272.57 35.405 272.603 36.4291 271.516C37.4532 270.429 37.3161 268.666 36.1198 267.538Z" fill="#A0D591"/>
<path d="M35.0289 253.503C33.8529 252.394 32.0638 252.343 31.0396 253.429C30.0155 254.516 30.1526 256.28 31.349 257.407C32.5453 258.535 34.3141 258.568 35.3383 257.481C36.3624 256.394 36.2252 254.631 35.0289 253.503Z" fill="#A0D591"/>
<path d="M33.9186 239.448C32.7425 238.34 30.9534 238.288 29.9293 239.375C28.9051 240.461 29.0423 242.225 30.2386 243.353C31.4349 244.48 33.2038 244.513 34.2279 243.426C35.2521 242.34 35.1149 240.576 33.9186 239.448Z" fill="#A0D591"/>
<path d="M32.7565 225.486C31.6255 224.42 29.9236 224.388 28.9554 225.416C27.9871 226.443 28.1191 228.14 29.2502 229.206C30.3812 230.272 32.083 230.303 33.0513 229.276C34.0195 228.249 33.8876 226.552 32.7565 225.486Z" fill="#A0D591"/>
<path d="M31.6623 211.414C30.5312 210.347 28.8294 210.316 27.8611 211.343C26.8929 212.371 27.0249 214.068 28.1559 215.134C29.287 216.2 30.9888 216.231 31.957 215.204C32.9253 214.177 32.7933 212.48 31.6623 211.414Z" fill="#A0D591"/>
<path d="M30.4668 197.489C29.3921 196.477 27.7941 196.466 26.8914 197.423C25.9888 198.381 26.1143 199.995 27.1687 200.989C28.2231 201.982 29.8414 202.012 30.744 201.055C31.6467 200.097 31.5211 198.483 30.4668 197.489Z" fill="#A0D591"/>
<path d="M29.271 183.563C28.2774 182.626 26.8097 182.599 25.9591 183.502C25.1085 184.404 25.2223 185.868 26.2159 186.804C27.2095 187.741 28.6772 187.768 29.5278 186.865C30.3783 185.963 30.2645 184.499 29.271 183.563Z" fill="#A0D591"/>
<path d="M28.1577 169.51C27.1641 168.573 25.6964 168.546 24.8458 169.449C23.9953 170.351 24.1091 171.815 25.1026 172.751C26.0962 173.688 27.5639 173.715 28.4145 172.812C29.2651 171.91 29.1512 170.446 28.1577 169.51Z" fill="#A0D591"/>
<path d="M26.9296 155.619C26.0374 154.778 24.7202 154.754 23.9564 155.564C23.1926 156.374 23.2948 157.688 24.187 158.529C25.0791 159.37 26.3964 159.394 27.1601 158.584C27.9239 157.773 27.8218 156.46 26.9296 155.619Z" fill="#A0D591"/>
<path d="M25.6441 141.749C24.8736 141.022 23.7069 141.001 23.0473 141.701C22.3876 142.401 22.4781 143.564 23.2486 144.29C24.0191 145.016 25.1858 145.038 25.8454 144.338C26.5051 143.638 26.4146 142.475 25.6441 141.749Z" fill="#A0D591"/>
<path d="M24.2213 128.066C23.6535 127.53 22.8255 127.515 22.3395 128.031C21.8535 128.546 21.9177 129.372 22.4854 129.907C23.0532 130.442 23.8812 130.458 24.3672 129.942C24.8532 129.426 24.789 128.601 24.2213 128.066Z" fill="#A0D591"/>
<path d="M23.2322 113.88C22.6051 113.289 21.6615 113.272 21.1246 113.841C20.5878 114.411 20.661 115.352 21.2881 115.943C21.9152 116.534 22.8588 116.551 23.3956 115.982C23.9325 115.412 23.8593 114.471 23.2322 113.88Z" fill="#A0D591"/>
<path d="M21.9156 100.084C21.429 99.6255 20.7139 99.6122 20.2973 100.054C19.8807 100.496 19.9362 101.209 20.4228 101.668C20.9094 102.127 21.6245 102.14 22.0411 101.698C22.4577 101.256 22.4023 100.543 21.9156 100.084Z" fill="#A0D591"/>
<path d="M20.4921 86.3607C20.2082 86.0931 19.7942 86.0855 19.5512 86.3433C19.3082 86.6011 19.3403 87.0139 19.6242 87.2815C19.9081 87.5491 20.322 87.5567 20.5651 87.2989C20.8081 87.041 20.776 86.6282 20.4921 86.3607Z" fill="#A0D591"/>
<path d="M19.4169 72.306C19.133 72.0384 18.719 72.0308 18.476 72.2886C18.233 72.5464 18.2651 72.9592 18.549 73.2268C18.8329 73.4944 19.2468 73.502 19.4899 73.2442C19.7329 72.9863 19.7008 72.5735 19.4169 72.306Z" fill="#A0D591"/>
<path d="M18.0816 58.5319C17.96 58.4172 17.7921 58.4329 17.7053 58.5249C17.6185 58.617 17.6331 58.8046 17.7345 58.9002C17.8359 58.9957 18.024 58.9992 18.1108 58.9072C18.1976 58.8151 18.183 58.6274 18.0816 58.5319Z" fill="#A0D591"/>
<path d="M62.754 452.237C62.6324 452.122 62.4645 452.138 62.3777 452.23C62.2909 452.322 62.3055 452.51 62.4069 452.605C62.5082 452.701 62.6964 452.704 62.7832 452.612C62.87 452.52 62.8554 452.332 62.754 452.237Z" fill="#A0D591"/>
<path d="M61.5931 438.27C61.5931 438.27 61.4187 438.211 61.3666 438.266C61.3144 438.321 61.3233 438.434 61.3844 438.492C61.4455 438.549 61.5588 438.552 61.6109 438.496C61.6631 438.441 61.6542 438.328 61.5931 438.27Z" fill="#A0D591"/>
<path d="M60.8109 423.868C60.5271 423.601 60.1131 423.593 59.8701 423.851C59.6271 424.109 59.6592 424.522 59.943 424.789C60.2269 425.057 60.6409 425.065 60.8839 424.807C61.1269 424.549 61.0948 424.136 60.8109 423.868Z" fill="#A0D591"/>
<path d="M59.9625 409.575C59.5367 409.173 58.8969 409.162 58.5324 409.548C58.1679 409.935 58.2175 410.573 58.6433 410.974C59.0691 411.376 59.7089 411.388 60.0734 411.001C60.438 410.614 60.3884 409.976 59.9625 409.575Z" fill="#A0D591"/>
<path d="M58.7846 395.631C58.4196 395.287 57.8927 395.277 57.5803 395.609C57.2678 395.94 57.3087 396.466 57.6737 396.81C58.0386 397.154 58.5655 397.164 58.878 396.832C59.1904 396.501 59.1496 395.975 58.7846 395.631Z" fill="#A0D591"/>
<path d="M57.8802 381.356C57.3875 380.892 56.6461 380.878 56.2243 381.326C55.8025 381.773 55.86 382.513 56.3527 382.977C56.8454 383.441 57.5868 383.455 58.0086 383.008C58.4305 382.56 58.373 381.821 57.8802 381.356Z" fill="#A0D591"/>
<path d="M57.1185 366.971C56.413 366.306 55.3514 366.287 54.7475 366.927C54.1435 367.568 54.2258 368.627 54.9313 369.292C55.6368 369.957 56.6984 369.976 57.3023 369.335C57.9063 368.695 57.824 367.636 57.1185 366.971Z" fill="#A0D591"/>
<path d="M55.8865 353.044C55.2579 352.452 54.3171 352.435 53.779 353.005C53.2408 353.576 53.3138 354.515 53.9424 355.107C54.571 355.699 55.5118 355.717 56.0499 355.146C56.5881 354.575 56.5151 353.637 55.8865 353.044Z" fill="#A0D591"/>
<path d="M54.9334 338.862C54.2279 338.197 53.1663 338.177 52.5624 338.818C51.9584 339.459 52.0407 340.517 52.7462 341.182C53.4518 341.847 54.5133 341.867 55.1173 341.226C55.7212 340.585 55.6389 339.527 54.9334 338.862Z" fill="#A0D591"/>
<path d="M54.1337 324.476C53.2267 323.621 51.8618 323.596 51.0853 324.42C50.3088 325.243 50.4146 326.604 51.3217 327.459C52.2288 328.314 53.5936 328.339 54.3701 327.516C55.1467 326.692 55.0408 325.331 54.1337 324.476Z" fill="#A0D591"/>
<path d="M53.1638 310.312C52.1905 309.395 50.7227 309.368 49.8895 310.252C49.0563 311.136 49.1701 312.599 50.1434 313.517C51.1167 314.434 52.5844 314.461 53.4176 313.577C54.2508 312.693 54.137 311.229 53.1638 310.312Z" fill="#A0D591"/>
<path d="M51.8454 296.477C51.0141 295.694 49.7345 295.67 49.0228 296.425C48.3111 297.18 48.4104 298.456 49.2417 299.24C50.073 300.024 51.3526 300.047 52.0643 299.292C52.776 298.537 52.6768 297.261 51.8454 296.477Z" fill="#A0D591"/>
<path d="M51.0482 282.129C50.0343 281.174 48.4913 281.145 47.6234 282.066C46.7555 282.987 46.8751 284.526 47.8889 285.481C48.9028 286.437 50.4458 286.465 51.3137 285.544C52.1817 284.623 52.062 283.085 51.0482 282.129Z" fill="#A0D591"/>
<path d="M49.9906 268.058C48.9492 267.077 47.3821 267.048 46.4906 267.994C45.599 268.94 45.7205 270.502 46.762 271.484C47.8034 272.465 49.3705 272.494 50.262 271.548C51.1536 270.603 51.0321 269.04 49.9906 268.058Z" fill="#A0D591"/>
<path d="M48.6709 254.222C47.7584 253.362 46.4035 253.337 45.6224 254.166C44.8413 254.994 44.9464 256.345 45.8588 257.205C46.7713 258.065 48.1261 258.09 48.9072 257.262C49.6884 256.433 49.5833 255.082 48.6709 254.222Z" fill="#A0D591"/>
<path d="M47.5619 240.207C46.6697 239.366 45.3351 239.36 44.5887 240.152C43.8423 240.944 43.9271 242.276 44.8193 243.117C45.7115 243.958 47.0287 243.982 47.7925 243.172C48.5562 242.361 48.4541 241.048 47.5619 240.207Z" fill="#A0D591"/>
<path d="M46.6751 225.912C45.6561 224.952 44.1227 224.924 43.2503 225.849C42.3779 226.775 42.4968 228.304 43.5159 229.264C44.535 230.225 46.0683 230.253 46.9407 229.327C47.8131 228.402 47.6942 226.873 46.6751 225.912Z" fill="#A0D591"/>
<path d="M45.4796 211.988C44.5266 211.09 43.0965 211.064 42.2806 211.929C41.4648 212.795 41.5757 214.221 42.5287 215.119C43.4817 216.017 44.9118 216.044 45.7277 215.178C46.5435 214.313 46.4326 212.887 45.4796 211.988Z" fill="#A0D591"/>
<path d="M44.1425 198.173C43.3314 197.408 42.1271 197.386 41.4327 198.123C40.7384 198.859 40.8318 200.06 41.6429 200.825C42.4539 201.589 43.6583 201.611 44.3526 200.875C45.0469 200.138 44.9535 198.937 44.1425 198.173Z" fill="#A0D591"/>
<path d="M43.2245 183.952C42.3175 183.097 40.9526 183.072 40.1761 183.896C39.3996 184.72 39.5054 186.081 40.4125 186.936C41.3196 187.791 42.6844 187.816 43.461 186.992C44.2375 186.168 44.1316 184.807 43.2245 183.952Z" fill="#A0D591"/>
<path d="M41.976 170.083C41.1649 169.318 39.9606 169.296 39.2662 170.033C38.5719 170.769 38.6653 171.97 39.4764 172.735C40.2874 173.499 41.4917 173.521 42.1861 172.785C42.8804 172.048 42.787 170.847 41.976 170.083Z" fill="#A0D591"/>
<path d="M40.6048 156.304C39.9762 155.712 39.0353 155.694 38.4972 156.265C37.9591 156.836 38.0321 157.774 38.6607 158.367C39.2892 158.959 40.2301 158.977 40.7682 158.406C41.3063 157.835 41.2334 156.897 40.6048 156.304Z" fill="#A0D591"/>
<path d="M39.2891 142.508C38.8025 142.049 38.0874 142.036 37.6708 142.478C37.2542 142.92 37.3097 143.633 37.7963 144.092C38.283 144.55 38.998 144.564 39.4146 144.122C39.8312 143.68 39.7758 142.967 39.2891 142.508Z" fill="#A0D591"/>
<path d="M38.3145 128.306C37.7468 127.771 36.9188 127.755 36.4328 128.271C35.9467 128.787 36.0109 129.612 36.5787 130.147C37.1464 130.683 37.9744 130.698 38.4604 130.182C38.9465 129.667 38.8823 128.841 38.3145 128.306Z" fill="#A0D591"/>
<path d="M36.8927 114.621C36.548 114.296 36.0211 114.286 35.726 114.599C35.4309 114.912 35.4718 115.438 35.8165 115.763C36.1612 116.087 36.6881 116.097 36.9832 115.784C37.2783 115.471 37.2374 114.946 36.8927 114.621Z" fill="#A0D591"/>
<path d="M35.5556 100.805C35.3528 100.614 35.0517 100.608 34.8781 100.793C34.7046 100.977 34.7279 101.277 34.9307 101.468C35.1334 101.659 35.4345 101.665 35.6081 101.481C35.7817 101.296 35.7583 100.996 35.5556 100.805Z" fill="#A0D591"/>
<path d="M34.5687 86.66C34.3051 86.4116 33.9114 86.4231 33.7031 86.6441C33.4948 86.8651 33.5269 87.2779 33.7702 87.5072C34.0135 87.7366 34.4275 87.7442 34.6358 87.5232C34.8441 87.3022 34.812 86.8894 34.5687 86.66Z" fill="#A0D591"/>
<path d="M33.1624 72.9169C33.1624 72.9169 32.988 72.8571 32.9359 72.9124C32.8837 72.9678 32.8927 73.0807 32.9538 73.1383C33.0148 73.1958 33.1281 73.1981 33.1802 73.1427C33.2324 73.0874 33.2235 72.9745 33.1624 72.9169Z" fill="#A0D591"/>
<path d="M75.6687 438.532C75.6687 438.532 75.4944 438.472 75.4422 438.528C75.3901 438.583 75.399 438.696 75.4601 438.753C75.5212 438.811 75.6344 438.813 75.6866 438.758C75.7388 438.703 75.7298 438.59 75.6687 438.532Z" fill="#A0D591"/>
<path d="M74.5055 424.572C74.5055 424.572 74.4848 424.553 74.4676 424.571C74.4505 424.589 74.4504 424.589 74.4712 424.609C74.4919 424.628 74.4919 424.628 74.5091 424.61C74.5263 424.592 74.5263 424.592 74.5055 424.572Z" fill="#A0D591"/>
<path d="M73.6571 410.239C73.4746 410.067 73.2111 410.062 73.0549 410.228C72.8987 410.394 72.9191 410.656 73.1016 410.828C73.2841 411 73.5475 411.005 73.7038 410.84C73.86 410.674 73.8396 410.411 73.6571 410.239Z" fill="#A0D591"/>
<path d="M72.8087 395.945C72.4839 395.639 71.9953 395.63 71.7172 395.925C71.4392 396.22 71.4771 396.708 71.8019 397.014C72.1266 397.32 72.6153 397.329 72.8933 397.034C73.1713 396.739 73.1334 396.252 72.8087 395.945Z" fill="#A0D591"/>
<path d="M71.7339 381.893C71.4095 381.587 70.9203 381.578 70.6425 381.873C70.3648 382.167 70.4027 382.655 70.7272 382.961C71.0516 383.267 71.5408 383.276 71.8186 382.981C72.0963 382.686 72.0584 382.199 71.7339 381.893Z" fill="#A0D591"/>
<path d="M70.778 367.672C70.3524 367.271 69.7121 367.26 69.3478 367.646C68.9835 368.033 69.0332 368.671 69.4587 369.072C69.8843 369.473 70.5246 369.485 70.8889 369.099C71.2532 368.712 71.2035 368.074 70.778 367.672Z" fill="#A0D591"/>
<path d="M69.8599 353.455C69.3124 352.939 68.5047 352.943 68.0534 353.421C67.6021 353.9 67.6663 354.726 68.1935 355.223C68.7207 355.72 69.5486 355.735 69.9999 355.256C70.4513 354.777 70.3871 353.952 69.8599 353.455Z" fill="#A0D591"/>
<path d="M68.7642 339.383C68.2167 338.867 67.409 338.87 66.9577 339.349C66.5064 339.828 66.5706 340.654 67.0978 341.151C67.625 341.647 68.4529 341.663 68.9042 341.184C69.3556 340.705 69.2914 339.879 68.7642 339.383Z" fill="#A0D591"/>
<path d="M67.8128 325.197C67.1842 324.604 66.2433 324.587 65.7052 325.158C65.1671 325.729 65.2401 326.667 65.8687 327.259C66.4972 327.852 67.4381 327.869 67.9762 327.298C68.5143 326.727 68.4414 325.789 67.8128 325.197Z" fill="#A0D591"/>
<path d="M66.7876 311.051C66.1184 310.42 65.1023 310.402 64.5294 311.009C63.9566 311.617 64.0354 312.63 64.7045 313.261C65.3737 313.892 66.3898 313.91 66.9626 313.303C67.5355 312.695 67.4567 311.682 66.7876 311.051Z" fill="#A0D591"/>
<path d="M65.9582 296.737C65.1184 295.946 63.8546 295.922 63.1356 296.685C62.4166 297.448 62.5146 298.708 63.3545 299.5C64.1944 300.291 65.4581 300.315 66.1771 299.552C66.8961 298.789 66.7981 297.529 65.9582 296.737Z" fill="#A0D591"/>
<path d="M64.6877 282.85C63.9577 282.162 62.8286 282.141 62.2037 282.804C61.5788 283.467 61.6664 284.593 62.3964 285.281C63.1263 285.969 64.2554 285.99 64.8803 285.327C65.5052 284.664 65.4176 283.538 64.6877 282.85Z" fill="#A0D591"/>
<path d="M63.6326 268.777C62.8823 268.07 61.733 268.03 61.0734 268.73C60.4138 269.43 60.5013 270.556 61.2718 271.282C62.0423 272.008 63.1714 272.029 63.831 271.329C64.4906 270.629 64.4031 269.504 63.6326 268.777Z" fill="#A0D591"/>
<path d="M62.5583 254.723C61.8081 254.015 60.6588 253.976 59.9991 254.675C59.3395 255.375 59.4271 256.501 60.1976 257.227C60.9681 257.954 62.0972 257.974 62.7568 257.275C63.4164 256.575 63.3288 255.449 62.5583 254.723Z" fill="#A0D591"/>
<path d="M61.4455 240.67C60.6953 239.963 59.546 239.923 58.8864 240.623C58.2267 241.322 58.3143 242.448 59.0848 243.175C59.8553 243.901 60.9844 243.922 61.644 243.222C62.3036 242.522 62.2161 241.396 61.4455 240.67Z" fill="#A0D591"/>
<path d="M60.2864 226.705C59.5809 226.04 58.5194 226.021 57.9154 226.662C57.3115 227.302 57.3938 228.361 58.0993 229.026C58.8048 229.691 59.8663 229.711 60.4703 229.07C61.0743 228.429 60.9919 227.37 60.2864 226.705Z" fill="#A0D591"/>
<path d="M59.1386 212.69C58.4695 212.059 57.4534 212.04 56.8805 212.648C56.3077 213.256 56.3865 214.269 57.0556 214.9C57.7247 215.53 58.7409 215.549 59.3137 214.941C59.8866 214.334 59.8078 213.32 59.1386 212.69Z" fill="#A0D591"/>
<path d="M58.2558 198.432C57.4495 197.672 56.2363 197.65 55.546 198.382C54.8558 199.115 54.9499 200.324 55.7562 201.084C56.5624 201.844 57.7756 201.867 58.4659 201.134C59.1561 200.402 59.0621 199.192 58.2558 198.432Z" fill="#A0D591"/>
<path d="M56.8494 184.689C56.2411 184.116 55.3378 184.099 54.8171 184.652C54.2963 185.204 54.3663 186.105 54.9747 186.678C55.583 187.252 56.4862 187.268 57.0069 186.716C57.5277 186.163 57.4577 185.263 56.8494 184.689Z" fill="#A0D591"/>
<path d="M55.636 170.784C55.1088 170.287 54.3184 170.273 53.8671 170.752C53.4158 171.23 53.4771 172.018 54.0043 172.515C54.5315 173.012 55.3218 173.027 55.7731 172.548C56.2244 172.069 56.1631 171.281 55.636 170.784Z" fill="#A0D591"/>
<path d="M54.37 156.933C53.9556 156.543 53.3322 156.531 52.9775 156.908C52.6227 157.284 52.6711 157.906 53.0854 158.296C53.4998 158.687 54.1232 158.698 54.4779 158.322C54.8327 157.946 54.7843 157.324 54.37 156.933Z" fill="#A0D591"/>
<path d="M53.2591 142.877C52.8536 142.495 52.2312 142.464 51.8666 142.851C51.5021 143.238 51.5488 143.838 51.9746 144.24C52.4004 144.641 53.0026 144.652 53.3671 144.265C53.7316 143.879 53.6849 143.278 53.2591 142.877Z" fill="#A0D591"/>
<path d="M51.9944 129.025C51.6902 128.739 51.2589 128.75 51.0158 129.007C50.7728 129.265 50.8078 129.716 51.0917 129.983C51.3756 130.251 51.8272 130.259 52.0702 130.001C52.3132 129.743 52.2782 129.293 51.9944 129.025Z" fill="#A0D591"/>
<path d="M50.7259 115.14C50.5434 114.968 50.28 114.963 50.1238 115.128C49.9675 115.294 49.988 115.557 50.1705 115.729C50.3529 115.901 50.6164 115.906 50.7726 115.74C50.9288 115.574 50.9084 115.312 50.7259 115.14Z" fill="#A0D591"/>
<path d="M49.6346 101.102C49.4521 100.93 49.1886 100.926 49.0324 101.091C48.8762 101.257 48.8966 101.52 49.0791 101.692C49.2616 101.864 49.5251 101.869 49.6813 101.703C49.8375 101.537 49.8171 101.274 49.6346 101.102Z" fill="#A0D591"/>
<path d="M48.2614 87.3244C48.2499 87.3136 48.233 87.313 48.2235 87.3231C48.214 87.3331 48.2156 87.35 48.2271 87.3608C48.2385 87.3716 48.2555 87.3722 48.265 87.3622C48.2744 87.3521 48.2728 87.3352 48.2614 87.3244Z" fill="#A0D591"/>
<path d="M86.5538 396.557C86.4418 396.452 86.2733 396.449 86.1775 396.55C86.0816 396.652 86.0947 396.82 86.2067 396.926C86.3186 397.031 86.4871 397.034 86.583 396.933C86.6789 396.831 86.6658 396.663 86.5538 396.557Z" fill="#A0D591"/>
<path d="M85.6866 382.28C85.4402 382.048 85.0695 382.041 84.8586 382.265C84.6477 382.489 84.6764 382.859 84.9228 383.091C85.1692 383.323 85.5399 383.33 85.7508 383.106C85.9617 382.882 85.933 382.513 85.6866 382.28Z" fill="#A0D591"/>
<path d="M84.492 368.356C84.3128 368.187 84.0432 368.182 83.8899 368.345C83.7365 368.508 83.7574 368.777 83.9366 368.946C84.1157 369.115 84.3853 369.12 84.5387 368.957C84.6921 368.794 84.6712 368.525 84.492 368.356Z" fill="#A0D591"/>
<path d="M83.6398 354.027C83.2951 353.702 82.7682 353.692 82.4731 354.005C82.178 354.318 82.2189 354.844 82.5636 355.169C82.9083 355.494 83.4352 355.503 83.7302 355.19C84.0253 354.877 83.9845 354.352 83.6398 354.027Z" fill="#A0D591"/>
<path d="M82.6886 339.842C82.2628 339.441 81.623 339.429 81.2585 339.816C80.894 340.203 80.9436 340.841 81.3694 341.242C81.7952 341.643 82.435 341.655 82.7995 341.268C83.164 340.882 83.1144 340.244 82.6886 339.842Z" fill="#A0D591"/>
<path d="M81.438 325.936C81.1136 325.63 80.6244 325.621 80.3466 325.916C80.0689 326.21 80.1068 326.698 80.4313 327.004C80.7557 327.31 81.2449 327.319 81.5227 327.024C81.8004 326.729 81.7625 326.241 81.438 325.936Z" fill="#A0D591"/>
<path d="M80.6058 311.624C80.1192 311.165 79.3665 311.151 78.9499 311.593C78.5333 312.035 78.5916 312.786 79.0783 313.245C79.5649 313.703 80.3176 313.717 80.7342 313.275C81.1508 312.833 81.0925 312.083 80.6058 311.624Z" fill="#A0D591"/>
<path d="M79.5977 297.458C79.03 296.923 78.202 296.908 77.716 297.423C77.2299 297.939 77.2941 298.765 77.8619 299.3C78.4296 299.835 79.2576 299.85 79.7436 299.335C80.2297 298.819 80.1655 297.993 79.5977 297.458Z" fill="#A0D591"/>
<path d="M78.5771 283.349C77.9891 282.795 77.0858 282.778 76.5824 283.312C76.079 283.846 76.1491 284.747 76.7371 285.301C77.3251 285.855 78.2284 285.872 78.7318 285.338C79.2351 284.804 79.1651 283.903 78.5771 283.349Z" fill="#A0D591"/>
<path d="M77.2559 269.514C76.7895 269.075 76.1121 269.062 75.7128 269.486C75.3136 269.909 75.3661 270.585 75.8325 271.025C76.2988 271.464 76.9763 271.477 77.3755 271.053C77.7747 270.629 77.7222 269.954 77.2559 269.514Z" fill="#A0D591"/>
<path d="M76.4079 255.223C75.8032 254.653 74.8933 254.636 74.3757 255.185C73.858 255.734 73.9285 256.642 74.5332 257.212C75.1379 257.782 76.0478 257.798 76.5655 257.249C77.0832 256.7 77.0127 255.793 76.4079 255.223Z" fill="#A0D591"/>
<path d="M75.2978 241.206C74.7098 240.652 73.8065 240.635 73.3031 241.169C72.7998 241.704 72.8698 242.604 73.4578 243.158C74.0458 243.713 74.9491 243.729 75.4525 243.195C75.9559 242.661 75.8858 241.761 75.2978 241.206Z" fill="#A0D591"/>
<path d="M73.9445 227.409C73.5187 227.007 72.8789 226.996 72.5143 227.382C72.1498 227.769 72.1994 228.407 72.6252 228.808C73.051 229.21 73.6909 229.222 74.0554 228.835C74.4199 228.448 74.3703 227.81 73.9445 227.409Z" fill="#A0D591"/>
<path d="M73.0269 213.189C72.4794 212.673 71.6717 212.677 71.2204 213.156C70.7691 213.635 70.8333 214.46 71.3605 214.957C71.8877 215.454 72.7156 215.469 73.1669 214.99C73.6183 214.512 73.5541 213.686 73.0269 213.189Z" fill="#A0D591"/>
<path d="M71.8456 199.208C71.3528 198.743 70.6114 198.73 70.1896 199.177C69.7678 199.625 69.8253 200.364 70.318 200.829C70.8108 201.293 71.5522 201.307 71.974 200.859C72.3958 200.412 72.3383 199.672 71.8456 199.208Z" fill="#A0D591"/>
<path d="M70.6671 185.264C70.2416 184.863 69.6013 184.851 69.237 185.238C68.8727 185.624 68.9224 186.263 69.3479 186.664C69.7734 187.065 70.4137 187.077 70.778 186.69C71.1423 186.304 71.0927 185.665 70.6671 185.264Z" fill="#A0D591"/>
<path d="M69.2774 171.505C69.0341 171.276 68.6577 171.269 68.4494 171.49C68.2411 171.711 68.2703 172.086 68.5136 172.315C68.757 172.545 69.1333 172.552 69.3416 172.331C69.5499 172.11 69.5207 171.734 69.2774 171.505Z" fill="#A0D591"/>
<path d="M68.3252 157.32C68.0005 157.014 67.5118 157.005 67.2338 157.3C66.9558 157.595 66.9937 158.083 67.3185 158.389C67.6432 158.695 68.1319 158.704 68.4099 158.409C68.6879 158.114 68.65 157.627 68.3252 157.32Z" fill="#A0D591"/>
<path d="M67.0598 143.47C66.847 143.269 66.5268 143.263 66.3447 143.457C66.1625 143.65 66.1874 143.969 66.4001 144.17C66.6129 144.37 66.9331 144.376 67.1152 144.183C67.2974 143.99 67.2725 143.67 67.0598 143.47Z" fill="#A0D591"/>
<path d="M65.654 129.727C65.654 129.727 65.6332 129.707 65.6161 129.725C65.5989 129.744 65.5989 129.744 65.6196 129.763C65.6404 129.783 65.6404 129.783 65.6576 129.764C65.6747 129.746 65.6747 129.746 65.654 129.727Z" fill="#A0D591"/>
<path d="M64.6648 115.583C64.6648 115.583 64.4708 115.504 64.4013 115.578C64.3319 115.651 64.3407 115.764 64.4218 115.84C64.5029 115.917 64.6158 115.919 64.6852 115.845C64.7546 115.772 64.7459 115.659 64.6648 115.583Z" fill="#A0D591"/>
<path d="M98.5838 368.599C98.4013 368.427 98.1379 368.422 97.9817 368.587C97.8254 368.753 97.8459 369.016 98.0284 369.188C98.2108 369.36 98.4743 369.365 98.6305 369.199C98.7867 369.033 98.7663 368.771 98.5838 368.599Z" fill="#A0D591"/>
<path d="M97.3186 354.747C97.3186 354.747 97.1443 354.687 97.0921 354.743C97.04 354.798 97.0489 354.911 97.11 354.968C97.1711 355.026 97.2843 355.028 97.3365 354.973C97.3887 354.917 97.3797 354.805 97.3186 354.747Z" fill="#A0D591"/>
<path d="M96.3471 340.544C96.2052 340.41 95.9794 340.406 95.8579 340.535C95.7364 340.664 95.7539 340.889 95.8958 341.023C96.0378 341.156 96.2636 341.161 96.3851 341.032C96.5066 340.903 96.4891 340.677 96.3471 340.544Z" fill="#A0D591"/>
<path d="M95.5342 326.215C95.2098 325.909 94.7206 325.9 94.4428 326.195C94.1651 326.49 94.203 326.977 94.5275 327.283C94.8519 327.589 95.3411 327.598 95.6189 327.303C95.8966 327.009 95.8587 326.521 95.5342 326.215Z" fill="#A0D591"/>
<path d="M94.2482 312.343C94.0252 312.133 93.7068 312.145 93.5332 312.33C93.3596 312.514 93.3859 312.852 93.5886 313.043C93.7914 313.234 94.1301 313.24 94.3037 313.056C94.4773 312.872 94.451 312.534 94.2482 312.343Z" fill="#A0D591"/>
<path d="M93.243 298.217C92.9794 297.968 92.5857 297.98 92.3774 298.201C92.1691 298.422 92.2012 298.835 92.4445 299.064C92.6878 299.293 93.1018 299.301 93.3101 299.08C93.5184 298.859 93.4863 298.446 93.243 298.217Z" fill="#A0D591"/>
<path d="M92.1843 284.105C91.8931 283.831 91.455 283.823 91.2057 284.087C90.9565 284.352 90.9905 284.789 91.2816 285.063C91.5728 285.338 92.0109 285.346 92.2601 285.081C92.5094 284.817 92.4754 284.38 92.1843 284.105Z" fill="#A0D591"/>
<path d="M91.3691 269.776C90.9028 269.337 90.2253 269.324 89.8261 269.748C89.4269 270.171 89.4794 270.847 89.9458 271.286C90.4121 271.726 91.0895 271.738 91.4888 271.315C91.888 270.891 91.8355 270.216 91.3691 269.776Z" fill="#A0D591"/>
<path d="M89.9982 255.996C89.6941 255.709 89.2628 255.72 89.0197 255.978C88.7767 256.236 88.8117 256.686 89.0956 256.954C89.3795 257.221 89.8311 257.23 90.0741 256.972C90.3171 256.714 90.2821 256.264 89.9982 255.996Z" fill="#A0D591"/>
<path d="M88.925 241.943C88.6208 241.657 88.1895 241.667 87.9465 241.925C87.7035 242.183 87.7385 242.633 88.0224 242.901C88.3062 243.169 88.7579 243.177 89.0009 242.919C89.2439 242.661 89.2089 242.211 88.925 241.943Z" fill="#A0D591"/>
<path d="M88.0397 227.688C87.6139 227.287 86.9741 227.275 86.6096 227.662C86.245 228.048 86.2946 228.686 86.7204 229.088C87.1463 229.489 87.7861 229.501 88.1506 229.114C88.5151 228.727 88.4655 228.089 88.0397 227.688Z" fill="#A0D591"/>
<path d="M86.6849 213.891C86.4213 213.642 86.0276 213.654 85.8193 213.875C85.611 214.096 85.6431 214.508 85.8864 214.738C86.1297 214.967 86.5437 214.975 86.752 214.754C86.9603 214.533 86.9282 214.12 86.6849 213.891Z" fill="#A0D591"/>
<path d="M85.5072 199.948C85.3057 199.758 85.0024 199.752 84.8298 199.935C84.6572 200.118 84.6808 200.421 84.8823 200.611C85.0839 200.801 85.3872 200.806 85.5598 200.623C85.7323 200.44 85.7088 200.138 85.5072 199.948Z" fill="#A0D591"/>
<path d="M84.3086 185.983C84.1666 185.849 83.9408 185.845 83.8193 185.974C83.6978 186.103 83.7153 186.328 83.8573 186.462C83.9992 186.596 84.225 186.6 84.3465 186.471C84.468 186.342 84.4505 186.117 84.3086 185.983Z" fill="#A0D591"/>
<path d="M83.3907 171.765C83.1474 171.536 82.771 171.529 82.5627 171.75C82.3544 171.971 82.3836 172.346 82.6269 172.575C82.8702 172.805 83.2466 172.811 83.4549 172.59C83.6632 172.369 83.634 171.994 83.3907 171.765Z" fill="#A0D591"/>
<path d="M81.9666 158.041C81.9666 158.041 81.8504 158.001 81.8156 158.038C81.7808 158.075 81.7868 158.15 81.8275 158.188C81.8682 158.227 81.9437 158.228 81.9785 158.191C82.0133 158.154 82.0073 158.079 81.9666 158.041Z" fill="#A0D591"/>
<path d="M79.7467 130.008C79.7467 130.008 79.726 129.988 79.7088 130.007C79.6916 130.025 79.6917 130.025 79.7124 130.044C79.7331 130.064 79.7331 130.064 79.7503 130.046C79.7675 130.028 79.7675 130.028 79.7467 130.008Z" fill="#A0D591"/>
<path d="M109.138 326.973C109.138 326.973 109.118 326.953 109.1 326.971C109.083 326.99 109.083 326.99 109.104 327.009C109.125 327.029 109.125 327.029 109.142 327.011C109.159 326.992 109.159 326.992 109.138 326.973Z" fill="#A0D591"/>
<path d="M108.153 312.825C108.153 312.825 107.959 312.746 107.889 312.82C107.82 312.893 107.828 313.006 107.91 313.083C107.991 313.159 108.104 313.161 108.173 313.087C108.242 313.014 108.234 312.901 108.153 312.825Z" fill="#A0D591"/>
<path d="M106.035 284.643C105.914 284.528 105.705 284.505 105.584 284.634C105.462 284.763 105.477 284.951 105.619 285.085C105.761 285.218 105.949 285.222 106.07 285.093C106.192 284.964 106.177 284.776 106.035 284.643Z" fill="#A0D591"/>
<path d="M104.959 270.552C104.818 270.418 104.592 270.414 104.47 270.542C104.349 270.671 104.366 270.897 104.508 271.03C104.65 271.164 104.876 271.168 104.997 271.039C105.119 270.91 105.101 270.685 104.959 270.552Z" fill="#A0D591"/>
<path d="M103.885 256.499C103.743 256.365 103.517 256.361 103.396 256.49C103.274 256.619 103.292 256.844 103.434 256.978C103.576 257.111 103.802 257.116 103.923 256.987C104.045 256.858 104.027 256.633 103.885 256.499Z" fill="#A0D591"/>
<path d="M102.773 242.444C102.631 242.31 102.405 242.306 102.284 242.435C102.162 242.564 102.18 242.789 102.322 242.923C102.464 243.057 102.689 243.061 102.811 242.932C102.932 242.803 102.915 242.578 102.773 242.444Z" fill="#A0D591"/>
<path d="M101.664 228.426C101.53 228.299 101.328 228.295 101.213 228.417C101.098 228.54 101.113 228.741 101.248 228.868C101.382 228.994 101.584 228.998 101.699 228.876C101.814 228.754 101.799 228.552 101.664 228.426Z" fill="#A0D591"/>
<path d="M100.505 214.463C100.505 214.463 100.311 214.385 100.241 214.459C100.172 214.532 100.181 214.645 100.262 214.721C100.343 214.798 100.456 214.8 100.525 214.726C100.595 214.652 100.586 214.54 100.505 214.463Z" fill="#A0D591"/>
<path d="M98.213 186.467C98.213 186.467 98.1923 186.447 98.1751 186.466C98.158 186.484 98.158 186.484 98.1787 186.503C98.1995 186.523 98.1995 186.523 98.2166 186.505C98.2338 186.487 98.2338 186.487 98.213 186.467Z" fill="#A0D591"/>
</g>
</svg>
