<svg width="242" height="504" viewBox="0 0 242 504" fill="none" xmlns="http://www.w3.org/2000/svg">
<g style="mix-blend-mode:multiply" opacity="0.5">
<path d="M226.466 38.0584C227.696 38.7442 229.247 38.2646 229.965 36.9762C230.683 35.6879 230.275 34.1166 229.044 33.4308C227.814 32.745 226.263 33.2246 225.545 34.513C224.827 35.8014 225.235 37.3726 226.466 38.0584Z" fill="#A0D591"/>
<path d="M230.42 53.1129C231.625 53.7847 233.176 53.3051 233.88 52.0431C234.583 50.781 234.175 49.2097 232.969 48.5379C231.764 47.8661 230.213 48.3457 229.509 49.6078C228.806 50.8699 229.214 52.4411 230.42 53.1129Z" fill="#A0D591"/>
<path d="M234.099 68.6001C235.531 69.3978 237.36 68.8322 238.195 67.3335C239.03 65.8348 238.549 63.9815 237.117 63.1837C235.686 62.386 233.857 62.9517 233.021 64.4504C232.186 65.9491 232.668 67.8023 234.099 68.6001Z" fill="#A0D591"/>
<path d="M237.744 84.2108C239.426 85.1486 241.614 84.4722 242.595 82.7106C243.577 80.949 243.001 78.7331 241.319 77.7954C239.636 76.8577 237.449 77.534 236.467 79.2956C235.485 81.0573 236.061 83.2731 237.744 84.2108Z" fill="#A0D591"/>
<path d="M241.452 99.6487C243.325 100.692 245.729 99.9489 246.821 97.9885C247.913 96.0282 247.281 93.5931 245.408 92.5496C243.536 91.5061 241.132 92.2493 240.04 94.2097C238.947 96.1701 239.58 98.6052 241.452 99.6487Z" fill="#A0D591"/>
<path d="M208.211 26.5771C208.914 26.969 209.789 26.6985 210.2 25.9623C210.61 25.2261 210.38 24.3397 209.676 23.9478C208.973 23.556 208.098 23.8265 207.688 24.5627C207.278 25.2989 207.508 26.1852 208.211 26.5771Z" fill="#A0D591"/>
<path d="M211.872 42.1566C212.827 42.6885 214.06 42.3072 214.616 41.3081C215.173 40.309 214.849 39.06 213.894 38.5282C212.94 37.9964 211.707 38.3776 211.15 39.3767C210.594 40.3758 210.918 41.6248 211.872 42.1566Z" fill="#A0D591"/>
<path d="M215.536 57.6711C216.716 58.3289 218.227 57.8617 218.916 56.6259C219.605 55.3901 219.207 53.8591 218.027 53.2014C216.846 52.5436 215.335 53.0109 214.646 54.2466C213.958 55.4824 214.355 57.0133 215.536 57.6711Z" fill="#A0D591"/>
<path d="M219.475 72.7551C220.656 73.4129 222.167 72.9456 222.856 71.7099C223.544 70.4741 223.147 68.9431 221.966 68.2853C220.786 67.6275 219.275 68.0948 218.586 69.3306C217.897 70.5664 218.295 72.0973 219.475 72.7551Z" fill="#A0D591"/>
<path d="M223.139 88.2697C224.545 89.0534 226.335 88.5 227.155 87.0276C227.976 85.5552 227.505 83.7422 226.098 82.9585C224.692 82.1747 222.902 82.7281 222.082 84.2005C221.261 85.6729 221.732 87.4859 223.139 88.2697Z" fill="#A0D591"/>
<path d="M226.888 103.692C228.47 104.574 230.523 103.961 231.461 102.278C232.399 100.595 231.865 98.5404 230.258 97.6447C228.65 96.7489 226.622 97.3761 225.684 99.0588C224.747 100.742 225.28 102.796 226.888 103.692Z" fill="#A0D591"/>
<path d="M230.523 119.261C232.356 120.283 234.702 119.558 235.772 117.638C236.841 115.719 236.224 113.342 234.391 112.32C232.557 111.298 230.211 112.024 229.141 113.943C228.072 115.863 228.689 118.24 230.523 119.261Z" fill="#A0D591"/>
<path d="M234.518 134.239C236.302 135.233 238.568 134.532 239.609 132.665C240.649 130.798 240.052 128.502 238.269 127.508C236.486 126.515 234.219 127.216 233.179 129.082C232.139 130.949 232.735 133.246 234.518 134.239Z" fill="#A0D591"/>
<path d="M238.884 149.814C240.937 150.54 243.242 149.399 244.031 147.265C244.82 145.131 243.795 142.813 241.741 142.088C239.688 141.362 237.383 142.503 236.594 144.637C235.805 146.77 236.83 149.088 238.884 149.814Z" fill="#A0D591"/>
<path d="M242.082 164.846C244.094 165.967 246.675 165.168 247.849 163.063C249.022 160.957 248.343 158.342 246.331 157.221C244.32 156.1 241.739 156.898 240.565 159.004C239.392 161.109 240.071 163.725 242.082 164.846Z" fill="#A0D591"/>
<path d="M189.704 15.605C190.131 15.843 190.688 15.6708 190.937 15.2238C191.186 14.7768 191.04 14.2128 190.613 13.9749C190.186 13.737 189.629 13.9091 189.38 14.3561C189.131 14.8031 189.277 15.3671 189.704 15.605Z" fill="#A0D591"/>
<path d="M193.339 31.1728C194.042 31.5647 194.917 31.2942 195.328 30.558C195.738 29.8218 195.508 28.9354 194.804 28.5435C194.101 28.1517 193.226 28.4222 192.816 29.1584C192.406 29.8946 192.636 30.7809 193.339 31.1728Z" fill="#A0D591"/>
<path d="M197.266 46.2154C197.932 46.5865 198.787 46.3222 199.175 45.6252C199.564 44.9282 199.339 44.0623 198.673 43.6913C198.007 43.3203 197.153 43.5846 196.764 44.2816C196.376 44.9786 196.601 45.8444 197.266 46.2154Z" fill="#A0D591"/>
<path d="M200.911 61.8244C201.841 62.3423 203.059 61.9873 203.615 60.9882C204.172 59.9891 203.858 58.7804 202.904 58.2486C201.95 57.7167 200.756 58.0857 200.2 59.0848C199.643 60.0839 199.957 61.2926 200.911 61.8244Z" fill="#A0D591"/>
<path d="M204.562 77.3665C205.743 78.0243 207.254 77.557 207.942 76.3212C208.631 75.0854 208.233 73.5545 207.053 72.8967C205.873 72.2389 204.361 72.7062 203.673 73.9419C202.984 75.1777 203.382 76.7087 204.562 77.3665Z" fill="#A0D591"/>
<path d="M208.557 92.3418C209.688 92.9716 211.119 92.5289 211.779 91.3458C212.438 90.1626 212.061 88.7122 210.931 88.0824C209.801 87.4526 208.369 87.8953 207.71 89.0785C207.051 90.2616 207.427 91.712 208.557 92.3418Z" fill="#A0D591"/>
<path d="M212.209 107.882C213.565 108.638 215.315 108.097 216.106 106.677C216.898 105.257 216.437 103.485 215.081 102.729C213.725 101.973 211.975 102.514 211.184 103.934C210.393 105.354 210.853 107.127 212.209 107.882Z" fill="#A0D591"/>
<path d="M215.956 123.307C217.513 124.174 219.501 123.56 220.41 121.929C221.318 120.299 220.795 118.285 219.238 117.417C217.681 116.549 215.692 117.164 214.784 118.794C213.876 120.425 214.399 122.439 215.956 123.307Z" fill="#A0D591"/>
<path d="M219.709 138.665C221.392 139.603 223.579 138.927 224.561 137.165C225.542 135.404 224.967 133.188 223.284 132.25C221.601 131.312 219.414 131.989 218.432 133.75C217.451 135.512 218.026 137.728 219.709 138.665Z" fill="#A0D591"/>
<path d="M223.765 153.535C225.322 154.403 227.35 153.776 228.258 152.146C229.167 150.516 228.633 148.461 227.076 147.593C225.519 146.725 223.491 147.353 222.582 148.983C221.674 150.613 222.208 152.668 223.765 153.535Z" fill="#A0D591"/>
<path d="M227.444 169.025C229.233 170.022 231.53 169.311 232.574 167.438C233.618 165.565 233.013 163.238 231.224 162.241C229.435 161.244 227.138 161.954 226.094 163.827C225.05 165.701 225.655 168.027 227.444 169.025Z" fill="#A0D591"/>
<path d="M231.226 184.329C233.126 185.388 235.565 184.633 236.674 182.644C237.782 180.655 237.141 178.183 235.24 177.124C233.34 176.065 230.901 176.82 229.792 178.809C228.684 180.799 229.325 183.27 231.226 184.329Z" fill="#A0D591"/>
<path d="M235.325 199.122C237.083 200.101 239.325 199.386 240.336 197.572C241.347 195.758 240.75 193.462 239.017 192.496C237.284 191.53 235.018 192.231 234.007 194.045C232.996 195.86 233.592 198.156 235.325 199.122Z" fill="#A0D591"/>
<path d="M239.033 214.556C240.967 215.634 243.433 214.871 244.561 212.847C245.689 210.822 245.055 208.298 243.121 207.22C241.187 206.143 238.721 206.905 237.579 208.956C236.436 211.007 237.099 213.478 239.033 214.556Z" fill="#A0D591"/>
<path d="M242.899 229.771C244.883 230.877 247.454 230.104 248.626 228.001C249.798 225.897 249.128 223.319 247.119 222.199C245.11 221.079 242.565 221.866 241.393 223.97C240.22 226.073 240.89 228.652 242.899 229.771Z" fill="#A0D591"/>
<path d="M171.156 4.65218C171.331 4.75015 171.57 4.67637 171.672 4.49232C171.775 4.30827 171.712 4.06653 171.536 3.96856C171.361 3.87059 171.122 3.94438 171.019 4.12843C170.917 4.31248 170.98 4.55421 171.156 4.65218Z" fill="#A0D591"/>
<path d="M175.07 19.7191C175.246 19.817 175.485 19.7433 175.587 19.5592C175.69 19.3752 175.627 19.1334 175.451 19.0355C175.275 18.9375 175.037 19.0113 174.934 19.1953C174.832 19.3794 174.895 19.6211 175.07 19.7191Z" fill="#A0D591"/>
<path d="M178.76 35.2473C179.162 35.4714 179.678 35.3118 179.913 34.8907C180.148 34.4695 180.012 33.9464 179.61 33.7223C179.207 33.4981 178.691 33.6578 178.456 34.0789C178.222 34.5 178.358 35.0231 178.76 35.2473Z" fill="#A0D591"/>
<path d="M182.392 50.8151C183.058 51.1861 183.913 50.9218 184.301 50.2248C184.69 49.5278 184.465 48.662 183.799 48.2909C183.133 47.9199 182.279 48.1842 181.89 48.8812C181.502 49.5782 181.727 50.444 182.392 50.8151Z" fill="#A0D591"/>
<path d="M186.307 65.8832C186.959 66.2465 187.796 65.9878 188.176 65.3053C188.556 64.6228 188.336 63.775 187.684 63.4117C187.032 63.0484 186.195 63.3072 185.815 63.9897C185.435 64.6722 185.655 65.5199 186.307 65.8832Z" fill="#A0D591"/>
<path d="M190.026 81.3605C190.88 81.8363 191.994 81.492 192.492 80.598C192.99 79.7041 192.697 78.576 191.843 78.1002C190.989 77.6243 189.876 77.9686 189.377 78.8626C188.879 79.7565 189.172 80.8846 190.026 81.3605Z" fill="#A0D591"/>
<path d="M193.661 96.9283C194.791 97.5581 196.222 97.1154 196.882 95.9322C197.541 94.749 197.164 93.2986 196.034 92.6688C194.904 92.039 193.472 92.4817 192.813 93.6649C192.154 94.8481 192.53 96.2984 193.661 96.9283Z" fill="#A0D591"/>
<path d="M197.672 111.878C198.702 112.452 200.054 112.034 200.655 110.956C201.255 109.878 200.899 108.508 199.87 107.934C198.84 107.361 197.488 107.779 196.887 108.857C196.286 109.935 196.642 111.305 197.672 111.878Z" fill="#A0D591"/>
<path d="M201.409 127.261C202.615 127.933 204.166 127.454 204.869 126.191C205.572 124.929 205.164 123.358 203.959 122.686C202.753 122.015 201.202 122.494 200.499 123.756C199.796 125.018 200.204 126.59 201.409 127.261Z" fill="#A0D591"/>
<path d="M205.174 142.658C206.53 143.414 208.28 142.872 209.071 141.453C209.862 140.033 209.402 138.26 208.046 137.504C206.689 136.749 204.94 137.29 204.148 138.71C203.357 140.129 203.818 141.902 205.174 142.658Z" fill="#A0D591"/>
<path d="M208.867 158.119C210.434 158.993 212.446 158.371 213.361 156.73C214.275 155.089 213.746 153.051 212.178 152.177C210.611 151.304 208.599 151.926 207.684 153.567C206.77 155.208 207.299 157.246 208.867 158.119Z" fill="#A0D591"/>
<path d="M212.905 173.021C214.362 173.832 216.256 173.268 217.12 171.717C217.985 170.166 217.493 168.272 216.011 167.446C214.529 166.621 212.66 167.199 211.796 168.75C210.931 170.301 211.423 172.195 212.905 173.021Z" fill="#A0D591"/>
<path d="M216.719 188.27C218.272 189.135 220.266 188.519 221.173 186.892C222.079 185.266 221.554 183.246 220.001 182.38C218.447 181.514 216.453 182.131 215.547 183.757C214.64 185.384 215.165 187.404 216.719 188.27Z" fill="#A0D591"/>
<path d="M220.412 203.735C222.17 204.714 224.412 203.999 225.423 202.185C226.434 200.371 225.837 198.074 224.104 197.109C222.372 196.143 220.105 196.844 219.094 198.658C218.083 200.472 218.679 202.769 220.412 203.735Z" fill="#A0D591"/>
<path d="M224.497 218.554C226.105 219.449 228.173 218.81 229.11 217.127C230.048 215.444 229.504 213.349 227.897 212.454C226.289 211.558 224.221 212.197 223.284 213.88C222.346 215.563 222.89 217.658 224.497 218.554Z" fill="#A0D591"/>
<path d="M228.367 233.701C230.018 234.62 232.136 233.965 233.099 232.237C234.062 230.509 233.505 228.363 231.854 227.443C230.204 226.523 228.085 227.178 227.122 228.906C226.159 230.634 226.716 232.781 228.367 233.701Z" fill="#A0D591"/>
<path d="M232.13 249.095C233.939 250.103 236.285 249.377 237.34 247.484C238.395 245.591 237.777 243.214 235.969 242.206C234.161 241.199 231.814 241.924 230.76 243.817C229.705 245.711 230.322 248.088 232.13 249.095Z" fill="#A0D591"/>
<path d="M236.058 264.136C237.847 265.133 240.144 264.423 241.188 262.55C242.232 260.676 241.627 258.349 239.838 257.352C238.049 256.355 235.752 257.065 234.708 258.939C233.664 260.812 234.268 263.139 236.058 264.136Z" fill="#A0D591"/>
<path d="M240.201 278.85C241.783 279.732 243.836 279.119 244.774 277.436C245.712 275.753 245.178 273.699 243.571 272.803C241.963 271.907 239.935 272.534 238.997 274.217C238.06 275.9 238.593 277.955 240.201 278.85Z" fill="#A0D591"/>
<path d="M244.143 293.865C245.697 294.731 247.691 294.114 248.597 292.488C249.504 290.862 248.979 288.841 247.425 287.976C245.872 287.11 243.878 287.727 242.972 289.353C242.065 290.979 242.59 293 244.143 293.865Z" fill="#A0D591"/>
<path d="M160.211 24.2931C160.361 24.3771 160.585 24.3296 160.688 24.1456C160.79 23.9615 160.738 23.7601 160.562 23.6621C160.387 23.5641 160.188 23.6256 160.085 23.8097C159.983 23.9937 160.035 24.1952 160.211 24.2931Z" fill="#A0D591"/>
<path d="M164.109 39.3869C164.26 39.4709 164.484 39.4234 164.586 39.2393C164.689 39.0553 164.637 38.8538 164.461 38.7558C164.285 38.6579 164.086 38.7194 163.984 38.9034C163.881 39.0875 163.933 39.2889 164.109 39.3869Z" fill="#A0D591"/>
<path d="M167.786 54.9406C168.188 55.1648 168.704 55.0051 168.939 54.584C169.173 54.1629 169.038 53.6398 168.635 53.4156C168.233 53.1915 167.717 53.3511 167.482 53.7723C167.247 54.1934 167.383 54.7165 167.786 54.9406Z" fill="#A0D591"/>
<path d="M171.493 70.3786C172.095 70.7145 172.851 70.4809 173.203 69.8499C173.554 69.2188 173.355 68.4533 172.753 68.1174C172.15 67.7815 171.394 68.0152 171.043 68.6462C170.691 69.2773 170.89 70.0427 171.493 70.3786Z" fill="#A0D591"/>
<path d="M175.406 85.4426C176.009 85.7785 176.764 85.5448 177.116 84.9138C177.467 84.2828 177.269 83.5173 176.666 83.1814C176.063 82.8455 175.308 83.0792 174.956 83.7102C174.604 84.3412 174.803 85.1067 175.406 85.4426Z" fill="#A0D591"/>
<path d="M179.094 100.977C179.898 101.425 180.957 101.119 181.441 100.252C181.924 99.3839 181.652 98.3364 180.823 97.8746C179.995 97.4127 178.961 97.7324 178.477 98.6001C177.994 99.4678 178.266 100.515 179.094 100.977Z" fill="#A0D591"/>
<path d="M182.861 116.305C183.816 116.836 185.048 116.455 185.605 115.456C186.162 114.457 185.837 113.208 184.883 112.676C183.929 112.144 182.696 112.526 182.139 113.525C181.582 114.524 181.907 115.773 182.861 116.305Z" fill="#A0D591"/>
<path d="M186.875 131.253C187.754 131.743 188.868 131.399 189.38 130.479C189.893 129.558 189.6 128.43 188.721 127.94C187.842 127.45 186.729 127.795 186.216 128.715C185.703 129.635 185.996 130.763 186.875 131.253Z" fill="#A0D591"/>
<path d="M190.524 146.799C191.647 147.425 193.089 146.98 193.745 145.803C194.4 144.627 194.021 143.166 192.897 142.54C191.774 141.914 190.332 142.36 189.676 143.536C189.021 144.712 189.4 146.173 190.524 146.799Z" fill="#A0D591"/>
<path d="M194.346 162.09C195.577 162.775 197.128 162.296 197.846 161.007C198.563 159.719 198.155 158.148 196.925 157.462C195.694 156.776 194.143 157.256 193.425 158.544C192.707 159.833 193.115 161.404 194.346 162.09Z" fill="#A0D591"/>
<path d="M198.112 177.421C199.471 178.179 201.216 177.639 202.009 176.216C202.802 174.793 202.343 173.026 200.984 172.268C199.624 171.511 197.879 172.05 197.086 173.473C196.293 174.896 196.752 176.664 198.112 177.421Z" fill="#A0D591"/>
<path d="M202.036 192.529C203.392 193.285 205.142 192.744 205.933 191.324C206.724 189.904 206.264 188.131 204.908 187.375C203.552 186.62 201.802 187.161 201.011 188.581C200.219 190 200.68 191.773 202.036 192.529Z" fill="#A0D591"/>
<path d="M205.904 207.678C207.31 208.462 209.1 207.908 209.92 206.436C210.741 204.963 210.27 203.15 208.864 202.367C207.457 201.583 205.668 202.136 204.847 203.609C204.027 205.081 204.497 206.894 205.904 207.678Z" fill="#A0D591"/>
<path d="M209.746 222.874C211.202 223.686 213.097 223.122 213.961 221.571C214.826 220.019 214.334 218.126 212.852 217.3C211.37 216.474 209.501 217.052 208.637 218.603C207.772 220.155 208.264 222.048 209.746 222.874Z" fill="#A0D591"/>
<path d="M213.671 237.983C215.128 238.795 217.022 238.231 217.886 236.68C218.751 235.129 218.259 233.235 216.777 232.409C215.295 231.584 213.426 232.162 212.562 233.713C211.697 235.264 212.189 237.158 213.671 237.983Z" fill="#A0D591"/>
<path d="M217.584 253.05C219.04 253.862 220.935 253.298 221.799 251.746C222.663 250.195 222.172 248.301 220.69 247.476C219.208 246.65 217.339 247.228 216.474 248.779C215.61 250.331 216.102 252.224 217.584 253.05Z" fill="#A0D591"/>
<path d="M221.521 268.132C222.977 268.944 224.872 268.38 225.736 266.828C226.6 265.277 226.109 263.384 224.627 262.558C223.145 261.732 221.276 262.31 220.412 263.861C219.547 265.413 220.039 267.306 221.521 268.132Z" fill="#A0D591"/>
<path d="M225.493 283.095C226.894 283.876 228.693 283.32 229.51 281.853C230.327 280.387 229.854 278.565 228.453 277.784C227.052 277.003 225.254 277.56 224.437 279.026C223.619 280.493 224.093 282.315 225.493 283.095Z" fill="#A0D591"/>
<path d="M229.417 298.203C230.818 298.984 232.616 298.428 233.433 296.961C234.25 295.495 233.777 293.673 232.376 292.892C230.975 292.111 229.177 292.667 228.36 294.134C227.542 295.601 228.016 297.423 229.417 298.203Z" fill="#A0D591"/>
<path d="M233.417 313.11C234.748 313.852 236.433 313.309 237.195 311.942C237.957 310.575 237.507 308.843 236.201 308.115C234.895 307.387 233.185 307.916 232.423 309.283C231.661 310.65 232.111 312.383 233.417 313.11Z" fill="#A0D591"/>
<path d="M237.419 328.023C238.65 328.709 240.201 328.229 240.919 326.941C241.636 325.653 241.228 324.081 239.998 323.396C238.767 322.71 237.216 323.189 236.498 324.478C235.78 325.766 236.188 327.337 237.419 328.023Z" fill="#A0D591"/>
<path d="M241.358 343.101C242.589 343.787 244.14 343.308 244.858 342.019C245.576 340.731 245.168 339.16 243.937 338.474C242.706 337.788 241.155 338.268 240.437 339.556C239.719 340.844 240.128 342.416 241.358 343.101Z" fill="#A0D591"/>
<path d="M149.25 43.9583C149.401 44.0423 149.575 43.9668 149.648 43.8353C149.721 43.7039 149.669 43.5024 149.543 43.4324C149.418 43.3625 149.219 43.424 149.146 43.5554C149.072 43.6869 149.125 43.8883 149.25 43.9583Z" fill="#A0D591"/>
<path d="M153.223 58.9237C153.223 58.9237 153.419 58.9291 153.463 58.8501C153.507 58.7712 153.475 58.65 153.399 58.6078C153.324 58.5656 153.204 58.6024 153.16 58.6814C153.116 58.7603 153.148 58.8815 153.223 58.9237Z" fill="#A0D591"/>
<path d="M156.883 74.5024C157.235 74.6984 157.672 74.5631 157.878 74.195C158.083 73.8269 157.968 73.3837 157.616 73.1878C157.264 72.9918 156.827 73.1271 156.622 73.4952C156.417 73.8633 156.532 74.3065 156.883 74.5024Z" fill="#A0D591"/>
<path d="M160.592 89.9402C161.119 90.2342 161.795 90.0251 162.103 89.473C162.41 88.9208 162.233 88.2359 161.705 87.942C161.178 87.6481 160.502 87.8571 160.194 88.4093C159.886 88.9614 160.064 89.6463 160.592 89.9402Z" fill="#A0D591"/>
<path d="M164.578 104.877C165.03 105.129 165.587 104.956 165.851 104.483C166.114 104.01 165.968 103.446 165.516 103.194C165.064 102.942 164.507 103.114 164.243 103.587C163.98 104.061 164.126 104.625 164.578 104.877Z" fill="#A0D591"/>
<path d="M168.342 120.275C168.952 120.615 169.736 120.373 170.092 119.734C170.448 119.095 170.242 118.302 169.631 117.962C169.021 117.621 168.237 117.864 167.881 118.503C167.525 119.142 167.732 119.935 168.342 120.275Z" fill="#A0D591"/>
<path d="M171.976 135.839C172.85 136.326 173.972 135.979 174.481 135.064C174.991 134.15 174.696 133.013 173.822 132.526C172.948 132.039 171.827 132.386 171.317 133.301C170.807 134.216 171.102 135.352 171.976 135.839Z" fill="#A0D591"/>
<path d="M176.016 150.74C176.795 151.174 177.789 150.867 178.243 150.052C178.697 149.237 178.436 148.229 177.657 147.795C176.879 147.362 175.884 147.669 175.43 148.484C174.976 149.299 175.238 150.306 176.016 150.74Z" fill="#A0D591"/>
<path d="M179.813 166.019C180.687 166.506 181.809 166.159 182.318 165.244C182.828 164.329 182.533 163.193 181.659 162.706C180.785 162.219 179.664 162.566 179.154 163.481C178.644 164.396 178.939 165.532 179.813 166.019Z" fill="#A0D591"/>
<path d="M183.489 181.571C184.612 182.197 186.054 181.751 186.71 180.575C187.365 179.399 186.986 177.937 185.862 177.311C184.739 176.685 183.297 177.131 182.641 178.307C181.986 179.484 182.365 180.945 183.489 181.571Z" fill="#A0D591"/>
<path d="M187.299 196.826C188.504 197.498 190.055 197.018 190.759 195.756C191.462 194.494 191.054 192.923 189.848 192.251C188.643 191.579 187.092 192.059 186.389 193.321C185.685 194.583 186.093 196.154 187.299 196.826Z" fill="#A0D591"/>
<path d="M191.412 211.591C192.441 212.165 193.794 211.747 194.394 210.669C194.995 209.591 194.639 208.221 193.609 207.647C192.58 207.074 191.228 207.492 190.627 208.57C190.026 209.648 190.382 211.017 191.412 211.591Z" fill="#A0D591"/>
<path d="M195.077 227.106C196.333 227.806 197.964 227.301 198.696 225.987C199.429 224.672 199 223.02 197.744 222.32C196.488 221.621 194.858 222.125 194.125 223.44C193.393 224.754 193.822 226.406 195.077 227.106Z" fill="#A0D591"/>
<path d="M198.963 242.227C200.253 242.946 201.909 242.434 202.661 241.084C203.414 239.733 202.978 238.056 201.688 237.337C200.398 236.618 198.742 237.13 197.99 238.48C197.237 239.831 197.673 241.508 198.963 242.227Z" fill="#A0D591"/>
<path d="M203.077 256.995C204.207 257.624 205.638 257.182 206.298 255.999C206.957 254.815 206.58 253.365 205.45 252.735C204.32 252.105 202.888 252.548 202.229 253.731C201.57 254.914 201.946 256.365 203.077 256.995Z" fill="#A0D591"/>
<path d="M207.005 272.035C208.11 272.651 209.516 272.194 210.146 271.064C210.776 269.933 210.425 268.497 209.32 267.881C208.215 267.265 206.823 267.696 206.178 268.853C205.534 270.009 205.9 271.42 207.005 272.035Z" fill="#A0D591"/>
<path d="M210.753 287.457C212.016 288.161 213.636 287.66 214.372 286.338C215.109 285.017 214.682 283.375 213.42 282.672C212.158 281.969 210.538 282.47 209.801 283.791C209.065 285.113 209.491 286.754 210.753 287.457Z" fill="#A0D591"/>
<path d="M214.754 302.365C215.934 303.022 217.445 302.555 218.134 301.319C218.822 300.084 218.425 298.553 217.244 297.895C216.064 297.237 214.553 297.704 213.864 298.94C213.176 300.176 213.573 301.707 214.754 302.365Z" fill="#A0D591"/>
<path d="M218.882 317.108C219.886 317.668 221.159 317.275 221.745 316.223C222.331 315.171 221.996 313.882 220.992 313.322C219.987 312.762 218.714 313.156 218.128 314.208C217.542 315.259 217.877 316.548 218.882 317.108Z" fill="#A0D591"/>
<path d="M222.649 332.438C223.772 333.064 225.215 332.618 225.87 331.442C226.525 330.266 226.146 328.805 225.022 328.179C223.899 327.552 222.457 327.998 221.801 329.175C221.146 330.351 221.525 331.812 222.649 332.438Z" fill="#A0D591"/>
<path d="M226.695 347.268C227.699 347.828 228.972 347.434 229.558 346.383C230.144 345.331 229.809 344.042 228.805 343.482C227.8 342.922 226.527 343.315 225.941 344.367C225.355 345.419 225.69 346.708 226.695 347.268Z" fill="#A0D591"/>
<path d="M230.853 361.959C231.632 362.393 232.626 362.085 233.08 361.27C233.534 360.455 233.273 359.448 232.494 359.014C231.716 358.58 230.721 358.888 230.267 359.703C229.813 360.518 230.075 361.525 230.853 361.959Z" fill="#A0D591"/>
<path d="M234.955 376.683C235.558 377.019 236.313 376.786 236.665 376.155C237.017 375.524 236.818 374.758 236.215 374.422C235.612 374.086 234.857 374.32 234.505 374.951C234.153 375.582 234.352 376.347 234.955 376.683Z" fill="#A0D591"/>
<path d="M238.778 391.974C239.481 392.365 240.356 392.095 240.766 391.359C241.176 390.623 240.946 389.736 240.243 389.344C239.54 388.952 238.665 389.223 238.254 389.959C237.844 390.695 238.074 391.582 238.778 391.974Z" fill="#A0D591"/>
<path d="M138.35 63.5194C138.35 63.5194 138.546 63.5248 138.59 63.4458C138.634 63.3669 138.602 63.2457 138.526 63.2035C138.45 63.1613 138.331 63.1981 138.287 63.2771C138.243 63.356 138.274 63.4772 138.35 63.5194Z" fill="#A0D591"/>
<path d="M142.323 78.4823C142.323 78.4823 142.349 78.4967 142.363 78.4707C142.378 78.4447 142.378 78.4447 142.352 78.4303C142.326 78.416 142.326 78.416 142.312 78.442C142.297 78.468 142.297 78.468 142.323 78.4823Z" fill="#A0D591"/>
<path d="M146.04 93.9637C146.266 94.0897 146.544 94.0036 146.676 93.767C146.808 93.5303 146.735 93.2483 146.509 93.1224C146.282 92.9964 146.004 93.0825 145.872 93.3191C145.74 93.5558 145.814 93.8378 146.04 93.9637Z" fill="#A0D591"/>
<path d="M149.748 109.398C150.15 109.622 150.667 109.462 150.901 109.041C151.136 108.62 151 108.097 150.598 107.873C150.195 107.649 149.679 107.808 149.444 108.229C149.21 108.65 149.346 109.174 149.748 109.398Z" fill="#A0D591"/>
<path d="M153.647 124.491C154.049 124.715 154.566 124.555 154.801 124.135C155.035 123.714 154.899 123.19 154.497 122.966C154.095 122.742 153.578 122.902 153.344 123.323C153.109 123.744 153.245 124.267 153.647 124.491Z" fill="#A0D591"/>
<path d="M157.455 139.807C157.982 140.101 158.659 139.892 158.966 139.34C159.274 138.788 159.095 138.103 158.568 137.809C158.041 137.515 157.365 137.725 157.057 138.276C156.75 138.828 156.928 139.514 157.455 139.807Z" fill="#A0D591"/>
<path d="M161.221 155.137C161.899 155.515 162.749 155.231 163.13 154.547C163.511 153.863 163.281 152.977 162.628 152.613C161.975 152.249 161.1 152.52 160.719 153.203C160.338 153.887 160.568 154.773 161.221 155.137Z" fill="#A0D591"/>
<path d="M165.146 170.247C165.824 170.625 166.674 170.34 167.055 169.656C167.436 168.973 167.205 168.086 166.552 167.723C165.899 167.359 165.025 167.629 164.644 168.313C164.263 168.996 164.493 169.883 165.146 170.247Z" fill="#A0D591"/>
<path d="M168.942 185.527C169.721 185.961 170.715 185.654 171.169 184.839C171.623 184.024 171.362 183.016 170.583 182.583C169.804 182.149 168.81 182.456 168.356 183.271C167.902 184.086 168.163 185.094 168.942 185.527Z" fill="#A0D591"/>
<path d="M172.807 200.739C173.636 201.201 174.71 200.869 175.193 200.001C175.677 199.134 175.394 198.046 174.565 197.584C173.736 197.122 172.663 197.454 172.179 198.322C171.696 199.189 171.978 200.277 172.807 200.739Z" fill="#A0D591"/>
<path d="M176.5 216.201C177.54 216.78 178.876 216.367 179.483 215.278C180.09 214.189 179.738 212.836 178.698 212.257C177.658 211.677 176.322 212.09 175.715 213.179C175.108 214.268 175.46 215.621 176.5 216.201Z" fill="#A0D591"/>
<path d="M180.573 231.045C181.477 231.549 182.67 231.18 183.198 230.233C183.725 229.287 183.411 228.078 182.507 227.574C181.603 227.07 180.41 227.439 179.882 228.386C179.355 229.332 179.669 230.541 180.573 231.045Z" fill="#A0D591"/>
<path d="M184.455 246.168C185.384 246.686 186.602 246.331 187.159 245.332C187.716 244.333 187.402 243.124 186.447 242.592C185.493 242.06 184.3 242.429 183.743 243.429C183.186 244.428 183.5 245.636 184.455 246.168Z" fill="#A0D591"/>
<path d="M188.354 261.264C189.283 261.782 190.502 261.427 191.058 260.428C191.615 259.429 191.301 258.22 190.347 257.688C189.392 257.156 188.199 257.525 187.643 258.524C187.086 259.523 187.4 260.732 188.354 261.264Z" fill="#A0D591"/>
<path d="M192.294 276.34C193.223 276.858 194.441 276.503 194.998 275.504C195.555 274.505 195.241 273.296 194.286 272.764C193.332 272.232 192.139 272.601 191.582 273.6C191.025 274.6 191.339 275.808 192.294 276.34Z" fill="#A0D591"/>
<path d="M196.264 291.309C197.138 291.796 198.259 291.449 198.769 290.535C199.279 289.62 198.984 288.483 198.11 287.996C197.236 287.51 196.114 287.856 195.605 288.771C195.095 289.686 195.39 290.822 196.264 291.309Z" fill="#A0D591"/>
<path d="M200.233 306.335C201.062 306.797 202.135 306.465 202.619 305.597C203.102 304.729 202.82 303.641 201.991 303.18C201.162 302.718 200.089 303.05 199.605 303.917C199.121 304.785 199.404 305.873 200.233 306.335Z" fill="#A0D591"/>
<path d="M203.97 321.718C204.968 322.274 206.25 321.878 206.833 320.832C207.416 319.787 207.078 318.488 206.08 317.932C205.081 317.375 203.799 317.771 203.216 318.817C202.634 319.862 202.971 321.161 203.97 321.718Z" fill="#A0D591"/>
<path d="M208.157 336.355C208.91 336.775 209.865 336.48 210.304 335.691C210.744 334.902 210.493 333.935 209.739 333.516C208.986 333.096 208.031 333.391 207.592 334.18C207.152 334.968 207.403 335.935 208.157 336.355Z" fill="#A0D591"/>
<path d="M212.173 351.235C212.826 351.599 213.661 351.34 214.042 350.657C214.423 349.973 214.203 349.127 213.55 348.763C212.897 348.399 212.062 348.658 211.681 349.341C211.3 350.025 211.52 350.871 212.173 351.235Z" fill="#A0D591"/>
<path d="M216.233 366.042C216.747 366.328 217.405 366.124 217.705 365.587C218.004 365.049 217.831 364.382 217.318 364.096C216.804 363.81 216.146 364.014 215.846 364.551C215.547 365.088 215.72 365.756 216.233 366.042Z" fill="#A0D591"/>
<path d="M220.171 381.128C220.674 381.407 221.335 381.225 221.643 380.673C221.951 380.12 221.783 379.476 221.256 379.182C220.728 378.888 220.092 379.085 219.784 379.637C219.477 380.189 219.644 380.834 220.171 381.128Z" fill="#A0D591"/>
<path d="M224.232 395.93C224.608 396.14 225.06 395.979 225.266 395.611C225.471 395.243 225.345 394.759 224.994 394.563C224.642 394.367 224.165 394.515 223.96 394.883C223.754 395.251 223.88 395.734 224.232 395.93Z" fill="#A0D591"/>
<path d="M228.301 410.774C228.527 410.9 228.805 410.814 228.937 410.578C229.069 410.341 228.996 410.059 228.77 409.933C228.544 409.807 228.265 409.893 228.133 410.13C228.002 410.366 228.075 410.648 228.301 410.774Z" fill="#A0D591"/>
<path d="M232.215 425.845C232.441 425.971 232.719 425.884 232.851 425.648C232.983 425.411 232.909 425.129 232.683 425.003C232.457 424.877 232.179 424.963 232.047 425.2C231.915 425.437 231.988 425.719 232.215 425.845Z" fill="#A0D591"/>
<path d="M236.374 440.527C236.389 440.535 236.407 440.53 236.415 440.516C236.423 440.501 236.418 440.483 236.403 440.475C236.389 440.467 236.371 440.473 236.363 440.487C236.355 440.501 236.36 440.519 236.374 440.527Z" fill="#A0D591"/>
<path d="M135.154 113.496C135.293 113.573 135.471 113.518 135.552 113.373C135.633 113.228 135.586 113.047 135.447 112.97C135.308 112.893 135.13 112.948 135.05 113.093C134.969 113.238 135.015 113.419 135.154 113.496Z" fill="#A0D591"/>
<path d="M138.878 128.906C139.183 129.076 139.575 128.955 139.753 128.636C139.931 128.316 139.828 127.919 139.523 127.749C139.218 127.579 138.826 127.7 138.648 128.02C138.47 128.339 138.573 128.736 138.878 128.906Z" fill="#A0D591"/>
<path d="M142.879 143.813C143.101 143.937 143.386 143.849 143.515 143.617C143.645 143.384 143.57 143.096 143.348 142.972C143.126 142.848 142.841 142.936 142.712 143.169C142.582 143.401 142.657 143.69 142.879 143.813Z" fill="#A0D591"/>
<path d="M146.598 159.289C147.025 159.527 147.582 159.354 147.831 158.907C148.08 158.46 147.934 157.896 147.507 157.658C147.08 157.421 146.523 157.593 146.274 158.04C146.025 158.487 146.171 159.051 146.598 159.289Z" fill="#A0D591"/>
<path d="M150.393 174.571C150.921 174.865 151.597 174.656 151.904 174.104C152.212 173.552 152.034 172.867 151.507 172.573C150.979 172.279 150.303 172.488 149.996 173.04C149.688 173.592 149.866 174.277 150.393 174.571Z" fill="#A0D591"/>
<path d="M154.449 189.442C154.85 189.666 155.367 189.506 155.602 189.085C155.836 188.665 155.7 188.141 155.298 187.917C154.897 187.693 154.38 187.853 154.145 188.274C153.911 188.694 154.047 189.218 154.449 189.442Z" fill="#A0D591"/>
<path d="M158.144 204.902C158.746 205.238 159.542 204.992 159.893 204.361C160.245 203.73 160.036 202.924 159.433 202.588C158.83 202.253 158.035 202.499 157.683 203.13C157.332 203.761 157.541 204.566 158.144 204.902Z" fill="#A0D591"/>
<path d="M161.996 220.144C162.699 220.535 163.574 220.265 163.984 219.529C164.394 218.792 164.164 217.906 163.461 217.514C162.758 217.122 161.883 217.393 161.472 218.129C161.062 218.865 161.292 219.752 161.996 220.144Z" fill="#A0D591"/>
<path d="M165.849 235.318C166.577 235.724 167.532 235.429 167.957 234.666C168.382 233.904 168.131 232.937 167.402 232.531C166.674 232.125 165.719 232.42 165.294 233.183C164.87 233.945 165.121 234.912 165.849 235.318Z" fill="#A0D591"/>
<path d="M169.964 250.081C170.541 250.403 171.257 250.182 171.594 249.577C171.931 248.972 171.743 248.247 171.165 247.925C170.588 247.603 169.872 247.825 169.535 248.43C169.198 249.034 169.386 249.759 169.964 250.081Z" fill="#A0D591"/>
<path d="M173.672 265.517C174.421 265.935 175.382 265.637 175.819 264.853C176.256 264.069 176.003 263.095 175.254 262.678C174.505 262.26 173.544 262.558 173.107 263.342C172.67 264.126 172.923 265.1 173.672 265.517Z" fill="#A0D591"/>
<path d="M177.601 280.562C178.329 280.968 179.284 280.673 179.709 279.91C180.134 279.148 179.882 278.181 179.154 277.775C178.426 277.369 177.471 277.664 177.046 278.427C176.622 279.189 176.873 280.156 177.601 280.562Z" fill="#A0D591"/>
<path d="M181.743 295.274C182.271 295.568 182.947 295.359 183.255 294.807C183.562 294.255 183.384 293.57 182.857 293.276C182.33 292.982 181.653 293.191 181.346 293.743C181.038 294.295 181.216 294.98 181.743 295.274Z" fill="#A0D591"/>
<path d="M185.51 310.604C186.188 310.982 187.038 310.697 187.419 310.014C187.8 309.33 187.57 308.444 186.917 308.08C186.264 307.716 185.389 307.987 185.008 308.67C184.627 309.354 184.857 310.24 185.51 310.604Z" fill="#A0D591"/>
<path d="M189.507 325.584C190.118 325.924 190.901 325.682 191.257 325.043C191.613 324.404 191.407 323.61 190.797 323.27C190.186 322.93 189.403 323.172 189.047 323.811C188.691 324.45 188.897 325.244 189.507 325.584Z" fill="#A0D591"/>
<path d="M193.493 340.518C194.02 340.812 194.697 340.603 195.004 340.051C195.312 339.499 195.134 338.814 194.606 338.52C194.079 338.226 193.403 338.436 193.095 338.987C192.788 339.539 192.966 340.225 193.493 340.518Z" fill="#A0D591"/>
<path d="M197.666 355.178C197.968 355.346 198.365 355.223 198.541 354.907C198.717 354.592 198.612 354.189 198.311 354.021C198.01 353.853 197.612 353.976 197.436 354.291C197.26 354.607 197.365 355.01 197.666 355.178Z" fill="#A0D591"/>
<path d="M201.462 370.456C201.865 370.68 202.381 370.521 202.616 370.1C202.85 369.679 202.714 369.155 202.312 368.931C201.91 368.707 201.394 368.867 201.159 369.288C200.924 369.709 201.06 370.232 201.462 370.456Z" fill="#A0D591"/>
<path d="M205.522 385.261C205.786 385.408 206.124 385.303 206.278 385.028C206.432 384.752 206.343 384.409 206.079 384.262C205.815 384.115 205.477 384.22 205.323 384.496C205.17 384.772 205.259 385.114 205.522 385.261Z" fill="#A0D591"/>
<path d="M209.709 399.898C209.709 399.898 209.735 399.913 209.749 399.887C209.764 399.861 209.764 399.861 209.738 399.846C209.712 399.832 209.712 399.832 209.698 399.858C209.683 399.884 209.683 399.884 209.709 399.898Z" fill="#A0D591"/>
<path d="M213.536 415.121C213.536 415.121 213.756 415.141 213.815 415.035C213.874 414.93 213.842 414.809 213.742 414.753C213.641 414.696 213.521 414.733 213.462 414.839C213.404 414.944 213.435 415.065 213.536 415.121Z" fill="#A0D591"/>
<path d="M127.993 148.44C128.219 148.566 128.497 148.48 128.629 148.244C128.761 148.007 128.688 147.725 128.462 147.599C128.236 147.473 127.957 147.559 127.825 147.796C127.694 148.032 127.767 148.314 127.993 148.44Z" fill="#A0D591"/>
<path d="M132.053 163.246C132.053 163.246 132.248 163.251 132.292 163.172C132.336 163.093 132.304 162.972 132.229 162.93C132.153 162.888 132.033 162.925 131.989 163.004C131.945 163.083 131.977 163.204 132.053 163.246Z" fill="#A0D591"/>
<path d="M135.872 178.541C136.048 178.639 136.286 178.566 136.389 178.381C136.492 178.197 136.429 177.956 136.253 177.858C136.077 177.76 135.839 177.834 135.736 178.018C135.633 178.202 135.696 178.443 135.872 178.541Z" fill="#A0D591"/>
<path d="M139.551 194.029C139.952 194.252 140.469 194.093 140.704 193.672C140.938 193.251 140.802 192.727 140.4 192.504C139.999 192.28 139.482 192.439 139.247 192.86C139.013 193.281 139.149 193.805 139.551 194.029Z" fill="#A0D591"/>
<path d="M143.636 208.843C143.913 208.997 144.246 208.872 144.392 208.61C144.539 208.347 144.444 207.984 144.193 207.844C143.942 207.704 143.584 207.815 143.438 208.078C143.291 208.341 143.385 208.703 143.636 208.843Z" fill="#A0D591"/>
<path d="M147.477 224.045C147.804 224.227 148.216 224.078 148.392 223.762C148.568 223.447 148.453 223.004 148.151 222.836C147.85 222.668 147.412 222.803 147.236 223.118C147.061 223.434 147.176 223.877 147.477 224.045Z" fill="#A0D591"/>
<path d="M151.371 239.205C151.731 239.406 152.194 239.263 152.405 238.886C152.615 238.508 152.493 238.039 152.132 237.838C151.772 237.637 151.309 237.78 151.099 238.158C150.888 238.535 151.01 239.004 151.371 239.205Z" fill="#A0D591"/>
<path d="M155.051 254.694C155.629 255.016 156.345 254.795 156.682 254.19C157.019 253.585 156.831 252.86 156.253 252.538C155.675 252.216 154.959 252.438 154.622 253.042C154.285 253.647 154.474 254.372 155.051 254.694Z" fill="#A0D591"/>
<path d="M159.209 269.383C159.585 269.593 160.038 269.432 160.243 269.064C160.448 268.696 160.322 268.212 159.971 268.016C159.619 267.82 159.142 267.968 158.937 268.336C158.732 268.704 158.857 269.188 159.209 269.383Z" fill="#A0D591"/>
<path d="M163.107 284.477C163.483 284.687 163.935 284.526 164.141 284.157C164.346 283.789 164.22 283.306 163.869 283.11C163.517 282.914 163.04 283.062 162.835 283.43C162.629 283.798 162.755 284.281 163.107 284.477Z" fill="#A0D591"/>
<path d="M166.845 299.858C167.373 300.152 168.049 299.943 168.357 299.391C168.664 298.839 168.486 298.154 167.959 297.86C167.432 297.566 166.756 297.775 166.448 298.327C166.14 298.879 166.318 299.564 166.845 299.858Z" fill="#A0D591"/>
<path d="M170.989 314.572C171.316 314.754 171.728 314.605 171.904 314.29C172.08 313.974 171.965 313.531 171.663 313.363C171.362 313.195 170.925 313.33 170.749 313.646C170.573 313.961 170.688 314.404 170.989 314.572Z" fill="#A0D591"/>
<path d="M174.975 329.507C175.225 329.646 175.545 329.547 175.691 329.286C175.837 329.024 175.752 328.7 175.503 328.561C175.253 328.421 174.932 328.52 174.787 328.782C174.641 329.043 174.725 329.368 174.975 329.507Z" fill="#A0D591"/>
<path d="M178.987 344.461C179.163 344.559 179.402 344.485 179.504 344.301C179.607 344.117 179.544 343.876 179.368 343.778C179.192 343.68 178.954 343.753 178.851 343.938C178.749 344.122 178.811 344.363 178.987 344.461Z" fill="#A0D591"/>
<path d="M182.753 359.793C183.055 359.961 183.452 359.838 183.628 359.522C183.804 359.207 183.699 358.804 183.398 358.636C183.097 358.468 182.699 358.591 182.523 358.907C182.347 359.222 182.452 359.625 182.753 359.793Z" fill="#A0D591"/>
<path d="M186.956 374.399C186.956 374.399 187.086 374.403 187.115 374.35C187.145 374.297 187.124 374.217 187.073 374.189C187.023 374.16 186.943 374.185 186.913 374.238C186.884 374.29 186.905 374.371 186.956 374.399Z" fill="#A0D591"/>
<path d="M194.814 404.48C194.814 404.48 194.84 404.495 194.854 404.469C194.869 404.443 194.869 404.443 194.843 404.428C194.817 404.414 194.817 404.414 194.803 404.44C194.788 404.466 194.788 404.466 194.814 404.48Z" fill="#A0D591"/>
<path d="M125.076 197.914C125.076 197.914 125.102 197.928 125.116 197.902C125.131 197.876 125.131 197.876 125.105 197.862C125.079 197.848 125.079 197.848 125.065 197.874C125.05 197.9 125.05 197.9 125.076 197.914Z" fill="#A0D591"/>
<path d="M128.9 213.141C128.9 213.141 129.121 213.16 129.179 213.055C129.238 212.949 129.207 212.828 129.106 212.772C129.005 212.716 128.885 212.753 128.827 212.858C128.768 212.964 128.8 213.085 128.9 213.141Z" fill="#A0D591"/>
<path d="M136.679 243.422C136.83 243.506 137.054 243.459 137.156 243.274C137.259 243.09 137.206 242.889 137.031 242.791C136.855 242.693 136.656 242.755 136.553 242.939C136.451 243.123 136.503 243.324 136.679 243.422Z" fill="#A0D591"/>
<path d="M140.587 258.557C140.763 258.655 141.002 258.581 141.104 258.397C141.207 258.213 141.144 257.971 140.968 257.873C140.793 257.775 140.554 257.849 140.451 258.033C140.349 258.217 140.412 258.459 140.587 258.557Z" fill="#A0D591"/>
<path d="M144.487 273.651C144.663 273.749 144.901 273.675 145.004 273.491C145.106 273.307 145.044 273.065 144.868 272.967C144.692 272.869 144.453 272.943 144.351 273.127C144.248 273.311 144.311 273.553 144.487 273.651Z" fill="#A0D591"/>
<path d="M148.426 288.735C148.601 288.833 148.84 288.759 148.943 288.575C149.045 288.391 148.982 288.149 148.806 288.051C148.631 287.953 148.392 288.027 148.289 288.211C148.187 288.395 148.25 288.637 148.426 288.735Z" fill="#A0D591"/>
<path d="M152.353 303.774C152.52 303.866 152.733 303.8 152.831 303.626C152.928 303.452 152.871 303.235 152.705 303.143C152.539 303.05 152.325 303.116 152.228 303.29C152.131 303.464 152.187 303.681 152.353 303.774Z" fill="#A0D591"/>
<path d="M156.325 318.741C156.325 318.741 156.545 318.76 156.604 318.654C156.662 318.549 156.631 318.428 156.53 318.372C156.429 318.316 156.31 318.352 156.251 318.458C156.192 318.563 156.224 318.684 156.325 318.741Z" fill="#A0D591"/>
<path d="M164.251 348.758C164.251 348.758 164.277 348.772 164.292 348.746C164.306 348.72 164.306 348.72 164.28 348.706C164.255 348.691 164.255 348.691 164.24 348.717C164.226 348.743 164.226 348.743 164.251 348.758Z" fill="#A0D591"/>
</g>
</svg>
