<svg width="390" height="69" viewBox="0 0 390 69" fill="none" xmlns="http://www.w3.org/2000/svg">
<g filter="url(#filter0_d_202_6869)">
<path d="M2.00828 5.99894C2.00886 3.23793 4.24727 1 7.00828 1H383C385.761 1 388 3.23858 388 6V39.8856C388 42.9756 385.653 45.5603 382.578 45.8578L196.925 63.8138C195.645 63.9376 194.355 63.9376 193.075 63.8138L7.42356 45.8579C4.34745 45.5604 2.00052 42.975 2.00117 39.8845L2.00828 5.99894Z" fill="#342E72"/>
<path d="M383 0.5C386.038 0.5 388.5 2.96243 388.5 6V39.8857C388.5 43.2331 385.958 46.0331 382.626 46.3555L196.974 64.3115C195.661 64.4385 194.339 64.4385 193.026 64.3115L7.375 46.3555C4.04289 46.033 1.50046 43.2325 1.50098 39.8848L1.50781 5.99902C1.50845 2.96206 3.97091 0.500253 7.00781 0.5H383Z" stroke="black"/>
</g>
<path d="M7.02612 1.5H382.974C385.459 1.5 387.473 3.51357 387.474 5.99805L387.489 36.9717C387.49 39.2869 385.734 41.2254 383.429 41.4521L196.91 59.8096C195.64 59.9346 194.361 59.9345 193.091 59.8096L6.57104 41.4521C4.26691 41.2254 2.51056 39.2869 2.51147 36.9717L2.52612 5.99805C2.52724 3.59114 4.41766 1.62619 6.79468 1.50586L7.02612 1.5Z" fill="url(#paint0_linear_202_6869)"/>
<path d="M7.02612 1.5H382.974C385.459 1.5 387.473 3.51357 387.474 5.99805L387.489 36.9717C387.49 39.2869 385.734 41.2254 383.429 41.4521L196.91 59.8096C195.64 59.9346 194.361 59.9345 193.091 59.8096L6.57104 41.4521C4.26691 41.2254 2.51056 39.2869 2.51147 36.9717L2.52612 5.99805C2.52724 3.59114 4.41766 1.62619 6.79468 1.50586L7.02612 1.5Z" stroke="#D2BFFF" style="mix-blend-mode:hard-light"/>
<path style="mix-blend-mode:hard-light" d="M383.037 2.16602C385.245 2.16602 387.036 3.95575 387.037 6.16406L387.04 13.3271C349.487 17.8027 277.561 20.833 195 20.833C112.438 20.833 40.5114 17.8028 2.95898 13.3271L2.96289 6.16406C2.96406 3.95575 4.75458 2.16602 6.96289 2.16602H383.037Z" fill="url(#paint1_radial_202_6869)" fill-opacity="0.25"/>
<g filter="url(#filter1_ddd_202_6869)">
<mask id="path-5-outside-1_202_6869" maskUnits="userSpaceOnUse" x="109" y="16.4414" width="173" height="20" fill="black">
<rect fill="white" x="109" y="16.4414" width="173" height="20"/>
<path d="M110.632 34.4414V18.2654H117.136C121.312 18.2654 123.4 20.1374 123.4 23.8814C123.4 27.6254 121.312 29.4974 117.136 29.4974H115.072V34.4414H110.632ZM116.608 21.6014H115.072V26.1614H116.608C117.408 26.1614 117.992 25.9774 118.36 25.6094C118.728 25.2414 118.912 24.6654 118.912 23.8814C118.912 23.0814 118.728 22.5054 118.36 22.1534C117.992 21.7854 117.408 21.6014 116.608 21.6014ZM122.82 34.4414L127.38 18.2654H133.476L138.18 34.4414H133.644L132.9 31.4654H127.956L127.212 34.4414H122.82ZM128.724 28.3214H132.108L130.428 21.5054L128.724 28.3214ZM139.555 34.4414V18.2654H145.915C147.963 18.2654 149.515 18.7214 150.571 19.6334C151.643 20.5454 152.179 21.8654 152.179 23.5934C152.179 24.7134 151.923 25.6654 151.411 26.4494C150.899 27.2174 150.187 27.7614 149.275 28.0814L153.211 34.4414H148.411L145.123 28.7534H143.923V34.4414H139.555ZM145.507 21.5294H143.923V25.6574H145.507C146.931 25.6574 147.643 24.9694 147.643 23.5934C147.643 22.2174 146.931 21.5294 145.507 21.5294ZM154.801 34.4414V18.2654H165.649V21.7694H159.241V24.5054H164.425V28.0094H159.241V30.9374H165.745V34.4414H154.801ZM168.173 34.4414V18.2654H172.973L178.181 28.3934V18.2654H182.189V34.4414H177.389L172.181 24.3134V34.4414H168.173ZM187.868 34.4414V21.9134H183.908V18.2654H196.436V21.9134H192.476V34.4414H187.868ZM198.18 25.4174L198.996 18.2654H203.46L201.492 25.4174H198.18ZM209.988 34.8014C208.084 34.8014 206.34 34.4894 204.756 33.8654L205.596 30.3614C206.22 30.6014 206.884 30.7934 207.588 30.9374C208.308 31.0654 208.98 31.1294 209.604 31.1294C210.532 31.1294 211.196 31.0094 211.596 30.7694C212.012 30.5294 212.22 30.1374 212.22 29.5934C212.22 28.9374 211.852 28.5374 211.116 28.3934L208.98 27.9614C206.324 27.4174 204.996 25.8254 204.996 23.1854C204.996 21.5374 205.54 20.2494 206.628 19.3214C207.716 18.3774 209.212 17.9054 211.116 17.9054C213.02 17.9054 214.716 18.1934 216.204 18.7694L215.34 22.2014C214.236 21.7694 212.94 21.5534 211.452 21.5534C209.98 21.5534 209.244 22.0094 209.244 22.9214C209.244 23.5934 209.668 24.0094 210.516 24.1694L212.34 24.5294C213.812 24.8334 214.892 25.3774 215.58 26.1614C216.284 26.9454 216.636 28.0254 216.636 29.4014C216.636 31.2254 216.092 32.5854 215.004 33.4814C213.916 34.3614 212.244 34.8014 209.988 34.8014ZM222.078 34.4414V31.2494L228.558 21.7694H222.102V18.2654H233.814V21.4574L227.334 30.9374H233.982V34.4414H222.078ZM242.865 34.8014C240.449 34.8014 238.609 34.0814 237.345 32.6414C236.081 31.2014 235.449 29.1054 235.449 26.3534C235.449 23.6014 236.081 21.5054 237.345 20.0654C238.609 18.6254 240.449 17.9054 242.865 17.9054C245.281 17.9054 247.121 18.6254 248.385 20.0654C249.649 21.5054 250.281 23.6014 250.281 26.3534C250.281 29.1054 249.649 31.2014 248.385 32.6414C247.121 34.0814 245.281 34.8014 242.865 34.8014ZM242.865 31.1534C243.809 31.1534 244.481 30.7934 244.881 30.0734C245.281 29.3374 245.481 28.0974 245.481 26.3534C245.481 24.6094 245.281 23.3774 244.881 22.6574C244.481 21.9214 243.809 21.5534 242.865 21.5534C241.921 21.5534 241.249 21.9214 240.849 22.6574C240.449 23.3774 240.249 24.6094 240.249 26.3534C240.249 28.0974 240.449 29.3374 240.849 30.0734C241.249 30.7934 241.921 31.1534 242.865 31.1534ZM252.469 34.4414V18.2654H257.269L262.477 28.3934V18.2654H266.485V34.4414H261.685L256.477 24.3134V34.4414H252.469ZM269.356 34.4414V18.2654H280.204V21.7694H273.796V24.5054H278.98V28.0094H273.796V30.9374H280.3V34.4414H269.356Z"/>
</mask>
<path d="M110.632 34.4414V18.2654H117.136C121.312 18.2654 123.4 20.1374 123.4 23.8814C123.4 27.6254 121.312 29.4974 117.136 29.4974H115.072V34.4414H110.632ZM116.608 21.6014H115.072V26.1614H116.608C117.408 26.1614 117.992 25.9774 118.36 25.6094C118.728 25.2414 118.912 24.6654 118.912 23.8814C118.912 23.0814 118.728 22.5054 118.36 22.1534C117.992 21.7854 117.408 21.6014 116.608 21.6014ZM122.82 34.4414L127.38 18.2654H133.476L138.18 34.4414H133.644L132.9 31.4654H127.956L127.212 34.4414H122.82ZM128.724 28.3214H132.108L130.428 21.5054L128.724 28.3214ZM139.555 34.4414V18.2654H145.915C147.963 18.2654 149.515 18.7214 150.571 19.6334C151.643 20.5454 152.179 21.8654 152.179 23.5934C152.179 24.7134 151.923 25.6654 151.411 26.4494C150.899 27.2174 150.187 27.7614 149.275 28.0814L153.211 34.4414H148.411L145.123 28.7534H143.923V34.4414H139.555ZM145.507 21.5294H143.923V25.6574H145.507C146.931 25.6574 147.643 24.9694 147.643 23.5934C147.643 22.2174 146.931 21.5294 145.507 21.5294ZM154.801 34.4414V18.2654H165.649V21.7694H159.241V24.5054H164.425V28.0094H159.241V30.9374H165.745V34.4414H154.801ZM168.173 34.4414V18.2654H172.973L178.181 28.3934V18.2654H182.189V34.4414H177.389L172.181 24.3134V34.4414H168.173ZM187.868 34.4414V21.9134H183.908V18.2654H196.436V21.9134H192.476V34.4414H187.868ZM198.18 25.4174L198.996 18.2654H203.46L201.492 25.4174H198.18ZM209.988 34.8014C208.084 34.8014 206.34 34.4894 204.756 33.8654L205.596 30.3614C206.22 30.6014 206.884 30.7934 207.588 30.9374C208.308 31.0654 208.98 31.1294 209.604 31.1294C210.532 31.1294 211.196 31.0094 211.596 30.7694C212.012 30.5294 212.22 30.1374 212.22 29.5934C212.22 28.9374 211.852 28.5374 211.116 28.3934L208.98 27.9614C206.324 27.4174 204.996 25.8254 204.996 23.1854C204.996 21.5374 205.54 20.2494 206.628 19.3214C207.716 18.3774 209.212 17.9054 211.116 17.9054C213.02 17.9054 214.716 18.1934 216.204 18.7694L215.34 22.2014C214.236 21.7694 212.94 21.5534 211.452 21.5534C209.98 21.5534 209.244 22.0094 209.244 22.9214C209.244 23.5934 209.668 24.0094 210.516 24.1694L212.34 24.5294C213.812 24.8334 214.892 25.3774 215.58 26.1614C216.284 26.9454 216.636 28.0254 216.636 29.4014C216.636 31.2254 216.092 32.5854 215.004 33.4814C213.916 34.3614 212.244 34.8014 209.988 34.8014ZM222.078 34.4414V31.2494L228.558 21.7694H222.102V18.2654H233.814V21.4574L227.334 30.9374H233.982V34.4414H222.078ZM242.865 34.8014C240.449 34.8014 238.609 34.0814 237.345 32.6414C236.081 31.2014 235.449 29.1054 235.449 26.3534C235.449 23.6014 236.081 21.5054 237.345 20.0654C238.609 18.6254 240.449 17.9054 242.865 17.9054C245.281 17.9054 247.121 18.6254 248.385 20.0654C249.649 21.5054 250.281 23.6014 250.281 26.3534C250.281 29.1054 249.649 31.2014 248.385 32.6414C247.121 34.0814 245.281 34.8014 242.865 34.8014ZM242.865 31.1534C243.809 31.1534 244.481 30.7934 244.881 30.0734C245.281 29.3374 245.481 28.0974 245.481 26.3534C245.481 24.6094 245.281 23.3774 244.881 22.6574C244.481 21.9214 243.809 21.5534 242.865 21.5534C241.921 21.5534 241.249 21.9214 240.849 22.6574C240.449 23.3774 240.249 24.6094 240.249 26.3534C240.249 28.0974 240.449 29.3374 240.849 30.0734C241.249 30.7934 241.921 31.1534 242.865 31.1534ZM252.469 34.4414V18.2654H257.269L262.477 28.3934V18.2654H266.485V34.4414H261.685L256.477 24.3134V34.4414H252.469ZM269.356 34.4414V18.2654H280.204V21.7694H273.796V24.5054H278.98V28.0094H273.796V30.9374H280.3V34.4414H269.356Z" fill="white"/>
<path d="M110.632 34.4414H109.616V35.4574H110.632V34.4414ZM110.632 18.2654V17.2494H109.616V18.2654H110.632ZM115.072 29.4974V28.4814H114.056V29.4974H115.072ZM115.072 34.4414V35.4574H116.088V34.4414H115.072ZM115.072 21.6014V20.5854H114.056V21.6014H115.072ZM115.072 26.1614H114.056V27.1774H115.072V26.1614ZM118.36 22.1534L117.642 22.8718L117.65 22.8798L117.658 22.8876L118.36 22.1534ZM110.632 34.4414H111.648V18.2654H110.632H109.616V34.4414H110.632ZM110.632 18.2654V19.2814H117.136V18.2654V17.2494H110.632V18.2654ZM117.136 18.2654V19.2814C119.093 19.2814 120.371 19.7225 121.156 20.4259C121.919 21.1104 122.384 22.1964 122.384 23.8814H123.4H124.416C124.416 21.8224 123.837 20.1004 122.512 18.9129C121.209 17.7443 119.355 17.2494 117.136 17.2494V18.2654ZM123.4 23.8814H122.384C122.384 25.5664 121.919 26.6524 121.156 27.3369C120.371 28.0403 119.093 28.4814 117.136 28.4814V29.4974V30.5134C119.355 30.5134 121.209 30.0185 122.512 28.8499C123.837 27.6624 124.416 25.9404 124.416 23.8814H123.4ZM117.136 29.4974V28.4814H115.072V29.4974V30.5134H117.136V29.4974ZM115.072 29.4974H114.056V34.4414H115.072H116.088V29.4974H115.072ZM115.072 34.4414V33.4254H110.632V34.4414V35.4574H115.072V34.4414ZM116.608 21.6014V20.5854H115.072V21.6014V22.6174H116.608V21.6014ZM115.072 21.6014H114.056V26.1614H115.072H116.088V21.6014H115.072ZM115.072 26.1614V27.1774H116.608V26.1614V25.1454H115.072V26.1614ZM116.608 26.1614V27.1774C117.536 27.1774 118.439 26.9674 119.078 26.3278L118.36 25.6094L117.642 24.891C117.545 24.9874 117.28 25.1454 116.608 25.1454V26.1614ZM118.36 25.6094L119.078 26.3278C119.715 25.6915 119.928 24.8002 119.928 23.8814H118.912H117.896C117.896 24.5306 117.741 24.7913 117.642 24.891L118.36 25.6094ZM118.912 23.8814H119.928C119.928 22.9587 119.72 22.0484 119.062 21.4192L118.36 22.1534L117.658 22.8876C117.736 22.9624 117.896 23.2041 117.896 23.8814H118.912ZM118.36 22.1534L119.078 21.435C118.439 20.7954 117.536 20.5854 116.608 20.5854V21.6014V22.6174C117.28 22.6174 117.545 22.7754 117.642 22.8718L118.36 22.1534ZM122.82 34.4414L121.842 34.1657L121.478 35.4574H122.82V34.4414ZM127.38 18.2654V17.2494H126.611L126.402 17.9897L127.38 18.2654ZM133.476 18.2654L134.451 17.9817L134.238 17.2494H133.476V18.2654ZM138.18 34.4414V35.4574H139.533L139.155 34.1577L138.18 34.4414ZM133.644 34.4414L132.658 34.6878L132.85 35.4574H133.644V34.4414ZM132.9 31.4654L133.885 31.219L133.693 30.4494H132.9V31.4654ZM127.956 31.4654V30.4494H127.162L126.97 31.219L127.956 31.4654ZM127.212 34.4414V35.4574H128.005L128.197 34.6878L127.212 34.4414ZM128.724 28.3214L127.738 28.075L127.422 29.3374H128.724V28.3214ZM132.108 28.3214V29.3374H133.405L133.094 28.0783L132.108 28.3214ZM130.428 21.5054L131.414 21.2623L129.442 21.259L130.428 21.5054ZM122.82 34.4414L123.798 34.7171L128.358 18.5411L127.38 18.2654L126.402 17.9897L121.842 34.1657L122.82 34.4414ZM127.38 18.2654V19.2814H133.476V18.2654V17.2494H127.38V18.2654ZM133.476 18.2654L132.5 18.5491L137.204 34.7251L138.18 34.4414L139.155 34.1577L134.451 17.9817L133.476 18.2654ZM138.18 34.4414V33.4254H133.644V34.4414V35.4574H138.18V34.4414ZM133.644 34.4414L134.629 34.195L133.885 31.219L132.9 31.4654L131.914 31.7118L132.658 34.6878L133.644 34.4414ZM132.9 31.4654V30.4494H127.956V31.4654V32.4814H132.9V31.4654ZM127.956 31.4654L126.97 31.219L126.226 34.195L127.212 34.4414L128.197 34.6878L128.941 31.7118L127.956 31.4654ZM127.212 34.4414V33.4254H122.82V34.4414V35.4574H127.212V34.4414ZM128.724 28.3214V29.3374H132.108V28.3214V27.3054H128.724V28.3214ZM132.108 28.3214L133.094 28.0783L131.414 21.2623L130.428 21.5054L129.441 21.7486L131.121 28.5646L132.108 28.3214ZM130.428 21.5054L129.442 21.259L127.738 28.075L128.724 28.3214L129.709 28.5678L131.413 21.7518L130.428 21.5054ZM139.555 34.4414H138.539V35.4574H139.555V34.4414ZM139.555 18.2654V17.2494H138.539V18.2654H139.555ZM150.571 19.6334L149.907 20.4024L149.913 20.4073L150.571 19.6334ZM151.411 26.4494L152.256 27.013L152.262 27.0049L151.411 26.4494ZM149.275 28.0814L148.938 27.1227L147.746 27.5412L148.411 28.6161L149.275 28.0814ZM153.211 34.4414V35.4574H155.034L154.075 33.9067L153.211 34.4414ZM148.411 34.4414L147.531 34.9499L147.825 35.4574H148.411V34.4414ZM145.123 28.7534L146.002 28.2449L145.709 27.7374H145.123V28.7534ZM143.923 28.7534V27.7374H142.907V28.7534H143.923ZM143.923 34.4414V35.4574H144.939V34.4414H143.923ZM143.923 21.5294V20.5134H142.907V21.5294H143.923ZM143.923 25.6574H142.907V26.6734H143.923V25.6574ZM139.555 34.4414H140.571V18.2654H139.555H138.539V34.4414H139.555ZM139.555 18.2654V19.2814H145.915V18.2654V17.2494H139.555V18.2654ZM145.915 18.2654V19.2814C147.83 19.2814 149.105 19.7099 149.907 20.4023L150.571 19.6334L151.235 18.8645C149.925 17.7329 148.095 17.2494 145.915 17.2494V18.2654ZM150.571 19.6334L149.913 20.4073C150.707 21.0829 151.163 22.0893 151.163 23.5934H152.179H153.195C153.195 21.6415 152.579 20.0079 151.229 18.8596L150.571 19.6334ZM152.179 23.5934H151.163C151.163 24.5553 150.945 25.3051 150.56 25.8939L151.411 26.4494L152.262 27.0049C152.901 26.0257 153.195 24.8715 153.195 23.5934H152.179ZM151.411 26.4494L150.565 25.8858C150.182 26.4613 149.653 26.872 148.938 27.1227L149.275 28.0814L149.611 29.0401C150.721 28.6508 151.616 27.9735 152.256 27.013L151.411 26.4494ZM149.275 28.0814L148.411 28.6161L152.347 34.9761L153.211 34.4414L154.075 33.9067L150.139 27.5467L149.275 28.0814ZM153.211 34.4414V33.4254H148.411V34.4414V35.4574H153.211V34.4414ZM148.411 34.4414L149.29 33.9329L146.002 28.2449L145.123 28.7534L144.243 29.2619L147.531 34.9499L148.411 34.4414ZM145.123 28.7534V27.7374H143.923V28.7534V29.7694H145.123V28.7534ZM143.923 28.7534H142.907V34.4414H143.923H144.939V28.7534H143.923ZM143.923 34.4414V33.4254H139.555V34.4414V35.4574H143.923V34.4414ZM145.507 21.5294V20.5134H143.923V21.5294V22.5454H145.507V21.5294ZM143.923 21.5294H142.907V25.6574H143.923H144.939V21.5294H143.923ZM143.923 25.6574V26.6734H145.507V25.6574V24.6414H143.923V25.6574ZM145.507 25.6574V26.6734C146.367 26.6734 147.2 26.4661 147.815 25.872C148.436 25.2718 148.659 24.447 148.659 23.5934H147.643H146.627C146.627 24.1158 146.494 24.3231 146.403 24.4108C146.306 24.5048 146.071 24.6414 145.507 24.6414V25.6574ZM147.643 23.5934H148.659C148.659 22.7398 148.436 21.9151 147.815 21.3148C147.2 20.7208 146.367 20.5134 145.507 20.5134V21.5294V22.5454C146.071 22.5454 146.306 22.6821 146.403 22.776C146.494 22.8638 146.627 23.071 146.627 23.5934H147.643ZM154.801 34.4414H153.785V35.4574H154.801V34.4414ZM154.801 18.2654V17.2494H153.785V18.2654H154.801ZM165.649 18.2654H166.665V17.2494H165.649V18.2654ZM165.649 21.7694V22.7854H166.665V21.7694H165.649ZM159.241 21.7694V20.7534H158.225V21.7694H159.241ZM159.241 24.5054H158.225V25.5214H159.241V24.5054ZM164.425 24.5054H165.441V23.4894H164.425V24.5054ZM164.425 28.0094V29.0254H165.441V28.0094H164.425ZM159.241 28.0094V26.9934H158.225V28.0094H159.241ZM159.241 30.9374H158.225V31.9534H159.241V30.9374ZM165.745 30.9374H166.761V29.9214H165.745V30.9374ZM165.745 34.4414V35.4574H166.761V34.4414H165.745ZM154.801 34.4414H155.817V18.2654H154.801H153.785V34.4414H154.801ZM154.801 18.2654V19.2814H165.649V18.2654V17.2494H154.801V18.2654ZM165.649 18.2654H164.633V21.7694H165.649H166.665V18.2654H165.649ZM165.649 21.7694V20.7534H159.241V21.7694V22.7854H165.649V21.7694ZM159.241 21.7694H158.225V24.5054H159.241H160.257V21.7694H159.241ZM159.241 24.5054V25.5214H164.425V24.5054V23.4894H159.241V24.5054ZM164.425 24.5054H163.409V28.0094H164.425H165.441V24.5054H164.425ZM164.425 28.0094V26.9934H159.241V28.0094V29.0254H164.425V28.0094ZM159.241 28.0094H158.225V30.9374H159.241H160.257V28.0094H159.241ZM159.241 30.9374V31.9534H165.745V30.9374V29.9214H159.241V30.9374ZM165.745 30.9374H164.729V34.4414H165.745H166.761V30.9374H165.745ZM165.745 34.4414V33.4254H154.801V34.4414V35.4574H165.745V34.4414ZM168.173 34.4414H167.157V35.4574H168.173V34.4414ZM168.173 18.2654V17.2494H167.157V18.2654H168.173ZM172.973 18.2654L173.877 17.8008L173.593 17.2494H172.973V18.2654ZM178.181 28.3934L177.277 28.858L179.197 28.3934H178.181ZM178.181 18.2654V17.2494H177.165V18.2654H178.181ZM182.189 18.2654H183.205V17.2494H182.189V18.2654ZM182.189 34.4414V35.4574H183.205V34.4414H182.189ZM177.389 34.4414L176.485 34.906L176.769 35.4574H177.389V34.4414ZM172.181 24.3134L173.085 23.8488L171.165 24.3134H172.181ZM172.181 34.4414V35.4574H173.197V34.4414H172.181ZM168.173 34.4414H169.189V18.2654H168.173H167.157V34.4414H168.173ZM168.173 18.2654V19.2814H172.973V18.2654V17.2494H168.173V18.2654ZM172.973 18.2654L172.069 18.73L177.277 28.858L178.181 28.3934L179.085 27.9288L173.877 17.8008L172.973 18.2654ZM178.181 28.3934H179.197V18.2654H178.181H177.165V28.3934H178.181ZM178.181 18.2654V19.2814H182.189V18.2654V17.2494H178.181V18.2654ZM182.189 18.2654H181.173V34.4414H182.189H183.205V18.2654H182.189ZM182.189 34.4414V33.4254H177.389V34.4414V35.4574H182.189V34.4414ZM177.389 34.4414L178.293 33.9768L173.085 23.8488L172.181 24.3134L171.277 24.778L176.485 34.906L177.389 34.4414ZM172.181 24.3134H171.165V34.4414H172.181H173.197V24.3134H172.181ZM172.181 34.4414V33.4254H168.173V34.4414V35.4574H172.181V34.4414ZM187.868 34.4414H186.852V35.4574H187.868V34.4414ZM187.868 21.9134H188.884V20.8974H187.868V21.9134ZM183.908 21.9134H182.892V22.9294H183.908V21.9134ZM183.908 18.2654V17.2494H182.892V18.2654H183.908ZM196.436 18.2654H197.452V17.2494H196.436V18.2654ZM196.436 21.9134V22.9294H197.452V21.9134H196.436ZM192.476 21.9134V20.8974H191.46V21.9134H192.476ZM192.476 34.4414V35.4574H193.492V34.4414H192.476ZM187.868 34.4414H188.884V21.9134H187.868H186.852V34.4414H187.868ZM187.868 21.9134V20.8974H183.908V21.9134V22.9294H187.868V21.9134ZM183.908 21.9134H184.924V18.2654H183.908H182.892V21.9134H183.908ZM183.908 18.2654V19.2814H196.436V18.2654V17.2494H183.908V18.2654ZM196.436 18.2654H195.42V21.9134H196.436H197.452V18.2654H196.436ZM196.436 21.9134V20.8974H192.476V21.9134V22.9294H196.436V21.9134ZM192.476 21.9134H191.46V34.4414H192.476H193.492V21.9134H192.476ZM192.476 34.4414V33.4254H187.868V34.4414V35.4574H192.476V34.4414ZM198.18 25.4174L197.171 25.3022L197.042 26.4334H198.18V25.4174ZM198.996 18.2654V17.2494H198.09L197.987 18.1502L198.996 18.2654ZM203.46 18.2654L204.44 18.535L204.794 17.2494H203.46V18.2654ZM201.492 25.4174V26.4334H202.267L202.472 25.687L201.492 25.4174ZM198.18 25.4174L199.19 25.5326L200.006 18.3806L198.996 18.2654L197.987 18.1502L197.171 25.3022L198.18 25.4174ZM198.996 18.2654V19.2814H203.46V18.2654V17.2494H198.996V18.2654ZM203.46 18.2654L202.481 17.9959L200.513 25.1479L201.492 25.4174L202.472 25.687L204.44 18.535L203.46 18.2654ZM201.492 25.4174V24.4014H198.18V25.4174V26.4334H201.492V25.4174ZM204.756 33.8654L203.768 33.6286L203.562 34.4871L204.383 34.8107L204.756 33.8654ZM205.596 30.3614L205.96 29.4131L204.878 28.9968L204.608 30.1246L205.596 30.3614ZM207.588 30.9374L207.384 31.9328L207.397 31.9354L207.41 31.9377L207.588 30.9374ZM211.596 30.7694L211.088 29.8894L211.08 29.8937L211.073 29.8982L211.596 30.7694ZM211.116 28.3934L210.914 29.3893L210.921 29.3905L211.116 28.3934ZM208.98 27.9614L208.776 28.9567L208.778 28.9572L208.98 27.9614ZM206.628 19.3214L207.287 20.0944L207.294 20.0888L206.628 19.3214ZM216.204 18.7694L217.189 19.0174L217.408 18.1462L216.57 17.8219L216.204 18.7694ZM215.34 22.2014L214.969 23.1475L216.043 23.5678L216.325 22.4494L215.34 22.2014ZM210.516 24.1694L210.712 23.1726L210.704 23.171L210.516 24.1694ZM212.34 24.5294L212.545 23.5344L212.536 23.5326L212.34 24.5294ZM215.58 26.1614L214.816 26.8316L214.824 26.8402L215.58 26.1614ZM215.004 33.4814L215.643 34.2714L215.65 34.2657L215.004 33.4814ZM209.988 34.8014V33.7854C208.196 33.7854 206.58 33.4922 205.128 32.9201L204.756 33.8654L204.383 34.8107C206.099 35.4866 207.971 35.8174 209.988 35.8174V34.8014ZM204.756 33.8654L205.744 34.1023L206.584 30.5983L205.596 30.3614L204.608 30.1246L203.768 33.6286L204.756 33.8654ZM205.596 30.3614L205.231 31.3097C205.911 31.5712 206.629 31.7784 207.384 31.9328L207.588 30.9374L207.791 29.942C207.138 29.8084 206.528 29.6316 205.96 29.4131L205.596 30.3614ZM207.588 30.9374L207.41 31.9377C208.179 32.0744 208.911 32.1454 209.604 32.1454V31.1294V30.1134C209.048 30.1134 208.437 30.0564 207.766 29.9371L207.588 30.9374ZM209.604 31.1294V32.1454C210.566 32.1454 211.469 32.0305 212.118 31.6406L211.596 30.7694L211.073 29.8982C210.923 29.9883 210.497 30.1134 209.604 30.1134V31.1294ZM211.596 30.7694L212.103 31.6495C212.881 31.2008 213.236 30.4426 213.236 29.5934H212.22H211.204C211.204 29.7364 211.177 29.7994 211.166 29.8192C211.159 29.8328 211.145 29.8566 211.088 29.8894L211.596 30.7694ZM212.22 29.5934H213.236C213.236 29.0662 213.082 28.5383 212.691 28.1135C212.314 27.7037 211.812 27.4944 211.311 27.3963L211.116 28.3934L210.921 29.3905C211.155 29.4364 211.205 29.4991 211.196 29.4893C211.191 29.4842 211.19 29.479 211.191 29.4837C211.194 29.4915 211.204 29.524 211.204 29.5934H212.22ZM211.116 28.3934L211.317 27.3976L209.181 26.9656L208.98 27.9614L208.778 28.9572L210.914 29.3892L211.116 28.3934ZM208.98 27.9614L209.184 26.9661C208.011 26.726 207.248 26.2798 206.772 25.7086C206.298 25.1405 206.012 24.334 206.012 23.1854H204.996H203.98C203.98 24.6768 204.357 25.9863 205.212 27.0102C206.063 28.031 207.292 28.6529 208.776 28.9567L208.98 27.9614ZM204.996 23.1854H206.012C206.012 21.7844 206.461 20.7989 207.287 20.0944L206.628 19.3214L205.968 18.5484C204.618 19.6999 203.98 21.2904 203.98 23.1854H204.996ZM206.628 19.3214L207.294 20.0888C208.144 19.3507 209.376 18.9214 211.116 18.9214V17.9054V16.8894C209.047 16.8894 207.287 17.4041 205.962 18.554L206.628 19.3214ZM211.116 17.9054V18.9214C212.918 18.9214 214.486 19.194 215.837 19.7169L216.204 18.7694L216.57 17.8219C214.945 17.1928 213.121 16.8894 211.116 16.8894V17.9054ZM216.204 18.7694L215.218 18.5214L214.354 21.9534L215.34 22.2014L216.325 22.4494L217.189 19.0174L216.204 18.7694ZM215.34 22.2014L215.71 21.2553C214.462 20.767 213.035 20.5374 211.452 20.5374V21.5534V22.5694C212.844 22.5694 214.009 22.7718 214.969 23.1475L215.34 22.2014ZM211.452 21.5534V20.5374C210.644 20.5374 209.866 20.6566 209.261 21.0317C208.575 21.4566 208.228 22.1364 208.228 22.9214H209.244H210.26C210.26 22.8757 210.264 22.846 210.268 22.8291C210.272 22.8127 210.276 22.8058 210.276 22.8043C210.277 22.8029 210.279 22.8001 210.284 22.7946C210.29 22.7886 210.304 22.776 210.331 22.7591C210.461 22.6782 210.788 22.5694 211.452 22.5694V21.5534ZM209.244 22.9214H208.228C208.228 23.4911 208.417 24.0378 208.85 24.4626C209.257 24.8618 209.791 25.0666 210.327 25.1678L210.516 24.1694L210.704 23.171C210.393 23.1123 210.29 23.029 210.273 23.0122C210.269 23.0084 210.269 23.0071 210.27 23.0083C210.27 23.0095 210.27 23.01 210.27 23.0085C210.269 23.0064 210.26 22.982 210.26 22.9214H209.244ZM210.516 24.1694L210.319 25.1662L212.143 25.5262L212.34 24.5294L212.536 23.5326L210.712 23.1726L210.516 24.1694ZM212.34 24.5294L212.134 25.5244C213.482 25.8028 214.326 26.2727 214.816 26.8315L215.58 26.1614L216.343 25.4913C215.458 24.4821 214.141 23.8641 212.545 23.5344L212.34 24.5294ZM215.58 26.1614L214.824 26.8402C215.314 27.3866 215.62 28.1975 215.62 29.4014H216.636H217.652C217.652 27.8533 217.253 26.5042 216.336 25.4826L215.58 26.1614ZM216.636 29.4014H215.62C215.62 31.0181 215.146 32.0479 214.358 32.6971L215.004 33.4814L215.65 34.2657C217.037 33.1229 217.652 31.4327 217.652 29.4014H216.636ZM215.004 33.4814L214.365 32.6915C213.539 33.3593 212.144 33.7854 209.988 33.7854V34.8014V35.8174C212.344 35.8174 214.292 35.3636 215.643 34.2714L215.004 33.4814ZM222.078 34.4414H221.062V35.4574H222.078V34.4414ZM222.078 31.2494L221.239 30.6761L221.062 30.9353V31.2494H222.078ZM228.558 21.7694L229.397 22.3427L230.483 20.7534H228.558V21.7694ZM222.102 21.7694H221.086V22.7854H222.102V21.7694ZM222.102 18.2654V17.2494H221.086V18.2654H222.102ZM233.814 18.2654H234.83V17.2494H233.814V18.2654ZM233.814 21.4574L234.653 22.0307L234.83 21.7715V21.4574H233.814ZM227.334 30.9374L226.495 30.3641L225.409 31.9534H227.334V30.9374ZM233.982 30.9374H234.998V29.9214H233.982V30.9374ZM233.982 34.4414V35.4574H234.998V34.4414H233.982ZM222.078 34.4414H223.094V31.2494H222.078H221.062V34.4414H222.078ZM222.078 31.2494L222.917 31.8227L229.397 22.3427L228.558 21.7694L227.719 21.1961L221.239 30.6761L222.078 31.2494ZM228.558 21.7694V20.7534H222.102V21.7694V22.7854H228.558V21.7694ZM222.102 21.7694H223.118V18.2654H222.102H221.086V21.7694H222.102ZM222.102 18.2654V19.2814H233.814V18.2654V17.2494H222.102V18.2654ZM233.814 18.2654H232.798V21.4574H233.814H234.83V18.2654H233.814ZM233.814 21.4574L232.975 20.8841L226.495 30.3641L227.334 30.9374L228.173 31.5107L234.653 22.0307L233.814 21.4574ZM227.334 30.9374V31.9534H233.982V30.9374V29.9214H227.334V30.9374ZM233.982 30.9374H232.966V34.4414H233.982H234.998V30.9374H233.982ZM233.982 34.4414V33.4254H222.078V34.4414V35.4574H233.982V34.4414ZM237.345 32.6414L236.581 33.3116L237.345 32.6414ZM237.345 20.0654L236.581 19.3952L237.345 20.0654ZM248.385 20.0654L249.148 19.3952L248.385 20.0654ZM244.881 30.0734L245.769 30.5668L245.773 30.5586L244.881 30.0734ZM244.881 22.6574L243.988 23.1426L243.992 23.1508L244.881 22.6574ZM240.849 22.6574L241.737 23.1508L241.741 23.1426L240.849 22.6574ZM240.849 30.0734L239.956 30.5586L239.96 30.5668L240.849 30.0734ZM242.865 34.8014V33.7854C240.659 33.7854 239.131 33.1364 238.108 31.9712L237.345 32.6414L236.581 33.3116C238.086 35.0264 240.238 35.8174 242.865 35.8174V34.8014ZM237.345 32.6414L238.108 31.9712C237.065 30.7832 236.465 28.9649 236.465 26.3534H235.449H234.433C234.433 29.2459 235.096 31.6196 236.581 33.3116L237.345 32.6414ZM235.449 26.3534H236.465C236.465 23.7419 237.065 21.9236 238.108 20.7356L237.345 20.0654L236.581 19.3952C235.096 21.0872 234.433 23.4609 234.433 26.3534H235.449ZM237.345 20.0654L238.108 20.7356C239.131 19.5704 240.659 18.9214 242.865 18.9214V17.9054V16.8894C240.238 16.8894 238.086 17.6804 236.581 19.3952L237.345 20.0654ZM242.865 17.9054V18.9214C245.07 18.9214 246.598 19.5704 247.621 20.7356L248.385 20.0654L249.148 19.3952C247.643 17.6804 245.491 16.8894 242.865 16.8894V17.9054ZM248.385 20.0654L247.621 20.7356C248.664 21.9236 249.265 23.7419 249.265 26.3534H250.281H251.297C251.297 23.4609 250.633 21.0872 249.148 19.3952L248.385 20.0654ZM250.281 26.3534H249.265C249.265 28.9649 248.664 30.7832 247.621 31.9712L248.385 32.6414L249.148 33.3116C250.633 31.6196 251.297 29.2459 251.297 26.3534H250.281ZM248.385 32.6414L247.621 31.9712C246.598 33.1364 245.07 33.7854 242.865 33.7854V34.8014V35.8174C245.491 35.8174 247.643 35.0264 249.148 33.3116L248.385 32.6414ZM242.865 31.1534V32.1694C244.112 32.1694 245.16 31.6625 245.769 30.5668L244.881 30.0734L243.992 29.58C243.801 29.9243 243.505 30.1374 242.865 30.1374V31.1534ZM244.881 30.0734L245.773 30.5586C246.303 29.5836 246.497 28.1209 246.497 26.3534H245.481H244.465C244.465 28.0739 244.258 29.0912 243.988 29.5883L244.881 30.0734ZM245.481 26.3534H246.497C246.497 24.5893 246.304 23.1278 245.769 22.164L244.881 22.6574L243.992 23.1508C244.257 23.627 244.465 24.6295 244.465 26.3534H245.481ZM244.881 22.6574L245.773 22.1723C245.17 21.0614 244.123 20.5374 242.865 20.5374V21.5534V22.5694C243.494 22.5694 243.792 22.7814 243.988 23.1426L244.881 22.6574ZM242.865 21.5534V20.5374C241.606 20.5374 240.56 21.0614 239.956 22.1723L240.849 22.6574L241.741 23.1426C241.938 22.7814 242.235 22.5694 242.865 22.5694V21.5534ZM240.849 22.6574L239.96 22.164C239.425 23.1278 239.233 24.5893 239.233 26.3534H240.249H241.265C241.265 24.6295 241.472 23.627 241.737 23.1508L240.849 22.6574ZM240.249 26.3534H239.233C239.233 28.1209 239.426 29.5836 239.956 30.5586L240.849 30.0734L241.741 29.5883C241.471 29.0912 241.265 28.0739 241.265 26.3534H240.249ZM240.849 30.0734L239.96 30.5668C240.569 31.6625 241.617 32.1694 242.865 32.1694V31.1534V30.1374C242.224 30.1374 241.928 29.9243 241.737 29.58L240.849 30.0734ZM252.469 34.4414H251.453V35.4574H252.469V34.4414ZM252.469 18.2654V17.2494H251.453V18.2654H252.469ZM257.269 18.2654L258.173 17.8008L257.889 17.2494H257.269V18.2654ZM262.477 28.3934L261.574 28.858L263.493 28.3934H262.477ZM262.477 18.2654V17.2494H261.461V18.2654H262.477ZM266.485 18.2654H267.501V17.2494H266.485V18.2654ZM266.485 34.4414V35.4574H267.501V34.4414H266.485ZM261.685 34.4414L260.782 34.906L261.065 35.4574H261.685V34.4414ZM256.477 24.3134L257.381 23.8488L255.461 24.3134H256.477ZM256.477 34.4414V35.4574H257.493V34.4414H256.477ZM252.469 34.4414H253.485V18.2654H252.469H251.453V34.4414H252.469ZM252.469 18.2654V19.2814H257.269V18.2654V17.2494H252.469V18.2654ZM257.269 18.2654L256.366 18.73L261.574 28.858L262.477 28.3934L263.381 27.9288L258.173 17.8008L257.269 18.2654ZM262.477 28.3934H263.493V18.2654H262.477H261.461V28.3934H262.477ZM262.477 18.2654V19.2814H266.485V18.2654V17.2494H262.477V18.2654ZM266.485 18.2654H265.469V34.4414H266.485H267.501V18.2654H266.485ZM266.485 34.4414V33.4254H261.685V34.4414V35.4574H266.485V34.4414ZM261.685 34.4414L262.589 33.9768L257.381 23.8488L256.477 24.3134L255.574 24.778L260.782 34.906L261.685 34.4414ZM256.477 24.3134H255.461V34.4414H256.477H257.493V24.3134H256.477ZM256.477 34.4414V33.4254H252.469V34.4414V35.4574H256.477V34.4414ZM269.356 34.4414H268.34V35.4574H269.356V34.4414ZM269.356 18.2654V17.2494H268.34V18.2654H269.356ZM280.204 18.2654H281.22V17.2494H280.204V18.2654ZM280.204 21.7694V22.7854H281.22V21.7694H280.204ZM273.796 21.7694V20.7534H272.78V21.7694H273.796ZM273.796 24.5054H272.78V25.5214H273.796V24.5054ZM278.98 24.5054H279.996V23.4894H278.98V24.5054ZM278.98 28.0094V29.0254H279.996V28.0094H278.98ZM273.796 28.0094V26.9934H272.78V28.0094H273.796ZM273.796 30.9374H272.78V31.9534H273.796V30.9374ZM280.3 30.9374H281.316V29.9214H280.3V30.9374ZM280.3 34.4414V35.4574H281.316V34.4414H280.3ZM269.356 34.4414H270.372V18.2654H269.356H268.34V34.4414H269.356ZM269.356 18.2654V19.2814H280.204V18.2654V17.2494H269.356V18.2654ZM280.204 18.2654H279.188V21.7694H280.204H281.22V18.2654H280.204ZM280.204 21.7694V20.7534H273.796V21.7694V22.7854H280.204V21.7694ZM273.796 21.7694H272.78V24.5054H273.796H274.812V21.7694H273.796ZM273.796 24.5054V25.5214H278.98V24.5054V23.4894H273.796V24.5054ZM278.98 24.5054H277.964V28.0094H278.98H279.996V24.5054H278.98ZM278.98 28.0094V26.9934H273.796V28.0094V29.0254H278.98V28.0094ZM273.796 28.0094H272.78V30.9374H273.796H274.812V28.0094H273.796ZM273.796 30.9374V31.9534H280.3V30.9374V29.9214H273.796V30.9374ZM280.3 30.9374H279.284V34.4414H280.3H281.316V30.9374H280.3ZM280.3 34.4414V33.4254H269.356V34.4414V35.4574H280.3V34.4414Z" fill="#3B3B3B" mask="url(#path-5-outside-1_202_6869)"/>
</g>
<defs>
<filter id="filter0_d_202_6869" x="1.00122" y="0" width="387.999" height="68.9067" filterUnits="userSpaceOnUse" color-interpolation-filters="sRGB">
<feFlood flood-opacity="0" result="BackgroundImageFix"/>
<feColorMatrix in="SourceAlpha" type="matrix" values="0 0 0 0 0 0 0 0 0 0 0 0 0 0 0 0 0 0 127 0" result="hardAlpha"/>
<feOffset dy="4"/>
<feComposite in2="hardAlpha" operator="out"/>
<feColorMatrix type="matrix" values="0 0 0 0 0 0 0 0 0 0 0 0 0 0 0 0 0 0 0.25 0"/>
<feBlend mode="normal" in2="BackgroundImageFix" result="effect1_dropShadow_202_6869"/>
<feBlend mode="normal" in="SourceGraphic" in2="effect1_dropShadow_202_6869" result="shape"/>
</filter>
<filter id="filter1_ddd_202_6869" x="107.076" y="16.1276" width="176.78" height="24.0077" filterUnits="userSpaceOnUse" color-interpolation-filters="sRGB">
<feFlood flood-opacity="0" result="BackgroundImageFix"/>
<feColorMatrix in="SourceAlpha" type="matrix" values="0 0 0 0 0 0 0 0 0 0 0 0 0 0 0 0 0 0 127 0" result="hardAlpha"/>
<feOffset dy="1"/>
<feComposite in2="hardAlpha" operator="out"/>
<feColorMatrix type="matrix" values="0 0 0 0 0 0 0 0 0 0 0 0 0 0 0 0 0 0 1 0"/>
<feBlend mode="normal" in2="BackgroundImageFix" result="effect1_dropShadow_202_6869"/>
<feColorMatrix in="SourceAlpha" type="matrix" values="0 0 0 0 0 0 0 0 0 0 0 0 0 0 0 0 0 0 127 0" result="hardAlpha"/>
<feOffset dy="1"/>
<feComposite in2="hardAlpha" operator="out"/>
<feColorMatrix type="matrix" values="0 0 0 0 0 0 0 0 0 0 0 0 0 0 0 0 0 0 1 0"/>
<feBlend mode="normal" in2="effect1_dropShadow_202_6869" result="effect2_dropShadow_202_6869"/>
<feColorMatrix in="SourceAlpha" type="matrix" values="0 0 0 0 0 0 0 0 0 0 0 0 0 0 0 0 0 0 127 0" result="hardAlpha"/>
<feOffset dy="1.778"/>
<feGaussianBlur stdDeviation="1.27"/>
<feComposite in2="hardAlpha" operator="out"/>
<feColorMatrix type="matrix" values="0 0 0 0 0 0 0 0 0 0 0 0 0 0 0 0 0 0 0.8 0"/>
<feBlend mode="normal" in2="effect2_dropShadow_202_6869" result="effect3_dropShadow_202_6869"/>
<feBlend mode="normal" in="SourceGraphic" in2="effect3_dropShadow_202_6869" result="shape"/>
</filter>
<linearGradient id="paint0_linear_202_6869" x1="2.00952" y1="27.1039" x2="387.991" y2="27.1039" gradientUnits="userSpaceOnUse">
<stop stop-color="#4B42A2"/>
<stop offset="0.475" stop-color="#8383FF"/>
<stop offset="1" stop-color="#4C43A3"/>
</linearGradient>
<radialGradient id="paint1_radial_202_6869" cx="0" cy="0" r="1" gradientUnits="userSpaceOnUse" gradientTransform="translate(195 37.7716) rotate(-90) scale(43.7723 1126.28)">
<stop offset="0.431628" stop-color="white" stop-opacity="0.26"/>
<stop offset="1" stop-color="white"/>
</radialGradient>
</defs>
</svg>
