<svg width="40" height="40" viewBox="0 0 40 40" fill="none" xmlns="http://www.w3.org/2000/svg">
<rect width="40" height="40" rx="20" fill="#40398B"/>
<rect x="0.25" y="0.25" width="39.5" height="39.5" rx="19.75" stroke="white" stroke-opacity="0.24" stroke-width="0.5"/>
<path d="M24.5834 15.4165H24.5917M15.8334 11.6665H24.1667C26.4679 11.6665 28.3334 13.532 28.3334 15.8332V24.1665C28.3334 26.4677 26.4679 28.3332 24.1667 28.3332H15.8334C13.5322 28.3332 11.6667 26.4677 11.6667 24.1665V15.8332C11.6667 13.532 13.5322 11.6665 15.8334 11.6665ZM23.3334 19.4748C23.4363 20.1684 23.3178 20.8767 22.9949 21.499C22.672 22.1213 22.161 22.626 21.5348 22.9412C20.9085 23.2564 20.1988 23.3662 19.5066 23.2548C18.8144 23.1434 18.1749 22.8166 17.6791 22.3208C17.1833 21.825 16.8565 21.1856 16.7451 20.4933C16.6338 19.8011 16.7435 19.0914 17.0587 18.4651C17.3739 17.8389 17.8786 17.328 18.5009 17.005C19.1232 16.6821 19.8315 16.5637 20.5251 16.6665C21.2325 16.7714 21.8875 17.1011 22.3932 17.6068C22.8989 18.1125 23.2285 18.7674 23.3334 19.4748Z" stroke="white" stroke-linecap="round" stroke-linejoin="round"/>
</svg>
