<svg width="40" height="40" viewBox="0 0 40 40" fill="none" xmlns="http://www.w3.org/2000/svg">
<rect width="40" height="40" rx="20" fill="#40398B"/>
<rect x="0.25" y="0.25" width="39.5" height="39.5" rx="19.75" stroke="white" stroke-opacity="0.24" stroke-width="0.5"/>
<path d="M23.3334 16.6665C24.6595 16.6665 25.9313 17.1933 26.8689 18.131C27.8066 19.0687 28.3334 20.3404 28.3334 21.6665V27.4998H25.0001V21.6665C25.0001 21.2245 24.8245 20.8006 24.5119 20.488C24.1994 20.1754 23.7754 19.9998 23.3334 19.9998C22.8914 19.9998 22.4675 20.1754 22.1549 20.488C21.8423 20.8006 21.6667 21.2245 21.6667 21.6665V27.4998H18.3334V21.6665C18.3334 20.3404 18.8602 19.0687 19.7979 18.131C20.7356 17.1933 22.0073 16.6665 23.3334 16.6665Z" stroke="white" stroke-linecap="round" stroke-linejoin="round"/>
<path d="M15.0001 17.4998H11.6667V27.4998H15.0001V17.4998Z" stroke="white" stroke-linecap="round" stroke-linejoin="round"/>
<path d="M13.3334 14.9998C14.2539 14.9998 15.0001 14.2536 15.0001 13.3332C15.0001 12.4127 14.2539 11.6665 13.3334 11.6665C12.4129 11.6665 11.6667 12.4127 11.6667 13.3332C11.6667 14.2536 12.4129 14.9998 13.3334 14.9998Z" stroke="white" stroke-linecap="round" stroke-linejoin="round"/>
</svg>
