<svg width="390" height="69" viewBox="0 0 390 69" fill="none" xmlns="http://www.w3.org/2000/svg">
<g filter="url(#filter0_d_1102_3943)">
<path d="M2.00828 5.99894C2.00886 3.23793 4.24727 1 7.00828 1H383C385.761 1 388 3.23858 388 6V39.8856C388 42.9756 385.653 45.5603 382.578 45.8578L196.925 63.8138C195.645 63.9376 194.355 63.9376 193.075 63.8138L7.42356 45.8579C4.34745 45.5604 2.00052 42.975 2.00117 39.8845L2.00828 5.99894Z" fill="#342E72"/>
<path d="M383 0.5C386.038 0.5 388.5 2.96243 388.5 6V39.8857C388.5 43.2331 385.958 46.0331 382.626 46.3555L196.974 64.3115C195.661 64.4385 194.339 64.4385 193.026 64.3115L7.375 46.3555C4.04289 46.033 1.50046 43.2325 1.50098 39.8848L1.50781 5.99902C1.50845 2.96206 3.97091 0.500253 7.00781 0.5H383Z" stroke="black"/>
</g>
<path d="M7.02609 1.5H382.974C385.459 1.5 387.473 3.51357 387.474 5.99805L387.489 36.9717C387.49 39.2869 385.734 41.2254 383.429 41.4521L196.91 59.8096C195.64 59.9346 194.361 59.9345 193.091 59.8096L6.57101 41.4521C4.26688 41.2254 2.51053 39.2869 2.51144 36.9717L2.52609 5.99805C2.52721 3.59114 4.41763 1.62619 6.79465 1.50586L7.02609 1.5Z" fill="url(#paint0_linear_1102_3943)"/>
<path d="M7.02609 1.5H382.974C385.459 1.5 387.473 3.51357 387.474 5.99805L387.489 36.9717C387.49 39.2869 385.734 41.2254 383.429 41.4521L196.91 59.8096C195.64 59.9346 194.361 59.9345 193.091 59.8096L6.57101 41.4521C4.26688 41.2254 2.51053 39.2869 2.51144 36.9717L2.52609 5.99805C2.52721 3.59114 4.41763 1.62619 6.79465 1.50586L7.02609 1.5Z" stroke="#D2BFFF" style="mix-blend-mode:hard-light"/>
<path style="mix-blend-mode:hard-light" d="M383.037 2.16602C385.245 2.16602 387.036 3.95575 387.037 6.16406L387.04 13.3271C349.487 17.8027 277.561 20.833 195 20.833C112.438 20.833 40.5114 17.8028 2.95898 13.3271L2.96289 6.16406C2.96406 3.95575 4.75458 2.16602 6.96289 2.16602H383.037Z" fill="url(#paint1_radial_1102_3943)" fill-opacity="0.25"/>
<g filter="url(#filter1_ddd_1102_3943)">
<mask id="path-5-outside-1_1102_3943" maskUnits="userSpaceOnUse" x="100" y="16.4414" width="191" height="20" fill="black">
<rect fill="white" x="100" y="16.4414" width="191" height="20"/>
<path d="M106.56 34.8014C104.656 34.8014 102.912 34.4894 101.328 33.8654L102.168 30.3614C102.792 30.6014 103.456 30.7934 104.16 30.9374C104.88 31.0654 105.552 31.1294 106.176 31.1294C107.104 31.1294 107.768 31.0094 108.168 30.7694C108.584 30.5294 108.792 30.1374 108.792 29.5934C108.792 28.9374 108.424 28.5374 107.688 28.3934L105.552 27.9614C102.896 27.4174 101.568 25.8254 101.568 23.1854C101.568 21.5374 102.112 20.2494 103.2 19.3214C104.288 18.3774 105.784 17.9054 107.688 17.9054C109.592 17.9054 111.288 18.1934 112.776 18.7694L111.912 22.2014C110.808 21.7694 109.512 21.5534 108.024 21.5534C106.552 21.5534 105.816 22.0094 105.816 22.9214C105.816 23.5934 106.24 24.0094 107.088 24.1694L108.912 24.5294C110.384 24.8334 111.464 25.3774 112.152 26.1614C112.856 26.9454 113.208 28.0254 113.208 29.4014C113.208 31.2254 112.664 32.5854 111.576 33.4814C110.488 34.3614 108.816 34.8014 106.56 34.8014ZM118.016 34.4414V21.9134H114.056V18.2654H126.584V21.9134H122.624V34.4414H118.016ZM125.849 34.4414L130.409 18.2654H136.505L141.209 34.4414H136.673L135.929 31.4654H130.985L130.241 34.4414H125.849ZM131.753 28.3214H135.137L133.457 21.5054L131.753 28.3214ZM144.871 34.4414V29.1614L139.615 18.2654H144.247L147.247 24.6734L150.271 18.2654H154.615L149.479 28.6814V34.4414H144.871ZM166.842 34.8014C161.754 34.8014 159.21 32.0254 159.21 26.4734C159.21 23.6894 159.866 21.5694 161.178 20.1134C162.506 18.6414 164.426 17.9054 166.938 17.9054C167.674 17.9054 168.394 17.9694 169.098 18.0974C169.818 18.2254 170.466 18.4094 171.042 18.6494L170.25 22.0094C169.738 21.8654 169.25 21.7534 168.786 21.6734C168.322 21.5934 167.906 21.5534 167.538 21.5534C166.322 21.5534 165.426 21.9614 164.85 22.7774C164.29 23.5774 164.01 24.8334 164.01 26.5454C164.01 28.1774 164.29 29.3534 164.85 30.0734C165.41 30.7934 166.322 31.1534 167.586 31.1534C168.018 31.1534 168.474 31.1134 168.954 31.0334C169.45 30.9534 169.946 30.8414 170.442 30.6974L171.234 34.0334C170.722 34.2734 170.074 34.4574 169.29 34.5854C168.522 34.7294 167.706 34.8014 166.842 34.8014ZM179.294 34.8014C176.878 34.8014 175.038 34.0814 173.774 32.6414C172.51 31.2014 171.878 29.1054 171.878 26.3534C171.878 23.6014 172.51 21.5054 173.774 20.0654C175.038 18.6254 176.878 17.9054 179.294 17.9054C181.71 17.9054 183.55 18.6254 184.814 20.0654C186.078 21.5054 186.71 23.6014 186.71 26.3534C186.71 29.1054 186.078 31.2014 184.814 32.6414C183.55 34.0814 181.71 34.8014 179.294 34.8014ZM179.294 31.1534C180.238 31.1534 180.91 30.7934 181.31 30.0734C181.71 29.3374 181.91 28.0974 181.91 26.3534C181.91 24.6094 181.71 23.3774 181.31 22.6574C180.91 21.9214 180.238 21.5534 179.294 21.5534C178.35 21.5534 177.678 21.9214 177.278 22.6574C176.878 23.3774 176.678 24.6094 176.678 26.3534C176.678 28.0974 176.878 29.3374 177.278 30.0734C177.678 30.7934 178.35 31.1534 179.294 31.1534ZM188.899 34.4414V18.2654H193.699L198.907 28.3934V18.2654H202.915V34.4414H198.115L192.907 24.3134V34.4414H188.899ZM205.786 34.4414V18.2654H210.586L215.794 28.3934V18.2654H219.802V34.4414H215.002L209.794 24.3134V34.4414H205.786ZM222.673 34.4414V18.2654H233.521V21.7694H227.113V24.5054H232.297V28.0094H227.113V30.9374H233.617V34.4414H222.673ZM242.442 34.8014C237.354 34.8014 234.81 32.0254 234.81 26.4734C234.81 23.6894 235.466 21.5694 236.778 20.1134C238.106 18.6414 240.026 17.9054 242.538 17.9054C243.274 17.9054 243.994 17.9694 244.698 18.0974C245.418 18.2254 246.066 18.4094 246.642 18.6494L245.85 22.0094C245.338 21.8654 244.85 21.7534 244.386 21.6734C243.922 21.5934 243.506 21.5534 243.138 21.5534C241.922 21.5534 241.026 21.9614 240.45 22.7774C239.89 23.5774 239.61 24.8334 239.61 26.5454C239.61 28.1774 239.89 29.3534 240.45 30.0734C241.01 30.7934 241.922 31.1534 243.186 31.1534C243.618 31.1534 244.074 31.1134 244.554 31.0334C245.05 30.9534 245.546 30.8414 246.042 30.6974L246.834 34.0334C246.322 34.2734 245.674 34.4574 244.89 34.5854C244.122 34.7294 243.306 34.8014 242.442 34.8014ZM251.451 34.4414V21.9134H247.491V18.2654H260.019V21.9134H256.059V34.4414H251.451ZM261.757 34.4414V18.2654H272.605V21.7694H266.197V24.5054H271.381V28.0094H266.197V30.9374H272.701V34.4414H261.757ZM275.128 34.4414V18.2654H281.008C286.432 18.2654 289.144 20.9694 289.144 26.3774C289.144 29.0334 288.456 31.0414 287.08 32.4014C285.72 33.7614 283.696 34.4414 281.008 34.4414H275.128ZM280.96 21.8174H279.712V30.8894H280.96C282.208 30.8894 283.088 30.5454 283.6 29.8574C284.112 29.1694 284.368 28.0014 284.368 26.3534C284.368 24.6894 284.112 23.5214 283.6 22.8494C283.088 22.1614 282.208 21.8174 280.96 21.8174Z"/>
</mask>
<path d="M106.56 34.8014C104.656 34.8014 102.912 34.4894 101.328 33.8654L102.168 30.3614C102.792 30.6014 103.456 30.7934 104.16 30.9374C104.88 31.0654 105.552 31.1294 106.176 31.1294C107.104 31.1294 107.768 31.0094 108.168 30.7694C108.584 30.5294 108.792 30.1374 108.792 29.5934C108.792 28.9374 108.424 28.5374 107.688 28.3934L105.552 27.9614C102.896 27.4174 101.568 25.8254 101.568 23.1854C101.568 21.5374 102.112 20.2494 103.2 19.3214C104.288 18.3774 105.784 17.9054 107.688 17.9054C109.592 17.9054 111.288 18.1934 112.776 18.7694L111.912 22.2014C110.808 21.7694 109.512 21.5534 108.024 21.5534C106.552 21.5534 105.816 22.0094 105.816 22.9214C105.816 23.5934 106.24 24.0094 107.088 24.1694L108.912 24.5294C110.384 24.8334 111.464 25.3774 112.152 26.1614C112.856 26.9454 113.208 28.0254 113.208 29.4014C113.208 31.2254 112.664 32.5854 111.576 33.4814C110.488 34.3614 108.816 34.8014 106.56 34.8014ZM118.016 34.4414V21.9134H114.056V18.2654H126.584V21.9134H122.624V34.4414H118.016ZM125.849 34.4414L130.409 18.2654H136.505L141.209 34.4414H136.673L135.929 31.4654H130.985L130.241 34.4414H125.849ZM131.753 28.3214H135.137L133.457 21.5054L131.753 28.3214ZM144.871 34.4414V29.1614L139.615 18.2654H144.247L147.247 24.6734L150.271 18.2654H154.615L149.479 28.6814V34.4414H144.871ZM166.842 34.8014C161.754 34.8014 159.21 32.0254 159.21 26.4734C159.21 23.6894 159.866 21.5694 161.178 20.1134C162.506 18.6414 164.426 17.9054 166.938 17.9054C167.674 17.9054 168.394 17.9694 169.098 18.0974C169.818 18.2254 170.466 18.4094 171.042 18.6494L170.25 22.0094C169.738 21.8654 169.25 21.7534 168.786 21.6734C168.322 21.5934 167.906 21.5534 167.538 21.5534C166.322 21.5534 165.426 21.9614 164.85 22.7774C164.29 23.5774 164.01 24.8334 164.01 26.5454C164.01 28.1774 164.29 29.3534 164.85 30.0734C165.41 30.7934 166.322 31.1534 167.586 31.1534C168.018 31.1534 168.474 31.1134 168.954 31.0334C169.45 30.9534 169.946 30.8414 170.442 30.6974L171.234 34.0334C170.722 34.2734 170.074 34.4574 169.29 34.5854C168.522 34.7294 167.706 34.8014 166.842 34.8014ZM179.294 34.8014C176.878 34.8014 175.038 34.0814 173.774 32.6414C172.51 31.2014 171.878 29.1054 171.878 26.3534C171.878 23.6014 172.51 21.5054 173.774 20.0654C175.038 18.6254 176.878 17.9054 179.294 17.9054C181.71 17.9054 183.55 18.6254 184.814 20.0654C186.078 21.5054 186.71 23.6014 186.71 26.3534C186.71 29.1054 186.078 31.2014 184.814 32.6414C183.55 34.0814 181.71 34.8014 179.294 34.8014ZM179.294 31.1534C180.238 31.1534 180.91 30.7934 181.31 30.0734C181.71 29.3374 181.91 28.0974 181.91 26.3534C181.91 24.6094 181.71 23.3774 181.31 22.6574C180.91 21.9214 180.238 21.5534 179.294 21.5534C178.35 21.5534 177.678 21.9214 177.278 22.6574C176.878 23.3774 176.678 24.6094 176.678 26.3534C176.678 28.0974 176.878 29.3374 177.278 30.0734C177.678 30.7934 178.35 31.1534 179.294 31.1534ZM188.899 34.4414V18.2654H193.699L198.907 28.3934V18.2654H202.915V34.4414H198.115L192.907 24.3134V34.4414H188.899ZM205.786 34.4414V18.2654H210.586L215.794 28.3934V18.2654H219.802V34.4414H215.002L209.794 24.3134V34.4414H205.786ZM222.673 34.4414V18.2654H233.521V21.7694H227.113V24.5054H232.297V28.0094H227.113V30.9374H233.617V34.4414H222.673ZM242.442 34.8014C237.354 34.8014 234.81 32.0254 234.81 26.4734C234.81 23.6894 235.466 21.5694 236.778 20.1134C238.106 18.6414 240.026 17.9054 242.538 17.9054C243.274 17.9054 243.994 17.9694 244.698 18.0974C245.418 18.2254 246.066 18.4094 246.642 18.6494L245.85 22.0094C245.338 21.8654 244.85 21.7534 244.386 21.6734C243.922 21.5934 243.506 21.5534 243.138 21.5534C241.922 21.5534 241.026 21.9614 240.45 22.7774C239.89 23.5774 239.61 24.8334 239.61 26.5454C239.61 28.1774 239.89 29.3534 240.45 30.0734C241.01 30.7934 241.922 31.1534 243.186 31.1534C243.618 31.1534 244.074 31.1134 244.554 31.0334C245.05 30.9534 245.546 30.8414 246.042 30.6974L246.834 34.0334C246.322 34.2734 245.674 34.4574 244.89 34.5854C244.122 34.7294 243.306 34.8014 242.442 34.8014ZM251.451 34.4414V21.9134H247.491V18.2654H260.019V21.9134H256.059V34.4414H251.451ZM261.757 34.4414V18.2654H272.605V21.7694H266.197V24.5054H271.381V28.0094H266.197V30.9374H272.701V34.4414H261.757ZM275.128 34.4414V18.2654H281.008C286.432 18.2654 289.144 20.9694 289.144 26.3774C289.144 29.0334 288.456 31.0414 287.08 32.4014C285.72 33.7614 283.696 34.4414 281.008 34.4414H275.128ZM280.96 21.8174H279.712V30.8894H280.96C282.208 30.8894 283.088 30.5454 283.6 29.8574C284.112 29.1694 284.368 28.0014 284.368 26.3534C284.368 24.6894 284.112 23.5214 283.6 22.8494C283.088 22.1614 282.208 21.8174 280.96 21.8174Z" fill="white"/>
<path d="M101.328 33.8654L100.34 33.6286L100.135 34.4871L100.956 34.8107L101.328 33.8654ZM102.168 30.3614L102.533 29.4131L101.451 28.9968L101.18 30.1246L102.168 30.3614ZM104.16 30.9374L103.957 31.9328L103.97 31.9354L103.983 31.9377L104.16 30.9374ZM108.168 30.7694L107.661 29.8894L107.653 29.8937L107.646 29.8982L108.168 30.7694ZM107.688 28.3934L107.487 29.3893L107.493 29.3905L107.688 28.3934ZM105.552 27.9614L105.349 28.9567L105.351 28.9572L105.552 27.9614ZM103.2 19.3214L103.86 20.0944L103.866 20.0888L103.2 19.3214ZM112.776 18.7694L113.762 19.0174L113.981 18.1462L113.143 17.8219L112.776 18.7694ZM111.912 22.2014L111.542 23.1475L112.616 23.5678L112.898 22.4494L111.912 22.2014ZM107.088 24.1694L107.285 23.1726L107.277 23.171L107.088 24.1694ZM108.912 24.5294L109.118 23.5344L109.109 23.5326L108.912 24.5294ZM112.152 26.1614L111.389 26.8316L111.396 26.8402L112.152 26.1614ZM111.576 33.4814L112.215 34.2714L112.222 34.2657L111.576 33.4814ZM106.56 34.8014V33.7854C104.769 33.7854 103.153 33.4922 101.701 32.9201L101.328 33.8654L100.956 34.8107C102.672 35.4866 104.544 35.8174 106.56 35.8174V34.8014ZM101.328 33.8654L102.316 34.1023L103.156 30.5983L102.168 30.3614L101.18 30.1246L100.34 33.6286L101.328 33.8654ZM102.168 30.3614L101.804 31.3097C102.484 31.5712 103.202 31.7784 103.957 31.9328L104.16 30.9374L104.364 29.942C103.711 29.8084 103.101 29.6316 102.533 29.4131L102.168 30.3614ZM104.16 30.9374L103.983 31.9377C104.752 32.0744 105.484 32.1454 106.176 32.1454V31.1294V30.1134C105.621 30.1134 105.009 30.0564 104.338 29.9371L104.16 30.9374ZM106.176 31.1294V32.1454C107.139 32.1454 108.041 32.0305 108.691 31.6406L108.168 30.7694L107.646 29.8982C107.495 29.9883 107.07 30.1134 106.176 30.1134V31.1294ZM108.168 30.7694L108.676 31.6495C109.454 31.2008 109.808 30.4426 109.808 29.5934H108.792H107.776C107.776 29.7364 107.749 29.7994 107.739 29.8192C107.732 29.8328 107.718 29.8566 107.661 29.8894L108.168 30.7694ZM108.792 29.5934H109.808C109.808 29.0662 109.655 28.5383 109.264 28.1135C108.887 27.7037 108.385 27.4944 107.883 27.3963L107.688 28.3934L107.493 29.3905C107.728 29.4364 107.778 29.4991 107.769 29.4893C107.764 29.4842 107.762 29.479 107.764 29.4837C107.767 29.4915 107.776 29.524 107.776 29.5934H108.792ZM107.688 28.3934L107.89 27.3976L105.754 26.9656L105.552 27.9614L105.351 28.9572L107.487 29.3892L107.688 28.3934ZM105.552 27.9614L105.756 26.9661C104.584 26.726 103.821 26.2798 103.345 25.7086C102.871 25.1405 102.584 24.334 102.584 23.1854H101.568H100.552C100.552 24.6768 100.93 25.9863 101.784 27.0102C102.636 28.031 103.865 28.6529 105.349 28.9567L105.552 27.9614ZM101.568 23.1854H102.584C102.584 21.7844 103.034 20.7989 103.86 20.0944L103.2 19.3214L102.541 18.5484C101.191 19.6999 100.552 21.2904 100.552 23.1854H101.568ZM103.2 19.3214L103.866 20.0888C104.717 19.3507 105.949 18.9214 107.688 18.9214V17.9054V16.8894C105.62 16.8894 103.86 17.4041 102.535 18.554L103.2 19.3214ZM107.688 17.9054V18.9214C109.491 18.9214 111.059 19.194 112.41 19.7169L112.776 18.7694L113.143 17.8219C111.518 17.1928 109.694 16.8894 107.688 16.8894V17.9054ZM112.776 18.7694L111.791 18.5214L110.927 21.9534L111.912 22.2014L112.898 22.4494L113.762 19.0174L112.776 18.7694ZM111.912 22.2014L112.283 21.2553C111.035 20.767 109.608 20.5374 108.024 20.5374V21.5534V22.5694C109.417 22.5694 110.582 22.7718 111.542 23.1475L111.912 22.2014ZM108.024 21.5534V20.5374C107.216 20.5374 106.439 20.6566 105.833 21.0317C105.147 21.4566 104.8 22.1364 104.8 22.9214H105.816H106.832C106.832 22.8757 106.837 22.846 106.841 22.8291C106.845 22.8127 106.848 22.8058 106.849 22.8043C106.85 22.8029 106.851 22.8001 106.857 22.7946C106.862 22.7886 106.876 22.776 106.903 22.7591C107.034 22.6782 107.36 22.5694 108.024 22.5694V21.5534ZM105.816 22.9214H104.8C104.8 23.4911 104.99 24.0378 105.423 24.4626C105.83 24.8618 106.363 25.0666 106.9 25.1678L107.088 24.1694L107.277 23.171C106.965 23.1123 106.863 23.029 106.846 23.0122C106.842 23.0084 106.841 23.0071 106.842 23.0083C106.843 23.0095 106.843 23.01 106.843 23.0085C106.842 23.0064 106.832 22.982 106.832 22.9214H105.816ZM107.088 24.1694L106.892 25.1662L108.716 25.5262L108.912 24.5294L109.109 23.5326L107.285 23.1726L107.088 24.1694ZM108.912 24.5294L108.707 25.5244C110.055 25.8028 110.898 26.2727 111.389 26.8315L112.152 26.1614L112.916 25.4913C112.03 24.4821 110.714 23.8641 109.118 23.5344L108.912 24.5294ZM112.152 26.1614L111.396 26.8402C111.887 27.3866 112.192 28.1975 112.192 29.4014H113.208H114.224C114.224 27.8533 113.826 26.5042 112.908 25.4826L112.152 26.1614ZM113.208 29.4014H112.192C112.192 31.0181 111.719 32.0479 110.93 32.6971L111.576 33.4814L112.222 34.2657C113.61 33.1229 114.224 31.4327 114.224 29.4014H113.208ZM111.576 33.4814L110.937 32.6915C110.112 33.3593 108.716 33.7854 106.56 33.7854V34.8014V35.8174C108.916 35.8174 110.865 35.3636 112.215 34.2714L111.576 33.4814ZM118.016 34.4414H117V35.4574H118.016V34.4414ZM118.016 21.9134H119.032V20.8974H118.016V21.9134ZM114.056 21.9134H113.04V22.9294H114.056V21.9134ZM114.056 18.2654V17.2494H113.04V18.2654H114.056ZM126.584 18.2654H127.6V17.2494H126.584V18.2654ZM126.584 21.9134V22.9294H127.6V21.9134H126.584ZM122.624 21.9134V20.8974H121.608V21.9134H122.624ZM122.624 34.4414V35.4574H123.64V34.4414H122.624ZM118.016 34.4414H119.032V21.9134H118.016H117V34.4414H118.016ZM118.016 21.9134V20.8974H114.056V21.9134V22.9294H118.016V21.9134ZM114.056 21.9134H115.072V18.2654H114.056H113.04V21.9134H114.056ZM114.056 18.2654V19.2814H126.584V18.2654V17.2494H114.056V18.2654ZM126.584 18.2654H125.568V21.9134H126.584H127.6V18.2654H126.584ZM126.584 21.9134V20.8974H122.624V21.9134V22.9294H126.584V21.9134ZM122.624 21.9134H121.608V34.4414H122.624H123.64V21.9134H122.624ZM122.624 34.4414V33.4254H118.016V34.4414V35.4574H122.624V34.4414ZM125.849 34.4414L124.871 34.1657L124.507 35.4574H125.849V34.4414ZM130.409 18.2654V17.2494H129.64L129.431 17.9897L130.409 18.2654ZM136.505 18.2654L137.481 17.9817L137.268 17.2494H136.505V18.2654ZM141.209 34.4414V35.4574H142.563L142.185 34.1577L141.209 34.4414ZM136.673 34.4414L135.688 34.6878L135.88 35.4574H136.673V34.4414ZM135.929 31.4654L136.915 31.219L136.723 30.4494H135.929V31.4654ZM130.985 31.4654V30.4494H130.192L130 31.219L130.985 31.4654ZM130.241 34.4414V35.4574H131.035L131.227 34.6878L130.241 34.4414ZM131.753 28.3214L130.768 28.075L130.452 29.3374H131.753V28.3214ZM135.137 28.3214V29.3374H136.434L136.124 28.0783L135.137 28.3214ZM133.457 21.5054L134.444 21.2623L132.472 21.259L133.457 21.5054ZM125.849 34.4414L126.827 34.7171L131.387 18.5411L130.409 18.2654L129.431 17.9897L124.871 34.1657L125.849 34.4414ZM130.409 18.2654V19.2814H136.505V18.2654V17.2494H130.409V18.2654ZM136.505 18.2654L135.53 18.5491L140.234 34.7251L141.209 34.4414L142.185 34.1577L137.481 17.9817L136.505 18.2654ZM141.209 34.4414V33.4254H136.673V34.4414V35.4574H141.209V34.4414ZM136.673 34.4414L137.659 34.195L136.915 31.219L135.929 31.4654L134.944 31.7118L135.688 34.6878L136.673 34.4414ZM135.929 31.4654V30.4494H130.985V31.4654V32.4814H135.929V31.4654ZM130.985 31.4654L130 31.219L129.256 34.195L130.241 34.4414L131.227 34.6878L131.971 31.7118L130.985 31.4654ZM130.241 34.4414V33.4254H125.849V34.4414V35.4574H130.241V34.4414ZM131.753 28.3214V29.3374H135.137V28.3214V27.3054H131.753V28.3214ZM135.137 28.3214L136.124 28.0783L134.444 21.2623L133.457 21.5054L132.471 21.7486L134.151 28.5646L135.137 28.3214ZM133.457 21.5054L132.472 21.259L130.768 28.075L131.753 28.3214L132.739 28.5678L134.443 21.7518L133.457 21.5054ZM144.871 34.4414H143.855V35.4574H144.871V34.4414ZM144.871 29.1614H145.887V28.9292L145.786 28.72L144.871 29.1614ZM139.615 18.2654V17.2494H137.997L138.7 18.7068L139.615 18.2654ZM144.247 18.2654L145.167 17.8346L144.893 17.2494H144.247V18.2654ZM147.247 24.6734L146.327 25.1042L147.244 27.0618L148.166 25.107L147.247 24.6734ZM150.271 18.2654V17.2494H149.627L149.352 17.8318L150.271 18.2654ZM154.615 18.2654L155.527 18.7147L156.249 17.2494H154.615V18.2654ZM149.479 28.6814L148.568 28.2321L148.463 28.4445V28.6814H149.479ZM149.479 34.4414V35.4574H150.495V34.4414H149.479ZM144.871 34.4414H145.887V29.1614H144.871H143.855V34.4414H144.871ZM144.871 29.1614L145.786 28.72L140.53 17.824L139.615 18.2654L138.7 18.7068L143.956 29.6028L144.871 29.1614ZM139.615 18.2654V19.2814H144.247V18.2654V17.2494H139.615V18.2654ZM144.247 18.2654L143.327 18.6962L146.327 25.1042L147.247 24.6734L148.167 24.2426L145.167 17.8346L144.247 18.2654ZM147.247 24.6734L148.166 25.107L151.19 18.699L150.271 18.2654L149.352 17.8318L146.328 24.2398L147.247 24.6734ZM150.271 18.2654V19.2814H154.615V18.2654V17.2494H150.271V18.2654ZM154.615 18.2654L153.704 17.8161L148.568 28.2321L149.479 28.6814L150.391 29.1307L155.527 18.7147L154.615 18.2654ZM149.479 28.6814H148.463V34.4414H149.479H150.495V28.6814H149.479ZM149.479 34.4414V33.4254H144.871V34.4414V35.4574H149.479V34.4414ZM161.178 20.1134L160.423 19.4328L160.423 19.4333L161.178 20.1134ZM169.098 18.0974L168.916 19.097L168.92 19.0977L169.098 18.0974ZM171.042 18.6494L172.031 18.8825L172.228 18.0432L171.432 17.7116L171.042 18.6494ZM170.25 22.0094L169.975 22.9875L170.995 23.2745L171.239 22.2425L170.25 22.0094ZM168.786 21.6734L168.958 20.6722L168.786 21.6734ZM164.85 22.7774L164.02 22.1915L164.017 22.1948L164.85 22.7774ZM164.85 30.0734L165.652 29.4496L164.85 30.0734ZM168.954 31.0334L168.792 30.0304L168.787 30.0312L168.954 31.0334ZM170.442 30.6974L171.43 30.4627L171.184 29.4241L170.158 29.7217L170.442 30.6974ZM171.234 34.0334L171.665 34.9534L172.413 34.6027L172.222 33.7987L171.234 34.0334ZM169.29 34.5854L169.126 33.5827L169.114 33.5846L169.102 33.5868L169.29 34.5854ZM166.842 34.8014V33.7854C164.478 33.7854 162.886 33.1448 161.867 32.033C160.832 30.9044 160.226 29.1137 160.226 26.4734H159.21H158.194C158.194 29.3851 158.859 31.7584 160.369 33.4058C161.894 35.0701 164.117 35.8174 166.842 35.8174V34.8014ZM159.21 26.4734H160.226C160.226 23.8356 160.848 21.9974 161.932 20.7935L161.178 20.1134L160.423 19.4333C158.884 21.1414 158.194 23.5432 158.194 26.4734H159.21ZM161.178 20.1134L161.932 20.794C163.018 19.5897 164.631 18.9214 166.938 18.9214V17.9054V16.8894C164.22 16.8894 161.993 17.6931 160.423 19.4328L161.178 20.1134ZM166.938 17.9054V18.9214C167.614 18.9214 168.274 18.9802 168.916 19.097L169.098 18.0974L169.279 17.0978C168.514 16.9586 167.733 16.8894 166.938 16.8894V17.9054ZM169.098 18.0974L168.92 19.0977C169.579 19.2149 170.154 19.3802 170.651 19.5873L171.042 18.6494L171.432 17.7116C170.777 17.4386 170.056 17.2359 169.275 17.0971L169.098 18.0974ZM171.042 18.6494L170.053 18.4163L169.261 21.7763L170.25 22.0094L171.239 22.2425L172.031 18.8825L171.042 18.6494ZM170.25 22.0094L170.525 21.0314C169.983 20.8791 169.461 20.7588 168.958 20.6722L168.786 21.6734L168.613 22.6746C169.038 22.748 169.492 22.8518 169.975 22.9875L170.25 22.0094ZM168.786 21.6734L168.958 20.6722C168.452 20.5849 167.977 20.5374 167.538 20.5374V21.5534V22.5694C167.834 22.5694 168.191 22.6019 168.613 22.6746L168.786 21.6734ZM167.538 21.5534V20.5374C166.073 20.5374 164.828 21.0456 164.02 22.1915L164.85 22.7774L165.68 23.3633C166.023 22.8772 166.571 22.5694 167.538 22.5694V21.5534ZM164.85 22.7774L164.017 22.1948C163.277 23.2519 162.994 24.7636 162.994 26.5454H164.01H165.026C165.026 24.9032 165.302 23.9029 165.682 23.36L164.85 22.7774ZM164.01 26.5454H162.994C162.994 28.2454 163.276 29.705 164.048 30.6972L164.85 30.0734L165.652 29.4496C165.303 29.0018 165.026 28.1094 165.026 26.5454H164.01ZM164.85 30.0734L164.048 30.6972C164.867 31.7509 166.137 32.1694 167.586 32.1694V31.1534V30.1374C166.507 30.1374 165.952 29.8359 165.652 29.4496L164.85 30.0734ZM167.586 31.1534V32.1694C168.08 32.1694 168.592 32.1236 169.121 32.0356L168.954 31.0334L168.787 30.0312C168.355 30.1032 167.955 30.1374 167.586 30.1374V31.1534ZM168.954 31.0334L169.115 32.0364C169.654 31.9496 170.19 31.8284 170.725 31.6731L170.442 30.6974L170.158 29.7217C169.701 29.8544 169.246 29.9572 168.792 30.0304L168.954 31.0334ZM170.442 30.6974L169.453 30.9321L170.245 34.2681L171.234 34.0334L172.222 33.7987L171.43 30.4627L170.442 30.6974ZM171.234 34.0334L170.802 33.1135C170.402 33.3012 169.852 33.4642 169.126 33.5827L169.29 34.5854L169.453 35.5881C170.296 35.4506 171.041 35.2456 171.665 34.9534L171.234 34.0334ZM169.29 34.5854L169.102 33.5868C168.402 33.7181 167.649 33.7854 166.842 33.7854V34.8014V35.8174C167.762 35.8174 168.641 35.7407 169.477 35.584L169.29 34.5854ZM173.774 32.6414L173.011 33.3116L173.774 32.6414ZM173.774 20.0654L173.011 19.3952L173.774 20.0654ZM184.814 20.0654L185.578 19.3952L184.814 20.0654ZM181.31 30.0734L182.198 30.5668L182.203 30.5586L181.31 30.0734ZM181.31 22.6574L180.417 23.1426L180.422 23.1508L181.31 22.6574ZM177.278 22.6574L178.166 23.1508L178.171 23.1426L177.278 22.6574ZM177.278 30.0734L176.385 30.5586L176.39 30.5668L177.278 30.0734ZM179.294 34.8014V33.7854C177.088 33.7854 175.56 33.1364 174.538 31.9712L173.774 32.6414L173.011 33.3116C174.516 35.0264 176.668 35.8174 179.294 35.8174V34.8014ZM173.774 32.6414L174.538 31.9712C173.495 30.7832 172.894 28.9649 172.894 26.3534H171.878H170.862C170.862 29.2459 171.525 31.6196 173.011 33.3116L173.774 32.6414ZM171.878 26.3534H172.894C172.894 23.7419 173.495 21.9236 174.538 20.7356L173.774 20.0654L173.011 19.3952C171.525 21.0872 170.862 23.4609 170.862 26.3534H171.878ZM173.774 20.0654L174.538 20.7356C175.56 19.5704 177.088 18.9214 179.294 18.9214V17.9054V16.8894C176.668 16.8894 174.516 17.6804 173.011 19.3952L173.774 20.0654ZM179.294 17.9054V18.9214C181.5 18.9214 183.028 19.5704 184.051 20.7356L184.814 20.0654L185.578 19.3952C184.072 17.6804 181.92 16.8894 179.294 16.8894V17.9054ZM184.814 20.0654L184.051 20.7356C185.093 21.9236 185.694 23.7419 185.694 26.3534H186.71H187.726C187.726 23.4609 187.063 21.0872 185.578 19.3952L184.814 20.0654ZM186.71 26.3534H185.694C185.694 28.9649 185.093 30.7832 184.051 31.9712L184.814 32.6414L185.578 33.3116C187.063 31.6196 187.726 29.2459 187.726 26.3534H186.71ZM184.814 32.6414L184.051 31.9712C183.028 33.1364 181.5 33.7854 179.294 33.7854V34.8014V35.8174C181.92 35.8174 184.072 35.0264 185.578 33.3116L184.814 32.6414ZM179.294 31.1534V32.1694C180.542 32.1694 181.59 31.6625 182.198 30.5668L181.31 30.0734L180.422 29.58C180.231 29.9243 179.934 30.1374 179.294 30.1374V31.1534ZM181.31 30.0734L182.203 30.5586C182.733 29.5836 182.926 28.1209 182.926 26.3534H181.91H180.894C180.894 28.0739 180.688 29.0912 180.417 29.5883L181.31 30.0734ZM181.91 26.3534H182.926C182.926 24.5893 182.734 23.1278 182.198 22.164L181.31 22.6574L180.422 23.1508C180.686 23.627 180.894 24.6295 180.894 26.3534H181.91ZM181.31 22.6574L182.203 22.1723C181.599 21.0614 180.553 20.5374 179.294 20.5374V21.5534V22.5694C179.923 22.5694 180.221 22.7814 180.417 23.1426L181.31 22.6574ZM179.294 21.5534V20.5374C178.035 20.5374 176.989 21.0614 176.385 22.1723L177.278 22.6574L178.171 23.1426C178.367 22.7814 178.665 22.5694 179.294 22.5694V21.5534ZM177.278 22.6574L176.39 22.164C175.854 23.1278 175.662 24.5893 175.662 26.3534H176.678H177.694C177.694 24.6295 177.902 23.627 178.166 23.1508L177.278 22.6574ZM176.678 26.3534H175.662C175.662 28.1209 175.856 29.5836 176.385 30.5586L177.278 30.0734L178.171 29.5883C177.901 29.0912 177.694 28.0739 177.694 26.3534H176.678ZM177.278 30.0734L176.39 30.5668C176.999 31.6625 178.046 32.1694 179.294 32.1694V31.1534V30.1374C178.654 30.1374 178.358 29.9243 178.166 29.58L177.278 30.0734ZM188.899 34.4414H187.883V35.4574H188.899V34.4414ZM188.899 18.2654V17.2494H187.883V18.2654H188.899ZM193.699 18.2654L194.602 17.8008L194.319 17.2494H193.699V18.2654ZM198.907 28.3934L198.003 28.858L199.923 28.3934H198.907ZM198.907 18.2654V17.2494H197.891V18.2654H198.907ZM202.915 18.2654H203.931V17.2494H202.915V18.2654ZM202.915 34.4414V35.4574H203.931V34.4414H202.915ZM198.115 34.4414L197.211 34.906L197.495 35.4574H198.115V34.4414ZM192.907 24.3134L193.81 23.8488L191.891 24.3134H192.907ZM192.907 34.4414V35.4574H193.923V34.4414H192.907ZM188.899 34.4414H189.915V18.2654H188.899H187.883V34.4414H188.899ZM188.899 18.2654V19.2814H193.699V18.2654V17.2494H188.899V18.2654ZM193.699 18.2654L192.795 18.73L198.003 28.858L198.907 28.3934L199.81 27.9288L194.602 17.8008L193.699 18.2654ZM198.907 28.3934H199.923V18.2654H198.907H197.891V28.3934H198.907ZM198.907 18.2654V19.2814H202.915V18.2654V17.2494H198.907V18.2654ZM202.915 18.2654H201.899V34.4414H202.915H203.931V18.2654H202.915ZM202.915 34.4414V33.4254H198.115V34.4414V35.4574H202.915V34.4414ZM198.115 34.4414L199.018 33.9768L193.81 23.8488L192.907 24.3134L192.003 24.778L197.211 34.906L198.115 34.4414ZM192.907 24.3134H191.891V34.4414H192.907H193.923V24.3134H192.907ZM192.907 34.4414V33.4254H188.899V34.4414V35.4574H192.907V34.4414ZM205.786 34.4414H204.77V35.4574H205.786V34.4414ZM205.786 18.2654V17.2494H204.77V18.2654H205.786ZM210.586 18.2654L211.489 17.8008L211.206 17.2494H210.586V18.2654ZM215.794 28.3934L214.89 28.858L216.81 28.3934H215.794ZM215.794 18.2654V17.2494H214.778V18.2654H215.794ZM219.802 18.2654H220.818V17.2494H219.802V18.2654ZM219.802 34.4414V35.4574H220.818V34.4414H219.802ZM215.002 34.4414L214.098 34.906L214.382 35.4574H215.002V34.4414ZM209.794 24.3134L210.697 23.8488L208.778 24.3134H209.794ZM209.794 34.4414V35.4574H210.81V34.4414H209.794ZM205.786 34.4414H206.802V18.2654H205.786H204.77V34.4414H205.786ZM205.786 18.2654V19.2814H210.586V18.2654V17.2494H205.786V18.2654ZM210.586 18.2654L209.682 18.73L214.89 28.858L215.794 28.3934L216.697 27.9288L211.489 17.8008L210.586 18.2654ZM215.794 28.3934H216.81V18.2654H215.794H214.778V28.3934H215.794ZM215.794 18.2654V19.2814H219.802V18.2654V17.2494H215.794V18.2654ZM219.802 18.2654H218.786V34.4414H219.802H220.818V18.2654H219.802ZM219.802 34.4414V33.4254H215.002V34.4414V35.4574H219.802V34.4414ZM215.002 34.4414L215.905 33.9768L210.697 23.8488L209.794 24.3134L208.89 24.778L214.098 34.906L215.002 34.4414ZM209.794 24.3134H208.778V34.4414H209.794H210.81V24.3134H209.794ZM209.794 34.4414V33.4254H205.786V34.4414V35.4574H209.794V34.4414ZM222.673 34.4414H221.657V35.4574H222.673V34.4414ZM222.673 18.2654V17.2494H221.657V18.2654H222.673ZM233.521 18.2654H234.537V17.2494H233.521V18.2654ZM233.521 21.7694V22.7854H234.537V21.7694H233.521ZM227.113 21.7694V20.7534H226.097V21.7694H227.113ZM227.113 24.5054H226.097V25.5214H227.113V24.5054ZM232.297 24.5054H233.313V23.4894H232.297V24.5054ZM232.297 28.0094V29.0254H233.313V28.0094H232.297ZM227.113 28.0094V26.9934H226.097V28.0094H227.113ZM227.113 30.9374H226.097V31.9534H227.113V30.9374ZM233.617 30.9374H234.633V29.9214H233.617V30.9374ZM233.617 34.4414V35.4574H234.633V34.4414H233.617ZM222.673 34.4414H223.689V18.2654H222.673H221.657V34.4414H222.673ZM222.673 18.2654V19.2814H233.521V18.2654V17.2494H222.673V18.2654ZM233.521 18.2654H232.505V21.7694H233.521H234.537V18.2654H233.521ZM233.521 21.7694V20.7534H227.113V21.7694V22.7854H233.521V21.7694ZM227.113 21.7694H226.097V24.5054H227.113H228.129V21.7694H227.113ZM227.113 24.5054V25.5214H232.297V24.5054V23.4894H227.113V24.5054ZM232.297 24.5054H231.281V28.0094H232.297H233.313V24.5054H232.297ZM232.297 28.0094V26.9934H227.113V28.0094V29.0254H232.297V28.0094ZM227.113 28.0094H226.097V30.9374H227.113H228.129V28.0094H227.113ZM227.113 30.9374V31.9534H233.617V30.9374V29.9214H227.113V30.9374ZM233.617 30.9374H232.601V34.4414H233.617H234.633V30.9374H233.617ZM233.617 34.4414V33.4254H222.673V34.4414V35.4574H233.617V34.4414ZM236.778 20.1134L236.023 19.4328L236.023 19.4333L236.778 20.1134ZM244.698 18.0974L244.516 19.097L244.52 19.0977L244.698 18.0974ZM246.642 18.6494L247.631 18.8825L247.828 18.0432L247.032 17.7116L246.642 18.6494ZM245.85 22.0094L245.575 22.9875L246.595 23.2745L246.839 22.2425L245.85 22.0094ZM244.386 21.6734L244.558 20.6722L244.386 21.6734ZM240.45 22.7774L239.62 22.1915L239.617 22.1948L240.45 22.7774ZM240.45 30.0734L241.252 29.4496L240.45 30.0734ZM244.554 31.0334L244.392 30.0304L244.387 30.0312L244.554 31.0334ZM246.042 30.6974L247.03 30.4627L246.784 29.4241L245.758 29.7217L246.042 30.6974ZM246.834 34.0334L247.265 34.9534L248.013 34.6027L247.822 33.7987L246.834 34.0334ZM244.89 34.5854L244.726 33.5827L244.714 33.5846L244.702 33.5868L244.89 34.5854ZM242.442 34.8014V33.7854C240.078 33.7854 238.486 33.1448 237.467 32.033C236.432 30.9044 235.826 29.1137 235.826 26.4734H234.81H233.794C233.794 29.3851 234.459 31.7584 235.969 33.4058C237.494 35.0701 239.717 35.8174 242.442 35.8174V34.8014ZM234.81 26.4734H235.826C235.826 23.8356 236.448 21.9974 237.532 20.7935L236.778 20.1134L236.023 19.4333C234.484 21.1414 233.794 23.5432 233.794 26.4734H234.81ZM236.778 20.1134L237.532 20.794C238.618 19.5897 240.231 18.9214 242.538 18.9214V17.9054V16.8894C239.82 16.8894 237.593 17.6931 236.023 19.4328L236.778 20.1134ZM242.538 17.9054V18.9214C243.214 18.9214 243.874 18.9802 244.516 19.097L244.698 18.0974L244.879 17.0978C244.114 16.9586 243.333 16.8894 242.538 16.8894V17.9054ZM244.698 18.0974L244.52 19.0977C245.179 19.2149 245.754 19.3802 246.251 19.5873L246.642 18.6494L247.032 17.7116C246.377 17.4386 245.656 17.2359 244.875 17.0971L244.698 18.0974ZM246.642 18.6494L245.653 18.4163L244.861 21.7763L245.85 22.0094L246.839 22.2425L247.631 18.8825L246.642 18.6494ZM245.85 22.0094L246.125 21.0314C245.583 20.8791 245.061 20.7588 244.558 20.6722L244.386 21.6734L244.213 22.6746C244.638 22.748 245.092 22.8518 245.575 22.9875L245.85 22.0094ZM244.386 21.6734L244.558 20.6722C244.052 20.5849 243.577 20.5374 243.138 20.5374V21.5534V22.5694C243.434 22.5694 243.791 22.6019 244.213 22.6746L244.386 21.6734ZM243.138 21.5534V20.5374C241.673 20.5374 240.428 21.0456 239.62 22.1915L240.45 22.7774L241.28 23.3633C241.623 22.8772 242.171 22.5694 243.138 22.5694V21.5534ZM240.45 22.7774L239.617 22.1948C238.877 23.2519 238.594 24.7636 238.594 26.5454H239.61H240.626C240.626 24.9032 240.902 23.9029 241.282 23.36L240.45 22.7774ZM239.61 26.5454H238.594C238.594 28.2454 238.876 29.705 239.648 30.6972L240.45 30.0734L241.252 29.4496C240.903 29.0018 240.626 28.1094 240.626 26.5454H239.61ZM240.45 30.0734L239.648 30.6972C240.467 31.7509 241.737 32.1694 243.186 32.1694V31.1534V30.1374C242.107 30.1374 241.552 29.8359 241.252 29.4496L240.45 30.0734ZM243.186 31.1534V32.1694C243.68 32.1694 244.192 32.1236 244.721 32.0356L244.554 31.0334L244.387 30.0312C243.955 30.1032 243.555 30.1374 243.186 30.1374V31.1534ZM244.554 31.0334L244.715 32.0364C245.254 31.9496 245.79 31.8284 246.325 31.6731L246.042 30.6974L245.758 29.7217C245.301 29.8544 244.846 29.9572 244.392 30.0304L244.554 31.0334ZM246.042 30.6974L245.053 30.9321L245.845 34.2681L246.834 34.0334L247.822 33.7987L247.03 30.4627L246.042 30.6974ZM246.834 34.0334L246.402 33.1135C246.002 33.3012 245.452 33.4642 244.726 33.5827L244.89 34.5854L245.053 35.5881C245.896 35.4506 246.641 35.2456 247.265 34.9534L246.834 34.0334ZM244.89 34.5854L244.702 33.5868C244.002 33.7181 243.249 33.7854 242.442 33.7854V34.8014V35.8174C243.362 35.8174 244.241 35.7407 245.077 35.584L244.89 34.5854ZM251.451 34.4414H250.435V35.4574H251.451V34.4414ZM251.451 21.9134H252.467V20.8974H251.451V21.9134ZM247.491 21.9134H246.475V22.9294H247.491V21.9134ZM247.491 18.2654V17.2494H246.475V18.2654H247.491ZM260.019 18.2654H261.035V17.2494H260.019V18.2654ZM260.019 21.9134V22.9294H261.035V21.9134H260.019ZM256.059 21.9134V20.8974H255.043V21.9134H256.059ZM256.059 34.4414V35.4574H257.075V34.4414H256.059ZM251.451 34.4414H252.467V21.9134H251.451H250.435V34.4414H251.451ZM251.451 21.9134V20.8974H247.491V21.9134V22.9294H251.451V21.9134ZM247.491 21.9134H248.507V18.2654H247.491H246.475V21.9134H247.491ZM247.491 18.2654V19.2814H260.019V18.2654V17.2494H247.491V18.2654ZM260.019 18.2654H259.003V21.9134H260.019H261.035V18.2654H260.019ZM260.019 21.9134V20.8974H256.059V21.9134V22.9294H260.019V21.9134ZM256.059 21.9134H255.043V34.4414H256.059H257.075V21.9134H256.059ZM256.059 34.4414V33.4254H251.451V34.4414V35.4574H256.059V34.4414ZM261.757 34.4414H260.741V35.4574H261.757V34.4414ZM261.757 18.2654V17.2494H260.741V18.2654H261.757ZM272.605 18.2654H273.621V17.2494H272.605V18.2654ZM272.605 21.7694V22.7854H273.621V21.7694H272.605ZM266.197 21.7694V20.7534H265.181V21.7694H266.197ZM266.197 24.5054H265.181V25.5214H266.197V24.5054ZM271.381 24.5054H272.397V23.4894H271.381V24.5054ZM271.381 28.0094V29.0254H272.397V28.0094H271.381ZM266.197 28.0094V26.9934H265.181V28.0094H266.197ZM266.197 30.9374H265.181V31.9534H266.197V30.9374ZM272.701 30.9374H273.717V29.9214H272.701V30.9374ZM272.701 34.4414V35.4574H273.717V34.4414H272.701ZM261.757 34.4414H262.773V18.2654H261.757H260.741V34.4414H261.757ZM261.757 18.2654V19.2814H272.605V18.2654V17.2494H261.757V18.2654ZM272.605 18.2654H271.589V21.7694H272.605H273.621V18.2654H272.605ZM272.605 21.7694V20.7534H266.197V21.7694V22.7854H272.605V21.7694ZM266.197 21.7694H265.181V24.5054H266.197H267.213V21.7694H266.197ZM266.197 24.5054V25.5214H271.381V24.5054V23.4894H266.197V24.5054ZM271.381 24.5054H270.365V28.0094H271.381H272.397V24.5054H271.381ZM271.381 28.0094V26.9934H266.197V28.0094V29.0254H271.381V28.0094ZM266.197 28.0094H265.181V30.9374H266.197H267.213V28.0094H266.197ZM266.197 30.9374V31.9534H272.701V30.9374V29.9214H266.197V30.9374ZM272.701 30.9374H271.685V34.4414H272.701H273.717V30.9374H272.701ZM272.701 34.4414V33.4254H261.757V34.4414V35.4574H272.701V34.4414ZM275.128 34.4414H274.112V35.4574H275.128V34.4414ZM275.128 18.2654V17.2494H274.112V18.2654H275.128ZM287.08 32.4014L286.366 31.6788L286.362 31.683L287.08 32.4014ZM279.712 21.8174V20.8014H278.696V21.8174H279.712ZM279.712 30.8894H278.696V31.9054H279.712V30.8894ZM283.6 29.8574L282.785 29.2508L283.6 29.8574ZM283.6 22.8494L282.785 23.456L282.792 23.4651L283.6 22.8494ZM275.128 34.4414H276.144V18.2654H275.128H274.112V34.4414H275.128ZM275.128 18.2654V19.2814H281.008V18.2654V17.2494H275.128V18.2654ZM281.008 18.2654V19.2814C283.564 19.2814 285.295 19.918 286.393 21.0129C287.49 22.1073 288.128 23.8308 288.128 26.3774H289.144H290.16C290.16 23.516 289.442 21.1836 287.827 19.5739C286.214 17.9648 283.876 17.2494 281.008 17.2494V18.2654ZM289.144 26.3774H288.128C288.128 28.8656 287.486 30.5719 286.366 31.6788L287.08 32.4014L287.794 33.124C289.426 31.5109 290.16 29.2012 290.16 26.3774H289.144ZM287.08 32.4014L286.362 31.683C285.257 32.7873 283.535 33.4254 281.008 33.4254V34.4414V35.4574C283.857 35.4574 286.183 34.7355 287.799 33.1198L287.08 32.4014ZM281.008 34.4414V33.4254H275.128V34.4414V35.4574H281.008V34.4414ZM280.96 21.8174V20.8014H279.712V21.8174V22.8334H280.96V21.8174ZM279.712 21.8174H278.696V30.8894H279.712H280.728V21.8174H279.712ZM279.712 30.8894V31.9054H280.96V30.8894V29.8734H279.712V30.8894ZM280.96 30.8894V31.9054C282.376 31.9054 283.635 31.5119 284.415 30.464L283.6 29.8574L282.785 29.2508C282.541 29.5789 282.041 29.8734 280.96 29.8734V30.8894ZM283.6 29.8574L284.415 30.464C285.132 29.5004 285.384 28.0483 285.384 26.3534H284.368H283.352C283.352 27.9545 283.092 28.8384 282.785 29.2508L283.6 29.8574ZM284.368 26.3534H285.384C285.384 24.6491 285.135 23.1869 284.408 22.2337L283.6 22.8494L282.792 23.4651C283.09 23.8559 283.352 24.7297 283.352 26.3534H284.368ZM283.6 22.8494L284.415 22.2428C283.635 21.1949 282.376 20.8014 280.96 20.8014V21.8174V22.8334C282.041 22.8334 282.541 23.1279 282.785 23.456L283.6 22.8494Z" fill="#3B3B3B" mask="url(#path-5-outside-1_1102_3943)"/>
</g>
<defs>
<filter id="filter0_d_1102_3943" x="1.00116" y="0" width="387.999" height="68.9067" filterUnits="userSpaceOnUse" color-interpolation-filters="sRGB">
<feFlood flood-opacity="0" result="BackgroundImageFix"/>
<feColorMatrix in="SourceAlpha" type="matrix" values="0 0 0 0 0 0 0 0 0 0 0 0 0 0 0 0 0 0 127 0" result="hardAlpha"/>
<feOffset dy="4"/>
<feComposite in2="hardAlpha" operator="out"/>
<feColorMatrix type="matrix" values="0 0 0 0 0 0 0 0 0 0 0 0 0 0 0 0 0 0 0.25 0"/>
<feBlend mode="normal" in2="BackgroundImageFix" result="effect1_dropShadow_1102_3943"/>
<feBlend mode="normal" in="SourceGraphic" in2="effect1_dropShadow_1102_3943" result="shape"/>
</filter>
<filter id="filter1_ddd_1102_3943" x="97.5946" y="16.1276" width="195.106" height="24.0077" filterUnits="userSpaceOnUse" color-interpolation-filters="sRGB">
<feFlood flood-opacity="0" result="BackgroundImageFix"/>
<feColorMatrix in="SourceAlpha" type="matrix" values="0 0 0 0 0 0 0 0 0 0 0 0 0 0 0 0 0 0 127 0" result="hardAlpha"/>
<feOffset dy="1"/>
<feComposite in2="hardAlpha" operator="out"/>
<feColorMatrix type="matrix" values="0 0 0 0 0 0 0 0 0 0 0 0 0 0 0 0 0 0 1 0"/>
<feBlend mode="normal" in2="BackgroundImageFix" result="effect1_dropShadow_1102_3943"/>
<feColorMatrix in="SourceAlpha" type="matrix" values="0 0 0 0 0 0 0 0 0 0 0 0 0 0 0 0 0 0 127 0" result="hardAlpha"/>
<feOffset dy="1"/>
<feComposite in2="hardAlpha" operator="out"/>
<feColorMatrix type="matrix" values="0 0 0 0 0 0 0 0 0 0 0 0 0 0 0 0 0 0 1 0"/>
<feBlend mode="normal" in2="effect1_dropShadow_1102_3943" result="effect2_dropShadow_1102_3943"/>
<feColorMatrix in="SourceAlpha" type="matrix" values="0 0 0 0 0 0 0 0 0 0 0 0 0 0 0 0 0 0 127 0" result="hardAlpha"/>
<feOffset dy="1.778"/>
<feGaussianBlur stdDeviation="1.27"/>
<feComposite in2="hardAlpha" operator="out"/>
<feColorMatrix type="matrix" values="0 0 0 0 0 0 0 0 0 0 0 0 0 0 0 0 0 0 0.8 0"/>
<feBlend mode="normal" in2="effect2_dropShadow_1102_3943" result="effect3_dropShadow_1102_3943"/>
<feBlend mode="normal" in="SourceGraphic" in2="effect3_dropShadow_1102_3943" result="shape"/>
</filter>
<linearGradient id="paint0_linear_1102_3943" x1="2.00949" y1="27.1039" x2="387.991" y2="27.1039" gradientUnits="userSpaceOnUse">
<stop stop-color="#4B42A2"/>
<stop offset="0.475" stop-color="#8383FF"/>
<stop offset="1" stop-color="#4C43A3"/>
</linearGradient>
<radialGradient id="paint1_radial_1102_3943" cx="0" cy="0" r="1" gradientUnits="userSpaceOnUse" gradientTransform="translate(195 37.7716) rotate(-90) scale(43.7723 1126.28)">
<stop offset="0.431628" stop-color="white" stop-opacity="0.26"/>
<stop offset="1" stop-color="white"/>
</radialGradient>
</defs>
</svg>
