<svg width="390" height="364" viewBox="0 0 390 364" fill="none" xmlns="http://www.w3.org/2000/svg">
<g clip-path="url(#clip0_1102_2950)">
<rect width="390" height="364" fill="#82C9FF"/>
<g style="mix-blend-mode:multiply" opacity="0.5">
<path d="M4.4398 364.151C1.81919 364.802 0.0738911 367.348 0.526625 369.859C0.979358 372.37 3.45364 373.867 6.07425 373.215C8.69486 372.564 10.4402 370.018 9.98747 367.507C9.53473 364.996 7.06042 363.499 4.4398 364.151Z" fill="#B9E1FF"/>
<path d="M21.0588 359.931C18.3938 360.593 16.6117 363.193 17.0721 365.746C17.5325 368.3 20.0589 369.828 22.724 369.166C25.389 368.503 27.1711 365.904 26.7106 363.35C26.2502 360.797 23.7238 359.268 21.0588 359.931Z" fill="#B9E1FF"/>
<path d="M10.6672 354.628C8.30233 355.612 7.0473 358.221 7.86396 360.454C8.68062 362.687 11.2597 363.699 13.6246 362.714C15.9894 361.729 17.2445 359.121 16.4278 356.888C15.6111 354.655 13.032 353.643 10.6672 354.628Z" fill="#B9E1FF"/>
<path d="M1.62289 348.532C-0.797849 349.134 -2.43294 351.519 -2.01473 353.839C-1.59653 356.158 0.721493 357.561 3.14223 356.959C5.56296 356.357 7.19808 353.972 6.77988 351.652C6.36168 349.333 4.04362 347.931 1.62289 348.532Z" fill="#B9E1FF"/>
<path d="M47.3913 361.324C44.5042 362.041 42.5751 364.855 43.0739 367.622C43.5727 370.388 46.3075 372.042 49.1946 371.325C52.0817 370.607 54.0107 367.793 53.5119 365.027C53.0132 362.26 50.2784 360.606 47.3913 361.324Z" fill="#B9E1FF"/>
<path d="M37.6731 355.69C34.9636 356.364 33.1226 359.023 33.5945 361.64C34.0664 364.257 36.6449 365.817 39.3766 365.138C42.1082 364.459 43.9271 361.806 43.4551 359.189C42.9832 356.571 40.4047 355.011 37.6731 355.69Z" fill="#B9E1FF"/>
<path d="M28.002 350.178C25.4924 350.802 23.8206 353.241 24.2541 355.645C24.6877 358.05 27.0578 359.484 29.5674 358.86C32.0769 358.236 33.7488 355.797 33.3152 353.393C32.8817 350.988 30.5116 349.554 28.002 350.178Z" fill="#B9E1FF"/>
<path d="M18.2457 344.334C15.7803 344.947 14.127 347.359 14.5529 349.721C14.9789 352.083 17.3227 353.501 19.788 352.888C22.2534 352.276 23.9067 349.864 23.4808 347.502C23.0549 345.14 20.711 343.721 18.2457 344.334Z" fill="#B9E1FF"/>
<path d="M8.56059 338.737C6.27311 339.306 4.74825 341.531 5.14343 343.722C5.53861 345.914 7.70037 347.222 9.98786 346.653C12.2753 346.085 13.8002 343.86 13.405 341.669C13.0098 339.477 10.8481 338.169 8.56059 338.737Z" fill="#B9E1FF"/>
<path d="M-1.12742 333.276C-3.17061 333.784 -4.5301 335.767 -4.17712 337.724C-3.82414 339.682 -1.89681 340.848 0.146375 340.34C2.18956 339.832 3.54909 337.849 3.19611 335.891C2.84313 333.934 0.915769 332.768 -1.12742 333.276Z" fill="#B9E1FF"/>
<path d="M73.7884 363.209C70.9679 363.91 69.0978 366.665 69.5812 369.346C70.0647 372.027 72.7473 373.65 75.5456 372.955C78.3439 372.259 80.2362 369.499 79.7527 366.818C79.2693 364.136 76.5867 362.513 73.7884 363.209Z" fill="#B9E1FF"/>
<path d="M64.0299 357.208C61.165 357.92 59.2582 360.729 59.7493 363.453C60.2404 366.176 62.9751 367.831 65.8178 367.124C68.6605 366.418 70.5896 363.604 70.0985 360.88C69.6074 358.156 66.8726 356.501 64.0299 357.208Z" fill="#B9E1FF"/>
<path d="M54.3074 351.555C51.5979 352.229 49.7569 354.887 50.2288 357.505C50.7007 360.122 53.2792 361.682 56.0109 361.003C58.7425 360.324 60.5613 357.671 60.0894 355.053C59.6175 352.436 57.039 350.876 54.3074 351.555Z" fill="#B9E1FF"/>
<path d="M44.6363 346.043C42.1267 346.667 40.4548 349.106 40.8884 351.511C41.3219 353.915 43.6921 355.349 46.2016 354.725C48.7112 354.102 50.383 351.663 49.9495 349.258C49.5159 346.854 47.1458 345.42 44.6363 346.043Z" fill="#B9E1FF"/>
<path d="M34.8646 340.112C32.3328 340.742 30.6426 343.207 31.08 345.633C31.5174 348.059 33.9135 349.509 36.4453 348.879C38.9771 348.25 40.6673 345.785 40.2299 343.359C39.7925 340.933 37.3964 339.483 34.8646 340.112Z" fill="#B9E1FF"/>
<path d="M25.1893 334.581C22.8796 335.156 21.3364 337.407 21.7354 339.62C22.1344 341.833 24.3222 343.157 26.6319 342.582C28.9416 342.008 30.4848 339.757 30.0858 337.544C29.6868 335.331 27.499 334.007 25.1893 334.581Z" fill="#B9E1FF"/>
<path d="M15.4904 329.055C13.4052 329.574 12.0069 331.613 12.3672 333.611C12.7274 335.609 14.7097 336.808 16.7949 336.29C18.88 335.772 20.2783 333.732 19.9181 331.734C19.5578 329.736 17.5755 328.537 15.4904 329.055Z" fill="#B9E1FF"/>
<path d="M5.81148 323.502C3.9226 323.972 2.65591 325.82 2.98223 327.629C3.30855 329.439 5.10431 330.526 6.99319 330.056C8.88207 329.587 10.1488 327.739 9.82247 325.929C9.49615 324.119 7.70036 323.033 5.81148 323.502Z" fill="#B9E1FF"/>
<path d="M-3.94311 317.655C-5.80863 318.119 -7.0357 319.936 -6.71725 321.702C-6.3988 323.468 -4.62774 324.54 -2.78442 324.082C-0.941113 323.623 0.308197 321.801 -0.0102514 320.035C-0.328699 318.269 -2.0998 317.197 -3.94311 317.655Z" fill="#B9E1FF"/>
<path d="M100.156 364.923C97.3223 365.628 95.4222 368.399 95.9117 371.114C96.4012 373.829 99.0948 375.459 101.928 374.754C104.761 374.05 106.662 371.278 106.172 368.564C105.683 365.849 102.989 364.219 100.156 364.923Z" fill="#B9E1FF"/>
<path d="M90.4464 359.201C87.7148 359.88 85.8776 362.56 86.3495 365.177C86.8214 367.794 89.4259 369.37 92.1576 368.691C94.8893 368.012 96.7264 365.332 96.2545 362.715C95.7826 360.097 93.1781 358.522 90.4464 359.201Z" fill="#B9E1FF"/>
<path d="M80.6565 353.164C77.8361 353.865 75.9659 356.62 76.4494 359.301C76.9328 361.982 79.6155 363.605 82.4138 362.91C85.212 362.214 87.1043 359.454 86.6209 356.773C86.1375 354.091 83.4548 352.468 80.6565 353.164Z" fill="#B9E1FF"/>
<path d="M70.9774 347.61C68.3568 348.261 66.6115 350.807 67.0642 353.318C67.5169 355.829 69.9912 357.326 72.6118 356.674C75.2325 356.023 76.9778 353.477 76.5251 350.966C76.0723 348.455 73.598 346.958 70.9774 347.61Z" fill="#B9E1FF"/>
<path d="M61.2769 341.95C58.8117 342.563 57.1583 344.975 57.5842 347.337C58.01 349.699 60.3541 351.117 62.8193 350.504C65.2844 349.891 66.9379 347.479 66.512 345.117C66.0861 342.755 63.742 341.337 61.2769 341.95Z" fill="#B9E1FF"/>
<path d="M51.5034 335.998C48.9938 336.621 47.322 339.06 47.7556 341.465C48.1891 343.869 50.5592 345.303 53.0688 344.679C55.5784 344.056 57.2502 341.617 56.8167 339.212C56.3831 336.808 54.013 335.374 51.5034 335.998Z" fill="#B9E1FF"/>
<path d="M41.8239 330.446C39.5142 331.02 37.9709 333.272 38.3699 335.485C38.769 337.698 40.9568 339.021 43.2665 338.447C45.5762 337.873 47.1194 335.622 46.7203 333.409C46.3213 331.196 44.1335 329.872 41.8239 330.446Z" fill="#B9E1FF"/>
<path d="M32.1141 324.855C29.9922 325.383 28.5692 327.458 28.9358 329.492C29.3023 331.525 31.3197 332.745 33.4416 332.218C35.5635 331.69 36.9865 329.615 36.6199 327.581C36.2534 325.548 34.236 324.328 32.1141 324.855Z" fill="#B9E1FF"/>
<path d="M22.4387 319.322C20.5288 319.797 19.2428 321.673 19.5727 323.503C19.9027 325.333 21.7259 326.436 23.6358 325.961C25.5457 325.487 26.8318 323.611 26.5018 321.781C26.1719 319.951 24.3487 318.847 22.4387 319.322Z" fill="#B9E1FF"/>
<path d="M12.6794 313.458C10.7906 313.927 9.52386 315.775 9.85018 317.585C10.1765 319.395 11.9723 320.481 13.8611 320.012C15.75 319.542 17.0167 317.694 16.6904 315.885C16.3641 314.075 14.5683 312.988 12.6794 313.458Z" fill="#B9E1FF"/>
<path d="M3.0038 307.926C1.32343 308.344 0.196563 309.987 0.486861 311.597C0.777159 313.208 2.37469 314.174 4.05506 313.756C5.73543 313.339 6.86232 311.695 6.57202 310.085C6.28173 308.475 4.68416 307.508 3.0038 307.926Z" fill="#B9E1FF"/>
<path d="M116.83 361C114.12 361.674 112.279 364.333 112.751 366.95C113.223 369.567 115.801 371.127 118.533 370.448C121.265 369.769 123.084 367.116 122.612 364.499C122.14 361.881 119.561 360.321 116.83 361Z" fill="#B9E1FF"/>
<path d="M107.129 355.341C104.553 355.981 102.826 358.5 103.271 360.969C103.716 363.437 106.164 364.918 108.74 364.278C111.317 363.638 113.044 361.118 112.599 358.65C112.154 356.182 109.705 354.7 107.129 355.341Z" fill="#B9E1FF"/>
<path d="M97.3436 349.327C94.7007 349.984 92.9187 352.583 93.3753 355.115C93.8318 357.648 96.3582 359.176 99.001 358.519C101.644 357.862 103.426 355.263 102.969 352.73C102.513 350.198 99.9864 348.67 97.3436 349.327Z" fill="#B9E1FF"/>
<path d="M87.623 343.54C85.0468 344.18 83.3198 346.7 83.7649 349.168C84.2099 351.636 86.6582 353.118 89.2344 352.477C91.8106 351.837 93.5375 349.318 93.0925 346.849C92.6474 344.381 90.1992 342.9 87.623 343.54Z" fill="#B9E1FF"/>
<path d="M77.9022 337.886C75.4815 338.488 73.8464 340.873 74.2646 343.193C74.6828 345.512 77.0008 346.915 79.4216 346.313C81.8423 345.711 83.4774 343.326 83.0592 341.006C82.641 338.687 80.323 337.285 77.9022 337.886Z" fill="#B9E1FF"/>
<path d="M68.1603 331.992C65.7395 332.594 64.1045 334.979 64.5227 337.298C64.9409 339.618 67.2589 341.02 69.6796 340.418C72.1004 339.817 73.7354 337.431 73.3172 335.112C72.899 332.792 70.581 331.39 68.1603 331.992Z" fill="#B9E1FF"/>
<path d="M58.4617 326.332C56.1742 326.901 54.6494 329.125 55.0446 331.317C55.4397 333.509 57.6015 334.817 59.889 334.248C62.1765 333.679 63.7013 331.455 63.3061 329.263C62.911 327.072 60.7492 325.764 58.4617 326.332Z" fill="#B9E1FF"/>
<path d="M48.7524 320.741C46.6427 321.266 45.228 323.33 45.5924 325.351C45.9569 327.372 47.9626 328.586 50.0722 328.061C52.1819 327.537 53.5966 325.473 53.2322 323.452C52.8677 321.43 50.862 320.217 48.7524 320.741Z" fill="#B9E1FF"/>
<path d="M39.0728 315.188C37.1594 315.664 35.8762 317.535 36.2068 319.369C36.5373 321.202 38.3564 322.303 40.2698 321.827C42.1833 321.351 43.4664 319.48 43.1358 317.646C42.8053 315.813 40.9862 314.712 39.0728 315.188Z" fill="#B9E1FF"/>
<path d="M29.305 309.278C27.3915 309.753 26.1084 311.625 26.439 313.459C26.7695 315.292 28.5886 316.393 30.502 315.917C32.4154 315.441 33.6986 313.569 33.368 311.736C33.0375 309.903 31.2184 308.802 29.305 309.278Z" fill="#B9E1FF"/>
<path d="M19.6343 303.769C17.9465 304.188 16.8074 305.85 17.099 307.467C17.3906 309.084 19.0054 310.061 20.6933 309.642C22.3811 309.222 23.5202 307.561 23.2286 305.943C22.937 304.326 21.3222 303.349 19.6343 303.769Z" fill="#B9E1FF"/>
<path d="M9.93638 298.243C8.47061 298.607 7.47854 300.055 7.73176 301.459C7.98499 302.863 9.39143 303.714 10.8572 303.35C12.323 302.986 13.315 301.538 13.0618 300.134C12.8086 298.73 11.4021 297.879 9.93638 298.243Z" fill="#B9E1FF"/>
<path d="M0.19489 292.348C-1.27088 292.712 -2.26295 294.16 -2.00973 295.564C-1.7565 296.968 -0.350062 297.819 1.1157 297.455C2.58147 297.091 3.57358 295.643 3.32035 294.239C3.06713 292.835 1.66066 291.984 0.19489 292.348Z" fill="#B9E1FF"/>
<path d="M143.265 362.966C140.667 363.612 138.943 366.152 139.388 368.621C139.834 371.089 142.308 372.586 144.884 371.946C147.46 371.305 149.206 368.759 148.761 366.291C148.315 363.822 145.841 362.325 143.265 362.966Z" fill="#B9E1FF"/>
<path d="M133.544 357.313C131.091 357.923 129.446 360.323 129.87 362.673C130.294 365.024 132.626 366.435 135.079 365.825C137.532 365.215 139.177 362.815 138.753 360.465C138.329 358.114 135.997 356.703 133.544 357.313Z" fill="#B9E1FF"/>
<path d="M123.811 351.463C121.39 352.065 119.755 354.45 120.174 356.77C120.592 359.089 122.91 360.492 125.33 359.89C127.751 359.288 129.386 356.903 128.968 354.584C128.55 352.264 126.232 350.862 123.811 351.463Z" fill="#B9E1FF"/>
<path d="M114.002 345.32C111.427 345.961 109.699 348.48 110.144 350.948C110.589 353.416 113.038 354.898 115.614 354.258C118.19 353.617 119.917 351.097 119.472 348.63C119.027 346.162 116.578 344.68 114.002 345.32Z" fill="#B9E1FF"/>
<path d="M104.314 339.723C101.915 340.32 100.317 342.651 100.731 344.95C101.146 347.248 103.412 348.619 105.81 348.022C108.209 347.426 109.807 345.095 109.393 342.796C108.978 340.498 106.712 339.127 104.314 339.723Z" fill="#B9E1FF"/>
<path d="M94.5785 333.984C92.2688 334.558 90.7255 336.81 91.1246 339.023C91.5236 341.236 93.7114 342.559 96.0211 341.985C98.3308 341.411 99.874 339.16 99.475 336.947C99.076 334.734 96.8881 333.41 94.5785 333.984Z" fill="#B9E1FF"/>
<path d="M84.8098 327.942C82.4335 328.532 80.8352 330.864 81.2457 333.141C81.6562 335.418 83.9222 336.789 86.2985 336.198C88.6748 335.607 90.2731 333.276 89.8626 330.999C89.4521 328.722 87.1862 327.351 84.8098 327.942Z" fill="#B9E1FF"/>
<path d="M75.085 322.266C72.8281 322.827 71.3146 325.035 71.7045 327.197C72.0944 329.36 74.24 330.658 76.4969 330.097C78.7537 329.536 80.2672 327.328 79.8773 325.166C79.4874 323.003 77.3418 321.705 75.085 322.266Z" fill="#B9E1FF"/>
<path d="M65.4094 316.736C63.3663 317.243 62.0067 319.227 62.3597 321.184C62.7127 323.142 64.6401 324.308 66.6832 323.8C68.7264 323.292 70.086 321.309 69.733 319.351C69.38 317.394 67.4526 316.228 65.4094 316.736Z" fill="#B9E1FF"/>
<path d="M55.7146 311.097C53.8268 311.566 52.5592 313.415 52.8853 315.224C53.2114 317.032 55.0085 318.12 56.8963 317.651C58.784 317.181 60.0517 315.332 59.7256 313.523C59.3994 311.715 57.6023 310.627 55.7146 311.097Z" fill="#B9E1FF"/>
<path d="M45.9407 305.144C44.0273 305.619 42.7441 307.491 43.0747 309.324C43.4053 311.158 45.2244 312.258 47.1378 311.783C49.0512 311.307 50.3343 309.435 50.0038 307.602C49.6732 305.769 47.8541 304.668 45.9407 305.144Z" fill="#B9E1FF"/>
<path d="M36.2689 299.633C34.581 300.053 33.442 301.714 33.7336 303.331C34.0251 304.949 35.64 305.926 37.3278 305.506C39.0157 305.086 40.1547 303.425 39.8631 301.808C39.5715 300.19 37.9567 299.213 36.2689 299.633Z" fill="#B9E1FF"/>
<path d="M26.5661 294.085C25.0781 294.455 24.0676 295.929 24.3247 297.355C24.5818 298.781 26.0142 299.647 27.5022 299.278C28.9902 298.908 30.0006 297.434 29.7436 296.008C29.4865 294.582 28.054 293.716 26.5661 294.085Z" fill="#B9E1FF"/>
<path d="M16.8219 288.171C15.3339 288.541 14.3235 290.015 14.5805 291.44C14.8376 292.866 16.2701 293.733 17.7581 293.363C19.2461 292.993 20.2565 291.519 19.9994 290.093C19.7424 288.668 18.3099 287.801 16.8219 288.171Z" fill="#B9E1FF"/>
<path d="M7.13842 282.73C5.89961 283.038 5.06886 284.25 5.28288 285.437C5.49689 286.624 6.67463 287.336 7.91344 287.028C9.15225 286.72 9.983 285.508 9.76898 284.322C9.55497 283.135 8.37723 282.422 7.13842 282.73Z" fill="#B9E1FF"/>
<path d="M159.973 359.37C157.685 359.938 156.164 362.184 156.556 364.355C156.947 366.525 159.112 367.854 161.4 367.286C163.687 366.717 165.212 364.493 164.817 362.301C164.422 360.109 162.26 358.801 159.973 359.37Z" fill="#B9E1FF"/>
<path d="M150.225 353.434C147.915 354.009 146.372 356.26 146.771 358.473C147.17 360.686 149.358 362.01 151.668 361.435C153.977 360.861 155.52 358.61 155.121 356.397C154.722 354.184 152.535 352.86 150.225 353.434Z" fill="#B9E1FF"/>
<path d="M140.483 347.54C138.173 348.114 136.63 350.365 137.029 352.578C137.428 354.791 139.616 356.115 141.926 355.541C144.235 354.967 145.779 352.715 145.38 350.502C144.981 348.289 142.793 346.966 140.483 347.54Z" fill="#B9E1FF"/>
<path d="M130.72 341.651C128.411 342.225 126.867 344.477 127.266 346.69C127.665 348.903 129.853 350.226 132.163 349.652C134.473 349.078 136.016 346.827 135.617 344.614C135.218 342.401 133.03 341.077 130.72 341.651Z" fill="#B9E1FF"/>
<path d="M120.983 335.78C118.695 336.348 117.17 338.573 117.566 340.764C117.961 342.956 120.122 344.264 122.41 343.695C124.697 343.127 126.222 340.902 125.827 338.711C125.432 336.519 123.27 335.211 120.983 335.78Z" fill="#B9E1FF"/>
<path d="M111.239 329.997C109.018 330.549 107.53 332.72 107.914 334.848C108.298 336.976 110.407 338.253 112.628 337.7C114.849 337.148 116.337 334.978 115.954 332.85C115.57 330.722 113.46 329.445 111.239 329.997Z" fill="#B9E1FF"/>
<path d="M101.498 324.104C99.2772 324.656 97.7891 326.827 98.1728 328.955C98.5565 331.083 100.666 332.359 102.887 331.807C105.108 331.255 106.596 329.084 106.212 326.957C105.829 324.829 103.719 323.552 101.498 324.104Z" fill="#B9E1FF"/>
<path d="M91.7623 318.365C89.6404 318.893 88.2174 320.969 88.584 323.002C88.9505 325.035 90.9679 326.256 93.0898 325.728C95.2117 325.201 96.6347 323.125 96.2681 321.092C95.9015 319.059 93.8842 317.838 91.7623 318.365Z" fill="#B9E1FF"/>
<path d="M82.055 312.664C80.0557 313.161 78.715 315.117 79.0604 317.032C79.4058 318.948 81.3065 320.098 83.3058 319.601C85.3051 319.104 86.6458 317.148 86.3004 315.233C85.955 313.317 84.0543 312.167 82.055 312.664Z" fill="#B9E1FF"/>
<path d="M72.3379 307.03C70.4724 307.494 69.2453 309.311 69.5638 311.077C69.8822 312.843 71.6533 313.914 73.4966 313.456C75.3399 312.998 76.5892 311.176 76.2708 309.409C75.9523 307.643 74.1812 306.572 72.3379 307.03Z" fill="#B9E1FF"/>
<path d="M62.594 301.115C60.7285 301.579 59.5014 303.396 59.8199 305.162C60.1383 306.928 61.9094 308 63.7527 307.542C65.596 307.083 66.8453 305.261 66.5269 303.495C66.2084 301.729 64.4373 300.657 62.594 301.115Z" fill="#B9E1FF"/>
<path d="M52.9066 295.521C51.2263 295.938 50.0994 297.582 50.3897 299.192C50.68 300.802 52.2775 301.769 53.9579 301.351C55.6383 300.933 56.7652 299.29 56.4749 297.679C56.1846 296.069 54.587 295.103 52.9066 295.521Z" fill="#B9E1FF"/>
<path d="M43.2001 289.95C41.7121 290.32 40.7017 291.794 40.9587 293.22C41.2158 294.645 42.6483 295.512 44.1363 295.142C45.6242 294.772 46.6347 293.298 46.3776 291.873C46.1206 290.447 44.6881 289.58 43.2001 289.95Z" fill="#B9E1FF"/>
<path d="M33.4564 284.036C31.9685 284.406 30.958 285.88 31.2151 287.305C31.4721 288.731 32.9046 289.598 34.3926 289.228C35.8806 288.858 36.891 287.384 36.634 285.958C36.3769 284.532 34.9444 283.666 33.4564 284.036Z" fill="#B9E1FF"/>
<path d="M23.7652 278.551C22.4993 278.866 21.6542 280.098 21.8729 281.311C22.0916 282.524 23.2896 283.249 24.5555 282.934C25.8214 282.62 26.6665 281.387 26.4478 280.174C26.2291 278.961 25.0311 278.236 23.7652 278.551Z" fill="#B9E1FF"/>
<path d="M14.0909 273.021C13.0483 273.28 12.3491 274.3 12.5293 275.299C12.7094 276.298 13.7006 276.898 14.7431 276.639C15.7857 276.38 16.4849 275.36 16.3047 274.361C16.1246 273.362 15.1334 272.762 14.0909 273.021Z" fill="#B9E1FF"/>
<path d="M4.39936 267.536C3.58984 267.738 3.04696 268.53 3.18681 269.305C3.32666 270.081 4.09629 270.547 4.90581 270.345C5.71533 270.144 6.25821 269.352 6.11836 268.577C5.97851 267.801 5.20888 267.335 4.39936 267.536Z" fill="#B9E1FF"/>
<path d="M186.474 361.698C184.519 362.183 183.196 364.113 183.534 365.986C183.872 367.858 185.747 368.993 187.701 368.507C189.656 368.021 190.978 366.091 190.641 364.219C190.303 362.346 188.428 361.212 186.474 361.698Z" fill="#B9E1FF"/>
<path d="M176.66 355.531C174.538 356.059 173.115 358.135 173.482 360.168C173.848 362.201 175.866 363.422 177.988 362.894C180.109 362.367 181.532 360.291 181.166 358.258C180.799 356.225 178.782 355.004 176.66 355.531Z" fill="#B9E1FF"/>
<path d="M166.905 349.554C164.746 350.091 163.298 352.203 163.671 354.271C164.044 356.339 166.096 357.581 168.255 357.044C170.414 356.508 171.861 354.396 171.489 352.328C171.116 350.259 169.063 349.018 166.905 349.554Z" fill="#B9E1FF"/>
<path d="M156.6 344.048C154.647 344.861 153.61 347.015 154.284 348.86C154.959 350.704 157.088 351.54 159.042 350.727C160.995 349.914 162.032 347.76 161.358 345.916C160.683 344.072 158.554 343.236 156.6 344.048Z" fill="#B9E1FF"/>
<path d="M147.397 337.75C145.242 338.285 143.791 340.403 144.163 342.467C144.535 344.531 146.593 345.776 148.747 345.24C150.901 344.705 152.353 342.587 151.98 340.523C151.608 338.459 149.551 337.214 147.397 337.75Z" fill="#B9E1FF"/>
<path d="M137.656 331.857C135.502 332.393 134.05 334.51 134.422 336.574C134.795 338.638 136.852 339.883 139.006 339.348C141.161 338.812 142.612 336.695 142.24 334.631C141.868 332.567 139.81 331.322 137.656 331.857Z" fill="#B9E1FF"/>
<path d="M127.938 326.224C125.926 326.724 124.577 328.692 124.925 330.619C125.272 332.547 127.185 333.704 129.196 333.204C131.208 332.704 132.557 330.736 132.209 328.809C131.862 326.881 129.949 325.724 127.938 326.224Z" fill="#B9E1FF"/>
<path d="M118.16 320.118C116.038 320.646 114.615 322.722 114.981 324.755C115.348 326.788 117.365 328.008 119.487 327.481C121.609 326.953 123.032 324.878 122.665 322.845C122.299 320.811 120.281 319.591 118.16 320.118Z" fill="#B9E1FF"/>
<path d="M108.424 314.38C106.381 314.888 105.021 316.871 105.374 318.829C105.727 320.787 107.654 321.953 109.698 321.445C111.741 320.937 113.1 318.954 112.747 316.996C112.394 315.038 110.467 313.872 108.424 314.38Z" fill="#B9E1FF"/>
<path d="M98.7349 308.783C96.8694 309.247 95.6423 311.064 95.9607 312.83C96.2792 314.596 98.0503 315.668 99.8936 315.21C101.737 314.751 102.986 312.929 102.668 311.163C102.349 309.397 100.578 308.325 98.7349 308.783Z" fill="#B9E1FF"/>
<path d="M89.0033 303.065C87.2488 303.502 86.0953 305.211 86.3945 306.871C86.6938 308.531 88.3607 309.539 90.093 309.109C91.8252 308.678 93.001 306.963 92.7018 305.303C92.4025 303.643 90.7356 302.635 89.0033 303.065Z" fill="#B9E1FF"/>
<path d="M79.2436 297.065C77.4406 297.513 76.2314 299.277 76.5429 301.004C76.8544 302.732 78.5686 303.769 80.3716 303.321C82.1746 302.873 83.3837 301.109 83.0722 299.381C82.7607 297.654 81.0466 296.617 79.2436 297.065Z" fill="#B9E1FF"/>
<path d="M69.5363 291.496C67.9151 291.899 66.8311 293.481 67.1112 295.034C67.3913 296.587 68.928 297.517 70.5492 297.114C72.1704 296.711 73.2543 295.13 72.9743 293.576C72.6942 292.023 71.1575 291.093 69.5363 291.496Z" fill="#B9E1FF"/>
<path d="M59.8581 285.943C58.4368 286.296 57.4814 287.69 57.727 289.052C57.9725 290.414 59.3269 291.233 60.7483 290.88C62.1696 290.526 63.125 289.133 62.8794 287.771C62.6339 286.409 61.2795 285.59 59.8581 285.943Z" fill="#B9E1FF"/>
<path d="M50.0982 279.942C48.6324 280.307 47.6404 281.754 47.8936 283.158C48.1468 284.563 49.5533 285.414 51.019 285.049C52.4848 284.685 53.4769 283.238 53.2237 281.833C52.9704 280.429 51.564 279.578 50.0982 279.942Z" fill="#B9E1FF"/>
<path d="M40.3992 274.416C39.1333 274.731 38.2882 275.964 38.5069 277.177C38.7256 278.389 39.9237 279.114 41.1896 278.8C42.4555 278.485 43.3006 277.252 43.0819 276.039C42.8632 274.826 41.6651 274.101 40.3992 274.416Z" fill="#B9E1FF"/>
<path d="M30.7235 268.886C29.6797 269.145 28.9815 270.163 29.1619 271.164C29.3422 272.164 30.3319 272.762 31.3757 272.503C32.4195 272.243 33.1176 271.225 32.9373 270.225C32.757 269.225 31.7673 268.626 30.7235 268.886Z" fill="#B9E1FF"/>
<path d="M21.0257 263.358C20.2039 263.562 19.6306 264.372 19.7764 265.18C19.9221 265.989 20.7035 266.462 21.5474 266.252C22.3914 266.042 22.9425 265.238 22.7967 264.429C22.6509 263.621 21.8696 263.148 21.0257 263.358Z" fill="#B9E1FF"/>
<path d="M11.2854 257.464C10.4637 257.668 9.89032 258.478 10.0361 259.286C10.1819 260.095 10.9633 260.568 11.8072 260.358C12.6511 260.148 13.2023 259.344 13.0565 258.535C12.9107 257.727 12.1293 257.254 11.2854 257.464Z" fill="#B9E1FF"/>
<path d="M1.59847 252.002C1.02105 252.145 0.635237 252.708 0.734991 253.262C0.834746 253.815 1.3817 254.146 1.95912 254.002C2.53655 253.859 2.92236 253.296 2.8226 252.743C2.72285 252.189 2.17589 251.858 1.59847 252.002Z" fill="#B9E1FF"/>
<path d="M212.452 364.122C210.84 364.793 209.984 366.571 210.54 368.093C211.097 369.615 212.854 370.305 214.466 369.634C216.078 368.963 216.934 367.186 216.378 365.663C215.821 364.141 214.064 363.451 212.452 364.122Z" fill="#B9E1FF"/>
<path d="M203.165 357.881C201.386 358.323 200.194 360.062 200.501 361.767C200.808 363.471 202.499 364.494 204.278 364.052C206.056 363.609 207.249 361.87 206.941 360.165C206.634 358.461 204.943 357.438 203.165 357.881Z" fill="#B9E1FF"/>
<path d="M193.402 351.994C191.624 352.436 190.431 354.176 190.739 355.88C191.046 357.584 192.737 358.607 194.515 358.165C196.294 357.723 197.486 355.983 197.179 354.279C196.872 352.575 195.181 351.552 193.402 351.994Z" fill="#B9E1FF"/>
<path d="M183.635 345.952C181.77 346.416 180.543 348.232 180.861 349.999C181.18 351.765 182.951 352.836 184.794 352.378C186.637 351.92 187.887 350.097 187.568 348.331C187.25 346.565 185.479 345.494 183.635 345.952Z" fill="#B9E1FF"/>
<path d="M173.86 339.999C171.971 340.468 170.704 342.316 171.031 344.126C171.357 345.936 173.153 347.022 175.042 346.553C176.93 346.083 178.197 344.235 177.871 342.426C177.544 340.616 175.749 339.529 173.86 339.999Z" fill="#B9E1FF"/>
<path d="M164.073 333.849C162.029 334.357 160.67 336.34 161.023 338.298C161.376 340.256 163.303 341.422 165.346 340.914C167.39 340.406 168.749 338.423 168.396 336.465C168.043 334.508 166.116 333.341 164.073 333.849Z" fill="#B9E1FF"/>
<path d="M154.344 328.154C152.434 328.629 151.148 330.505 151.478 332.335C151.808 334.165 153.631 335.268 155.541 334.793C157.451 334.319 158.737 332.443 158.407 330.613C158.077 328.783 156.254 327.679 154.344 328.154Z" fill="#B9E1FF"/>
<path d="M144.612 322.302C142.723 322.771 141.456 324.619 141.782 326.429C142.109 328.239 143.904 329.325 145.793 328.856C147.682 328.386 148.949 326.538 148.623 324.728C148.296 322.919 146.5 321.832 144.612 322.302Z" fill="#B9E1FF"/>
<path d="M134.828 316.175C132.816 316.675 131.467 318.643 131.815 320.571C132.162 322.498 134.075 323.655 136.086 323.155C138.098 322.655 139.447 320.687 139.099 318.76C138.752 316.832 136.839 315.675 134.828 316.175Z" fill="#B9E1FF"/>
<path d="M125.123 310.605C123.302 311.058 122.089 312.827 122.404 314.572C122.718 316.317 124.437 317.357 126.258 316.904C128.079 316.451 129.292 314.682 128.977 312.938C128.663 311.193 126.944 310.153 125.123 310.605Z" fill="#B9E1FF"/>
<path d="M115.393 304.776C113.614 305.218 112.422 306.958 112.729 308.662C113.036 310.366 114.727 311.389 116.506 310.947C118.284 310.504 119.477 308.765 119.17 307.061C118.862 305.356 117.171 304.333 115.393 304.776Z" fill="#B9E1FF"/>
<path d="M105.669 299.1C104.013 299.512 102.903 301.132 103.189 302.718C103.475 304.305 105.049 305.257 106.705 304.845C108.361 304.434 109.471 302.814 109.185 301.227C108.899 299.641 107.325 298.688 105.669 299.1Z" fill="#B9E1FF"/>
<path d="M95.9232 293.185C94.2575 293.599 93.1552 295.207 93.443 296.803C93.7307 298.399 95.2935 299.344 96.9591 298.93C98.6247 298.516 99.7271 296.908 99.4393 295.312C99.1516 293.716 97.5888 292.771 95.9232 293.185Z" fill="#B9E1FF"/>
<path d="M86.1946 287.488C84.64 287.875 83.615 289.397 83.8797 290.865C84.1445 292.333 85.629 293.231 87.1614 292.85C88.6938 292.469 89.741 290.942 89.4763 289.474C89.2116 288.005 87.727 287.107 86.1946 287.488Z" fill="#B9E1FF"/>
<path d="M76.5042 281.873C75.1273 282.215 74.1903 283.582 74.4282 284.901C74.666 286.221 75.9944 287.024 77.3713 286.682C78.7482 286.34 79.6852 284.973 79.4473 283.654C79.2094 282.334 77.8811 281.531 76.5042 281.873Z" fill="#B9E1FF"/>
<path d="M66.7261 275.898C65.3047 276.252 64.3494 277.645 64.5949 279.007C64.8405 280.369 66.1949 281.189 67.6162 280.835C69.0376 280.482 69.9929 279.088 69.7473 277.726C69.5018 276.365 68.1474 275.545 66.7261 275.898Z" fill="#B9E1FF"/>
<path d="M57.0489 270.367C55.8496 270.666 55.0412 271.845 55.2484 272.994C55.4556 274.143 56.6016 274.836 57.8009 274.538C59.0001 274.24 59.8085 273.061 59.6013 271.912C59.3941 270.763 58.2481 270.069 57.0489 270.367Z" fill="#B9E1FF"/>
<path d="M47.3597 264.751C46.3159 265.01 45.6178 266.029 45.7981 267.029C45.9784 268.029 46.9681 268.628 48.0119 268.368C49.0557 268.109 49.7539 267.09 49.5735 266.09C49.3932 265.09 48.4035 264.491 47.3597 264.751Z" fill="#B9E1FF"/>
<path d="M37.6601 259.223C36.8384 259.427 36.2651 260.236 36.4109 261.045C36.5567 261.854 37.338 262.326 38.1819 262.117C39.0259 261.907 39.577 261.103 39.4312 260.294C39.2854 259.486 38.5041 259.013 37.6601 259.223Z" fill="#B9E1FF"/>
<path d="M27.9195 253.33C27.0977 253.534 26.5244 254.343 26.6702 255.152C26.8159 255.961 27.5973 256.433 28.4412 256.224C29.2852 256.014 29.8363 255.21 29.6905 254.401C29.5447 253.593 28.7634 253.12 27.9195 253.33Z" fill="#B9E1FF"/>
<path d="M18.2288 247.848C17.6291 247.997 17.2471 248.581 17.3469 249.135C17.4466 249.688 18.0197 250.035 18.5971 249.891C19.1745 249.747 19.5787 249.158 19.4789 248.605C19.3792 248.051 18.8062 247.705 18.2288 247.848Z" fill="#B9E1FF"/>
<path d="M8.55751 242.336C8.20217 242.424 7.96335 242.773 8.02474 243.113C8.08612 243.454 8.4247 243.659 8.78004 243.57C9.13538 243.482 9.37419 243.134 9.3128 242.793C9.25142 242.453 8.91284 242.248 8.55751 242.336Z" fill="#B9E1FF"/>
<path d="M229.632 360.151C228.144 360.521 227.134 361.995 227.391 363.42C227.648 364.846 229.08 365.713 230.568 365.343C232.056 364.973 233.067 363.499 232.81 362.073C232.553 360.648 231.12 359.781 229.632 360.151Z" fill="#B9E1FF"/>
<path d="M219.9 354.433C218.523 354.775 217.586 356.142 217.824 357.461C218.062 358.781 219.39 359.584 220.767 359.242C222.144 358.9 223.081 357.533 222.843 356.214C222.605 354.894 221.277 354.091 219.9 354.433Z" fill="#B9E1FF"/>
<path d="M210.099 348.2C208.517 348.593 207.456 350.141 207.729 351.657C208.002 353.173 209.506 354.083 211.089 353.69C212.671 353.296 213.732 351.749 213.459 350.233C213.185 348.716 211.681 347.806 210.099 348.2Z" fill="#B9E1FF"/>
<path d="M200.322 342.113C198.642 342.531 197.515 344.175 197.805 345.785C198.095 347.395 199.693 348.362 201.373 347.944C203.054 347.526 204.18 345.882 203.89 344.272C203.6 342.662 202.002 341.696 200.322 342.113Z" fill="#B9E1FF"/>
<path d="M190.602 336.459C189.047 336.846 188.022 338.368 188.287 339.836C188.552 341.304 190.036 342.203 191.569 341.822C193.101 341.441 194.148 339.913 193.884 338.445C193.619 336.977 192.134 336.078 190.602 336.459Z" fill="#B9E1FF"/>
<path d="M180.807 330.269C179.097 330.694 177.958 332.355 178.253 333.994C178.549 335.632 180.168 336.63 181.878 336.205C183.588 335.78 184.727 334.119 184.427 332.459C184.128 330.799 182.517 329.843 180.807 330.269Z" fill="#B9E1FF"/>
<path d="M171.024 324.274C169.269 324.71 168.071 326.431 168.378 328.133C168.685 329.836 170.352 330.844 172.129 330.402C173.906 329.961 175.081 328.246 174.774 326.543C174.467 324.841 172.801 323.832 171.024 324.274Z" fill="#B9E1FF"/>
<path d="M161.284 318.38C159.529 318.816 158.331 320.536 158.638 322.239C158.945 323.941 160.612 324.95 162.389 324.508C164.166 324.066 165.341 322.351 165.034 320.649C164.727 318.946 163.061 317.938 161.284 318.38Z" fill="#B9E1FF"/>
<path d="M151.516 312.47C149.75 312.909 148.565 314.637 148.87 316.329C149.175 318.021 150.855 319.037 152.621 318.598C154.387 318.159 155.571 316.431 155.266 314.739C154.961 313.047 153.282 312.031 151.516 312.47Z" fill="#B9E1FF"/>
<path d="M141.795 306.683C140.09 307.107 138.947 308.775 139.241 310.408C139.536 312.042 141.157 313.022 142.861 312.598C144.566 312.175 145.71 310.507 145.415 308.873C145.121 307.24 143.5 306.259 141.795 306.683Z" fill="#B9E1FF"/>
<path d="M132.066 300.854C130.41 301.266 129.299 302.885 129.585 304.472C129.871 306.058 131.446 307.011 133.101 306.599C134.757 306.188 135.868 304.568 135.582 302.981C135.296 301.395 133.721 300.442 132.066 300.854Z" fill="#B9E1FF"/>
<path d="M122.357 295.265C120.891 295.629 119.899 297.077 120.152 298.481C120.405 299.885 121.812 300.736 123.277 300.372C124.743 300.008 125.735 298.56 125.482 297.156C125.229 295.752 123.822 294.901 122.357 295.265Z" fill="#B9E1FF"/>
<path d="M112.581 289.178C111.004 289.57 109.939 291.124 110.211 292.635C110.483 294.146 111.994 295.06 113.571 294.668C115.148 294.276 116.213 292.721 115.941 291.211C115.668 289.7 114.158 288.786 112.581 289.178Z" fill="#B9E1FF"/>
<path d="M102.852 283.482C101.386 283.846 100.394 285.293 100.648 286.698C100.901 288.102 102.307 288.953 103.773 288.589C105.239 288.224 106.231 286.777 105.978 285.373C105.724 283.968 104.318 283.117 102.852 283.482Z" fill="#B9E1FF"/>
<path d="M93.176 277.95C91.9102 278.264 91.0651 279.497 91.2837 280.71C91.5024 281.923 92.7005 282.648 93.9664 282.333C95.2323 282.019 96.0774 280.786 95.8587 279.573C95.64 278.36 94.4419 277.635 93.176 277.95Z" fill="#B9E1FF"/>
<path d="M83.3869 271.915C82.0544 272.246 81.1542 273.559 81.3844 274.836C81.6146 276.113 82.8908 276.885 84.2233 276.553C85.5558 276.222 86.456 274.909 86.2258 273.632C85.9956 272.355 84.7194 271.583 83.3869 271.915Z" fill="#B9E1FF"/>
<path d="M73.6947 266.295C72.5176 266.588 71.7498 267.735 71.9493 268.841C72.1488 269.948 73.2688 270.626 74.4236 270.338C75.5785 270.051 76.3685 268.899 76.169 267.792C75.9694 266.686 74.8495 266.008 73.6947 266.295Z" fill="#B9E1FF"/>
<path d="M63.9865 260.706C62.993 260.953 62.3268 261.925 62.4984 262.877C62.67 263.829 63.6146 264.4 64.6081 264.153C65.6016 263.906 66.2678 262.934 66.0962 261.982C65.9246 261.031 64.98 260.459 63.9865 260.706Z" fill="#B9E1FF"/>
<path d="M54.3172 255.216C53.5622 255.404 53.0478 256.154 53.1782 256.878C53.3087 257.601 54.0379 258.043 54.793 257.855C55.5481 257.667 56.0625 256.917 55.932 256.193C55.8016 255.47 55.0723 255.029 54.3172 255.216Z" fill="#B9E1FF"/>
<path d="M44.5583 249.217C43.7588 249.416 43.2077 250.22 43.3458 250.986C43.4839 251.752 44.2652 252.225 45.0647 252.026C45.8643 251.827 46.4154 251.023 46.2773 250.257C46.1392 249.491 45.3578 249.018 44.5583 249.217Z" fill="#B9E1FF"/>
<path d="M34.8632 243.713C34.2636 243.862 33.8817 244.446 33.9814 244.999C34.0812 245.553 34.6541 245.899 35.2316 245.756C35.809 245.612 36.2132 245.023 36.1134 244.469C36.0137 243.916 35.4407 243.569 34.8632 243.713Z" fill="#B9E1FF"/>
<path d="M25.1918 238.201C24.8364 238.29 24.5976 238.638 24.659 238.978C24.7204 239.319 25.059 239.524 25.4143 239.435C25.7697 239.347 26.0085 238.999 25.9471 238.658C25.8857 238.318 25.5471 238.113 25.1918 238.201Z" fill="#B9E1FF"/>
<path d="M15.4274 232.312C15.072 232.4 14.8332 232.748 14.8946 233.089C14.956 233.429 15.2946 233.634 15.6499 233.546C16.0052 233.458 16.2441 233.109 16.1827 232.769C16.1213 232.428 15.7827 232.223 15.4274 232.312Z" fill="#B9E1FF"/>
<path d="M5.75952 226.823C5.63686 226.853 5.5546 226.973 5.57579 227.091C5.59698 227.209 5.7136 227.279 5.83625 227.249C5.9589 227.218 6.04118 227.098 6.01999 226.981C5.9988 226.863 5.88217 226.793 5.75952 226.823Z" fill="#B9E1FF"/>
<path d="M256.188 362.908C255.277 363.135 254.653 364.046 254.81 364.918C254.967 365.791 255.853 366.326 256.764 366.1C257.674 365.874 258.299 364.963 258.141 364.09C257.984 363.218 257.099 362.682 256.188 362.908Z" fill="#B9E1FF"/>
<path d="M246.401 356.759C245.334 357.024 244.618 358.069 244.802 359.09C244.986 360.112 246.002 360.726 247.068 360.461C248.134 360.196 248.851 359.151 248.666 358.13C248.482 357.108 247.467 356.494 246.401 356.759Z" fill="#B9E1FF"/>
<path d="M236.592 350.617C235.393 350.916 234.584 352.095 234.792 353.244C234.999 354.393 236.145 355.086 237.344 354.788C238.543 354.49 239.352 353.311 239.145 352.162C238.937 351.013 237.791 350.319 236.592 350.617Z" fill="#B9E1FF"/>
<path d="M226.794 344.404C225.408 344.749 224.479 346.105 224.718 347.433C224.957 348.761 226.275 349.558 227.661 349.213C229.047 348.869 229.977 347.513 229.737 346.185C229.498 344.857 228.18 344.06 226.794 344.404Z" fill="#B9E1FF"/>
<path d="M217.058 338.663C215.77 338.983 214.884 340.248 215.111 341.504C215.337 342.759 216.561 343.5 217.871 343.174C219.182 342.848 220.045 341.589 219.819 340.333C219.593 339.078 218.368 338.337 217.058 338.663Z" fill="#B9E1FF"/>
<path d="M207.289 332.622C205.916 332.964 204.994 334.308 205.232 335.624C205.469 336.94 206.775 337.73 208.149 337.389C209.523 337.047 210.444 335.703 210.207 334.387C209.969 333.071 208.663 332.281 207.289 332.622Z" fill="#B9E1FF"/>
<path d="M197.491 326.409C195.936 326.795 194.911 328.318 195.176 329.786C195.441 331.254 196.925 332.152 198.458 331.771C199.99 331.39 201.037 329.863 200.772 328.395C200.508 326.926 199.023 326.028 197.491 326.409Z" fill="#B9E1FF"/>
<path d="M187.766 320.734C186.345 321.088 185.389 322.481 185.635 323.843C185.88 325.205 187.235 326.025 188.656 325.671C190.077 325.318 191.033 323.924 190.787 322.562C190.542 321.201 189.187 320.381 187.766 320.734Z" fill="#B9E1FF"/>
<path d="M178.013 314.777C176.553 315.139 175.574 316.567 175.827 317.966C176.079 319.364 177.466 320.204 178.926 319.841C180.386 319.478 181.364 318.05 181.112 316.652C180.86 315.253 179.472 314.414 178.013 314.777Z" fill="#B9E1FF"/>
<path d="M168.204 308.634C166.605 309.031 165.521 310.613 165.797 312.145C166.074 313.677 167.61 314.607 169.209 314.209C170.808 313.812 171.892 312.23 171.616 310.698C171.34 309.166 169.803 308.236 168.204 308.634Z" fill="#B9E1FF"/>
<path d="M158.468 302.763C156.886 303.156 155.825 304.704 156.098 306.22C156.371 307.736 157.876 308.646 159.458 308.253C161.04 307.859 162.101 306.312 161.828 304.796C161.554 303.279 160.05 302.369 158.468 302.763Z" fill="#B9E1FF"/>
<path d="M148.759 297.172C147.36 297.52 146.401 298.892 146.646 300.254C146.892 301.616 148.22 302.419 149.641 302.066C151.063 301.713 152 300.346 151.754 298.984C151.509 297.622 150.18 296.819 148.759 297.172Z" fill="#B9E1FF"/>
<path d="M139.025 291.321C137.651 291.662 136.73 293.006 136.967 294.322C137.205 295.638 138.511 296.429 139.884 296.087C141.258 295.746 142.179 294.402 141.942 293.085C141.705 291.769 140.399 290.979 139.025 291.321Z" fill="#B9E1FF"/>
<path d="M129.249 285.235C127.783 285.6 126.791 287.047 127.045 288.451C127.298 289.856 128.704 290.707 130.17 290.342C131.636 289.978 132.628 288.531 132.375 287.126C132.121 285.722 130.715 284.871 129.249 285.235Z" fill="#B9E1FF"/>
<path d="M119.539 279.645C118.251 279.966 117.366 281.231 117.592 282.486C117.818 283.742 119.042 284.482 120.353 284.156C121.663 283.831 122.526 282.571 122.3 281.316C122.074 280.06 120.85 279.32 119.539 279.645Z" fill="#B9E1FF"/>
<path d="M109.837 273.963C108.66 274.256 107.893 275.403 108.092 276.509C108.292 277.616 109.412 278.293 110.566 278.006C111.721 277.719 112.511 276.567 112.312 275.46C112.112 274.354 110.992 273.676 109.837 273.963Z" fill="#B9E1FF"/>
<path d="M100.044 267.905C98.7778 268.22 97.9327 269.453 98.1514 270.666C98.3701 271.879 99.5682 272.604 100.834 272.289C102.1 271.974 102.945 270.741 102.726 269.528C102.508 268.316 101.31 267.591 100.044 267.905Z" fill="#B9E1FF"/>
<path d="M90.3709 262.394C89.3271 262.653 88.629 263.672 88.8093 264.672C88.9896 265.672 89.9793 266.271 91.0231 266.011C92.0669 265.752 92.7651 264.733 92.5848 263.733C92.4044 262.733 91.4147 262.134 90.3709 262.394Z" fill="#B9E1FF"/>
<path d="M80.6514 256.741C79.756 256.963 79.1555 257.839 79.3102 258.697C79.4649 259.555 80.3162 260.07 81.2115 259.847C82.1069 259.625 82.7074 258.749 82.5527 257.891C82.398 257.033 81.5467 256.518 80.6514 256.741Z" fill="#B9E1FF"/>
<path d="M70.9603 251.123C70.2243 251.306 69.7308 252.026 69.8579 252.731C69.9851 253.437 70.6848 253.86 71.4207 253.677C72.1566 253.494 72.6501 252.774 72.523 252.069C72.3958 251.364 71.6962 250.94 70.9603 251.123Z" fill="#B9E1FF"/>
<path d="M61.1849 245.173C60.4245 245.362 59.9145 246.106 60.0458 246.835C60.1772 247.563 60.9002 248.001 61.6607 247.812C62.4211 247.622 62.9311 246.879 62.7997 246.15C62.6683 245.421 61.9454 244.984 61.1849 245.173Z" fill="#B9E1FF"/>
<path d="M51.5166 239.682C50.9836 239.814 50.6345 240.323 50.7266 240.834C50.8187 241.345 51.3136 241.644 51.8466 241.512C52.3796 241.379 52.7286 240.87 52.6365 240.359C52.5445 239.849 52.0496 239.549 51.5166 239.682Z" fill="#B9E1FF"/>
<path d="M41.826 234.066C41.4707 234.154 41.2319 234.503 41.2933 234.843C41.3546 235.184 41.6932 235.389 42.0486 235.3C42.4039 235.212 42.6427 234.863 42.5814 234.523C42.52 234.183 42.1814 233.978 41.826 234.066Z" fill="#B9E1FF"/>
<path d="M32.0631 228.177C31.7078 228.266 31.4689 228.614 31.5303 228.955C31.5917 229.295 31.9303 229.5 32.2856 229.412C32.641 229.323 32.8798 228.975 32.8184 228.634C32.757 228.294 32.4184 228.089 32.0631 228.177Z" fill="#B9E1FF"/>
<path d="M22.3938 222.688C22.2712 222.719 22.1889 222.839 22.2101 222.956C22.2313 223.074 22.3479 223.144 22.4706 223.114C22.5932 223.083 22.6755 222.963 22.6543 222.846C22.6331 222.728 22.5165 222.658 22.3938 222.688Z" fill="#B9E1FF"/>
<path d="M272.883 359.113C272.173 359.289 271.673 359.992 271.799 360.694C271.926 361.396 272.603 361.806 273.336 361.624C274.069 361.441 274.546 360.745 274.42 360.042C274.293 359.34 273.616 358.93 272.883 359.113Z" fill="#B9E1FF"/>
<path d="M263.105 353.008C262.261 353.218 261.691 354.048 261.837 354.857C261.983 355.666 262.79 356.154 263.634 355.944C264.478 355.735 265.048 354.904 264.902 354.095C264.756 353.287 263.949 352.798 263.105 353.008Z" fill="#B9E1FF"/>
<path d="M253.361 347.228C252.584 347.421 252.07 348.172 252.204 348.917C252.338 349.661 253.067 350.103 253.845 349.909C254.622 349.716 255.136 348.966 255.002 348.221C254.868 347.476 254.139 347.035 253.361 347.228Z" fill="#B9E1FF"/>
<path d="M243.55 340.949C242.556 341.196 241.89 342.168 242.061 343.119C242.233 344.071 243.178 344.643 244.171 344.396C245.165 344.149 245.831 343.177 245.659 342.225C245.488 341.273 244.543 340.702 243.55 340.949Z" fill="#B9E1FF"/>
<path d="M233.757 334.892C232.668 335.162 231.952 336.207 232.14 337.25C232.328 338.293 233.344 338.907 234.432 338.637C235.52 338.366 236.237 337.321 236.049 336.278C235.861 335.236 234.845 334.621 233.757 334.892Z" fill="#B9E1FF"/>
<path d="M223.978 328.785C222.776 329.084 221.97 330.26 222.177 331.411C222.385 332.563 223.528 333.254 224.73 332.956C225.932 332.657 226.738 331.481 226.53 330.329C226.323 329.177 225.18 328.486 223.978 328.785Z" fill="#B9E1FF"/>
<path d="M214.211 322.877C213.012 323.175 212.203 324.354 212.411 325.503C212.618 326.652 213.764 327.346 214.963 327.047C216.162 326.749 216.971 325.57 216.763 324.421C216.556 323.272 215.41 322.579 214.211 322.877Z" fill="#B9E1FF"/>
<path d="M204.459 316.917C203.215 317.227 202.388 318.433 202.603 319.624C202.818 320.816 203.99 321.525 205.234 321.216C206.477 320.907 207.304 319.701 207.089 318.509C206.874 317.317 205.702 316.608 204.459 316.917Z" fill="#B9E1FF"/>
<path d="M194.698 310.919C193.41 311.239 192.524 312.504 192.751 313.76C192.977 315.015 194.201 315.756 195.511 315.43C196.822 315.104 197.685 313.845 197.459 312.589C197.232 311.334 196.008 310.593 194.698 310.919Z" fill="#B9E1FF"/>
<path d="M184.93 305.009C183.642 305.329 182.756 306.594 182.983 307.85C183.209 309.105 184.433 309.846 185.744 309.52C187.054 309.195 187.917 307.935 187.691 306.679C187.465 305.424 186.24 304.683 184.93 305.009Z" fill="#B9E1FF"/>
<path d="M175.19 299.116C173.902 299.436 173.016 300.701 173.242 301.956C173.469 303.212 174.693 303.952 176.003 303.627C177.313 303.301 178.177 302.041 177.95 300.786C177.724 299.53 176.5 298.79 175.19 299.116Z" fill="#B9E1FF"/>
<path d="M165.427 293.226C164.139 293.546 163.253 294.811 163.48 296.067C163.706 297.322 164.93 298.063 166.241 297.737C167.551 297.411 168.414 296.152 168.188 294.896C167.962 293.641 166.738 292.9 165.427 293.226Z" fill="#B9E1FF"/>
<path d="M155.701 287.418C154.462 287.726 153.631 288.938 153.845 290.125C154.059 291.312 155.237 292.025 156.476 291.717C157.715 291.409 158.545 290.197 158.331 289.01C158.117 287.823 156.939 287.11 155.701 287.418Z" fill="#B9E1FF"/>
<path d="M145.934 281.509C144.696 281.817 143.865 283.029 144.079 284.216C144.293 285.403 145.471 286.116 146.709 285.808C147.948 285.5 148.779 284.288 148.565 283.101C148.351 281.914 147.173 281.201 145.934 281.509Z" fill="#B9E1FF"/>
<path d="M136.217 275.744C135.04 276.036 134.272 277.183 134.472 278.29C134.671 279.396 135.791 280.074 136.946 279.787C138.101 279.5 138.891 278.347 138.691 277.241C138.492 276.134 137.372 275.457 136.217 275.744Z" fill="#B9E1FF"/>
<path d="M126.498 269.977C125.41 270.248 124.693 271.293 124.881 272.335C125.069 273.378 126.085 273.993 127.173 273.722C128.261 273.452 128.978 272.406 128.79 271.364C128.602 270.321 127.586 269.707 126.498 269.977Z" fill="#B9E1FF"/>
<path d="M116.735 264.091C115.647 264.361 114.93 265.407 115.118 266.449C115.306 267.492 116.322 268.106 117.41 267.836C118.499 267.565 119.215 266.52 119.027 265.478C118.839 264.435 117.823 263.82 116.735 264.091Z" fill="#B9E1FF"/>
<path d="M107.024 258.365C106.047 258.607 105.404 259.545 105.573 260.482C105.742 261.418 106.653 261.97 107.63 261.727C108.607 261.484 109.25 260.546 109.082 259.609C108.913 258.673 108.001 258.122 107.024 258.365Z" fill="#B9E1FF"/>
<path d="M97.2995 252.69C96.4556 252.899 95.886 253.73 96.0318 254.539C96.1776 255.347 96.985 255.836 97.8289 255.626C98.6729 255.416 99.2424 254.585 99.0966 253.777C98.9508 252.968 98.1434 252.48 97.2995 252.69Z" fill="#B9E1FF"/>
<path d="M87.6324 247.202C87.0105 247.357 86.6063 247.947 86.7138 248.542C86.8212 249.138 87.3942 249.485 88.016 249.33C88.6379 249.176 89.0421 248.586 88.9346 247.99C88.8272 247.394 88.2542 247.048 87.6324 247.202Z" fill="#B9E1FF"/>
<path d="M77.8417 241.164C77.1549 241.335 76.6943 242.007 76.8129 242.665C76.9316 243.323 77.5846 243.718 78.2714 243.547C78.9583 243.377 79.4189 242.705 79.3003 242.047C79.1816 241.389 78.5286 240.993 77.8417 241.164Z" fill="#B9E1FF"/>
<path d="M68.1509 235.547C67.6179 235.679 67.2688 236.188 67.3609 236.699C67.453 237.21 67.9478 237.509 68.4808 237.377C69.0138 237.244 69.3629 236.735 69.2708 236.224C69.1787 235.713 68.6839 235.414 68.1509 235.547Z" fill="#B9E1FF"/>
<path d="M58.4571 230.041C58.1461 230.118 57.944 230.413 57.9978 230.711C58.0515 231.009 58.338 231.182 58.6489 231.105C58.9598 231.028 59.1619 230.733 59.1082 230.435C59.0545 230.137 58.768 229.964 58.4571 230.041Z" fill="#B9E1FF"/>
<path d="M48.7112 224.126C48.4003 224.204 48.1982 224.498 48.2519 224.796C48.3056 225.094 48.5921 225.268 48.903 225.19C49.214 225.113 49.416 224.818 49.3623 224.52C49.3086 224.222 49.0221 224.049 48.7112 224.126Z" fill="#B9E1FF"/>
<path d="M39.0259 218.533C38.8926 218.566 38.823 218.695 38.8422 218.801C38.8614 218.907 38.9916 218.986 39.1026 218.959C39.2137 218.931 39.3055 218.797 39.2863 218.691C39.2672 218.584 39.1369 218.505 39.0259 218.533Z" fill="#B9E1FF"/>
<path d="M299.393 361.618C299.082 361.695 298.88 361.99 298.934 362.288C298.988 362.585 299.274 362.759 299.585 362.681C299.896 362.604 300.098 362.309 300.044 362.011C299.991 361.714 299.704 361.54 299.393 361.618Z" fill="#B9E1FF"/>
<path d="M289.598 355.426C289.132 355.542 288.82 355.997 288.9 356.444C288.981 356.891 289.424 357.159 289.89 357.043C290.356 356.927 290.669 356.471 290.588 356.024C290.508 355.578 290.065 355.31 289.598 355.426Z" fill="#B9E1FF"/>
<path d="M279.877 349.638C279.477 349.737 279.22 350.113 279.289 350.496C279.358 350.879 279.722 351.099 280.122 351C280.522 350.901 280.779 350.525 280.71 350.142C280.641 349.759 280.276 349.539 279.877 349.638Z" fill="#B9E1FF"/>
<path d="M270.068 343.496C269.528 343.63 269.166 344.158 269.259 344.675C269.352 345.192 269.865 345.503 270.405 345.368C270.945 345.234 271.307 344.706 271.214 344.189C271.12 343.672 270.607 343.362 270.068 343.496Z" fill="#B9E1FF"/>
<path d="M260.254 337.198C259.481 337.39 258.963 338.146 259.096 338.887C259.23 339.627 259.964 340.072 260.737 339.88C261.51 339.687 262.028 338.932 261.895 338.191C261.761 337.451 261.026 337.006 260.254 337.198Z" fill="#B9E1FF"/>
<path d="M250.517 331.458C249.829 331.629 249.37 332.299 249.488 332.958C249.607 333.618 250.259 334.012 250.947 333.841C251.635 333.67 252.095 333 251.976 332.34C251.857 331.68 251.206 331.287 250.517 331.458Z" fill="#B9E1FF"/>
<path d="M240.746 325.394C239.973 325.586 239.455 326.342 239.588 327.083C239.722 327.823 240.456 328.267 241.229 328.075C242.002 327.883 242.52 327.127 242.386 326.387C242.253 325.647 241.518 325.202 240.746 325.394Z" fill="#B9E1FF"/>
<path d="M230.914 319.123C229.92 319.37 229.254 320.342 229.425 321.294C229.597 322.246 230.542 322.817 231.535 322.57C232.529 322.323 233.195 321.351 233.023 320.399C232.852 319.448 231.907 318.876 230.914 319.123Z" fill="#B9E1FF"/>
<path d="M221.146 313.081C220.08 313.346 219.364 314.391 219.548 315.413C219.732 316.434 220.748 317.049 221.814 316.784C222.88 316.519 223.596 315.473 223.412 314.452C223.228 313.431 222.212 312.816 221.146 313.081Z" fill="#B9E1FF"/>
<path d="M211.429 307.447C210.519 307.673 209.894 308.584 210.051 309.457C210.209 310.329 211.094 310.865 212.005 310.639C212.915 310.412 213.54 309.501 213.383 308.629C213.225 307.756 212.34 307.22 211.429 307.447Z" fill="#B9E1FF"/>
<path d="M201.623 301.192C200.513 301.468 199.759 302.567 199.951 303.631C200.143 304.695 201.211 305.341 202.321 305.065C203.432 304.789 204.185 303.69 203.993 302.626C203.801 301.562 202.733 300.916 201.623 301.192Z" fill="#B9E1FF"/>
<path d="M191.875 295.258C190.734 295.541 189.969 296.657 190.166 297.75C190.363 298.843 191.448 299.499 192.588 299.216C193.729 298.932 194.494 297.816 194.297 296.723C194.1 295.63 193.015 294.974 191.875 295.258Z" fill="#B9E1FF"/>
<path d="M182.156 289.623C181.157 289.872 180.495 290.837 180.668 291.794C180.841 292.752 181.778 293.319 182.778 293.071C183.777 292.822 184.438 291.857 184.266 290.9C184.093 289.942 183.155 289.375 182.156 289.623Z" fill="#B9E1FF"/>
<path d="M172.42 283.752C171.443 283.995 170.804 284.954 170.969 285.869C171.134 286.784 172.049 287.357 173.027 287.114C174.004 286.871 174.647 285.933 174.478 284.997C174.309 284.06 173.398 283.509 172.42 283.752Z" fill="#B9E1FF"/>
<path d="M162.607 277.588C161.491 277.865 160.742 278.957 160.935 280.026C161.128 281.096 162.189 281.738 163.305 281.46C164.421 281.183 165.17 280.091 164.977 279.022C164.784 277.952 163.723 277.31 162.607 277.588Z" fill="#B9E1FF"/>
<path d="M152.889 271.822C151.846 272.082 151.148 273.1 151.328 274.1C151.508 275.1 152.498 275.699 153.542 275.439C154.586 275.18 155.284 274.162 155.103 273.161C154.923 272.161 153.933 271.563 152.889 271.822Z" fill="#B9E1FF"/>
<path d="M143.176 266.211C142.288 266.432 141.7 267.289 141.853 268.14C142.007 268.992 142.84 269.496 143.729 269.275C144.617 269.054 145.205 268.197 145.051 267.345C144.898 266.494 144.064 265.99 143.176 266.211Z" fill="#B9E1FF"/>
<path d="M133.396 260.104C132.403 260.351 131.736 261.323 131.908 262.275C132.08 263.227 133.024 263.798 134.018 263.551C135.011 263.304 135.678 262.332 135.506 261.38C135.334 260.428 134.39 259.857 133.396 260.104Z" fill="#B9E1FF"/>
<path d="M123.69 254.402C122.801 254.623 122.213 255.481 122.367 256.332C122.52 257.183 123.354 257.687 124.242 257.466C125.13 257.246 125.718 256.388 125.565 255.537C125.411 254.686 124.578 254.181 123.69 254.402Z" fill="#B9E1FF"/>
<path d="M113.984 248.833C113.296 249.004 112.836 249.674 112.955 250.333C113.074 250.993 113.725 251.387 114.414 251.216C115.102 251.045 115.562 250.375 115.443 249.715C115.324 249.055 114.673 248.662 113.984 248.833Z" fill="#B9E1FF"/>
<path d="M104.294 243.215C103.761 243.347 103.412 243.856 103.504 244.367C103.596 244.878 104.091 245.177 104.624 245.045C105.157 244.912 105.506 244.403 105.414 243.892C105.322 243.381 104.827 243.082 104.294 243.215Z" fill="#B9E1FF"/>
<path d="M94.4991 237.157C93.8772 237.312 93.473 237.902 93.5805 238.497C93.6879 239.093 94.2609 239.44 94.8827 239.285C95.5046 239.131 95.9088 238.541 95.8013 237.945C95.6939 237.35 95.1209 237.003 94.4991 237.157Z" fill="#B9E1FF"/>
<path d="M84.831 231.669C84.4534 231.763 84.1962 232.138 84.2614 232.5C84.3267 232.861 84.6913 233.082 85.0688 232.988C85.4464 232.894 85.7036 232.519 85.6384 232.157C85.5732 231.796 85.2085 231.575 84.831 231.669Z" fill="#B9E1FF"/>
<path d="M75.1176 226.057C74.8956 226.112 74.7486 226.327 74.787 226.539C74.8253 226.752 75.0337 226.878 75.2558 226.823C75.4778 226.768 75.6248 226.553 75.5865 226.341C75.5481 226.128 75.3397 226.002 75.1176 226.057Z" fill="#B9E1FF"/>
<path d="M65.3547 220.036C65.066 220.108 64.8861 220.397 64.9321 220.652C64.9782 220.908 65.2647 221.081 65.5312 221.015C65.7977 220.948 65.9998 220.654 65.9537 220.398C65.9077 220.143 65.6212 219.97 65.3547 220.036Z" fill="#B9E1FF"/>
<path d="M55.6562 214.509C55.6562 214.509 55.5338 214.606 55.5453 214.669C55.5568 214.733 55.6352 214.78 55.7021 214.764C55.769 214.747 55.8244 214.667 55.8129 214.603C55.8014 214.539 55.7231 214.492 55.6562 214.509Z" fill="#B9E1FF"/>
<path d="M316.1 357.887C316.1 357.887 315.978 357.984 315.989 358.047C316.001 358.111 316.079 358.158 316.146 358.142C316.213 358.125 316.269 358.045 316.257 357.981C316.246 357.917 316.167 357.87 316.1 357.887Z" fill="#B9E1FF"/>
<path d="M306.374 352.08C306.374 352.08 306.352 352.086 306.355 352.107C306.359 352.128 306.359 352.128 306.382 352.122C306.405 352.117 306.405 352.117 306.401 352.095C306.397 352.074 306.397 352.074 306.374 352.08Z" fill="#B9E1FF"/>
<path d="M296.554 345.87C296.354 345.919 296.225 346.107 296.26 346.299C296.294 346.49 296.477 346.6 296.677 346.551C296.877 346.501 297.005 346.313 296.971 346.122C296.936 345.93 296.754 345.82 296.554 345.87Z" fill="#B9E1FF"/>
<path d="M286.759 339.678C286.403 339.767 286.165 340.115 286.226 340.456C286.288 340.796 286.626 341.001 286.981 340.913C287.337 340.824 287.576 340.476 287.514 340.135C287.453 339.795 287.115 339.59 286.759 339.678Z" fill="#B9E1FF"/>
<path d="M277.015 333.764C276.659 333.853 276.421 334.201 276.482 334.541C276.543 334.882 276.882 335.087 277.237 334.998C277.593 334.91 277.831 334.562 277.77 334.221C277.709 333.881 277.37 333.676 277.015 333.764Z" fill="#B9E1FF"/>
<path d="M267.217 327.685C266.751 327.801 266.438 328.257 266.519 328.704C266.599 329.15 267.043 329.418 267.509 329.303C267.975 329.187 268.287 328.731 268.207 328.284C268.126 327.838 267.683 327.569 267.217 327.685Z" fill="#B9E1FF"/>
<path d="M257.439 321.58C256.839 321.729 256.457 322.313 256.557 322.866C256.657 323.419 257.23 323.766 257.807 323.622C258.385 323.479 258.789 322.889 258.689 322.336C258.589 321.783 258.016 321.436 257.439 321.58Z" fill="#B9E1FF"/>
<path d="M247.672 315.672C247.072 315.821 246.69 316.405 246.79 316.958C246.89 317.512 247.463 317.858 248.04 317.715C248.618 317.571 249.022 316.982 248.922 316.428C248.822 315.875 248.249 315.528 247.672 315.672Z" fill="#B9E1FF"/>
<path d="M237.899 309.606C237.21 309.777 236.751 310.447 236.87 311.106C236.989 311.766 237.64 312.16 238.329 311.989C239.017 311.818 239.476 311.148 239.357 310.488C239.238 309.828 238.587 309.434 237.899 309.606Z" fill="#B9E1FF"/>
<path d="M228.117 303.612C227.384 303.794 226.888 304.518 227.015 305.22C227.141 305.922 227.845 306.347 228.577 306.165C229.31 305.983 229.806 305.259 229.68 304.557C229.553 303.855 228.85 303.43 228.117 303.612Z" fill="#B9E1FF"/>
<path d="M218.318 297.397C217.398 297.626 216.781 298.526 216.94 299.407C217.099 300.288 217.974 300.818 218.894 300.589C219.814 300.36 220.43 299.46 220.272 298.579C220.113 297.697 219.238 297.168 218.318 297.397Z" fill="#B9E1FF"/>
<path d="M208.589 291.703C207.79 291.902 207.239 292.706 207.377 293.472C207.515 294.238 208.296 294.711 209.096 294.512C209.895 294.313 210.446 293.509 210.308 292.743C210.17 291.977 209.389 291.504 208.589 291.703Z" fill="#B9E1FF"/>
<path d="M198.841 285.765C198.02 285.969 197.446 286.779 197.592 287.588C197.738 288.396 198.519 288.869 199.363 288.659C200.207 288.449 200.758 287.645 200.612 286.837C200.467 286.028 199.685 285.555 198.841 285.765Z" fill="#B9E1FF"/>
<path d="M189.096 279.85C188.274 280.054 187.701 280.864 187.847 281.673C187.992 282.481 188.774 282.954 189.618 282.744C190.462 282.534 191.013 281.73 190.867 280.922C190.721 280.113 189.94 279.64 189.096 279.85Z" fill="#B9E1FF"/>
<path d="M179.333 273.964C178.512 274.168 177.938 274.978 178.084 275.786C178.23 276.595 179.011 277.068 179.855 276.858C180.699 276.648 181.25 275.844 181.105 275.035C180.959 274.227 180.177 273.754 179.333 273.964Z" fill="#B9E1FF"/>
<path d="M169.607 268.153C168.834 268.345 168.316 269.101 168.45 269.841C168.583 270.582 169.318 271.026 170.091 270.834C170.863 270.642 171.382 269.886 171.248 269.146C171.115 268.405 170.38 267.961 169.607 268.153Z" fill="#B9E1FF"/>
<path d="M159.852 262.309C159.119 262.492 158.623 263.215 158.75 263.917C158.877 264.62 159.58 265.045 160.313 264.863C161.046 264.681 161.542 263.957 161.415 263.255C161.288 262.553 160.585 262.127 159.852 262.309Z" fill="#B9E1FF"/>
<path d="M150.065 256.16C149.182 256.379 148.59 257.243 148.742 258.09C148.895 258.936 149.734 259.444 150.618 259.224C151.501 259.005 152.093 258.141 151.94 257.295C151.788 256.448 150.948 255.94 150.065 256.16Z" fill="#B9E1FF"/>
<path d="M140.366 250.632C139.7 250.798 139.259 251.441 139.374 252.079C139.489 252.718 140.114 253.096 140.781 252.93C141.447 252.765 141.888 252.122 141.773 251.483C141.658 250.845 141.033 250.467 140.366 250.632Z" fill="#B9E1FF"/>
<path d="M130.653 244.889C130.075 245.033 129.69 245.595 129.789 246.149C129.889 246.702 130.436 247.033 131.014 246.889C131.591 246.746 131.977 246.183 131.877 245.63C131.777 245.077 131.23 244.746 130.653 244.889Z" fill="#B9E1FF"/>
<path d="M120.95 239.209C120.496 239.322 120.192 239.766 120.271 240.2C120.349 240.635 120.78 240.896 121.234 240.783C121.688 240.671 121.992 240.227 121.914 239.792C121.836 239.357 121.404 239.096 120.95 239.209Z" fill="#B9E1FF"/>
<path d="M111.186 233.32C110.742 233.43 110.426 233.864 110.507 234.311C110.587 234.758 111.004 235.01 111.47 234.894C111.937 234.778 112.231 234.349 112.15 233.903C112.069 233.456 111.653 233.204 111.186 233.32Z" fill="#B9E1FF"/>
<path d="M101.484 227.639C101.151 227.721 100.953 228.037 101.006 228.335C101.06 228.633 101.373 228.822 101.684 228.745C101.994 228.668 102.215 228.346 102.161 228.048C102.108 227.75 101.795 227.561 101.484 227.639Z" fill="#B9E1FF"/>
<path d="M91.757 221.944C91.5571 221.993 91.4285 222.181 91.463 222.372C91.4976 222.564 91.6799 222.674 91.8798 222.624C92.0797 222.575 92.2082 222.387 92.1737 222.196C92.1392 222.004 91.9569 221.894 91.757 221.944Z" fill="#B9E1FF"/>
<path d="M82.0153 216.049C81.8154 216.099 81.6868 216.286 81.7214 216.478C81.7559 216.669 81.9382 216.78 82.1381 216.73C82.3379 216.68 82.4666 216.493 82.432 216.301C82.3975 216.11 82.2152 215.999 82.0153 216.049Z" fill="#B9E1FF"/>
<path d="M72.3091 210.481C72.2964 210.484 72.2879 210.496 72.29 210.508C72.2921 210.519 72.3041 210.526 72.3167 210.523C72.3294 210.52 72.3379 210.508 72.3358 210.496C72.3337 210.485 72.3217 210.478 72.3091 210.481Z" fill="#B9E1FF"/>
<path d="M293.704 330.061C293.581 330.091 293.499 330.211 293.52 330.329C293.542 330.446 293.658 330.517 293.781 330.486C293.903 330.456 293.986 330.336 293.965 330.218C293.943 330.101 293.827 330.03 293.704 330.061Z" fill="#B9E1FF"/>
<path d="M283.911 323.891C283.642 323.958 283.461 324.222 283.507 324.48C283.554 324.739 283.81 324.894 284.08 324.827C284.35 324.76 284.531 324.496 284.484 324.237C284.438 323.979 284.181 323.824 283.911 323.891Z" fill="#B9E1FF"/>
<path d="M274.195 318.124C273.998 318.173 273.867 318.365 273.901 318.553C273.935 318.741 274.121 318.854 274.318 318.805C274.514 318.756 274.645 318.564 274.611 318.376C274.578 318.188 274.391 318.075 274.195 318.124Z" fill="#B9E1FF"/>
<path d="M264.374 311.918C263.997 312.012 263.74 312.387 263.805 312.749C263.87 313.111 264.235 313.331 264.612 313.238C264.99 313.144 265.247 312.769 265.182 312.407C265.117 312.045 264.752 311.824 264.374 311.918Z" fill="#B9E1FF"/>
<path d="M254.603 305.852C254.136 305.968 253.824 306.424 253.904 306.871C253.985 307.318 254.428 307.585 254.894 307.47C255.36 307.354 255.673 306.898 255.592 306.451C255.512 306.004 255.069 305.736 254.603 305.852Z" fill="#B9E1FF"/>
<path d="M244.87 300.135C244.515 300.224 244.276 300.572 244.338 300.913C244.399 301.253 244.738 301.458 245.093 301.37C245.448 301.281 245.687 300.933 245.626 300.592C245.564 300.252 245.226 300.047 244.87 300.135Z" fill="#B9E1FF"/>
<path d="M235.071 293.923C234.538 294.056 234.171 294.592 234.263 295.102C234.355 295.613 234.876 295.928 235.409 295.796C235.942 295.663 236.309 295.127 236.217 294.616C236.125 294.106 235.604 293.791 235.071 293.923Z" fill="#B9E1FF"/>
<path d="M225.285 287.908C224.663 288.062 224.259 288.652 224.366 289.248C224.474 289.844 225.047 290.19 225.668 290.036C226.29 289.881 226.694 289.292 226.587 288.696C226.48 288.1 225.907 287.753 225.285 287.908Z" fill="#B9E1FF"/>
<path d="M215.529 281.928C214.885 282.088 214.444 282.731 214.555 283.348C214.667 283.965 215.292 284.343 215.936 284.183C216.58 284.023 217.021 283.38 216.909 282.763C216.798 282.146 216.173 281.768 215.529 281.928Z" fill="#B9E1FF"/>
<path d="M205.811 276.295C205.3 276.422 204.969 276.905 205.057 277.394C205.146 277.884 205.615 278.167 206.125 278.04C206.636 277.913 206.967 277.431 206.879 276.942C206.79 276.452 206.322 276.168 205.811 276.295Z" fill="#B9E1FF"/>
<path d="M196.017 270.104C195.355 270.269 194.911 270.917 195.025 271.552C195.14 272.186 195.77 272.567 196.432 272.403C197.094 272.238 197.538 271.59 197.424 270.955C197.309 270.321 196.68 269.94 196.017 270.104Z" fill="#B9E1FF"/>
<path d="M186.28 264.233C185.636 264.393 185.195 265.037 185.307 265.654C185.418 266.271 186.043 266.649 186.687 266.489C187.331 266.329 187.772 265.686 187.661 265.068C187.549 264.451 186.924 264.073 186.28 264.233Z" fill="#B9E1FF"/>
<path d="M176.571 258.642C176.105 258.758 175.792 259.213 175.873 259.66C175.953 260.107 176.396 260.375 176.863 260.259C177.329 260.143 177.641 259.688 177.561 259.241C177.48 258.794 177.037 258.526 176.571 258.642Z" fill="#B9E1FF"/>
<path d="M166.792 252.535C166.192 252.684 165.81 253.268 165.91 253.822C166.01 254.375 166.583 254.722 167.16 254.578C167.737 254.434 168.142 253.845 168.042 253.292C167.942 252.738 167.369 252.392 166.792 252.535Z" fill="#B9E1FF"/>
<path d="M157.044 246.732C156.504 246.866 156.142 247.394 156.235 247.911C156.329 248.428 156.842 248.739 157.381 248.605C157.921 248.471 158.283 247.943 158.19 247.426C158.097 246.908 157.584 246.598 157.044 246.732Z" fill="#B9E1FF"/>
<path d="M147.322 240.945C146.856 241.061 146.543 241.517 146.624 241.964C146.704 242.41 147.147 242.678 147.613 242.562C148.079 242.446 148.392 241.991 148.311 241.544C148.231 241.097 147.788 240.829 147.322 240.945Z" fill="#B9E1FF"/>
<path d="M137.62 235.398C137.354 235.464 137.17 235.732 137.216 235.988C137.262 236.243 137.523 236.401 137.789 236.334C138.056 236.268 138.239 236 138.193 235.745C138.147 235.489 137.887 235.332 137.62 235.398Z" fill="#B9E1FF"/>
<path d="M127.848 229.333C127.492 229.422 127.254 229.77 127.315 230.11C127.377 230.451 127.715 230.656 128.071 230.567C128.426 230.479 128.665 230.131 128.603 229.79C128.542 229.449 128.204 229.245 127.848 229.333Z" fill="#B9E1FF"/>
<path d="M118.146 223.653C117.913 223.711 117.756 223.939 117.797 224.162C117.837 224.386 118.058 224.52 118.291 224.462C118.524 224.404 118.681 224.176 118.64 223.953C118.6 223.729 118.379 223.595 118.146 223.653Z" fill="#B9E1FF"/>
<path d="M108.447 218.125C108.447 218.125 108.424 218.131 108.428 218.152C108.432 218.173 108.432 218.173 108.455 218.167C108.478 218.162 108.478 218.162 108.474 218.14C108.47 218.119 108.47 218.119 108.447 218.125Z" fill="#B9E1FF"/>
<path d="M98.6836 212.107C98.6836 212.107 98.5396 212.209 98.5549 212.294C98.5702 212.379 98.6483 212.426 98.7371 212.404C98.826 212.382 98.8811 212.302 98.8658 212.217C98.8505 212.132 98.7724 212.085 98.6836 212.107Z" fill="#B9E1FF"/>
<path d="M281.062 308.081C280.862 308.13 280.733 308.318 280.768 308.51C280.803 308.701 280.985 308.811 281.185 308.762C281.385 308.712 281.513 308.524 281.479 308.333C281.444 308.141 281.262 308.031 281.062 308.081Z" fill="#B9E1FF"/>
<path d="M271.359 302.401C271.359 302.401 271.237 302.498 271.248 302.562C271.26 302.626 271.338 302.673 271.405 302.656C271.472 302.64 271.528 302.559 271.516 302.496C271.505 302.432 271.426 302.385 271.359 302.401Z" fill="#B9E1FF"/>
<path d="M261.565 296.341C261.41 296.379 261.3 296.54 261.327 296.689C261.353 296.838 261.51 296.933 261.665 296.894C261.821 296.855 261.931 296.695 261.904 296.546C261.877 296.397 261.721 296.302 261.565 296.341Z" fill="#B9E1FF"/>
<path d="M251.764 290.106C251.409 290.194 251.17 290.543 251.232 290.883C251.293 291.224 251.631 291.429 251.987 291.34C252.342 291.252 252.581 290.904 252.52 290.563C252.458 290.223 252.12 290.018 251.764 290.106Z" fill="#B9E1FF"/>
<path d="M242.038 284.431C241.794 284.492 241.651 284.727 241.689 284.94C241.727 285.153 241.962 285.295 242.184 285.24C242.406 285.184 242.571 284.943 242.533 284.73C242.494 284.518 242.26 284.376 242.038 284.431Z" fill="#B9E1FF"/>
<path d="M232.279 278.432C231.99 278.504 231.81 278.793 231.856 279.048C231.902 279.304 232.189 279.477 232.455 279.411C232.722 279.344 232.924 279.05 232.878 278.794C232.832 278.539 232.545 278.366 232.279 278.432Z" fill="#B9E1FF"/>
<path d="M222.504 272.479C222.185 272.558 221.971 272.87 222.026 273.176C222.081 273.481 222.384 273.665 222.703 273.585C223.022 273.506 223.236 273.194 223.181 272.889C223.126 272.583 222.822 272.4 222.504 272.479Z" fill="#B9E1FF"/>
<path d="M212.701 266.246C212.19 266.373 211.86 266.856 211.948 267.345C212.036 267.834 212.505 268.118 213.016 267.991C213.527 267.864 213.857 267.382 213.769 266.892C213.681 266.403 213.212 266.119 212.701 266.246Z" fill="#B9E1FF"/>
<path d="M202.995 260.675C202.662 260.758 202.464 261.074 202.517 261.372C202.571 261.67 202.884 261.859 203.195 261.782C203.505 261.704 203.726 261.383 203.672 261.085C203.619 260.787 203.306 260.598 202.995 260.675Z" fill="#B9E1FF"/>
<path d="M193.251 254.761C192.918 254.843 192.72 255.16 192.774 255.457C192.827 255.755 193.14 255.944 193.451 255.867C193.762 255.79 193.982 255.468 193.929 255.17C193.875 254.872 193.562 254.683 193.251 254.761Z" fill="#B9E1FF"/>
<path d="M183.464 248.614C182.998 248.73 182.686 249.185 182.766 249.632C182.847 250.079 183.29 250.347 183.756 250.231C184.222 250.115 184.535 249.659 184.454 249.212C184.373 248.766 183.931 248.498 183.464 248.614Z" fill="#B9E1FF"/>
<path d="M173.754 243.023C173.466 243.095 173.286 243.384 173.332 243.64C173.378 243.895 173.664 244.068 173.931 244.002C174.197 243.936 174.399 243.641 174.353 243.386C174.307 243.13 174.021 242.957 173.754 243.023Z" fill="#B9E1FF"/>
<path d="M164.033 237.236C163.812 237.291 163.664 237.507 163.702 237.718C163.741 237.93 163.951 238.057 164.171 238.002C164.392 237.947 164.54 237.731 164.502 237.519C164.464 237.308 164.254 237.181 164.033 237.236Z" fill="#B9E1FF"/>
<path d="M154.288 231.453C154.132 231.492 154.022 231.653 154.049 231.801C154.076 231.95 154.232 232.045 154.388 232.006C154.543 231.968 154.653 231.807 154.626 231.658C154.6 231.509 154.443 231.414 154.288 231.453Z" fill="#B9E1FF"/>
<path d="M144.51 225.348C144.243 225.414 144.059 225.682 144.105 225.937C144.151 226.193 144.412 226.35 144.678 226.284C144.945 226.218 145.129 225.95 145.083 225.694C145.037 225.439 144.776 225.282 144.51 225.348Z" fill="#B9E1FF"/>
<path d="M134.815 219.843C134.815 219.843 134.733 219.908 134.741 219.95C134.749 219.993 134.801 220.024 134.846 220.013C134.89 220.002 134.927 219.948 134.919 219.906C134.912 219.863 134.86 219.832 134.815 219.843Z" fill="#B9E1FF"/>
<path d="M115.34 208.099C115.34 208.099 115.317 208.105 115.321 208.126C115.325 208.148 115.325 208.148 115.348 208.142C115.371 208.136 115.371 208.136 115.367 208.115C115.363 208.094 115.363 208.094 115.34 208.099Z" fill="#B9E1FF"/>
<path d="M258.738 280.66C258.738 280.66 258.715 280.665 258.719 280.686C258.723 280.708 258.723 280.708 258.746 280.702C258.769 280.696 258.769 280.696 258.765 280.675C258.761 280.654 258.761 280.654 258.738 280.66Z" fill="#B9E1FF"/>
<path d="M248.974 274.638C248.974 274.638 248.83 274.74 248.845 274.825C248.861 274.91 248.939 274.957 249.027 274.935C249.116 274.913 249.171 274.832 249.156 274.747C249.141 274.663 249.063 274.615 248.974 274.638Z" fill="#B9E1FF"/>
<path d="M229.45 262.749C229.317 262.783 229.203 262.922 229.23 263.071C229.256 263.22 229.387 263.299 229.542 263.26C229.698 263.221 229.789 263.087 229.763 262.938C229.736 262.79 229.605 262.711 229.45 262.749Z" fill="#B9E1FF"/>
<path d="M219.68 256.818C219.524 256.857 219.414 257.018 219.441 257.167C219.468 257.316 219.624 257.41 219.78 257.372C219.935 257.333 220.045 257.172 220.018 257.023C219.992 256.874 219.835 256.78 219.68 256.818Z" fill="#B9E1FF"/>
<path d="M209.936 250.904C209.781 250.942 209.67 251.103 209.697 251.252C209.724 251.401 209.88 251.496 210.036 251.457C210.191 251.418 210.301 251.258 210.275 251.109C210.248 250.96 210.091 250.865 209.936 250.904Z" fill="#B9E1FF"/>
<path d="M200.173 245.016C200.017 245.055 199.907 245.216 199.934 245.364C199.961 245.513 200.117 245.608 200.272 245.569C200.428 245.531 200.538 245.37 200.511 245.221C200.484 245.072 200.328 244.977 200.173 245.016Z" fill="#B9E1FF"/>
<path d="M190.435 239.143C190.288 239.18 190.189 239.324 190.214 239.465C190.24 239.606 190.38 239.691 190.527 239.654C190.674 239.618 190.773 239.474 190.747 239.333C190.722 239.192 190.582 239.107 190.435 239.143Z" fill="#B9E1FF"/>
<path d="M180.709 233.334C180.709 233.334 180.565 233.437 180.581 233.521C180.596 233.606 180.674 233.653 180.763 233.631C180.852 233.609 180.907 233.529 180.892 233.444C180.876 233.359 180.798 233.312 180.709 233.334Z" fill="#B9E1FF"/>
<path d="M161.225 221.66C161.225 221.66 161.202 221.666 161.206 221.687C161.209 221.708 161.209 221.708 161.232 221.702C161.255 221.697 161.255 221.697 161.251 221.676C161.247 221.654 161.247 221.654 161.225 221.66Z" fill="#B9E1FF"/>
</g>
</g>
<defs>
<clipPath id="clip0_1102_2950">
<rect width="390" height="364" fill="white"/>
</clipPath>
</defs>
</svg>
