<svg width="40" height="40" viewBox="0 0 40 40" fill="none" xmlns="http://www.w3.org/2000/svg">
<rect width="40" height="40" rx="20" fill="#40398B"/>
<rect x="0.25" y="0.25" width="39.5" height="39.5" rx="19.75" stroke="white" stroke-opacity="0.24" stroke-width="0.5"/>
<path d="M12.0833 24.1667C11.5012 21.4194 11.5012 18.5806 12.0833 15.8333C12.1598 15.5543 12.3076 15.3001 12.5122 15.0955C12.7167 14.8909 12.971 14.7432 13.25 14.6667C17.7195 13.9262 22.2805 13.9262 26.75 14.6667C27.029 14.7432 27.2833 14.8909 27.4878 15.0955C27.6924 15.3001 27.8402 15.5543 27.9167 15.8333C28.4988 18.5806 28.4988 21.4194 27.9167 24.1667C27.8402 24.4457 27.6924 24.6999 27.4878 24.9045C27.2833 25.1091 27.029 25.2568 26.75 25.3333C22.2805 26.0739 17.7195 26.0739 13.25 25.3333C12.971 25.2568 12.7167 25.1091 12.5122 24.9045C12.3076 24.6999 12.1598 24.4457 12.0833 24.1667Z" stroke="white" stroke-linecap="round" stroke-linejoin="round"/>
<path d="M18.3333 22.5L22.5 20L18.3333 17.5V22.5Z" stroke="white" stroke-linecap="round" stroke-linejoin="round"/>
</svg>
