<svg width="140" height="39" viewBox="0 0 140 39" fill="none" xmlns="http://www.w3.org/2000/svg">
<mask id="path-1-outside-1_1534_5314" maskUnits="userSpaceOnUse" x="51" y="5" width="89" height="30" fill="black">
<rect fill="white" x="51" y="5" width="89" height="30"/>
<path d="M55.24 31V9.432H63.08C70.312 9.432 73.928 13.0373 73.928 20.248C73.928 23.7893 73.0107 26.4667 71.176 28.28C69.3627 30.0933 66.664 31 63.08 31H55.24ZM63.016 14.168H61.352V26.264H63.016C64.68 26.264 65.8533 25.8053 66.536 24.888C67.2187 23.9707 67.56 22.4133 67.56 20.216C67.56 17.9973 67.2187 16.44 66.536 15.544C65.8533 14.6267 64.68 14.168 63.016 14.168ZM85.81 31.48C82.5887 31.48 80.1353 30.52 78.45 28.6C76.7647 26.68 75.922 23.8853 75.922 20.216C75.922 16.5467 76.7647 13.752 78.45 11.832C80.1353 9.912 82.5887 8.952 85.81 8.952C89.0313 8.952 91.4847 9.912 93.17 11.832C94.8553 13.752 95.698 16.5467 95.698 20.216C95.698 23.8853 94.8553 26.68 93.17 28.6C91.4847 30.52 89.0313 31.48 85.81 31.48ZM85.81 26.616C87.0687 26.616 87.9647 26.136 88.498 25.176C89.0313 24.1947 89.298 22.5413 89.298 20.216C89.298 17.8907 89.0313 16.248 88.498 15.288C87.9647 14.3067 87.0687 13.816 85.81 13.816C84.5513 13.816 83.6553 14.3067 83.122 15.288C82.5887 16.248 82.322 17.8907 82.322 20.216C82.322 22.5413 82.5887 24.1947 83.122 25.176C83.6553 26.136 84.5513 26.616 85.81 26.616ZM98.6163 31V9.432H105.016L111.96 22.936V9.432H117.304V31H110.904L103.96 17.496V31H98.6163ZM121.133 31V9.432H135.597V14.104H127.053V17.752H133.965V22.424H127.053V26.328H135.725V31H121.133Z"/>
</mask>
<path d="M55.24 31V9.432H63.08C70.312 9.432 73.928 13.0373 73.928 20.248C73.928 23.7893 73.0107 26.4667 71.176 28.28C69.3627 30.0933 66.664 31 63.08 31H55.24ZM63.016 14.168H61.352V26.264H63.016C64.68 26.264 65.8533 25.8053 66.536 24.888C67.2187 23.9707 67.56 22.4133 67.56 20.216C67.56 17.9973 67.2187 16.44 66.536 15.544C65.8533 14.6267 64.68 14.168 63.016 14.168ZM85.81 31.48C82.5887 31.48 80.1353 30.52 78.45 28.6C76.7647 26.68 75.922 23.8853 75.922 20.216C75.922 16.5467 76.7647 13.752 78.45 11.832C80.1353 9.912 82.5887 8.952 85.81 8.952C89.0313 8.952 91.4847 9.912 93.17 11.832C94.8553 13.752 95.698 16.5467 95.698 20.216C95.698 23.8853 94.8553 26.68 93.17 28.6C91.4847 30.52 89.0313 31.48 85.81 31.48ZM85.81 26.616C87.0687 26.616 87.9647 26.136 88.498 25.176C89.0313 24.1947 89.298 22.5413 89.298 20.216C89.298 17.8907 89.0313 16.248 88.498 15.288C87.9647 14.3067 87.0687 13.816 85.81 13.816C84.5513 13.816 83.6553 14.3067 83.122 15.288C82.5887 16.248 82.322 17.8907 82.322 20.216C82.322 22.5413 82.5887 24.1947 83.122 25.176C83.6553 26.136 84.5513 26.616 85.81 26.616ZM98.6163 31V9.432H105.016L111.96 22.936V9.432H117.304V31H110.904L103.96 17.496V31H98.6163ZM121.133 31V9.432H135.597V14.104H127.053V17.752H133.965V22.424H127.053V26.328H135.725V31H121.133Z" fill="white"/>
<path d="M55.24 31H51.74C51.74 32.933 53.307 34.5 55.24 34.5V31ZM55.24 9.432V5.932C53.307 5.932 51.74 7.499 51.74 9.432H55.24ZM71.176 28.28L68.7156 25.7907C68.7108 25.7955 68.706 25.8003 68.7011 25.8051L71.176 28.28ZM61.352 14.168V10.668C59.419 10.668 57.852 12.235 57.852 14.168H61.352ZM61.352 26.264H57.852C57.852 28.197 59.419 29.764 61.352 29.764V26.264ZM66.536 24.888L63.7282 22.7985L63.7282 22.7985L66.536 24.888ZM66.536 15.544L63.7282 17.6335C63.7361 17.6441 63.744 17.6547 63.752 17.6652L66.536 15.544ZM55.24 31H58.74V9.432H55.24H51.74V31H55.24ZM55.24 9.432V12.932H63.08V9.432V5.932H55.24V9.432ZM63.08 9.432V12.932C66.1591 12.932 67.825 13.6975 68.7448 14.6145C69.6627 15.5297 70.428 17.1848 70.428 20.248H73.928H77.428C77.428 16.1005 76.3854 12.3476 73.6872 9.65747C70.991 6.96919 67.2329 5.932 63.08 5.932V9.432ZM73.928 20.248H70.428C70.428 23.2111 69.668 24.8494 68.7156 25.7907L71.176 28.28L73.6364 30.7693C76.3533 28.0839 77.428 24.3675 77.428 20.248H73.928ZM71.176 28.28L68.7011 25.8051C67.7687 26.7376 66.1105 27.5 63.08 27.5V31V34.5C67.2175 34.5 70.9567 33.4491 73.6509 30.7549L71.176 28.28ZM63.08 31V27.5H55.24V31V34.5H63.08V31ZM63.016 14.168V10.668H61.352V14.168V17.668H63.016V14.168ZM61.352 14.168H57.852V26.264H61.352H64.852V14.168H61.352ZM61.352 26.264V29.764H63.016V26.264V22.764H61.352V26.264ZM63.016 26.264V29.764C65.2572 29.764 67.7383 29.1349 69.3438 26.9775L66.536 24.888L63.7282 22.7985C63.7641 22.7502 63.8073 22.7083 63.8475 22.6784C63.8859 22.6499 63.9002 22.6483 63.8697 22.6602C63.7964 22.6889 63.5443 22.764 63.016 22.764V26.264ZM66.536 24.888L69.3438 26.9775C70.733 25.1108 71.06 22.5749 71.06 20.216H67.56H64.06C64.06 21.15 63.9859 21.8228 63.8852 22.2827C63.7816 22.7551 63.6804 22.8626 63.7282 22.7985L66.536 24.888ZM67.56 20.216H71.06C71.06 17.8584 70.7409 15.2878 69.32 13.4228L66.536 15.544L63.752 17.6652C63.6837 17.5755 63.7814 17.66 63.8852 18.1333C63.9855 18.5912 64.06 19.2686 64.06 20.216H67.56ZM66.536 15.544L69.3438 13.4545C67.7383 11.2971 65.2572 10.668 63.016 10.668V14.168V17.668C63.5443 17.668 63.7964 17.7431 63.8697 17.7718C63.9002 17.7837 63.8859 17.7821 63.8475 17.7536C63.8073 17.7237 63.7641 17.6818 63.7282 17.6335L66.536 15.544ZM78.45 28.6L75.8196 30.9089L78.45 28.6ZM78.45 11.832L75.8196 9.5231V9.5231L78.45 11.832ZM93.17 11.832L95.8004 9.5231V9.5231L93.17 11.832ZM88.498 25.176L91.5576 26.8757C91.5628 26.8663 91.568 26.8568 91.5732 26.8473L88.498 25.176ZM88.498 15.288L85.4228 16.9593C85.428 16.9688 85.4332 16.9783 85.4384 16.9877L88.498 15.288ZM83.122 15.288L86.1816 16.9877C86.1868 16.9783 86.192 16.9688 86.1972 16.9593L83.122 15.288ZM83.122 25.176L80.0468 26.8473C80.052 26.8568 80.0572 26.8663 80.0625 26.8757L83.122 25.176ZM85.81 31.48V27.98C83.3133 27.98 81.935 27.2647 81.0804 26.2911L78.45 28.6L75.8196 30.9089C78.3357 33.7753 81.8641 34.98 85.81 34.98V31.48ZM78.45 28.6L81.0804 26.2911C80.1572 25.2393 79.422 23.4012 79.422 20.216H75.922H72.422C72.422 24.3694 73.3722 28.1207 75.8196 30.9089L78.45 28.6ZM75.922 20.216H79.422C79.422 17.0308 80.1572 15.1927 81.0804 14.1409L78.45 11.832L75.8196 9.5231C73.3722 12.3113 72.422 16.0626 72.422 20.216H75.922ZM78.45 11.832L81.0804 14.1409C81.935 13.1673 83.3133 12.452 85.81 12.452V8.952V5.452C81.8641 5.452 78.3357 6.6567 75.8196 9.5231L78.45 11.832ZM85.81 8.952V12.452C88.3067 12.452 89.685 13.1673 90.5396 14.1409L93.17 11.832L95.8004 9.5231C93.2843 6.6567 89.7559 5.452 85.81 5.452V8.952ZM93.17 11.832L90.5396 14.1409C91.4629 15.1927 92.198 17.0308 92.198 20.216H95.698H99.198C99.198 16.0626 98.2478 12.3113 95.8004 9.5231L93.17 11.832ZM95.698 20.216H92.198C92.198 23.4012 91.4629 25.2393 90.5396 26.2911L93.17 28.6L95.8004 30.9089C98.2478 28.1207 99.198 24.3694 99.198 20.216H95.698ZM93.17 28.6L90.5396 26.2911C89.685 27.2647 88.3067 27.98 85.81 27.98V31.48V34.98C89.7559 34.98 93.2843 33.7753 95.8004 30.9089L93.17 28.6ZM85.81 26.616V30.116C88.1156 30.116 90.3052 29.1299 91.5576 26.8757L88.498 25.176L85.4384 23.4762C85.4482 23.4588 85.4808 23.406 85.5459 23.3403C85.6126 23.2732 85.6915 23.2146 85.7732 23.1708C85.9408 23.081 85.998 23.116 85.81 23.116V26.616ZM88.498 25.176L91.5732 26.8473C92.5539 25.0429 92.798 22.6222 92.798 20.216H89.298H85.798C85.798 21.258 85.7373 22.0556 85.6427 22.6427C85.5959 22.9325 85.5447 23.1465 85.499 23.2971C85.4526 23.4497 85.4204 23.5091 85.4228 23.5047L88.498 25.176ZM89.298 20.216H92.798C92.798 17.8214 92.5575 15.3882 91.5576 13.5882L88.498 15.288L85.4384 16.9877C85.4346 16.9808 85.5448 17.1946 85.6432 17.8008C85.7373 18.3801 85.798 19.1734 85.798 20.216H89.298ZM88.498 15.288L91.5732 13.6167C90.3381 11.3442 88.1531 10.316 85.81 10.316V13.816V17.316C85.9865 17.316 85.9188 17.3491 85.7449 17.2538C85.661 17.2079 85.5828 17.1479 85.519 17.0822C85.4568 17.0182 85.4283 16.9695 85.4228 16.9593L88.498 15.288ZM85.81 13.816V10.316C83.4669 10.316 81.2819 11.3442 80.0468 13.6167L83.122 15.288L86.1972 16.9593C86.1917 16.9695 86.1632 17.0182 86.101 17.0822C86.0372 17.1479 85.959 17.2079 85.8751 17.2538C85.7012 17.3491 85.6335 17.316 85.81 17.316V13.816ZM83.122 15.288L80.0625 13.5883C79.0625 15.3882 78.822 17.8214 78.822 20.216H82.322H85.822C85.822 19.1734 85.8827 18.3801 85.9768 17.8008C86.0752 17.1946 86.1854 16.9808 86.1816 16.9877L83.122 15.288ZM82.322 20.216H78.822C78.822 22.6222 79.0661 25.0429 80.0468 26.8473L83.122 25.176L86.1972 23.5047C86.1996 23.5091 86.1674 23.4497 86.121 23.2971C86.0753 23.1465 86.0241 22.9325 85.9773 22.6427C85.8827 22.0556 85.822 21.258 85.822 20.216H82.322ZM83.122 25.176L80.0625 26.8757C81.3148 29.1299 83.5044 30.116 85.81 30.116V26.616V23.116C85.622 23.116 85.6792 23.081 85.8468 23.1708C85.9285 23.2146 86.0074 23.2732 86.0741 23.3403C86.1392 23.406 86.1718 23.4588 86.1816 23.4762L83.122 25.176ZM98.6163 31H95.1163C95.1163 32.933 96.6833 34.5 98.6163 34.5V31ZM98.6163 9.432V5.932C96.6833 5.932 95.1163 7.499 95.1163 9.432H98.6163ZM105.016 9.432L108.129 7.83145C107.529 6.66516 106.328 5.932 105.016 5.932V9.432ZM111.96 22.936L108.848 24.5366C109.587 25.9735 111.213 26.7179 112.784 26.3378C114.354 25.9576 115.46 24.5518 115.46 22.936H111.96ZM111.96 9.432V5.932C110.027 5.932 108.46 7.499 108.46 9.432H111.96ZM117.304 9.432H120.804C120.804 7.499 119.237 5.932 117.304 5.932V9.432ZM117.304 31V34.5C119.237 34.5 120.804 32.933 120.804 31H117.304ZM110.904 31L107.792 32.6006C108.391 33.7668 109.593 34.5 110.904 34.5V31ZM103.96 17.496L107.073 15.8954C106.334 14.4585 104.707 13.7141 103.137 14.0942C101.566 14.4744 100.46 15.8802 100.46 17.496H103.96ZM103.96 31V34.5C105.893 34.5 107.46 32.933 107.46 31H103.96ZM98.6163 31H102.116V9.432H98.6163H95.1163V31H98.6163ZM98.6163 9.432V12.932H105.016V9.432V5.932H98.6163V9.432ZM105.016 9.432L101.904 11.0326L108.848 24.5366L111.96 22.936L115.073 21.3354L108.129 7.83145L105.016 9.432ZM111.96 22.936H115.46V9.432H111.96H108.46V22.936H111.96ZM111.96 9.432V12.932H117.304V9.432V5.932H111.96V9.432ZM117.304 9.432H113.804V31H117.304H120.804V9.432H117.304ZM117.304 31V27.5H110.904V31V34.5H117.304V31ZM110.904 31L114.017 29.3994L107.073 15.8954L103.96 17.496L100.848 19.0965L107.792 32.6006L110.904 31ZM103.96 17.496H100.46V31H103.96H107.46V17.496H103.96ZM103.96 31V27.5H98.6163V31V34.5H103.96V31ZM121.132 31H117.632C117.632 32.933 119.2 34.5 121.132 34.5V31ZM121.132 9.432V5.932C119.2 5.932 117.632 7.499 117.632 9.432H121.132ZM135.597 9.432H139.097C139.097 7.499 137.529 5.932 135.597 5.932V9.432ZM135.597 14.104V17.604C137.529 17.604 139.097 16.037 139.097 14.104H135.597ZM127.053 14.104V10.604C125.12 10.604 123.553 12.171 123.553 14.104H127.053ZM127.053 17.752H123.553C123.553 19.685 125.12 21.252 127.053 21.252V17.752ZM133.965 17.752H137.465C137.465 15.819 135.897 14.252 133.965 14.252V17.752ZM133.965 22.424V25.924C135.897 25.924 137.465 24.357 137.465 22.424H133.965ZM127.053 22.424V18.924C125.12 18.924 123.553 20.491 123.553 22.424H127.053ZM127.053 26.328H123.553C123.553 28.261 125.12 29.828 127.053 29.828V26.328ZM135.725 26.328H139.225C139.225 24.395 137.658 22.828 135.725 22.828V26.328ZM135.725 31V34.5C137.658 34.5 139.225 32.933 139.225 31H135.725ZM121.132 31H124.632V9.432H121.132H117.632V31H121.132ZM121.132 9.432V12.932H135.597V9.432V5.932H121.132V9.432ZM135.597 9.432H132.097V14.104H135.597H139.097V9.432H135.597ZM135.597 14.104V10.604H127.053V14.104V17.604H135.597V14.104ZM127.053 14.104H123.553V17.752H127.053H130.553V14.104H127.053ZM127.053 17.752V21.252H133.965V17.752V14.252H127.053V17.752ZM133.965 17.752H130.465V22.424H133.965H137.465V17.752H133.965ZM133.965 22.424V18.924H127.053V22.424V25.924H133.965V22.424ZM127.053 22.424H123.553V26.328H127.053H130.553V22.424H127.053ZM127.053 26.328V29.828H135.725V26.328V22.828H127.053V26.328ZM135.725 26.328H132.225V31H135.725H139.225V26.328H135.725ZM135.725 31V27.5H121.132V31V34.5H135.725V31Z" fill="black" mask="url(#path-1-outside-1_1534_5314)"/>
<path d="M34.0698 4.08203C36.4147 1.76987 40.2065 1.7698 42.5513 4.08203C44.9088 6.40697 44.9089 10.1858 42.5513 12.5107L21.8569 32.918C19.5121 35.2302 15.7193 35.2302 13.3745 32.918L4.1167 23.7891C1.75902 21.4641 1.75902 17.6843 4.1167 15.3594C6.4615 13.0474 10.2534 13.0473 12.5981 15.3594L17.6157 20.3066L34.0698 4.08203Z" fill="#00D958" stroke="black" stroke-width="3.30484" stroke-linecap="round" stroke-linejoin="round"/>
<path d="M42.5898 7.49048C42.85 8.84035 42.4502 10.2894 41.3906 11.3342L20.6963 31.7415C18.9949 33.4192 16.2366 33.4192 14.5352 31.7415L5.27637 22.6116C4.21698 21.5667 3.81695 20.1176 4.07715 18.7678C4.23471 19.5856 4.63446 20.3673 5.27637 21.0002L14.5352 30.1292C16.2366 31.807 18.9949 31.807 20.6963 30.1292L41.3906 9.72192C42.0324 9.08907 42.4322 8.30807 42.5898 7.49048Z" fill="#009F41"/>
</svg>
