<svg width="94" height="27" viewBox="0 0 94 27" fill="none" xmlns="http://www.w3.org/2000/svg">
<mask id="path-1-outside-1_1534_5389" maskUnits="userSpaceOnUse" x="34.9102" y="3.00012" width="59" height="21" fill="black">
<rect fill="white" x="34.9102" y="3.00012" width="59" height="21"/>
<path d="M37.4146 21.0001V6.51423H42.6803C47.5376 6.51423 49.9662 8.93571 49.9662 13.7787C49.9662 16.1572 49.3501 17.9554 48.1179 19.1733C46.8999 20.3912 45.0874 21.0001 42.6803 21.0001H37.4146ZM42.6373 9.69511H41.5197V17.8192H42.6373C43.7549 17.8192 44.5429 17.5112 45.0015 16.8951C45.46 16.279 45.6892 15.233 45.6892 13.7572C45.6892 12.267 45.46 11.2211 45.0015 10.6193C44.5429 10.0032 43.7549 9.69511 42.6373 9.69511ZM57.9466 21.3225C55.783 21.3225 54.1353 20.6777 53.0033 19.3882C51.8714 18.0986 51.3054 16.2216 51.3054 13.7572C51.3054 11.2927 51.8714 9.41571 53.0033 8.12616C54.1353 6.83662 55.783 6.19184 57.9466 6.19184C60.1102 6.19184 61.7579 6.83662 62.8899 8.12616C64.0218 9.41571 64.5878 11.2927 64.5878 13.7572C64.5878 16.2216 64.0218 18.0986 62.8899 19.3882C61.7579 20.6777 60.1102 21.3225 57.9466 21.3225ZM57.9466 18.0557C58.792 18.0557 59.3938 17.7333 59.752 17.0885C60.1102 16.4294 60.2893 15.319 60.2893 13.7572C60.2893 12.1954 60.1102 11.0921 59.752 10.4473C59.3938 9.78824 58.792 9.45869 57.9466 9.45869C57.1012 9.45869 56.4994 9.78824 56.1412 10.4473C55.783 11.0921 55.6039 12.1954 55.6039 13.7572C55.6039 15.319 55.783 16.4294 56.1412 17.0885C56.4994 17.7333 57.1012 18.0557 57.9466 18.0557ZM66.5478 21.0001V6.51423H70.8463L75.5101 15.584V6.51423H79.0993V21.0001H74.8009L70.137 11.9303V21.0001H66.5478ZM81.6705 21.0001V6.51423H91.3851V9.65212H85.6466V12.1023H90.289V15.2402H85.6466V17.8622H91.4711V21.0001H81.6705Z"/>
</mask>
<path d="M37.4146 21.0001V6.51423H42.6803C47.5376 6.51423 49.9662 8.93571 49.9662 13.7787C49.9662 16.1572 49.3501 17.9554 48.1179 19.1733C46.8999 20.3912 45.0874 21.0001 42.6803 21.0001H37.4146ZM42.6373 9.69511H41.5197V17.8192H42.6373C43.7549 17.8192 44.5429 17.5112 45.0015 16.8951C45.46 16.279 45.6892 15.233 45.6892 13.7572C45.6892 12.267 45.46 11.2211 45.0015 10.6193C44.5429 10.0032 43.7549 9.69511 42.6373 9.69511ZM57.9466 21.3225C55.783 21.3225 54.1353 20.6777 53.0033 19.3882C51.8714 18.0986 51.3054 16.2216 51.3054 13.7572C51.3054 11.2927 51.8714 9.41571 53.0033 8.12616C54.1353 6.83662 55.783 6.19184 57.9466 6.19184C60.1102 6.19184 61.7579 6.83662 62.8899 8.12616C64.0218 9.41571 64.5878 11.2927 64.5878 13.7572C64.5878 16.2216 64.0218 18.0986 62.8899 19.3882C61.7579 20.6777 60.1102 21.3225 57.9466 21.3225ZM57.9466 18.0557C58.792 18.0557 59.3938 17.7333 59.752 17.0885C60.1102 16.4294 60.2893 15.319 60.2893 13.7572C60.2893 12.1954 60.1102 11.0921 59.752 10.4473C59.3938 9.78824 58.792 9.45869 57.9466 9.45869C57.1012 9.45869 56.4994 9.78824 56.1412 10.4473C55.783 11.0921 55.6039 12.1954 55.6039 13.7572C55.6039 15.319 55.783 16.4294 56.1412 17.0885C56.4994 17.7333 57.1012 18.0557 57.9466 18.0557ZM66.5478 21.0001V6.51423H70.8463L75.5101 15.584V6.51423H79.0993V21.0001H74.8009L70.137 11.9303V21.0001H66.5478ZM81.6705 21.0001V6.51423H91.3851V9.65212H85.6466V12.1023H90.289V15.2402H85.6466V17.8622H91.4711V21.0001H81.6705Z" fill="white"/>
<path d="M37.4146 21.0001H35.0639C35.0639 22.2984 36.1164 23.3509 37.4146 23.3509V21.0001ZM37.4146 6.51423V4.1635C36.1164 4.1635 35.0639 5.21596 35.0639 6.51423H37.4146ZM48.1179 19.1733L46.4654 17.5013L46.4556 17.511L48.1179 19.1733ZM41.5197 9.69511V7.34438C40.2214 7.34438 39.1689 8.39683 39.1689 9.69511H41.5197ZM41.5197 17.8192H39.1689C39.1689 19.1175 40.2214 20.17 41.5197 20.17V17.8192ZM45.0015 16.8951L43.1156 15.4917L43.1156 15.4917L45.0015 16.8951ZM45.0015 10.6193L43.1156 12.0227C43.1209 12.0298 43.1262 12.0369 43.1316 12.0439L45.0015 10.6193ZM37.4146 21.0001H39.7654V6.51423H37.4146H35.0639V21.0001H37.4146ZM37.4146 6.51423V8.86496H42.6803V6.51423V4.1635H37.4146V6.51423ZM42.6803 6.51423V8.86496C44.7483 8.86496 45.8672 9.37909 46.485 9.99501C47.1014 10.6097 47.6155 11.7213 47.6155 13.7787H49.9662H52.3169C52.3169 10.9931 51.6166 8.47249 49.8045 6.66567C47.9936 4.86011 45.4695 4.1635 42.6803 4.1635V6.51423ZM49.9662 13.7787H47.6155C47.6155 15.7688 47.105 16.8691 46.4654 17.5014L48.1179 19.1733L49.7703 20.8452C51.5951 19.0416 52.3169 16.5455 52.3169 13.7787H49.9662ZM48.1179 19.1733L46.4556 17.511C45.8293 18.1373 44.7157 18.6494 42.6803 18.6494V21.0001V23.3509C45.4591 23.3509 47.9705 22.645 49.7801 20.8355L48.1179 19.1733ZM42.6803 21.0001V18.6494H37.4146V21.0001V23.3509H42.6803V21.0001ZM42.6373 9.69511V7.34438H41.5197V9.69511V12.0458H42.6373V9.69511ZM41.5197 9.69511H39.1689V17.8192H41.5197H43.8704V9.69511H41.5197ZM41.5197 17.8192V20.17H42.6373V17.8192V15.4685H41.5197V17.8192ZM42.6373 17.8192V20.17C44.1425 20.17 45.809 19.7475 46.8873 18.2985L45.0015 16.8951L43.1156 15.4917C43.1398 15.4592 43.1687 15.4311 43.1958 15.411C43.2216 15.3919 43.2312 15.3908 43.2107 15.3988C43.1614 15.4181 42.9921 15.4685 42.6373 15.4685V17.8192ZM45.0015 16.8951L46.8873 18.2985C47.8203 17.0447 48.0399 15.3415 48.0399 13.7572H45.6892H43.3385C43.3385 14.3845 43.2887 14.8364 43.221 15.1452C43.1515 15.4625 43.0836 15.5347 43.1156 15.4917L45.0015 16.8951ZM45.6892 13.7572H48.0399C48.0399 12.1737 47.8256 10.4472 46.8713 9.19464L45.0015 10.6193L43.1316 12.0439C43.0857 11.9837 43.1514 12.0405 43.221 12.3584C43.2884 12.6659 43.3385 13.1209 43.3385 13.7572H45.6892ZM45.0015 10.6193L46.8873 9.21587C45.809 7.76689 44.1425 7.34438 42.6373 7.34438V9.69511V12.0458C42.9921 12.0458 43.1614 12.0963 43.2107 12.1155C43.2312 12.1236 43.2216 12.1224 43.1958 12.1033C43.1687 12.0833 43.1398 12.0551 43.1156 12.0227L45.0015 10.6193ZM53.0033 19.3882L51.2367 20.9389H51.2367L53.0033 19.3882ZM53.0033 8.12616L51.2367 6.57541L51.2367 6.57542L53.0033 8.12616ZM62.8899 8.12616L64.6565 6.57542V6.57542L62.8899 8.12616ZM59.752 17.0885L61.8069 18.2301C61.8104 18.2238 61.8139 18.2174 61.8174 18.211L59.752 17.0885ZM59.752 10.4473L57.6866 11.5699C57.69 11.5762 57.6935 11.5826 57.6971 11.589L59.752 10.4473ZM56.1412 10.4473L58.1962 11.589C58.1997 11.5826 58.2032 11.5762 58.2067 11.5699L56.1412 10.4473ZM56.1412 17.0885L54.0758 18.211C54.0793 18.2174 54.0828 18.2238 54.0863 18.2301L56.1412 17.0885ZM57.9466 21.3225V18.9718C56.2697 18.9718 55.344 18.4914 54.77 17.8374L53.0033 19.3882L51.2367 20.9389C52.9266 22.8641 55.2964 23.6732 57.9466 23.6732V21.3225ZM53.0033 19.3882L54.77 17.8374C54.1499 17.131 53.6562 15.8965 53.6562 13.7572H51.3054H48.9547C48.9547 16.5468 49.5929 19.0663 51.2367 20.9389L53.0033 19.3882ZM51.3054 13.7572H53.6562C53.6562 11.6178 54.1499 10.3833 54.77 9.67691L53.0033 8.12616L51.2367 6.57542C49.5929 8.44808 48.9547 10.9676 48.9547 13.7572H51.3054ZM53.0033 8.12616L54.77 9.67691C55.344 9.023 56.2697 8.54258 57.9466 8.54258V6.19184V3.84111C55.2964 3.84111 52.9266 4.65023 51.2367 6.57541L53.0033 8.12616ZM57.9466 6.19184V8.54258C59.6235 8.54258 60.5492 9.023 61.1232 9.67691L62.8899 8.12616L64.6565 6.57542C62.9667 4.65023 60.5968 3.84111 57.9466 3.84111V6.19184ZM62.8899 8.12616L61.1232 9.67691C61.7433 10.3833 62.237 11.6178 62.237 13.7572H64.5878H66.9385C66.9385 10.9676 66.3003 8.44808 64.6565 6.57542L62.8899 8.12616ZM64.5878 13.7572H62.237C62.237 15.8965 61.7433 17.131 61.1232 17.8374L62.8899 19.3882L64.6565 20.9389C66.3003 19.0663 66.9385 16.5468 66.9385 13.7572H64.5878ZM62.8899 19.3882L61.1232 17.8374C60.5492 18.4914 59.6235 18.9718 57.9466 18.9718V21.3225V23.6732C60.5968 23.6732 62.9667 22.8641 64.6565 20.9389L62.8899 19.3882ZM57.9466 18.0557V20.4064C59.4952 20.4064 60.9658 19.7441 61.8069 18.2301L59.752 17.0885L57.6971 15.9469C57.7036 15.9351 57.7255 15.8997 57.7693 15.8556C57.814 15.8105 57.867 15.7711 57.9219 15.7417C58.0345 15.6814 58.0729 15.7049 57.9466 15.7049V18.0557ZM59.752 17.0885L61.8174 18.211C62.476 16.9991 62.64 15.3733 62.64 13.7572H60.2893H57.9385C57.9385 14.457 57.8978 14.9927 57.8342 15.387C57.8028 15.5817 57.7684 15.7254 57.7377 15.8266C57.7066 15.9291 57.6849 15.969 57.6866 15.966L59.752 17.0885ZM60.2893 13.7572H62.64C62.64 12.1489 62.4785 10.5147 61.8069 9.30573L59.752 10.4473L57.6971 11.589C57.6945 11.5843 57.7685 11.7279 57.8346 12.1351C57.8978 12.5241 57.9385 13.057 57.9385 13.7572H60.2893ZM59.752 10.4473L61.8174 9.32484C60.9879 7.79854 59.5203 7.10796 57.9466 7.10796V9.45869V11.8094C58.0652 11.8094 58.0197 11.8316 57.9029 11.7677C57.8465 11.7368 57.794 11.6966 57.7512 11.6524C57.7094 11.6094 57.6903 11.5767 57.6866 11.5699L59.752 10.4473ZM57.9466 9.45869V7.10796C56.3729 7.10796 54.9053 7.79854 54.0758 9.32484L56.1412 10.4473L58.2067 11.5699C58.2029 11.5767 58.1838 11.6094 58.142 11.6524C58.0992 11.6966 58.0467 11.7368 57.9903 11.7677C57.8735 11.8316 57.828 11.8094 57.9466 11.8094V9.45869ZM56.1412 10.4473L54.0863 9.30573C53.4147 10.5147 53.2532 12.1489 53.2532 13.7572H55.6039H57.9547C57.9547 13.057 57.9955 12.5241 58.0586 12.1351C58.1247 11.7279 58.1988 11.5843 58.1962 11.589L56.1412 10.4473ZM55.6039 13.7572H53.2532C53.2532 15.3733 53.4172 16.9991 54.0758 18.211L56.1412 17.0885L58.2067 15.966C58.2083 15.969 58.1866 15.9291 58.1555 15.8266C58.1248 15.7254 58.0904 15.5817 58.059 15.387C57.9954 14.9927 57.9547 14.457 57.9547 13.7572H55.6039ZM56.1412 17.0885L54.0863 18.2301C54.9274 19.7441 56.3981 20.4064 57.9466 20.4064V18.0557V15.7049C57.8203 15.7049 57.8587 15.6814 57.9713 15.7417C58.0262 15.7711 58.0792 15.8105 58.124 15.8556C58.1677 15.8997 58.1896 15.9351 58.1962 15.9469L56.1412 17.0885ZM66.5478 21.0001H64.197C64.197 22.2984 65.2495 23.3509 66.5478 23.3509V21.0001ZM66.5478 6.51423V4.1635C65.2495 4.1635 64.197 5.21596 64.197 6.51423H66.5478ZM70.8463 6.51423L72.9368 5.43924C72.534 4.65591 71.7271 4.1635 70.8463 4.1635V6.51423ZM75.5101 15.584L73.4196 16.659C73.9159 17.6242 75.0083 18.1241 76.0631 17.8688C77.1179 17.6135 77.8608 16.6693 77.8608 15.584H75.5101ZM75.5101 6.51423V4.1635C74.2118 4.1635 73.1594 5.21596 73.1594 6.51423H75.5101ZM79.0993 6.51423H81.4501C81.4501 5.21596 80.3976 4.1635 79.0993 4.1635V6.51423ZM79.0993 21.0001V23.3509C80.3976 23.3509 81.4501 22.2984 81.4501 21.0001H79.0993ZM74.8009 21.0001L72.7103 22.0751C73.1131 22.8584 73.92 23.3509 74.8009 23.3509V21.0001ZM70.137 11.9303L72.2275 10.8553C71.7313 9.8902 70.6388 9.39025 69.584 9.64556C68.5292 9.90087 67.7863 10.8451 67.7863 11.9303H70.137ZM70.137 21.0001V23.3509C71.4353 23.3509 72.4877 22.2984 72.4877 21.0001H70.137ZM66.5478 21.0001H68.8985V6.51423H66.5478H64.197V21.0001H66.5478ZM66.5478 6.51423V8.86496H70.8463V6.51423V4.1635H66.5478V6.51423ZM70.8463 6.51423L68.7557 7.58922L73.4196 16.659L75.5101 15.584L77.6006 14.509L72.9368 5.43924L70.8463 6.51423ZM75.5101 15.584H77.8608V6.51423H75.5101H73.1594V15.584H75.5101ZM75.5101 6.51423V8.86496H79.0993V6.51423V4.1635H75.5101V6.51423ZM79.0993 6.51423H76.7486V21.0001H79.0993H81.4501V6.51423H79.0993ZM79.0993 21.0001V18.6494H74.8009V21.0001V23.3509H79.0993V21.0001ZM74.8009 21.0001L76.8914 19.9251L72.2275 10.8553L70.137 11.9303L68.0465 13.0053L72.7103 22.0751L74.8009 21.0001ZM70.137 11.9303H67.7863V21.0001H70.137H72.4877V11.9303H70.137ZM70.137 21.0001V18.6494H66.5478V21.0001V23.3509H70.137V21.0001ZM81.6705 21.0001H79.3198C79.3198 22.2984 80.3723 23.3509 81.6705 23.3509V21.0001ZM81.6705 6.51423V4.1635C80.3723 4.1635 79.3198 5.21596 79.3198 6.51423H81.6705ZM91.3851 6.51423H93.7359C93.7359 5.21596 92.6834 4.1635 91.3851 4.1635V6.51423ZM91.3851 9.65212V12.0029C92.6834 12.0029 93.7359 10.9504 93.7359 9.65212H91.3851ZM85.6466 9.65212V7.30139C84.3484 7.30139 83.2959 8.35385 83.2959 9.65212H85.6466ZM85.6466 12.1023H83.2959C83.2959 13.4005 84.3484 14.453 85.6466 14.453V12.1023ZM90.289 12.1023H92.6397C92.6397 10.804 91.5873 9.75153 90.289 9.75153V12.1023ZM90.289 15.2402V17.5909C91.5873 17.5909 92.6397 16.5384 92.6397 15.2402H90.289ZM85.6466 15.2402V12.8894C84.3484 12.8894 83.2959 13.9419 83.2959 15.2402H85.6466ZM85.6466 17.8622H83.2959C83.2959 19.1605 84.3484 20.213 85.6466 20.213V17.8622ZM91.4711 17.8622H93.8218C93.8218 16.564 92.7694 15.5115 91.4711 15.5115V17.8622ZM91.4711 21.0001V23.3509C92.7694 23.3509 93.8218 22.2984 93.8218 21.0001H91.4711ZM81.6705 21.0001H84.0213V6.51423H81.6705H79.3198V21.0001H81.6705ZM81.6705 6.51423V8.86496H91.3851V6.51423V4.1635H81.6705V6.51423ZM91.3851 6.51423H89.0344V9.65212H91.3851H93.7359V6.51423H91.3851ZM91.3851 9.65212V7.30139H85.6466V9.65212V12.0029H91.3851V9.65212ZM85.6466 9.65212H83.2959V12.1023H85.6466H87.9974V9.65212H85.6466ZM85.6466 12.1023V14.453H90.289V12.1023V9.75153H85.6466V12.1023ZM90.289 12.1023H87.9383V15.2402H90.289H92.6397V12.1023H90.289ZM90.289 15.2402V12.8894H85.6466V15.2402V17.5909H90.289V15.2402ZM85.6466 15.2402H83.2959V17.8622H85.6466H87.9974V15.2402H85.6466ZM85.6466 17.8622V20.213H91.4711V17.8622V15.5115H85.6466V17.8622ZM91.4711 17.8622H89.1204V21.0001H91.4711H93.8218V17.8622H91.4711ZM91.4711 21.0001V18.6494H81.6705V21.0001V23.3509H91.4711V21.0001Z" fill="black" mask="url(#path-1-outside-1_1534_5389)"/>
<path d="M23.1958 3.06982C24.7707 1.51689 27.3182 1.51684 28.8931 3.06982C30.4764 4.63122 30.4762 7.16943 28.8931 8.73096L14.9937 22.438C13.4188 23.991 10.8713 23.9909 9.29639 22.438L3.07861 16.3062C1.49511 14.7446 1.49513 12.2065 3.07861 10.645C4.65349 9.09202 7.20003 9.09202 8.7749 10.645L12.144 13.9673L23.1958 3.06982Z" fill="#00D958" stroke="black" stroke-width="2.21966" stroke-linecap="round" stroke-linejoin="round"/>
<path d="M28.918 5.35913C29.0927 6.26578 28.8249 7.23939 28.1133 7.94116L14.2139 21.6472C13.0711 22.7741 11.2179 22.7741 10.0752 21.6472L3.85742 15.5154C3.14572 14.8136 2.87696 13.84 3.05176 12.9333C3.15759 13.4826 3.42632 14.0073 3.85742 14.4324L10.0752 20.5642C11.2179 21.6911 13.0711 21.6911 14.2139 20.5642L28.1133 6.85815C28.5443 6.43317 28.8121 5.90817 28.918 5.35913Z" fill="#009F41"/>
</svg>
