<svg width="463" height="235" viewBox="0 0 463 235" fill="none" xmlns="http://www.w3.org/2000/svg">
<path d="M231.5 137.2C266.68 137.2 295.2 108.681 295.2 73.5C295.2 38.3195 266.68 9.80005 231.5 9.80005C196.319 9.80005 167.8 38.3195 167.8 73.5C167.8 108.681 196.319 137.2 231.5 137.2Z" fill="#FFD540"/>
<g style="mix-blend-mode:hard-light">
<path d="M295.244 73.5C295.244 108.692 266.715 137.245 231.499 137.245C215.527 137.245 200.926 131.351 189.74 121.657C199.843 127.021 211.365 130.028 223.585 130.028C259.426 130.028 289.206 104.073 295.147 69.9399C295.22 71.1186 295.244 72.2973 295.244 73.5Z" fill="#F15A24"/>
</g>
<g style="mix-blend-mode:soft-light">
<path d="M254.16 13.9166C251.105 13.6039 248.002 13.4355 244.875 13.4355C212.618 13.4355 184.498 31.1637 169.776 57.4313C176.872 30.0091 201.817 9.75513 231.476 9.75513C239.462 9.75513 247.112 11.2225 254.16 13.9166Z" fill="white"/>
</g>
<path d="M232.029 124.544C259.928 124.544 282.544 101.928 282.544 74.0295C282.544 46.1311 259.928 23.5149 232.029 23.5149C204.131 23.5149 181.515 46.1311 181.515 74.0295C181.515 101.928 204.131 124.544 232.029 124.544Z" fill="#DB3B3B" stroke="#FCEE21" stroke-width="2.45"/>
<path d="M274.221 99.5997C277.973 92.6479 280.09 84.6858 280.09 76.2186C280.09 48.9888 258.032 26.9067 230.778 26.9067C212.954 26.9067 197.342 36.3602 188.683 50.5283C197.03 35.1575 213.315 24.7178 232.029 24.7178C259.283 24.7178 281.341 46.7999 281.341 74.0297C281.341 83.3869 278.743 92.1427 274.221 99.5997Z" fill="#EC9140"/>
<g filter="url(#filter0_i_1564_1748)">
<path d="M230.154 112.132C231.958 113.575 234.508 113.575 236.312 112.132C245.164 105.084 269.989 85.2868 269.989 70.8781C269.989 54.8578 262.051 47.906 251.707 47.906C243.721 47.906 236.649 52.3561 234.556 55.0502C233.883 55.9162 232.536 55.9162 231.862 55.0502C229.769 52.332 222.697 47.906 214.711 47.906C205.739 47.906 196.43 53.3904 196.43 70.8781C196.43 85.5995 221.278 105.084 230.106 112.132H230.154Z" fill="#FECA04"/>
</g>
<path d="M251.707 46.6814C257.164 46.6814 262.097 48.5239 265.648 52.5769C269.182 56.6103 271.214 62.6787 271.214 70.8777C271.214 74.8099 269.53 78.9811 267.014 83.0554C264.486 87.1488 261.042 91.2644 257.354 95.113C249.979 102.81 241.5 109.565 237.076 113.088L237.077 113.089C234.944 114.795 231.974 114.884 229.753 113.357H229.677L229.342 113.089C224.938 109.573 216.455 102.891 209.075 95.2322C205.385 91.4025 201.938 87.2961 199.407 83.1863C196.887 79.0931 195.205 74.8841 195.205 70.8777C195.205 61.9225 197.591 55.8334 201.326 51.9812C205.06 48.1298 209.981 46.6814 214.711 46.6814C218.924 46.6814 222.869 47.8462 226.024 49.3533C229.151 50.8466 231.627 52.7365 232.833 54.3025C232.919 54.4096 233.052 54.4743 233.209 54.4744C233.368 54.4744 233.503 54.4082 233.589 54.2986L233.829 54.0046C235.104 52.5141 237.461 50.7661 240.393 49.363C243.547 47.8531 247.493 46.6814 251.707 46.6814Z" stroke="#A70602" stroke-opacity="0.84" stroke-width="2.45" style="mix-blend-mode:plus-darker"/>
<path d="M269.989 70.8783C269.989 85.287 245.141 105.084 236.313 112.132C234.509 113.575 231.959 113.575 230.155 112.132C226.114 108.909 225.079 107.85 228.88 110.881C230.684 112.324 233.234 112.324 235.038 110.881C243.866 103.833 268.714 84.0361 268.714 69.6274C268.714 65.5382 268.426 61.7857 267.656 58.9953C267.439 58.0572 267.03 57.3115 266.886 56.4937C268.859 60.0778 269.989 64.8406 269.989 70.8783Z" fill="#FFF228"/>
<path d="M266.549 55.8682C263.373 52.4765 258.995 50.913 254.088 50.913C246.078 50.913 240.113 55.4352 237.924 58.0812C236.408 59.9094 232.848 58.7066 232.03 57.9609C228.927 55.0985 222.865 50.913 216.563 50.913C213.316 50.913 210.549 51.6346 207.663 53.4146C208.336 55.0744 208.072 57.2634 206.821 59.1396C205.306 61.4008 202.804 62.5313 200.759 61.9781C199.532 65.1292 198.811 69.0501 198.811 73.9091C198.811 78.4795 201.192 83.5069 204.776 88.4622C199.941 82.5207 196.478 76.3627 196.478 70.8542C196.478 53.3665 205.787 47.8821 214.759 47.8821C222.745 47.8821 229.817 52.3322 231.91 55.0263C232.583 55.9163 233.906 55.9163 234.58 55.0263C236.697 52.3322 243.745 47.8821 251.731 47.8821C257.937 47.8821 263.301 50.3838 266.549 55.8682Z" fill="white"/>
<path d="M285.263 39.246C246.054 56.9983 213.052 86.0562 190.416 122.234C176.561 110.544 167.757 93.0321 167.757 73.4998C167.757 38.2839 196.31 9.75513 231.501 9.75513C254.113 9.75513 273.958 21.4938 285.263 39.246Z" fill="url(#paint0_radial_1564_1748)" style="mix-blend-mode:soft-light"/>
<g filter="url(#filter1_ddd_1564_1748)">
<mask id="path-11-outside-1_1564_1748" maskUnits="userSpaceOnUse" x="129" y="158" width="199" height="33" fill="black">
<rect fill="white" x="129" y="158" width="199" height="33"/>
<path d="M145.305 188.6C140.612 188.6 137.172 187.507 134.985 185.32C132.798 183.107 131.705 179.627 131.705 174.88C131.705 165.253 136.385 160.44 145.745 160.44C147.238 160.44 148.678 160.573 150.065 160.84C151.478 161.107 152.678 161.467 153.665 161.92L152.345 167.52C151.412 167.2 150.425 166.96 149.385 166.8C148.372 166.613 147.332 166.52 146.265 166.52C143.838 166.52 142.105 167.2 141.065 168.56C140.025 169.893 139.505 172.107 139.505 175.2C139.505 177.04 139.692 178.507 140.065 179.6C140.438 180.667 141.065 181.44 141.945 181.92C142.852 182.373 144.052 182.6 145.545 182.6C146.318 182.6 147.145 182.547 148.025 182.44V177.84H143.985V172.12H154.545V187.12C153.372 187.573 151.945 187.933 150.265 188.2C148.612 188.467 146.958 188.6 145.305 188.6ZM170.14 188.6C166.113 188.6 163.047 187.4 160.94 185C158.833 182.6 157.78 179.107 157.78 174.52C157.78 169.933 158.833 166.44 160.94 164.04C163.047 161.64 166.113 160.44 170.14 160.44C174.167 160.44 177.233 161.64 179.34 164.04C181.447 166.44 182.5 169.933 182.5 174.52C182.5 179.107 181.447 182.6 179.34 185C177.233 187.4 174.167 188.6 170.14 188.6ZM170.14 182.52C171.713 182.52 172.833 181.92 173.5 180.72C174.167 179.493 174.5 177.427 174.5 174.52C174.5 171.613 174.167 169.56 173.5 168.36C172.833 167.133 171.713 166.52 170.14 166.52C168.567 166.52 167.447 167.133 166.78 168.36C166.113 169.56 165.78 171.613 165.78 174.52C165.78 177.427 166.113 179.493 166.78 180.72C167.447 181.92 168.567 182.52 170.14 182.52ZM197.348 188.6C193.321 188.6 190.254 187.4 188.148 185C186.041 182.6 184.988 179.107 184.988 174.52C184.988 169.933 186.041 166.44 188.148 164.04C190.254 161.64 193.321 160.44 197.348 160.44C201.374 160.44 204.441 161.64 206.548 164.04C208.654 166.44 209.708 169.933 209.708 174.52C209.708 179.107 208.654 182.6 206.548 185C204.441 187.4 201.374 188.6 197.348 188.6ZM197.348 182.52C198.921 182.52 200.041 181.92 200.708 180.72C201.374 179.493 201.708 177.427 201.708 174.52C201.708 171.613 201.374 169.56 200.708 168.36C200.041 167.133 198.921 166.52 197.348 166.52C195.774 166.52 194.654 167.133 193.988 168.36C193.321 169.56 192.988 171.613 192.988 174.52C192.988 177.427 193.321 179.493 193.988 180.72C194.654 181.92 195.774 182.52 197.348 182.52ZM213.355 188V161.04H223.155C232.195 161.04 236.715 165.547 236.715 174.56C236.715 178.987 235.569 182.333 233.275 184.6C231.009 186.867 227.635 188 223.155 188H213.355ZM223.075 166.96H220.995V182.08H223.075C225.155 182.08 226.622 181.507 227.475 180.36C228.329 179.213 228.755 177.267 228.755 174.52C228.755 171.747 228.329 169.8 227.475 168.68C226.622 167.533 225.155 166.96 223.075 166.96ZM251.945 188.6C249.625 188.6 247.572 188.187 245.785 187.36L247.225 181.8C247.892 182.067 248.492 182.253 249.025 182.36C249.558 182.467 250.052 182.52 250.505 182.52C251.758 182.52 252.652 182.24 253.185 181.68C253.718 181.093 253.985 180.147 253.985 178.84V167.2H247.345V161.04H261.665V179.56C261.665 182.627 260.878 184.907 259.305 186.4C257.732 187.867 255.278 188.6 251.945 188.6ZM277.312 188.6C273.285 188.6 270.218 187.4 268.112 185C266.005 182.6 264.952 179.107 264.952 174.52C264.952 169.933 266.005 166.44 268.112 164.04C270.218 161.64 273.285 160.44 277.312 160.44C281.338 160.44 284.405 161.64 286.512 164.04C288.618 166.44 289.672 169.933 289.672 174.52C289.672 179.107 288.618 182.6 286.512 185C284.405 187.4 281.338 188.6 277.312 188.6ZM277.312 182.52C278.885 182.52 280.005 181.92 280.672 180.72C281.338 179.493 281.672 177.427 281.672 174.52C281.672 171.613 281.338 169.56 280.672 168.36C280.005 167.133 278.885 166.52 277.312 166.52C275.738 166.52 274.618 167.133 273.952 168.36C273.285 169.56 272.952 171.613 272.952 174.52C272.952 177.427 273.285 179.493 273.952 180.72C274.618 181.92 275.738 182.52 277.312 182.52ZM293.32 188V161.04H304.92C307.8 161.04 310 161.667 311.52 162.92C313.04 164.147 313.8 165.947 313.8 168.32C313.8 171.467 312.426 173.387 309.68 174.08C313.226 174.853 315 177.04 315 180.64C315 185.547 311.906 188 305.72 188H293.32ZM303.8 166.28H300.52V171.92H303.8C305.8 171.92 306.8 170.947 306.8 169C306.8 168.04 306.56 167.347 306.08 166.92C305.626 166.493 304.866 166.28 303.8 166.28ZM304.24 176.84H300.52V182.76H304.24C305.36 182.76 306.173 182.533 306.68 182.08C307.186 181.6 307.44 180.84 307.44 179.8C307.44 178.76 307.186 178.013 306.68 177.56C306.2 177.08 305.386 176.84 304.24 176.84ZM318.973 178.72L318.333 161.04H325.613L324.973 178.72H318.973ZM318.253 188V181.56H325.693V188H318.253Z"/>
</mask>
<path d="M145.305 188.6C140.612 188.6 137.172 187.507 134.985 185.32C132.798 183.107 131.705 179.627 131.705 174.88C131.705 165.253 136.385 160.44 145.745 160.44C147.238 160.44 148.678 160.573 150.065 160.84C151.478 161.107 152.678 161.467 153.665 161.92L152.345 167.52C151.412 167.2 150.425 166.96 149.385 166.8C148.372 166.613 147.332 166.52 146.265 166.52C143.838 166.52 142.105 167.2 141.065 168.56C140.025 169.893 139.505 172.107 139.505 175.2C139.505 177.04 139.692 178.507 140.065 179.6C140.438 180.667 141.065 181.44 141.945 181.92C142.852 182.373 144.052 182.6 145.545 182.6C146.318 182.6 147.145 182.547 148.025 182.44V177.84H143.985V172.12H154.545V187.12C153.372 187.573 151.945 187.933 150.265 188.2C148.612 188.467 146.958 188.6 145.305 188.6ZM170.14 188.6C166.113 188.6 163.047 187.4 160.94 185C158.833 182.6 157.78 179.107 157.78 174.52C157.78 169.933 158.833 166.44 160.94 164.04C163.047 161.64 166.113 160.44 170.14 160.44C174.167 160.44 177.233 161.64 179.34 164.04C181.447 166.44 182.5 169.933 182.5 174.52C182.5 179.107 181.447 182.6 179.34 185C177.233 187.4 174.167 188.6 170.14 188.6ZM170.14 182.52C171.713 182.52 172.833 181.92 173.5 180.72C174.167 179.493 174.5 177.427 174.5 174.52C174.5 171.613 174.167 169.56 173.5 168.36C172.833 167.133 171.713 166.52 170.14 166.52C168.567 166.52 167.447 167.133 166.78 168.36C166.113 169.56 165.78 171.613 165.78 174.52C165.78 177.427 166.113 179.493 166.78 180.72C167.447 181.92 168.567 182.52 170.14 182.52ZM197.348 188.6C193.321 188.6 190.254 187.4 188.148 185C186.041 182.6 184.988 179.107 184.988 174.52C184.988 169.933 186.041 166.44 188.148 164.04C190.254 161.64 193.321 160.44 197.348 160.44C201.374 160.44 204.441 161.64 206.548 164.04C208.654 166.44 209.708 169.933 209.708 174.52C209.708 179.107 208.654 182.6 206.548 185C204.441 187.4 201.374 188.6 197.348 188.6ZM197.348 182.52C198.921 182.52 200.041 181.92 200.708 180.72C201.374 179.493 201.708 177.427 201.708 174.52C201.708 171.613 201.374 169.56 200.708 168.36C200.041 167.133 198.921 166.52 197.348 166.52C195.774 166.52 194.654 167.133 193.988 168.36C193.321 169.56 192.988 171.613 192.988 174.52C192.988 177.427 193.321 179.493 193.988 180.72C194.654 181.92 195.774 182.52 197.348 182.52ZM213.355 188V161.04H223.155C232.195 161.04 236.715 165.547 236.715 174.56C236.715 178.987 235.569 182.333 233.275 184.6C231.009 186.867 227.635 188 223.155 188H213.355ZM223.075 166.96H220.995V182.08H223.075C225.155 182.08 226.622 181.507 227.475 180.36C228.329 179.213 228.755 177.267 228.755 174.52C228.755 171.747 228.329 169.8 227.475 168.68C226.622 167.533 225.155 166.96 223.075 166.96ZM251.945 188.6C249.625 188.6 247.572 188.187 245.785 187.36L247.225 181.8C247.892 182.067 248.492 182.253 249.025 182.36C249.558 182.467 250.052 182.52 250.505 182.52C251.758 182.52 252.652 182.24 253.185 181.68C253.718 181.093 253.985 180.147 253.985 178.84V167.2H247.345V161.04H261.665V179.56C261.665 182.627 260.878 184.907 259.305 186.4C257.732 187.867 255.278 188.6 251.945 188.6ZM277.312 188.6C273.285 188.6 270.218 187.4 268.112 185C266.005 182.6 264.952 179.107 264.952 174.52C264.952 169.933 266.005 166.44 268.112 164.04C270.218 161.64 273.285 160.44 277.312 160.44C281.338 160.44 284.405 161.64 286.512 164.04C288.618 166.44 289.672 169.933 289.672 174.52C289.672 179.107 288.618 182.6 286.512 185C284.405 187.4 281.338 188.6 277.312 188.6ZM277.312 182.52C278.885 182.52 280.005 181.92 280.672 180.72C281.338 179.493 281.672 177.427 281.672 174.52C281.672 171.613 281.338 169.56 280.672 168.36C280.005 167.133 278.885 166.52 277.312 166.52C275.738 166.52 274.618 167.133 273.952 168.36C273.285 169.56 272.952 171.613 272.952 174.52C272.952 177.427 273.285 179.493 273.952 180.72C274.618 181.92 275.738 182.52 277.312 182.52ZM293.32 188V161.04H304.92C307.8 161.04 310 161.667 311.52 162.92C313.04 164.147 313.8 165.947 313.8 168.32C313.8 171.467 312.426 173.387 309.68 174.08C313.226 174.853 315 177.04 315 180.64C315 185.547 311.906 188 305.72 188H293.32ZM303.8 166.28H300.52V171.92H303.8C305.8 171.92 306.8 170.947 306.8 169C306.8 168.04 306.56 167.347 306.08 166.92C305.626 166.493 304.866 166.28 303.8 166.28ZM304.24 176.84H300.52V182.76H304.24C305.36 182.76 306.173 182.533 306.68 182.08C307.186 181.6 307.44 180.84 307.44 179.8C307.44 178.76 307.186 178.013 306.68 177.56C306.2 177.08 305.386 176.84 304.24 176.84ZM318.973 178.72L318.333 161.04H325.613L324.973 178.72H318.973ZM318.253 188V181.56H325.693V188H318.253Z" fill="white"/>
<path d="M134.985 185.32L133.39 186.896L133.399 186.906L134.985 185.32ZM150.065 160.84L149.641 163.042L149.649 163.043L150.065 160.84ZM153.665 161.92L155.847 162.434L156.268 160.649L154.601 159.882L153.665 161.92ZM152.345 167.52L151.618 169.641L153.959 170.444L154.527 168.034L152.345 167.52ZM149.385 166.8L148.979 169.005L149.011 169.011L149.044 169.016L149.385 166.8ZM141.065 168.56L142.833 169.939L142.84 169.931L142.846 169.922L141.065 168.56ZM140.065 179.6L137.943 180.325L137.946 180.333L137.948 180.341L140.065 179.6ZM141.945 181.92L140.871 183.889L140.906 183.908L140.942 183.926L141.945 181.92ZM148.025 182.44L148.295 184.666L150.267 184.427V182.44H148.025ZM148.025 177.84H150.267V175.598H148.025V177.84ZM143.985 177.84H141.742V180.082H143.985V177.84ZM143.985 172.12V169.878H141.742V172.12H143.985ZM154.545 172.12H156.787V169.878H154.545V172.12ZM154.545 187.12L155.353 189.212L156.787 188.658V187.12H154.545ZM150.265 188.2L149.913 185.985L149.908 185.986L150.265 188.2ZM145.305 188.6V186.358C140.903 186.358 138.162 185.326 136.57 183.734L134.985 185.32L133.399 186.906C136.181 189.687 140.32 190.842 145.305 190.842V188.6ZM134.985 185.32L136.58 183.744C134.981 182.126 133.947 179.34 133.947 174.88H131.705H129.462C129.462 179.913 130.615 184.087 133.39 186.896L134.985 185.32ZM131.705 174.88H133.947C133.947 170.397 135.037 167.449 136.823 165.613C138.596 163.789 141.427 162.682 145.745 162.682V160.44V158.198C140.703 158.198 136.513 159.498 133.607 162.487C130.712 165.464 129.462 169.737 129.462 174.88H131.705ZM145.745 160.44V162.682C147.104 162.682 148.402 162.804 149.641 163.042L150.065 160.84L150.488 158.638C148.954 158.343 147.372 158.198 145.745 158.198V160.44ZM150.065 160.84L149.649 163.043C150.937 163.286 151.952 163.601 152.729 163.958L153.665 161.92L154.601 159.882C153.405 159.333 152.019 158.927 150.481 158.637L150.065 160.84ZM153.665 161.92L151.482 161.406L150.162 167.006L152.345 167.52L154.527 168.034L155.847 162.434L153.665 161.92ZM152.345 167.52L153.072 165.399C152.005 165.033 150.888 164.763 149.726 164.584L149.385 166.8L149.044 169.016C149.961 169.157 150.818 169.367 151.618 169.641L152.345 167.52ZM149.385 166.8L149.791 164.595C148.639 164.383 147.463 164.278 146.265 164.278V166.52V168.762C147.2 168.762 148.104 168.844 148.979 169.005L149.385 166.8ZM146.265 166.52V164.278C143.448 164.278 140.905 165.077 139.284 167.198L141.065 168.56L142.846 169.922C143.304 169.323 144.229 168.762 146.265 168.762V166.52ZM141.065 168.56L139.297 167.181C137.783 169.122 137.262 171.97 137.262 175.2H139.505H141.747C141.747 172.243 142.267 170.665 142.833 169.939L141.065 168.56ZM139.505 175.2H137.262C137.262 177.158 137.457 178.902 137.943 180.325L140.065 179.6L142.187 178.875C141.926 178.112 141.747 176.922 141.747 175.2H139.505ZM140.065 179.6L137.948 180.341C138.48 181.86 139.441 183.108 140.871 183.889L141.945 181.92L143.019 179.951C142.689 179.772 142.396 179.473 142.181 178.859L140.065 179.6ZM141.945 181.92L140.942 183.926C142.272 184.591 143.855 184.842 145.545 184.842V182.6V180.358C144.248 180.358 143.431 180.156 142.948 179.914L141.945 181.92ZM145.545 182.6V184.842C146.42 184.842 147.338 184.782 148.295 184.666L148.025 182.44L147.755 180.214C146.952 180.311 146.216 180.358 145.545 180.358V182.6ZM148.025 182.44H150.267V177.84H148.025H145.782V182.44H148.025ZM148.025 177.84V175.598H143.985V177.84V180.082H148.025V177.84ZM143.985 177.84H146.227V172.12H143.985H141.742V177.84H143.985ZM143.985 172.12V174.362H154.545V172.12V169.878H143.985V172.12ZM154.545 172.12H152.302V187.12H154.545H156.787V172.12H154.545ZM154.545 187.12L153.737 185.028C152.752 185.409 151.488 185.735 149.913 185.985L150.265 188.2L150.616 190.415C152.402 190.131 153.991 189.738 155.353 189.212L154.545 187.12ZM150.265 188.2L149.908 185.986C148.371 186.234 146.837 186.358 145.305 186.358V188.6V190.842C147.079 190.842 148.852 190.699 150.622 190.414L150.265 188.2ZM160.94 185L159.255 186.479L160.94 185ZM160.94 164.04L159.255 162.561V162.561L160.94 164.04ZM179.34 164.04L181.025 162.561H181.025L179.34 164.04ZM173.5 180.72L175.46 181.809L175.465 181.8L175.47 181.791L173.5 180.72ZM173.5 168.36L171.53 169.431L171.535 169.44L171.54 169.449L173.5 168.36ZM166.78 168.36L168.74 169.449L168.745 169.44L168.75 169.431L166.78 168.36ZM166.78 180.72L164.81 181.791L164.815 181.8L164.82 181.809L166.78 180.72ZM170.14 188.6V186.358C166.577 186.358 164.2 185.314 162.625 183.521L160.94 185L159.255 186.479C161.894 189.486 165.649 190.842 170.14 190.842V188.6ZM160.94 185L162.625 183.521C161.007 181.677 160.022 178.797 160.022 174.52H157.78H155.537C155.537 179.417 156.66 183.523 159.255 186.479L160.94 185ZM157.78 174.52H160.022C160.022 170.243 161.007 167.363 162.625 165.519L160.94 164.04L159.255 162.561C156.66 165.517 155.537 169.623 155.537 174.52H157.78ZM160.94 164.04L162.625 165.519C164.2 163.726 166.577 162.682 170.14 162.682V160.44V158.198C165.649 158.198 161.894 159.554 159.255 162.561L160.94 164.04ZM170.14 160.44V162.682C173.702 162.682 176.08 163.726 177.655 165.519L179.34 164.04L181.025 162.561C178.386 159.554 174.631 158.198 170.14 158.198V160.44ZM179.34 164.04L177.655 165.519C179.273 167.363 180.257 170.243 180.257 174.52H182.5H184.742C184.742 169.623 183.62 165.517 181.025 162.561L179.34 164.04ZM182.5 174.52H180.257C180.257 178.797 179.273 181.677 177.655 183.521L179.34 185L181.025 186.479C183.62 183.523 184.742 179.417 184.742 174.52H182.5ZM179.34 185L177.655 183.521C176.08 185.314 173.702 186.358 170.14 186.358V188.6V190.842C174.631 190.842 178.386 189.486 181.025 186.479L179.34 185ZM170.14 182.52V184.762C172.384 184.762 174.333 183.838 175.46 181.809L173.5 180.72L171.54 179.631C171.334 180.002 171.042 180.278 170.14 180.278V182.52ZM173.5 180.72L175.47 181.791C176.423 180.037 176.742 177.478 176.742 174.52H174.5H172.257C172.257 177.375 171.91 178.95 171.53 179.649L173.5 180.72ZM174.5 174.52H176.742C176.742 171.569 176.426 169.009 175.46 167.271L173.5 168.36L171.54 169.449C171.907 170.111 172.257 171.658 172.257 174.52H174.5ZM173.5 168.36L175.47 167.289C174.354 165.235 172.408 164.278 170.14 164.278V166.52V168.762C171.018 168.762 171.313 169.031 171.53 169.431L173.5 168.36ZM170.14 166.52V164.278C167.872 164.278 165.926 165.235 164.81 167.289L166.78 168.36L168.75 169.431C168.967 169.031 169.261 168.762 170.14 168.762V166.52ZM166.78 168.36L164.82 167.271C163.854 169.009 163.537 171.569 163.537 174.52H165.78H168.022C168.022 171.658 168.372 170.111 168.74 169.449L166.78 168.36ZM165.78 174.52H163.537C163.537 177.478 163.856 180.037 164.81 181.791L166.78 180.72L168.75 179.649C168.37 178.95 168.022 177.375 168.022 174.52H165.78ZM166.78 180.72L164.82 181.809C165.947 183.838 167.896 184.762 170.14 184.762V182.52V180.278C169.237 180.278 168.946 180.002 168.74 179.631L166.78 180.72ZM188.148 185L186.462 186.479L188.148 185ZM188.148 164.04L186.462 162.561V162.561L188.148 164.04ZM206.548 164.04L208.233 162.561L206.548 164.04ZM200.708 180.72L202.668 181.809L202.673 181.8L202.678 181.791L200.708 180.72ZM200.708 168.36L198.737 169.431L198.742 169.44L198.747 169.449L200.708 168.36ZM193.988 168.36L195.948 169.449L195.953 169.44L195.958 169.431L193.988 168.36ZM193.988 180.72L192.017 181.791L192.022 181.8L192.027 181.809L193.988 180.72ZM197.348 188.6V186.358C193.785 186.358 191.407 185.314 189.833 183.521L188.148 185L186.462 186.479C189.101 189.486 192.857 190.842 197.348 190.842V188.6ZM188.148 185L189.833 183.521C188.214 181.677 187.23 178.797 187.23 174.52H184.988H182.745C182.745 179.417 183.868 183.523 186.462 186.479L188.148 185ZM184.988 174.52H187.23C187.23 170.243 188.214 167.363 189.833 165.519L188.148 164.04L186.462 162.561C183.868 165.517 182.745 169.623 182.745 174.52H184.988ZM188.148 164.04L189.833 165.519C191.407 163.726 193.785 162.682 197.348 162.682V160.44V158.198C192.857 158.198 189.101 159.554 186.462 162.561L188.148 164.04ZM197.348 160.44V162.682C200.91 162.682 203.288 163.726 204.862 165.519L206.548 164.04L208.233 162.561C205.594 159.554 201.839 158.198 197.348 158.198V160.44ZM206.548 164.04L204.862 165.519C206.481 167.363 207.465 170.243 207.465 174.52H209.708H211.95C211.95 169.623 210.828 165.517 208.233 162.561L206.548 164.04ZM209.708 174.52H207.465C207.465 178.797 206.481 181.677 204.862 183.521L206.548 185L208.233 186.479C210.828 183.523 211.95 179.417 211.95 174.52H209.708ZM206.548 185L204.862 183.521C203.288 185.314 200.91 186.358 197.348 186.358V188.6V190.842C201.839 190.842 205.594 189.486 208.233 186.479L206.548 185ZM197.348 182.52V184.762C199.592 184.762 201.541 183.838 202.668 181.809L200.708 180.72L198.747 179.631C198.541 180.002 198.25 180.278 197.348 180.278V182.52ZM200.708 180.72L202.678 181.791C203.631 180.037 203.95 177.478 203.95 174.52H201.708H199.465C199.465 177.375 199.118 178.95 198.737 179.649L200.708 180.72ZM201.708 174.52H203.95C203.95 171.569 203.633 169.009 202.668 167.271L200.708 168.36L198.747 169.449C199.115 170.111 199.465 171.658 199.465 174.52H201.708ZM200.708 168.36L202.678 167.289C201.562 165.235 199.616 164.278 197.348 164.278V166.52V168.762C198.226 168.762 198.52 169.031 198.737 169.431L200.708 168.36ZM197.348 166.52V164.278C195.08 164.278 193.134 165.235 192.017 167.289L193.988 168.36L195.958 169.431C196.175 169.031 196.469 168.762 197.348 168.762V166.52ZM193.988 168.36L192.027 167.271C191.062 169.009 190.745 171.569 190.745 174.52H192.988H195.23C195.23 171.658 195.58 170.111 195.948 169.449L193.988 168.36ZM192.988 174.52H190.745C190.745 177.478 191.064 180.037 192.017 181.791L193.988 180.72L195.958 179.649C195.578 178.95 195.23 177.375 195.23 174.52H192.988ZM193.988 180.72L192.027 181.809C193.155 183.838 195.104 184.762 197.348 184.762V182.52V180.278C196.445 180.278 196.154 180.002 195.948 179.631L193.988 180.72ZM213.355 188H211.113V190.242H213.355V188ZM213.355 161.04V158.798H211.113V161.04H213.355ZM233.275 184.6L231.699 183.005L231.69 183.014L233.275 184.6ZM220.995 166.96V164.718H218.753V166.96H220.995ZM220.995 182.08H218.753V184.322H220.995V182.08ZM227.475 180.36L225.677 179.021L227.475 180.36ZM227.475 168.68L225.677 170.019L225.684 170.029L225.692 170.039L227.475 168.68ZM213.355 188H215.598V161.04H213.355H211.113V188H213.355ZM213.355 161.04V163.282H223.155V161.04V158.798H213.355V161.04ZM223.155 161.04V163.282C227.331 163.282 230.051 164.322 231.742 166.008C233.432 167.693 234.473 170.401 234.473 174.56H236.715H238.958C238.958 169.706 237.739 165.654 234.909 162.832C232.08 160.011 228.019 158.798 223.155 158.798V161.04ZM236.715 174.56H234.473C234.473 178.616 233.427 181.297 231.699 183.005L233.275 184.6L234.852 186.195C237.71 183.369 238.958 179.357 238.958 174.56H236.715ZM233.275 184.6L231.69 183.014C229.988 184.717 227.281 185.758 223.155 185.758V188V190.242C227.99 190.242 232.03 189.017 234.861 186.186L233.275 184.6ZM223.155 188V185.758H213.355V188V190.242H223.155V188ZM223.075 166.96V164.718H220.995V166.96V169.202H223.075V166.96ZM220.995 166.96H218.753V182.08H220.995H223.238V166.96H220.995ZM220.995 182.08V184.322H223.075V182.08V179.838H220.995V182.08ZM223.075 182.08V184.322C225.525 184.322 227.83 183.64 229.274 181.699L227.475 180.36L225.677 179.021C225.414 179.374 224.786 179.838 223.075 179.838V182.08ZM227.475 180.36L229.274 181.699C230.58 179.944 230.998 177.37 230.998 174.52H228.755H226.513C226.513 177.163 226.077 178.483 225.677 179.021L227.475 180.36ZM228.755 174.52H230.998C230.998 171.658 230.585 169.062 229.259 167.321L227.475 168.68L225.692 170.039C226.072 170.538 226.513 171.836 226.513 174.52H228.755ZM227.475 168.68L229.274 167.341C227.83 165.4 225.525 164.718 223.075 164.718V166.96V169.202C224.786 169.202 225.414 169.667 225.677 170.019L227.475 168.68ZM245.785 187.36L243.614 186.798L243.145 188.609L244.844 189.395L245.785 187.36ZM247.225 181.8L248.058 179.718L245.693 178.772L245.054 181.238L247.225 181.8ZM249.025 182.36L248.585 184.559V184.559L249.025 182.36ZM253.185 181.68L254.809 183.226L254.827 183.208L254.844 183.188L253.185 181.68ZM253.985 167.2H256.228V164.958H253.985V167.2ZM247.345 167.2H245.103V169.442H247.345V167.2ZM247.345 161.04V158.798H245.103V161.04H247.345ZM261.665 161.04H263.908V158.798H261.665V161.04ZM259.305 186.4L260.834 188.04L260.842 188.033L260.849 188.026L259.305 186.4ZM251.945 188.6V186.358C249.893 186.358 248.17 185.993 246.727 185.325L245.785 187.36L244.844 189.395C246.973 190.381 249.357 190.842 251.945 190.842V188.6ZM245.785 187.36L247.956 187.922L249.396 182.362L247.225 181.8L245.054 181.238L243.614 186.798L245.785 187.36ZM247.225 181.8L246.392 183.882C247.148 184.184 247.883 184.418 248.585 184.559L249.025 182.36L249.465 180.161C249.101 180.088 248.635 179.949 248.058 179.718L247.225 181.8ZM249.025 182.36L248.585 184.559C249.236 184.689 249.878 184.762 250.505 184.762V182.52V180.278C250.225 180.278 249.881 180.244 249.465 180.161L249.025 182.36ZM250.505 182.52V184.762C252.005 184.762 253.653 184.441 254.809 183.226L253.185 181.68L251.561 180.134C251.607 180.086 251.604 180.12 251.445 180.17C251.274 180.224 250.976 180.278 250.505 180.278V182.52ZM253.185 181.68L254.844 183.188C255.931 181.993 256.228 180.366 256.228 178.84H253.985H251.743C251.743 179.351 251.69 179.699 251.627 179.922C251.566 180.139 251.509 180.19 251.526 180.172L253.185 181.68ZM253.985 178.84H256.228V167.2H253.985H251.743V178.84H253.985ZM253.985 167.2V164.958H247.345V167.2V169.442H253.985V167.2ZM247.345 167.2H249.588V161.04H247.345H245.103V167.2H247.345ZM247.345 161.04V163.282H261.665V161.04V158.798H247.345V161.04ZM261.665 161.04H259.423V179.56H261.665H263.908V161.04H261.665ZM261.665 179.56H259.423C259.423 182.271 258.73 183.854 257.761 184.774L259.305 186.4L260.849 188.026C263.027 185.959 263.908 182.982 263.908 179.56H261.665ZM259.305 186.4L257.776 184.76C256.795 185.674 255.012 186.358 251.945 186.358V188.6V190.842C255.545 190.842 258.668 190.059 260.834 188.04L259.305 186.4ZM268.112 185L266.426 186.479L268.112 185ZM268.112 164.04L266.426 162.561L266.426 162.561L268.112 164.04ZM286.512 164.04L288.197 162.561L286.512 164.04ZM280.672 180.72L282.632 181.809L282.637 181.8L282.642 181.791L280.672 180.72ZM280.672 168.36L278.702 169.431L278.706 169.44L278.712 169.449L280.672 168.36ZM273.952 168.36L275.912 169.449L275.917 169.44L275.922 169.431L273.952 168.36ZM273.952 180.72L271.982 181.791L271.986 181.8L271.992 181.809L273.952 180.72ZM277.312 188.6V186.358C273.749 186.358 271.371 185.314 269.797 183.521L268.112 185L266.426 186.479C269.065 189.486 272.821 190.842 277.312 190.842V188.6ZM268.112 185L269.797 183.521C268.178 181.677 267.194 178.797 267.194 174.52H264.952H262.709C262.709 179.417 263.832 183.523 266.426 186.479L268.112 185ZM264.952 174.52H267.194C267.194 170.243 268.178 167.363 269.797 165.519L268.112 164.04L266.426 162.561C263.832 165.517 262.709 169.623 262.709 174.52H264.952ZM268.112 164.04L269.797 165.519C271.371 163.726 273.749 162.682 277.312 162.682V160.44V158.198C272.821 158.198 269.065 159.554 266.426 162.561L268.112 164.04ZM277.312 160.44V162.682C280.874 162.682 283.252 163.726 284.826 165.519L286.512 164.04L288.197 162.561C285.558 159.554 281.803 158.198 277.312 158.198V160.44ZM286.512 164.04L284.826 165.519C286.445 167.363 287.429 170.243 287.429 174.52H289.672H291.914C291.914 169.623 290.792 165.517 288.197 162.561L286.512 164.04ZM289.672 174.52H287.429C287.429 178.797 286.445 181.677 284.826 183.521L286.512 185L288.197 186.479C290.792 183.523 291.914 179.417 291.914 174.52H289.672ZM286.512 185L284.826 183.521C283.252 185.314 280.874 186.358 277.312 186.358V188.6V190.842C281.803 190.842 285.558 189.486 288.197 186.479L286.512 185ZM277.312 182.52V184.762C279.556 184.762 281.505 183.838 282.632 181.809L280.672 180.72L278.712 179.631C278.505 180.002 278.214 180.278 277.312 180.278V182.52ZM280.672 180.72L282.642 181.791C283.595 180.037 283.914 177.478 283.914 174.52H281.672H279.429C279.429 177.375 279.082 178.95 278.702 179.649L280.672 180.72ZM281.672 174.52H283.914C283.914 171.569 283.598 169.009 282.632 167.271L280.672 168.36L278.712 169.449C279.079 170.111 279.429 171.658 279.429 174.52H281.672ZM280.672 168.36L282.642 167.289C281.526 165.235 279.58 164.278 277.312 164.278V166.52V168.762C278.19 168.762 278.484 169.031 278.702 169.431L280.672 168.36ZM277.312 166.52V164.278C275.044 164.278 273.098 165.235 271.982 167.289L273.952 168.36L275.922 169.431C276.139 169.031 276.433 168.762 277.312 168.762V166.52ZM273.952 168.36L271.992 167.271C271.026 169.009 270.709 171.569 270.709 174.52H272.952H275.194C275.194 171.658 275.544 170.111 275.912 169.449L273.952 168.36ZM272.952 174.52H270.709C270.709 177.478 271.028 180.037 271.982 181.791L273.952 180.72L275.922 179.649C275.542 178.95 275.194 177.375 275.194 174.52H272.952ZM273.952 180.72L271.992 181.809C273.119 183.838 275.068 184.762 277.312 184.762V182.52V180.278C276.409 180.278 276.118 180.002 275.912 179.631L273.952 180.72ZM293.32 188H291.077V190.242H293.32V188ZM293.32 161.04V158.798H291.077V161.04H293.32ZM311.52 162.92L310.093 164.65L310.102 164.658L310.111 164.665L311.52 162.92ZM309.68 174.08L309.131 171.906L309.202 176.271L309.68 174.08ZM300.52 166.28V164.038H298.277V166.28H300.52ZM300.52 171.92H298.277V174.162H300.52V171.92ZM306.08 166.92L304.543 168.553L304.566 168.575L304.59 168.596L306.08 166.92ZM300.52 176.84V174.598H298.277V176.84H300.52ZM300.52 182.76H298.277V185.002H300.52V182.76ZM306.68 182.08L308.175 183.751L308.199 183.73L308.222 183.708L306.68 182.08ZM306.68 177.56L305.094 179.146L305.138 179.19L305.184 179.231L306.68 177.56ZM293.32 188H295.562V161.04H293.32H291.077V188H293.32ZM293.32 161.04V163.282H304.92V161.04V158.798H293.32V161.04ZM304.92 161.04V163.282C307.513 163.282 309.124 163.851 310.093 164.65L311.52 162.92L312.946 161.19C310.875 159.482 308.087 158.798 304.92 158.798V161.04ZM311.52 162.92L310.111 164.665C310.99 165.374 311.557 166.463 311.557 168.32H313.8H316.042C316.042 165.43 315.089 162.919 312.928 161.175L311.52 162.92ZM313.8 168.32H311.557C311.557 169.579 311.283 170.344 310.946 170.815C310.627 171.262 310.097 171.662 309.131 171.906L309.68 174.08L310.228 176.254C312.009 175.805 313.539 174.898 314.593 173.425C315.63 171.976 316.042 170.207 316.042 168.32H313.8ZM309.68 174.08L309.202 176.271C310.623 176.581 311.445 177.117 311.928 177.712C312.409 178.306 312.757 179.208 312.757 180.64H315H317.242C317.242 178.472 316.703 176.481 315.411 174.888C314.121 173.297 312.282 172.352 310.157 171.889L309.68 174.08ZM315 180.64H312.757C312.757 182.592 312.168 183.704 311.286 184.403C310.305 185.181 308.577 185.758 305.72 185.758V188V190.242C309.049 190.242 311.961 189.592 314.073 187.917C316.284 186.163 317.242 183.595 317.242 180.64H315ZM305.72 188V185.758H293.32V188V190.242H305.72V188ZM303.8 166.28V164.038H300.52V166.28V168.522H303.8V166.28ZM300.52 166.28H298.277V171.92H300.52H302.762V166.28H300.52ZM300.52 171.92V174.162H303.8V171.92V169.678H300.52V171.92ZM303.8 171.92V174.162C305.13 174.162 306.543 173.839 307.614 172.797C308.695 171.744 309.042 170.335 309.042 169H306.8H304.557C304.557 169.612 304.404 169.663 304.486 169.583C304.556 169.514 304.469 169.678 303.8 169.678V171.92ZM306.8 169H309.042C309.042 167.719 308.724 166.27 307.569 165.244L306.08 166.92L304.59 168.596C304.504 168.52 304.488 168.457 304.501 168.493C304.518 168.544 304.557 168.697 304.557 169H306.8ZM306.08 166.92L307.616 165.287C306.536 164.27 305.06 164.038 303.8 164.038V166.28V168.522C304.195 168.522 304.436 168.563 304.564 168.599C304.686 168.633 304.641 168.645 304.543 168.553L306.08 166.92ZM304.24 176.84V174.598H300.52V176.84V179.082H304.24V176.84ZM300.52 176.84H298.277V182.76H300.52H302.762V176.84H300.52ZM300.52 182.76V185.002H304.24V182.76V180.518H300.52V182.76ZM304.24 182.76V185.002C305.577 185.002 307.062 184.747 308.175 183.751L306.68 182.08L305.184 180.409C305.242 180.358 305.241 180.387 305.088 180.43C304.929 180.474 304.658 180.518 304.24 180.518V182.76ZM306.68 182.08L308.222 183.708C309.355 182.634 309.682 181.154 309.682 179.8H307.44H305.197C305.197 180.147 305.154 180.346 305.122 180.441C305.095 180.523 305.086 180.501 305.137 180.452L306.68 182.08ZM307.44 179.8H309.682C309.682 178.459 309.361 176.95 308.175 175.889L306.68 177.56L305.184 179.231C305.107 179.162 305.103 179.114 305.126 179.18C305.153 179.261 305.197 179.452 305.197 179.8H307.44ZM306.68 177.56L308.265 175.974C307.154 174.863 305.596 174.598 304.24 174.598V176.84V179.082C304.668 179.082 304.932 179.129 305.075 179.171C305.21 179.211 305.177 179.228 305.094 179.146L306.68 177.56ZM318.973 178.72L316.732 178.801L316.811 180.962H318.973V178.72ZM318.333 161.04V158.798H316.008L316.092 161.121L318.333 161.04ZM325.613 161.04L327.854 161.121L327.938 158.798H325.613V161.04ZM324.973 178.72V180.962H327.136L327.214 178.801L324.973 178.72ZM318.253 188H316.011V190.242H318.253V188ZM318.253 181.56V179.318H316.011V181.56H318.253ZM325.693 181.56H327.936V179.318H325.693V181.56ZM325.693 188V190.242H327.936V188H325.693ZM318.973 178.72L321.214 178.639L320.574 160.959L318.333 161.04L316.092 161.121L316.732 178.801L318.973 178.72ZM318.333 161.04V163.282H325.613V161.04V158.798H318.333V161.04ZM325.613 161.04L323.372 160.959L322.732 178.639L324.973 178.72L327.214 178.801L327.854 161.121L325.613 161.04ZM324.973 178.72V176.478H318.973V178.72V180.962H324.973V178.72ZM318.253 188H320.496V181.56H318.253H316.011V188H318.253ZM318.253 181.56V183.802H325.693V181.56V179.318H318.253V181.56ZM325.693 181.56H323.451V188H325.693H327.936V181.56H325.693ZM325.693 188V185.758H318.253V188V190.242H325.693V188Z" fill="#3B3B3B" mask="url(#path-11-outside-1_1564_1748)"/>
</g>
<path d="M462.011 176.855C462.011 177.383 461.588 177.815 461.059 177.825L369.712 179.652C368.146 179.683 366.858 178.422 366.858 176.855C366.858 175.287 368.146 174.026 369.712 174.057L461.059 175.884C461.588 175.895 462.011 176.326 462.011 176.855Z" fill="white"/>
<ellipse cx="361.855" cy="176.855" rx="2.85457" ry="2.85457" transform="rotate(-180 361.855 176.855)" fill="white"/>
<path d="M6.5251e-06 176.855C6.43268e-06 176.326 0.422883 175.895 0.951339 175.884L92.2983 174.057C93.8652 174.026 95.1523 175.287 95.1523 176.855C95.1523 178.422 93.8652 179.683 92.2983 179.652L0.951336 177.825C0.42288 177.815 6.61751e-06 177.383 6.5251e-06 176.855Z" fill="white"/>
<ellipse cx="100.155" cy="176.855" rx="2.85457" ry="2.85457" fill="white"/>
<defs>
<filter id="filter0_i_1564_1748" x="193.979" y="45.4561" width="78.459" height="70.208" filterUnits="userSpaceOnUse" color-interpolation-filters="sRGB">
<feFlood flood-opacity="0" result="BackgroundImageFix"/>
<feBlend mode="normal" in="SourceGraphic" in2="BackgroundImageFix" result="shape"/>
<feColorMatrix in="SourceAlpha" type="matrix" values="0 0 0 0 0 0 0 0 0 0 0 0 0 0 0 0 0 0 127 0" result="hardAlpha"/>
<feOffset dx="-4.9" dy="-9.8"/>
<feComposite in2="hardAlpha" operator="arithmetic" k2="-1" k3="1"/>
<feColorMatrix type="matrix" values="0 0 0 0 0.523014 0 0 0 0 0.390127 0 0 0 0 0.143335 0 0 0 1 0"/>
<feBlend mode="hard-light" in2="shape" result="effect1_innerShadow_1564_1748"/>
</filter>
<filter id="filter1_ddd_1564_1748" x="123.857" y="156.516" width="209.687" height="43.8563" filterUnits="userSpaceOnUse" color-interpolation-filters="sRGB">
<feFlood flood-opacity="0" result="BackgroundImageFix"/>
<feColorMatrix in="SourceAlpha" type="matrix" values="0 0 0 0 0 0 0 0 0 0 0 0 0 0 0 0 0 0 127 0" result="hardAlpha"/>
<feOffset dy="2.20703"/>
<feComposite in2="hardAlpha" operator="out"/>
<feColorMatrix type="matrix" values="0 0 0 0 0 0 0 0 0 0 0 0 0 0 0 0 0 0 1 0"/>
<feBlend mode="normal" in2="BackgroundImageFix" result="effect1_dropShadow_1564_1748"/>
<feColorMatrix in="SourceAlpha" type="matrix" values="0 0 0 0 0 0 0 0 0 0 0 0 0 0 0 0 0 0 127 0" result="hardAlpha"/>
<feOffset dy="2.20703"/>
<feComposite in2="hardAlpha" operator="out"/>
<feColorMatrix type="matrix" values="0 0 0 0 0 0 0 0 0 0 0 0 0 0 0 0 0 0 1 0"/>
<feBlend mode="normal" in2="effect1_dropShadow_1564_1748" result="effect2_dropShadow_1564_1748"/>
<feColorMatrix in="SourceAlpha" type="matrix" values="0 0 0 0 0 0 0 0 0 0 0 0 0 0 0 0 0 0 127 0" result="hardAlpha"/>
<feOffset dy="3.92411"/>
<feGaussianBlur stdDeviation="2.80293"/>
<feComposite in2="hardAlpha" operator="out"/>
<feColorMatrix type="matrix" values="0 0 0 0 0 0 0 0 0 0 0 0 0 0 0 0 0 0 0.8 0"/>
<feBlend mode="normal" in2="effect2_dropShadow_1564_1748" result="effect3_dropShadow_1564_1748"/>
<feBlend mode="normal" in="SourceGraphic" in2="effect3_dropShadow_1564_1748" result="shape"/>
</filter>
<radialGradient id="paint0_radial_1564_1748" cx="0" cy="0" r="1" gradientUnits="userSpaceOnUse" gradientTransform="translate(232.349 85.155) rotate(-108.14) scale(84.9608 182.828)">
<stop offset="0.416941" stop-color="white"/>
<stop offset="0.654304" stop-color="white" stop-opacity="0"/>
</radialGradient>
</defs>
</svg>
