<svg width="858" height="151" viewBox="0 0 858 151" fill="none" xmlns="http://www.w3.org/2000/svg">
<g filter="url(#filter0_d_635_8432)">
<path d="M3.01824 14.0328C3.01954 7.93918 7.95977 3 14.0534 3H843.88C849.975 3 854.915 7.94061 854.915 14.0352V87.3672C854.915 94.194 849.725 99.902 842.929 100.55L433.145 139.601C430.36 139.866 427.555 139.866 424.77 139.601L14.9885 100.55C8.19142 99.9021 3.00117 94.1925 3.00262 87.3646L3.01824 14.0328Z" fill="#342E72"/>
<path d="M843.88 1.89648C850.584 1.89648 856.019 7.33116 856.019 14.0352V87.3672C856.019 94.7628 850.396 100.947 843.034 101.648L433.25 140.699C430.395 140.971 427.52 140.971 424.665 140.699L14.8838 101.648C7.52027 100.947 1.89784 94.7611 1.89941 87.3643L1.91504 14.0322C1.91666 7.32939 7.35083 1.89648 14.0537 1.89648H843.88Z" stroke="black" stroke-width="2.20703"/>
</g>
<path d="M14.0925 4.10352H843.824C849.307 4.10358 853.753 8.54715 853.756 14.0303L853.787 81.0615C853.789 86.177 849.906 90.4582 844.814 90.9521L433.112 130.877C430.349 131.145 427.567 131.145 424.804 130.877L13.1022 90.9521C8.01062 90.4583 4.12718 86.177 4.12958 81.0615L4.16083 14.0303C4.16352 8.54711 8.60927 4.10353 14.0925 4.10352Z" fill="url(#paint0_linear_635_8432)"/>
<path d="M14.0925 4.10352H843.824C849.307 4.10358 853.753 8.54715 853.756 14.0303L853.787 81.0615C853.789 86.177 849.906 90.4582 844.814 90.9521L433.112 130.877C430.349 131.145 427.567 131.145 424.804 130.877L13.1022 90.9521C8.01062 90.4583 4.12718 86.177 4.12958 81.0615L4.16083 14.0303C4.16352 8.54711 8.60927 4.10353 14.0925 4.10352Z" stroke="#D2BFFF" stroke-width="2.20703" style="mix-blend-mode:hard-light"/>
<path style="mix-blend-mode:hard-light" d="M843.962 5.53711C848.836 5.53711 852.789 9.4866 852.791 14.3604L852.799 29.8145C769.919 39.5472 611.174 46.1299 428.958 46.1299C246.742 46.1299 87.9961 39.5472 5.11646 29.8145L5.12427 14.3604C5.12693 9.48668 9.07874 5.53724 13.9524 5.53711H843.962Z" fill="url(#paint1_radial_635_8432)" fill-opacity="0.25"/>
<g filter="url(#filter1_ddd_635_8432)">
<mask id="path-5-outside-1_635_8432" maskUnits="userSpaceOnUse" x="259.906" y="43.0054" width="338" height="34" fill="black">
<rect fill="white" x="259.906" y="43.0054" width="338" height="34"/>
<path d="M269.049 74.0054V53.1254H262.449V47.0454H283.329V53.1254H276.729V74.0054H269.049ZM296.644 74.6054C292.618 74.6054 289.551 73.4054 287.444 71.0054C285.338 68.6054 284.284 65.112 284.284 60.5254C284.284 55.9387 285.338 52.4454 287.444 50.0454C289.551 47.6454 292.618 46.4454 296.644 46.4454C300.671 46.4454 303.738 47.6454 305.844 50.0454C307.951 52.4454 309.004 55.9387 309.004 60.5254C309.004 65.112 307.951 68.6054 305.844 71.0054C303.738 73.4054 300.671 74.6054 296.644 74.6054ZM296.644 68.5254C298.218 68.5254 299.338 67.9254 300.004 66.7254C300.671 65.4987 301.004 63.432 301.004 60.5254C301.004 57.6187 300.671 55.5654 300.004 54.3654C299.338 53.1387 298.218 52.5254 296.644 52.5254C295.071 52.5254 293.951 53.1387 293.284 54.3654C292.618 55.5654 292.284 57.6187 292.284 60.5254C292.284 63.432 292.618 65.4987 293.284 66.7254C293.951 67.9254 295.071 68.5254 296.644 68.5254ZM312.652 74.0054V47.0454H322.452C331.492 47.0454 336.012 51.552 336.012 60.5654C336.012 64.992 334.865 68.3387 332.572 70.6054C330.305 72.872 326.932 74.0054 322.452 74.0054H312.652ZM322.372 52.9654H320.292V68.0854H322.372C324.452 68.0854 325.919 67.512 326.772 66.3654C327.625 65.2187 328.052 63.272 328.052 60.5254C328.052 57.752 327.625 55.8054 326.772 54.6854C325.919 53.5387 324.452 52.9654 322.372 52.9654ZM336.559 74.0054L344.159 47.0454H354.319L362.159 74.0054H354.599L353.359 69.0454H345.119L343.879 74.0054H336.559ZM346.399 63.8054H352.039L349.239 52.4454L346.399 63.8054ZM368.262 74.0054V65.2054L359.502 47.0454H367.222L372.222 57.7254L377.262 47.0454H384.502L375.942 64.4054V74.0054H368.262ZM386.999 59.0054L386.199 45.5254H393.599L392.799 59.0054H386.999ZM404.668 74.6054C401.495 74.6054 398.588 74.0854 395.948 73.0454L397.348 67.2054C398.388 67.6054 399.495 67.9254 400.668 68.1654C401.868 68.3787 402.988 68.4854 404.028 68.4854C405.575 68.4854 406.682 68.2854 407.348 67.8854C408.042 67.4854 408.388 66.832 408.388 65.9254C408.388 64.832 407.775 64.1654 406.548 63.9254L402.988 63.2054C398.562 62.2987 396.348 59.6454 396.348 55.2454C396.348 52.4987 397.255 50.352 399.068 48.8054C400.882 47.232 403.375 46.4454 406.548 46.4454C409.722 46.4454 412.548 46.9254 415.028 47.8854L413.588 53.6054C411.748 52.8854 409.588 52.5254 407.108 52.5254C404.655 52.5254 403.428 53.2854 403.428 54.8054C403.428 55.9254 404.135 56.6187 405.548 56.8854L408.588 57.4854C411.042 57.992 412.842 58.8987 413.988 60.2054C415.162 61.512 415.748 63.312 415.748 65.6054C415.748 68.6454 414.842 70.912 413.028 72.4054C411.215 73.872 408.428 74.6054 404.668 74.6054ZM430.659 74.6054C428.339 74.6054 426.286 74.192 424.499 73.3654L425.939 67.8054C426.606 68.072 427.206 68.2587 427.739 68.3654C428.272 68.472 428.766 68.5254 429.219 68.5254C430.472 68.5254 431.366 68.2454 431.899 67.6854C432.432 67.0987 432.699 66.152 432.699 64.8454V53.2054H426.059V47.0454H440.379V65.5654C440.379 68.632 439.592 70.912 438.019 72.4054C436.446 73.872 433.992 74.6054 430.659 74.6054ZM456.026 74.6054C451.999 74.6054 448.932 73.4054 446.826 71.0054C444.719 68.6054 443.666 65.112 443.666 60.5254C443.666 55.9387 444.719 52.4454 446.826 50.0454C448.932 47.6454 451.999 46.4454 456.026 46.4454C460.052 46.4454 463.119 47.6454 465.226 50.0454C467.332 52.4454 468.386 55.9387 468.386 60.5254C468.386 65.112 467.332 68.6054 465.226 71.0054C463.119 73.4054 460.052 74.6054 456.026 74.6054ZM456.026 68.5254C457.599 68.5254 458.719 67.9254 459.386 66.7254C460.052 65.4987 460.386 63.432 460.386 60.5254C460.386 57.6187 460.052 55.5654 459.386 54.3654C458.719 53.1387 457.599 52.5254 456.026 52.5254C454.452 52.5254 453.332 53.1387 452.666 54.3654C451.999 55.5654 451.666 57.6187 451.666 60.5254C451.666 63.432 451.999 65.4987 452.666 66.7254C453.332 67.9254 454.452 68.5254 456.026 68.5254ZM482.953 74.6054C478.98 74.6054 476.1 73.6987 474.313 71.8854C472.553 70.0454 471.673 67.0587 471.673 62.9254V47.0454H479.393V64.5654C479.393 67.1254 480.593 68.4054 482.993 68.4054C485.34 68.4054 486.513 67.1254 486.513 64.5654V47.0454H494.233V62.9254C494.233 67.0587 493.34 70.0454 491.553 71.8854C489.793 73.6987 486.927 74.6054 482.953 74.6054ZM498.655 74.0054V47.0454H509.255C512.669 47.0454 515.255 47.8054 517.015 49.3254C518.802 50.8454 519.695 53.0454 519.695 55.9254C519.695 57.792 519.269 59.3787 518.415 60.6854C517.562 61.9654 516.375 62.872 514.855 63.4054L521.415 74.0054H513.415L507.935 64.5254H505.935V74.0054H498.655ZM508.575 52.4854H505.935V59.3654H508.575C510.949 59.3654 512.135 58.2187 512.135 55.9254C512.135 53.632 510.949 52.4854 508.575 52.4854ZM524.066 74.0054V47.0454H532.066L540.746 63.9254V47.0454H547.426V74.0054H539.426L530.746 57.1254V74.0054H524.066ZM549.691 74.0054L557.291 47.0454H567.452L575.291 74.0054H567.732L566.491 69.0454H558.251L557.011 74.0054H549.691ZM559.531 63.8054H565.171L562.371 52.4454L559.531 63.8054ZM577.583 74.0054V47.0454H585.263V67.8454H594.703V74.0054H577.583Z"/>
</mask>
<path d="M269.049 74.0054V53.1254H262.449V47.0454H283.329V53.1254H276.729V74.0054H269.049ZM296.644 74.6054C292.618 74.6054 289.551 73.4054 287.444 71.0054C285.338 68.6054 284.284 65.112 284.284 60.5254C284.284 55.9387 285.338 52.4454 287.444 50.0454C289.551 47.6454 292.618 46.4454 296.644 46.4454C300.671 46.4454 303.738 47.6454 305.844 50.0454C307.951 52.4454 309.004 55.9387 309.004 60.5254C309.004 65.112 307.951 68.6054 305.844 71.0054C303.738 73.4054 300.671 74.6054 296.644 74.6054ZM296.644 68.5254C298.218 68.5254 299.338 67.9254 300.004 66.7254C300.671 65.4987 301.004 63.432 301.004 60.5254C301.004 57.6187 300.671 55.5654 300.004 54.3654C299.338 53.1387 298.218 52.5254 296.644 52.5254C295.071 52.5254 293.951 53.1387 293.284 54.3654C292.618 55.5654 292.284 57.6187 292.284 60.5254C292.284 63.432 292.618 65.4987 293.284 66.7254C293.951 67.9254 295.071 68.5254 296.644 68.5254ZM312.652 74.0054V47.0454H322.452C331.492 47.0454 336.012 51.552 336.012 60.5654C336.012 64.992 334.865 68.3387 332.572 70.6054C330.305 72.872 326.932 74.0054 322.452 74.0054H312.652ZM322.372 52.9654H320.292V68.0854H322.372C324.452 68.0854 325.919 67.512 326.772 66.3654C327.625 65.2187 328.052 63.272 328.052 60.5254C328.052 57.752 327.625 55.8054 326.772 54.6854C325.919 53.5387 324.452 52.9654 322.372 52.9654ZM336.559 74.0054L344.159 47.0454H354.319L362.159 74.0054H354.599L353.359 69.0454H345.119L343.879 74.0054H336.559ZM346.399 63.8054H352.039L349.239 52.4454L346.399 63.8054ZM368.262 74.0054V65.2054L359.502 47.0454H367.222L372.222 57.7254L377.262 47.0454H384.502L375.942 64.4054V74.0054H368.262ZM386.999 59.0054L386.199 45.5254H393.599L392.799 59.0054H386.999ZM404.668 74.6054C401.495 74.6054 398.588 74.0854 395.948 73.0454L397.348 67.2054C398.388 67.6054 399.495 67.9254 400.668 68.1654C401.868 68.3787 402.988 68.4854 404.028 68.4854C405.575 68.4854 406.682 68.2854 407.348 67.8854C408.042 67.4854 408.388 66.832 408.388 65.9254C408.388 64.832 407.775 64.1654 406.548 63.9254L402.988 63.2054C398.562 62.2987 396.348 59.6454 396.348 55.2454C396.348 52.4987 397.255 50.352 399.068 48.8054C400.882 47.232 403.375 46.4454 406.548 46.4454C409.722 46.4454 412.548 46.9254 415.028 47.8854L413.588 53.6054C411.748 52.8854 409.588 52.5254 407.108 52.5254C404.655 52.5254 403.428 53.2854 403.428 54.8054C403.428 55.9254 404.135 56.6187 405.548 56.8854L408.588 57.4854C411.042 57.992 412.842 58.8987 413.988 60.2054C415.162 61.512 415.748 63.312 415.748 65.6054C415.748 68.6454 414.842 70.912 413.028 72.4054C411.215 73.872 408.428 74.6054 404.668 74.6054ZM430.659 74.6054C428.339 74.6054 426.286 74.192 424.499 73.3654L425.939 67.8054C426.606 68.072 427.206 68.2587 427.739 68.3654C428.272 68.472 428.766 68.5254 429.219 68.5254C430.472 68.5254 431.366 68.2454 431.899 67.6854C432.432 67.0987 432.699 66.152 432.699 64.8454V53.2054H426.059V47.0454H440.379V65.5654C440.379 68.632 439.592 70.912 438.019 72.4054C436.446 73.872 433.992 74.6054 430.659 74.6054ZM456.026 74.6054C451.999 74.6054 448.932 73.4054 446.826 71.0054C444.719 68.6054 443.666 65.112 443.666 60.5254C443.666 55.9387 444.719 52.4454 446.826 50.0454C448.932 47.6454 451.999 46.4454 456.026 46.4454C460.052 46.4454 463.119 47.6454 465.226 50.0454C467.332 52.4454 468.386 55.9387 468.386 60.5254C468.386 65.112 467.332 68.6054 465.226 71.0054C463.119 73.4054 460.052 74.6054 456.026 74.6054ZM456.026 68.5254C457.599 68.5254 458.719 67.9254 459.386 66.7254C460.052 65.4987 460.386 63.432 460.386 60.5254C460.386 57.6187 460.052 55.5654 459.386 54.3654C458.719 53.1387 457.599 52.5254 456.026 52.5254C454.452 52.5254 453.332 53.1387 452.666 54.3654C451.999 55.5654 451.666 57.6187 451.666 60.5254C451.666 63.432 451.999 65.4987 452.666 66.7254C453.332 67.9254 454.452 68.5254 456.026 68.5254ZM482.953 74.6054C478.98 74.6054 476.1 73.6987 474.313 71.8854C472.553 70.0454 471.673 67.0587 471.673 62.9254V47.0454H479.393V64.5654C479.393 67.1254 480.593 68.4054 482.993 68.4054C485.34 68.4054 486.513 67.1254 486.513 64.5654V47.0454H494.233V62.9254C494.233 67.0587 493.34 70.0454 491.553 71.8854C489.793 73.6987 486.927 74.6054 482.953 74.6054ZM498.655 74.0054V47.0454H509.255C512.669 47.0454 515.255 47.8054 517.015 49.3254C518.802 50.8454 519.695 53.0454 519.695 55.9254C519.695 57.792 519.269 59.3787 518.415 60.6854C517.562 61.9654 516.375 62.872 514.855 63.4054L521.415 74.0054H513.415L507.935 64.5254H505.935V74.0054H498.655ZM508.575 52.4854H505.935V59.3654H508.575C510.949 59.3654 512.135 58.2187 512.135 55.9254C512.135 53.632 510.949 52.4854 508.575 52.4854ZM524.066 74.0054V47.0454H532.066L540.746 63.9254V47.0454H547.426V74.0054H539.426L530.746 57.1254V74.0054H524.066ZM549.691 74.0054L557.291 47.0454H567.452L575.291 74.0054H567.732L566.491 69.0454H558.251L557.011 74.0054H549.691ZM559.531 63.8054H565.171L562.371 52.4454L559.531 63.8054ZM577.583 74.0054V47.0454H585.263V67.8454H594.703V74.0054H577.583Z" fill="white"/>
<path d="M269.049 74.0054H266.807V76.2477H269.049V74.0054ZM269.049 53.1254H271.292V50.883H269.049V53.1254ZM262.449 53.1254H260.207V55.3677H262.449V53.1254ZM262.449 47.0454V44.803H260.207V47.0454H262.449ZM283.329 47.0454H285.572V44.803H283.329V47.0454ZM283.329 53.1254V55.3677H285.572V53.1254H283.329ZM276.729 53.1254V50.883H274.487V53.1254H276.729ZM276.729 74.0054V76.2477H278.972V74.0054H276.729ZM269.049 74.0054H271.292V53.1254H269.049H266.807V74.0054H269.049ZM269.049 53.1254V50.883H262.449V53.1254V55.3677H269.049V53.1254ZM262.449 53.1254H264.692V47.0454H262.449H260.207V53.1254H262.449ZM262.449 47.0454V49.2877H283.329V47.0454V44.803H262.449V47.0454ZM283.329 47.0454H281.087V53.1254H283.329H285.572V47.0454H283.329ZM283.329 53.1254V50.883H276.729V53.1254V55.3677H283.329V53.1254ZM276.729 53.1254H274.487V74.0054H276.729H278.972V53.1254H276.729ZM276.729 74.0054V71.763H269.049V74.0054V76.2477H276.729V74.0054ZM287.444 71.0054L285.759 72.4846L287.444 71.0054ZM287.444 50.0454L285.759 48.5661V48.5661L287.444 50.0454ZM305.844 50.0454L307.53 48.5661V48.5661L305.844 50.0454ZM300.004 66.7254L301.964 67.8144L301.97 67.8053L301.974 67.7961L300.004 66.7254ZM300.004 54.3654L298.034 55.4361L298.039 55.4453L298.044 55.4543L300.004 54.3654ZM293.284 54.3654L295.244 55.4543L295.25 55.4453L295.254 55.4361L293.284 54.3654ZM293.284 66.7254L291.314 67.7961L291.319 67.8053L291.324 67.8144L293.284 66.7254ZM296.644 74.6054V72.363C293.082 72.363 290.704 71.3198 289.13 69.5261L287.444 71.0054L285.759 72.4846C288.398 75.4909 292.153 76.8477 296.644 76.8477V74.6054ZM287.444 71.0054L289.13 69.5261C287.511 67.6824 286.527 64.8019 286.527 60.5254H284.284H282.042C282.042 65.4222 283.164 69.5284 285.759 72.4846L287.444 71.0054ZM284.284 60.5254H286.527C286.527 56.2488 287.511 53.3684 289.13 51.5246L287.444 50.0454L285.759 48.5661C283.164 51.5224 282.042 55.6286 282.042 60.5254H284.284ZM287.444 50.0454L289.13 51.5246C290.704 49.7309 293.082 48.6877 296.644 48.6877V46.4454V44.203C292.153 44.203 288.398 45.5598 285.759 48.5661L287.444 50.0454ZM296.644 46.4454V48.6877C300.207 48.6877 302.585 49.7309 304.159 51.5246L305.844 50.0454L307.53 48.5661C304.891 45.5598 301.135 44.203 296.644 44.203V46.4454ZM305.844 50.0454L304.159 51.5246C305.778 53.3684 306.762 56.2488 306.762 60.5254H309.004H311.247C311.247 55.6286 310.124 51.5224 307.53 48.5661L305.844 50.0454ZM309.004 60.5254H306.762C306.762 64.8019 305.778 67.6824 304.159 69.5261L305.844 71.0054L307.53 72.4846C310.124 69.5284 311.247 65.4222 311.247 60.5254H309.004ZM305.844 71.0054L304.159 69.5261C302.585 71.3198 300.207 72.363 296.644 72.363V74.6054V76.8477C301.135 76.8477 304.891 75.4909 307.53 72.4846L305.844 71.0054ZM296.644 68.5254V70.7677C298.888 70.7677 300.837 69.8435 301.964 67.8144L300.004 66.7254L298.044 65.6364C297.838 66.0073 297.547 66.283 296.644 66.283V68.5254ZM300.004 66.7254L301.974 67.7961C302.928 66.0421 303.247 63.4838 303.247 60.5254H301.004H298.762C298.762 63.3802 298.414 64.9553 298.034 65.6546L300.004 66.7254ZM301.004 60.5254H303.247C303.247 57.5743 302.93 55.0145 301.964 53.2764L300.004 54.3654L298.044 55.4543C298.412 56.1162 298.762 57.6631 298.762 60.5254H301.004ZM300.004 54.3654L301.974 53.2946C300.858 51.2407 298.912 50.283 296.644 50.283V52.5254V54.7677C297.523 54.7677 297.817 55.0367 298.034 55.4361L300.004 54.3654ZM296.644 52.5254V50.283C294.376 50.283 292.43 51.2407 291.314 53.2946L293.284 54.3654L295.254 55.4361C295.472 55.0367 295.766 54.7677 296.644 54.7677V52.5254ZM293.284 54.3654L291.324 53.2764C290.358 55.0145 290.042 57.5743 290.042 60.5254H292.284H294.527C294.527 57.6631 294.877 56.1162 295.244 55.4543L293.284 54.3654ZM292.284 60.5254H290.042C290.042 63.4838 290.361 66.0421 291.314 67.7961L293.284 66.7254L295.254 65.6546C294.874 64.9553 294.527 63.3802 294.527 60.5254H292.284ZM293.284 66.7254L291.324 67.8144C292.451 69.8435 294.4 70.7677 296.644 70.7677V68.5254V66.283C295.742 66.283 295.451 66.0073 295.244 65.6364L293.284 66.7254ZM312.652 74.0054H310.41V76.2477H312.652V74.0054ZM312.652 47.0454V44.803H310.41V47.0454H312.652ZM332.572 70.6054L330.996 69.0105L330.987 69.0198L332.572 70.6054ZM320.292 52.9654V50.723H318.05V52.9654H320.292ZM320.292 68.0854H318.05V70.3277H320.292V68.0854ZM326.772 66.3654L324.973 65.0267L326.772 66.3654ZM326.772 54.6854L324.973 56.0241L324.981 56.0342L324.988 56.0443L326.772 54.6854ZM312.652 74.0054H314.894V47.0454H312.652H310.41V74.0054H312.652ZM312.652 47.0454V49.2877H322.452V47.0454V44.803H312.652V47.0454ZM322.452 47.0454V49.2877C326.628 49.2877 329.348 50.3273 331.039 52.0133C332.729 53.698 333.77 56.406 333.77 60.5654H336.012H338.254C338.254 55.7114 337.036 51.6594 334.205 48.8375C331.376 46.0167 327.316 44.803 322.452 44.803V47.0454ZM336.012 60.5654H333.77C333.77 64.6216 332.724 67.3026 330.996 69.0105L332.572 70.6054L334.148 72.2002C337.007 69.3748 338.254 65.3625 338.254 60.5654H336.012ZM332.572 70.6054L330.987 69.0198C329.284 70.7221 326.578 71.763 322.452 71.763V74.0054V76.2477C327.287 76.2477 331.327 75.022 334.158 72.1909L332.572 70.6054ZM322.452 74.0054V71.763H312.652V74.0054V76.2477H322.452V74.0054ZM322.372 52.9654V50.723H320.292V52.9654V55.2077H322.372V52.9654ZM320.292 52.9654H318.05V68.0854H320.292H322.534V52.9654H320.292ZM320.292 68.0854V70.3277H322.372V68.0854V65.843H320.292V68.0854ZM322.372 68.0854V70.3277C324.822 70.3277 327.126 69.6452 328.571 67.7041L326.772 66.3654L324.973 65.0267C324.711 65.3789 324.082 65.843 322.372 65.843V68.0854ZM326.772 66.3654L328.571 67.7041C329.877 65.9492 330.294 63.3755 330.294 60.5254H328.052H325.81C325.81 63.1685 325.374 64.4882 324.973 65.0267L326.772 66.3654ZM328.052 60.5254H330.294C330.294 57.663 329.882 55.0672 328.556 53.3264L326.772 54.6854L324.988 56.0443C325.369 56.5436 325.81 57.8411 325.81 60.5254H328.052ZM326.772 54.6854L328.571 53.3467C327.126 51.4055 324.822 50.723 322.372 50.723V52.9654V55.2077C324.082 55.2077 324.711 55.6719 324.973 56.0241L326.772 54.6854ZM336.559 74.0054L334.4 73.397L333.597 76.2477H336.559V74.0054ZM344.159 47.0454V44.803H342.461L342 46.437L344.159 47.0454ZM354.319 47.0454L356.472 46.4192L356.002 44.803H354.319V47.0454ZM362.159 74.0054V76.2477H365.146L364.312 73.3792L362.159 74.0054ZM354.599 74.0054L352.423 74.5492L352.848 76.2477H354.599V74.0054ZM353.359 69.0454L355.534 68.5015L355.109 66.803H353.359V69.0454ZM345.119 69.0454V66.803H343.368L342.943 68.5015L345.119 69.0454ZM343.879 74.0054V76.2477H345.629L346.054 74.5492L343.879 74.0054ZM346.399 63.8054L344.223 63.2615L343.527 66.0477H346.399V63.8054ZM352.039 63.8054V66.0477H354.901L354.216 63.2687L352.039 63.8054ZM349.239 52.4454L351.416 51.9087L347.063 51.9015L349.239 52.4454ZM336.559 74.0054L338.717 74.6138L346.317 47.6538L344.159 47.0454L342 46.437L334.4 73.397L336.559 74.0054ZM344.159 47.0454V49.2877H354.319V47.0454V44.803H344.159V47.0454ZM354.319 47.0454L352.166 47.6715L360.006 74.6315L362.159 74.0054L364.312 73.3792L356.472 46.4192L354.319 47.0454ZM362.159 74.0054V71.763H354.599V74.0054V76.2477H362.159V74.0054ZM354.599 74.0054L356.774 73.4615L355.534 68.5015L353.359 69.0454L351.183 69.5892L352.423 74.5492L354.599 74.0054ZM353.359 69.0454V66.803H345.119V69.0454V71.2877H353.359V69.0454ZM345.119 69.0454L342.943 68.5015L341.703 73.4615L343.879 74.0054L346.054 74.5492L347.294 69.5892L345.119 69.0454ZM343.879 74.0054V71.763H336.559V74.0054V76.2477H343.879V74.0054ZM346.399 63.8054V66.0477H352.039V63.8054V61.563H346.399V63.8054ZM352.039 63.8054L354.216 63.2687L351.416 51.9087L349.239 52.4454L347.061 52.982L349.861 64.342L352.039 63.8054ZM349.239 52.4454L347.063 51.9015L344.223 63.2615L346.399 63.8054L348.574 64.3492L351.414 52.9892L349.239 52.4454ZM368.262 74.0054H366.02V76.2477H368.262V74.0054ZM368.262 65.2054H370.504V64.6928L370.282 64.2311L368.262 65.2054ZM359.502 47.0454V44.803H355.931L357.482 48.0196L359.502 47.0454ZM367.222 47.0454L369.253 46.0946L368.648 44.803H367.222V47.0454ZM372.222 57.7254L370.191 58.6761L372.214 62.9967L374.25 58.6824L372.222 57.7254ZM377.262 47.0454V44.803H375.841L375.234 46.0884L377.262 47.0454ZM384.502 47.0454L386.513 48.037L388.108 44.803H384.502V47.0454ZM375.942 64.4054L373.931 63.4137L373.7 63.8826V64.4054H375.942ZM375.942 74.0054V76.2477H378.184V74.0054H375.942ZM368.262 74.0054H370.504V65.2054H368.262H366.02V74.0054H368.262ZM368.262 65.2054L370.282 64.2311L361.522 46.0711L359.502 47.0454L357.482 48.0196L366.242 66.1796L368.262 65.2054ZM359.502 47.0454V49.2877H367.222V47.0454V44.803H359.502V47.0454ZM367.222 47.0454L365.191 47.9961L370.191 58.6761L372.222 57.7254L374.253 56.7746L369.253 46.0946L367.222 47.0454ZM372.222 57.7254L374.25 58.6824L379.29 48.0023L377.262 47.0454L375.234 46.0884L370.194 56.7684L372.222 57.7254ZM377.262 47.0454V49.2877H384.502V47.0454V44.803H377.262V47.0454ZM384.502 47.0454L382.491 46.0537L373.931 63.4137L375.942 64.4054L377.953 65.397L386.513 48.037L384.502 47.0454ZM375.942 64.4054H373.7V74.0054H375.942H378.184V64.4054H375.942ZM375.942 74.0054V71.763H368.262V74.0054V76.2477H375.942V74.0054ZM386.999 59.0054L384.76 59.1382L384.885 61.2477H386.999V59.0054ZM386.199 45.5254V43.283H383.819L383.96 45.6582L386.199 45.5254ZM393.599 45.5254L395.837 45.6582L395.978 43.283H393.599V45.5254ZM392.799 59.0054V61.2477H394.912L395.037 59.1382L392.799 59.0054ZM386.999 59.0054L389.237 58.8725L388.437 45.3925L386.199 45.5254L383.96 45.6582L384.76 59.1382L386.999 59.0054ZM386.199 45.5254V47.7677H393.599V45.5254V43.283H386.199V45.5254ZM393.599 45.5254L391.36 45.3925L390.56 58.8725L392.799 59.0054L395.037 59.1382L395.837 45.6582L393.599 45.5254ZM392.799 59.0054V56.763H386.999V59.0054V61.2477H392.799V59.0054ZM395.948 73.0454L393.768 72.5226L393.314 74.4175L395.126 75.1317L395.948 73.0454ZM397.348 67.2054L398.153 65.1125L395.764 64.1937L395.168 66.6826L397.348 67.2054ZM400.668 68.1654L400.219 70.3622L400.247 70.368L400.276 70.3731L400.668 68.1654ZM407.348 67.8854L406.228 65.9431L406.211 65.9527L406.195 65.9626L407.348 67.8854ZM406.548 63.9254L406.104 66.1232L406.111 66.1246L406.118 66.126L406.548 63.9254ZM402.988 63.2054L402.538 65.4021L402.544 65.4032L402.988 63.2054ZM399.068 48.8054L400.524 50.5114L400.531 50.5053L400.538 50.4991L399.068 48.8054ZM415.028 47.8854L417.203 48.4328L417.687 46.51L415.838 45.7942L415.028 47.8854ZM413.588 53.6054L412.771 55.6935L415.141 56.621L415.763 54.1528L413.588 53.6054ZM405.548 56.8854L405.983 54.6855L405.973 54.6836L405.964 54.6819L405.548 56.8854ZM408.588 57.4854L409.042 55.2894L409.032 55.2874L409.023 55.2855L408.588 57.4854ZM413.988 60.2054L412.303 61.6844L412.311 61.694L412.32 61.7035L413.988 60.2054ZM413.028 72.4054L414.439 74.1488L414.446 74.1426L414.454 74.1363L413.028 72.4054ZM404.668 74.6054V72.363C401.743 72.363 399.119 71.8845 396.77 70.9591L395.948 73.0454L395.126 75.1317C398.057 76.2863 401.247 76.8477 404.668 76.8477V74.6054ZM395.948 73.0454L398.129 73.5681L399.529 67.7281L397.348 67.2054L395.168 66.6826L393.768 72.5226L395.948 73.0454ZM397.348 67.2054L396.543 69.2983C397.707 69.7458 398.933 70.0993 400.219 70.3622L400.668 68.1654L401.118 65.9685C400.057 65.7515 399.07 65.4649 398.153 65.1125L397.348 67.2054ZM400.668 68.1654L400.276 70.3731C401.584 70.6057 402.837 70.7277 404.028 70.7277V68.4854V66.243C403.14 66.243 402.153 66.1518 401.061 65.9576L400.668 68.1654ZM404.028 68.4854V70.7277C405.651 70.7277 407.284 70.5389 408.502 69.8082L407.348 67.8854L406.195 65.9626C406.079 66.0318 405.499 66.243 404.028 66.243V68.4854ZM407.348 67.8854L408.469 69.8277C409.96 68.9672 410.631 67.5056 410.631 65.9254H408.388H406.146C406.146 66.0099 406.138 66.0558 406.134 66.0714C406.131 66.0854 406.133 66.0727 406.148 66.0443C406.155 66.0308 406.164 66.0161 406.175 66.0011C406.186 65.9862 406.197 65.9732 406.208 65.9624C406.23 65.9399 406.241 65.9354 406.228 65.9431L407.348 67.8854ZM408.388 65.9254H410.631C410.631 64.9391 410.342 63.9167 409.579 63.0872C408.846 62.2909 407.887 61.9024 406.979 61.7247L406.548 63.9254L406.118 66.126C406.271 66.1559 406.344 66.1876 406.362 66.1968C406.377 66.2038 406.335 66.1857 406.278 66.1236C406.251 66.0936 406.225 66.0591 406.202 66.0217C406.18 65.9844 406.165 65.9504 406.156 65.9233C406.137 65.8689 406.146 65.8607 406.146 65.9254H408.388ZM406.548 63.9254L406.993 61.7275L403.433 61.0075L402.988 63.2054L402.544 65.4032L406.104 66.1232L406.548 63.9254ZM402.988 63.2054L403.438 61.0086C401.569 60.6257 400.423 59.9295 399.73 59.099C399.043 58.2754 398.591 57.0672 398.591 55.2454H396.348H394.106C394.106 57.8236 394.76 60.142 396.286 61.9717C397.807 63.7946 399.982 64.8784 402.538 65.4021L402.988 63.2054ZM396.348 55.2454H398.591C398.591 53.0439 399.289 51.5647 400.524 50.5114L399.068 48.8054L397.613 47.0993C395.221 49.1393 394.106 51.9536 394.106 55.2454H396.348ZM399.068 48.8054L400.538 50.4991C401.827 49.3802 403.739 48.6877 406.548 48.6877V46.4454V44.203C403.011 44.203 399.936 45.0839 397.599 47.1117L399.068 48.8054ZM406.548 46.4454V48.6877C409.497 48.6877 412.042 49.1337 414.219 49.9765L415.028 47.8854L415.838 45.7942C413.055 44.717 409.946 44.203 406.548 44.203V46.4454ZM415.028 47.8854L412.854 47.3379L411.414 53.0579L413.588 53.6054L415.763 54.1528L417.203 48.4328L415.028 47.8854ZM413.588 53.6054L414.405 51.5172C412.248 50.673 409.799 50.283 407.108 50.283V52.5254V54.7677C409.377 54.7677 411.249 55.0978 412.771 55.6935L413.588 53.6054ZM407.108 52.5254V50.283C405.723 50.283 404.305 50.4845 403.167 51.1892C401.853 52.0038 401.186 53.3192 401.186 54.8054H403.428H405.671C405.671 54.7315 405.684 54.7761 405.633 54.8703C405.58 54.9696 405.517 55.0089 405.529 55.0015C405.556 54.9848 405.676 54.9209 405.952 54.8639C406.225 54.8074 406.604 54.7677 407.108 54.7677V52.5254ZM403.428 54.8054H401.186C401.186 55.8811 401.547 56.9407 402.388 57.766C403.171 58.5346 404.178 58.9086 405.133 59.0888L405.548 56.8854L405.964 54.6819C405.747 54.6409 405.615 54.5941 405.546 54.5627C405.479 54.5325 405.488 54.5249 405.529 54.5648C405.575 54.6099 405.621 54.6767 405.65 54.7512C405.677 54.8201 405.671 54.8484 405.671 54.8054H403.428ZM405.548 56.8854L405.114 59.0853L408.154 59.6853L408.588 57.4854L409.023 55.2855L405.983 54.6855L405.548 56.8854ZM408.588 57.4854L408.135 59.6814C410.314 60.1314 411.592 60.8747 412.303 61.6844L413.988 60.2054L415.674 58.7263C414.091 56.9227 411.769 55.8527 409.042 55.2894L408.588 57.4854ZM413.988 60.2054L412.32 61.7035C413.022 62.4858 413.506 63.6919 413.506 65.6054H415.748H417.991C417.991 62.9322 417.301 60.5383 415.657 58.7072L413.988 60.2054ZM415.748 65.6054H413.506C413.506 68.1878 412.755 69.7259 411.603 70.6744L413.028 72.4054L414.454 74.1363C416.929 72.0982 417.991 69.103 417.991 65.6054H415.748ZM413.028 72.4054L411.618 70.6619C410.384 71.6603 408.208 72.363 404.668 72.363V74.6054V76.8477C408.649 76.8477 412.046 76.0838 414.439 74.1488L413.028 72.4054ZM424.499 73.3654L422.328 72.8032L421.859 74.6147L423.557 75.4004L424.499 73.3654ZM425.939 67.8054L426.772 65.7234L424.407 64.7774L423.768 67.2432L425.939 67.8054ZM427.739 68.3654L427.299 70.5642V70.5642L427.739 68.3654ZM431.899 67.6854L433.523 69.2318L433.541 69.213L433.558 69.1937L431.899 67.6854ZM432.699 53.2054H434.941V50.963H432.699V53.2054ZM426.059 53.2054H423.817V55.4477H426.059V53.2054ZM426.059 47.0454V44.803H423.817V47.0454H426.059ZM440.379 47.0454H442.621V44.803H440.379V47.0454ZM438.019 72.4054L439.548 74.0456L439.555 74.0387L439.563 74.0318L438.019 72.4054ZM430.659 74.6054V72.363C428.607 72.363 426.884 71.9982 425.441 71.3303L424.499 73.3654L423.557 75.4004C425.687 76.3859 428.071 76.8477 430.659 76.8477V74.6054ZM424.499 73.3654L426.67 73.9276L428.11 68.3676L425.939 67.8054L423.768 67.2432L422.328 72.8032L424.499 73.3654ZM425.939 67.8054L425.106 69.8873C425.862 70.1898 426.597 70.4237 427.299 70.5642L427.739 68.3654L428.179 66.1666C427.814 66.0937 427.349 65.9543 426.772 65.7234L425.939 67.8054ZM427.739 68.3654L427.299 70.5642C427.95 70.6943 428.592 70.7677 429.219 70.7677V68.5254V66.283C428.939 66.283 428.595 66.2498 428.179 66.1666L427.739 68.3654ZM429.219 68.5254V70.7677C430.719 70.7677 432.366 70.446 433.523 69.2318L431.899 67.6854L430.275 66.1389C430.321 66.0911 430.318 66.1256 430.158 66.1757C429.988 66.229 429.69 66.283 429.219 66.283V68.5254ZM431.899 67.6854L433.558 69.1937C434.645 67.9982 434.941 66.3711 434.941 64.8454H432.699H430.457C430.457 65.3561 430.403 65.7045 430.341 65.9274C430.279 66.1448 430.223 66.1955 430.24 66.177L431.899 67.6854ZM432.699 64.8454H434.941V53.2054H432.699H430.457V64.8454H432.699ZM432.699 53.2054V50.963H426.059V53.2054V55.4477H432.699V53.2054ZM426.059 53.2054H428.301V47.0454H426.059H423.817V53.2054H426.059ZM426.059 47.0454V49.2877H440.379V47.0454V44.803H426.059V47.0454ZM440.379 47.0454H438.137V65.5654H440.379H442.621V47.0454H440.379ZM440.379 65.5654H438.137C438.137 68.2764 437.444 69.8595 436.475 70.779L438.019 72.4054L439.563 74.0318C441.741 71.9646 442.621 68.9876 442.621 65.5654H440.379ZM438.019 72.4054L436.49 70.7652C435.509 71.6794 433.726 72.363 430.659 72.363V74.6054V76.8477C434.259 76.8477 437.382 76.0646 439.548 74.0456L438.019 72.4054ZM446.826 71.0054L445.14 72.4846L446.826 71.0054ZM446.826 50.0454L445.14 48.5661V48.5661L446.826 50.0454ZM465.226 50.0454L466.911 48.5661V48.5661L465.226 50.0454ZM459.386 66.7254L461.346 67.8144L461.351 67.8053L461.356 67.7961L459.386 66.7254ZM459.386 54.3654L457.415 55.4361L457.42 55.4453L457.425 55.4543L459.386 54.3654ZM452.666 54.3654L454.626 55.4543L454.631 55.4453L454.636 55.4361L452.666 54.3654ZM452.666 66.7254L450.695 67.7961L450.7 67.8053L450.705 67.8144L452.666 66.7254ZM456.026 74.6054V72.363C452.463 72.363 450.085 71.3198 448.511 69.5261L446.826 71.0054L445.14 72.4846C447.779 75.4909 451.535 76.8477 456.026 76.8477V74.6054ZM446.826 71.0054L448.511 69.5261C446.892 67.6824 445.908 64.8019 445.908 60.5254H443.666H441.423C441.423 65.4222 442.545 69.5284 445.14 72.4846L446.826 71.0054ZM443.666 60.5254H445.908C445.908 56.2488 446.892 53.3684 448.511 51.5246L446.826 50.0454L445.14 48.5661C442.545 51.5224 441.423 55.6286 441.423 60.5254H443.666ZM446.826 50.0454L448.511 51.5246C450.085 49.7309 452.463 48.6877 456.026 48.6877V46.4454V44.203C451.535 44.203 447.779 45.5598 445.14 48.5661L446.826 50.0454ZM456.026 46.4454V48.6877C459.588 48.6877 461.966 49.7309 463.54 51.5246L465.226 50.0454L466.911 48.5661C464.272 45.5598 460.516 44.203 456.026 44.203V46.4454ZM465.226 50.0454L463.54 51.5246C465.159 53.3684 466.143 56.2488 466.143 60.5254H468.386H470.628C470.628 55.6286 469.506 51.5224 466.911 48.5661L465.226 50.0454ZM468.386 60.5254H466.143C466.143 64.8019 465.159 67.6824 463.54 69.5261L465.226 71.0054L466.911 72.4846C469.506 69.5284 470.628 65.4222 470.628 60.5254H468.386ZM465.226 71.0054L463.54 69.5261C461.966 71.3198 459.588 72.363 456.026 72.363V74.6054V76.8477C460.516 76.8477 464.272 75.4909 466.911 72.4846L465.226 71.0054ZM456.026 68.5254V70.7677C458.27 70.7677 460.218 69.8435 461.346 67.8144L459.386 66.7254L457.425 65.6364C457.219 66.0073 456.928 66.283 456.026 66.283V68.5254ZM459.386 66.7254L461.356 67.7961C462.309 66.0421 462.628 63.4838 462.628 60.5254H460.386H458.143C458.143 63.3802 457.795 64.9553 457.415 65.6546L459.386 66.7254ZM460.386 60.5254H462.628C462.628 57.5743 462.311 55.0145 461.346 53.2764L459.386 54.3654L457.425 55.4543C457.793 56.1162 458.143 57.6631 458.143 60.5254H460.386ZM459.386 54.3654L461.356 53.2946C460.24 51.2407 458.294 50.283 456.026 50.283V52.5254V54.7677C456.904 54.7677 457.198 55.0367 457.415 55.4361L459.386 54.3654ZM456.026 52.5254V50.283C453.757 50.283 451.812 51.2407 450.695 53.2946L452.666 54.3654L454.636 55.4361C454.853 55.0367 455.147 54.7677 456.026 54.7677V52.5254ZM452.666 54.3654L450.705 53.2764C449.74 55.0145 449.423 57.5743 449.423 60.5254H451.666H453.908C453.908 57.6631 454.258 56.1162 454.626 55.4543L452.666 54.3654ZM451.666 60.5254H449.423C449.423 63.4838 449.742 66.0421 450.695 67.7961L452.666 66.7254L454.636 65.6546C454.256 64.9553 453.908 63.3802 453.908 60.5254H451.666ZM452.666 66.7254L450.705 67.8144C451.833 69.8435 453.781 70.7677 456.026 70.7677V68.5254V66.283C455.123 66.283 454.832 66.0073 454.626 65.6364L452.666 66.7254ZM474.313 71.8854L472.693 73.4353L472.704 73.4473L472.716 73.4592L474.313 71.8854ZM471.673 47.0454V44.803H469.431V47.0454H471.673ZM479.393 47.0454H481.636V44.803H479.393V47.0454ZM486.513 47.0454V44.803H484.271V47.0454H486.513ZM494.233 47.0454H496.476V44.803H494.233V47.0454ZM491.553 71.8854L489.945 70.3233L489.944 70.3236L491.553 71.8854ZM482.953 74.6054V72.363C479.252 72.363 477.091 71.5095 475.911 70.3116L474.313 71.8854L472.716 73.4592C475.109 75.8879 478.708 76.8477 482.953 76.8477V74.6054ZM474.313 71.8854L475.934 70.3354C474.759 69.1075 473.916 66.8232 473.916 62.9254H471.673H469.431C469.431 67.2942 470.348 70.9833 472.693 73.4353L474.313 71.8854ZM471.673 62.9254H473.916V47.0454H471.673H469.431V62.9254H471.673ZM471.673 47.0454V49.2877H479.393V47.0454V44.803H471.673V47.0454ZM479.393 47.0454H477.151V64.5654H479.393H481.636V47.0454H479.393ZM479.393 64.5654H477.151C477.151 66.1563 477.521 67.7668 478.658 68.979C479.819 70.2184 481.409 70.6477 482.993 70.6477V68.4054V66.163C482.177 66.163 481.967 65.9523 481.929 65.9117C481.866 65.8439 481.636 65.5345 481.636 64.5654H479.393ZM482.993 68.4054V70.6477C484.565 70.6477 486.141 70.2101 487.286 68.9606C488.398 67.748 488.756 66.145 488.756 64.5654H486.513H484.271C484.271 65.5457 484.042 65.8627 483.98 65.9302C483.952 65.9607 483.768 66.163 482.993 66.163V68.4054ZM486.513 64.5654H488.756V47.0454H486.513H484.271V64.5654H486.513ZM486.513 47.0454V49.2877H494.233V47.0454V44.803H486.513V47.0454ZM494.233 47.0454H491.991V62.9254H494.233H496.476V47.0454H494.233ZM494.233 62.9254H491.991C491.991 66.8162 491.137 69.0951 489.945 70.3233L491.553 71.8854L493.162 73.4475C495.543 70.9957 496.476 67.3012 496.476 62.9254H494.233ZM491.553 71.8854L489.944 70.3236C488.795 71.5078 486.658 72.363 482.953 72.363V74.6054V76.8477C487.195 76.8477 490.792 75.8896 493.162 73.4471L491.553 71.8854ZM498.655 74.0054H496.413V76.2477H498.655V74.0054ZM498.655 47.0454V44.803H496.413V47.0454H498.655ZM517.015 49.3254L515.55 51.0224L515.556 51.0279L515.562 51.0333L517.015 49.3254ZM518.415 60.6854L520.281 61.9292L520.287 61.9204L520.293 61.9115L518.415 60.6854ZM514.855 63.4054L514.113 61.2895L511.48 62.2132L512.948 64.5854L514.855 63.4054ZM521.415 74.0054V76.2477H525.44L523.322 72.8253L521.415 74.0054ZM513.415 74.0054L511.474 75.1276L512.121 76.2477H513.415V74.0054ZM507.935 64.5254L509.877 63.4032L509.229 62.283H507.935V64.5254ZM505.935 64.5254V62.283H503.693V64.5254H505.935ZM505.935 74.0054V76.2477H508.178V74.0054H505.935ZM505.935 52.4854V50.243H503.693V52.4854H505.935ZM505.935 59.3654H503.693V61.6077H505.935V59.3654ZM498.655 74.0054H500.898V47.0454H498.655H496.413V74.0054H498.655ZM498.655 47.0454V49.2877H509.255V47.0454V44.803H498.655V47.0454ZM509.255 47.0454V49.2877C512.376 49.2877 514.351 49.987 515.55 51.0224L517.015 49.3254L518.481 47.6283C516.16 45.6238 512.961 44.803 509.255 44.803V47.0454ZM517.015 49.3254L515.562 51.0333C516.736 52.0316 517.453 53.5395 517.453 55.9254H519.695H521.938C521.938 52.5513 520.868 49.6591 518.468 47.6175L517.015 49.3254ZM519.695 55.9254H517.453C517.453 57.4431 517.11 58.5835 516.538 59.4593L518.415 60.6854L520.293 61.9115C521.427 60.1739 521.938 58.1409 521.938 55.9254H519.695ZM518.415 60.6854L516.549 59.4415C515.979 60.2967 515.197 60.9091 514.113 61.2895L514.855 63.4054L515.598 65.5212C517.554 64.8349 519.144 63.634 520.281 61.9292L518.415 60.6854ZM514.855 63.4054L512.948 64.5854L519.508 75.1854L521.415 74.0054L523.322 72.8253L516.762 62.2253L514.855 63.4054ZM521.415 74.0054V71.763H513.415V74.0054V76.2477H521.415V74.0054ZM513.415 74.0054L515.357 72.8832L509.877 63.4032L507.935 64.5254L505.994 65.6476L511.474 75.1276L513.415 74.0054ZM507.935 64.5254V62.283H505.935V64.5254V66.7677H507.935V64.5254ZM505.935 64.5254H503.693V74.0054H505.935H508.178V64.5254H505.935ZM505.935 74.0054V71.763H498.655V74.0054V76.2477H505.935V74.0054ZM508.575 52.4854V50.243H505.935V52.4854V54.7277H508.575V52.4854ZM505.935 52.4854H503.693V59.3654H505.935H508.178V52.4854H505.935ZM505.935 59.3654V61.6077H508.575V59.3654V57.123H505.935V59.3654ZM508.575 59.3654V61.6077C510.089 61.6077 511.639 61.243 512.803 60.1179C513.982 58.9789 514.378 57.4376 514.378 55.9254H512.135H509.893C509.893 56.7065 509.695 56.8851 509.687 56.8928C509.665 56.9144 509.435 57.123 508.575 57.123V59.3654ZM512.135 55.9254H514.378C514.378 54.4131 513.982 52.8718 512.803 51.7328C511.639 50.6077 510.089 50.243 508.575 50.243V52.4854V54.7277C509.435 54.7277 509.665 54.9364 509.687 54.9579C509.695 54.9656 509.893 55.1443 509.893 55.9254H512.135ZM524.066 74.0054H521.824V76.2477H524.066V74.0054ZM524.066 47.0454V44.803H521.824V47.0454H524.066ZM532.066 47.0454L534.06 46.0199L533.435 44.803H532.066V47.0454ZM540.746 63.9254L538.752 64.9508L542.989 63.9254H540.746ZM540.746 47.0454V44.803H538.504V47.0454H540.746ZM547.426 47.0454H549.669V44.803H547.426V47.0454ZM547.426 74.0054V76.2477H549.669V74.0054H547.426ZM539.426 74.0054L537.432 75.0308L538.058 76.2477H539.426V74.0054ZM530.746 57.1254L532.74 56.0999L528.504 57.1254H530.746ZM530.746 74.0054V76.2477H532.989V74.0054H530.746ZM524.066 74.0054H526.309V47.0454H524.066H521.824V74.0054H524.066ZM524.066 47.0454V49.2877H532.066V47.0454V44.803H524.066V47.0454ZM532.066 47.0454L530.072 48.0708L538.752 64.9508L540.746 63.9254L542.74 62.8999L534.06 46.0199L532.066 47.0454ZM540.746 63.9254H542.989V47.0454H540.746H538.504V63.9254H540.746ZM540.746 47.0454V49.2877H547.426V47.0454V44.803H540.746V47.0454ZM547.426 47.0454H545.184V74.0054H547.426H549.669V47.0454H547.426ZM547.426 74.0054V71.763H539.426V74.0054V76.2477H547.426V74.0054ZM539.426 74.0054L541.42 72.9799L532.74 56.0999L530.746 57.1254L528.752 58.1508L537.432 75.0308L539.426 74.0054ZM530.746 57.1254H528.504V74.0054H530.746H532.989V57.1254H530.746ZM530.746 74.0054V71.763H524.066V74.0054V76.2477H530.746V74.0054ZM549.691 74.0054L547.533 73.397L546.73 76.2477H549.691V74.0054ZM557.292 47.0454V44.803H555.594L555.133 46.437L557.292 47.0454ZM567.452 47.0454L569.605 46.4192L569.135 44.803H567.452V47.0454ZM575.292 74.0054V76.2477H578.279L577.445 73.3792L575.292 74.0054ZM567.732 74.0054L565.556 74.5492L565.981 76.2477H567.732V74.0054ZM566.491 69.0454L568.667 68.5015L568.242 66.803H566.491V69.0454ZM558.251 69.0454V66.803H556.501L556.076 68.5015L558.251 69.0454ZM557.012 74.0054V76.2477H558.762L559.187 74.5492L557.012 74.0054ZM559.531 63.8054L557.356 63.2615L556.66 66.0477H559.531V63.8054ZM565.172 63.8054V66.0477H568.034L567.349 63.2687L565.172 63.8054ZM562.371 52.4454L564.549 51.9087L560.196 51.9015L562.371 52.4454ZM549.691 74.0054L551.85 74.6138L559.45 47.6538L557.292 47.0454L555.133 46.437L547.533 73.397L549.691 74.0054ZM557.292 47.0454V49.2877H567.452V47.0454V44.803H557.292V47.0454ZM567.452 47.0454L565.298 47.6715L573.138 74.6315L575.292 74.0054L577.445 73.3792L569.605 46.4192L567.452 47.0454ZM575.292 74.0054V71.763H567.732V74.0054V76.2477H575.292V74.0054ZM567.732 74.0054L569.907 73.4615L568.667 68.5015L566.491 69.0454L564.316 69.5892L565.556 74.5492L567.732 74.0054ZM566.491 69.0454V66.803H558.251V69.0454V71.2877H566.491V69.0454ZM558.251 69.0454L556.076 68.5015L554.836 73.4615L557.012 74.0054L559.187 74.5492L560.427 69.5892L558.251 69.0454ZM557.012 74.0054V71.763H549.691V74.0054V76.2477H557.012V74.0054ZM559.531 63.8054V66.0477H565.172V63.8054V61.563H559.531V63.8054ZM565.172 63.8054L567.349 63.2687L564.549 51.9087L562.371 52.4454L560.194 52.982L562.994 64.342L565.172 63.8054ZM562.371 52.4454L560.196 51.9015L557.356 63.2615L559.531 63.8054L561.707 64.3492L564.547 52.9892L562.371 52.4454ZM577.583 74.0054H575.341V76.2477H577.583V74.0054ZM577.583 47.0454V44.803H575.341V47.0454H577.583ZM585.263 47.0454H587.506V44.803H585.263V47.0454ZM585.263 67.8454H583.021V70.0877H585.263V67.8454ZM594.703 67.8454H596.946V65.603H594.703V67.8454ZM594.703 74.0054V76.2477H596.946V74.0054H594.703ZM577.583 74.0054H579.826V47.0454H577.583H575.341V74.0054H577.583ZM577.583 47.0454V49.2877H585.263V47.0454V44.803H577.583V47.0454ZM585.263 47.0454H583.021V67.8454H585.263H587.506V47.0454H585.263ZM585.263 67.8454V70.0877H594.703V67.8454V65.603H585.263V67.8454ZM594.703 67.8454H592.461V74.0054H594.703H596.946V67.8454H594.703ZM594.703 74.0054V71.763H577.583V74.0054V76.2477H594.703V74.0054Z" fill="#3B3B3B" mask="url(#path-5-outside-1_635_8432)"/>
</g>
<defs>
<filter id="filter0_d_635_8432" x="0.795593" y="0.792969" width="856.327" height="150.042" filterUnits="userSpaceOnUse" color-interpolation-filters="sRGB">
<feFlood flood-opacity="0" result="BackgroundImageFix"/>
<feColorMatrix in="SourceAlpha" type="matrix" values="0 0 0 0 0 0 0 0 0 0 0 0 0 0 0 0 0 0 127 0" result="hardAlpha"/>
<feOffset dy="8.82814"/>
<feComposite in2="hardAlpha" operator="out"/>
<feColorMatrix type="matrix" values="0 0 0 0 0 0 0 0 0 0 0 0 0 0 0 0 0 0 0.25 0"/>
<feBlend mode="normal" in2="BackgroundImageFix" result="effect1_dropShadow_635_8432"/>
<feBlend mode="normal" in="SourceGraphic" in2="effect1_dropShadow_635_8432" result="shape"/>
</filter>
<filter id="filter1_ddd_635_8432" x="254.601" y="41.6012" width="347.95" height="44.7764" filterUnits="userSpaceOnUse" color-interpolation-filters="sRGB">
<feFlood flood-opacity="0" result="BackgroundImageFix"/>
<feColorMatrix in="SourceAlpha" type="matrix" values="0 0 0 0 0 0 0 0 0 0 0 0 0 0 0 0 0 0 127 0" result="hardAlpha"/>
<feOffset dy="2.20703"/>
<feComposite in2="hardAlpha" operator="out"/>
<feColorMatrix type="matrix" values="0 0 0 0 0 0 0 0 0 0 0 0 0 0 0 0 0 0 1 0"/>
<feBlend mode="normal" in2="BackgroundImageFix" result="effect1_dropShadow_635_8432"/>
<feColorMatrix in="SourceAlpha" type="matrix" values="0 0 0 0 0 0 0 0 0 0 0 0 0 0 0 0 0 0 127 0" result="hardAlpha"/>
<feOffset dy="2.20703"/>
<feComposite in2="hardAlpha" operator="out"/>
<feColorMatrix type="matrix" values="0 0 0 0 0 0 0 0 0 0 0 0 0 0 0 0 0 0 1 0"/>
<feBlend mode="normal" in2="effect1_dropShadow_635_8432" result="effect2_dropShadow_635_8432"/>
<feColorMatrix in="SourceAlpha" type="matrix" values="0 0 0 0 0 0 0 0 0 0 0 0 0 0 0 0 0 0 127 0" result="hardAlpha"/>
<feOffset dy="3.92411"/>
<feGaussianBlur stdDeviation="2.80293"/>
<feComposite in2="hardAlpha" operator="out"/>
<feColorMatrix type="matrix" values="0 0 0 0 0 0 0 0 0 0 0 0 0 0 0 0 0 0 0.8 0"/>
<feBlend mode="normal" in2="effect2_dropShadow_635_8432" result="effect3_dropShadow_635_8432"/>
<feBlend mode="normal" in="SourceGraphic" in2="effect3_dropShadow_635_8432" result="shape"/>
</filter>
<linearGradient id="paint0_linear_635_8432" x1="3.02118" y1="59.7657" x2="854.895" y2="59.7656" gradientUnits="userSpaceOnUse">
<stop stop-color="#4B42A2"/>
<stop offset="0.475" stop-color="#8383FF"/>
<stop offset="1" stop-color="#4C43A3"/>
</linearGradient>
<radialGradient id="paint1_radial_635_8432" cx="0" cy="0" r="1" gradientUnits="userSpaceOnUse" gradientTransform="translate(428.958 82.9641) rotate(-90) scale(95.1863 2485.74)">
<stop offset="0.431628" stop-color="white" stop-opacity="0.26"/>
<stop offset="1" stop-color="white"/>
</radialGradient>
</defs>
</svg>
