<svg width="858" height="151" viewBox="0 0 858 151" fill="none" xmlns="http://www.w3.org/2000/svg">
<g filter="url(#filter0_d_604_2714)">
<path d="M3.01824 14.0328C3.01954 7.93918 7.95977 3 14.0534 3H843.88C849.975 3 854.915 7.94061 854.915 14.0352V87.3672C854.915 94.194 849.725 99.902 842.929 100.55L433.145 139.601C430.36 139.866 427.555 139.866 424.77 139.601L14.9885 100.55C8.19142 99.9021 3.00117 94.1925 3.00262 87.3646L3.01824 14.0328Z" fill="#342E72"/>
<path d="M843.88 1.89648C850.584 1.89648 856.019 7.33116 856.019 14.0352V87.3672C856.019 94.7628 850.396 100.947 843.034 101.648L433.25 140.699C430.395 140.971 427.52 140.971 424.665 140.699L14.8838 101.648C7.52027 100.947 1.89784 94.7611 1.89941 87.3643L1.91504 14.0322C1.91666 7.32939 7.35083 1.89648 14.0537 1.89648H843.88Z" stroke="black" stroke-width="2.20703"/>
</g>
<path d="M14.0925 4.10352H843.824C849.307 4.10358 853.753 8.54715 853.756 14.0303L853.787 81.0615C853.789 86.177 849.906 90.4582 844.814 90.9521L433.112 130.877C430.349 131.145 427.567 131.145 424.804 130.877L13.1022 90.9521C8.01062 90.4583 4.12718 86.177 4.12958 81.0615L4.16083 14.0303C4.16352 8.54711 8.60927 4.10353 14.0925 4.10352Z" fill="url(#paint0_linear_604_2714)"/>
<path d="M14.0925 4.10352H843.824C849.307 4.10358 853.753 8.54715 853.756 14.0303L853.787 81.0615C853.789 86.177 849.906 90.4582 844.814 90.9521L433.112 130.877C430.349 131.145 427.567 131.145 424.804 130.877L13.1022 90.9521C8.01062 90.4583 4.12718 86.177 4.12958 81.0615L4.16083 14.0303C4.16352 8.54711 8.60927 4.10353 14.0925 4.10352Z" stroke="#D2BFFF" stroke-width="2.20703" style="mix-blend-mode:hard-light"/>
<path style="mix-blend-mode:hard-light" d="M843.962 5.53699C848.836 5.53699 852.789 9.48648 852.791 14.3602L852.799 29.8143C769.919 39.547 611.174 46.1298 428.958 46.1298C246.742 46.1298 87.9961 39.5471 5.11646 29.8143L5.12427 14.3602C5.12693 9.48656 9.07874 5.53712 13.9524 5.53699H843.962Z" fill="url(#paint1_radial_604_2714)" fill-opacity="0.25"/>
<g filter="url(#filter1_ddd_604_2714)">
<mask id="path-5-outside-1_604_2714" maskUnits="userSpaceOnUse" x="164.906" y="44.0054" width="528" height="33" fill="black">
<rect fill="white" x="164.906" y="44.0054" width="528" height="33"/>
<path d="M180.584 74.6054C172.104 74.6054 167.864 69.9787 167.864 60.7254C167.864 56.0854 168.957 52.552 171.144 50.1254C173.357 47.672 176.557 46.4454 180.744 46.4454C181.971 46.4454 183.171 46.552 184.344 46.7654C185.544 46.9787 186.624 47.2854 187.584 47.6854L186.264 53.2854C185.411 53.0454 184.597 52.8587 183.824 52.7254C183.051 52.592 182.357 52.5254 181.744 52.5254C179.717 52.5254 178.224 53.2054 177.264 54.5654C176.331 55.8987 175.864 57.992 175.864 60.8454C175.864 63.5654 176.331 65.5254 177.264 66.7254C178.197 67.9254 179.717 68.5254 181.824 68.5254C182.544 68.5254 183.304 68.4587 184.104 68.3254C184.931 68.192 185.757 68.0054 186.584 67.7654L187.904 73.3254C187.051 73.7254 185.971 74.032 184.664 74.2454C183.384 74.4854 182.024 74.6054 180.584 74.6054ZM201.338 74.6054C197.311 74.6054 194.245 73.4054 192.138 71.0054C190.031 68.6054 188.978 65.112 188.978 60.5254C188.978 55.9387 190.031 52.4454 192.138 50.0454C194.245 47.6454 197.311 46.4454 201.338 46.4454C205.365 46.4454 208.431 47.6454 210.538 50.0454C212.645 52.4454 213.698 55.9387 213.698 60.5254C213.698 65.112 212.645 68.6054 210.538 71.0054C208.431 73.4054 205.365 74.6054 201.338 74.6054ZM201.338 68.5254C202.911 68.5254 204.031 67.9254 204.698 66.7254C205.365 65.4987 205.698 63.432 205.698 60.5254C205.698 57.6187 205.365 55.5654 204.698 54.3654C204.031 53.1387 202.911 52.5254 201.338 52.5254C199.765 52.5254 198.645 53.1387 197.978 54.3654C197.311 55.5654 196.978 57.6187 196.978 60.5254C196.978 63.432 197.311 65.4987 197.978 66.7254C198.645 67.9254 199.765 68.5254 201.338 68.5254ZM217.346 74.0054V47.0454H226.146L232.266 62.3654L238.426 47.0454H246.986V74.0054H240.346V56.6854L235.146 69.6854H229.226L224.026 56.9654V74.0054H217.346ZM251.78 74.0054V47.0454H262.62C269.58 47.0454 273.06 50.1654 273.06 56.4054C273.06 62.6454 269.58 65.7654 262.62 65.7654H259.18V74.0054H251.78ZM261.74 52.6054H259.18V60.2054H261.74C263.074 60.2054 264.047 59.8987 264.66 59.2854C265.274 58.672 265.58 57.712 265.58 56.4054C265.58 55.072 265.274 54.112 264.66 53.5254C264.047 52.912 263.074 52.6054 261.74 52.6054ZM276.215 74.0054V47.0454H283.895V67.8454H293.335V74.0054H276.215ZM296.977 74.0054V47.0454H315.057V52.8854H304.377V57.4454H313.017V63.2854H304.377V68.1654H315.217V74.0054H296.977ZM323.943 74.0054V53.1254H317.343V47.0454H338.223V53.1254H331.623V74.0054H323.943ZM341.119 74.0054V47.0454H359.199V52.8854H348.519V57.4454H357.159V63.2854H348.519V68.1654H359.359V74.0054H341.119ZM377.782 74.6054C374.609 74.6054 371.702 74.0854 369.062 73.0454L370.462 67.2054C371.502 67.6054 372.609 67.9254 373.782 68.1654C374.982 68.3787 376.102 68.4854 377.142 68.4854C378.689 68.4854 379.796 68.2854 380.462 67.8854C381.156 67.4854 381.502 66.832 381.502 65.9254C381.502 64.832 380.889 64.1654 379.662 63.9254L376.102 63.2054C371.676 62.2987 369.462 59.6454 369.462 55.2454C369.462 52.4987 370.369 50.352 372.182 48.8054C373.996 47.232 376.489 46.4454 379.662 46.4454C382.836 46.4454 385.662 46.9254 388.142 47.8854L386.702 53.6054C384.862 52.8854 382.702 52.5254 380.222 52.5254C377.769 52.5254 376.542 53.2854 376.542 54.8054C376.542 55.9254 377.249 56.6187 378.662 56.8854L381.702 57.4854C384.156 57.992 385.956 58.8987 387.102 60.2054C388.276 61.512 388.862 63.312 388.862 65.6054C388.862 68.6454 387.956 70.912 386.142 72.4054C384.329 73.872 381.542 74.6054 377.782 74.6054ZM392.196 74.0054V47.0454H399.876V74.0054H392.196ZM404.677 74.0054V47.0454H413.477L419.597 62.3654L425.757 47.0454H434.317V74.0054H427.677V56.6854L422.477 69.6854H416.557L411.357 56.9654V74.0054H404.677ZM439.111 74.0054V47.0454H449.951C456.911 47.0454 460.391 50.1654 460.391 56.4054C460.391 62.6454 456.911 65.7654 449.951 65.7654H446.511V74.0054H439.111ZM449.071 52.6054H446.511V60.2054H449.071C450.405 60.2054 451.378 59.8987 451.991 59.2854C452.605 58.672 452.911 57.712 452.911 56.4054C452.911 55.072 452.605 54.112 451.991 53.5254C451.378 52.912 450.405 52.6054 449.071 52.6054ZM463.546 74.0054V47.0454H471.226V67.8454H480.666V74.0054H463.546ZM484.308 74.0054V47.0454H502.388V52.8854H491.708V57.4454H500.348V63.2854H491.708V68.1654H502.548V74.0054H484.308ZM513.412 74.0054V47.0454H522.212L528.332 62.3654L534.492 47.0454H543.052V74.0054H536.412V56.6854L531.212 69.6854H525.292L520.092 56.9654V74.0054H513.412ZM547.846 74.0054V47.0454H555.526V74.0054H547.846ZM567.887 74.6054C564.714 74.6054 561.807 74.0854 559.167 73.0454L560.567 67.2054C561.607 67.6054 562.714 67.9254 563.887 68.1654C565.087 68.3787 566.207 68.4854 567.247 68.4854C568.794 68.4854 569.9 68.2854 570.567 67.8854C571.26 67.4854 571.607 66.832 571.607 65.9254C571.607 64.832 570.994 64.1654 569.767 63.9254L566.207 63.2054C561.78 62.2987 559.567 59.6454 559.567 55.2454C559.567 52.4987 560.474 50.352 562.287 48.8054C564.1 47.232 566.594 46.4454 569.767 46.4454C572.94 46.4454 575.767 46.9254 578.247 47.8854L576.807 53.6054C574.967 52.8854 572.807 52.5254 570.327 52.5254C567.874 52.5254 566.647 53.2854 566.647 54.8054C566.647 55.9254 567.354 56.6187 568.767 56.8854L571.807 57.4854C574.26 57.992 576.06 58.8987 577.207 60.2054C578.38 61.512 578.967 63.312 578.967 65.6054C578.967 68.6454 578.06 70.912 576.247 72.4054C574.434 73.872 571.647 74.6054 567.887 74.6054ZM589.47 74.6054C586.297 74.6054 583.39 74.0854 580.75 73.0454L582.15 67.2054C583.19 67.6054 584.297 67.9254 585.47 68.1654C586.67 68.3787 587.79 68.4854 588.83 68.4854C590.377 68.4854 591.483 68.2854 592.15 67.8854C592.843 67.4854 593.19 66.832 593.19 65.9254C593.19 64.832 592.577 64.1654 591.35 63.9254L587.79 63.2054C583.363 62.2987 581.15 59.6454 581.15 55.2454C581.15 52.4987 582.057 50.352 583.87 48.8054C585.683 47.232 588.177 46.4454 591.35 46.4454C594.523 46.4454 597.35 46.9254 599.83 47.8854L598.39 53.6054C596.55 52.8854 594.39 52.5254 591.91 52.5254C589.457 52.5254 588.23 53.2854 588.23 54.8054C588.23 55.9254 588.937 56.6187 590.35 56.8854L593.39 57.4854C595.843 57.992 597.643 58.8987 598.79 60.2054C599.963 61.512 600.55 63.312 600.55 65.6054C600.55 68.6454 599.643 70.912 597.83 72.4054C596.017 73.872 593.23 74.6054 589.47 74.6054ZM603.883 74.0054V47.0454H611.563V74.0054H603.883ZM627.565 74.6054C623.538 74.6054 620.471 73.4054 618.365 71.0054C616.258 68.6054 615.205 65.112 615.205 60.5254C615.205 55.9387 616.258 52.4454 618.365 50.0454C620.471 47.6454 623.538 46.4454 627.565 46.4454C631.591 46.4454 634.658 47.6454 636.765 50.0454C638.871 52.4454 639.925 55.9387 639.925 60.5254C639.925 65.112 638.871 68.6054 636.765 71.0054C634.658 73.4054 631.591 74.6054 627.565 74.6054ZM627.565 68.5254C629.138 68.5254 630.258 67.9254 630.925 66.7254C631.591 65.4987 631.925 63.432 631.925 60.5254C631.925 57.6187 631.591 55.5654 630.925 54.3654C630.258 53.1387 629.138 52.5254 627.565 52.5254C625.991 52.5254 624.871 53.1387 624.205 54.3654C623.538 55.5654 623.205 57.6187 623.205 60.5254C623.205 63.432 623.538 65.4987 624.205 66.7254C624.871 67.9254 625.991 68.5254 627.565 68.5254ZM643.572 74.0054V47.0454H651.572L660.252 63.9254V47.0454H666.932V74.0054H658.932L650.252 57.1254V74.0054H643.572ZM679.278 74.6054C676.104 74.6054 673.198 74.0854 670.558 73.0454L671.958 67.2054C672.998 67.6054 674.104 67.9254 675.278 68.1654C676.478 68.3787 677.598 68.4854 678.638 68.4854C680.184 68.4854 681.291 68.2854 681.958 67.8854C682.651 67.4854 682.998 66.832 682.998 65.9254C682.998 64.832 682.384 64.1654 681.158 63.9254L677.598 63.2054C673.171 62.2987 670.958 59.6454 670.958 55.2454C670.958 52.4987 671.864 50.352 673.678 48.8054C675.491 47.232 677.984 46.4454 681.158 46.4454C684.331 46.4454 687.158 46.9254 689.638 47.8854L688.198 53.6054C686.358 52.8854 684.198 52.5254 681.718 52.5254C679.264 52.5254 678.038 53.2854 678.038 54.8054C678.038 55.9254 678.744 56.6187 680.158 56.8854L683.198 57.4854C685.651 57.992 687.451 58.8987 688.598 60.2054C689.771 61.512 690.358 63.312 690.358 65.6054C690.358 68.6454 689.451 70.912 687.638 72.4054C685.824 73.872 683.038 74.6054 679.278 74.6054Z"/>
</mask>
<path d="M180.584 74.6054C172.104 74.6054 167.864 69.9787 167.864 60.7254C167.864 56.0854 168.957 52.552 171.144 50.1254C173.357 47.672 176.557 46.4454 180.744 46.4454C181.971 46.4454 183.171 46.552 184.344 46.7654C185.544 46.9787 186.624 47.2854 187.584 47.6854L186.264 53.2854C185.411 53.0454 184.597 52.8587 183.824 52.7254C183.051 52.592 182.357 52.5254 181.744 52.5254C179.717 52.5254 178.224 53.2054 177.264 54.5654C176.331 55.8987 175.864 57.992 175.864 60.8454C175.864 63.5654 176.331 65.5254 177.264 66.7254C178.197 67.9254 179.717 68.5254 181.824 68.5254C182.544 68.5254 183.304 68.4587 184.104 68.3254C184.931 68.192 185.757 68.0054 186.584 67.7654L187.904 73.3254C187.051 73.7254 185.971 74.032 184.664 74.2454C183.384 74.4854 182.024 74.6054 180.584 74.6054ZM201.338 74.6054C197.311 74.6054 194.245 73.4054 192.138 71.0054C190.031 68.6054 188.978 65.112 188.978 60.5254C188.978 55.9387 190.031 52.4454 192.138 50.0454C194.245 47.6454 197.311 46.4454 201.338 46.4454C205.365 46.4454 208.431 47.6454 210.538 50.0454C212.645 52.4454 213.698 55.9387 213.698 60.5254C213.698 65.112 212.645 68.6054 210.538 71.0054C208.431 73.4054 205.365 74.6054 201.338 74.6054ZM201.338 68.5254C202.911 68.5254 204.031 67.9254 204.698 66.7254C205.365 65.4987 205.698 63.432 205.698 60.5254C205.698 57.6187 205.365 55.5654 204.698 54.3654C204.031 53.1387 202.911 52.5254 201.338 52.5254C199.765 52.5254 198.645 53.1387 197.978 54.3654C197.311 55.5654 196.978 57.6187 196.978 60.5254C196.978 63.432 197.311 65.4987 197.978 66.7254C198.645 67.9254 199.765 68.5254 201.338 68.5254ZM217.346 74.0054V47.0454H226.146L232.266 62.3654L238.426 47.0454H246.986V74.0054H240.346V56.6854L235.146 69.6854H229.226L224.026 56.9654V74.0054H217.346ZM251.78 74.0054V47.0454H262.62C269.58 47.0454 273.06 50.1654 273.06 56.4054C273.06 62.6454 269.58 65.7654 262.62 65.7654H259.18V74.0054H251.78ZM261.74 52.6054H259.18V60.2054H261.74C263.074 60.2054 264.047 59.8987 264.66 59.2854C265.274 58.672 265.58 57.712 265.58 56.4054C265.58 55.072 265.274 54.112 264.66 53.5254C264.047 52.912 263.074 52.6054 261.74 52.6054ZM276.215 74.0054V47.0454H283.895V67.8454H293.335V74.0054H276.215ZM296.977 74.0054V47.0454H315.057V52.8854H304.377V57.4454H313.017V63.2854H304.377V68.1654H315.217V74.0054H296.977ZM323.943 74.0054V53.1254H317.343V47.0454H338.223V53.1254H331.623V74.0054H323.943ZM341.119 74.0054V47.0454H359.199V52.8854H348.519V57.4454H357.159V63.2854H348.519V68.1654H359.359V74.0054H341.119ZM377.782 74.6054C374.609 74.6054 371.702 74.0854 369.062 73.0454L370.462 67.2054C371.502 67.6054 372.609 67.9254 373.782 68.1654C374.982 68.3787 376.102 68.4854 377.142 68.4854C378.689 68.4854 379.796 68.2854 380.462 67.8854C381.156 67.4854 381.502 66.832 381.502 65.9254C381.502 64.832 380.889 64.1654 379.662 63.9254L376.102 63.2054C371.676 62.2987 369.462 59.6454 369.462 55.2454C369.462 52.4987 370.369 50.352 372.182 48.8054C373.996 47.232 376.489 46.4454 379.662 46.4454C382.836 46.4454 385.662 46.9254 388.142 47.8854L386.702 53.6054C384.862 52.8854 382.702 52.5254 380.222 52.5254C377.769 52.5254 376.542 53.2854 376.542 54.8054C376.542 55.9254 377.249 56.6187 378.662 56.8854L381.702 57.4854C384.156 57.992 385.956 58.8987 387.102 60.2054C388.276 61.512 388.862 63.312 388.862 65.6054C388.862 68.6454 387.956 70.912 386.142 72.4054C384.329 73.872 381.542 74.6054 377.782 74.6054ZM392.196 74.0054V47.0454H399.876V74.0054H392.196ZM404.677 74.0054V47.0454H413.477L419.597 62.3654L425.757 47.0454H434.317V74.0054H427.677V56.6854L422.477 69.6854H416.557L411.357 56.9654V74.0054H404.677ZM439.111 74.0054V47.0454H449.951C456.911 47.0454 460.391 50.1654 460.391 56.4054C460.391 62.6454 456.911 65.7654 449.951 65.7654H446.511V74.0054H439.111ZM449.071 52.6054H446.511V60.2054H449.071C450.405 60.2054 451.378 59.8987 451.991 59.2854C452.605 58.672 452.911 57.712 452.911 56.4054C452.911 55.072 452.605 54.112 451.991 53.5254C451.378 52.912 450.405 52.6054 449.071 52.6054ZM463.546 74.0054V47.0454H471.226V67.8454H480.666V74.0054H463.546ZM484.308 74.0054V47.0454H502.388V52.8854H491.708V57.4454H500.348V63.2854H491.708V68.1654H502.548V74.0054H484.308ZM513.412 74.0054V47.0454H522.212L528.332 62.3654L534.492 47.0454H543.052V74.0054H536.412V56.6854L531.212 69.6854H525.292L520.092 56.9654V74.0054H513.412ZM547.846 74.0054V47.0454H555.526V74.0054H547.846ZM567.887 74.6054C564.714 74.6054 561.807 74.0854 559.167 73.0454L560.567 67.2054C561.607 67.6054 562.714 67.9254 563.887 68.1654C565.087 68.3787 566.207 68.4854 567.247 68.4854C568.794 68.4854 569.9 68.2854 570.567 67.8854C571.26 67.4854 571.607 66.832 571.607 65.9254C571.607 64.832 570.994 64.1654 569.767 63.9254L566.207 63.2054C561.78 62.2987 559.567 59.6454 559.567 55.2454C559.567 52.4987 560.474 50.352 562.287 48.8054C564.1 47.232 566.594 46.4454 569.767 46.4454C572.94 46.4454 575.767 46.9254 578.247 47.8854L576.807 53.6054C574.967 52.8854 572.807 52.5254 570.327 52.5254C567.874 52.5254 566.647 53.2854 566.647 54.8054C566.647 55.9254 567.354 56.6187 568.767 56.8854L571.807 57.4854C574.26 57.992 576.06 58.8987 577.207 60.2054C578.38 61.512 578.967 63.312 578.967 65.6054C578.967 68.6454 578.06 70.912 576.247 72.4054C574.434 73.872 571.647 74.6054 567.887 74.6054ZM589.47 74.6054C586.297 74.6054 583.39 74.0854 580.75 73.0454L582.15 67.2054C583.19 67.6054 584.297 67.9254 585.47 68.1654C586.67 68.3787 587.79 68.4854 588.83 68.4854C590.377 68.4854 591.483 68.2854 592.15 67.8854C592.843 67.4854 593.19 66.832 593.19 65.9254C593.19 64.832 592.577 64.1654 591.35 63.9254L587.79 63.2054C583.363 62.2987 581.15 59.6454 581.15 55.2454C581.15 52.4987 582.057 50.352 583.87 48.8054C585.683 47.232 588.177 46.4454 591.35 46.4454C594.523 46.4454 597.35 46.9254 599.83 47.8854L598.39 53.6054C596.55 52.8854 594.39 52.5254 591.91 52.5254C589.457 52.5254 588.23 53.2854 588.23 54.8054C588.23 55.9254 588.937 56.6187 590.35 56.8854L593.39 57.4854C595.843 57.992 597.643 58.8987 598.79 60.2054C599.963 61.512 600.55 63.312 600.55 65.6054C600.55 68.6454 599.643 70.912 597.83 72.4054C596.017 73.872 593.23 74.6054 589.47 74.6054ZM603.883 74.0054V47.0454H611.563V74.0054H603.883ZM627.565 74.6054C623.538 74.6054 620.471 73.4054 618.365 71.0054C616.258 68.6054 615.205 65.112 615.205 60.5254C615.205 55.9387 616.258 52.4454 618.365 50.0454C620.471 47.6454 623.538 46.4454 627.565 46.4454C631.591 46.4454 634.658 47.6454 636.765 50.0454C638.871 52.4454 639.925 55.9387 639.925 60.5254C639.925 65.112 638.871 68.6054 636.765 71.0054C634.658 73.4054 631.591 74.6054 627.565 74.6054ZM627.565 68.5254C629.138 68.5254 630.258 67.9254 630.925 66.7254C631.591 65.4987 631.925 63.432 631.925 60.5254C631.925 57.6187 631.591 55.5654 630.925 54.3654C630.258 53.1387 629.138 52.5254 627.565 52.5254C625.991 52.5254 624.871 53.1387 624.205 54.3654C623.538 55.5654 623.205 57.6187 623.205 60.5254C623.205 63.432 623.538 65.4987 624.205 66.7254C624.871 67.9254 625.991 68.5254 627.565 68.5254ZM643.572 74.0054V47.0454H651.572L660.252 63.9254V47.0454H666.932V74.0054H658.932L650.252 57.1254V74.0054H643.572ZM679.278 74.6054C676.104 74.6054 673.198 74.0854 670.558 73.0454L671.958 67.2054C672.998 67.6054 674.104 67.9254 675.278 68.1654C676.478 68.3787 677.598 68.4854 678.638 68.4854C680.184 68.4854 681.291 68.2854 681.958 67.8854C682.651 67.4854 682.998 66.832 682.998 65.9254C682.998 64.832 682.384 64.1654 681.158 63.9254L677.598 63.2054C673.171 62.2987 670.958 59.6454 670.958 55.2454C670.958 52.4987 671.864 50.352 673.678 48.8054C675.491 47.232 677.984 46.4454 681.158 46.4454C684.331 46.4454 687.158 46.9254 689.638 47.8854L688.198 53.6054C686.358 52.8854 684.198 52.5254 681.718 52.5254C679.264 52.5254 678.038 53.2854 678.038 54.8054C678.038 55.9254 678.744 56.6187 680.158 56.8854L683.198 57.4854C685.651 57.992 687.451 58.8987 688.598 60.2054C689.771 61.512 690.358 63.312 690.358 65.6054C690.358 68.6454 689.451 70.912 687.638 72.4054C685.824 73.872 683.038 74.6054 679.278 74.6054Z" fill="white"/>
<path d="M171.144 50.1254L169.479 48.6233L169.478 48.6243L171.144 50.1254ZM184.344 46.7654L183.943 48.9716L183.952 48.9731L184.344 46.7654ZM187.584 47.6854L189.767 48.1998L190.203 46.3475L188.446 45.6155L187.584 47.6854ZM186.264 53.2854L185.657 55.444L187.91 56.0776L188.447 53.7998L186.264 53.2854ZM183.824 52.7254L184.205 50.5156L183.824 52.7254ZM177.264 54.5654L175.432 53.2722L175.427 53.2795L177.264 54.5654ZM177.264 66.7254L179.034 65.3487L177.264 66.7254ZM184.104 68.3254L183.747 66.1116L183.735 66.1135L184.104 68.3254ZM186.584 67.7654L188.766 67.2474L188.221 64.955L185.959 65.6119L186.584 67.7654ZM187.904 73.3254L188.856 75.3557L190.507 74.5817L190.086 72.8074L187.904 73.3254ZM184.664 74.2454L184.303 72.0323L184.277 72.0366L184.251 72.0414L184.664 74.2454ZM180.584 74.6054V72.363C176.742 72.363 174.258 71.3241 172.697 69.6204C171.102 67.8796 170.106 65.0525 170.106 60.7254H167.864H165.622C165.622 65.6515 166.746 69.7645 169.391 72.6504C172.07 75.5733 175.946 76.8477 180.584 76.8477V74.6054ZM167.864 60.7254H170.106C170.106 56.4081 171.125 53.4966 172.81 51.6264L171.144 50.1254L169.478 48.6243C166.79 51.6075 165.622 55.7627 165.622 60.7254H167.864ZM171.144 50.1254L172.809 51.6274C174.489 49.765 177.011 48.6877 180.744 48.6877V46.4454V44.203C176.104 44.203 172.225 45.5791 169.479 48.6233L171.144 50.1254ZM180.744 46.4454V48.6877C181.84 48.6877 182.906 48.783 183.943 48.9715L184.344 46.7654L184.745 44.5592C183.436 44.3211 182.101 44.203 180.744 44.203V46.4454ZM184.344 46.7654L183.952 48.9731C185.017 49.1625 185.936 49.4279 186.722 49.7552L187.584 47.6854L188.446 45.6155C187.312 45.1429 186.071 44.7949 184.736 44.5576L184.344 46.7654ZM187.584 47.6854L185.401 47.1709L184.081 52.7709L186.264 53.2854L188.447 53.7998L189.767 48.1998L187.584 47.6854ZM186.264 53.2854L186.871 51.1268C185.953 50.8685 185.064 50.6637 184.205 50.5156L183.824 52.7254L183.443 54.9351C184.131 55.0538 184.869 55.2223 185.657 55.444L186.264 53.2854ZM183.824 52.7254L184.205 50.5156C183.339 50.3663 182.515 50.283 181.744 50.283V52.5254V54.7677C182.2 54.7677 182.763 54.8178 183.443 54.9351L183.824 52.7254ZM181.744 52.5254V50.283C179.168 50.283 176.906 51.1843 175.432 53.2722L177.264 54.5654L179.096 55.8585C179.542 55.2265 180.267 54.7677 181.744 54.7677V52.5254ZM177.264 54.5654L175.427 53.2795C174.096 55.1802 173.622 57.8381 173.622 60.8454H175.864H178.106C178.106 58.146 178.565 56.6172 179.101 55.8513L177.264 54.5654ZM175.864 60.8454H173.622C173.622 63.7155 174.093 66.3014 175.494 68.102L177.264 66.7254L179.034 65.3487C178.568 64.7494 178.106 63.4153 178.106 60.8454H175.864ZM177.264 66.7254L175.494 68.102C177 70.0386 179.309 70.7677 181.824 70.7677V68.5254V66.283C180.126 66.283 179.394 65.8121 179.034 65.3487L177.264 66.7254ZM181.824 68.5254V70.7677C182.682 70.7677 183.566 70.6883 184.473 70.5372L184.104 68.3254L183.735 66.1135C183.042 66.2291 182.406 66.283 181.824 66.283V68.5254ZM184.104 68.3254L184.461 70.5391C185.381 70.3908 186.297 70.1837 187.209 69.9188L186.584 67.7654L185.959 65.6119C185.218 65.8271 184.481 65.9933 183.747 66.1116L184.104 68.3254ZM186.584 67.7654L184.402 68.2833L185.722 73.8433L187.904 73.3254L190.086 72.8074L188.766 67.2474L186.584 67.7654ZM187.904 73.3254L186.952 71.295C186.345 71.5797 185.481 71.84 184.303 72.0323L184.664 74.2454L185.025 76.4584C186.461 76.2241 187.756 75.8711 188.856 75.3557L187.904 73.3254ZM184.664 74.2454L184.251 72.0414C183.12 72.2534 181.9 72.363 180.584 72.363V74.6054V76.8477C182.148 76.8477 183.648 76.7174 185.077 76.4493L184.664 74.2454ZM192.138 71.0054L190.453 72.4846L192.138 71.0054ZM192.138 50.0454L190.453 48.5661V48.5661L192.138 50.0454ZM210.538 50.0454L212.223 48.5661L212.223 48.5661L210.538 50.0454ZM204.698 66.7254L206.658 67.8144L206.663 67.8053L206.668 67.7961L204.698 66.7254ZM204.698 54.3654L202.728 55.4361L202.733 55.4453L202.738 55.4543L204.698 54.3654ZM197.978 54.3654L199.938 55.4543L199.943 55.4453L199.948 55.4361L197.978 54.3654ZM197.978 66.7254L196.008 67.7961L196.013 67.8053L196.018 67.8144L197.978 66.7254ZM201.338 74.6054V72.363C197.776 72.363 195.398 71.3198 193.823 69.5261L192.138 71.0054L190.453 72.4846C193.092 75.4909 196.847 76.8477 201.338 76.8477V74.6054ZM192.138 71.0054L193.823 69.5261C192.205 67.6824 191.22 64.8019 191.22 60.5254H188.978H186.736C186.736 65.4222 187.858 69.5284 190.453 72.4846L192.138 71.0054ZM188.978 60.5254H191.22C191.22 56.2488 192.205 53.3684 193.823 51.5246L192.138 50.0454L190.453 48.5661C187.858 51.5224 186.736 55.6286 186.736 60.5254H188.978ZM192.138 50.0454L193.823 51.5246C195.398 49.7309 197.776 48.6877 201.338 48.6877V46.4454V44.203C196.847 44.203 193.092 45.5598 190.453 48.5661L192.138 50.0454ZM201.338 46.4454V48.6877C204.901 48.6877 207.278 49.7309 208.853 51.5246L210.538 50.0454L212.223 48.5661C209.584 45.5598 205.829 44.203 201.338 44.203V46.4454ZM210.538 50.0454L208.853 51.5246C210.471 53.3684 211.456 56.2488 211.456 60.5254H213.698H215.94C215.94 55.6286 214.818 51.5224 212.223 48.5661L210.538 50.0454ZM213.698 60.5254H211.456C211.456 64.8019 210.471 67.6824 208.853 69.5261L210.538 71.0054L212.223 72.4846C214.818 69.5284 215.94 65.4222 215.94 60.5254H213.698ZM210.538 71.0054L208.853 69.5261C207.278 71.3198 204.901 72.363 201.338 72.363V74.6054V76.8477C205.829 76.8477 209.584 75.4909 212.223 72.4846L210.538 71.0054ZM201.338 68.5254V70.7677C203.582 70.7677 205.531 69.8435 206.658 67.8144L204.698 66.7254L202.738 65.6364C202.532 66.0073 202.241 66.283 201.338 66.283V68.5254ZM204.698 66.7254L206.668 67.7961C207.622 66.0421 207.94 63.4838 207.94 60.5254H205.698H203.456C203.456 63.3802 203.108 64.9553 202.728 65.6546L204.698 66.7254ZM205.698 60.5254H207.94C207.94 57.5743 207.624 55.0145 206.658 53.2764L204.698 54.3654L202.738 55.4543C203.106 56.1162 203.456 57.6631 203.456 60.5254H205.698ZM204.698 54.3654L206.668 53.2946C205.552 51.2407 203.606 50.283 201.338 50.283V52.5254V54.7677C202.217 54.7677 202.511 55.0367 202.728 55.4361L204.698 54.3654ZM201.338 52.5254V50.283C199.07 50.283 197.124 51.2407 196.008 53.2946L197.978 54.3654L199.948 55.4361C200.165 55.0367 200.459 54.7677 201.338 54.7677V52.5254ZM197.978 54.3654L196.018 53.2764C195.052 55.0145 194.736 57.5743 194.736 60.5254H196.978H199.22C199.22 57.6631 199.571 56.1162 199.938 55.4543L197.978 54.3654ZM196.978 60.5254H194.736C194.736 63.4838 195.055 66.0421 196.008 67.7961L197.978 66.7254L199.948 65.6546C199.568 64.9553 199.22 63.3802 199.22 60.5254H196.978ZM197.978 66.7254L196.018 67.8144C197.145 69.8435 199.094 70.7677 201.338 70.7677V68.5254V66.283C200.435 66.283 200.144 66.0073 199.938 65.6364L197.978 66.7254ZM217.346 74.0054H215.104V76.2477H217.346V74.0054ZM217.346 47.0454V44.803H215.104V47.0454H217.346ZM226.146 47.0454L228.228 46.2135L227.665 44.803H226.146V47.0454ZM232.266 62.3654L230.184 63.1972L232.259 68.3929L234.346 63.2019L232.266 62.3654ZM238.426 47.0454V44.803H236.911L236.345 46.2088L238.426 47.0454ZM246.986 47.0454H249.228V44.803H246.986V47.0454ZM246.986 74.0054V76.2477H249.228V74.0054H246.986ZM240.346 74.0054H238.104V76.2477H240.346V74.0054ZM240.346 56.6854H242.588L238.264 55.8526L240.346 56.6854ZM235.146 69.6854V71.9277H236.664L237.228 70.5182L235.146 69.6854ZM229.226 69.6854L227.15 70.5339L227.72 71.9277H229.226V69.6854ZM224.026 56.9654L226.101 56.1169L221.784 56.9654H224.026ZM224.026 74.0054V76.2477H226.268V74.0054H224.026ZM217.346 74.0054H219.588V47.0454H217.346H215.104V74.0054H217.346ZM217.346 47.0454V49.2877H226.146V47.0454V44.803H217.346V47.0454ZM226.146 47.0454L224.064 47.8772L230.184 63.1972L232.266 62.3654L234.348 61.5335L228.228 46.2135L226.146 47.0454ZM232.266 62.3654L234.346 63.2019L240.506 47.8819L238.426 47.0454L236.345 46.2088L230.185 61.5288L232.266 62.3654ZM238.426 47.0454V49.2877H246.986V47.0454V44.803H238.426V47.0454ZM246.986 47.0454H244.744V74.0054H246.986H249.228V47.0454H246.986ZM246.986 74.0054V71.763H240.346V74.0054V76.2477H246.986V74.0054ZM240.346 74.0054H242.588V56.6854H240.346H238.104V74.0054H240.346ZM240.346 56.6854L238.264 55.8526L233.064 68.8526L235.146 69.6854L237.228 70.5182L242.428 57.5182L240.346 56.6854ZM235.146 69.6854V67.443H229.226V69.6854V71.9277H235.146V69.6854ZM229.226 69.6854L231.301 68.8369L226.101 56.1169L224.026 56.9654L221.95 57.8139L227.15 70.5339L229.226 69.6854ZM224.026 56.9654H221.784V74.0054H224.026H226.268V56.9654H224.026ZM224.026 74.0054V71.763H217.346V74.0054V76.2477H224.026V74.0054ZM251.78 74.0054H249.538V76.2477H251.78V74.0054ZM251.78 47.0454V44.803H249.538V47.0454H251.78ZM259.18 65.7654V63.523H256.938V65.7654H259.18ZM259.18 74.0054V76.2477H261.423V74.0054H259.18ZM259.18 52.6054V50.363H256.938V52.6054H259.18ZM259.18 60.2054H256.938V62.4477H259.18V60.2054ZM264.66 53.5254L263.075 55.1109L263.092 55.1286L263.11 55.1458L264.66 53.5254ZM251.78 74.0054H254.023V47.0454H251.78H249.538V74.0054H251.78ZM251.78 47.0454V49.2877H262.62V47.0454V44.803H251.78V47.0454ZM262.62 47.0454V49.2877C265.811 49.2877 267.786 50.0083 268.953 51.055C270.074 52.0599 270.818 53.6982 270.818 56.4054H273.06H275.303C275.303 52.8726 274.306 49.8309 271.947 47.7158C269.635 45.6425 266.389 44.803 262.62 44.803V47.0454ZM273.06 56.4054H270.818C270.818 59.1126 270.074 60.7509 268.953 61.7558C267.786 62.8025 265.811 63.523 262.62 63.523V65.7654V68.0077C266.389 68.0077 269.635 67.1683 271.947 65.095C274.306 62.9799 275.303 59.9382 275.303 56.4054H273.06ZM262.62 65.7654V63.523H259.18V65.7654V68.0077H262.62V65.7654ZM259.18 65.7654H256.938V74.0054H259.18H261.423V65.7654H259.18ZM259.18 74.0054V71.763H251.78V74.0054V76.2477H259.18V74.0054ZM261.74 52.6054V50.363H259.18V52.6054V54.8477H261.74V52.6054ZM259.18 52.6054H256.938V60.2054H259.18H261.423V52.6054H259.18ZM259.18 60.2054V62.4477H261.74V60.2054V57.963H259.18V60.2054ZM261.74 60.2054V62.4477C263.356 62.4477 265.033 62.0836 266.246 60.8709L264.66 59.2854L263.075 57.6998C263.061 57.7138 262.791 57.963 261.74 57.963V60.2054ZM264.66 59.2854L266.246 60.8709C267.451 59.6655 267.823 58.0096 267.823 56.4054H265.58H263.338C263.338 57.4145 263.096 57.6786 263.075 57.6998L264.66 59.2854ZM265.58 56.4054H267.823C267.823 54.8012 267.463 53.1034 266.21 51.905L264.66 53.5254L263.11 55.1458C263.11 55.1458 263.11 55.1459 263.111 55.1461C263.111 55.1462 263.111 55.1466 263.111 55.147C263.112 55.1479 263.114 55.1495 263.116 55.152C263.12 55.1569 263.126 55.1663 263.136 55.1817C263.154 55.2126 263.183 55.2707 263.214 55.3677C263.279 55.569 263.338 55.9002 263.338 56.4054H265.58ZM264.66 53.5254L266.246 51.9398C265.033 50.7271 263.356 50.363 261.74 50.363V52.6054V54.8477C262.791 54.8477 263.061 55.0969 263.075 55.1109L264.66 53.5254ZM276.215 74.0054H273.972V76.2477H276.215V74.0054ZM276.215 47.0454V44.803H273.972V47.0454H276.215ZM283.895 47.0454H286.137V44.803H283.895V47.0454ZM283.895 67.8454H281.652V70.0877H283.895V67.8454ZM293.335 67.8454H295.577V65.603H293.335V67.8454ZM293.335 74.0054V76.2477H295.577V74.0054H293.335ZM276.215 74.0054H278.457V47.0454H276.215H273.972V74.0054H276.215ZM276.215 47.0454V49.2877H283.895V47.0454V44.803H276.215V47.0454ZM283.895 47.0454H281.652V67.8454H283.895H286.137V47.0454H283.895ZM283.895 67.8454V70.0877H293.335V67.8454V65.603H283.895V67.8454ZM293.335 67.8454H291.092V74.0054H293.335H295.577V67.8454H293.335ZM293.335 74.0054V71.763H276.215V74.0054V76.2477H293.335V74.0054ZM296.977 74.0054H294.735V76.2477H296.977V74.0054ZM296.977 47.0454V44.803H294.735V47.0454H296.977ZM315.057 47.0454H317.299V44.803H315.057V47.0454ZM315.057 52.8854V55.1277H317.299V52.8854H315.057ZM304.377 52.8854V50.643H302.135V52.8854H304.377ZM304.377 57.4454H302.135V59.6877H304.377V57.4454ZM313.017 57.4454H315.259V55.203H313.017V57.4454ZM313.017 63.2854V65.5277H315.259V63.2854H313.017ZM304.377 63.2854V61.043H302.135V63.2854H304.377ZM304.377 68.1654H302.135V70.4077H304.377V68.1654ZM315.217 68.1654H317.459V65.923H315.217V68.1654ZM315.217 74.0054V76.2477H317.459V74.0054H315.217ZM296.977 74.0054H299.219V47.0454H296.977H294.735V74.0054H296.977ZM296.977 47.0454V49.2877H315.057V47.0454V44.803H296.977V47.0454ZM315.057 47.0454H312.815V52.8854H315.057H317.299V47.0454H315.057ZM315.057 52.8854V50.643H304.377V52.8854V55.1277H315.057V52.8854ZM304.377 52.8854H302.135V57.4454H304.377H306.619V52.8854H304.377ZM304.377 57.4454V59.6877H313.017V57.4454V55.203H304.377V57.4454ZM313.017 57.4454H310.775V63.2854H313.017H315.259V57.4454H313.017ZM313.017 63.2854V61.043H304.377V63.2854V65.5277H313.017V63.2854ZM304.377 63.2854H302.135V68.1654H304.377H306.619V63.2854H304.377ZM304.377 68.1654V70.4077H315.217V68.1654V65.923H304.377V68.1654ZM315.217 68.1654H312.975V74.0054H315.217H317.459V68.1654H315.217ZM315.217 74.0054V71.763H296.977V74.0054V76.2477H315.217V74.0054ZM323.943 74.0054H321.701V76.2477H323.943V74.0054ZM323.943 53.1254H326.185V50.883H323.943V53.1254ZM317.343 53.1254H315.101V55.3677H317.343V53.1254ZM317.343 47.0454V44.803H315.101V47.0454H317.343ZM338.223 47.0454H340.465V44.803H338.223V47.0454ZM338.223 53.1254V55.3677H340.465V53.1254H338.223ZM331.623 53.1254V50.883H329.381V53.1254H331.623ZM331.623 74.0054V76.2477H333.865V74.0054H331.623ZM323.943 74.0054H326.185V53.1254H323.943H321.701V74.0054H323.943ZM323.943 53.1254V50.883H317.343V53.1254V55.3677H323.943V53.1254ZM317.343 53.1254H319.585V47.0454H317.343H315.101V53.1254H317.343ZM317.343 47.0454V49.2877H338.223V47.0454V44.803H317.343V47.0454ZM338.223 47.0454H335.981V53.1254H338.223H340.465V47.0454H338.223ZM338.223 53.1254V50.883H331.623V53.1254V55.3677H338.223V53.1254ZM331.623 53.1254H329.381V74.0054H331.623H333.865V53.1254H331.623ZM331.623 74.0054V71.763H323.943V74.0054V76.2477H331.623V74.0054ZM341.119 74.0054H338.877V76.2477H341.119V74.0054ZM341.119 47.0454V44.803H338.877V47.0454H341.119ZM359.199 47.0454H361.442V44.803H359.199V47.0454ZM359.199 52.8854V55.1277H361.442V52.8854H359.199ZM348.519 52.8854V50.643H346.277V52.8854H348.519ZM348.519 57.4454H346.277V59.6877H348.519V57.4454ZM357.159 57.4454H359.402V55.203H357.159V57.4454ZM357.159 63.2854V65.5277H359.402V63.2854H357.159ZM348.519 63.2854V61.043H346.277V63.2854H348.519ZM348.519 68.1654H346.277V70.4077H348.519V68.1654ZM359.359 68.1654H361.602V65.923H359.359V68.1654ZM359.359 74.0054V76.2477H361.602V74.0054H359.359ZM341.119 74.0054H343.362V47.0454H341.119H338.877V74.0054H341.119ZM341.119 47.0454V49.2877H359.199V47.0454V44.803H341.119V47.0454ZM359.199 47.0454H356.957V52.8854H359.199H361.442V47.0454H359.199ZM359.199 52.8854V50.643H348.519V52.8854V55.1277H359.199V52.8854ZM348.519 52.8854H346.277V57.4454H348.519H350.762V52.8854H348.519ZM348.519 57.4454V59.6877H357.159V57.4454V55.203H348.519V57.4454ZM357.159 57.4454H354.917V63.2854H357.159H359.402V57.4454H357.159ZM357.159 63.2854V61.043H348.519V63.2854V65.5277H357.159V63.2854ZM348.519 63.2854H346.277V68.1654H348.519H350.762V63.2854H348.519ZM348.519 68.1654V70.4077H359.359V68.1654V65.923H348.519V68.1654ZM359.359 68.1654H357.117V74.0054H359.359H361.602V68.1654H359.359ZM359.359 74.0054V71.763H341.119V74.0054V76.2477H359.359V74.0054ZM369.062 73.0454L366.882 72.5226L366.428 74.4175L368.241 75.1317L369.062 73.0454ZM370.462 67.2054L371.267 65.1125L368.879 64.1937L368.282 66.6826L370.462 67.2054ZM373.782 68.1654L373.333 70.3622L373.361 70.368L373.39 70.3731L373.782 68.1654ZM380.462 67.8854L379.342 65.9431L379.325 65.9527L379.309 65.9626L380.462 67.8854ZM379.662 63.9254L379.218 66.1232L379.225 66.1246L379.232 66.126L379.662 63.9254ZM376.102 63.2054L375.652 65.4021L375.658 65.4032L376.102 63.2054ZM372.182 48.8054L373.638 50.5114L373.645 50.5053L373.652 50.4991L372.182 48.8054ZM388.142 47.8854L390.317 48.4328L390.801 46.51L388.952 45.7942L388.142 47.8854ZM386.702 53.6054L385.885 55.6935L388.256 56.621L388.877 54.1528L386.702 53.6054ZM378.662 56.8854L379.097 54.6855L379.087 54.6836L379.078 54.6819L378.662 56.8854ZM381.702 57.4854L382.156 55.2894L382.146 55.2874L382.137 55.2855L381.702 57.4854ZM387.102 60.2054L385.417 61.6844L385.425 61.694L385.434 61.7035L387.102 60.2054ZM386.142 72.4054L387.553 74.1488L387.56 74.1426L387.568 74.1363L386.142 72.4054ZM377.782 74.6054V72.363C374.857 72.363 372.233 71.8845 369.884 70.9591L369.062 73.0454L368.241 75.1317C371.172 76.2863 374.361 76.8477 377.782 76.8477V74.6054ZM369.062 73.0454L371.243 73.5681L372.643 67.7281L370.462 67.2054L368.282 66.6826L366.882 72.5226L369.062 73.0454ZM370.462 67.2054L369.657 69.2983C370.821 69.7458 372.048 70.0993 373.333 70.3622L373.782 68.1654L374.232 65.9685C373.171 65.7515 372.184 65.4649 371.267 65.1125L370.462 67.2054ZM373.782 68.1654L373.39 70.3731C374.698 70.6057 375.951 70.7277 377.142 70.7277V68.4854V66.243C376.254 66.243 375.267 66.1518 374.175 65.9576L373.782 68.1654ZM377.142 68.4854V70.7277C378.766 70.7277 380.398 70.5389 381.616 69.8082L380.462 67.8854L379.309 65.9626C379.193 66.0318 378.613 66.243 377.142 66.243V68.4854ZM380.462 67.8854L381.583 69.8277C383.075 68.9672 383.745 67.5056 383.745 65.9254H381.502H379.26C379.26 66.0099 379.252 66.0558 379.248 66.0714C379.245 66.0854 379.247 66.0727 379.262 66.0443C379.269 66.0308 379.278 66.0161 379.289 66.0011C379.3 65.9862 379.311 65.9732 379.322 65.9624C379.344 65.9399 379.355 65.9354 379.342 65.9431L380.462 67.8854ZM381.502 65.9254H383.745C383.745 64.9391 383.456 63.9167 382.693 63.0872C381.96 62.2909 381.001 61.9024 380.093 61.7247L379.662 63.9254L379.232 66.126C379.385 66.1559 379.458 66.1876 379.476 66.1968C379.491 66.2038 379.449 66.1857 379.392 66.1236C379.365 66.0936 379.339 66.0591 379.317 66.0217C379.294 65.9844 379.279 65.9504 379.27 65.9233C379.251 65.8689 379.26 65.8607 379.26 65.9254H381.502ZM379.662 63.9254L380.107 61.7275L376.547 61.0075L376.102 63.2054L375.658 65.4032L379.218 66.1232L379.662 63.9254ZM376.102 63.2054L376.552 61.0086C374.683 60.6257 373.537 59.9295 372.844 59.099C372.157 58.2754 371.705 57.0672 371.705 55.2454H369.462H367.22C367.22 57.8236 367.874 60.142 369.401 61.9717C370.921 63.7946 373.096 64.8784 375.653 65.4021L376.102 63.2054ZM369.462 55.2454H371.705C371.705 53.0439 372.403 51.5647 373.638 50.5114L372.182 48.8054L370.727 47.0993C368.336 49.1393 367.22 51.9536 367.22 55.2454H369.462ZM372.182 48.8054L373.652 50.4991C374.942 49.3802 376.853 48.6877 379.662 48.6877V46.4454V44.203C376.126 44.203 373.05 45.0839 370.713 47.1117L372.182 48.8054ZM379.662 46.4454V48.6877C382.611 48.6877 385.156 49.1337 387.333 49.9765L388.142 47.8854L388.952 45.7942C386.169 44.717 383.06 44.203 379.662 44.203V46.4454ZM388.142 47.8854L385.968 47.3379L384.528 53.0579L386.702 53.6054L388.877 54.1528L390.317 48.4328L388.142 47.8854ZM386.702 53.6054L387.52 51.5172C385.362 50.673 382.913 50.283 380.222 50.283V52.5254V54.7677C382.491 54.7677 384.363 55.0978 385.885 55.6935L386.702 53.6054ZM380.222 52.5254V50.283C378.837 50.283 377.419 50.4845 376.281 51.1892C374.967 52.0038 374.3 53.3192 374.3 54.8054H376.542H378.785C378.785 54.7315 378.798 54.7761 378.747 54.8703C378.694 54.9696 378.631 55.0089 378.643 55.0015C378.67 54.9848 378.79 54.9209 379.066 54.8639C379.34 54.8074 379.718 54.7677 380.222 54.7677V52.5254ZM376.542 54.8054H374.3C374.3 55.8811 374.661 56.9407 375.502 57.766C376.285 58.5346 377.292 58.9086 378.247 59.0888L378.662 56.8854L379.078 54.6819C378.861 54.6409 378.729 54.5941 378.66 54.5627C378.593 54.5325 378.602 54.5249 378.643 54.5648C378.689 54.6099 378.735 54.6767 378.764 54.7512C378.791 54.8201 378.785 54.8484 378.785 54.8054H376.542ZM378.662 56.8854L378.228 59.0853L381.268 59.6853L381.702 57.4854L382.137 55.2855L379.097 54.6855L378.662 56.8854ZM381.702 57.4854L381.249 59.6814C383.428 60.1314 384.706 60.8747 385.417 61.6844L387.102 60.2054L388.788 58.7263C387.205 56.9227 384.883 55.8527 382.156 55.2894L381.702 57.4854ZM387.102 60.2054L385.434 61.7035C386.136 62.4858 386.62 63.6919 386.62 65.6054H388.862H391.105C391.105 62.9322 390.415 60.5383 388.771 58.7072L387.102 60.2054ZM388.862 65.6054H386.62C386.62 68.1878 385.869 69.7259 384.717 70.6744L386.142 72.4054L387.568 74.1363C390.043 72.0982 391.105 69.103 391.105 65.6054H388.862ZM386.142 72.4054L384.732 70.6619C383.498 71.6603 381.322 72.363 377.782 72.363V74.6054V76.8477C381.763 76.8477 385.16 76.0838 387.553 74.1488L386.142 72.4054ZM392.196 74.0054H389.954V76.2477H392.196V74.0054ZM392.196 47.0454V44.803H389.954V47.0454H392.196ZM399.876 47.0454H402.118V44.803H399.876V47.0454ZM399.876 74.0054V76.2477H402.118V74.0054H399.876ZM392.196 74.0054H394.438V47.0454H392.196H389.954V74.0054H392.196ZM392.196 47.0454V49.2877H399.876V47.0454V44.803H392.196V47.0454ZM399.876 47.0454H397.634V74.0054H399.876H402.118V47.0454H399.876ZM399.876 74.0054V71.763H392.196V74.0054V76.2477H399.876V74.0054ZM404.677 74.0054H402.435V76.2477H404.677V74.0054ZM404.677 47.0454V44.803H402.435V47.0454H404.677ZM413.477 47.0454L415.559 46.2135L414.996 44.803H413.477V47.0454ZM419.597 62.3654L417.515 63.1972L419.59 68.3929L421.678 63.2019L419.597 62.3654ZM425.757 47.0454V44.803H424.242L423.677 46.2088L425.757 47.0454ZM434.317 47.0454H436.559V44.803H434.317V47.0454ZM434.317 74.0054V76.2477H436.559V74.0054H434.317ZM427.677 74.0054H425.435V76.2477H427.677V74.0054ZM427.677 56.6854H429.919L425.595 55.8526L427.677 56.6854ZM422.477 69.6854V71.9277H423.995L424.559 70.5182L422.477 69.6854ZM416.557 69.6854L414.482 70.5339L415.051 71.9277H416.557V69.6854ZM411.357 56.9654L413.433 56.1169L409.115 56.9654H411.357ZM411.357 74.0054V76.2477H413.599V74.0054H411.357ZM404.677 74.0054H406.919V47.0454H404.677H402.435V74.0054H404.677ZM404.677 47.0454V49.2877H413.477V47.0454V44.803H404.677V47.0454ZM413.477 47.0454L411.395 47.8772L417.515 63.1972L419.597 62.3654L421.679 61.5335L415.559 46.2135L413.477 47.0454ZM419.597 62.3654L421.678 63.2019L427.838 47.8819L425.757 47.0454L423.677 46.2088L417.517 61.5288L419.597 62.3654ZM425.757 47.0454V49.2877H434.317V47.0454V44.803H425.757V47.0454ZM434.317 47.0454H432.075V74.0054H434.317H436.559V47.0454H434.317ZM434.317 74.0054V71.763H427.677V74.0054V76.2477H434.317V74.0054ZM427.677 74.0054H429.919V56.6854H427.677H425.435V74.0054H427.677ZM427.677 56.6854L425.595 55.8526L420.395 68.8526L422.477 69.6854L424.559 70.5182L429.759 57.5182L427.677 56.6854ZM422.477 69.6854V67.443H416.557V69.6854V71.9277H422.477V69.6854ZM416.557 69.6854L418.633 68.8369L413.433 56.1169L411.357 56.9654L409.282 57.8139L414.482 70.5339L416.557 69.6854ZM411.357 56.9654H409.115V74.0054H411.357H413.599V56.9654H411.357ZM411.357 74.0054V71.763H404.677V74.0054V76.2477H411.357V74.0054ZM439.111 74.0054H436.869V76.2477H439.111V74.0054ZM439.111 47.0454V44.803H436.869V47.0454H439.111ZM446.512 65.7654V63.523H444.269V65.7654H446.512ZM446.512 74.0054V76.2477H448.754V74.0054H446.512ZM446.512 52.6054V50.363H444.269V52.6054H446.512ZM446.512 60.2054H444.269V62.4477H446.512V60.2054ZM451.991 53.5254L450.406 55.1109L450.424 55.1286L450.442 55.1458L451.991 53.5254ZM439.111 74.0054H441.354V47.0454H439.111H436.869V74.0054H439.111ZM439.111 47.0454V49.2877H449.952V47.0454V44.803H439.111V47.0454ZM449.952 47.0454V49.2877C453.143 49.2877 455.117 50.0083 456.285 51.055C457.405 52.0599 458.149 53.6982 458.149 56.4054H460.392H462.634C462.634 52.8726 461.637 49.8309 459.278 47.7158C456.966 45.6425 453.72 44.803 449.952 44.803V47.0454ZM460.392 56.4054H458.149C458.149 59.1126 457.405 60.7509 456.285 61.7558C455.117 62.8025 453.143 63.523 449.952 63.523V65.7654V68.0077C453.72 68.0077 456.966 67.1683 459.278 65.095C461.637 62.9799 462.634 59.9382 462.634 56.4054H460.392ZM449.952 65.7654V63.523H446.512V65.7654V68.0077H449.952V65.7654ZM446.512 65.7654H444.269V74.0054H446.512H448.754V65.7654H446.512ZM446.512 74.0054V71.763H439.111V74.0054V76.2477H446.512V74.0054ZM449.072 52.6054V50.363H446.512V52.6054V54.8477H449.072V52.6054ZM446.512 52.6054H444.269V60.2054H446.512H448.754V52.6054H446.512ZM446.512 60.2054V62.4477H449.072V60.2054V57.963H446.512V60.2054ZM449.072 60.2054V62.4477C450.687 62.4477 452.364 62.0836 453.577 60.8709L451.991 59.2854L450.406 57.6998C450.392 57.7138 450.123 57.963 449.072 57.963V60.2054ZM451.991 59.2854L453.577 60.8709C454.783 59.6655 455.154 58.0096 455.154 56.4054H452.911H450.669C450.669 57.4145 450.427 57.6786 450.406 57.6998L451.991 59.2854ZM452.911 56.4054H455.154C455.154 54.8012 454.794 53.1034 453.541 51.905L451.991 53.5254L450.442 55.1458C450.442 55.1458 450.442 55.1459 450.442 55.1461C450.442 55.1462 450.442 55.1466 450.443 55.147C450.444 55.1479 450.445 55.1495 450.447 55.152C450.451 55.1569 450.458 55.1663 450.467 55.1817C450.485 55.2126 450.514 55.2707 450.545 55.3677C450.61 55.569 450.669 55.9002 450.669 56.4054H452.911ZM451.991 53.5254L453.577 51.9398C452.364 50.7271 450.687 50.363 449.072 50.363V52.6054V54.8477C450.123 54.8477 450.392 55.0969 450.406 55.1109L451.991 53.5254ZM463.546 74.0054H461.304V76.2477H463.546V74.0054ZM463.546 47.0454V44.803H461.304V47.0454H463.546ZM471.226 47.0454H473.468V44.803H471.226V47.0454ZM471.226 67.8454H468.984V70.0877H471.226V67.8454ZM480.666 67.8454H482.908V65.603H480.666V67.8454ZM480.666 74.0054V76.2477H482.908V74.0054H480.666ZM463.546 74.0054H465.788V47.0454H463.546H461.304V74.0054H463.546ZM463.546 47.0454V49.2877H471.226V47.0454V44.803H463.546V47.0454ZM471.226 47.0454H468.984V67.8454H471.226H473.468V47.0454H471.226ZM471.226 67.8454V70.0877H480.666V67.8454V65.603H471.226V67.8454ZM480.666 67.8454H478.424V74.0054H480.666H482.908V67.8454H480.666ZM480.666 74.0054V71.763H463.546V74.0054V76.2477H480.666V74.0054ZM484.308 74.0054H482.066V76.2477H484.308V74.0054ZM484.308 47.0454V44.803H482.066V47.0454H484.308ZM502.388 47.0454H504.631V44.803H502.388V47.0454ZM502.388 52.8854V55.1277H504.631V52.8854H502.388ZM491.708 52.8854V50.643H489.466V52.8854H491.708ZM491.708 57.4454H489.466V59.6877H491.708V57.4454ZM500.348 57.4454H502.591V55.203H500.348V57.4454ZM500.348 63.2854V65.5277H502.591V63.2854H500.348ZM491.708 63.2854V61.043H489.466V63.2854H491.708ZM491.708 68.1654H489.466V70.4077H491.708V68.1654ZM502.548 68.1654H504.791V65.923H502.548V68.1654ZM502.548 74.0054V76.2477H504.791V74.0054H502.548ZM484.308 74.0054H486.551V47.0454H484.308H482.066V74.0054H484.308ZM484.308 47.0454V49.2877H502.388V47.0454V44.803H484.308V47.0454ZM502.388 47.0454H500.146V52.8854H502.388H504.631V47.0454H502.388ZM502.388 52.8854V50.643H491.708V52.8854V55.1277H502.388V52.8854ZM491.708 52.8854H489.466V57.4454H491.708H493.951V52.8854H491.708ZM491.708 57.4454V59.6877H500.348V57.4454V55.203H491.708V57.4454ZM500.348 57.4454H498.106V63.2854H500.348H502.591V57.4454H500.348ZM500.348 63.2854V61.043H491.708V63.2854V65.5277H500.348V63.2854ZM491.708 63.2854H489.466V68.1654H491.708H493.951V63.2854H491.708ZM491.708 68.1654V70.4077H502.548V68.1654V65.923H491.708V68.1654ZM502.548 68.1654H500.306V74.0054H502.548H504.791V68.1654H502.548ZM502.548 74.0054V71.763H484.308V74.0054V76.2477H502.548V74.0054ZM513.411 74.0054H511.169V76.2477H513.411V74.0054ZM513.411 47.0454V44.803H511.169V47.0454H513.411ZM522.212 47.0454L524.294 46.2135L523.73 44.803H522.212V47.0454ZM528.332 62.3654L526.249 63.1972L528.325 68.3929L530.412 63.2019L528.332 62.3654ZM534.492 47.0454V44.803H532.976L532.411 46.2088L534.492 47.0454ZM543.052 47.0454H545.294V44.803H543.052V47.0454ZM543.052 74.0054V76.2477H545.294V74.0054H543.052ZM536.411 74.0054H534.169V76.2477H536.411V74.0054ZM536.411 56.6854H538.654L534.33 55.8526L536.411 56.6854ZM531.212 69.6854V71.9277H532.73L533.293 70.5182L531.212 69.6854ZM525.292 69.6854L523.216 70.5339L523.786 71.9277H525.292V69.6854ZM520.092 56.9654L522.167 56.1169L517.849 56.9654H520.092ZM520.092 74.0054V76.2477H522.334V74.0054H520.092ZM513.411 74.0054H515.654V47.0454H513.411H511.169V74.0054H513.411ZM513.411 47.0454V49.2877H522.212V47.0454V44.803H513.411V47.0454ZM522.212 47.0454L520.129 47.8772L526.249 63.1972L528.332 62.3654L530.414 61.5335L524.294 46.2135L522.212 47.0454ZM528.332 62.3654L530.412 63.2019L536.572 47.8819L534.492 47.0454L532.411 46.2088L526.251 61.5288L528.332 62.3654ZM534.492 47.0454V49.2877H543.052V47.0454V44.803H534.492V47.0454ZM543.052 47.0454H540.809V74.0054H543.052H545.294V47.0454H543.052ZM543.052 74.0054V71.763H536.411V74.0054V76.2477H543.052V74.0054ZM536.411 74.0054H538.654V56.6854H536.411H534.169V74.0054H536.411ZM536.411 56.6854L534.33 55.8526L529.13 68.8526L531.212 69.6854L533.293 70.5182L538.493 57.5182L536.411 56.6854ZM531.212 69.6854V67.443H525.292V69.6854V71.9277H531.212V69.6854ZM525.292 69.6854L527.367 68.8369L522.167 56.1169L520.092 56.9654L518.016 57.8139L523.216 70.5339L525.292 69.6854ZM520.092 56.9654H517.849V74.0054H520.092H522.334V56.9654H520.092ZM520.092 74.0054V71.763H513.411V74.0054V76.2477H520.092V74.0054ZM547.846 74.0054H545.604V76.2477H547.846V74.0054ZM547.846 47.0454V44.803H545.604V47.0454H547.846ZM555.526 47.0454H557.768V44.803H555.526V47.0454ZM555.526 74.0054V76.2477H557.768V74.0054H555.526ZM547.846 74.0054H550.088V47.0454H547.846H545.604V74.0054H547.846ZM547.846 47.0454V49.2877H555.526V47.0454V44.803H547.846V47.0454ZM555.526 47.0454H553.284V74.0054H555.526H557.768V47.0454H555.526ZM555.526 74.0054V71.763H547.846V74.0054V76.2477H555.526V74.0054ZM559.167 73.0454L556.987 72.5226L556.532 74.4175L558.345 75.1317L559.167 73.0454ZM560.567 67.2054L561.372 65.1125L558.983 64.1937L558.387 66.6826L560.567 67.2054ZM563.887 68.1654L563.438 70.3622L563.466 70.368L563.495 70.3731L563.887 68.1654ZM570.567 67.8854L569.447 65.9431L569.43 65.9527L569.413 65.9626L570.567 67.8854ZM569.767 63.9254L569.323 66.1232L569.33 66.1246L569.337 66.126L569.767 63.9254ZM566.207 63.2054L565.757 65.4021L565.763 65.4032L566.207 63.2054ZM562.287 48.8054L563.742 50.5114L563.75 50.5053L563.757 50.4991L562.287 48.8054ZM578.247 47.8854L580.422 48.4328L580.906 46.51L579.057 45.7942L578.247 47.8854ZM576.807 53.6054L575.99 55.6935L578.36 56.621L578.982 54.1528L576.807 53.6054ZM568.767 56.8854L569.201 54.6855L569.192 54.6836L569.183 54.6819L568.767 56.8854ZM571.807 57.4854L572.261 55.2894L572.251 55.2874L572.241 55.2855L571.807 57.4854ZM577.207 60.2054L575.522 61.6844L575.53 61.694L575.539 61.7035L577.207 60.2054ZM576.247 72.4054L577.657 74.1488L577.665 74.1426L577.673 74.1363L576.247 72.4054ZM567.887 74.6054V72.363C564.962 72.363 562.338 71.8845 559.989 70.9591L559.167 73.0454L558.345 75.1317C561.276 76.2863 564.466 76.8477 567.887 76.8477V74.6054ZM559.167 73.0454L561.348 73.5681L562.748 67.7281L560.567 67.2054L558.387 66.6826L556.987 72.5226L559.167 73.0454ZM560.567 67.2054L559.762 69.2983C560.926 69.7458 562.152 70.0993 563.438 70.3622L563.887 68.1654L564.336 65.9685C563.275 65.7515 562.288 65.4649 561.372 65.1125L560.567 67.2054ZM563.887 68.1654L563.495 70.3731C564.803 70.6057 566.055 70.7277 567.247 70.7277V68.4854V66.243C566.359 66.243 565.371 66.1518 564.28 65.9576L563.887 68.1654ZM567.247 68.4854V70.7277C568.87 70.7277 570.503 70.5389 571.721 69.8082L570.567 67.8854L569.413 65.9626C569.298 66.0318 568.717 66.243 567.247 66.243V68.4854ZM570.567 67.8854L571.688 69.8277C573.179 68.9672 573.849 67.5056 573.849 65.9254H571.607H569.365C569.365 66.0099 569.357 66.0558 569.353 66.0714C569.35 66.0854 569.351 66.0727 569.366 66.0443C569.374 66.0308 569.383 66.0161 569.394 66.0011C569.405 65.9862 569.416 65.9732 569.426 65.9624C569.449 65.9399 569.46 65.9354 569.447 65.9431L570.567 67.8854ZM571.607 65.9254H573.849C573.849 64.9391 573.56 63.9167 572.797 63.0872C572.065 62.2909 571.106 61.9024 570.198 61.7247L569.767 63.9254L569.337 66.126C569.49 66.1559 569.562 66.1876 569.581 66.1968C569.595 66.2038 569.554 66.1857 569.497 66.1236C569.469 66.0936 569.443 66.0591 569.421 66.0217C569.399 65.9844 569.384 65.9504 569.375 65.9233C569.356 65.8689 569.365 65.8607 569.365 65.9254H571.607ZM569.767 63.9254L570.212 61.7275L566.652 61.0075L566.207 63.2054L565.763 65.4032L569.323 66.1232L569.767 63.9254ZM566.207 63.2054L566.657 61.0086C564.787 60.6257 563.642 59.9295 562.949 59.099C562.262 58.2754 561.809 57.0672 561.809 55.2454H559.567H557.325C557.325 57.8236 557.979 60.142 559.505 61.9717C561.026 63.7946 563.2 64.8784 565.757 65.4021L566.207 63.2054ZM559.567 55.2454H561.809C561.809 53.0439 562.507 51.5647 563.742 50.5114L562.287 48.8054L560.832 47.0993C558.44 49.1393 557.325 51.9536 557.325 55.2454H559.567ZM562.287 48.8054L563.757 50.4991C565.046 49.3802 566.957 48.6877 569.767 48.6877V46.4454V44.203C566.23 44.203 563.155 45.0839 560.818 47.1117L562.287 48.8054ZM569.767 46.4454V48.6877C572.716 48.6877 575.26 49.1337 577.438 49.9765L578.247 47.8854L579.057 45.7942C576.274 44.717 573.165 44.203 569.767 44.203V46.4454ZM578.247 47.8854L576.073 47.3379L574.633 53.0579L576.807 53.6054L578.982 54.1528L580.422 48.4328L578.247 47.8854ZM576.807 53.6054L577.624 51.5172C575.467 50.673 573.018 50.283 570.327 50.283V52.5254V54.7677C572.596 54.7677 574.467 55.0978 575.99 55.6935L576.807 53.6054ZM570.327 52.5254V50.283C568.942 50.283 567.524 50.4845 566.386 51.1892C565.071 52.0038 564.405 53.3192 564.405 54.8054H566.647H568.889C568.889 54.7315 568.902 54.7761 568.852 54.8703C568.798 54.9696 568.736 55.0089 568.748 55.0015C568.775 54.9848 568.895 54.9209 569.171 54.8639C569.444 54.8074 569.823 54.7677 570.327 54.7677V52.5254ZM566.647 54.8054H564.405C564.405 55.8811 564.766 56.9407 565.607 57.766C566.39 58.5346 567.396 58.9086 568.351 59.0888L568.767 56.8854L569.183 54.6819C568.966 54.6409 568.834 54.5941 568.765 54.5627C568.698 54.5325 568.707 54.5249 568.748 54.5648C568.794 54.6099 568.84 54.6767 568.869 54.7512C568.896 54.8201 568.889 54.8484 568.889 54.8054H566.647ZM568.767 56.8854L568.333 59.0853L571.373 59.6853L571.807 57.4854L572.241 55.2855L569.201 54.6855L568.767 56.8854ZM571.807 57.4854L571.354 59.6814C573.533 60.1314 574.811 60.8747 575.522 61.6844L577.207 60.2054L578.893 58.7263C577.31 56.9227 574.988 55.8527 572.261 55.2894L571.807 57.4854ZM577.207 60.2054L575.539 61.7035C576.241 62.4858 576.725 63.6919 576.725 65.6054H578.967H581.209C581.209 62.9322 580.52 60.5383 578.876 58.7072L577.207 60.2054ZM578.967 65.6054H576.725C576.725 68.1878 575.974 69.7259 574.822 70.6744L576.247 72.4054L577.673 74.1363C580.147 72.0982 581.209 69.103 581.209 65.6054H578.967ZM576.247 72.4054L574.837 70.6619C573.603 71.6603 571.427 72.363 567.887 72.363V74.6054V76.8477C571.868 76.8477 575.265 76.0838 577.657 74.1488L576.247 72.4054ZM580.75 73.0454L578.569 72.5226L578.115 74.4175L579.928 75.1317L580.75 73.0454ZM582.15 67.2054L582.955 65.1125L580.566 64.1937L579.969 66.6826L582.15 67.2054ZM585.47 68.1654L585.021 70.3622L585.049 70.368L585.077 70.3731L585.47 68.1654ZM592.15 67.8854L591.029 65.9431L591.013 65.9527L590.996 65.9626L592.15 67.8854ZM591.35 63.9254L590.905 66.1232L590.912 66.1246L590.919 66.126L591.35 63.9254ZM587.79 63.2054L587.34 65.4021L587.345 65.4032L587.79 63.2054ZM583.87 48.8054L585.325 50.5114L585.332 50.5053L585.339 50.4991L583.87 48.8054ZM599.83 47.8854L602.004 48.4328L602.488 46.51L600.639 45.7942L599.83 47.8854ZM598.39 53.6054L597.573 55.6935L599.943 56.621L600.564 54.1528L598.39 53.6054ZM590.35 56.8854L590.784 54.6855L590.775 54.6836L590.766 54.6819L590.35 56.8854ZM593.39 57.4854L593.843 55.2894L593.834 55.2874L593.824 55.2855L593.39 57.4854ZM598.79 60.2054L597.105 61.6844L597.113 61.694L597.122 61.7035L598.79 60.2054ZM597.83 72.4054L599.24 74.1488L599.248 74.1426L599.255 74.1363L597.83 72.4054ZM589.47 74.6054V72.363C586.545 72.363 583.921 71.8845 581.572 70.9591L580.75 73.0454L579.928 75.1317C582.859 76.2863 586.048 76.8477 589.47 76.8477V74.6054ZM580.75 73.0454L582.93 73.5681L584.33 67.7281L582.15 67.2054L579.969 66.6826L578.569 72.5226L580.75 73.0454ZM582.15 67.2054L581.345 69.2983C582.509 69.7458 583.735 70.0993 585.021 70.3622L585.47 68.1654L585.919 65.9685C584.858 65.7515 583.871 65.4649 582.955 65.1125L582.15 67.2054ZM585.47 68.1654L585.077 70.3731C586.386 70.6057 587.638 70.7277 588.83 70.7277V68.4854V66.243C587.942 66.243 586.954 66.1518 585.862 65.9576L585.47 68.1654ZM588.83 68.4854V70.7277C590.453 70.7277 592.086 70.5389 593.304 69.8082L592.15 67.8854L590.996 65.9626C590.881 66.0318 590.3 66.243 588.83 66.243V68.4854ZM592.15 67.8854L593.27 69.8277C594.762 68.9672 595.432 67.5056 595.432 65.9254H593.19H590.948C590.948 66.0099 590.939 66.0558 590.936 66.0714C590.933 66.0854 590.934 66.0727 590.949 66.0443C590.956 66.0308 590.965 66.0161 590.976 66.0011C590.987 65.9862 590.999 65.9732 591.009 65.9624C591.031 65.9399 591.043 65.9354 591.029 65.9431L592.15 67.8854ZM593.19 65.9254H595.432C595.432 64.9391 595.143 63.9167 594.38 63.0872C593.648 62.2909 592.688 61.9024 591.78 61.7247L591.35 63.9254L590.919 66.126C591.072 66.1559 591.145 66.1876 591.164 66.1968C591.178 66.2038 591.137 66.1857 591.08 66.1236C591.052 66.0936 591.026 66.0591 591.004 66.0217C590.982 65.9844 590.967 65.9504 590.957 65.9233C590.939 65.8689 590.948 65.8607 590.948 65.9254H593.19ZM591.35 63.9254L591.794 61.7275L588.234 61.0075L587.79 63.2054L587.345 65.4032L590.905 66.1232L591.35 63.9254ZM587.79 63.2054L588.24 61.0086C586.37 60.6257 585.225 59.9295 584.532 59.099C583.845 58.2754 583.392 57.0672 583.392 55.2454H581.15H578.908C578.908 57.8236 579.562 60.142 581.088 61.9717C582.609 63.7946 584.783 64.8784 587.34 65.4021L587.79 63.2054ZM581.15 55.2454H583.392C583.392 53.0439 584.09 51.5647 585.325 50.5114L583.87 48.8054L582.415 47.0993C580.023 49.1393 578.908 51.9536 578.908 55.2454H581.15ZM583.87 48.8054L585.339 50.4991C586.629 49.3802 588.54 48.6877 591.35 48.6877V46.4454V44.203C587.813 44.203 584.737 45.0839 582.4 47.1117L583.87 48.8054ZM591.35 46.4454V48.6877C594.299 48.6877 596.843 49.1337 599.02 49.9765L599.83 47.8854L600.639 45.7942C597.857 44.717 594.748 44.203 591.35 44.203V46.4454ZM599.83 47.8854L597.655 47.3379L596.215 53.0579L598.39 53.6054L600.564 54.1528L602.004 48.4328L599.83 47.8854ZM598.39 53.6054L599.207 51.5172C597.05 50.673 594.601 50.283 591.91 50.283V52.5254V54.7677C594.179 54.7677 596.05 55.0978 597.573 55.6935L598.39 53.6054ZM591.91 52.5254V50.283C590.524 50.283 589.106 50.4845 587.969 51.1892C586.654 52.0038 585.988 53.3192 585.988 54.8054H588.23H590.472C590.472 54.7315 590.485 54.7761 590.435 54.8703C590.381 54.9696 590.319 55.0089 590.331 55.0015C590.358 54.9848 590.477 54.9209 590.753 54.8639C591.027 54.8074 591.406 54.7677 591.91 54.7677V52.5254ZM588.23 54.8054H585.988C585.988 55.8811 586.348 56.9407 587.19 57.766C587.973 58.5346 588.979 58.9086 589.934 59.0888L590.35 56.8854L590.766 54.6819C590.548 54.6409 590.417 54.5941 590.347 54.5627C590.281 54.5325 590.29 54.5249 590.33 54.5648C590.376 54.6099 590.423 54.6767 590.452 54.7512C590.479 54.8201 590.472 54.8484 590.472 54.8054H588.23ZM590.35 56.8854L589.916 59.0853L592.956 59.6853L593.39 57.4854L593.824 55.2855L590.784 54.6855L590.35 56.8854ZM593.39 57.4854L592.936 59.6814C595.116 60.1314 596.394 60.8747 597.105 61.6844L598.79 60.2054L600.475 58.7263C598.893 56.9227 596.571 55.8527 593.843 55.2894L593.39 57.4854ZM598.79 60.2054L597.122 61.7035C597.824 62.4858 598.308 63.6919 598.308 65.6054H600.55H602.792C602.792 62.9322 602.103 60.5383 600.458 58.7072L598.79 60.2054ZM600.55 65.6054H598.308C598.308 68.1878 597.556 69.7259 596.404 70.6744L597.83 72.4054L599.255 74.1363C601.73 72.0982 602.792 69.103 602.792 65.6054H600.55ZM597.83 72.4054L596.42 70.6619C595.185 71.6603 593.009 72.363 589.47 72.363V74.6054V76.8477C593.451 76.8477 596.848 76.0838 599.24 74.1488L597.83 72.4054ZM603.883 74.0054H601.641V76.2477H603.883V74.0054ZM603.883 47.0454V44.803H601.641V47.0454H603.883ZM611.563 47.0454H613.806V44.803H611.563V47.0454ZM611.563 74.0054V76.2477H613.806V74.0054H611.563ZM603.883 74.0054H606.126V47.0454H603.883H601.641V74.0054H603.883ZM603.883 47.0454V49.2877H611.563V47.0454V44.803H603.883V47.0454ZM611.563 47.0454H609.321V74.0054H611.563H613.806V47.0454H611.563ZM611.563 74.0054V71.763H603.883V74.0054V76.2477H611.563V74.0054ZM618.365 71.0054L616.679 72.4846L618.365 71.0054ZM618.365 50.0454L616.679 48.5661V48.5661L618.365 50.0454ZM636.765 50.0454L638.45 48.5661V48.5661L636.765 50.0454ZM630.925 66.7254L632.885 67.8144L632.89 67.8053L632.895 67.7961L630.925 66.7254ZM630.925 54.3654L628.954 55.4361L628.959 55.4453L628.964 55.4543L630.925 54.3654ZM624.205 54.3654L626.165 55.4543L626.17 55.4453L626.175 55.4361L624.205 54.3654ZM624.205 66.7254L622.234 67.7961L622.239 67.8053L622.244 67.8144L624.205 66.7254ZM627.565 74.6054V72.363C624.002 72.363 621.624 71.3198 620.05 69.5261L618.365 71.0054L616.679 72.4846C619.318 75.4909 623.074 76.8477 627.565 76.8477V74.6054ZM618.365 71.0054L620.05 69.5261C618.431 67.6824 617.447 64.8019 617.447 60.5254H615.205H612.962C612.962 65.4222 614.085 69.5284 616.679 72.4846L618.365 71.0054ZM615.205 60.5254H617.447C617.447 56.2488 618.431 53.3684 620.05 51.5246L618.365 50.0454L616.679 48.5661C614.085 51.5224 612.962 55.6286 612.962 60.5254H615.205ZM618.365 50.0454L620.05 51.5246C621.624 49.7309 624.002 48.6877 627.565 48.6877V46.4454V44.203C623.074 44.203 619.318 45.5598 616.679 48.5661L618.365 50.0454ZM627.565 46.4454V48.6877C631.127 48.6877 633.505 49.7309 635.079 51.5246L636.765 50.0454L638.45 48.5661C635.811 45.5598 632.056 44.203 627.565 44.203V46.4454ZM636.765 50.0454L635.079 51.5246C636.698 53.3684 637.682 56.2488 637.682 60.5254H639.925H642.167C642.167 55.6286 641.045 51.5224 638.45 48.5661L636.765 50.0454ZM639.925 60.5254H637.682C637.682 64.8019 636.698 67.6824 635.079 69.5261L636.765 71.0054L638.45 72.4846C641.045 69.5284 642.167 65.4222 642.167 60.5254H639.925ZM636.765 71.0054L635.079 69.5261C633.505 71.3198 631.127 72.363 627.565 72.363V74.6054V76.8477C632.056 76.8477 635.811 75.4909 638.45 72.4846L636.765 71.0054ZM627.565 68.5254V70.7677C629.809 70.7677 631.758 69.8435 632.885 67.8144L630.925 66.7254L628.964 65.6364C628.758 66.0073 628.467 66.283 627.565 66.283V68.5254ZM630.925 66.7254L632.895 67.7961C633.848 66.0421 634.167 63.4838 634.167 60.5254H631.925H629.682C629.682 63.3802 629.335 64.9553 628.954 65.6546L630.925 66.7254ZM631.925 60.5254H634.167C634.167 57.5743 633.85 55.0145 632.885 53.2764L630.925 54.3654L628.964 55.4543C629.332 56.1162 629.682 57.6631 629.682 60.5254H631.925ZM630.925 54.3654L632.895 53.2946C631.779 51.2407 629.833 50.283 627.565 50.283V52.5254V54.7677C628.443 54.7677 628.737 55.0367 628.954 55.4361L630.925 54.3654ZM627.565 52.5254V50.283C625.297 50.283 623.351 51.2407 622.234 53.2946L624.205 54.3654L626.175 55.4361C626.392 55.0367 626.686 54.7677 627.565 54.7677V52.5254ZM624.205 54.3654L622.244 53.2764C621.279 55.0145 620.962 57.5743 620.962 60.5254H623.205H625.447C625.447 57.6631 625.797 56.1162 626.165 55.4543L624.205 54.3654ZM623.205 60.5254H620.962C620.962 63.4838 621.281 66.0421 622.234 67.7961L624.205 66.7254L626.175 65.6546C625.795 64.9553 625.447 63.3802 625.447 60.5254H623.205ZM624.205 66.7254L622.244 67.8144C623.372 69.8435 625.321 70.7677 627.565 70.7677V68.5254V66.283C626.662 66.283 626.371 66.0073 626.165 65.6364L624.205 66.7254ZM643.572 74.0054H641.33V76.2477H643.572V74.0054ZM643.572 47.0454V44.803H641.33V47.0454H643.572ZM651.572 47.0454L653.567 46.0199L652.941 44.803H651.572V47.0454ZM660.252 63.9254L658.258 64.9508L662.495 63.9254H660.252ZM660.252 47.0454V44.803H658.01V47.0454H660.252ZM666.932 47.0454H669.175V44.803H666.932V47.0454ZM666.932 74.0054V76.2477H669.175V74.0054H666.932ZM658.932 74.0054L656.938 75.0308L657.564 76.2477H658.932V74.0054ZM650.252 57.1254L652.247 56.0999L648.01 57.1254H650.252ZM650.252 74.0054V76.2477H652.495V74.0054H650.252ZM643.572 74.0054H645.815V47.0454H643.572H641.33V74.0054H643.572ZM643.572 47.0454V49.2877H651.572V47.0454V44.803H643.572V47.0454ZM651.572 47.0454L649.578 48.0708L658.258 64.9508L660.252 63.9254L662.247 62.8999L653.567 46.0199L651.572 47.0454ZM660.252 63.9254H662.495V47.0454H660.252H658.01V63.9254H660.252ZM660.252 47.0454V49.2877H666.932V47.0454V44.803H660.252V47.0454ZM666.932 47.0454H664.69V74.0054H666.932H669.175V47.0454H666.932ZM666.932 74.0054V71.763H658.932V74.0054V76.2477H666.932V74.0054ZM658.932 74.0054L660.927 72.9799L652.247 56.0999L650.252 57.1254L648.258 58.1508L656.938 75.0308L658.932 74.0054ZM650.252 57.1254H648.01V74.0054H650.252H652.495V57.1254H650.252ZM650.252 74.0054V71.763H643.572V74.0054V76.2477H650.252V74.0054ZM670.558 73.0454L668.377 72.5226L667.923 74.4175L669.736 75.1317L670.558 73.0454ZM671.958 67.2054L672.763 65.1125L670.374 64.1937L669.777 66.6826L671.958 67.2054ZM675.278 68.1654L674.828 70.3622L674.857 70.368L674.885 70.3731L675.278 68.1654ZM681.958 67.8854L680.837 65.9431L680.821 65.9527L680.804 65.9626L681.958 67.8854ZM681.158 63.9254L680.713 66.1232L680.72 66.1246L680.727 66.126L681.158 63.9254ZM677.598 63.2054L677.148 65.4021L677.153 65.4032L677.598 63.2054ZM673.678 48.8054L675.133 50.5114L675.14 50.5053L675.147 50.4991L673.678 48.8054ZM689.638 47.8854L691.812 48.4328L692.296 46.51L690.447 45.7942L689.638 47.8854ZM688.198 53.6054L687.381 55.6935L689.751 56.621L690.372 54.1528L688.198 53.6054ZM680.158 56.8854L680.592 54.6855L680.583 54.6836L680.573 54.6819L680.158 56.8854ZM683.198 57.4854L683.651 55.2894L683.642 55.2874L683.632 55.2855L683.198 57.4854ZM688.598 60.2054L686.912 61.6844L686.921 61.694L686.929 61.7035L688.598 60.2054ZM687.638 72.4054L689.048 74.1488L689.056 74.1426L689.063 74.1363L687.638 72.4054ZM679.278 74.6054V72.363C676.353 72.363 673.729 71.8845 671.38 70.9591L670.558 73.0454L669.736 75.1317C672.667 76.2863 675.856 76.8477 679.278 76.8477V74.6054ZM670.558 73.0454L672.738 73.5681L674.138 67.7281L671.958 67.2054L669.777 66.6826L668.377 72.5226L670.558 73.0454ZM671.958 67.2054L671.153 69.2983C672.316 69.7458 673.543 70.0993 674.828 70.3622L675.278 68.1654L675.727 65.9685C674.666 65.7515 673.679 65.4649 672.763 65.1125L671.958 67.2054ZM675.278 68.1654L674.885 70.3731C676.193 70.6057 677.446 70.7277 678.638 70.7277V68.4854V66.243C677.749 66.243 676.762 66.1518 675.67 65.9576L675.278 68.1654ZM678.638 68.4854V70.7277C680.261 70.7277 681.893 70.5389 683.111 69.8082L681.958 67.8854L680.804 65.9626C680.689 66.0318 680.108 66.243 678.638 66.243V68.4854ZM681.958 67.8854L683.078 69.8277C684.57 68.9672 685.24 67.5056 685.24 65.9254H682.998H680.755C680.755 66.0099 680.747 66.0558 680.744 66.0714C680.741 66.0854 680.742 66.0727 680.757 66.0443C680.764 66.0308 680.773 66.0161 680.784 66.0011C680.795 65.9862 680.807 65.9732 680.817 65.9624C680.839 65.9399 680.851 65.9354 680.837 65.9431L681.958 67.8854ZM682.998 65.9254H685.24C685.24 64.9391 684.951 63.9167 684.188 63.0872C683.455 62.2909 682.496 61.9024 681.588 61.7247L681.158 63.9254L680.727 66.126C680.88 66.1559 680.953 66.1876 680.972 66.1968C680.986 66.2038 680.945 66.1857 680.888 66.1236C680.86 66.0936 680.834 66.0591 680.812 66.0217C680.79 65.9844 680.775 65.9504 680.765 65.9233C680.746 65.8689 680.755 65.8607 680.755 65.9254H682.998ZM681.158 63.9254L681.602 61.7275L678.042 61.0075L677.598 63.2054L677.153 65.4032L680.713 66.1232L681.158 63.9254ZM677.598 63.2054L678.048 61.0086C676.178 60.6257 675.032 59.9295 674.34 59.099C673.653 58.2754 673.2 57.0672 673.2 55.2454H670.958H668.715C668.715 57.8236 669.37 60.142 670.896 61.9717C672.416 63.7946 674.591 64.8784 677.148 65.4021L677.598 63.2054ZM670.958 55.2454H673.2C673.2 53.0439 673.898 51.5647 675.133 50.5114L673.678 48.8054L672.223 47.0993C669.831 49.1393 668.715 51.9536 668.715 55.2454H670.958ZM673.678 48.8054L675.147 50.4991C676.437 49.3802 678.348 48.6877 681.158 48.6877V46.4454V44.203C677.621 44.203 674.545 45.0839 672.208 47.1117L673.678 48.8054ZM681.158 46.4454V48.6877C684.107 48.6877 686.651 49.1337 688.828 49.9765L689.638 47.8854L690.447 45.7942C687.664 44.717 684.556 44.203 681.158 44.203V46.4454ZM689.638 47.8854L687.463 47.3379L686.023 53.0579L688.198 53.6054L690.372 54.1528L691.812 48.4328L689.638 47.8854ZM688.198 53.6054L689.015 51.5172C686.857 50.673 684.409 50.283 681.718 50.283V52.5254V54.7677C683.987 54.7677 685.858 55.0978 687.381 55.6935L688.198 53.6054ZM681.718 52.5254V50.283C680.332 50.283 678.914 50.4845 677.777 51.1892C676.462 52.0038 675.795 53.3192 675.795 54.8054H678.038H680.28C680.28 54.7315 680.293 54.7761 680.242 54.8703C680.189 54.9696 680.127 55.0089 680.139 55.0015C680.166 54.9848 680.285 54.9209 680.561 54.8639C680.835 54.8074 681.213 54.7677 681.718 54.7677V52.5254ZM678.038 54.8054H675.795C675.795 55.8811 676.156 56.9407 676.997 57.766C677.781 58.5346 678.787 58.9086 679.742 59.0888L680.158 56.8854L680.573 54.6819C680.356 54.6409 680.225 54.5941 680.155 54.5627C680.089 54.5325 680.098 54.5249 680.138 54.5648C680.184 54.6099 680.231 54.6767 680.26 54.7512C680.286 54.8201 680.28 54.8484 680.28 54.8054H678.038ZM680.158 56.8854L679.724 59.0853L682.764 59.6853L683.198 57.4854L683.632 55.2855L680.592 54.6855L680.158 56.8854ZM683.198 57.4854L682.744 59.6814C684.923 60.1314 686.202 60.8747 686.912 61.6844L688.598 60.2054L690.283 58.7263C688.7 56.9227 686.379 55.8527 683.651 55.2894L683.198 57.4854ZM688.598 60.2054L686.929 61.7035C687.632 62.4858 688.115 63.6919 688.115 65.6054H690.358H692.6C692.6 62.9322 691.91 60.5383 690.266 58.7072L688.598 60.2054ZM690.358 65.6054H688.115C688.115 68.1878 687.364 69.7259 686.212 70.6744L687.638 72.4054L689.063 74.1363C691.538 72.0982 692.6 69.103 692.6 65.6054H690.358ZM687.638 72.4054L686.228 70.6619C684.993 71.6603 682.817 72.363 679.278 72.363V74.6054V76.8477C683.258 76.8477 686.656 76.0838 689.048 74.1488L687.638 72.4054Z" fill="#3B3B3B" mask="url(#path-5-outside-1_604_2714)"/>
</g>
<defs>
<filter id="filter0_d_604_2714" x="0.795593" y="0.792969" width="856.327" height="150.042" filterUnits="userSpaceOnUse" color-interpolation-filters="sRGB">
<feFlood flood-opacity="0" result="BackgroundImageFix"/>
<feColorMatrix in="SourceAlpha" type="matrix" values="0 0 0 0 0 0 0 0 0 0 0 0 0 0 0 0 0 0 127 0" result="hardAlpha"/>
<feOffset dy="8.82814"/>
<feComposite in2="hardAlpha" operator="out"/>
<feColorMatrix type="matrix" values="0 0 0 0 0 0 0 0 0 0 0 0 0 0 0 0 0 0 0.25 0"/>
<feBlend mode="normal" in2="BackgroundImageFix" result="effect1_dropShadow_604_2714"/>
<feBlend mode="normal" in="SourceGraphic" in2="effect1_dropShadow_604_2714" result="shape"/>
</filter>
<filter id="filter1_ddd_604_2714" x="160.016" y="42.5212" width="538.19" height="43.8564" filterUnits="userSpaceOnUse" color-interpolation-filters="sRGB">
<feFlood flood-opacity="0" result="BackgroundImageFix"/>
<feColorMatrix in="SourceAlpha" type="matrix" values="0 0 0 0 0 0 0 0 0 0 0 0 0 0 0 0 0 0 127 0" result="hardAlpha"/>
<feOffset dy="2.20703"/>
<feComposite in2="hardAlpha" operator="out"/>
<feColorMatrix type="matrix" values="0 0 0 0 0 0 0 0 0 0 0 0 0 0 0 0 0 0 1 0"/>
<feBlend mode="normal" in2="BackgroundImageFix" result="effect1_dropShadow_604_2714"/>
<feColorMatrix in="SourceAlpha" type="matrix" values="0 0 0 0 0 0 0 0 0 0 0 0 0 0 0 0 0 0 127 0" result="hardAlpha"/>
<feOffset dy="2.20703"/>
<feComposite in2="hardAlpha" operator="out"/>
<feColorMatrix type="matrix" values="0 0 0 0 0 0 0 0 0 0 0 0 0 0 0 0 0 0 1 0"/>
<feBlend mode="normal" in2="effect1_dropShadow_604_2714" result="effect2_dropShadow_604_2714"/>
<feColorMatrix in="SourceAlpha" type="matrix" values="0 0 0 0 0 0 0 0 0 0 0 0 0 0 0 0 0 0 127 0" result="hardAlpha"/>
<feOffset dy="3.92411"/>
<feGaussianBlur stdDeviation="2.80293"/>
<feComposite in2="hardAlpha" operator="out"/>
<feColorMatrix type="matrix" values="0 0 0 0 0 0 0 0 0 0 0 0 0 0 0 0 0 0 0.8 0"/>
<feBlend mode="normal" in2="effect2_dropShadow_604_2714" result="effect3_dropShadow_604_2714"/>
<feBlend mode="normal" in="SourceGraphic" in2="effect3_dropShadow_604_2714" result="shape"/>
</filter>
<linearGradient id="paint0_linear_604_2714" x1="3.02118" y1="59.7657" x2="854.895" y2="59.7656" gradientUnits="userSpaceOnUse">
<stop stop-color="#4B42A2"/>
<stop offset="0.475" stop-color="#8383FF"/>
<stop offset="1" stop-color="#4C43A3"/>
</linearGradient>
<radialGradient id="paint1_radial_604_2714" cx="0" cy="0" r="1" gradientUnits="userSpaceOnUse" gradientTransform="translate(428.958 82.9639) rotate(-90) scale(95.1863 2485.74)">
<stop offset="0.431628" stop-color="white" stop-opacity="0.26"/>
<stop offset="1" stop-color="white"/>
</radialGradient>
</defs>
</svg>
