<svg width="390" height="844" viewBox="0 0 390 844" fill="none" xmlns="http://www.w3.org/2000/svg">
<rect width="390" height="844" fill="#D9D9D9"/>
<rect width="390" height="844" fill="url(#paint0_linear_321_8447)"/>
<mask id="mask0_321_8447" style="mask-type:alpha" maskUnits="userSpaceOnUse" x="0" y="0" width="390" height="844">
<rect width="390" height="844" fill="#D9D9D9"/>
<rect width="390" height="844" fill="url(#paint1_linear_321_8447)"/>
</mask>
<g mask="url(#mask0_321_8447)">
<mask id="mask1_321_8447" style="mask-type:luminance" maskUnits="userSpaceOnUse" x="-1" y="261" width="391" height="787">
<path d="M-6.10352e-05 1048L390 1048L390 261L-0.000129837 261L-6.10352e-05 1048Z" fill="white"/>
</mask>
<g mask="url(#mask1_321_8447)">
<g opacity="0.6">
<path d="M-82.3895 840.869C-81.0401 842.133 -79.6907 843.397 -78.6412 844.361C-78.1539 844.832 -77.7041 845.218 -77.4042 845.496C-77.1044 845.775 -76.917 845.925 -76.917 845.925C-76.917 845.925 -70.1325 840.312 -59.9372 831.871C-49.7044 823.473 -35.9857 812.311 -22.117 801.278C5.54529 779.169 33.8823 757.66 33.8823 757.66C33.8823 757.66 4.04597 777.755 -26.3901 797.25C-56.7887 816.81 -87.787 835.77 -87.787 835.77C-87.787 835.77 -85.0882 838.319 -82.3895 840.869Z" fill="#151342"/>
<path d="M-105.067 817.497C-103.867 818.868 -102.668 820.239 -101.768 821.268C-100.869 822.296 -100.231 822.96 -100.231 822.96C-100.231 822.96 -88.7243 815.44 -71.4072 804.15C-54.0902 792.903 -30.8508 778.013 -7.46147 763.317C15.9278 748.62 39.467 734.095 57.2339 723.319C75.0008 712.564 86.8828 705.409 86.8828 705.409C86.8828 705.409 74.7383 712.264 56.5592 722.526C38.305 732.745 13.9037 746.264 -10.685 759.589C-35.2737 772.914 -60.0124 786.047 -78.6414 795.816C-97.3078 805.521 -109.752 812.013 -109.752 812.013C-109.752 812.013 -107.353 814.755 -104.992 817.518L-105.067 817.497Z" fill="#151342"/>
<path d="M-128.569 787.074C-127.819 788.167 -126.77 789.645 -125.758 791.102C-123.696 794.015 -121.634 796.95 -121.634 796.95C-121.634 796.95 -107.166 789.452 -85.501 778.205C-63.7985 767.021 -34.7118 752.239 -5.47515 737.693C23.7615 723.146 53.148 708.835 75.2629 698.209C97.4152 687.647 112.221 680.599 112.221 680.599C112.221 680.599 97.2653 687.369 74.8131 697.523C52.3234 707.614 22.2246 720.939 -8.02402 734.008C-38.2727 747.098 -68.7087 759.93 -91.5732 769.442C-114.475 778.89 -129.768 785.189 -129.768 785.189C-129.768 785.189 -129.318 785.939 -128.531 787.031L-128.569 787.074Z" fill="#151342"/>
<path d="M-138.725 770.728C-138.088 771.885 -137.226 773.428 -136.251 774.927C-134.377 777.948 -132.503 780.947 -132.503 780.947C-132.503 780.947 -120.021 775.249 -101.355 766.679C-82.6133 758.174 -57.5748 746.948 -32.3863 735.915C-7.19784 724.882 18.1031 714.063 37.1069 706.05C56.1857 698.081 68.8923 692.768 68.8923 692.768C68.8923 692.768 55.9607 697.717 36.5446 705.151C17.091 712.542 -8.88454 722.247 -34.9351 731.759C-61.0232 741.271 -87.2237 750.569 -106.902 757.446C-126.618 764.28 -139.775 768.822 -139.775 768.822C-139.775 768.822 -139.362 769.593 -138.688 770.75L-138.725 770.728Z" fill="#151342"/>
<path d="M-128.494 497.493C-129.543 498.95 -130.443 500.471 -131.155 501.585C-131.867 502.72 -132.354 503.47 -132.354 503.47C-132.354 503.47 -119.46 508.505 -100.157 516.067C-80.8529 523.673 -55.2147 533.956 -29.6888 544.432C-4.16303 554.908 21.2128 565.577 40.2166 573.675C59.183 581.838 71.8147 587.279 71.8147 587.279C71.8147 587.279 59.4079 581.495 40.8164 572.818C22.2624 564.099 -2.40131 552.337 -26.9151 540.362C-51.4289 528.407 -75.8302 516.26 -94.0843 507.048C-112.264 497.793 -124.408 491.623 -124.408 491.623C-124.408 491.623 -126.47 494.558 -128.494 497.493Z" fill="#151342"/>
<path d="M-167.062 700.096C-166.687 701.767 -166.312 703.417 -165.937 704.659C-165.6 705.902 -165.375 706.716 -165.375 706.716C-165.375 706.716 -154.655 704.402 -138.575 700.931C-122.457 697.504 -100.98 693.048 -79.427 688.784C-57.8744 684.5 -36.2468 680.365 -20.0167 677.365C-3.78665 674.409 7.0459 672.417 7.0459 672.417C7.0459 672.417 -3.89913 673.895 -20.2791 676.123C-36.6966 678.308 -58.624 681.115 -80.5515 683.728C-102.516 686.363 -124.481 688.806 -141.011 690.584C-157.541 692.298 -168.524 693.455 -168.524 693.455C-168.524 693.455 -167.774 696.775 -167.062 700.096Z" fill="#151342"/>
<path d="M-97.1585 458.46C-98.4329 459.788 -99.6699 461.117 -100.644 462.123C-101.544 463.152 -102.144 463.837 -102.144 463.837C-102.144 463.837 -92.3982 469.215 -77.8174 477.249C-63.274 485.325 -43.9329 496.208 -24.7042 507.263C-5.4755 518.296 13.6033 529.479 27.8468 537.942C42.0528 546.447 51.5359 552.103 51.5359 552.103C51.5359 552.103 42.4276 546.061 28.7463 536.999C15.1026 527.894 -2.96417 515.682 -20.9184 503.3C-38.8727 490.938 -56.6771 478.427 -69.9835 468.958C-83.2524 459.467 -92.0609 453.147 -92.0609 453.147C-92.0609 453.147 -94.6097 455.804 -97.1585 458.439L-97.1585 458.46Z" fill="#151342"/>
<path d="M-78.416 440.121C-81.1147 442.649 -83.851 445.198 -83.851 445.198C-83.851 445.198 -71.819 453.21 -53.7523 465.229C-35.7605 477.291 -11.8839 493.487 11.8052 509.876C35.4944 526.243 58.9961 542.825 76.5006 555.315C93.9676 567.869 105.625 576.225 105.625 576.225C105.625 576.225 94.2675 567.591 77.2502 554.63C60.2705 541.626 37.7808 524.187 15.4785 506.555C-6.82375 488.924 -28.9386 471.121 -45.3936 457.688C-61.8111 444.213 -72.7561 435.215 -72.7561 435.215C-72.7561 435.215 -75.6048 437.635 -78.416 440.121Z" fill="#151342"/>
<path d="M-50.3044 417.39C-51.4664 418.225 -53.0407 419.318 -54.5025 420.475C-57.5011 422.789 -60.4998 425.102 -60.4998 425.102C-60.4998 425.102 -50.4918 433.051 -35.4612 445.005C-20.5056 456.981 -0.639663 473.048 19.0013 489.266C38.6424 505.484 58.0959 521.83 72.6018 534.17L96.6658 554.801C96.6658 554.801 87.4075 546.253 73.5014 533.463C59.6327 520.609 41.3411 503.427 23.1994 486.074C5.05771 468.742 -12.8591 451.239 -26.203 438.064C-39.5094 424.845 -48.3553 416.019 -48.3553 416.019C-48.3553 416.019 -49.1425 416.576 -50.3044 417.411L-50.3044 417.39Z" fill="#151342"/>
<path d="M-46.2181 414.475C-49.3291 416.682 -52.4402 418.91 -52.4402 418.91C-52.4402 418.91 -23.6908 442.283 4.30886 466.213C32.3835 490.079 59.7085 514.48 59.7085 514.48C59.7085 514.48 34.0702 488.879 9.18158 462.764C-15.782 436.691 -39.9584 410.105 -39.9584 410.105C-39.9584 410.105 -43.0695 412.29 -46.2181 414.497L-46.2181 414.475Z" fill="#151342"/>
<path d="M-25.7907 401C-29.0517 403.078 -32.3126 405.135 -32.3126 405.135C-32.3126 405.135 -25.116 411.99 -14.3584 422.273C-3.60081 432.6 10.6052 446.418 24.6238 460.343C38.6799 474.268 52.5485 488.301 62.8938 498.884C73.1641 509.489 80.0234 516.559 80.0234 516.559C80.0234 516.559 73.6514 509.189 64.0932 498.134C54.5726 487.058 42.0158 472.233 29.6465 457.28C17.2397 442.347 5.02025 427.308 -4.0506 415.975L-19.1187 397.058C-19.1187 397.058 -22.4547 399.029 -25.8281 401L-25.7907 401Z" fill="#151342"/>
<path d="M-7.19865 390.397C-8.92287 391.319 -10.6846 392.218 -11.959 392.947C-13.2334 393.675 -14.058 394.147 -14.058 394.147C-14.058 394.147 -8.81039 399.674 -0.901511 407.986C6.96989 416.32 17.3151 427.439 27.6229 438.686C48.201 461.138 68.0669 483.997 68.0669 483.997C68.0669 483.997 50.3 460.046 33.2828 435.708C16.1906 411.414 -0.226846 386.755 -0.226846 386.755C-0.226846 386.755 -3.71275 388.576 -7.19865 390.397Z" fill="#151342"/>
<path d="M26.0865 374.541C24.2499 375.313 22.4132 376.084 21.0263 376.684C19.6395 377.262 18.7399 377.669 18.7399 377.669C18.7399 377.669 25.7867 387.417 36.3193 402.049C46.8145 416.703 60.6832 436.327 74.2895 456.037C87.9332 475.746 101.315 495.563 111.21 510.474C121.068 525.406 127.665 535.368 127.665 535.368C127.665 535.368 121.555 525.213 112.372 510.003C103.226 494.749 91.2317 474.375 79.4621 453.894C67.6925 433.413 56.1477 412.825 47.6017 397.336C39.1305 381.825 33.4707 371.499 33.4707 371.499C33.4707 371.499 29.7973 373.02 26.0865 374.563L26.0865 374.541Z" fill="#151342"/>
<path d="M53.4101 364.131C51.9482 364.581 50.0741 365.267 48.1625 365.952L40.6284 368.738C40.6284 368.738 48.0875 381.056 59.2949 399.502C70.4273 417.99 85.0456 442.713 99.4015 467.565C113.757 492.394 127.814 517.353 138.196 536.099C148.504 554.887 155.401 567.398 155.401 567.398C155.401 567.398 148.879 554.737 139.096 535.756C129.388 516.753 116.644 491.302 104.199 465.808C91.755 440.314 79.6106 414.713 70.6522 395.453C61.7688 376.172 55.8465 363.339 55.8465 363.339C55.8465 363.339 54.8719 363.66 53.4476 364.131L53.4101 364.131Z" fill="#151342"/>
<path d="M75.3008 357.381C73.3517 357.938 71.3652 358.473 69.9033 358.902C68.4415 359.309 67.4669 359.609 67.4669 359.609C67.4669 359.609 72.2647 369.121 79.4614 383.367C86.5832 397.657 95.9914 416.724 105.1 435.898C114.246 455.051 123.166 474.268 129.726 488.707C136.248 503.168 140.596 512.809 140.596 512.809C140.596 512.809 136.773 503.018 131.038 488.343C125.378 473.646 117.956 454.022 110.76 434.313C103.563 414.624 96.6286 394.85 91.5309 380.004C86.4707 365.136 83.1348 355.238 83.1348 355.238C83.1348 355.238 79.199 356.309 75.2633 357.381L75.3008 357.381Z" fill="#151342"/>
<path d="M107.312 349.691C103.264 350.419 99.2907 351.362 99.2907 351.362C99.2907 351.362 103.489 362.695 109.823 379.684C116.083 396.694 124.217 419.403 132.088 442.198C139.997 464.993 147.606 487.852 153.191 505.033C158.701 522.215 162.374 533.677 162.374 533.677C162.374 533.677 159.151 522.129 154.353 504.819C149.63 487.488 143.445 464.35 137.598 441.148C131.713 417.968 126.128 394.723 122.043 377.263C118.032 359.803 115.371 348.149 115.371 348.149C115.371 348.149 111.323 348.92 107.312 349.67L107.312 349.691Z" fill="#151342"/>
<path d="M123.467 346.777C121.443 347.056 119.419 347.42 117.882 347.72C116.383 347.998 115.371 348.191 115.371 348.191C115.371 348.191 125.753 378.634 135.237 409.227C139.997 424.523 144.57 439.863 147.906 451.41C151.204 462.957 153.416 470.648 153.416 470.648C153.416 470.648 147.081 439.52 141.684 408.242C136.211 376.985 131.638 345.578 131.638 345.578C131.638 345.578 127.553 346.177 123.504 346.777L123.467 346.777Z" fill="#151342"/>
<path d="M399.601 391.574C398.289 390.889 396.565 389.967 394.841 389.046C391.355 387.225 387.869 385.426 387.869 385.426C387.869 385.426 381.685 394.381 372.426 407.835C363.093 421.246 350.536 439.07 337.792 456.788C325.048 474.505 312.079 492.115 302.258 505.269L285.803 527.164C285.803 527.164 292.85 518.659 303.42 505.89C314.066 493.143 328.346 476.24 342.852 459.444C357.358 442.627 372.051 425.938 383.184 413.469L401.775 392.731C401.775 392.731 400.913 392.26 399.601 391.574Z" fill="#151342"/>
<path d="M421.942 404.772C420.331 403.744 418.681 402.694 417.482 401.923C416.283 401.152 415.42 400.659 415.42 400.659C415.42 400.659 407.137 410.385 394.692 424.953C382.211 439.5 365.381 458.824 348.364 477.998C331.346 497.194 314.104 516.239 301.06 530.443L279.245 554.073C279.245 554.073 288.354 544.861 302.035 531.043C315.754 517.268 334.195 498.972 352.824 480.826C371.453 462.68 390.344 444.684 404.588 431.252C418.906 417.862 428.427 408.928 428.427 408.928C428.427 408.928 425.203 406.829 421.942 404.751L421.942 404.772Z" fill="#151342"/>
<path d="M434.687 413.275C433.113 412.183 431.538 411.09 430.377 410.254C429.215 409.44 428.39 408.926 428.39 408.926C428.39 408.926 405.6 434.442 381.986 459.507C358.484 484.616 334.233 509.231 334.233 509.231C334.233 509.231 360.209 485.858 386.934 462.999C413.584 440.076 440.909 417.688 440.909 417.688C440.909 417.688 437.798 415.482 434.687 413.275Z" fill="#151342"/>
<path d="M159.675 342.449C157.613 342.556 155.589 342.791 154.015 342.941C152.478 343.091 151.466 343.198 151.466 343.198C151.466 343.198 153.677 355.11 156.938 372.977C160.162 390.844 164.285 414.71 168.108 438.576C171.969 462.442 175.492 486.329 178.041 504.304C180.515 522.257 182.164 534.232 182.164 534.232C182.164 534.232 181.002 522.235 179.241 504.239C177.554 486.244 175.492 462.206 173.731 438.169C171.931 414.132 170.432 390.073 169.458 372.013C168.521 353.953 167.921 341.913 167.921 341.913C167.921 341.913 163.798 342.17 159.712 342.449L159.675 342.449Z" fill="#151342"/>
<path d="M197.832 341.1C195.771 341.057 193.709 341.079 192.172 341.1C190.635 341.122 189.623 341.143 189.623 341.143C189.623 341.143 190.336 355.111 191.385 376.042C192.36 396.994 193.447 424.909 194.234 452.846C195.021 480.76 195.471 508.718 195.658 529.692C195.771 550.666 195.846 564.634 195.846 564.634C195.846 564.634 196.183 550.666 196.633 529.713C197.195 508.761 198.132 480.846 199.444 452.91C200.718 424.995 202.33 397.08 203.679 376.128C205.104 355.197 206.078 341.25 206.078 341.25C206.078 341.25 201.955 341.164 197.87 341.1L197.832 341.1Z" fill="#151342"/>
<path d="M220.135 341.786C218.073 341.679 216.012 341.55 214.475 341.465C212.938 341.4 211.926 341.379 211.926 341.379C211.926 341.379 211.739 353.033 211.476 370.537C211.139 388.018 210.502 411.37 209.602 434.7C208.703 458.03 207.541 481.339 206.529 498.821C205.442 516.303 204.729 527.957 204.729 527.957C204.729 527.957 205.929 516.345 207.766 498.907C209.64 481.489 212.338 458.266 215.262 435.043C218.186 411.841 221.409 388.639 223.958 371.265C226.582 353.89 228.306 342.3 228.306 342.3C228.306 342.3 224.183 342.043 220.097 341.786L220.135 341.786Z" fill="#151342"/>
<path d="M447.768 422.854C446.269 421.697 444.77 420.54 443.645 419.683C442.521 418.826 441.734 418.291 441.734 418.291C441.734 418.291 417.482 442.885 392.444 467.029C367.518 491.195 341.842 514.847 341.842 514.847C341.842 514.847 369.167 492.502 397.167 470.693C425.091 448.841 453.728 427.524 453.728 427.524C453.728 427.524 450.767 425.189 447.768 422.875L447.768 422.854Z" fill="#151342"/>
<path d="M473.108 444.318C471.759 443.054 470.409 441.791 469.36 440.826C468.348 439.862 467.635 439.263 467.635 439.263C467.635 439.263 457.065 447.661 441.21 460.258C425.28 472.812 403.915 489.458 382.4 505.933C360.847 522.407 339.144 538.711 322.764 550.858C306.347 562.962 295.364 571.018 295.364 571.018C295.364 571.018 306.647 563.241 323.514 551.586C340.456 539.975 363.171 524.593 386.073 509.403C408.975 494.193 432.027 479.175 449.419 467.992C466.848 456.851 478.468 449.417 478.468 449.417C478.468 449.417 475.769 446.868 473.07 444.318L473.108 444.318Z" fill="#151342"/>
<path d="M500.019 472.704C499.12 471.676 497.958 470.283 496.758 468.912C494.359 466.17 491.96 463.428 491.96 463.428C491.96 463.428 478.466 472.04 458.226 484.937C437.948 497.791 410.772 514.802 383.373 531.576C356.01 548.372 328.46 564.933 307.695 577.251C286.892 589.527 273.023 597.689 273.023 597.689C273.023 597.689 287.117 589.763 308.257 577.894C329.435 566.068 357.809 550.429 386.409 535.025C414.971 519.6 443.72 504.433 465.347 493.142C487.013 481.916 501.481 474.44 501.481 474.44C501.481 474.44 500.919 473.733 500.019 472.704Z" fill="#151342"/>
<path d="M510.402 485.796C508.19 482.946 505.979 480.097 505.979 480.097C505.979 480.097 494.209 486.696 476.517 496.615C458.825 506.47 435.099 519.517 411.26 532.349C387.421 545.203 363.432 557.843 345.365 567.248C327.261 576.589 315.191 582.823 315.191 582.823C315.191 582.823 327.523 576.932 346.002 568.105C364.519 559.322 389.295 547.731 414.221 536.334C439.147 524.937 464.185 513.711 483.039 505.398C501.931 497.129 514.525 491.623 514.525 491.623L510.364 485.796L510.402 485.796Z" fill="#151342"/>
<path d="M255.818 345.172C253.794 344.894 251.733 344.572 250.196 344.422C248.659 344.251 247.647 344.144 247.647 344.144C247.647 344.144 246.897 351.321 245.735 362.097C244.536 372.873 242.849 387.184 240.975 401.538C237.264 430.245 232.729 458.824 232.729 458.824C232.729 458.824 239.738 430.588 247.572 402.48C255.331 374.351 263.989 346.372 263.989 346.372C263.989 346.372 259.904 345.772 255.856 345.194L255.818 345.172Z" fill="#151342"/>
<path d="M278.682 348.898C274.634 348.148 270.586 347.399 270.586 347.399C270.586 347.399 267.775 360.253 263.577 379.534C259.304 398.794 253.381 424.459 247.159 450.06C240.974 475.662 234.452 501.198 229.43 520.351C224.332 539.461 220.921 552.208 220.921 552.208C220.921 552.208 224.744 539.547 230.479 520.544C236.289 501.563 244.198 476.283 252.444 451.067C260.653 425.852 269.199 400.679 275.721 381.848C282.318 363.016 286.741 350.484 286.741 350.484C286.741 350.484 282.693 349.712 278.682 348.941L278.682 348.898Z" fill="#151342"/>
<path d="M307.958 355.476C306.496 355.069 304.509 354.533 302.523 354.083C298.549 353.141 294.539 352.22 294.539 352.22C294.539 352.22 287.192 380.092 279.021 407.771C270.924 435.472 261.966 462.979 261.966 462.979C261.966 462.979 264.852 456.252 269.163 446.162C273.511 436.071 279.396 422.682 285.468 409.335C297.537 382.62 310.431 356.14 310.431 356.14C310.431 356.14 309.457 355.883 307.958 355.476Z" fill="#151342"/>
<path d="M320.138 358.861C318.676 358.454 316.727 357.897 314.741 357.34C310.805 356.269 306.869 355.198 306.869 355.198C306.869 355.198 303.983 363.938 299.598 377.071C295.175 390.182 289.177 407.643 282.993 425.039C276.808 442.434 270.361 459.788 265.488 472.749C260.541 485.71 257.242 494.365 257.242 494.365C257.242 494.365 261.14 485.882 266.95 473.156C272.835 460.452 280.781 443.527 288.99 426.688C297.161 409.828 305.52 393.032 311.892 380.477C318.302 367.945 322.575 359.568 322.575 359.568C322.575 359.568 321.6 359.268 320.138 358.861Z" fill="#151342"/>
<path d="M-113.313 476.948C-115.525 479.797 -117.774 482.625 -117.774 482.625C-117.774 482.625 -108.103 487.102 -93.6346 493.808C-79.1662 500.556 -59.975 509.64 -40.8963 518.895C-21.8175 528.128 -2.85115 537.512 11.3174 544.625C25.4484 551.78 34.894 556.536 34.894 556.536C34.894 556.536 25.7857 551.352 12.142 543.575C-1.46428 535.755 -19.5685 525.258 -37.5228 514.589C-55.477 503.941 -73.2814 493.165 -86.5878 485.003C-99.8567 476.819 -108.703 471.356 -108.703 471.356C-108.703 471.356 -111.102 474.098 -113.313 476.948Z" fill="#151342"/>
<path d="M346.827 367.73C343.041 366.359 339.255 364.967 339.255 364.967C339.255 364.967 333.858 376.342 325.724 393.417C317.553 410.47 306.458 433.136 295.101 455.695C283.743 478.276 272.161 500.749 263.315 517.567C254.432 534.363 248.472 545.546 248.472 545.546C248.472 545.546 254.844 534.513 264.365 517.952C273.96 501.413 286.929 479.454 300.198 457.581C313.43 435.707 326.924 413.919 337.156 397.637C347.464 381.377 354.323 370.537 354.323 370.537C354.323 370.537 350.575 369.123 346.789 367.73L346.827 367.73Z" fill="#151342"/>
<path d="M378.613 380.991C375.015 379.32 371.416 377.649 371.416 377.649C371.416 377.649 363.62 390.096 351.963 408.778C340.193 427.416 324.375 452.203 308.22 476.841C292.103 501.499 275.648 526.008 263.203 544.325C250.684 562.621 242.325 574.811 242.325 574.811C242.325 574.811 251.021 562.77 264.028 544.71C277.109 526.693 294.764 502.742 312.718 478.94C330.635 455.138 348.852 431.465 362.645 413.769C376.514 396.116 385.772 384.355 385.772 384.355C385.772 384.355 382.211 382.662 378.613 380.97L378.613 380.991Z" fill="#151342"/>
<path d="M562.165 611.637C561.977 610.373 561.715 608.702 561.49 607.031C560.965 603.689 560.44 600.347 560.44 600.347C560.44 600.347 549.57 601.975 533.265 604.439C516.96 606.86 495.145 609.966 473.33 612.901C451.515 615.836 429.663 618.6 413.283 620.592C396.903 622.542 385.958 623.849 385.958 623.849C385.958 623.849 396.978 623.056 413.47 621.856C430 620.699 452.04 619.264 474.117 618C496.195 616.736 518.272 615.643 534.802 614.915C551.369 614.229 562.389 613.758 562.389 613.758L562.165 611.659L562.165 611.637Z" fill="#151342"/>
<path d="M563.29 661.34C563.365 660.076 563.59 658.405 563.628 656.734L563.853 650.028C563.853 650.028 549.984 650.114 529.218 650.264C508.415 650.35 480.716 650.328 453.016 650.093C425.316 649.857 397.616 649.428 376.851 648.979C356.085 648.486 342.254 648.164 342.254 648.164L376.813 650.028C397.541 651.185 425.166 652.878 452.753 654.806C480.341 656.712 507.928 658.833 528.619 660.526C549.309 662.283 563.065 663.439 563.065 663.439C563.065 663.439 563.14 662.604 563.253 661.34L563.29 661.34Z" fill="#151342"/>
<path d="M479.778 834.034C482.327 831.399 484.914 828.764 484.914 828.764C484.914 828.764 455.902 812.289 427.452 795.236C398.928 778.247 370.966 760.701 370.966 760.701C370.966 760.701 397.354 779.789 423.217 799.435C449.117 819.016 474.418 839.133 474.418 839.133C474.418 839.133 477.117 836.583 479.778 834.013L479.778 834.034Z" fill="#151342"/>
<path d="M464.41 848.24C465.834 847.019 467.221 845.798 468.308 844.877C469.32 843.934 469.995 843.292 469.995 843.292C469.995 843.292 457.775 834.872 439.484 822.232C421.23 809.571 397.016 792.539 372.989 775.315C348.963 758.09 325.124 740.694 307.357 727.561C289.627 714.386 277.82 705.581 277.82 705.581C277.82 705.581 289.328 714.622 306.607 728.183C323.812 741.787 346.639 760.061 369.241 778.507C391.843 796.952 414.258 815.569 430.938 829.623C447.58 843.72 458.675 853.125 458.675 853.125C458.675 853.125 461.524 850.683 464.372 848.262L464.41 848.24Z" fill="#151342"/>
</g>
</g>
<mask id="mask2_321_8447" style="mask-type:luminance" maskUnits="userSpaceOnUse" x="0" y="-179" width="388" height="1079">
<path d="M0 900L388 900L388 -179L9.43292e-05 -179L0 900Z" fill="white"/>
</mask>
<g mask="url(#mask2_321_8447)">
<g opacity="0.6">
<path d="M-150.842 202.338C-152.185 206.715 -153.527 211.121 -153.527 211.121C-153.527 211.121 -138.835 216.173 -116.796 223.78C-94.7946 231.446 -65.4842 241.874 -36.2857 252.624C-7.08711 263.374 22.0368 274.418 43.8146 282.877C65.555 291.395 80.061 297.094 80.061 297.094C80.061 297.094 65.7042 290.925 44.1875 281.702C22.7081 272.391 -5.89383 259.791 -34.3839 246.837C-62.8739 233.914 -91.252 220.696 -112.508 210.592C-133.726 200.429 -147.859 193.673 -147.859 193.673C-147.859 193.673 -149.388 197.991 -150.842 202.338Z" fill="#100D33" fill-opacity="0.49"/>
<path d="M-136.56 164.27C-137.232 165.827 -138.089 167.942 -138.947 170.057C-140.625 174.286 -142.34 178.516 -142.34 178.516C-142.34 178.516 -126.566 185.712 -102.887 196.521C-79.2446 207.419 -47.8086 222.163 -16.5218 237.231C14.8023 252.299 45.94 267.72 69.2466 279.44C92.5159 291.247 108.029 299.119 108.029 299.119C108.029 299.119 92.6651 290.865 69.6195 278.47C46.6112 265.987 16.0329 249.157 -14.4335 231.944C-44.9 214.762 -75.1799 197.256 -97.8153 183.979C-120.413 170.615 -135.479 161.715 -135.479 161.715C-135.479 161.715 -135.926 162.743 -136.635 164.3L-136.56 164.27Z" fill="#100D33" fill-opacity="0.49"/>
<path d="M-127.835 145.238C-128.879 147.235 -129.774 149.321 -130.482 150.848C-131.191 152.405 -131.676 153.433 -131.676 153.433C-131.676 153.433 -118.848 160.336 -99.643 170.704C-80.4384 181.131 -54.9316 195.23 -29.5367 209.593C-4.14178 223.956 21.1039 238.583 40.0103 249.686C58.8793 260.877 71.4463 268.338 71.4463 268.338C71.4463 268.338 59.1031 260.407 40.6069 248.511C22.1481 236.557 -2.3891 220.431 -26.7772 204.012C-51.1652 187.622 -75.4414 170.968 -93.6019 158.338C-111.688 145.649 -123.77 137.19 -123.77 137.19C-123.77 137.19 -125.821 141.214 -127.835 145.238Z" fill="#100D33" fill-opacity="0.49"/>
<path d="M-166.205 423.013C-165.832 425.304 -165.459 427.565 -165.086 429.269C-164.751 430.972 -164.527 432.089 -164.527 432.089C-164.527 432.089 -153.862 428.916 -137.864 424.158C-121.829 419.459 -100.462 413.349 -79.0197 407.504C-57.5776 401.63 -36.0609 395.961 -19.9141 391.849C-3.76722 387.795 7.00977 385.064 7.00977 385.064C7.00977 385.064 -3.87912 387.09 -20.1751 390.145C-36.5084 393.141 -58.3234 396.989 -80.1384 400.572C-101.991 404.185 -123.843 407.533 -140.288 409.971C-156.733 412.321 -167.659 413.907 -167.659 413.907C-167.659 413.907 -166.914 418.46 -166.205 423.013Z" fill="#100D33" fill-opacity="0.49"/>
<path d="M-96.6604 91.7235C-97.9282 93.5446 -99.1588 95.3657 -100.128 96.7462C-101.023 98.1561 -101.62 99.096 -101.62 99.096C-101.62 99.096 -91.9244 106.468 -77.4184 117.483C-62.9496 128.556 -43.7077 143.478 -24.5776 158.634C-5.44752 173.761 13.5334 189.093 27.7038 200.695C41.837 212.356 51.2715 220.11 51.2715 220.11C51.2715 220.11 42.2099 211.827 28.5988 199.403C15.025 186.919 -2.94907 170.177 -20.8113 153.2C-38.6735 136.252 -56.3865 119.099 -69.6247 106.116C-82.8255 93.104 -91.5888 84.4392 -91.5888 84.4392C-91.5888 84.4392 -94.1246 88.0814 -96.6604 91.6942L-96.6604 91.7235Z" fill="#100D33" fill-opacity="0.49"/>
<path d="M-78.0139 66.5789C-80.6988 70.0448 -83.421 73.5401 -83.421 73.5401C-83.421 73.5401 -71.4507 84.5254 -53.4766 101.003C-35.5772 117.54 -11.823 139.745 11.7446 162.215C35.3123 184.656 58.6935 207.39 76.1082 224.514C93.4856 241.726 105.083 253.181 105.083 253.181C105.083 253.181 93.784 241.344 76.854 223.574C59.9614 205.745 37.587 181.836 15.3991 157.663C-6.7888 133.489 -28.7903 109.081 -45.1609 90.6642C-61.4941 72.189 -72.383 59.8526 -72.383 59.8526C-72.383 59.8526 -75.2171 63.1717 -78.0139 66.5789Z" fill="#100D33" fill-opacity="0.49"/>
<path d="M-50.0466 35.4141C-51.2026 36.5596 -52.7688 38.0576 -54.2231 39.6437C-57.2063 42.8159 -60.1896 45.9881 -60.1896 45.9881C-60.1896 45.9881 -50.233 56.8853 -35.2794 73.275C-20.4005 89.6942 -0.636477 111.723 18.9038 133.958C38.4441 156.193 57.7979 178.604 72.2293 195.523L96.1699 223.808C96.1699 223.808 86.9591 212.089 73.1243 194.554C59.3268 176.93 41.129 153.373 23.0803 129.582C5.03168 105.82 -12.7932 81.8224 -26.0687 63.7584C-39.3068 45.6356 -48.1074 33.5342 -48.1074 33.5342C-48.1074 33.5342 -48.8905 34.2979 -50.0466 35.4434L-50.0466 35.4141Z" fill="#100D33" fill-opacity="0.49"/>
<path d="M-45.981 31.419C-49.0761 34.4444 -52.1712 37.4991 -52.1712 37.4991C-52.1712 37.4991 -23.5693 69.5443 4.28683 102.353C32.2175 135.074 59.4023 168.529 59.4023 168.529C59.4023 168.529 33.8955 133.429 9.13456 97.6243C-15.701 61.8782 -39.7534 25.4271 -39.7534 25.4271C-39.7534 25.4271 -42.8485 28.423 -45.981 31.4484L-45.981 31.419Z" fill="#100D33" fill-opacity="0.49"/>
<path d="M-25.6586 12.9421C-28.9029 15.7913 -32.1472 18.611 -32.1472 18.611C-32.1472 18.611 -24.9874 28.0101 -14.285 42.1089C-3.58258 56.2664 10.5506 75.2115 24.4973 94.3036C38.4813 113.396 52.2788 132.634 62.571 147.144C72.7886 161.684 79.6128 171.377 79.6128 171.377C79.6128 171.377 73.2734 161.273 63.7643 146.116C54.2925 130.931 41.8001 110.605 29.4942 90.1033C17.151 69.6308 4.99426 49.0114 -4.03007 33.4734L-19.0208 7.5376C-19.0208 7.5376 -22.3397 10.2399 -25.6959 12.9421L-25.6586 12.9421Z" fill="#100D33" fill-opacity="0.49"/>
<path d="M-7.16177 -1.59363C-8.87714 -0.330614 -10.6298 0.903032 -11.8977 1.90169C-13.1656 2.90035 -13.986 3.54654 -13.986 3.54654C-13.986 3.54654 -8.76524 11.1246 -0.896919 22.5211C6.93411 33.9469 17.2263 49.1912 27.4812 64.6117C47.9537 95.3939 67.7178 126.734 67.7178 126.734C67.7178 126.734 50.042 93.8959 33.1121 60.5289C16.1076 27.2206 -0.225713 -6.58696 -0.225713 -6.58696C-0.225713 -6.58696 -3.69374 -4.09028 -7.16177 -1.59363Z" fill="#100D33" fill-opacity="0.49"/>
<path d="M25.9527 -23.3315C24.1255 -22.2741 22.2982 -21.2167 20.9185 -20.3943C19.5387 -19.6012 18.6437 -19.0431 18.6437 -19.0431C18.6437 -19.0431 25.6544 -5.67869 36.133 14.3826C46.5744 34.4733 60.372 61.3784 73.9084 88.401C87.4822 115.424 100.795 142.593 110.64 163.036C120.447 183.509 127.01 197.167 127.01 197.167C127.01 197.167 120.932 183.244 111.796 162.39C102.697 141.477 90.7638 113.544 79.0545 85.4637C67.3453 57.3838 55.8598 29.1569 47.3575 7.92072C38.9298 -13.3449 33.299 -27.5023 33.299 -27.5023C33.299 -27.5023 29.6445 -25.4169 25.9527 -23.3021L25.9527 -23.3315Z" fill="#100D33" fill-opacity="0.49"/>
<path d="M53.1363 -37.6041C51.6819 -36.9873 49.8174 -36.0474 47.9156 -35.1075L40.4202 -31.2891C40.4202 -31.2891 47.841 -14.4 58.9909 10.8896C70.0662 36.238 84.6096 70.1337 98.8919 104.206C113.174 138.248 127.158 172.467 137.488 198.168C147.743 223.927 154.604 241.081 154.604 241.081C154.604 241.081 148.115 223.722 138.383 197.698C128.724 171.645 116.046 136.75 103.665 101.797C91.2846 66.844 79.2024 31.744 70.29 5.33825C61.4521 -21.0969 55.5602 -38.6909 55.5602 -38.6909C55.5602 -38.6909 54.5906 -38.2503 53.1736 -37.6041L53.1363 -37.6041Z" fill="#100D33" fill-opacity="0.49"/>
<path d="M74.9148 -46.8574C72.9756 -46.0937 70.9993 -45.3594 69.545 -44.772C68.0906 -44.2139 67.121 -43.8027 67.121 -43.8027C67.121 -43.8027 71.8942 -30.7613 79.054 -11.2287C86.1392 8.36266 95.4992 34.504 104.561 60.7923C113.66 87.0512 122.535 113.398 129.061 133.195C135.549 153.022 139.875 166.239 139.875 166.239C139.875 166.239 136.071 152.816 130.366 132.696C124.735 112.546 117.351 85.6413 110.192 58.6187C103.032 31.6255 96.1331 4.51485 91.0616 -15.8402C86.0274 -36.2246 82.7085 -49.7946 82.7085 -49.7946C82.7085 -49.7946 78.793 -48.326 74.8775 -46.8574L74.9148 -46.8574Z" fill="#100D33" fill-opacity="0.49"/>
<path d="M106.762 -57.4033C102.734 -56.4047 98.7814 -55.1123 98.7814 -55.1123C98.7814 -55.1123 102.958 -39.5743 109.26 -16.282C115.488 7.03965 123.58 38.1743 131.411 69.4265C139.279 100.679 146.849 132.019 152.405 155.576C157.887 179.132 161.542 194.846 161.542 194.846C161.542 194.846 158.335 179.015 153.561 155.282C148.863 131.52 142.71 99.7975 136.892 67.9873C131.038 36.2064 125.482 4.33738 121.417 -19.6011C117.427 -43.5396 114.779 -59.5181 114.779 -59.5181C114.779 -59.5181 110.752 -58.4607 106.762 -57.4327L106.762 -57.4033Z" fill="#100D33" fill-opacity="0.49"/>
<path d="M122.834 -61.3975C120.82 -61.0157 118.806 -60.5163 117.277 -60.1051C115.786 -59.7233 114.779 -59.4589 114.779 -59.4589C114.779 -59.4589 125.108 -17.7208 134.543 24.2229C139.279 45.1948 143.828 66.2254 147.147 82.0571C150.429 97.8888 152.629 108.433 152.629 108.433C152.629 108.433 146.327 65.7554 140.957 22.8718C135.513 -19.9825 130.963 -63.0424 130.963 -63.0424C130.963 -63.0424 126.898 -62.2199 122.871 -61.3975L122.834 -61.3975Z" fill="#100D33" fill-opacity="0.49"/>
<path d="M397.552 0.0210508C396.247 -0.918865 394.531 -2.18186 392.816 -3.44487C389.348 -5.94152 385.88 -8.4088 385.88 -8.4088C385.88 -8.4088 379.727 3.86882 370.516 22.3147C361.231 40.7018 348.739 65.1396 336.06 89.4305C323.381 113.721 310.478 137.866 300.708 155.9L284.338 185.919C284.338 185.919 291.348 174.258 301.864 156.752C312.455 139.275 326.663 116.101 341.094 93.0727C355.525 70.0154 370.143 47.1343 381.219 30.0396L399.715 1.60718C399.715 1.60718 398.857 0.960966 397.552 0.0210508Z" fill="#100D33" fill-opacity="0.49"/>
<path d="M419.779 18.1154C418.175 16.7055 416.534 15.2663 415.341 14.2089C414.148 13.1515 413.29 12.4759 413.29 12.4759C413.29 12.4759 405.049 25.8109 392.668 45.7842C380.251 65.728 363.507 92.2218 346.577 118.51C329.647 144.828 312.494 170.94 299.516 190.414L277.813 222.811C277.813 222.811 286.875 210.181 300.486 191.236C314.134 172.35 332.481 147.266 351.015 122.387C369.548 97.5089 388.343 72.8361 402.513 54.4196C416.758 36.0619 426.23 23.8136 426.23 23.8136C426.23 23.8136 423.023 20.9352 419.779 18.086L419.779 18.1154Z" fill="#100D33" fill-opacity="0.49"/>
<path d="M432.458 29.774C430.892 28.276 429.325 26.778 428.169 25.6325C427.013 24.5164 426.193 23.8114 426.193 23.8114C426.193 23.8114 403.52 58.7939 380.027 93.1596C356.646 127.584 332.519 161.333 332.519 161.333C332.519 161.333 358.361 129.288 384.949 97.9472C411.463 66.5188 438.648 35.8247 438.648 35.8247C438.648 35.8247 435.553 32.7994 432.458 29.774Z" fill="#100D33" fill-opacity="0.49"/>
<path d="M158.856 -67.3324C156.805 -67.1855 154.791 -66.8625 153.225 -66.6569C151.696 -66.4513 150.689 -66.3043 150.689 -66.3043C150.689 -66.3043 152.889 -49.9733 156.133 -25.4768C159.34 -0.980201 163.442 31.7406 167.246 64.4614C171.087 97.1822 174.592 129.932 177.128 154.576C179.589 179.19 181.23 195.609 181.23 195.609C181.23 195.609 180.074 179.16 178.321 154.488C176.643 129.815 174.592 96.8591 172.84 63.9033C171.05 30.9475 169.558 -2.03764 168.588 -26.7985C167.656 -51.5594 167.06 -68.0667 167.06 -68.0667C167.06 -68.0667 162.958 -67.7142 158.893 -67.3324L158.856 -67.3324Z" fill="#100D33" fill-opacity="0.49"/>
<path d="M196.818 -69.1813C194.767 -69.24 192.716 -69.2107 191.187 -69.1813C189.658 -69.1519 188.651 -69.1226 188.651 -69.1226C188.651 -69.1226 189.359 -49.9718 190.404 -21.275C191.373 7.45117 192.455 45.7234 193.238 84.0249C194.021 122.297 194.468 160.628 194.655 189.384C194.767 218.139 194.841 237.29 194.841 237.29C194.841 237.29 195.177 218.139 195.624 189.413C196.184 160.687 197.116 122.415 198.421 84.113C199.689 45.8409 201.292 7.56869 202.635 -21.1575C204.052 -49.8543 205.022 -68.9757 205.022 -68.9757C205.022 -68.9757 200.92 -69.0932 196.855 -69.1813L196.818 -69.1813Z" fill="#100D33" fill-opacity="0.49"/>
<path d="M219.006 -68.2391C216.955 -68.386 214.904 -68.5622 213.375 -68.6797C211.846 -68.7678 210.839 -68.7972 210.839 -68.7972C210.839 -68.7972 210.653 -52.8187 210.392 -28.8215C210.056 -4.85364 209.422 27.1623 208.527 59.1488C207.632 91.1353 206.476 123.092 205.469 147.06C204.388 171.028 203.679 187.007 203.679 187.007C203.679 187.007 204.873 171.087 206.7 147.178C208.565 123.298 211.249 91.4584 214.158 59.6187C217.067 27.8085 220.274 -4.00185 222.81 -27.8228C225.42 -51.6438 227.135 -67.5342 227.135 -67.5342C227.135 -67.5342 223.033 -67.8867 218.969 -68.2391L219.006 -68.2391Z" fill="#100D33" fill-opacity="0.49"/>
<path d="M445.472 42.905C443.981 41.3189 442.489 39.7328 441.37 38.5579C440.251 37.383 439.468 36.6487 439.468 36.6487C439.468 36.6487 415.341 70.3681 390.431 103.471C365.633 136.603 340.089 169.03 340.089 169.03C340.089 169.03 367.274 138.395 395.13 108.493C422.911 78.5337 451.401 49.3082 451.401 49.3082C451.401 49.3082 448.455 46.1066 445.472 42.9344L445.472 42.905Z" fill="#100D33" fill-opacity="0.49"/>
<path d="M470.682 72.3346C469.339 70.6016 467.997 68.8687 466.953 67.5469C465.946 66.2252 465.237 65.4028 465.237 65.4028C465.237 65.4028 454.721 76.9167 438.947 94.1876C423.099 111.4 401.843 134.222 380.438 156.81C358.996 179.397 337.405 201.749 321.109 218.403C304.776 234.999 293.85 246.043 293.85 246.043C293.85 246.043 305.074 235.381 321.855 219.402C338.71 203.482 361.308 182.393 384.093 161.568C406.877 140.713 429.811 120.123 447.114 104.791C464.454 89.5174 476.014 79.3252 476.014 79.3252C476.014 79.3252 473.329 75.8299 470.644 72.3346L470.682 72.3346Z" fill="#100D33" fill-opacity="0.49"/>
<path d="M497.455 111.252C496.56 109.842 495.404 107.933 494.211 106.053C491.824 102.293 489.437 98.5336 489.437 98.5336C489.437 98.5336 476.013 110.341 455.876 128.023C435.702 145.647 408.666 168.968 381.406 191.967C354.184 214.995 326.776 237.7 306.117 254.589C285.42 271.419 271.623 282.61 271.623 282.61C271.623 282.61 285.644 271.742 306.676 255.47C327.745 239.257 355.974 217.815 384.427 196.696C412.842 175.548 441.444 154.752 462.961 139.273C484.515 123.882 498.909 113.631 498.909 113.631C498.909 113.631 498.35 112.662 497.455 111.252Z" fill="#100D33" fill-opacity="0.49"/>
<path d="M507.784 129.202C505.584 125.295 503.384 121.389 503.384 121.389C503.384 121.389 491.675 130.435 474.074 144.035C456.472 157.546 432.867 175.434 409.151 193.028C385.434 210.651 361.568 227.981 343.594 240.876C325.582 253.682 313.575 262.229 313.575 262.229C313.575 262.229 325.843 254.152 344.228 242.05C362.649 230.008 387.298 214.117 412.097 198.491C436.895 182.865 461.805 167.474 480.562 156.078C499.357 144.74 511.886 137.191 511.886 137.191L507.747 129.202L507.784 129.202Z" fill="#100D33" fill-opacity="0.49"/>
<path d="M254.506 -63.5987C252.493 -63.9805 250.442 -64.4211 248.913 -64.6268C247.384 -64.8617 246.377 -65.0085 246.377 -65.0085C246.377 -65.0085 245.631 -55.1689 244.475 -40.3946C243.282 -25.6203 241.604 -5.99947 239.739 13.68C236.048 53.039 231.535 92.2217 231.535 92.2217C231.535 92.2217 238.509 53.5089 246.302 14.9724C254.022 -23.5936 262.636 -61.9539 262.636 -61.9539C262.636 -61.9539 258.571 -62.7762 254.544 -63.5693L254.506 -63.5987Z" fill="#100D33" fill-opacity="0.49"/>
<path d="M277.253 -58.4891C273.226 -59.5171 269.198 -60.5452 269.198 -60.5452C269.198 -60.5452 266.401 -42.9218 262.225 -16.4867C257.974 9.9191 252.082 45.1072 245.892 80.2071C239.739 115.307 233.25 150.319 228.253 176.578C223.182 202.778 219.788 220.255 219.788 220.255C219.788 220.255 223.592 202.895 229.297 176.842C235.077 150.818 242.946 116.159 251.15 81.5877C259.316 47.0164 267.819 12.5038 274.307 -13.3145C280.87 -39.1328 285.271 -56.3156 285.271 -56.3156C285.271 -56.3156 281.243 -57.373 277.253 -58.4304L277.253 -58.4891Z" fill="#100D33" fill-opacity="0.49"/>
<path d="M306.378 -49.4718C304.924 -50.0299 302.947 -50.7642 300.971 -51.381C297.018 -52.6734 293.028 -53.9364 293.028 -53.9364C293.028 -53.9364 285.719 -15.7229 277.59 22.2262C269.535 60.2046 260.623 97.9188 260.623 97.9188C260.623 97.9188 263.494 88.6958 267.782 74.8614C272.108 61.0271 277.963 42.6694 284.004 24.3704C296.011 -12.257 308.839 -48.5612 308.839 -48.5612C308.839 -48.5612 307.87 -48.9137 306.378 -49.4718Z" fill="#100D33" fill-opacity="0.49"/>
<path d="M318.497 -44.8291C317.042 -45.3872 315.103 -46.151 313.127 -46.9146C309.211 -48.3833 305.296 -49.8519 305.296 -49.8519C305.296 -49.8519 302.424 -37.8679 298.061 -19.8626C293.661 -1.88675 287.694 22.0517 281.542 45.902C275.389 69.7524 268.975 93.544 264.127 111.314C259.204 129.085 255.923 140.951 255.923 140.951C255.923 140.951 259.801 129.32 265.581 111.872C271.436 94.4546 279.341 71.2504 287.508 48.1637C295.637 25.0477 303.953 2.01976 310.293 -15.1924C316.669 -32.3753 320.92 -43.8599 320.92 -43.8599C320.92 -43.8599 319.951 -44.2711 318.497 -44.8291Z" fill="#100D33" fill-opacity="0.49"/>
<path d="M-112.732 117.068C-114.932 120.975 -117.169 124.852 -117.169 124.852C-117.169 124.852 -107.548 130.991 -93.1541 140.184C-78.76 149.436 -59.6672 161.89 -40.6863 174.579C-21.7054 187.239 -2.83629 200.104 11.2596 209.855C25.3181 219.666 34.7153 226.186 34.7153 226.186C34.7153 226.186 25.6537 219.078 12.08 208.416C-1.45653 197.695 -19.4679 183.303 -37.3301 168.675C-55.1923 154.077 -72.9053 139.303 -86.1435 128.112C-99.3444 116.892 -108.145 109.402 -108.145 109.402C-108.145 109.402 -110.532 113.162 -112.732 117.068Z" fill="#100D33" fill-opacity="0.49"/>
<path d="M345.048 -32.6706C341.282 -34.5504 337.516 -36.4596 337.516 -36.4596C337.516 -36.4596 332.146 -20.8628 324.054 2.54693C315.924 25.9273 304.886 57.0033 293.587 87.9324C282.288 118.891 270.765 149.702 261.965 172.76C253.127 195.788 247.198 211.12 247.198 211.12C247.198 211.12 253.537 195.993 263.009 173.288C272.555 150.613 285.458 120.506 298.659 90.5171C311.822 60.5279 325.247 30.6562 335.427 8.33325C345.682 -13.9604 352.506 -28.8228 352.506 -28.8228C352.506 -28.8228 348.777 -30.7614 345.011 -32.6706L345.048 -32.6706Z" fill="#100D33" fill-opacity="0.49"/>
<path d="M376.671 -14.4888C373.092 -16.7799 369.512 -19.0709 369.512 -19.0709C369.512 -19.0709 361.755 -2.00556 350.158 23.6071C338.449 49.1611 322.712 83.1449 306.64 116.923C290.605 150.731 274.234 184.333 261.854 209.446C249.399 234.53 241.083 251.243 241.083 251.243C241.083 251.243 249.734 234.736 262.674 209.975C275.688 185.273 293.252 152.434 311.115 119.802C328.939 87.1689 347.063 54.7125 360.786 30.4509C374.583 6.24809 383.794 -9.87733 383.794 -9.87733C383.794 -9.87733 380.251 -12.1978 376.671 -14.5182L376.671 -14.4888Z" fill="#100D33" fill-opacity="0.49"/>
<path d="M533.515 186.388C532.769 184.244 531.986 182.1 531.315 180.514C530.681 178.928 530.271 177.87 530.271 177.87C530.271 177.87 519.755 183.627 504.018 192.292C488.244 200.898 467.175 212.207 445.994 223.28C424.85 234.354 403.52 245.221 387.522 253.269C371.487 261.259 360.822 266.575 360.822 266.575C360.822 266.575 371.711 261.875 388.082 254.826C404.452 247.835 426.342 238.642 448.306 229.713C470.27 220.754 492.309 212.06 508.903 205.627C525.497 199.283 536.573 195.024 536.573 195.024C536.573 195.024 535.044 190.706 533.552 186.388L533.515 186.388Z" fill="#100D33" fill-opacity="0.49"/>
<path d="M559.282 301.732C559.095 299.999 558.834 297.708 558.61 295.417C558.088 290.835 557.566 286.253 557.566 286.253C557.566 286.253 546.752 288.485 530.531 291.863C514.309 295.182 492.606 299.441 470.903 303.465C449.2 307.489 427.459 311.278 411.163 314.01C394.867 316.683 383.978 318.474 383.978 318.474C383.978 318.474 394.942 317.388 411.35 315.743C427.795 314.157 449.722 312.189 471.686 310.456C493.65 308.723 515.614 307.225 532.059 306.226C548.542 305.286 559.505 304.64 559.505 304.64L559.282 301.762L559.282 301.732Z" fill="#100D33" fill-opacity="0.49"/>
<path d="M553.317 429.123C553.69 427.42 554.062 425.158 554.435 422.867C555.181 418.314 555.89 413.762 555.89 413.762C555.89 413.762 543.472 411.911 524.864 409.121C506.256 406.272 481.458 402.306 456.697 398.077C431.936 393.847 407.249 389.353 388.716 385.858C370.22 382.304 357.876 379.925 357.876 379.925C357.876 379.925 370.108 382.921 388.455 387.415C406.802 391.967 431.227 398.224 455.578 404.715C479.929 411.206 504.205 417.991 522.403 423.19C540.6 428.448 552.72 431.972 552.72 431.972C552.72 431.972 552.944 430.827 553.279 429.153L553.317 429.123Z" fill="#100D33" fill-opacity="0.49"/>
<path d="M525.312 165.593C525.125 165.123 524.864 164.477 524.491 163.713C523.783 162.156 522.85 160.1 521.955 158.044C520.054 153.932 518.189 149.82 518.189 149.82C518.189 149.82 508.68 156.135 494.398 165.593C480.115 175.022 460.985 187.417 441.743 199.636C422.501 211.854 403.185 223.838 388.641 232.738C374.061 241.579 364.365 247.483 364.365 247.483C364.365 247.483 374.359 242.196 389.35 234.266C404.341 226.394 424.44 216.025 444.577 205.892C464.714 195.729 485 185.801 500.215 178.488C515.467 171.203 525.61 166.357 525.61 166.357C525.61 166.357 525.498 166.092 525.312 165.622L525.312 165.593Z" fill="#100D33" fill-opacity="0.49"/>
</g>
</g>
</g>
<defs>
<linearGradient id="paint0_linear_321_8447" x1="195" y1="0" x2="195" y2="844" gradientUnits="userSpaceOnUse">
<stop stop-color="#050313"/>
<stop offset="0.509516" stop-color="#18164C"/>
<stop offset="1" stop-color="#25276B"/>
</linearGradient>
<linearGradient id="paint1_linear_321_8447" x1="195" y1="0" x2="195" y2="844" gradientUnits="userSpaceOnUse">
<stop stop-color="#050313"/>
<stop offset="0.509516" stop-color="#18164C"/>
<stop offset="1" stop-color="#25276B"/>
</linearGradient>
</defs>
</svg>
