<svg width="326" height="125" viewBox="0 0 326 125" fill="none" xmlns="http://www.w3.org/2000/svg">
<g style="mix-blend-mode:multiply" opacity="0.5">
<path d="M19.6343 123.704C17.9465 124.062 16.8074 125.477 17.099 126.854C17.3906 128.231 19.0054 129.063 20.6933 128.706C22.3811 128.349 23.5202 126.934 23.2286 125.556C22.937 124.179 21.3222 123.347 19.6343 123.704Z" fill="#B9E1FF"/>
<path d="M9.93662 118.998C8.47086 119.308 7.47878 120.541 7.73201 121.737C7.98523 122.933 9.39167 123.658 10.8574 123.347C12.3232 123.037 13.3153 121.805 13.0621 120.609C12.8088 119.412 11.4024 118.688 9.93662 118.998Z" fill="#B9E1FF"/>
<path d="M0.195135 113.978C-1.27063 114.288 -2.26271 115.52 -2.00948 116.716C-1.75626 117.913 -0.349818 118.637 1.11595 118.327C2.58172 118.017 3.57382 116.784 3.3206 115.588C3.06737 114.392 1.6609 113.667 0.195135 113.978Z" fill="#B9E1FF"/>
<path d="M45.9407 124.875C44.0273 125.28 42.7441 126.874 43.0747 128.435C43.4053 129.997 45.2244 130.934 47.1378 130.529C49.0512 130.124 50.3343 128.53 50.0038 126.968C49.6732 125.407 47.8541 124.47 45.9407 124.875Z" fill="#B9E1FF"/>
<path d="M36.2691 120.182C34.5813 120.539 33.4422 121.954 33.7338 123.331C34.0254 124.709 35.6402 125.541 37.3281 125.184C39.0159 124.826 40.1549 123.411 39.8634 122.034C39.5718 120.656 37.957 119.824 36.2691 120.182Z" fill="#B9E1FF"/>
<path d="M26.5661 115.457C25.0781 115.772 24.0676 117.027 24.3247 118.241C24.5818 119.456 26.0142 120.194 27.5022 119.879C28.9902 119.564 30.0006 118.308 29.7436 117.094C29.4865 115.88 28.054 115.142 26.5661 115.457Z" fill="#B9E1FF"/>
<path d="M16.8222 110.42C15.3342 110.735 14.3237 111.991 14.5808 113.205C14.8379 114.419 16.2703 115.157 17.7583 114.842C19.2463 114.527 20.2568 113.272 19.9997 112.058C19.7426 110.843 18.3101 110.105 16.8222 110.42Z" fill="#B9E1FF"/>
<path d="M7.13842 105.786C5.89961 106.049 5.06886 107.081 5.28288 108.092C5.49689 109.102 6.67463 109.709 7.91344 109.447C9.15225 109.185 9.983 108.153 9.76898 107.142C9.55497 106.131 8.37723 105.524 7.13842 105.786Z" fill="#B9E1FF"/>
<path d="M62.5943 121.444C60.7288 121.839 59.5017 123.386 59.8201 124.891C60.1386 126.395 61.9097 127.307 63.753 126.917C65.5963 126.527 66.8456 124.975 66.5271 123.471C66.2087 121.966 64.4376 121.054 62.5943 121.444Z" fill="#B9E1FF"/>
<path d="M52.9066 116.679C51.2263 117.035 50.0994 118.435 50.3897 119.806C50.68 121.177 52.2775 122 53.9579 121.645C55.6383 121.289 56.7652 119.889 56.4749 118.518C56.1846 117.147 54.587 116.323 52.9066 116.679Z" fill="#B9E1FF"/>
<path d="M43.2003 111.935C41.7124 112.25 40.7019 113.506 40.959 114.72C41.216 115.934 42.6485 116.672 44.1365 116.357C45.6245 116.042 46.6349 114.787 46.3779 113.573C46.1208 112.359 44.6883 111.62 43.2003 111.935Z" fill="#B9E1FF"/>
<path d="M33.4564 106.898C31.9685 107.213 30.958 108.469 31.2151 109.683C31.4721 110.897 32.9046 111.635 34.3926 111.32C35.8806 111.005 36.891 109.75 36.634 108.536C36.3769 107.321 34.9444 106.583 33.4564 106.898Z" fill="#B9E1FF"/>
<path d="M23.7654 102.227C22.4995 102.495 21.6544 103.545 21.8731 104.578C22.0918 105.611 23.2899 106.228 24.5558 105.96C25.8217 105.692 26.6668 104.642 26.4481 103.609C26.2294 102.577 25.0313 101.959 23.7654 102.227Z" fill="#B9E1FF"/>
<path d="M14.0909 97.5181C13.0483 97.7388 12.3491 98.6074 12.5293 99.4581C12.7094 100.309 13.7006 100.82 14.7431 100.599C15.7857 100.378 16.4849 99.5096 16.3047 98.6588C16.1246 97.8081 15.1334 97.2974 14.0909 97.5181Z" fill="#B9E1FF"/>
<path d="M4.3996 92.8469C3.59008 93.0183 3.0472 93.6927 3.18706 94.3533C3.32691 95.0139 4.09653 95.4104 4.90605 95.239C5.71557 95.0676 6.25846 94.3932 6.1186 93.7326C5.97875 93.0721 5.20912 92.6755 4.3996 92.8469Z" fill="#B9E1FF"/>
<path d="M89.0033 123.105C87.2488 123.476 86.0953 124.932 86.3945 126.346C86.6938 127.759 88.3607 128.618 90.093 128.252C91.8252 127.885 93.001 126.424 92.7018 125.011C92.4025 123.597 90.7356 122.738 89.0033 123.105Z" fill="#B9E1FF"/>
<path d="M79.2438 117.995C77.4408 118.376 76.2317 119.878 76.5432 121.35C76.8547 122.821 78.5688 123.704 80.3718 123.323C82.1749 122.941 83.384 121.439 83.0725 119.967C82.761 118.496 81.0469 117.613 79.2438 117.995Z" fill="#B9E1FF"/>
<path d="M69.5363 113.252C67.9151 113.596 66.8311 114.942 67.1112 116.265C67.3913 117.588 68.928 118.38 70.5492 118.037C72.1704 117.693 73.2543 116.347 72.9743 115.024C72.6942 113.701 71.1575 112.909 69.5363 113.252Z" fill="#B9E1FF"/>
<path d="M59.8581 108.523C58.4368 108.824 57.4814 110.01 57.727 111.17C57.9725 112.33 59.3269 113.028 60.7483 112.727C62.1696 112.426 63.125 111.239 62.8794 110.079C62.6339 108.92 61.2795 108.222 59.8581 108.523Z" fill="#B9E1FF"/>
<path d="M50.0982 103.412C48.6324 103.722 47.6404 104.955 47.8936 106.151C48.1468 107.347 49.5533 108.072 51.019 107.761C52.4848 107.451 53.4769 106.219 53.2237 105.023C52.9704 103.827 51.564 103.102 50.0982 103.412Z" fill="#B9E1FF"/>
<path d="M40.3992 98.7062C39.1333 98.9742 38.2882 100.024 38.5069 101.057C38.7256 102.09 39.9237 102.707 41.1896 102.439C42.4555 102.171 43.3006 101.121 43.0819 100.088C42.8632 99.0555 41.6651 98.4382 40.3992 98.7062Z" fill="#B9E1FF"/>
<path d="M30.7235 93.9956C29.6797 94.2166 28.9815 95.0839 29.1619 95.9357C29.3422 96.7874 30.3319 97.2974 31.3757 97.0764C32.4195 96.8554 33.1176 95.9881 32.9373 95.1364C32.757 94.2846 31.7673 93.7746 30.7235 93.9956Z" fill="#B9E1FF"/>
<path d="M21.0257 89.2882C20.2039 89.4622 19.6306 90.1516 19.7764 90.8402C19.9221 91.5289 20.7035 91.9315 21.5474 91.7528C22.3914 91.5742 22.9425 90.8894 22.7967 90.2008C22.6509 89.5121 21.8696 89.1095 21.0257 89.2882Z" fill="#B9E1FF"/>
<path d="M11.2856 84.2687C10.4639 84.4426 9.89057 85.1321 10.0364 85.8207C10.1822 86.5094 10.9635 86.912 11.8074 86.7333C12.6514 86.5546 13.2025 85.8699 13.0567 85.1813C12.9109 84.4926 12.1296 84.09 11.2856 84.2687Z" fill="#B9E1FF"/>
<path d="M1.59847 79.6171C1.02105 79.7393 0.635237 80.2186 0.734991 80.6898C0.834746 81.161 1.3817 81.4428 1.95912 81.3206C2.53655 81.1983 2.92236 80.719 2.8226 80.2479C2.72285 79.7767 2.17589 79.4948 1.59847 79.6171Z" fill="#B9E1FF"/>
<path d="M115.393 124.562C113.615 124.938 112.422 126.42 112.729 127.871C113.037 129.322 114.727 130.194 116.506 129.817C118.284 129.44 119.477 127.959 119.17 126.508C118.863 125.056 117.172 124.185 115.393 124.562Z" fill="#B9E1FF"/>
<path d="M105.669 119.728C104.013 120.078 102.903 121.458 103.189 122.809C103.475 124.16 105.049 124.971 106.705 124.621C108.361 124.27 109.471 122.89 109.185 121.539C108.899 120.188 107.325 119.377 105.669 119.728Z" fill="#B9E1FF"/>
<path d="M95.9234 114.69C94.2578 115.043 93.1555 116.413 93.4432 117.772C93.731 119.131 95.2937 119.936 96.9593 119.583C98.625 119.231 99.7273 117.861 99.4396 116.502C99.1518 115.143 97.5891 114.338 95.9234 114.69Z" fill="#B9E1FF"/>
<path d="M86.1948 109.839C84.6402 110.168 83.6152 111.464 83.88 112.714C84.1447 113.965 85.6293 114.73 87.1617 114.405C88.6941 114.081 89.7413 112.78 89.4765 111.53C89.2118 110.279 87.7272 109.514 86.1948 109.839Z" fill="#B9E1FF"/>
<path d="M76.5042 105.057C75.1273 105.348 74.1903 106.512 74.4282 107.636C74.666 108.759 75.9944 109.444 77.3713 109.152C78.7482 108.861 79.6852 107.697 79.4473 106.573C79.2094 105.45 77.8811 104.765 76.5042 105.057Z" fill="#B9E1FF"/>
<path d="M66.7263 99.9685C65.305 100.269 64.3496 101.456 64.5952 102.616C64.8407 103.776 66.1951 104.474 67.6165 104.173C69.0378 103.872 69.9931 102.685 69.7476 101.525C69.502 100.365 68.1477 99.6675 66.7263 99.9685Z" fill="#B9E1FF"/>
<path d="M57.0491 95.2579C55.8498 95.5118 55.0415 96.5161 55.2487 97.4947C55.4559 98.4733 56.6018 99.0638 57.8011 98.8099C59.0004 98.556 59.8087 97.5517 59.6015 96.5731C59.3944 95.5945 58.2484 95.004 57.0491 95.2579Z" fill="#B9E1FF"/>
<path d="M47.3597 90.4741C46.3159 90.6951 45.6178 91.5624 45.7981 92.4142C45.9784 93.2659 46.9681 93.7759 48.0119 93.5549C49.0557 93.3339 49.7539 92.4666 49.5735 91.6149C49.3932 90.7631 48.4035 90.2532 47.3597 90.4741Z" fill="#B9E1FF"/>
<path d="M37.6604 85.7667C36.8387 85.9407 36.2653 86.6301 36.4111 87.3187C36.5569 88.0074 37.3383 88.41 38.1822 88.2313C39.0261 88.0527 39.5773 87.3679 39.4315 86.6793C39.2857 85.9907 38.5043 85.588 37.6604 85.7667Z" fill="#B9E1FF"/>
<path d="M27.9195 80.7477C27.0977 80.9216 26.5244 81.6111 26.6702 82.2997C26.8159 82.9884 27.5973 83.391 28.4412 83.2123C29.2852 83.0336 29.8363 82.3489 29.6905 81.6603C29.5447 80.9716 28.7634 80.569 27.9195 80.7477Z" fill="#B9E1FF"/>
<path d="M18.229 76.0792C17.6294 76.2062 17.2474 76.7036 17.3471 77.1748C17.4469 77.646 18.0199 77.9412 18.5973 77.8189C19.1748 77.6967 19.5789 77.1946 19.4792 76.7234C19.3794 76.2522 18.8064 75.957 18.229 76.0792Z" fill="#B9E1FF"/>
<path d="M8.55775 71.3851C8.20241 71.4603 7.96359 71.757 8.02498 72.0469C8.08637 72.3369 8.42495 72.5114 8.78028 72.4362C9.13562 72.3609 9.37444 72.0642 9.31305 71.7742C9.25166 71.4843 8.91309 71.3098 8.55775 71.3851Z" fill="#B9E1FF"/>
<path d="M132.066 121.222C130.41 121.572 129.299 122.952 129.585 124.303C129.871 125.654 131.446 126.465 133.101 126.115C134.757 125.764 135.868 124.385 135.582 123.033C135.296 121.682 133.721 120.871 132.066 121.222Z" fill="#B9E1FF"/>
<path d="M122.357 116.462C120.891 116.772 119.899 118.005 120.152 119.201C120.405 120.397 121.812 121.122 123.278 120.811C124.743 120.501 125.735 119.268 125.482 118.072C125.229 116.876 123.823 116.152 122.357 116.462Z" fill="#B9E1FF"/>
<path d="M112.581 111.278C111.004 111.611 109.939 112.935 110.211 114.222C110.483 115.509 111.994 116.287 113.571 115.953C115.148 115.619 116.213 114.296 115.941 113.009C115.668 111.722 114.158 110.944 112.581 111.278Z" fill="#B9E1FF"/>
<path d="M102.852 106.427C101.386 106.737 100.394 107.97 100.648 109.166C100.901 110.362 102.307 111.086 103.773 110.776C105.239 110.466 106.231 109.233 105.978 108.037C105.724 106.841 104.318 106.116 102.852 106.427Z" fill="#B9E1FF"/>
<path d="M93.176 101.715C91.9102 101.983 91.0651 103.033 91.2837 104.066C91.5024 105.099 92.7005 105.717 93.9664 105.449C95.2323 105.181 96.0774 104.131 95.8587 103.098C95.64 102.065 94.4419 101.447 93.176 101.715Z" fill="#B9E1FF"/>
<path d="M83.3869 96.5755C82.0544 96.8576 81.1542 97.976 81.3844 99.0633C81.6146 100.151 82.8908 100.808 84.2233 100.526C85.5558 100.244 86.456 99.1257 86.2258 98.0383C85.9956 96.951 84.7194 96.2934 83.3869 96.5755Z" fill="#B9E1FF"/>
<path d="M73.6947 91.79C72.5176 92.0392 71.7498 93.016 71.9493 93.9583C72.1488 94.9007 73.2688 95.4778 74.4236 95.2333C75.5785 94.9888 76.3685 94.0074 76.169 93.065C75.9694 92.1226 74.8495 91.5455 73.6947 91.79Z" fill="#B9E1FF"/>
<path d="M63.9865 87.0295C62.993 87.2398 62.3268 88.0676 62.4984 88.8783C62.67 89.689 63.6146 90.1757 64.6081 89.9653C65.6016 89.755 66.2678 88.9273 66.0962 88.1166C65.9246 87.3059 64.98 86.8192 63.9865 87.0295Z" fill="#B9E1FF"/>
<path d="M54.3175 82.3544C53.5624 82.5143 53.048 83.1533 53.1784 83.7695C53.3089 84.3857 54.0382 84.7614 54.7932 84.6016C55.5483 84.4417 56.0627 83.8026 55.9323 83.1865C55.8018 82.5703 55.0726 82.1945 54.3175 82.3544Z" fill="#B9E1FF"/>
<path d="M44.5585 77.2453C43.759 77.4146 43.2079 78.0993 43.346 78.7517C43.4841 79.4041 44.2655 79.8067 45.065 79.6375C45.8645 79.4682 46.4157 78.7835 46.2775 78.1311C46.1394 77.4787 45.358 77.0761 44.5585 77.2453Z" fill="#B9E1FF"/>
<path d="M34.8632 72.5577C34.2636 72.6847 33.8817 73.1821 33.9814 73.6533C34.0812 74.1245 34.6541 74.4197 35.2316 74.2975C35.809 74.1752 36.2132 73.6731 36.1134 73.2019C36.0137 72.7307 35.4407 72.4355 34.8632 72.5577Z" fill="#B9E1FF"/>
<path d="M25.1918 67.8636C24.8364 67.9388 24.5976 68.2355 24.659 68.5255C24.7204 68.8154 25.059 68.9899 25.4143 68.9147C25.7697 68.8394 26.0085 68.5427 25.9471 68.2528C25.8857 67.9628 25.5471 67.7883 25.1918 67.8636Z" fill="#B9E1FF"/>
<path d="M15.4274 62.8479C15.072 62.9232 14.8332 63.2199 14.8946 63.5099C14.956 63.7998 15.2946 63.9743 15.6499 63.899C16.0052 63.8238 16.2441 63.5271 16.1827 63.2372C16.1213 62.9472 15.7827 62.7727 15.4274 62.8479Z" fill="#B9E1FF"/>
<path d="M5.75952 58.1733C5.63686 58.1993 5.5546 58.3015 5.57579 58.4016C5.59698 58.5017 5.7136 58.5618 5.83625 58.5358C5.9589 58.5098 6.04118 58.4076 6.01999 58.3076C5.9988 58.2075 5.88217 58.1474 5.75952 58.1733Z" fill="#B9E1FF"/>
<path d="M158.468 122.847C156.886 123.182 155.825 124.501 156.098 125.792C156.372 127.083 157.876 127.858 159.458 127.523C161.04 127.188 162.101 125.87 161.828 124.579C161.555 123.288 160.05 122.512 158.468 122.847Z" fill="#B9E1FF"/>
<path d="M148.759 118.086C147.36 118.382 146.401 119.551 146.646 120.711C146.892 121.871 148.22 122.555 149.642 122.254C151.063 121.953 152 120.789 151.754 119.629C151.509 118.469 150.18 117.785 148.759 118.086Z" fill="#B9E1FF"/>
<path d="M139.025 113.102C137.651 113.393 136.73 114.538 136.967 115.659C137.205 116.78 138.511 117.453 139.884 117.162C141.258 116.871 142.179 115.727 141.942 114.606C141.705 113.485 140.399 112.812 139.025 113.102Z" fill="#B9E1FF"/>
<path d="M129.249 107.92C127.783 108.23 126.791 109.463 127.045 110.659C127.298 111.855 128.704 112.58 130.17 112.269C131.636 111.959 132.628 110.726 132.375 109.53C132.121 108.334 130.715 107.61 129.249 107.92Z" fill="#B9E1FF"/>
<path d="M119.539 103.159C118.251 103.432 117.366 104.51 117.592 105.579C117.818 106.648 119.042 107.279 120.353 107.001C121.663 106.724 122.526 105.651 122.3 104.582C122.074 103.513 120.85 102.882 119.539 103.159Z" fill="#B9E1FF"/>
<path d="M109.837 98.3203C108.66 98.5695 107.893 99.5462 108.092 100.489C108.292 101.431 109.412 102.008 110.566 101.764C111.721 101.519 112.511 100.538 112.312 99.5953C112.112 98.6529 110.992 98.0758 109.837 98.3203Z" fill="#B9E1FF"/>
<path d="M100.044 93.1612C98.7781 93.4292 97.933 94.4792 98.1517 95.5121C98.3704 96.5451 99.5685 97.1624 100.834 96.8944C102.1 96.6264 102.945 95.5765 102.727 94.5436C102.508 93.5106 101.31 92.8932 100.044 93.1612Z" fill="#B9E1FF"/>
<path d="M90.3709 88.4673C89.3271 88.6883 88.629 89.5556 88.8093 90.4074C88.9896 91.2591 89.9793 91.7691 91.0231 91.5481C92.0669 91.3271 92.7651 90.4598 92.5848 89.608C92.4044 88.7563 91.4147 88.2463 90.3709 88.4673Z" fill="#B9E1FF"/>
<path d="M80.6516 83.6525C79.7562 83.842 79.1558 84.588 79.3105 85.3186C79.4652 86.0493 80.3164 86.4879 81.2118 86.2983C82.1072 86.1088 82.7076 85.3628 82.5529 84.6322C82.3982 83.9015 81.547 83.4629 80.6516 83.6525Z" fill="#B9E1FF"/>
<path d="M70.9605 78.8686C70.2246 79.0245 69.7311 79.6376 69.8582 80.2381C69.9853 80.8386 70.685 81.1991 71.4209 81.0433C72.1569 80.8875 72.6504 80.2744 72.5232 79.6739C72.3961 79.0734 71.6964 78.7128 70.9605 78.8686Z" fill="#B9E1FF"/>
<path d="M61.1849 73.8012C60.4245 73.9622 59.9145 74.5957 60.0458 75.2163C60.1772 75.8368 60.9002 76.2093 61.6607 76.0483C62.4211 75.8873 62.9311 75.2538 62.7997 74.6333C62.6683 74.0127 61.9454 73.6402 61.1849 73.8012Z" fill="#B9E1FF"/>
<path d="M51.5166 69.1246C50.9836 69.2375 50.6345 69.6711 50.7266 70.106C50.8187 70.541 51.3136 70.796 51.8466 70.6831C52.3796 70.5703 52.7286 70.1366 52.6365 69.7017C52.5445 69.2667 52.0496 69.0118 51.5166 69.1246Z" fill="#B9E1FF"/>
<path d="M41.8263 64.3416C41.4709 64.4168 41.2321 64.7135 41.2935 65.0035C41.3549 65.2934 41.6935 65.4679 42.0488 65.3927C42.4041 65.3175 42.643 65.0207 42.5816 64.7308C42.5202 64.4408 42.1816 64.2664 41.8263 64.3416Z" fill="#B9E1FF"/>
<path d="M32.0633 59.327C31.708 59.4022 31.4692 59.6989 31.5306 59.9889C31.592 60.2788 31.9305 60.4533 32.2859 60.3781C32.6412 60.3028 32.8801 60.0061 32.8187 59.7162C32.7573 59.4262 32.4187 59.2517 32.0633 59.327Z" fill="#B9E1FF"/>
<path d="M22.3938 54.6519C22.2712 54.6778 22.1889 54.78 22.2101 54.8801C22.2313 54.9802 22.3479 55.0403 22.4706 55.0143C22.5932 54.9883 22.6755 54.8862 22.6543 54.7861C22.6331 54.686 22.5165 54.6259 22.3938 54.6519Z" fill="#B9E1FF"/>
<path d="M184.93 124.76C183.642 125.033 182.756 126.111 182.983 127.18C183.209 128.249 184.433 128.88 185.744 128.602C187.054 128.325 187.917 127.252 187.691 126.183C187.465 125.114 186.24 124.483 184.93 124.76Z" fill="#B9E1FF"/>
<path d="M175.19 119.741C173.902 120.014 173.016 121.091 173.242 122.16C173.469 123.23 174.693 123.86 176.003 123.583C177.313 123.305 178.177 122.233 177.95 121.164C177.724 120.094 176.5 119.464 175.19 119.741Z" fill="#B9E1FF"/>
<path d="M165.427 114.725C164.139 114.998 163.253 116.075 163.48 117.145C163.706 118.214 164.93 118.845 166.241 118.567C167.551 118.29 168.414 117.217 168.188 116.148C167.962 115.079 166.738 114.448 165.427 114.725Z" fill="#B9E1FF"/>
<path d="M155.701 109.78C154.462 110.042 153.631 111.074 153.845 112.085C154.059 113.096 155.237 113.702 156.476 113.44C157.715 113.178 158.545 112.146 158.331 111.135C158.117 110.124 156.939 109.517 155.701 109.78Z" fill="#B9E1FF"/>
<path d="M145.934 104.747C144.696 105.009 143.865 106.041 144.079 107.052C144.293 108.063 145.471 108.67 146.709 108.407C147.948 108.145 148.779 107.113 148.565 106.102C148.351 105.091 147.173 104.485 145.934 104.747Z" fill="#B9E1FF"/>
<path d="M136.217 99.8364C135.04 100.086 134.272 101.062 134.472 102.005C134.671 102.947 135.791 103.524 136.946 103.28C138.101 103.035 138.891 102.054 138.691 101.111C138.492 100.169 137.372 99.5919 136.217 99.8364Z" fill="#B9E1FF"/>
<path d="M126.498 94.9254C125.41 95.1558 124.693 96.0459 124.881 96.9339C125.069 97.8219 126.085 98.3453 127.173 98.1149C128.261 97.8845 128.978 96.9944 128.79 96.1064C128.602 95.2184 127.586 94.695 126.498 94.9254Z" fill="#B9E1FF"/>
<path d="M116.735 89.9122C115.647 90.1426 114.931 91.0327 115.119 91.9207C115.307 92.8087 116.322 93.3321 117.411 93.1017C118.499 92.8714 119.215 91.9812 119.027 91.0932C118.839 90.2052 117.824 89.6818 116.735 89.9122Z" fill="#B9E1FF"/>
<path d="M107.024 85.0359C106.047 85.2428 105.404 86.0417 105.573 86.8391C105.742 87.6364 106.653 88.1062 107.631 87.8993C108.608 87.6924 109.251 86.8935 109.082 86.0962C108.913 85.2988 108.002 84.8291 107.024 85.0359Z" fill="#B9E1FF"/>
<path d="M97.2995 80.2024C96.4556 80.3811 95.886 81.0887 96.0318 81.7773C96.1776 82.466 96.985 82.882 97.8289 82.7033C98.6729 82.5247 99.2424 81.8171 99.0966 81.1285C98.9508 80.4398 98.1434 80.0238 97.2995 80.2024Z" fill="#B9E1FF"/>
<path d="M87.6324 75.5293C87.0105 75.661 86.6063 76.1631 86.7138 76.6705C86.8212 77.1779 87.3942 77.4732 88.016 77.3415C88.6379 77.2099 89.0421 76.7078 88.9346 76.2003C88.8272 75.6929 88.2542 75.3977 87.6324 75.5293Z" fill="#B9E1FF"/>
<path d="M77.842 70.3869C77.1551 70.5323 76.6945 71.1046 76.8132 71.6651C76.9318 72.2256 77.5848 72.562 78.2717 72.4166C78.9586 72.2712 79.4192 71.699 79.3005 71.1385C79.1819 70.578 78.5288 70.2415 77.842 70.3869Z" fill="#B9E1FF"/>
<path d="M68.1511 65.6031C67.6181 65.716 67.269 66.1496 67.3611 66.5846C67.4532 67.0195 67.9481 67.2745 68.4811 67.1616C69.0141 67.0488 69.3631 66.6151 69.2711 66.1802C69.179 65.7453 68.6841 65.4903 68.1511 65.6031Z" fill="#B9E1FF"/>
<path d="M58.4571 60.9141C58.1461 60.9799 57.944 61.231 57.9978 61.4847C58.0515 61.7384 58.338 61.886 58.6489 61.8202C58.9598 61.7544 59.1619 61.5033 59.1082 61.2496C59.0545 60.9959 58.768 60.8482 58.4571 60.9141Z" fill="#B9E1FF"/>
<path d="M48.7112 55.8765C48.4003 55.9423 48.1982 56.1934 48.2519 56.4471C48.3056 56.7008 48.5921 56.8484 48.903 56.7826C49.214 56.7168 49.416 56.4657 49.3623 56.212C49.3086 55.9583 49.0221 55.8106 48.7112 55.8765Z" fill="#B9E1FF"/>
<path d="M39.0261 51.1133C38.8929 51.1415 38.8232 51.2509 38.8424 51.3415C38.8616 51.4322 38.9918 51.4992 39.1029 51.4757C39.2139 51.4522 39.3058 51.3381 39.2866 51.2475C39.2674 51.1569 39.1372 51.0898 39.0261 51.1133Z" fill="#B9E1FF"/>
<path d="M201.623 121.51C200.513 121.745 199.759 122.681 199.951 123.587C200.143 124.493 201.211 125.043 202.321 124.808C203.432 124.573 204.185 123.637 203.993 122.731C203.801 121.825 202.733 121.275 201.623 121.51Z" fill="#B9E1FF"/>
<path d="M191.875 116.455C190.734 116.697 189.969 117.647 190.166 118.578C190.364 119.509 191.448 120.067 192.589 119.826C193.729 119.584 194.494 118.634 194.297 117.703C194.1 116.772 193.016 116.214 191.875 116.455Z" fill="#B9E1FF"/>
<path d="M182.156 111.657C181.157 111.869 180.495 112.69 180.668 113.506C180.841 114.321 181.778 114.804 182.778 114.593C183.777 114.381 184.439 113.56 184.266 112.744C184.093 111.929 183.156 111.445 182.156 111.657Z" fill="#B9E1FF"/>
<path d="M172.42 106.657C171.443 106.864 170.804 107.681 170.969 108.46C171.134 109.239 172.049 109.727 173.027 109.52C174.004 109.313 174.647 108.515 174.478 107.717C174.309 106.92 173.398 106.45 172.42 106.657Z" fill="#B9E1FF"/>
<path d="M162.607 101.407C161.491 101.643 160.742 102.573 160.935 103.484C161.128 104.395 162.189 104.942 163.305 104.705C164.421 104.469 165.17 103.539 164.977 102.628C164.784 101.717 163.723 101.171 162.607 101.407Z" fill="#B9E1FF"/>
<path d="M152.889 96.4966C151.846 96.7176 151.148 97.5849 151.328 98.4366C151.508 99.2884 152.498 99.7984 153.542 99.5774C154.586 99.3564 155.284 98.4891 155.103 97.6373C154.923 96.7856 153.933 96.2756 152.889 96.4966Z" fill="#B9E1FF"/>
<path d="M143.176 91.7177C142.288 91.9057 141.7 92.6361 141.853 93.361C142.007 94.0859 142.84 94.5154 143.729 94.3273C144.617 94.1392 145.205 93.4089 145.051 92.684C144.898 91.9591 144.064 91.5296 143.176 91.7177Z" fill="#B9E1FF"/>
<path d="M133.396 86.5168C132.403 86.7272 131.737 87.5549 131.908 88.3656C132.08 89.1763 133.024 89.663 134.018 89.4526C135.011 89.2423 135.678 88.4146 135.506 87.6039C135.334 86.7932 134.39 86.3065 133.396 86.5168Z" fill="#B9E1FF"/>
<path d="M123.69 81.661C122.801 81.8491 122.213 82.5795 122.367 83.3044C122.52 84.0293 123.354 84.4587 124.242 84.2707C125.13 84.0826 125.718 83.3522 125.565 82.6273C125.411 81.9024 124.578 81.473 123.69 81.661Z" fill="#B9E1FF"/>
<path d="M113.984 76.9177C113.296 77.0634 112.837 77.634 112.956 78.1958C113.074 78.7576 113.726 79.0931 114.414 78.9474C115.103 78.8016 115.562 78.231 115.443 77.6692C115.324 77.1074 114.673 76.7719 113.984 76.9177Z" fill="#B9E1FF"/>
<path d="M104.294 72.1334C103.761 72.2462 103.412 72.6799 103.504 73.1148C103.596 73.5498 104.091 73.8048 104.624 73.6919C105.157 73.5791 105.506 73.1454 105.414 72.7105C105.322 72.2755 104.827 72.0206 104.294 72.1334Z" fill="#B9E1FF"/>
<path d="M94.4991 66.9746C93.8772 67.1063 93.473 67.6084 93.5805 68.1158C93.6879 68.6232 94.2609 68.9185 94.8827 68.7868C95.5046 68.6552 95.9088 68.1531 95.8013 67.6456C95.6939 67.1382 95.1209 66.843 94.4991 66.9746Z" fill="#B9E1FF"/>
<path d="M84.8312 62.3005C84.4537 62.3804 84.1965 62.7 84.2617 63.008C84.3269 63.3161 84.6915 63.504 85.0691 63.4241C85.4466 63.3441 85.7039 63.0246 85.6386 62.7165C85.5734 62.4085 85.2088 62.2206 84.8312 62.3005Z" fill="#B9E1FF"/>
<path d="M75.1179 57.5206C74.8958 57.5676 74.7488 57.7502 74.7872 57.9315C74.8256 58.1127 75.0339 58.22 75.256 58.173C75.4781 58.126 75.6251 57.9434 75.5867 57.7622C75.5483 57.581 75.34 57.4736 75.1179 57.5206Z" fill="#B9E1FF"/>
<path d="M65.3547 52.3932C65.066 52.4543 64.8861 52.7007 64.9321 52.9181C64.9782 53.1356 65.2647 53.2832 65.5312 53.2268C65.7977 53.1704 65.9998 52.9193 65.9537 52.7018C65.9077 52.4844 65.6212 52.3367 65.3547 52.3932Z" fill="#B9E1FF"/>
<path d="M55.656 47.6855C55.656 47.6855 55.5337 47.7683 55.5452 47.8228C55.5568 47.8772 55.6352 47.9175 55.7021 47.9033C55.769 47.8892 55.8244 47.8205 55.8129 47.7661C55.8014 47.7116 55.7229 47.6713 55.656 47.6855Z" fill="#B9E1FF"/>
<path d="M228.117 123.57C227.384 123.725 226.888 124.342 227.015 124.94C227.142 125.538 227.845 125.9 228.578 125.745C229.311 125.59 229.807 124.974 229.68 124.376C229.553 123.778 228.85 123.415 228.117 123.57Z" fill="#B9E1FF"/>
<path d="M218.318 118.277C217.398 118.472 216.781 119.239 216.94 119.989C217.099 120.74 217.974 121.19 218.894 120.996C219.814 120.801 220.43 120.035 220.272 119.284C220.113 118.533 219.238 118.083 218.318 118.277Z" fill="#B9E1FF"/>
<path d="M208.59 113.428C207.79 113.598 207.239 114.282 207.377 114.935C207.515 115.587 208.297 115.99 209.096 115.821C209.896 115.651 210.447 114.967 210.309 114.314C210.17 113.662 209.389 113.259 208.59 113.428Z" fill="#B9E1FF"/>
<path d="M198.841 108.372C198.02 108.546 197.446 109.235 197.592 109.924C197.738 110.612 198.519 111.015 199.363 110.836C200.207 110.658 200.758 109.973 200.612 109.284C200.467 108.596 199.685 108.193 198.841 108.372Z" fill="#B9E1FF"/>
<path d="M189.096 103.334C188.274 103.508 187.701 104.197 187.847 104.886C187.992 105.575 188.774 105.977 189.618 105.799C190.462 105.62 191.013 104.935 190.867 104.247C190.721 103.558 189.94 103.155 189.096 103.334Z" fill="#B9E1FF"/>
<path d="M179.334 98.3209C178.512 98.4949 177.939 99.1843 178.084 99.8729C178.23 100.562 179.012 100.964 179.856 100.786C180.699 100.607 181.251 99.9221 181.105 99.2335C180.959 98.5449 180.178 98.1422 179.334 98.3209Z" fill="#B9E1FF"/>
<path d="M169.607 93.3717C168.834 93.5353 168.316 94.179 168.45 94.8096C168.583 95.4401 169.318 95.8187 170.091 95.6551C170.863 95.4915 171.382 94.8477 171.248 94.2172C171.115 93.5866 170.38 93.2081 169.607 93.3717Z" fill="#B9E1FF"/>
<path d="M159.853 88.395C159.12 88.5502 158.624 89.1664 158.75 89.7645C158.877 90.3625 159.58 90.7249 160.313 90.5697C161.046 90.4145 161.542 89.7983 161.415 89.2002C161.289 88.6022 160.585 88.2399 159.853 88.395Z" fill="#B9E1FF"/>
<path d="M150.065 83.1581C149.182 83.3451 148.59 84.0808 148.742 84.8014C148.895 85.5221 149.734 85.9547 150.618 85.7677C151.501 85.5808 152.093 84.845 151.94 84.1244C151.788 83.4038 150.948 82.9711 150.065 83.1581Z" fill="#B9E1FF"/>
<path d="M140.367 78.4505C139.7 78.5915 139.259 79.1393 139.375 79.683C139.49 80.2267 140.115 80.5488 140.781 80.4077C141.447 80.2666 141.888 79.7189 141.773 79.1752C141.658 78.6315 141.033 78.3094 140.367 78.4505Z" fill="#B9E1FF"/>
<path d="M130.653 73.559C130.076 73.6812 129.69 74.1605 129.79 74.6317C129.889 75.1029 130.436 75.3847 131.014 75.2625C131.591 75.1402 131.977 74.6609 131.877 74.1898C131.778 73.7186 131.231 73.4367 130.653 73.559Z" fill="#B9E1FF"/>
<path d="M120.951 68.7216C120.497 68.8177 120.192 69.1958 120.271 69.5661C120.349 69.9364 120.781 70.1587 121.234 70.0626C121.688 69.9666 121.993 69.5885 121.914 69.2182C121.836 68.8478 121.404 68.6255 120.951 68.7216Z" fill="#B9E1FF"/>
<path d="M111.187 63.706C110.742 63.8 110.426 64.1699 110.507 64.5505C110.587 64.931 111.004 65.1458 111.471 65.047C111.937 64.9483 112.231 64.5831 112.15 64.2025C112.07 63.8219 111.653 63.6072 111.187 63.706Z" fill="#B9E1FF"/>
<path d="M101.484 58.8679C101.151 58.9384 100.953 59.2076 101.006 59.4613C101.06 59.715 101.373 59.8761 101.684 59.8102C101.994 59.7444 102.215 59.4705 102.161 59.2168C102.108 58.9631 101.795 58.802 101.484 58.8679Z" fill="#B9E1FF"/>
<path d="M91.7572 54.0178C91.5574 54.0601 91.4288 54.2199 91.4633 54.383C91.4978 54.5461 91.6801 54.64 91.88 54.5977C92.0799 54.5554 92.2085 54.3956 92.174 54.2325C92.1394 54.0694 91.9571 53.9754 91.7572 54.0178Z" fill="#B9E1FF"/>
<path d="M82.0153 48.9978C81.8154 49.0401 81.6868 49.1999 81.7214 49.363C81.7559 49.5261 81.9382 49.62 82.1381 49.5777C82.3379 49.5354 82.4666 49.3756 82.432 49.2125C82.3975 49.0494 82.2152 48.9555 82.0153 48.9978Z" fill="#B9E1FF"/>
<path d="M72.3094 44.2562C72.2968 44.2589 72.2882 44.269 72.2903 44.2789C72.2924 44.2888 72.3043 44.2946 72.317 44.292C72.3296 44.2893 72.3382 44.2791 72.3361 44.2692C72.334 44.2594 72.322 44.2535 72.3094 44.2562Z" fill="#B9E1FF"/>
<path d="M244.87 120.61C244.515 120.685 244.276 120.982 244.338 121.272C244.399 121.562 244.738 121.736 245.093 121.661C245.448 121.586 245.687 121.289 245.626 120.999C245.564 120.709 245.226 120.534 244.87 120.61Z" fill="#B9E1FF"/>
<path d="M235.071 115.319C234.538 115.432 234.171 115.888 234.263 116.323C234.355 116.758 234.876 117.027 235.409 116.914C235.942 116.801 236.309 116.345 236.217 115.91C236.125 115.475 235.604 115.206 235.071 115.319Z" fill="#B9E1FF"/>
<path d="M225.285 110.196C224.663 110.327 224.259 110.83 224.366 111.337C224.474 111.844 225.047 112.14 225.668 112.008C226.29 111.876 226.694 111.374 226.587 110.867C226.48 110.359 225.907 110.064 225.285 110.196Z" fill="#B9E1FF"/>
<path d="M215.529 105.103C214.885 105.239 214.444 105.787 214.555 106.313C214.667 106.838 215.292 107.16 215.936 107.024C216.58 106.888 217.021 106.34 216.909 105.814C216.798 105.289 216.173 104.967 215.529 105.103Z" fill="#B9E1FF"/>
<path d="M205.811 100.307C205.3 100.415 204.969 100.826 205.057 101.243C205.146 101.659 205.615 101.901 206.125 101.793C206.636 101.685 206.967 101.274 206.879 100.857C206.79 100.44 206.322 100.199 205.811 100.307Z" fill="#B9E1FF"/>
<path d="M196.017 95.034C195.355 95.1742 194.911 95.726 195.025 96.2665C195.14 96.807 195.77 97.1314 196.432 96.9912C197.094 96.851 197.538 96.2992 197.424 95.7587C197.309 95.2182 196.68 94.8938 196.017 95.034Z" fill="#B9E1FF"/>
<path d="M186.28 90.0338C185.636 90.1701 185.195 90.7179 185.307 91.2435C185.418 91.769 186.043 92.0911 186.687 91.9548C187.331 91.8184 187.772 91.2706 187.661 90.7451C187.549 90.2195 186.924 89.8974 186.28 90.0338Z" fill="#B9E1FF"/>
<path d="M176.571 85.2721C176.105 85.3708 175.792 85.7588 175.873 86.1394C175.953 86.52 176.396 86.7481 176.863 86.6494C177.329 86.5506 177.641 86.1626 177.561 85.782C177.48 85.4015 177.037 85.1733 176.571 85.2721Z" fill="#B9E1FF"/>
<path d="M166.792 80.0709C166.192 80.1979 165.81 80.6953 165.91 81.1665C166.01 81.6376 166.583 81.9329 167.16 81.8106C167.738 81.6884 168.142 81.1863 168.042 80.7151C167.942 80.2439 167.369 79.9487 166.792 80.0709Z" fill="#B9E1FF"/>
<path d="M157.044 75.1287C156.504 75.243 156.142 75.6926 156.235 76.133C156.329 76.5734 156.842 76.8377 157.381 76.7235C157.921 76.6092 158.283 76.1596 158.19 75.7192C158.097 75.2788 157.584 75.0145 157.044 75.1287Z" fill="#B9E1FF"/>
<path d="M147.322 70.2003C146.856 70.299 146.543 70.6873 146.624 71.0676C146.704 71.448 147.147 71.6763 147.613 71.5776C148.079 71.4789 148.392 71.0906 148.311 70.7103C148.231 70.33 147.788 70.1016 147.322 70.2003Z" fill="#B9E1FF"/>
<path d="M137.62 65.4765C137.354 65.5329 137.17 65.7611 137.216 65.9786C137.262 66.1961 137.523 66.3303 137.789 66.2738C138.056 66.2174 138.239 65.9892 138.193 65.7717C138.147 65.5543 137.887 65.4201 137.62 65.4765Z" fill="#B9E1FF"/>
<path d="M127.848 60.3113C127.492 60.3866 127.254 60.683 127.315 60.9732C127.377 61.2635 127.715 61.4377 128.071 61.3624C128.426 61.2871 128.665 60.9908 128.603 60.7005C128.542 60.4103 128.204 60.236 127.848 60.3113Z" fill="#B9E1FF"/>
<path d="M118.146 55.4739C117.913 55.5233 117.756 55.7174 117.797 55.9076C117.837 56.0978 118.058 56.2119 118.291 56.1626C118.524 56.1132 118.681 55.9191 118.64 55.7289C118.6 55.5387 118.379 55.4246 118.146 55.4739Z" fill="#B9E1FF"/>
<path d="M108.447 50.7659C108.447 50.7659 108.424 50.7708 108.428 50.7887C108.432 50.8065 108.432 50.8066 108.455 50.8017C108.478 50.7969 108.478 50.7969 108.474 50.779C108.47 50.7611 108.47 50.7611 108.447 50.7659Z" fill="#B9E1FF"/>
<path d="M98.6836 45.6396C98.6836 45.6396 98.5397 45.7268 98.555 45.7993C98.5704 45.8718 98.6485 45.9121 98.7374 45.8933C98.8262 45.8745 98.8813 45.806 98.866 45.7335C98.8506 45.661 98.7725 45.6207 98.6836 45.6396Z" fill="#B9E1FF"/>
<path d="M271.359 122.539C271.359 122.539 271.237 122.621 271.249 122.676C271.26 122.73 271.339 122.771 271.405 122.756C271.472 122.742 271.528 122.674 271.516 122.619C271.505 122.565 271.426 122.524 271.359 122.539Z" fill="#B9E1FF"/>
<path d="M261.565 117.378C261.41 117.411 261.3 117.548 261.327 117.675C261.353 117.802 261.51 117.882 261.665 117.849C261.821 117.816 261.931 117.679 261.904 117.553C261.877 117.426 261.721 117.345 261.565 117.378Z" fill="#B9E1FF"/>
<path d="M251.764 112.069C251.409 112.144 251.17 112.441 251.232 112.731C251.293 113.021 251.631 113.195 251.987 113.12C252.342 113.045 252.581 112.748 252.52 112.458C252.458 112.168 252.12 111.993 251.764 112.069Z" fill="#B9E1FF"/>
<path d="M242.038 107.235C241.794 107.287 241.651 107.488 241.689 107.669C241.727 107.85 241.962 107.971 242.184 107.924C242.406 107.877 242.571 107.671 242.533 107.49C242.495 107.309 242.26 107.188 242.038 107.235Z" fill="#B9E1FF"/>
<path d="M232.279 102.126C231.99 102.187 231.81 102.434 231.856 102.651C231.902 102.868 232.189 103.016 232.455 102.96C232.722 102.903 232.924 102.652 232.878 102.435C232.832 102.217 232.545 102.07 232.279 102.126Z" fill="#B9E1FF"/>
<path d="M222.504 97.0559C222.185 97.1234 221.971 97.3891 222.026 97.6493C222.081 97.9095 222.384 98.0657 222.703 97.9982C223.022 97.9307 223.236 97.665 223.181 97.4048C223.126 97.1446 222.822 96.9884 222.504 97.0559Z" fill="#B9E1FF"/>
<path d="M212.701 91.7478C212.19 91.8559 211.86 92.2667 211.948 92.6836C212.036 93.1004 212.505 93.3419 213.016 93.2338C213.527 93.1256 213.857 92.7148 213.769 92.298C213.681 91.8812 213.212 91.6396 212.701 91.7478Z" fill="#B9E1FF"/>
<path d="M202.995 87.0036C202.662 87.0741 202.464 87.3433 202.517 87.597C202.571 87.8508 202.884 88.0118 203.195 87.946C203.505 87.8801 203.726 87.6063 203.672 87.3525C203.619 87.0988 203.306 86.9378 202.995 87.0036Z" fill="#B9E1FF"/>
<path d="M193.252 81.9665C192.918 82.037 192.72 82.3062 192.774 82.5599C192.828 82.8136 193.14 82.9747 193.451 82.9089C193.762 82.843 193.983 82.5691 193.929 82.3154C193.875 82.0617 193.563 81.9007 193.252 81.9665Z" fill="#B9E1FF"/>
<path d="M183.464 76.7311C182.998 76.8298 182.686 77.2178 182.766 77.5984C182.847 77.9789 183.29 78.2071 183.756 78.1084C184.222 78.0096 184.535 77.6216 184.454 77.241C184.373 76.8605 183.931 76.6323 183.464 76.7311Z" fill="#B9E1FF"/>
<path d="M173.754 71.9703C173.466 72.0314 173.286 72.2778 173.332 72.4953C173.378 72.7127 173.664 72.8604 173.931 72.8039C174.197 72.7475 174.399 72.4964 174.353 72.279C174.307 72.0615 174.021 71.9139 173.754 71.9703Z" fill="#B9E1FF"/>
<path d="M164.033 67.0416C163.812 67.0883 163.664 67.2723 163.702 67.4524C163.741 67.6326 163.951 67.7407 164.171 67.694C164.392 67.6473 164.54 67.4633 164.502 67.2832C164.464 67.103 164.254 66.9949 164.033 67.0416Z" fill="#B9E1FF"/>
<path d="M154.288 62.1168C154.133 62.1497 154.022 62.2867 154.049 62.4135C154.076 62.5404 154.232 62.6209 154.388 62.588C154.543 62.5551 154.653 62.4181 154.627 62.2913C154.6 62.1644 154.444 62.0839 154.288 62.1168Z" fill="#B9E1FF"/>
<path d="M144.51 56.9169C144.243 56.9733 144.059 57.2016 144.105 57.419C144.151 57.6365 144.412 57.7707 144.678 57.7143C144.945 57.6579 145.129 57.4296 145.083 57.2122C145.037 56.9947 144.776 56.8605 144.51 56.9169Z" fill="#B9E1FF"/>
<path d="M134.815 52.2282C134.815 52.2282 134.734 52.2833 134.741 52.3196C134.749 52.3559 134.801 52.3828 134.846 52.3734C134.89 52.3639 134.927 52.3182 134.92 52.2819C134.912 52.2456 134.86 52.2187 134.815 52.2282Z" fill="#B9E1FF"/>
<path d="M115.341 42.2278C115.341 42.2278 115.318 42.2327 115.322 42.2506C115.325 42.2685 115.325 42.2685 115.348 42.2636C115.371 42.2588 115.371 42.2588 115.367 42.2409C115.364 42.223 115.364 42.223 115.341 42.2278Z" fill="#B9E1FF"/>
<path d="M258.738 104.024C258.738 104.024 258.715 104.029 258.719 104.046C258.723 104.064 258.723 104.064 258.746 104.06C258.769 104.055 258.769 104.055 258.765 104.037C258.761 104.019 258.761 104.019 258.738 104.024Z" fill="#B9E1FF"/>
<path d="M248.974 98.8939C248.974 98.8939 248.83 98.9812 248.845 99.0537C248.86 99.1262 248.939 99.1665 249.027 99.1477C249.116 99.1289 249.171 99.0604 249.156 98.9879C249.141 98.9154 249.063 98.8751 248.974 98.8939Z" fill="#B9E1FF"/>
<path d="M229.45 88.7699C229.317 88.7981 229.203 88.917 229.23 89.0438C229.256 89.1707 229.387 89.2378 229.542 89.2049C229.698 89.1719 229.789 89.0578 229.763 88.931C229.736 88.8041 229.605 88.737 229.45 88.7699Z" fill="#B9E1FF"/>
<path d="M219.68 83.7188C219.525 83.7518 219.414 83.8887 219.441 84.0156C219.468 84.1424 219.624 84.2229 219.78 84.19C219.935 84.1571 220.046 84.0202 220.019 83.8933C219.992 83.7665 219.836 83.6859 219.68 83.7188Z" fill="#B9E1FF"/>
<path d="M209.936 78.6817C209.781 78.7146 209.67 78.8516 209.697 78.9784C209.724 79.1053 209.88 79.1858 210.036 79.1529C210.191 79.12 210.301 78.9831 210.275 78.8562C210.248 78.7293 210.091 78.6488 209.936 78.6817Z" fill="#B9E1FF"/>
<path d="M200.173 73.6676C200.017 73.7005 199.907 73.8374 199.934 73.9643C199.961 74.0911 200.117 74.1717 200.272 74.1388C200.428 74.1058 200.538 73.9689 200.511 73.842C200.484 73.7152 200.328 73.6347 200.173 73.6676Z" fill="#B9E1FF"/>
<path d="M190.435 68.6659C190.288 68.6971 190.189 68.8197 190.214 68.9398C190.24 69.0599 190.38 69.132 190.527 69.1009C190.674 69.0697 190.773 68.9471 190.747 68.827C190.722 68.7069 190.582 68.6347 190.435 68.6659Z" fill="#B9E1FF"/>
<path d="M180.71 63.7177C180.71 63.7177 180.566 63.805 180.581 63.8774C180.596 63.9499 180.674 63.9902 180.763 63.9714C180.852 63.9526 180.907 63.8841 180.892 63.8116C180.876 63.7391 180.798 63.6989 180.71 63.7177Z" fill="#B9E1FF"/>
<path d="M161.225 53.7767C161.225 53.7767 161.202 53.7815 161.206 53.7994C161.21 53.8173 161.21 53.8173 161.233 53.8125C161.255 53.8076 161.255 53.8076 161.252 53.7897C161.248 53.7719 161.248 53.7718 161.225 53.7767Z" fill="#B9E1FF"/>
</g>
</svg>
