<svg width="1440" height="1000" viewBox="0 0 1440 1000" fill="none" xmlns="http://www.w3.org/2000/svg">
<rect width="1440" height="1000" fill="#D9D9D9"/>
<rect width="1440" height="1000" fill="url(#paint0_linear_870_432)"/>
<g clip-path="url(#clip0_870_432)">
<g clip-path="url(#clip1_870_432)">
<mask id="mask0_870_432" style="mask-type:alpha" maskUnits="userSpaceOnUse" x="-146" y="195" width="1160" height="901">
<g opacity="0.6">
<path d="M-8.43829 1074.12C-6.29782 1076.34 -4.15733 1078.56 -2.49252 1080.25C-1.71957 1081.08 -1.00607 1081.76 -0.530411 1082.25C-0.0547486 1082.74 0.242493 1083 0.242493 1083C0.242493 1083 11.0044 1073.14 27.1769 1058.32C43.4089 1043.57 65.1704 1023.97 87.1698 1004.6C131.05 965.772 176 928 176 928C176 928 128.671 963.289 80.3916 997.524C32.1714 1031.87 -17.0002 1065.17 -17.0002 1065.17C-17.0002 1065.17 -12.7193 1069.64 -8.43829 1074.12Z" fill="#151342"/>
<path d="M-142.143 620.663C-142.558 622.853 -143.152 625.799 -143.745 628.707C-144.873 634.56 -146 640.451 -146 640.451C-146 640.451 -84.9978 646.304 -24.2923 653.479C36.4725 660.541 97 669 97 669C97 669 37.1252 657.293 -22.4528 644.227C-52.2418 637.732 -81.9714 630.972 -104.284 625.761C-126.536 620.512 -141.312 617 -141.312 617C-141.312 617 -141.668 618.435 -142.143 620.663Z" fill="#151342"/>
<path d="M-44.566 1033.38C-42.6628 1035.79 -40.7596 1038.21 -39.3322 1040.02C-37.9049 1041.83 -36.8938 1043 -36.8938 1043C-36.8938 1043 -18.6354 1029.76 8.84153 1009.88C36.3185 990.071 73.1923 963.852 110.304 937.972C147.416 912.093 184.765 886.515 212.956 867.539C241.147 848.6 260 836 260 836C260 836 240.73 848.072 211.885 866.143C182.922 884.138 144.204 907.943 105.189 931.408C66.1744 954.873 26.9216 977.999 -2.63688 995.202C-32.2549 1012.29 -52.0002 1023.72 -52.0002 1023.72C-52.0002 1023.72 -48.1939 1028.55 -44.447 1033.42L-44.566 1033.38Z" fill="#151342"/>
<path d="M-81.1019 979.599C-79.9154 981.524 -78.2543 984.129 -76.6525 986.695C-73.3896 991.829 -70.1268 997 -70.1268 997C-70.1268 997 -47.2274 983.789 -12.9378 963.972C21.4112 944.269 67.4471 918.224 113.72 892.594C159.994 866.964 206.504 841.75 241.506 823.028C276.566 804.419 300 792 300 792C300 792 276.329 803.928 240.794 821.82C205.199 839.598 157.561 863.076 109.686 886.102C61.8112 909.165 13.6397 931.775 -22.5484 948.534C-58.7957 965.18 -83.0002 976.277 -83.0002 976.277C-83.0002 976.277 -82.2883 977.599 -81.0425 979.524L-81.1019 979.599Z" fill="#151342"/>
<path d="M-97.3405 951.037C-96.3327 953.071 -94.9693 955.782 -93.4281 958.418C-90.4642 963.728 -87.5003 969 -87.5003 969C-87.5003 969 -67.7608 958.983 -38.2404 943.92C-8.60146 928.97 30.9961 909.237 70.8309 889.843C110.666 870.449 150.678 851.432 180.732 837.348C210.905 823.339 231 814 231 814C231 814 210.549 822.699 179.843 835.766C149.078 848.758 107.998 865.817 66.8 882.538C25.5426 899.258 -15.8927 915.601 -47.0136 927.689C-78.1938 939.702 -99.0002 947.686 -99.0002 947.686C-99.0002 947.686 -98.3482 949.041 -97.2812 951.075L-97.3405 951.037Z" fill="#151342"/>
<path d="M-136.001 595.701C-136.536 597.915 -137.31 600.815 -138.084 603.753C-139.572 609.629 -141 615.506 -141 615.506C-141 615.506 -80.2321 624.092 -19.7024 634.013C40.8274 643.82 101 655 101 655C101 655 41.6606 640.538 -17.3217 624.74C-46.8426 616.88 -76.2444 608.752 -98.2661 602.494C-120.288 596.198 -134.929 592 -134.929 592C-134.929 592 -135.346 593.45 -135.881 595.663L-136.001 595.701Z" fill="#151342"/>
<path d="M-80.8925 470.31C-82.5529 472.868 -83.976 475.54 -85.1027 477.496C-86.2294 479.49 -87.0003 480.807 -87.0003 480.807C-87.0003 480.807 -66.6015 489.649 -36.0627 502.931C-5.52387 516.289 35.0365 534.349 75.4189 552.748C115.801 571.147 155.946 589.885 186.011 604.108C216.016 618.443 236 628 236 628C236 628 216.372 617.841 186.96 602.603C157.607 587.289 118.588 566.632 79.807 545.599C41.0257 524.604 2.42222 503.27 -26.4563 487.091C-55.2161 470.836 -74.429 460 -74.429 460C-74.429 460 -77.6904 465.155 -80.8925 470.31Z" fill="#151342"/>
<path d="M-119.752 903.251C-118.979 905.359 -117.908 908.183 -116.66 910.931L-111.843 922C-111.843 922 -61.1231 900.389 -9.86772 879.946C41.3282 859.389 92.9997 840 92.9997 840C92.9997 840 79.6805 843.953 59.7611 849.902C39.7822 855.813 13.0842 863.493 -13.6138 870.948C-67.0692 885.932 -121 899.712 -121 899.712C-121 899.712 -120.465 901.105 -119.692 903.213L-119.752 903.251Z" fill="#151342"/>
<path d="M-138.091 844.569C-136.607 850.303 -135.063 856 -135.063 856C-135.063 856 -82.3445 840.846 -29.3287 826.92C23.6871 812.846 76.9998 800 76.9998 800C76.9998 800 22.7966 809.42 -31.7627 817.649C-86.2627 825.989 -141 833.101 -141 833.101C-141 833.101 -139.575 838.835 -138.091 844.569Z" fill="#151342"/>
<path d="M-142.686 826.42C-142.092 829.343 -141.499 832.229 -140.905 834.402C-140.371 836.576 -140.015 838 -140.015 838C-140.015 838 -123.04 833.953 -97.5789 827.881C-72.0579 821.885 -38.0498 814.09 -3.92302 806.632C30.2038 799.137 64.4494 791.904 90.1483 786.657C115.847 781.485 133 778 133 778C133 778 115.669 780.586 89.7328 784.483C63.7371 788.306 29.0168 793.216 -5.70348 797.788C-40.4832 802.397 -75.2629 806.67 -101.437 809.78C-127.61 812.778 -145 814.802 -145 814.802C-145 814.802 -143.813 820.611 -142.686 826.42Z" fill="#151342"/>
<path d="M-32.0851 401.342C-34.1085 403.678 -36.0724 406.013 -37.6197 407.784C-39.048 409.592 -40.0002 410.798 -40.0002 410.798C-40.0002 410.798 -24.527 420.253 -1.3768 434.379C21.7139 448.581 52.4222 467.718 82.952 487.156C113.482 506.556 143.773 526.22 166.388 541.1C188.943 556.055 204 566 204 566C204 566 189.538 555.377 167.816 539.442C146.154 523.432 117.469 501.96 88.9627 480.187C60.4563 458.451 32.1881 436.451 11.0612 419.801C-10.0061 403.113 -23.9915 392 -23.9915 392C-23.9915 392 -28.0383 396.671 -32.0851 401.305L-32.0851 401.342Z" fill="#151342"/>
<path d="M-2.39492 369.628C-6.66793 374.075 -11.0002 378.558 -11.0002 378.558C-11.0002 378.558 8.05021 392.65 36.6555 413.788C65.1422 435.001 102.946 463.486 140.454 492.31C177.961 521.096 215.172 550.259 242.887 572.226C270.543 594.305 289 609 289 609C289 609 271.018 593.816 244.074 571.02C217.19 548.149 181.581 517.479 146.27 486.47C110.958 455.46 75.9434 424.149 49.8899 400.525C23.8959 376.825 6.56648 361 6.56648 361C6.56648 361 2.05613 365.258 -2.39492 369.628Z" fill="#151342"/>
<path d="M42.1524 329.411C40.3115 330.88 37.8173 332.801 35.5013 334.835C30.7506 338.903 25.9998 342.97 25.9998 342.97C25.9998 342.97 41.8555 356.944 65.6688 377.962C89.3633 399.017 120.837 427.267 151.955 455.78C183.072 484.293 213.893 513.032 236.875 534.728L275 571C275 571 260.332 555.971 238.3 533.485C216.328 510.885 187.348 480.677 158.606 450.168C129.864 419.696 101.478 388.923 80.3368 365.758C59.2552 342.518 45.2404 327 45.2404 327C45.2404 327 43.9933 327.979 42.1524 329.448L42.1524 329.411Z" fill="#151342"/>
<path d="M48.8754 323.704C43.9375 327.594 38.9998 331.522 38.9998 331.522C38.9998 331.522 84.6301 372.726 129.071 414.911C173.63 456.984 217 500 217 500C217 500 176.307 454.869 136.804 408.831C97.1828 362.869 58.8105 316 58.8105 316C58.8105 316 53.8727 319.852 48.8754 323.742L48.8754 323.704Z" fill="#151342"/>
<path d="M81.334 300.927C76.1669 304.579 70.9998 308.193 70.9998 308.193C70.9998 308.193 82.4031 320.241 99.4488 338.312C116.495 356.458 139.004 380.741 161.217 405.212C183.49 429.683 205.465 454.342 221.857 472.941C238.131 491.576 249 504 249 504C249 504 238.903 491.049 223.758 471.623C208.672 452.159 188.776 426.107 169.176 399.828C149.517 373.588 130.155 347.159 115.782 327.243L91.906 294C91.906 294 86.62 297.464 81.2747 300.927L81.334 300.927Z" fill="#151342"/>
<path d="M110.858 281.442C108.128 283.071 105.34 284.663 103.322 285.951C101.305 287.24 99.9998 288.073 99.9998 288.073C99.9998 288.073 108.307 297.85 120.826 312.553C133.286 327.294 149.662 346.96 165.979 366.855C198.553 406.567 230 447 230 447C230 447 201.876 404.635 174.938 361.587C147.882 318.616 121.894 275 121.894 275C121.894 275 116.376 278.221 110.858 281.442Z" fill="#151342"/>
<path d="M163.601 254.347C160.7 255.702 157.8 257.058 155.61 258.112C153.42 259.128 152 259.844 152 259.844C152 259.844 163.127 276.976 179.759 302.692C196.331 328.446 218.231 362.935 239.716 397.575C261.261 432.215 282.391 467.043 298.016 493.249C313.583 519.492 324 537 324 537C324 537 314.352 519.153 299.851 492.42C285.409 465.612 266.469 429.805 247.884 393.81C229.299 357.814 211.069 321.631 197.574 294.408C184.198 267.148 175.261 249 175.261 249C175.261 249 169.46 251.673 163.601 254.384L163.601 254.347Z" fill="#151342"/>
<path d="M206.268 235.395C203.95 236.186 200.978 237.392 197.947 238.598L186 243.498C186 243.498 197.828 265.17 215.6 297.621C233.253 330.148 256.434 373.643 279.199 417.363C301.964 461.046 324.253 504.956 340.718 537.935C357.063 570.989 368 593 368 593C368 593 357.658 570.725 342.144 537.332C326.75 503.9 306.541 459.124 286.807 414.273C267.074 369.421 247.816 324.381 233.61 290.498C219.523 256.577 210.132 234 210.132 234C210.132 234 208.586 234.565 206.328 235.395L206.268 235.395Z" fill="#151342"/>
<path d="M241.426 223.766C238.334 224.745 235.183 225.687 232.864 226.44C230.546 227.156 229 227.683 229 227.683C229 227.683 236.61 244.405 248.026 269.45C259.323 294.57 274.246 328.088 288.694 361.796C303.202 395.465 317.352 429.247 327.757 454.631C338.103 480.052 345 497 345 497C345 497 338.935 479.789 329.838 453.991C320.86 428.155 309.088 393.657 297.672 359.009C286.257 324.398 275.257 289.636 267.171 263.537C259.144 237.4 253.853 220 253.853 220C253.853 220 247.61 221.883 241.367 223.766L241.426 223.766Z" fill="#151342"/>
<path d="M291.715 209.719C285.298 211.003 279 212.664 279 212.664C279 212.664 285.655 232.639 295.696 262.583C305.619 292.564 318.513 332.589 330.99 372.766C343.527 412.942 355.589 453.232 364.442 483.515C373.177 513.799 379 534 379 534C379 534 373.89 513.648 366.284 483.138C358.798 452.59 348.994 411.809 339.725 370.915C330.396 330.059 321.543 289.09 315.066 258.316C308.709 227.541 304.49 207 304.49 207C304.49 207 298.073 208.359 291.715 209.681L291.715 209.719Z" fill="#151342"/>
<path d="M317.768 205.11C314.576 205.6 311.384 206.241 308.96 206.769C306.596 207.258 305 207.598 305 207.598C305 207.598 321.374 261.147 336.33 314.96C343.837 341.866 351.049 368.848 356.31 389.16C361.512 409.472 365 423 365 423C365 423 355.01 368.245 346.497 313.226C337.867 258.245 330.655 203 330.655 203C330.655 203 324.212 204.055 317.827 205.11L317.768 205.11Z" fill="#151342"/>
<path d="M754.551 283.802C752.469 282.597 749.734 280.979 746.998 279.361C741.467 276.162 735.937 273 735.937 273C735.937 273 726.124 288.732 711.435 312.367C696.627 335.927 676.705 367.241 656.485 398.366C636.265 429.491 615.688 460.428 600.107 483.536L574 522C574 522 585.18 507.059 601.951 484.627C618.84 462.234 641.498 432.539 664.513 403.033C687.528 373.488 710.84 344.17 728.503 322.266L758 285.834C758 285.834 756.632 285.006 754.551 283.802Z" fill="#151342"/>
<path d="M789.742 307.239C787.192 305.429 784.583 303.582 782.685 302.225C780.788 300.867 779.424 300 779.424 300C779.424 300 766.32 317.118 746.633 342.757C726.887 368.358 700.263 402.367 673.343 436.112C646.422 469.895 619.146 503.414 598.511 528.412L564 570C564 570 578.409 553.787 600.052 529.468C621.755 505.224 650.929 473.025 680.399 441.089C709.869 409.154 739.755 377.482 762.287 353.842C784.939 330.277 800 314.554 800 314.554C800 314.554 794.9 310.859 789.742 307.202L789.742 307.239Z" fill="#151342"/>
<path d="M810.143 321.674C807.649 319.746 805.155 317.818 803.314 316.344C801.473 314.907 800.167 314 800.167 314C800.167 314 764.063 359.025 726.652 403.256C689.42 447.563 651 491 651 491C651 491 692.151 449.756 734.491 409.418C776.711 368.968 820 329.462 820 329.462C820 329.462 815.071 325.568 810.143 321.674Z" fill="#151342"/>
<path d="M374.835 197.941C371.611 198.13 368.447 198.544 365.985 198.807C363.582 199.071 362 199.259 362 199.259C362 199.259 365.458 220.194 370.557 251.595C375.597 282.997 382.044 324.941 388.022 366.885C394.058 408.829 399.567 450.811 403.553 482.401C407.421 513.953 410 535 410 535C410 535 408.183 513.915 405.428 482.288C402.791 450.66 399.568 408.415 396.813 366.17C394 323.924 391.655 281.641 390.132 249.901C388.666 218.16 387.729 197 387.729 197C387.729 197 381.282 197.452 374.894 197.941L374.835 197.941Z" fill="#151342"/>
<path d="M434.97 195.044C431.713 194.968 428.455 195.006 426.027 195.044C423.599 195.081 422 195.119 422 195.119C422 195.119 423.125 219.674 424.783 256.469C426.323 293.302 428.041 342.374 429.284 391.484C430.528 440.557 431.239 489.704 431.535 526.575C431.713 563.445 431.831 588 431.831 588C431.831 588 432.364 563.445 433.075 526.612C433.963 489.78 435.444 440.707 437.517 391.597C439.53 342.525 442.077 293.452 444.209 256.62C446.46 219.825 448 195.307 448 195.307C448 195.307 441.485 195.157 435.029 195.044L434.97 195.044Z" fill="#151342"/>
<path d="M470.176 196.716C466.941 196.527 463.706 196.301 461.294 196.151C458.882 196.038 457.294 196 457.294 196C457.294 196 457 216.488 456.588 247.258C456.059 277.991 455.059 319.042 453.647 360.057C452.235 401.071 450.412 442.047 448.823 472.78C447.117 503.512 446 524 446 524C446 524 447.882 503.587 450.764 472.93C453.706 442.311 457.941 401.485 462.529 360.659C467.117 319.871 472.176 279.083 476.176 248.539C480.294 217.995 483 197.62 483 197.62C483 197.62 476.529 197.168 470.117 196.716L470.176 196.716Z" fill="#151342"/>
<path d="M830.572 339.034C828.2 336.997 825.828 334.961 824.049 333.452C822.27 331.943 821.025 331 821.025 331C821.025 331 782.66 374.302 743.05 416.811C703.618 459.358 663 501 663 501C663 501 706.227 461.659 750.522 423.261C794.697 384.788 840 347.257 840 347.257C840 347.257 835.316 343.146 830.572 339.072L830.572 339.034Z" fill="#151342"/>
<path d="M870.511 376.903C868.374 374.677 866.236 372.451 864.574 370.754C862.971 369.056 861.843 368 861.843 368C861.843 368 845.102 382.788 819.991 404.969C794.76 427.075 760.922 456.386 726.846 485.396C692.711 514.405 658.339 543.113 632.396 564.502C606.394 585.816 589 600 589 600C589 600 606.869 586.306 633.583 565.785C660.417 545.339 696.392 518.253 732.664 491.507C768.937 464.723 805.446 438.279 832.992 418.587C860.597 398.971 879 385.881 879 385.881C879 385.881 874.726 381.392 870.451 376.903L870.511 376.903Z" fill="#151342"/>
<path d="M913.684 426.375C912.258 424.56 910.417 422.102 908.516 419.681C904.715 414.841 900.914 410 900.914 410C900.914 410 879.533 425.203 847.461 447.968C815.329 470.659 772.269 500.686 728.853 530.296C685.496 559.945 641.842 589.178 608.939 610.923C575.975 632.592 554 647 554 647C554 647 576.332 633.008 609.829 612.057C643.386 591.182 688.347 563.576 733.664 536.385C778.921 509.157 824.475 482.382 858.745 462.452C893.074 442.636 916 429.438 916 429.438C916 429.438 915.109 428.19 913.684 426.375Z" fill="#151342"/>
<path d="M929.484 449.985C925.99 444.993 922.495 440 922.495 440C922.495 440 903.896 451.562 875.938 468.943C847.98 486.211 810.486 509.072 772.814 531.558C735.142 554.081 697.233 576.23 668.682 592.709C640.073 609.076 621 620 621 620C621 620 640.488 609.677 669.689 594.211C698.95 578.82 738.103 558.511 777.493 538.54C816.883 518.569 856.45 498.899 886.244 484.334C916.098 469.844 936 460.196 936 460.196L929.425 449.985L929.484 449.985Z" fill="#151342"/>
<path d="M526.93 201.811C523.693 201.321 520.396 200.755 517.938 200.491C515.48 200.189 513.861 200 513.861 200C513.861 200 512.662 212.642 510.803 231.623C508.885 250.604 506.187 275.811 503.189 301.094C497.254 351.66 490 402 490 402C490 402 501.211 352.264 513.741 302.755C526.151 253.208 540 203.925 540 203.925C540 203.925 533.465 202.868 526.99 201.849L526.93 201.811Z" fill="#151342"/>
<path d="M563.267 208.643C556.87 207.322 550.474 206 550.474 206C550.474 206 546.032 228.657 539.399 262.642C532.647 296.59 523.289 341.828 513.458 386.953C503.686 432.078 493.38 477.09 485.444 510.849C477.39 544.532 472 567 472 567C472 567 478.041 544.683 487.103 511.189C496.283 477.732 508.779 433.173 521.809 388.728C534.779 344.283 548.282 299.913 558.588 266.721C569.011 233.528 576 211.438 576 211.438C576 211.438 569.604 210.078 563.267 208.719L563.267 208.643Z" fill="#151342"/>
<path d="M609.121 220.733C606.828 220.016 603.713 219.074 600.598 218.281C594.367 216.622 588.078 215 588.078 215C588.078 215 576.558 264.071 563.744 312.802C551.048 361.571 537 410 537 410C537 410 541.526 398.157 548.285 380.392C555.104 362.627 564.332 339.053 573.854 315.555C592.78 268.521 613 221.902 613 221.902C613 221.902 611.472 221.45 609.121 220.733Z" fill="#151342"/>
<path d="M629.122 226.45C626.795 225.733 623.692 224.752 620.53 223.772C614.264 221.886 607.999 220 607.999 220C607.999 220 603.405 235.388 596.424 258.508C589.383 281.59 579.836 312.328 569.991 342.953C560.146 373.578 549.884 404.127 542.127 426.945C534.251 449.763 529 465 529 465C529 465 535.205 450.065 544.454 427.662C553.822 405.296 566.471 375.501 579.538 345.857C592.546 316.175 605.851 286.606 615.995 264.504C626.198 242.441 633 227.694 633 227.694C633 227.694 631.449 227.166 629.122 226.45Z" fill="#151342"/>
<path d="M-68.4152 450.011C-71.7374 455.13 -75.0002 460.248 -75.0002 460.248C-75.0002 460.248 -25.5829 482.68 23.1226 506.165C47.5051 517.869 71.7688 529.8 89.8628 538.833L120 554C120 554 73.9639 526.488 28.6399 497.96C-16.7435 469.507 -61.4149 440 -61.4149 440C-61.4149 440 -64.915 445.006 -68.4152 450.011Z" fill="#151342"/>
<path d="M-56.9587 433.847C-60.4498 438.864 -64 443.844 -64 443.844C-64 443.844 -48.7341 451.729 -25.8944 463.537C-3.05473 475.421 27.2403 491.417 57.358 507.715C87.4756 523.975 117.416 540.499 139.782 553.024C162.089 565.625 177 574 177 574C177 574 162.622 564.87 141.084 551.176C119.605 537.405 91.0258 518.92 62.6833 500.132C34.3408 481.382 6.23502 462.405 -14.7704 448.032C-35.7166 433.62 -49.6808 424 -49.6808 424C-49.6808 424 -53.4677 428.829 -56.9587 433.847Z" fill="#151342"/>
<path d="M671.102 241.867C665.093 239.452 659.085 237 659.085 237C659.085 237 650.518 257.033 637.609 287.101C624.64 317.132 607.031 357.047 589.006 396.774C570.98 436.538 552.598 476.113 538.558 505.729C524.459 535.307 515 555 515 555C515 555 525.113 535.571 540.224 506.408C555.453 477.283 576.037 438.613 597.096 400.093C618.096 361.574 639.513 323.206 655.754 294.534C672.113 265.899 683 246.809 683 246.809C683 246.809 677.051 244.319 671.042 241.867L671.102 241.867Z" fill="#151342"/>
<path d="M721.67 264.882C715.976 261.941 710.282 259 710.282 259C710.282 259 697.944 280.907 679.497 313.786C660.872 346.589 635.841 390.214 610.276 433.575C584.771 476.973 558.731 520.108 539.038 552.346C519.227 584.546 506 606 506 606C506 606 519.761 584.81 540.343 553.024C561.044 521.314 588.982 479.16 617.394 437.27C645.747 395.379 674.574 353.715 696.402 322.571C718.349 291.502 733 270.802 733 270.802C733 270.802 727.365 267.823 721.67 264.844L721.67 264.882Z" fill="#151342"/>
<path d="M1004.69 625.617C1004.09 622.684 1003.5 619.79 1003.03 617.609C1002.49 615.429 1002.14 614 1002.14 614C1002.14 614 986.659 617.722 963.411 623.248C940.164 628.737 909.148 635.88 877.954 642.76C815.625 656.594 753 669 753 669C753 669 816.218 659.714 879.733 651.857C943.248 643.85 1007 637.271 1007 637.271C1007 637.271 1005.87 631.444 1004.69 625.579L1004.69 625.617Z" fill="#151342"/>
<path d="M1011.64 671.177C1011.35 668.918 1010.93 665.932 1010.58 662.945C1009.75 656.973 1008.92 651 1008.92 651C1008.92 651 991.728 653.91 965.945 658.313C940.161 662.639 905.663 668.191 871.166 673.436C836.669 678.681 802.113 683.62 776.21 687.181C750.308 690.665 733 693 733 693C733 693 750.426 691.584 776.507 689.44C802.646 687.372 837.499 684.807 872.411 682.548C907.323 680.289 942.235 678.337 968.375 677.035C994.574 675.81 1012 674.967 1012 674.967L1011.64 671.215L1011.64 671.177Z" fill="#151342"/>
<path d="M1014 703.369C1013.88 701.204 1013.88 698.343 1013.58 695.482C1013.11 689.723 1012.64 684 1012.64 684C1012.64 684 958.861 690.64 904.907 696.142C851.013 701.718 797 706.156 797 706.156C797 706.156 851.309 705.239 905.5 705.533C959.75 705.68 1014 707 1014 707C1014 707 1014 705.57 1013.88 703.405L1014 703.369Z" fill="#151342"/>
<path d="M1013.11 758.289C1013.23 756.055 1013.59 753.101 1013.64 750.147L1014 738.295C1014 738.295 992.095 738.446 959.298 738.711C926.441 738.863 882.691 738.825 838.941 738.408C795.191 737.992 751.441 737.234 718.643 736.439C685.845 735.568 664 735 664 735L718.584 738.295C751.322 740.34 794.954 743.331 838.526 746.739C882.099 750.109 925.671 753.858 958.35 756.85C991.03 759.955 1012.76 762 1012.76 762C1012.76 762 1012.88 760.523 1013.05 758.289L1013.11 758.289Z" fill="#151342"/>
<path d="M983.844 895.732L988 884.388C988 884.388 928.57 870.548 869.555 855.385C810.54 840.335 752 824 752 824C752 824 809.352 843.512 866.23 864.309C923.167 884.993 979.569 907 979.569 907C979.569 907 981.707 901.366 983.844 895.694L983.844 895.732Z" fill="#151342"/>
<path d="M880.888 1062.03C884.914 1057.39 889 1052.76 889 1052.76C889 1052.76 843.171 1023.77 798.23 993.764C753.171 963.872 709 933 709 933C709 933 750.684 966.586 791.539 1001.15C832.454 1035.6 872.421 1071 872.421 1071C872.421 1071 876.684 1066.51 880.888 1061.99L880.888 1062.03Z" fill="#151342"/>
<path d="M857.165 1087.39C859.418 1085.24 861.612 1083.09 863.332 1081.47C864.933 1079.8 866 1078.67 866 1078.67C866 1078.67 846.67 1063.84 817.735 1041.56C788.859 1019.25 750.555 989.237 712.547 958.884C674.54 928.531 636.829 897.876 608.724 874.734C580.678 851.516 562 836 562 836C562 836 580.203 851.932 607.538 875.829C634.754 899.801 670.864 932.004 706.618 964.509C742.372 997.014 777.83 1029.82 804.216 1054.59C830.542 1079.43 848.093 1096 848.093 1096C848.093 1096 852.6 1091.7 857.106 1087.43L857.165 1087.39Z" fill="#151342"/>
<path d="M947.097 477.581C945.967 475.615 944.48 472.931 942.875 470.36C939.604 465.18 936.392 460 936.392 460C936.392 460 890.183 487.79 843.321 514.483C796.517 541.29 749 567 749 567C749 567 761.37 561.404 779.984 553.011C798.599 544.655 823.457 533.69 848.435 522.952C898.39 501.363 949 480.909 949 480.909C949 480.909 948.227 479.585 947.097 477.581Z" fill="#151342"/>
</g>
</mask>
<g mask="url(#mask0_870_432)">
<path d="M-146 1093L398 1093L398 160L-146 160L-146 1093Z" fill="#100D33" fill-opacity="0.49"/>
</g>
</g>
</g>
<g clip-path="url(#clip2_870_432)">
<mask id="mask1_870_432" style="mask-type:alpha" maskUnits="userSpaceOnUse" x="515" y="195" width="1160" height="901">
<g opacity="0.6">
<path d="M1537.44 1074.12C1535.3 1076.34 1533.16 1078.56 1531.49 1080.25C1530.72 1081.08 1530.01 1081.76 1529.53 1082.25C1529.05 1082.74 1528.76 1083 1528.76 1083C1528.76 1083 1518 1073.14 1501.82 1058.32C1485.59 1043.57 1463.83 1023.97 1441.83 1004.6C1397.95 965.772 1353 928 1353 928C1353 928 1400.33 963.289 1448.61 997.524C1496.83 1031.87 1546 1065.17 1546 1065.17C1546 1065.17 1541.72 1069.64 1537.44 1074.12Z" fill="#151342"/>
<path d="M1671.14 620.663C1671.56 622.853 1672.15 625.799 1672.75 628.707C1673.87 634.56 1675 640.451 1675 640.451C1675 640.451 1614 646.304 1553.29 653.479C1492.53 660.541 1432 669 1432 669C1432 669 1491.87 657.293 1551.45 644.227C1581.24 637.732 1610.97 630.972 1633.28 625.761C1655.54 620.512 1670.31 617 1670.31 617C1670.31 617 1670.67 618.435 1671.14 620.663Z" fill="#151342"/>
<path d="M1573.57 1033.38C1571.66 1035.79 1569.76 1038.21 1568.33 1040.02C1566.9 1041.83 1565.89 1043 1565.89 1043C1565.89 1043 1547.64 1029.76 1520.16 1009.88C1492.68 990.071 1455.81 963.852 1418.7 937.972C1381.58 912.093 1344.23 886.515 1316.04 867.539C1287.85 848.6 1269 836 1269 836C1269 836 1288.27 848.072 1317.11 866.143C1346.08 884.138 1384.8 907.943 1423.81 931.408C1462.83 954.873 1502.08 977.999 1531.64 995.202C1561.25 1012.29 1581 1023.72 1581 1023.72C1581 1023.72 1577.19 1028.55 1573.45 1033.42L1573.57 1033.38Z" fill="#151342"/>
<path d="M1610.1 979.599C1608.92 981.524 1607.25 984.129 1605.65 986.695C1602.39 991.829 1599.13 997 1599.13 997C1599.13 997 1576.23 983.789 1541.94 963.972C1507.59 944.269 1461.55 918.224 1415.28 892.594C1369.01 866.964 1322.5 841.75 1287.49 823.028C1252.43 804.419 1229 792 1229 792C1229 792 1252.67 803.928 1288.21 821.82C1323.8 839.598 1371.44 863.076 1419.31 886.102C1467.19 909.165 1515.36 931.775 1551.55 948.534C1587.8 965.18 1612 976.277 1612 976.277C1612 976.277 1611.29 977.599 1610.04 979.524L1610.1 979.599Z" fill="#151342"/>
<path d="M1626.34 951.037C1625.33 953.071 1623.97 955.782 1622.43 958.418C1619.46 963.728 1616.5 969 1616.5 969C1616.5 969 1596.76 958.983 1567.24 943.92C1537.6 928.97 1498 909.237 1458.17 889.843C1418.33 870.449 1378.32 851.432 1348.27 837.348C1318.1 823.339 1298 814 1298 814C1298 814 1318.45 822.699 1349.16 835.766C1379.92 848.758 1421 865.817 1462.2 882.538C1503.46 899.258 1544.89 915.601 1576.01 927.689C1607.19 939.702 1628 947.686 1628 947.686C1628 947.686 1627.35 949.041 1626.28 951.075L1626.34 951.037Z" fill="#151342"/>
<path d="M1665 595.701C1665.54 597.915 1666.31 600.815 1667.08 603.753C1668.57 609.629 1670 615.506 1670 615.506C1670 615.506 1609.23 624.092 1548.7 634.013C1488.17 643.82 1428 655 1428 655C1428 655 1487.34 640.538 1546.32 624.74C1575.84 616.88 1605.24 608.752 1627.27 602.494C1649.29 596.198 1663.93 592 1663.93 592C1663.93 592 1664.35 593.45 1664.88 595.663L1665 595.701Z" fill="#151342"/>
<path d="M1609.89 470.31C1611.55 472.868 1612.98 475.54 1614.1 477.496C1615.23 479.49 1616 480.807 1616 480.807C1616 480.807 1595.6 489.649 1565.06 502.931C1534.52 516.289 1493.96 534.349 1453.58 552.748C1413.2 571.147 1373.05 589.885 1342.99 604.108C1312.98 618.443 1293 628 1293 628C1293 628 1312.63 617.841 1342.04 602.603C1371.39 587.289 1410.41 566.632 1449.19 545.599C1487.97 524.604 1526.58 503.27 1555.46 487.091C1584.22 470.836 1603.43 460 1603.43 460C1603.43 460 1606.69 465.155 1609.89 470.31Z" fill="#151342"/>
<path d="M1648.75 903.251C1647.98 905.359 1646.91 908.183 1645.66 910.931L1640.84 922C1640.84 922 1590.12 900.389 1538.87 879.946C1487.67 859.389 1436 840 1436 840C1436 840 1449.32 843.953 1469.24 849.902C1489.22 855.813 1515.92 863.493 1542.61 870.948C1596.07 885.932 1650 899.712 1650 899.712C1650 899.712 1649.47 901.105 1648.69 903.213L1648.75 903.251Z" fill="#151342"/>
<path d="M1671.69 826.42C1671.09 829.343 1670.5 832.229 1669.91 834.402C1669.37 836.576 1669.01 838 1669.01 838C1669.01 838 1652.04 833.953 1626.58 827.881C1601.06 821.885 1567.05 814.09 1532.92 806.632C1498.8 799.137 1464.55 791.904 1438.85 786.657C1413.15 781.485 1396 778 1396 778C1396 778 1413.33 780.586 1439.27 784.483C1465.26 788.306 1499.98 793.216 1534.7 797.788C1569.48 802.397 1604.26 806.67 1630.44 809.78C1656.61 812.778 1674 814.802 1674 814.802C1674 814.802 1672.81 820.611 1671.69 826.42Z" fill="#151342"/>
<path d="M1561.09 401.342C1563.11 403.678 1565.07 406.013 1566.62 407.784C1568.05 409.592 1569 410.798 1569 410.798C1569 410.798 1553.53 420.253 1530.38 434.379C1507.29 448.581 1476.58 467.718 1446.05 487.156C1415.52 506.556 1385.23 526.22 1362.61 541.1C1340.06 556.055 1325 566 1325 566C1325 566 1339.46 555.377 1361.18 539.442C1382.85 523.432 1411.53 501.96 1440.04 480.187C1468.54 458.451 1496.81 436.451 1517.94 419.801C1539.01 403.113 1552.99 392 1552.99 392C1552.99 392 1557.04 396.671 1561.09 401.305L1561.09 401.342Z" fill="#151342"/>
<path d="M1531.39 369.628C1535.67 374.075 1540 378.558 1540 378.558C1540 378.558 1520.95 392.65 1492.34 413.788C1463.86 435.001 1426.05 463.486 1388.55 492.31C1351.04 521.096 1313.83 550.259 1286.11 572.226C1258.46 594.305 1240 609 1240 609C1240 609 1257.98 593.816 1284.93 571.02C1311.81 548.149 1347.42 517.479 1382.73 486.47C1418.04 455.46 1453.06 424.149 1479.11 400.525C1505.1 376.825 1522.43 361 1522.43 361C1522.43 361 1526.94 365.258 1531.39 369.628Z" fill="#151342"/>
<path d="M1486.85 329.411C1488.69 330.88 1491.18 332.801 1493.5 334.835C1498.25 338.903 1503 342.97 1503 342.97C1503 342.97 1487.14 356.944 1463.33 377.962C1439.64 399.017 1408.16 427.267 1377.05 455.78C1345.93 484.293 1315.11 513.032 1292.13 534.728L1254 571C1254 571 1268.67 555.971 1290.7 533.485C1312.67 510.885 1341.65 480.677 1370.39 450.168C1399.14 419.696 1427.52 388.923 1448.66 365.758C1469.74 342.518 1483.76 327 1483.76 327C1483.76 327 1485.01 327.979 1486.85 329.448L1486.85 329.411Z" fill="#151342"/>
<path d="M1447.67 300.927C1452.83 304.579 1458 308.193 1458 308.193C1458 308.193 1446.6 320.241 1429.55 338.312C1412.51 356.458 1390 380.741 1367.78 405.212C1345.51 429.683 1323.54 454.342 1307.14 472.941C1290.87 491.576 1280 504 1280 504C1280 504 1290.1 491.049 1305.24 471.623C1320.33 452.159 1340.22 426.107 1359.82 399.828C1379.48 373.588 1398.85 347.159 1413.22 327.243L1437.09 294C1437.09 294 1442.38 297.464 1447.73 300.927L1447.67 300.927Z" fill="#151342"/>
<path d="M1418.14 281.442C1420.87 283.071 1423.66 284.663 1425.68 285.951C1427.69 287.24 1429 288.073 1429 288.073C1429 288.073 1420.69 297.85 1408.17 312.553C1395.71 327.294 1379.34 346.96 1363.02 366.855C1330.45 406.567 1299 447 1299 447C1299 447 1327.12 404.635 1354.06 361.587C1381.12 318.616 1407.11 275 1407.11 275C1407.11 275 1412.62 278.221 1418.14 281.442Z" fill="#151342"/>
<path d="M1365.4 254.347C1368.3 255.702 1371.2 257.058 1373.39 258.112C1375.58 259.128 1377 259.844 1377 259.844C1377 259.844 1365.87 276.976 1349.24 302.692C1332.67 328.446 1310.77 362.935 1289.28 397.575C1267.74 432.215 1246.61 467.043 1230.98 493.249C1215.42 519.492 1205 537 1205 537C1205 537 1214.65 519.153 1229.15 492.42C1243.59 465.612 1262.53 429.805 1281.12 393.81C1299.7 357.814 1317.93 321.631 1331.43 294.408C1344.8 267.148 1353.74 249 1353.74 249C1353.74 249 1359.54 251.673 1365.4 254.384L1365.4 254.347Z" fill="#151342"/>
<path d="M1322.73 235.395C1325.05 236.186 1328.02 237.392 1331.05 238.598L1343 243.498C1343 243.498 1331.17 265.17 1313.4 297.621C1295.75 330.148 1272.57 373.643 1249.8 417.363C1227.04 461.046 1204.75 504.956 1188.28 537.935C1171.94 570.989 1161 593 1161 593C1161 593 1171.34 570.725 1186.86 537.332C1202.25 503.9 1222.46 459.124 1242.19 414.273C1261.93 369.421 1281.18 324.381 1295.39 290.498C1309.48 256.577 1318.87 234 1318.87 234C1318.87 234 1320.41 234.565 1322.67 235.395L1322.73 235.395Z" fill="#151342"/>
<path d="M774.449 283.802C776.531 282.597 779.266 280.979 782.002 279.361C787.533 276.162 793.063 273 793.063 273C793.063 273 802.876 288.732 817.565 312.367C832.373 335.927 852.295 367.241 872.515 398.366C892.735 429.491 913.312 460.428 928.893 483.536L955 522C955 522 943.82 507.059 927.049 484.627C910.16 462.234 887.502 432.539 864.487 403.033C841.472 373.488 818.16 344.17 800.497 322.266L771 285.834C771 285.834 772.368 285.006 774.449 283.802Z" fill="#151342"/>
<path d="M739.258 307.239C741.808 305.429 744.417 303.582 746.315 302.225C748.212 300.867 749.576 300 749.576 300C749.576 300 762.68 317.118 782.367 342.757C802.113 368.358 828.737 402.367 855.657 436.112C882.578 469.895 909.854 503.414 930.489 528.412L965 570C965 570 950.591 553.787 928.948 529.468C907.245 505.224 878.071 473.025 848.601 441.089C819.131 409.154 789.245 377.482 766.713 353.842C744.061 330.277 729 314.554 729 314.554C729 314.554 734.1 310.859 739.258 307.202L739.258 307.239Z" fill="#151342"/>
<path d="M718.857 321.674C721.351 319.746 723.845 317.818 725.686 316.344C727.527 314.907 728.833 314 728.833 314C728.833 314 764.937 359.025 802.348 403.256C839.58 447.563 878 491 878 491C878 491 836.849 449.756 794.509 409.418C752.289 368.968 709 329.462 709 329.462C709 329.462 713.929 325.568 718.857 321.674Z" fill="#151342"/>
<path d="M1094.03 195.044C1097.29 194.968 1100.54 195.006 1102.97 195.044C1105.4 195.081 1107 195.119 1107 195.119C1107 195.119 1105.87 219.674 1104.22 256.469C1102.68 293.302 1100.96 342.374 1099.72 391.484C1098.47 440.557 1097.76 489.704 1097.46 526.575C1097.29 563.445 1097.17 588 1097.17 588C1097.17 588 1096.64 563.445 1095.93 526.612C1095.04 489.78 1093.56 440.707 1091.48 391.597C1089.47 342.525 1086.92 293.452 1084.79 256.62C1082.54 219.825 1081 195.307 1081 195.307C1081 195.307 1087.52 195.157 1093.97 195.044L1094.03 195.044Z" fill="#151342"/>
<path d="M1058.82 196.716C1062.06 196.527 1065.29 196.301 1067.71 196.151C1070.12 196.038 1071.71 196 1071.71 196C1071.71 196 1072 216.488 1072.41 247.258C1072.94 277.991 1073.94 319.042 1075.35 360.057C1076.76 401.071 1078.59 442.047 1080.18 472.78C1081.88 503.512 1083 524 1083 524C1083 524 1081.12 503.587 1078.24 472.93C1075.29 442.311 1071.06 401.485 1066.47 360.659C1061.88 319.871 1056.82 279.083 1052.82 248.539C1048.71 217.995 1046 197.62 1046 197.62C1046 197.62 1052.47 197.168 1058.88 196.716L1058.82 196.716Z" fill="#151342"/>
<path d="M698.428 339.034C700.8 336.997 703.172 334.961 704.951 333.452C706.73 331.943 707.975 331 707.975 331C707.975 331 746.34 374.302 785.95 416.811C825.382 459.358 866 501 866 501C866 501 822.773 461.659 778.478 423.261C734.303 384.788 689 347.257 689 347.257C689 347.257 693.684 343.146 698.428 339.072L698.428 339.034Z" fill="#151342"/>
<path d="M658.489 376.903C660.626 374.677 662.764 372.451 664.426 370.754C666.029 369.056 667.157 368 667.157 368C667.157 368 683.898 382.788 709.009 404.969C734.24 427.075 768.078 456.386 802.154 485.396C836.289 514.405 870.661 543.113 896.604 564.502C922.606 585.816 940 600 940 600C940 600 922.131 586.306 895.417 565.785C868.583 545.339 832.608 518.253 796.336 491.507C760.063 464.723 723.554 438.279 696.008 418.587C668.403 398.971 650 385.881 650 385.881C650 385.881 654.274 381.392 658.549 376.903L658.489 376.903Z" fill="#151342"/>
<path d="M615.316 426.375C616.742 424.56 618.583 422.102 620.484 419.681C624.285 414.841 628.086 410 628.086 410C628.086 410 649.467 425.203 681.539 447.968C713.671 470.659 756.731 500.686 800.147 530.296C843.504 559.945 887.158 589.178 920.061 610.923C953.025 632.592 975 647 975 647C975 647 952.668 633.008 919.171 612.057C885.614 591.182 840.653 563.576 795.336 536.385C750.079 509.157 704.525 482.382 670.255 462.452C635.926 442.636 613 429.438 613 429.438C613 429.438 613.891 428.19 615.316 426.375Z" fill="#151342"/>
<path d="M599.516 449.985C603.01 444.993 606.505 440 606.505 440C606.505 440 625.104 451.562 653.062 468.943C681.02 486.211 718.514 509.072 756.186 531.558C793.858 554.081 831.767 576.23 860.318 592.709C888.927 609.076 908 620 908 620C908 620 888.512 609.677 859.311 594.211C830.05 578.82 790.897 558.511 751.507 538.54C712.117 518.569 672.55 498.899 642.756 484.334C612.902 469.844 593 460.196 593 460.196L599.575 449.985L599.516 449.985Z" fill="#151342"/>
<path d="M1002.07 201.811C1005.31 201.321 1008.6 200.755 1011.06 200.491C1013.52 200.189 1015.14 200 1015.14 200C1015.14 200 1016.34 212.642 1018.2 231.623C1020.12 250.604 1022.81 275.811 1025.81 301.094C1031.75 351.66 1039 402 1039 402C1039 402 1027.79 352.264 1015.26 302.755C1002.85 253.208 989 203.925 989 203.925C989 203.925 995.535 202.868 1002.01 201.849L1002.07 201.811Z" fill="#151342"/>
<path d="M965.733 208.643C972.13 207.322 978.526 206 978.526 206C978.526 206 982.968 228.657 989.601 262.642C996.353 296.59 1005.71 341.828 1015.54 386.953C1025.31 432.078 1035.62 477.09 1043.56 510.849C1051.61 544.532 1057 567 1057 567C1057 567 1050.96 544.683 1041.9 511.189C1032.72 477.732 1020.22 433.173 1007.19 388.728C994.221 344.283 980.718 299.913 970.412 266.721C959.989 233.528 953 211.438 953 211.438C953 211.438 959.396 210.078 965.733 208.719L965.733 208.643Z" fill="#151342"/>
<path d="M919.879 220.733C922.172 220.016 925.287 219.074 928.402 218.281C934.633 216.622 940.922 215 940.922 215C940.922 215 952.442 264.071 965.256 312.802C977.952 361.571 992 410 992 410C992 410 987.474 398.157 980.715 380.392C973.896 362.627 964.668 339.053 955.146 315.555C936.22 268.521 916 221.902 916 221.902C916 221.902 917.528 221.45 919.879 220.733Z" fill="#151342"/>
<path d="M899.878 226.45C902.205 225.733 905.308 224.752 908.47 223.772C914.736 221.886 921.001 220 921.001 220C921.001 220 925.595 235.388 932.576 258.508C939.617 281.59 949.164 312.328 959.009 342.953C968.854 373.578 979.116 404.127 986.873 426.945C994.749 449.763 1000 465 1000 465C1000 465 993.795 450.065 984.546 427.662C975.178 405.296 962.529 375.501 949.462 345.857C936.454 316.175 923.149 286.606 913.005 264.504C902.802 242.441 896 227.694 896 227.694C896 227.694 897.551 227.166 899.878 226.45Z" fill="#151342"/>
<path d="M1597.42 450.011C1600.74 455.13 1604 460.248 1604 460.248C1604 460.248 1554.58 482.68 1505.88 506.165C1481.49 517.869 1457.23 529.8 1439.14 538.833L1409 554C1409 554 1455.04 526.488 1500.36 497.96C1545.74 469.507 1590.41 440 1590.41 440C1590.41 440 1593.92 445.006 1597.42 450.011Z" fill="#151342"/>
<path d="M1585.96 433.847C1589.45 438.864 1593 443.844 1593 443.844C1593 443.844 1577.73 451.729 1554.89 463.537C1532.05 475.421 1501.76 491.417 1471.64 507.715C1441.52 523.975 1411.58 540.499 1389.22 553.024C1366.91 565.625 1352 574 1352 574C1352 574 1366.38 564.87 1387.92 551.176C1409.39 537.405 1437.97 518.92 1466.32 500.132C1494.66 481.382 1522.76 462.405 1543.77 448.032C1564.72 433.62 1578.68 424 1578.68 424C1578.68 424 1582.47 428.829 1585.96 433.847Z" fill="#151342"/>
<path d="M857.898 241.867C863.907 239.452 869.915 237 869.915 237C869.915 237 878.482 257.033 891.391 287.101C904.36 317.132 921.969 357.047 939.994 396.774C958.02 436.538 976.402 476.113 990.442 505.729C1004.54 535.307 1014 555 1014 555C1014 555 1003.89 535.571 988.776 506.408C973.547 477.283 952.963 438.613 931.904 400.093C910.904 361.574 889.487 323.206 873.246 294.534C856.887 265.899 846 246.809 846 246.809C846 246.809 851.949 244.319 857.958 241.867L857.898 241.867Z" fill="#151342"/>
<path d="M807.33 264.882C813.024 261.941 818.718 259 818.718 259C818.718 259 831.056 280.907 849.503 313.786C868.128 346.589 893.159 390.214 918.724 433.575C944.229 476.973 970.269 520.108 989.962 552.346C1009.77 584.546 1023 606 1023 606C1023 606 1009.24 584.81 988.657 553.024C967.956 521.314 940.018 479.16 911.606 437.27C883.253 395.379 854.426 353.715 832.598 322.571C810.651 291.502 796 270.802 796 270.802C796 270.802 801.635 267.823 807.33 264.844L807.33 264.882Z" fill="#151342"/>
<path d="M524.313 625.617C524.906 622.684 525.499 619.79 525.973 617.609C526.507 615.429 526.863 614 526.863 614C526.863 614 542.341 617.722 565.589 623.248C588.836 628.737 619.852 635.88 651.046 642.76C713.375 656.594 776 669 776 669C776 669 712.782 659.714 649.267 651.857C585.752 643.85 522 637.271 522 637.271C522 637.271 523.127 631.444 524.313 625.579L524.313 625.617Z" fill="#151342"/>
<path d="M517.356 671.177C517.652 668.918 518.067 665.932 518.423 662.945C519.252 656.973 520.082 651 520.082 651C520.082 651 537.272 653.91 563.055 658.313C588.839 662.639 623.337 668.191 657.834 673.436C692.331 678.681 726.887 683.62 752.79 687.181C778.692 690.665 796 693 796 693C796 693 778.574 691.584 752.493 689.44C726.354 687.372 691.501 684.807 656.589 682.548C621.677 680.289 586.765 678.337 560.625 677.035C534.426 675.81 517 674.967 517 674.967L517.356 671.215L517.356 671.177Z" fill="#151342"/>
<path d="M515 703.369C515.119 701.204 515.119 698.343 515.415 695.482C515.889 689.723 516.364 684 516.364 684C516.364 684 570.139 690.64 624.093 696.142C677.987 701.718 732 706.156 732 706.156C732 706.156 677.691 705.239 623.5 705.533C569.25 705.68 515 707 515 707C515 707 515 705.57 515.119 703.405L515 703.369Z" fill="#151342"/>
<path d="M515.888 758.289C515.77 756.055 515.414 753.101 515.355 750.147L515 738.295C515 738.295 536.905 738.446 569.702 738.711C602.559 738.863 646.309 738.825 690.059 738.408C733.809 737.992 777.559 737.234 810.357 736.439C843.155 735.568 865 735 865 735L810.416 738.295C777.678 740.34 734.046 743.331 690.474 746.739C646.901 750.109 603.329 753.858 570.65 756.85C537.97 759.955 516.243 762 516.243 762C516.243 762 516.125 760.523 515.947 758.289L515.888 758.289Z" fill="#151342"/>
<path d="M545.156 895.732L541 884.388C541 884.388 600.43 870.548 659.445 855.385C718.46 840.335 777 824 777 824C777 824 719.648 843.512 662.77 864.309C605.833 884.993 549.431 907 549.431 907C549.431 907 547.293 901.366 545.156 895.694L545.156 895.732Z" fill="#151342"/>
<path d="M648.112 1062.03C644.086 1057.39 640 1052.76 640 1052.76C640 1052.76 685.829 1023.77 730.77 993.764C775.829 963.872 820 933 820 933C820 933 778.316 966.586 737.461 1001.15C696.546 1035.6 656.579 1071 656.579 1071C656.579 1071 652.316 1066.51 648.112 1061.99L648.112 1062.03Z" fill="#151342"/>
<path d="M671.835 1087.39C669.582 1085.24 667.388 1083.09 665.668 1081.47C664.067 1079.8 663 1078.67 663 1078.67C663 1078.67 682.33 1063.84 711.265 1041.56C740.141 1019.25 778.445 989.237 816.453 958.884C854.46 928.531 892.171 897.876 920.276 874.734C948.322 851.516 967 836 967 836C967 836 948.797 851.932 921.462 875.829C894.246 899.801 858.136 932.004 822.382 964.509C786.628 997.014 751.17 1029.82 724.784 1054.59C698.458 1079.43 680.907 1096 680.907 1096C680.907 1096 676.4 1091.7 671.894 1087.43L671.835 1087.39Z" fill="#151342"/>
<path d="M581.903 477.581C583.033 475.615 584.52 472.931 586.125 470.36C589.396 465.18 592.608 460 592.608 460C592.608 460 638.817 487.79 685.679 514.483C732.483 541.29 780 567 780 567C780 567 767.63 561.404 749.016 553.011C730.401 544.655 705.543 533.69 680.565 522.952C630.61 501.363 580 480.909 580 480.909C580 480.909 580.773 479.585 581.903 477.581Z" fill="#151342"/>
</g>
</mask>
<g mask="url(#mask1_870_432)">
<path d="M1675 1093L1131 1093L1131 160L1675 160L1675 1093Z" fill="#100D33" fill-opacity="0.49"/>
</g>
</g>
<g clip-path="url(#clip3_870_432)">
<g opacity="0.6">
<path d="M168.395 -17.0857C161.16 -9.33205 153.925 -1.50307 153.925 -1.50307C153.925 -1.50307 220.784 80.6252 285.899 164.711C351.188 248.571 414.734 334.312 414.734 334.312C414.734 334.312 355.111 244.355 297.231 152.591C239.176 60.9776 182.953 -32.4424 182.953 -32.4424C182.953 -32.4424 175.718 -24.7641 168.395 -17.0105L168.395 -17.0857Z" fill="#100D33" fill-opacity="0.3"/>
<path d="M215.9 -64.4399C208.316 -57.138 200.733 -49.9113 200.733 -49.9113C200.733 -49.9113 217.469 -25.8223 242.486 10.3112C267.504 46.5952 300.541 95.1497 333.142 144.08C365.83 193.011 398.082 242.318 422.141 279.506C446.025 316.768 461.977 341.61 461.977 341.61C461.977 341.61 447.158 315.715 424.93 276.871C402.79 237.952 373.588 185.86 344.822 133.316C315.97 80.8468 287.552 28.0015 266.458 -11.8206L231.416 -78.2912C231.416 -78.2912 223.658 -71.3655 215.813 -64.4399L215.9 -64.4399Z" fill="#100D33" fill-opacity="0.3"/>
<path d="M259.137 -101.694C255.127 -98.4566 251.03 -95.2949 248.066 -92.7354C245.103 -90.1759 243.185 -88.5198 243.185 -88.5198C243.185 -88.5198 255.389 -69.0982 273.781 -39.8902C292.087 -10.607 316.145 28.4623 340.117 67.9833C387.972 146.875 434.172 227.197 434.172 227.197C434.172 227.197 392.854 143.036 353.279 57.5197C313.53 -27.8457 275.35 -114.491 275.35 -114.491C275.35 -114.491 267.244 -108.092 259.137 -101.694Z" fill="#100D33" fill-opacity="0.3"/>
<path d="M336.544 -157.405C332.273 -154.695 328.001 -151.985 324.776 -149.878C321.551 -147.845 319.459 -146.415 319.459 -146.415C319.459 -146.415 335.847 -112.163 360.341 -60.7482C384.748 -9.25795 417.001 59.6968 448.643 128.953C480.372 198.209 511.491 267.841 534.504 320.234C557.429 372.703 572.771 407.708 572.771 407.708C572.771 407.708 558.562 372.026 537.206 318.578C515.937 264.98 488.043 193.391 460.672 121.425C433.301 49.459 406.453 -22.8833 386.579 -77.3093C366.879 -131.811 353.716 -168.095 353.716 -168.095C353.716 -168.095 345.174 -162.75 336.544 -157.33L336.544 -157.405Z" fill="#100D33" fill-opacity="0.3"/>
<path d="M400.087 -193.985C396.687 -192.404 392.329 -189.995 387.883 -187.586L370.362 -177.8C370.362 -177.8 387.709 -134.515 413.772 -69.7004C439.661 -4.73537 473.657 82.1356 507.043 169.458C540.428 256.706 573.117 344.405 597.262 410.273C621.234 476.292 637.273 520.254 637.273 520.254C637.273 520.254 622.105 475.765 599.354 409.069C576.778 342.297 547.14 252.866 518.2 163.286C489.26 73.7045 461.018 -16.2529 440.184 -83.9279C419.525 -151.678 405.753 -196.77 405.753 -196.77C405.753 -196.77 403.486 -195.641 400.174 -193.985L400.087 -193.985Z" fill="#100D33" fill-opacity="0.3"/>
<path d="M450.995 -217.7C446.462 -215.742 441.842 -213.861 438.443 -212.355C435.043 -210.925 432.777 -209.871 432.777 -209.871C432.777 -209.871 443.934 -176.447 460.671 -126.387C477.233 -76.1767 499.112 -9.17925 520.294 58.1947C541.563 125.493 562.309 193.018 577.564 243.755C592.731 294.568 602.843 328.443 602.843 328.443C602.843 328.443 593.952 294.041 580.615 242.476C567.452 190.835 550.193 121.88 533.457 52.624C516.72 -16.5566 500.594 -86.0382 488.739 -138.206C476.971 -190.449 469.213 -225.227 469.213 -225.227C469.213 -225.227 460.061 -221.464 450.908 -217.7L450.995 -217.7Z" fill="#100D33" fill-opacity="0.3"/>
<path d="M525.439 -244.728C516.025 -242.168 506.785 -238.856 506.785 -238.856C506.785 -238.856 516.548 -199.034 531.279 -139.338C545.836 -79.5674 564.752 0.227318 583.057 80.3233C601.45 160.419 619.145 240.741 632.133 301.114C644.947 361.487 653.49 401.761 653.49 401.761C653.49 401.761 645.993 361.186 634.835 300.361C623.852 239.461 609.469 158.161 595.871 76.6346C582.186 -4.81635 569.197 -86.493 559.696 -147.845C550.369 -209.196 544.18 -250.148 544.18 -250.148C544.18 -250.148 534.766 -247.438 525.439 -244.803L525.439 -244.728Z" fill="#100D33" fill-opacity="0.3"/>
<path d="M563.008 -254.964C558.301 -253.986 553.594 -252.706 550.02 -251.652C546.533 -250.673 544.18 -249.996 544.18 -249.996C544.18 -249.996 568.326 -143.026 590.379 -35.5285C601.45 18.2201 612.084 72.1192 619.842 112.694C627.513 153.269 632.656 180.294 632.656 180.294C632.656 180.294 617.925 70.9147 605.372 -38.9914C592.646 -148.822 582.011 -259.18 582.011 -259.18C582.011 -259.18 572.51 -257.072 563.095 -254.964L563.008 -254.964Z" fill="#100D33" fill-opacity="0.3"/>
<path d="M1205.18 -97.5553C1202.13 -99.9642 1198.12 -103.201 1194.11 -106.438C1186 -112.837 1177.89 -119.16 1177.89 -119.16C1177.89 -119.16 1163.51 -87.6939 1141.98 -40.4192C1120.27 6.70489 1091.07 69.3363 1061.44 131.591C1031.8 193.846 1001.64 255.725 978.799 301.946L940.532 378.88C940.532 378.88 956.92 348.995 981.501 304.129C1006.26 259.338 1039.47 199.944 1073.2 140.926C1106.94 81.8325 1141.11 23.1908 1167 -20.621L1210.23 -93.4902C1210.23 -93.4902 1208.23 -95.1464 1205.18 -97.5553Z" fill="#100D33" fill-opacity="0.3"/>
<path d="M1257.13 -51.1815C1253.38 -54.7948 1249.55 -58.4835 1246.76 -61.1935C1243.97 -63.9035 1241.96 -65.6349 1241.96 -65.6349C1241.96 -65.6349 1222.7 -31.4586 1193.76 19.7305C1164.73 70.8444 1125.59 138.745 1086.02 206.119C1046.45 273.568 1006.35 340.491 976.013 390.4L925.281 473.432C925.281 473.432 946.463 441.062 978.28 392.508C1010.18 344.104 1053.07 279.816 1096.39 216.056C1139.72 152.295 1183.65 89.0617 1216.77 41.8623C1250.07 -5.18653 1272.21 -36.5775 1272.21 -36.5775C1272.21 -36.5775 1264.72 -43.9547 1257.13 -51.2567L1257.13 -51.1815Z" fill="#100D33" fill-opacity="0.3"/>
<path d="M1286.77 -21.3017C1283.11 -25.1409 1279.45 -28.9801 1276.75 -31.9159C1274.04 -34.7765 1272.13 -36.5831 1272.13 -36.5831C1272.13 -36.5831 1219.13 53.0731 1164.21 141.149C1109.56 229.374 1053.16 315.869 1053.16 315.869C1053.16 315.869 1113.57 233.741 1175.72 153.419C1237.69 72.8712 1301.24 -5.79442 1301.24 -5.79442C1301.24 -5.79442 1294.01 -13.5481 1286.77 -21.3017Z" fill="#100D33" fill-opacity="0.3"/>
<path d="M647.211 -270.175C642.417 -269.798 637.71 -268.97 634.049 -268.444C630.475 -267.917 628.121 -267.54 628.121 -267.54C628.121 -267.54 633.264 -225.685 640.848 -162.903C648.344 -100.121 657.933 -16.2617 666.824 67.5982C675.803 151.458 683.996 235.393 689.924 298.551C695.677 361.635 699.512 403.715 699.512 403.715C699.512 403.715 696.81 361.559 692.713 298.326C688.791 235.092 683.996 150.63 679.9 66.1679C675.715 -18.2942 672.229 -102.832 669.962 -166.291C667.783 -229.75 666.388 -272.057 666.388 -272.057C666.388 -272.057 656.8 -271.153 647.298 -270.175L647.211 -270.175Z" fill="#100D33" fill-opacity="0.3"/>
<path d="M735.949 -274.913C731.155 -275.064 726.361 -274.989 722.787 -274.913C719.213 -274.838 716.859 -274.763 716.859 -274.763C716.859 -274.763 718.515 -225.682 720.956 -152.135C723.223 -78.5128 725.75 19.5746 727.581 117.737C729.411 215.825 730.458 314.063 730.893 387.76C731.155 461.457 731.329 510.538 731.329 510.538C731.329 510.538 732.114 461.457 733.16 387.835C734.467 314.213 736.646 216.126 739.697 117.963C742.661 19.8757 746.409 -78.2117 749.547 -151.834C752.86 -225.38 755.126 -274.386 755.126 -274.386C755.126 -274.386 745.538 -274.688 736.036 -274.913L735.949 -274.913Z" fill="#100D33" fill-opacity="0.3"/>
<path d="M787.815 -272.499C783.021 -272.875 778.227 -273.327 774.653 -273.628C771.079 -273.854 768.725 -273.929 768.725 -273.929C768.725 -273.929 768.29 -232.978 767.679 -171.476C766.895 -110.049 765.413 -27.9954 763.321 53.9825C761.229 135.96 758.527 217.863 756.173 279.29C753.645 340.717 751.989 381.668 751.989 381.668C751.989 381.668 754.778 340.867 759.05 279.591C763.408 218.39 769.684 136.788 776.483 55.187C783.283 -26.3392 790.779 -107.866 796.707 -168.916C802.808 -229.967 806.818 -270.692 806.818 -270.692C806.818 -270.692 797.23 -271.595 787.728 -272.499L787.815 -272.499Z" fill="#100D33" fill-opacity="0.3"/>
<path d="M1337.34 -2.96571C1333.85 -7.03072 1330.37 -11.0958 1327.75 -14.107C1325.14 -17.1181 1323.3 -19 1323.3 -19C1323.3 -19 1266.91 67.4193 1208.68 152.258C1150.71 237.171 1091 320.279 1091 320.279C1091 320.279 1154.55 241.763 1219.66 165.13C1284.6 88.3467 1351.2 13.4449 1351.2 13.4449C1351.2 13.4449 1344.31 5.23958 1337.34 -2.89046L1337.34 -2.96571Z" fill="#100D33" fill-opacity="0.3"/>
<path d="M870.8 -260.606C866.093 -261.584 861.299 -262.713 857.725 -263.24C854.151 -263.843 851.797 -264.219 851.797 -264.219C851.797 -264.219 850.054 -239.001 847.352 -201.136C844.562 -163.271 840.64 -112.985 836.281 -62.5488C827.651 38.3238 817.104 138.745 817.104 138.745C817.104 138.745 833.405 39.5282 851.623 -59.2367C869.667 -158.077 889.803 -256.39 889.803 -256.39C889.803 -256.39 880.301 -258.498 870.887 -260.53L870.8 -260.606Z" fill="#100D33" fill-opacity="0.3"/>
<path d="M923.971 -247.51C914.557 -250.145 905.143 -252.78 905.143 -252.78C905.143 -252.78 898.605 -207.613 888.842 -139.863C878.905 -72.1877 865.133 17.9954 850.663 107.953C836.28 197.91 821.112 287.642 809.432 354.94C797.577 422.088 789.644 466.879 789.644 466.879C789.644 466.879 798.536 422.389 811.872 355.618C825.384 288.921 843.776 200.093 862.953 111.491C882.043 22.8885 901.918 -65.5634 917.085 -131.733C932.427 -197.902 942.713 -241.94 942.713 -241.94C942.713 -241.94 933.299 -244.65 923.971 -247.36L923.971 -247.51Z" fill="#100D33" fill-opacity="0.3"/>
<path d="M992.053 -224.4C988.653 -225.83 984.033 -227.712 979.413 -229.293C970.173 -232.605 960.846 -235.842 960.846 -235.842C960.846 -235.842 943.761 -137.905 924.759 -40.6459C905.93 56.6887 885.097 153.346 885.097 153.346C885.097 153.346 891.809 129.708 901.833 94.2525C911.945 58.7965 925.63 11.7477 939.752 -35.1505C967.82 -129.022 997.806 -222.066 997.806 -222.066C997.806 -222.066 995.54 -222.97 992.053 -224.4Z" fill="#100D33" fill-opacity="0.3"/>
<path d="M1020.38 -212.501C1016.98 -213.932 1012.45 -215.889 1007.83 -217.846C998.675 -221.61 989.522 -225.374 989.522 -225.374C989.522 -225.374 982.81 -194.66 972.612 -148.515C962.326 -102.445 948.379 -41.0932 933.996 20.0326C919.613 81.1584 904.62 142.134 893.288 187.677C881.782 233.22 874.111 263.633 874.111 263.633C874.111 263.633 883.177 233.823 896.688 189.107C910.373 144.467 928.853 84.9977 947.943 25.829C966.946 -33.4148 986.384 -92.4328 1001.2 -136.546C1016.11 -180.583 1026.05 -210.017 1026.05 -210.017C1026.05 -210.017 1023.78 -211.071 1020.38 -212.501Z" fill="#100D33" fill-opacity="0.3"/>
<path d="M1082.45 -181.34C1073.64 -186.158 1064.84 -191.051 1064.84 -191.051C1064.84 -191.051 1052.29 -151.078 1033.37 -91.0818C1014.37 -31.1604 988.565 48.4838 962.153 127.752C935.741 207.095 908.806 286.062 888.234 345.155C867.575 404.173 853.715 443.468 853.715 443.468C853.715 443.468 868.534 404.7 890.675 346.51C912.99 288.395 943.15 211.235 974.008 134.376C1004.78 57.5171 1036.16 -19.0407 1059.96 -76.2521C1083.93 -133.388 1099.88 -171.479 1099.88 -171.479C1099.88 -171.479 1091.16 -176.447 1082.36 -181.34L1082.45 -181.34Z" fill="#100D33" fill-opacity="0.3"/>
<path d="M1156.37 -134.743C1148 -140.614 1139.63 -146.486 1139.63 -146.486C1139.63 -146.486 1121.5 -102.749 1094.39 -37.1067C1067.02 28.3852 1030.23 115.482 992.664 202.052C955.181 288.697 916.914 374.815 887.974 439.178C858.86 503.466 839.421 546.299 839.421 546.299C839.421 546.299 859.644 503.992 889.892 440.533C920.314 377.224 961.37 293.063 1003.12 209.429C1044.79 125.795 1087.15 42.6128 1119.23 -19.5669C1151.49 -81.5961 1173.02 -122.924 1173.02 -122.924C1173.02 -122.924 1164.73 -128.871 1156.37 -134.818L1156.37 -134.743Z" fill="#100D33" fill-opacity="0.3"/>
</g>
</g>
<defs>
<linearGradient id="paint0_linear_870_432" x1="720" y1="0" x2="720" y2="1000" gradientUnits="userSpaceOnUse">
<stop stop-color="#050313"/>
<stop offset="0.509516" stop-color="#18164C"/>
<stop offset="1" stop-color="#25276B"/>
</linearGradient>
<clipPath id="clip0_870_432">
<rect width="1014" height="805" fill="white" transform="translate(0 195)"/>
</clipPath>
<clipPath id="clip1_870_432">
<rect width="1160" height="805" fill="white" transform="translate(-146 195)"/>
</clipPath>
<clipPath id="clip2_870_432">
<rect width="925" height="805" fill="white" transform="translate(515 195)"/>
</clipPath>
<clipPath id="clip3_870_432">
<rect width="1197" height="546" fill="white" transform="translate(154)"/>
</clipPath>
</defs>
</svg>
