<svg width="858" height="151" viewBox="0 0 858 151" fill="none" xmlns="http://www.w3.org/2000/svg">
<g filter="url(#filter0_d_598_14458)">
<path d="M3.01824 14.0181C3.01954 7.92442 7.95977 2.98523 14.0534 2.98523H843.88C849.975 2.98523 854.915 7.92584 854.915 14.0204V87.3629C854.915 94.1897 849.725 99.8977 842.929 100.545L433.146 139.601C430.36 139.866 427.555 139.866 424.77 139.601L14.9884 100.546C8.19138 99.8978 3.00117 94.1882 3.00262 87.3603L3.01824 14.0181Z" fill="#342E72"/>
<path d="M843.88 1.88171C850.584 1.88171 856.019 7.31639 856.019 14.0204V87.3632C856.018 94.7587 850.396 100.942 843.034 101.643L433.25 140.699C430.395 140.971 427.52 140.971 424.665 140.699L14.8838 101.644C7.52036 100.943 1.89791 94.757 1.89941 87.3602L1.91504 14.0175C1.91667 7.31463 7.35083 1.88171 14.0537 1.88171H843.88Z" stroke="black" stroke-width="2.20703"/>
</g>
<path d="M14.0925 4.08881H843.824C849.307 4.08887 853.753 8.53244 853.756 14.0156L853.787 81.0566C853.789 86.1721 849.906 90.4533 844.814 90.9472L433.113 130.877C430.35 131.145 427.567 131.145 424.803 130.877L13.1022 90.9472C8.0106 90.4534 4.12718 86.1721 4.12958 81.0566L4.16083 14.0156C4.16352 8.5324 8.60927 4.08882 14.0925 4.08881Z" fill="url(#paint0_linear_598_14458)"/>
<path d="M14.0925 4.08881H843.824C849.307 4.08887 853.753 8.53244 853.756 14.0156L853.787 81.0566C853.789 86.1721 849.906 90.4533 844.814 90.9472L433.113 130.877C430.35 131.145 427.567 131.145 424.803 130.877L13.1022 90.9472C8.0106 90.4534 4.12718 86.1721 4.12958 81.0566L4.16083 14.0156C4.16352 8.5324 8.60927 4.08882 14.0925 4.08881Z" stroke="#D2BFFF" stroke-width="2.20703" style="mix-blend-mode:hard-light"/>
<path style="mix-blend-mode:hard-light" d="M843.962 5.52252C848.836 5.52252 852.788 9.472 852.79 14.3458L852.798 29.8018C769.918 39.5355 611.173 46.1192 428.958 46.1192C246.742 46.1192 87.996 39.5356 5.11646 29.8018L5.12427 14.3458C5.12693 9.47209 9.07874 5.52265 13.9524 5.52252H843.962Z" fill="url(#paint1_radial_598_14458)" fill-opacity="0.25"/>
<g filter="url(#filter1_ddd_598_14458)">
<mask id="path-5-outside-1_598_14458" maskUnits="userSpaceOnUse" x="232.906" y="43.9921" width="391" height="33" fill="black">
<rect fill="white" x="232.906" y="43.9921" width="391" height="33"/>
<path d="M244.575 74.5921C241.401 74.5921 238.495 74.0721 235.855 73.0321L237.255 67.1921C238.295 67.5921 239.401 67.9121 240.575 68.1521C241.775 68.3654 242.895 68.4721 243.935 68.4721C245.481 68.4721 246.588 68.2721 247.255 67.8721C247.948 67.4721 248.295 66.8187 248.295 65.9121C248.295 64.8187 247.681 64.1521 246.455 63.9121L242.895 63.1921C238.468 62.2854 236.255 59.6321 236.255 55.2321C236.255 52.4854 237.161 50.3387 238.975 48.7921C240.788 47.2187 243.281 46.4321 246.455 46.4321C249.628 46.4321 252.455 46.9121 254.935 47.8721L253.495 53.5921C251.655 52.8721 249.495 52.5121 247.015 52.5121C244.561 52.5121 243.335 53.2721 243.335 54.7921C243.335 55.9121 244.041 56.6054 245.455 56.8721L248.495 57.4721C250.948 57.9787 252.748 58.8854 253.895 60.1921C255.068 61.4987 255.655 63.2987 255.655 65.5921C255.655 68.6321 254.748 70.8987 252.935 72.3921C251.121 73.8587 248.335 74.5921 244.575 74.5921ZM263.668 73.9921V53.1121H257.068V47.0321H277.948V53.1121H271.348V73.9921H263.668ZM276.723 73.9921L284.323 47.0321H294.483L302.323 73.9921H294.763L293.523 69.0321H285.283L284.043 73.9921H276.723ZM286.563 63.7921H292.203L289.403 52.4321L286.563 63.7921ZM304.615 73.9921V47.0321H315.215C318.628 47.0321 321.215 47.7921 322.975 49.3121C324.761 50.8321 325.655 53.0321 325.655 55.9121C325.655 57.7787 325.228 59.3654 324.375 60.6721C323.521 61.9521 322.335 62.8587 320.815 63.3921L327.375 73.9921H319.375L313.895 64.5121H311.895V73.9921H304.615ZM314.535 52.4721H311.895V59.3521H314.535C316.908 59.3521 318.095 58.2054 318.095 55.9121C318.095 53.6187 316.908 52.4721 314.535 52.4721ZM333.924 73.9921V53.1121H327.324V47.0321H348.204V53.1121H341.604V73.9921H333.924ZM363.878 73.9921V65.1921L355.118 47.0321H362.838L367.838 57.7121L372.878 47.0321H380.118L371.558 64.3921V73.9921H363.878ZM392.536 74.5921C388.51 74.5921 385.443 73.3921 383.336 70.9921C381.23 68.5921 380.176 65.0987 380.176 60.5121C380.176 55.9254 381.23 52.4321 383.336 50.0321C385.443 47.6321 388.51 46.4321 392.536 46.4321C396.563 46.4321 399.63 47.6321 401.736 50.0321C403.843 52.4321 404.896 55.9254 404.896 60.5121C404.896 65.0987 403.843 68.5921 401.736 70.9921C399.63 73.3921 396.563 74.5921 392.536 74.5921ZM392.536 68.5121C394.11 68.5121 395.23 67.9121 395.896 66.7121C396.563 65.4854 396.896 63.4187 396.896 60.5121C396.896 57.6054 396.563 55.5521 395.896 54.3521C395.23 53.1254 394.11 52.5121 392.536 52.5121C390.963 52.5121 389.843 53.1254 389.176 54.3521C388.51 55.5521 388.176 57.6054 388.176 60.5121C388.176 63.4187 388.51 65.4854 389.176 66.7121C389.843 67.9121 390.963 68.5121 392.536 68.5121ZM419.464 74.5921C415.491 74.5921 412.611 73.6854 410.824 71.8721C409.064 70.0321 408.184 67.0454 408.184 62.9121V47.0321H415.904V64.5521C415.904 67.1121 417.104 68.3921 419.504 68.3921C421.851 68.3921 423.024 67.1121 423.024 64.5521V47.0321H430.744V62.9121C430.744 67.0454 429.851 70.0321 428.064 71.8721C426.304 73.6854 423.438 74.5921 419.464 74.5921ZM435.166 73.9921V47.0321H445.766C449.18 47.0321 451.766 47.7921 453.526 49.3121C455.313 50.8321 456.206 53.0321 456.206 55.9121C456.206 57.7787 455.78 59.3654 454.926 60.6721C454.073 61.9521 452.886 62.8587 451.366 63.3921L457.926 73.9921H449.926L444.446 64.5121H442.446V73.9921H435.166ZM445.086 52.4721H442.446V59.3521H445.086C447.46 59.3521 448.646 58.2054 448.646 55.9121C448.646 53.6187 447.46 52.4721 445.086 52.4721ZM467.394 73.9921V47.0321H476.194L482.314 62.3521L488.474 47.0321H497.034V73.9921H490.394V56.6721L485.194 69.6721H479.274L474.074 56.9521V73.9921H467.394ZM501.829 73.9921V47.0321H509.509V73.9921H501.829ZM521.87 74.5921C518.697 74.5921 515.79 74.0721 513.15 73.0321L514.55 67.1921C515.59 67.5921 516.697 67.9121 517.87 68.1521C519.07 68.3654 520.19 68.4721 521.23 68.4721C522.777 68.4721 523.883 68.2721 524.55 67.8721C525.243 67.4721 525.59 66.8187 525.59 65.9121C525.59 64.8187 524.977 64.1521 523.75 63.9121L520.19 63.1921C515.763 62.2854 513.55 59.6321 513.55 55.2321C513.55 52.4854 514.457 50.3387 516.27 48.7921C518.083 47.2187 520.577 46.4321 523.75 46.4321C526.923 46.4321 529.75 46.9121 532.23 47.8721L530.79 53.5921C528.95 52.8721 526.79 52.5121 524.31 52.5121C521.857 52.5121 520.63 53.2721 520.63 54.7921C520.63 55.9121 521.337 56.6054 522.75 56.8721L525.79 57.4721C528.243 57.9787 530.043 58.8854 531.19 60.1921C532.363 61.4987 532.95 63.2987 532.95 65.5921C532.95 68.6321 532.043 70.8987 530.23 72.3921C528.417 73.8587 525.63 74.5921 521.87 74.5921ZM543.453 74.5921C540.279 74.5921 537.373 74.0721 534.733 73.0321L536.133 67.1921C537.173 67.5921 538.279 67.9121 539.453 68.1521C540.653 68.3654 541.773 68.4721 542.813 68.4721C544.359 68.4721 545.466 68.2721 546.133 67.8721C546.826 67.4721 547.173 66.8187 547.173 65.9121C547.173 64.8187 546.559 64.1521 545.333 63.9121L541.773 63.1921C537.346 62.2854 535.133 59.6321 535.133 55.2321C535.133 52.4854 536.039 50.3387 537.853 48.7921C539.666 47.2187 542.159 46.4321 545.333 46.4321C548.506 46.4321 551.333 46.9121 553.813 47.8721L552.373 53.5921C550.533 52.8721 548.373 52.5121 545.893 52.5121C543.439 52.5121 542.213 53.2721 542.213 54.7921C542.213 55.9121 542.919 56.6054 544.333 56.8721L547.373 57.4721C549.826 57.9787 551.626 58.8854 552.773 60.1921C553.946 61.4987 554.533 63.2987 554.533 65.5921C554.533 68.6321 553.626 70.8987 551.813 72.3921C549.999 73.8587 547.213 74.5921 543.453 74.5921ZM557.866 73.9921V47.0321H565.546V73.9921H557.866ZM581.547 74.5921C577.521 74.5921 574.454 73.3921 572.347 70.9921C570.241 68.5921 569.187 65.0987 569.187 60.5121C569.187 55.9254 570.241 52.4321 572.347 50.0321C574.454 47.6321 577.521 46.4321 581.547 46.4321C585.574 46.4321 588.641 47.6321 590.747 50.0321C592.854 52.4321 593.907 55.9254 593.907 60.5121C593.907 65.0987 592.854 68.5921 590.747 70.9921C588.641 73.3921 585.574 74.5921 581.547 74.5921ZM581.547 68.5121C583.121 68.5121 584.241 67.9121 584.907 66.7121C585.574 65.4854 585.907 63.4187 585.907 60.5121C585.907 57.6054 585.574 55.5521 584.907 54.3521C584.241 53.1254 583.121 52.5121 581.547 52.5121C579.974 52.5121 578.854 53.1254 578.187 54.3521C577.521 55.5521 577.187 57.6054 577.187 60.5121C577.187 63.4187 577.521 65.4854 578.187 66.7121C578.854 67.9121 579.974 68.5121 581.547 68.5121ZM597.555 73.9921V47.0321H605.555L614.235 63.9121V47.0321H620.915V73.9921H612.915L604.235 57.1121V73.9921H597.555Z"/>
</mask>
<path d="M244.575 74.5921C241.401 74.5921 238.495 74.0721 235.855 73.0321L237.255 67.1921C238.295 67.5921 239.401 67.9121 240.575 68.1521C241.775 68.3654 242.895 68.4721 243.935 68.4721C245.481 68.4721 246.588 68.2721 247.255 67.8721C247.948 67.4721 248.295 66.8187 248.295 65.9121C248.295 64.8187 247.681 64.1521 246.455 63.9121L242.895 63.1921C238.468 62.2854 236.255 59.6321 236.255 55.2321C236.255 52.4854 237.161 50.3387 238.975 48.7921C240.788 47.2187 243.281 46.4321 246.455 46.4321C249.628 46.4321 252.455 46.9121 254.935 47.8721L253.495 53.5921C251.655 52.8721 249.495 52.5121 247.015 52.5121C244.561 52.5121 243.335 53.2721 243.335 54.7921C243.335 55.9121 244.041 56.6054 245.455 56.8721L248.495 57.4721C250.948 57.9787 252.748 58.8854 253.895 60.1921C255.068 61.4987 255.655 63.2987 255.655 65.5921C255.655 68.6321 254.748 70.8987 252.935 72.3921C251.121 73.8587 248.335 74.5921 244.575 74.5921ZM263.668 73.9921V53.1121H257.068V47.0321H277.948V53.1121H271.348V73.9921H263.668ZM276.723 73.9921L284.323 47.0321H294.483L302.323 73.9921H294.763L293.523 69.0321H285.283L284.043 73.9921H276.723ZM286.563 63.7921H292.203L289.403 52.4321L286.563 63.7921ZM304.615 73.9921V47.0321H315.215C318.628 47.0321 321.215 47.7921 322.975 49.3121C324.761 50.8321 325.655 53.0321 325.655 55.9121C325.655 57.7787 325.228 59.3654 324.375 60.6721C323.521 61.9521 322.335 62.8587 320.815 63.3921L327.375 73.9921H319.375L313.895 64.5121H311.895V73.9921H304.615ZM314.535 52.4721H311.895V59.3521H314.535C316.908 59.3521 318.095 58.2054 318.095 55.9121C318.095 53.6187 316.908 52.4721 314.535 52.4721ZM333.924 73.9921V53.1121H327.324V47.0321H348.204V53.1121H341.604V73.9921H333.924ZM363.878 73.9921V65.1921L355.118 47.0321H362.838L367.838 57.7121L372.878 47.0321H380.118L371.558 64.3921V73.9921H363.878ZM392.536 74.5921C388.51 74.5921 385.443 73.3921 383.336 70.9921C381.23 68.5921 380.176 65.0987 380.176 60.5121C380.176 55.9254 381.23 52.4321 383.336 50.0321C385.443 47.6321 388.51 46.4321 392.536 46.4321C396.563 46.4321 399.63 47.6321 401.736 50.0321C403.843 52.4321 404.896 55.9254 404.896 60.5121C404.896 65.0987 403.843 68.5921 401.736 70.9921C399.63 73.3921 396.563 74.5921 392.536 74.5921ZM392.536 68.5121C394.11 68.5121 395.23 67.9121 395.896 66.7121C396.563 65.4854 396.896 63.4187 396.896 60.5121C396.896 57.6054 396.563 55.5521 395.896 54.3521C395.23 53.1254 394.11 52.5121 392.536 52.5121C390.963 52.5121 389.843 53.1254 389.176 54.3521C388.51 55.5521 388.176 57.6054 388.176 60.5121C388.176 63.4187 388.51 65.4854 389.176 66.7121C389.843 67.9121 390.963 68.5121 392.536 68.5121ZM419.464 74.5921C415.491 74.5921 412.611 73.6854 410.824 71.8721C409.064 70.0321 408.184 67.0454 408.184 62.9121V47.0321H415.904V64.5521C415.904 67.1121 417.104 68.3921 419.504 68.3921C421.851 68.3921 423.024 67.1121 423.024 64.5521V47.0321H430.744V62.9121C430.744 67.0454 429.851 70.0321 428.064 71.8721C426.304 73.6854 423.438 74.5921 419.464 74.5921ZM435.166 73.9921V47.0321H445.766C449.18 47.0321 451.766 47.7921 453.526 49.3121C455.313 50.8321 456.206 53.0321 456.206 55.9121C456.206 57.7787 455.78 59.3654 454.926 60.6721C454.073 61.9521 452.886 62.8587 451.366 63.3921L457.926 73.9921H449.926L444.446 64.5121H442.446V73.9921H435.166ZM445.086 52.4721H442.446V59.3521H445.086C447.46 59.3521 448.646 58.2054 448.646 55.9121C448.646 53.6187 447.46 52.4721 445.086 52.4721ZM467.394 73.9921V47.0321H476.194L482.314 62.3521L488.474 47.0321H497.034V73.9921H490.394V56.6721L485.194 69.6721H479.274L474.074 56.9521V73.9921H467.394ZM501.829 73.9921V47.0321H509.509V73.9921H501.829ZM521.87 74.5921C518.697 74.5921 515.79 74.0721 513.15 73.0321L514.55 67.1921C515.59 67.5921 516.697 67.9121 517.87 68.1521C519.07 68.3654 520.19 68.4721 521.23 68.4721C522.777 68.4721 523.883 68.2721 524.55 67.8721C525.243 67.4721 525.59 66.8187 525.59 65.9121C525.59 64.8187 524.977 64.1521 523.75 63.9121L520.19 63.1921C515.763 62.2854 513.55 59.6321 513.55 55.2321C513.55 52.4854 514.457 50.3387 516.27 48.7921C518.083 47.2187 520.577 46.4321 523.75 46.4321C526.923 46.4321 529.75 46.9121 532.23 47.8721L530.79 53.5921C528.95 52.8721 526.79 52.5121 524.31 52.5121C521.857 52.5121 520.63 53.2721 520.63 54.7921C520.63 55.9121 521.337 56.6054 522.75 56.8721L525.79 57.4721C528.243 57.9787 530.043 58.8854 531.19 60.1921C532.363 61.4987 532.95 63.2987 532.95 65.5921C532.95 68.6321 532.043 70.8987 530.23 72.3921C528.417 73.8587 525.63 74.5921 521.87 74.5921ZM543.453 74.5921C540.279 74.5921 537.373 74.0721 534.733 73.0321L536.133 67.1921C537.173 67.5921 538.279 67.9121 539.453 68.1521C540.653 68.3654 541.773 68.4721 542.813 68.4721C544.359 68.4721 545.466 68.2721 546.133 67.8721C546.826 67.4721 547.173 66.8187 547.173 65.9121C547.173 64.8187 546.559 64.1521 545.333 63.9121L541.773 63.1921C537.346 62.2854 535.133 59.6321 535.133 55.2321C535.133 52.4854 536.039 50.3387 537.853 48.7921C539.666 47.2187 542.159 46.4321 545.333 46.4321C548.506 46.4321 551.333 46.9121 553.813 47.8721L552.373 53.5921C550.533 52.8721 548.373 52.5121 545.893 52.5121C543.439 52.5121 542.213 53.2721 542.213 54.7921C542.213 55.9121 542.919 56.6054 544.333 56.8721L547.373 57.4721C549.826 57.9787 551.626 58.8854 552.773 60.1921C553.946 61.4987 554.533 63.2987 554.533 65.5921C554.533 68.6321 553.626 70.8987 551.813 72.3921C549.999 73.8587 547.213 74.5921 543.453 74.5921ZM557.866 73.9921V47.0321H565.546V73.9921H557.866ZM581.547 74.5921C577.521 74.5921 574.454 73.3921 572.347 70.9921C570.241 68.5921 569.187 65.0987 569.187 60.5121C569.187 55.9254 570.241 52.4321 572.347 50.0321C574.454 47.6321 577.521 46.4321 581.547 46.4321C585.574 46.4321 588.641 47.6321 590.747 50.0321C592.854 52.4321 593.907 55.9254 593.907 60.5121C593.907 65.0987 592.854 68.5921 590.747 70.9921C588.641 73.3921 585.574 74.5921 581.547 74.5921ZM581.547 68.5121C583.121 68.5121 584.241 67.9121 584.907 66.7121C585.574 65.4854 585.907 63.4187 585.907 60.5121C585.907 57.6054 585.574 55.5521 584.907 54.3521C584.241 53.1254 583.121 52.5121 581.547 52.5121C579.974 52.5121 578.854 53.1254 578.187 54.3521C577.521 55.5521 577.187 57.6054 577.187 60.5121C577.187 63.4187 577.521 65.4854 578.187 66.7121C578.854 67.9121 579.974 68.5121 581.547 68.5121ZM597.555 73.9921V47.0321H605.555L614.235 63.9121V47.0321H620.915V73.9921H612.915L604.235 57.1121V73.9921H597.555Z" fill="white"/>
<path d="M235.855 73.0321L233.674 72.5093L233.22 74.4042L235.033 75.1184L235.855 73.0321ZM237.255 67.1921L238.06 65.0992L235.671 64.1804L235.074 66.6693L237.255 67.1921ZM240.575 68.1521L240.125 70.3489L240.154 70.3547L240.182 70.3598L240.575 68.1521ZM247.255 67.8721L246.134 65.9298L246.117 65.9394L246.101 65.9493L247.255 67.8721ZM246.455 63.9121L246.01 66.1099L246.017 66.1113L246.024 66.1127L246.455 63.9121ZM242.895 63.1921L242.445 65.3888L242.45 65.3899L242.895 63.1921ZM238.975 48.7921L240.43 50.4981L240.437 50.492L240.444 50.4858L238.975 48.7921ZM254.935 47.8721L257.109 48.4195L257.593 46.4967L255.744 45.7809L254.935 47.8721ZM253.495 53.5921L252.678 55.6802L255.048 56.6077L255.669 54.1395L253.495 53.5921ZM245.455 56.8721L245.889 54.6722L245.88 54.6703L245.87 54.6686L245.455 56.8721ZM248.495 57.4721L248.948 55.2761L248.938 55.2741L248.929 55.2722L248.495 57.4721ZM253.895 60.1921L252.209 61.6711L252.218 61.6807L252.226 61.6902L253.895 60.1921ZM252.935 72.3921L254.345 74.1355L254.352 74.1293L254.36 74.123L252.935 72.3921ZM244.575 74.5921V72.3497C241.649 72.3497 239.026 71.8712 236.676 70.9458L235.855 73.0321L235.033 75.1184C237.964 76.273 241.153 76.8344 244.575 76.8344V74.5921ZM235.855 73.0321L238.035 73.5548L239.435 67.7148L237.255 67.1921L235.074 66.6693L233.674 72.5093L235.855 73.0321ZM237.255 67.1921L236.45 69.285C237.613 69.7325 238.84 70.086 240.125 70.3489L240.575 68.1521L241.024 65.9552C239.963 65.7382 238.976 65.4516 238.06 65.0992L237.255 67.1921ZM240.575 68.1521L240.182 70.3598C241.49 70.5924 242.743 70.7144 243.935 70.7144V68.4721V66.2297C243.046 66.2297 242.059 66.1384 240.967 65.9443L240.575 68.1521ZM243.935 68.4721V70.7144C245.558 70.7144 247.19 70.5256 248.408 69.7949L247.255 67.8721L246.101 65.9493C245.986 66.0185 245.405 66.2297 243.935 66.2297V68.4721ZM247.255 67.8721L248.375 69.8144C249.867 68.9539 250.537 67.4922 250.537 65.9121H248.295H246.052C246.052 65.9966 246.044 66.0425 246.041 66.0581C246.038 66.0721 246.039 66.0594 246.054 66.031C246.061 66.0175 246.07 66.0028 246.081 65.9878C246.092 65.9729 246.103 65.9599 246.114 65.9491C246.136 65.9266 246.147 65.9221 246.134 65.9298L247.255 67.8721ZM248.295 65.9121H250.537C250.537 64.9258 250.248 63.9034 249.485 63.0739C248.752 62.2776 247.793 61.8891 246.885 61.7114L246.455 63.9121L246.024 66.1127C246.177 66.1426 246.25 66.1743 246.268 66.1835C246.283 66.1905 246.242 66.1724 246.184 66.1103C246.157 66.0803 246.131 66.0458 246.109 66.0084C246.087 65.9711 246.072 65.9371 246.062 65.91C246.043 65.8556 246.052 65.8474 246.052 65.9121H248.295ZM246.455 63.9121L246.899 61.7142L243.339 60.9942L242.895 63.1921L242.45 65.3899L246.01 66.1099L246.455 63.9121ZM242.895 63.1921L243.345 60.9953C241.475 60.6124 240.329 59.9162 239.637 59.0857C238.949 58.2621 238.497 57.0539 238.497 55.2321H236.255H234.012C234.012 57.8103 234.666 60.1287 236.193 61.9584C237.713 63.7813 239.888 64.8651 242.445 65.3888L242.895 63.1921ZM236.255 55.2321H238.497C238.497 53.0305 239.195 51.5514 240.43 50.4981L238.975 48.7921L237.519 47.086C235.128 49.126 234.012 51.9402 234.012 55.2321H236.255ZM238.975 48.7921L240.444 50.4858C241.734 49.3669 243.645 48.6744 246.455 48.6744V46.4321V44.1897C242.918 44.1897 239.842 45.0706 237.505 47.0984L238.975 48.7921ZM246.455 46.4321V48.6744C249.403 48.6744 251.948 49.1204 254.125 49.9632L254.935 47.8721L255.744 45.7809C252.961 44.7037 249.853 44.1897 246.455 44.1897V46.4321ZM254.935 47.8721L252.76 47.3246L251.32 53.0446L253.495 53.5921L255.669 54.1395L257.109 48.4195L254.935 47.8721ZM253.495 53.5921L254.312 51.5039C252.154 50.6597 249.706 50.2697 247.015 50.2697V52.5121V54.7544C249.284 54.7544 251.155 55.0844 252.678 55.6802L253.495 53.5921ZM247.015 52.5121V50.2697C245.629 50.2697 244.211 50.4712 243.074 51.1759C241.759 51.9905 241.092 53.3059 241.092 54.7921H243.335H245.577C245.577 54.7182 245.59 54.7628 245.539 54.857C245.486 54.9563 245.424 54.9956 245.436 54.9882C245.463 54.9715 245.582 54.9076 245.858 54.8506C246.132 54.7941 246.51 54.7544 247.015 54.7544V52.5121ZM243.335 54.7921H241.092C241.092 55.8677 241.453 56.9274 242.294 57.7527C243.078 58.5212 244.084 58.8953 245.039 59.0755L245.455 56.8721L245.87 54.6686C245.653 54.6276 245.521 54.5808 245.452 54.5494C245.385 54.5192 245.394 54.5116 245.435 54.5515C245.481 54.5966 245.527 54.6633 245.556 54.7379C245.583 54.8068 245.577 54.8351 245.577 54.7921H243.335ZM245.455 56.8721L245.02 59.072L248.06 59.672L248.495 57.4721L248.929 55.2722L245.889 54.6722L245.455 56.8721ZM248.495 57.4721L248.041 59.6681C250.22 60.1181 251.499 60.8614 252.209 61.6711L253.895 60.1921L255.58 58.713C253.997 56.9094 251.676 55.8393 248.948 55.2761L248.495 57.4721ZM253.895 60.1921L252.226 61.6902C252.929 62.4725 253.412 63.6786 253.412 65.5921H255.655H257.897C257.897 62.9189 257.207 60.525 255.563 58.6939L253.895 60.1921ZM255.655 65.5921H253.412C253.412 68.1745 252.661 69.7125 251.509 70.6611L252.935 72.3921L254.36 74.123C256.835 72.0849 257.897 69.0897 257.897 65.5921H255.655ZM252.935 72.3921L251.524 70.6486C250.29 71.647 248.114 72.3497 244.575 72.3497V74.5921V76.8344C248.555 76.8344 251.952 76.0705 254.345 74.1355L252.935 72.3921ZM263.668 73.9921H261.426V76.2344H263.668V73.9921ZM263.668 53.1121H265.91V50.8697H263.668V53.1121ZM257.068 53.1121H254.826V55.3544H257.068V53.1121ZM257.068 47.0321V44.7897H254.826V47.0321H257.068ZM277.948 47.0321H280.19V44.7897H277.948V47.0321ZM277.948 53.1121V55.3544H280.19V53.1121H277.948ZM271.348 53.1121V50.8697H269.106V53.1121H271.348ZM271.348 73.9921V76.2344H273.59V73.9921H271.348ZM263.668 73.9921H265.91V53.1121H263.668H261.426V73.9921H263.668ZM263.668 53.1121V50.8697H257.068V53.1121V55.3544H263.668V53.1121ZM257.068 53.1121H259.31V47.0321H257.068H254.826V53.1121H257.068ZM257.068 47.0321V49.2744H277.948V47.0321V44.7897H257.068V47.0321ZM277.948 47.0321H275.706V53.1121H277.948H280.19V47.0321H277.948ZM277.948 53.1121V50.8697H271.348V53.1121V55.3544H277.948V53.1121ZM271.348 53.1121H269.106V73.9921H271.348H273.59V53.1121H271.348ZM271.348 73.9921V71.7497H263.668V73.9921V76.2344H271.348V73.9921ZM276.723 73.9921L274.565 73.3837L273.761 76.2344H276.723V73.9921ZM284.323 47.0321V44.7897H282.625L282.165 46.4237L284.323 47.0321ZM294.483 47.0321L296.636 46.4059L296.166 44.7897H294.483V47.0321ZM302.323 73.9921V76.2344H305.31L304.476 73.3659L302.323 73.9921ZM294.763 73.9921L292.587 74.5359L293.012 76.2344H294.763V73.9921ZM293.523 69.0321L295.698 68.4882L295.274 66.7897H293.523V69.0321ZM285.283 69.0321V66.7897H283.532L283.107 68.4882L285.283 69.0321ZM284.043 73.9921V76.2344H285.794L286.218 74.5359L284.043 73.9921ZM286.563 63.7921L284.387 63.2482L283.691 66.0344H286.563V63.7921ZM292.203 63.7921V66.0344H295.065L294.38 63.2554L292.203 63.7921ZM289.403 52.4321L291.58 51.8954L287.227 51.8882L289.403 52.4321ZM276.723 73.9921L278.881 74.6005L286.481 47.6405L284.323 47.0321L282.165 46.4237L274.565 73.3837L276.723 73.9921ZM284.323 47.0321V49.2744H294.483V47.0321V44.7897H284.323V47.0321ZM294.483 47.0321L292.33 47.6582L300.17 74.6182L302.323 73.9921L304.476 73.3659L296.636 46.4059L294.483 47.0321ZM302.323 73.9921V71.7497H294.763V73.9921V76.2344H302.323V73.9921ZM294.763 73.9921L296.938 73.4482L295.698 68.4882L293.523 69.0321L291.347 69.5759L292.587 74.5359L294.763 73.9921ZM293.523 69.0321V66.7897H285.283V69.0321V71.2744H293.523V69.0321ZM285.283 69.0321L283.107 68.4882L281.867 73.4482L284.043 73.9921L286.218 74.5359L287.458 69.5759L285.283 69.0321ZM284.043 73.9921V71.7497H276.723V73.9921V76.2344H284.043V73.9921ZM286.563 63.7921V66.0344H292.203V63.7921V61.5497H286.563V63.7921ZM292.203 63.7921L294.38 63.2554L291.58 51.8954L289.403 52.4321L287.226 52.9687L290.026 64.3287L292.203 63.7921ZM289.403 52.4321L287.227 51.8882L284.387 63.2482L286.563 63.7921L288.738 64.3359L291.578 52.9759L289.403 52.4321ZM304.615 73.9921H302.372V76.2344H304.615V73.9921ZM304.615 47.0321V44.7897H302.372V47.0321H304.615ZM322.975 49.3121L321.509 51.0091L321.515 51.0146L321.522 51.02L322.975 49.3121ZM324.375 60.6721L326.24 61.9159L326.246 61.9071L326.252 61.8982L324.375 60.6721ZM320.815 63.3921L320.072 61.2762L317.44 62.1998L318.908 64.5721L320.815 63.3921ZM327.375 73.9921V76.2344H331.399L329.281 72.812L327.375 73.9921ZM319.375 73.9921L317.433 75.1143L318.081 76.2344H319.375V73.9921ZM313.895 64.5121L315.836 63.3899L315.188 62.2697H313.895V64.5121ZM311.895 64.5121V62.2697H309.652V64.5121H311.895ZM311.895 73.9921V76.2344H314.137V73.9921H311.895ZM311.895 52.4721V50.2297H309.652V52.4721H311.895ZM311.895 59.3521H309.652V61.5944H311.895V59.3521ZM304.615 73.9921H306.857V47.0321H304.615H302.372V73.9921H304.615ZM304.615 47.0321V49.2744H315.215V47.0321V44.7897H304.615V47.0321ZM315.215 47.0321V49.2744C318.335 49.2744 320.31 49.9737 321.509 51.0091L322.975 49.3121L324.44 47.615C322.119 45.6105 318.92 44.7897 315.215 44.7897V47.0321ZM322.975 49.3121L321.522 51.02C322.695 52.0183 323.412 53.5262 323.412 55.9121H325.655H327.897C327.897 52.538 326.827 49.6458 324.428 47.6042L322.975 49.3121ZM325.655 55.9121H323.412C323.412 57.4298 323.069 58.5702 322.497 59.446L324.375 60.6721L326.252 61.8982C327.387 60.1606 327.897 58.1276 327.897 55.9121H325.655ZM324.375 60.6721L322.509 59.4282C321.939 60.2834 321.156 60.8958 320.072 61.2762L320.815 63.3921L321.557 65.5079C323.513 64.8216 325.104 63.6207 326.24 61.9159L324.375 60.6721ZM320.815 63.3921L318.908 64.5721L325.468 75.1721L327.375 73.9921L329.281 72.812L322.721 62.212L320.815 63.3921ZM327.375 73.9921V71.7497H319.375V73.9921V76.2344H327.375V73.9921ZM319.375 73.9921L321.316 72.8699L315.836 63.3899L313.895 64.5121L311.953 65.6343L317.433 75.1143L319.375 73.9921ZM313.895 64.5121V62.2697H311.895V64.5121V66.7544H313.895V64.5121ZM311.895 64.5121H309.652V73.9921H311.895H314.137V64.5121H311.895ZM311.895 73.9921V71.7497H304.615V73.9921V76.2344H311.895V73.9921ZM314.535 52.4721V50.2297H311.895V52.4721V54.7144H314.535V52.4721ZM311.895 52.4721H309.652V59.3521H311.895H314.137V52.4721H311.895ZM311.895 59.3521V61.5944H314.535V59.3521V57.1097H311.895V59.3521ZM314.535 59.3521V61.5944C316.048 61.5944 317.598 61.2297 318.763 60.1046C319.941 58.9656 320.337 57.4243 320.337 55.9121H318.095H315.852C315.852 56.6932 315.654 56.8718 315.646 56.8795C315.624 56.9011 315.395 57.1097 314.535 57.1097V59.3521ZM318.095 55.9121H320.337C320.337 54.3998 319.941 52.8585 318.763 51.7195C317.598 50.5944 316.048 50.2297 314.535 50.2297V52.4721V54.7144C315.395 54.7144 315.624 54.9231 315.646 54.9446C315.654 54.9523 315.852 55.131 315.852 55.9121H318.095ZM333.924 73.9921H331.682V76.2344H333.924V73.9921ZM333.924 53.1121H336.167V50.8697H333.924V53.1121ZM327.324 53.1121H325.082V55.3544H327.324V53.1121ZM327.324 47.0321V44.7897H325.082V47.0321H327.324ZM348.204 47.0321H350.447V44.7897H348.204V47.0321ZM348.204 53.1121V55.3544H350.447V53.1121H348.204ZM341.604 53.1121V50.8697H339.362V53.1121H341.604ZM341.604 73.9921V76.2344H343.847V73.9921H341.604ZM333.924 73.9921H336.167V53.1121H333.924H331.682V73.9921H333.924ZM333.924 53.1121V50.8697H327.324V53.1121V55.3544H333.924V53.1121ZM327.324 53.1121H329.567V47.0321H327.324H325.082V53.1121H327.324ZM327.324 47.0321V49.2744H348.204V47.0321V44.7897H327.324V47.0321ZM348.204 47.0321H345.962V53.1121H348.204H350.447V47.0321H348.204ZM348.204 53.1121V50.8697H341.604V53.1121V55.3544H348.204V53.1121ZM341.604 53.1121H339.362V73.9921H341.604H343.847V53.1121H341.604ZM341.604 73.9921V71.7497H333.924V73.9921V76.2344H341.604V73.9921ZM363.878 73.9921H361.635V76.2344H363.878V73.9921ZM363.878 65.1921H366.12V64.6795L365.897 64.2178L363.878 65.1921ZM355.118 47.0321V44.7897H351.546L353.098 48.0063L355.118 47.0321ZM362.838 47.0321L364.869 46.0813L364.264 44.7897H362.838V47.0321ZM367.838 57.7121L365.807 58.6628L367.83 62.9834L369.866 58.669L367.838 57.7121ZM372.878 47.0321V44.7897H371.456L370.85 46.0751L372.878 47.0321ZM380.118 47.0321L382.129 48.0237L383.724 44.7897H380.118V47.0321ZM371.558 64.3921L369.547 63.4004L369.315 63.8693V64.3921H371.558ZM371.558 73.9921V76.2344H373.8V73.9921H371.558ZM363.878 73.9921H366.12V65.1921H363.878H361.635V73.9921H363.878ZM363.878 65.1921L365.897 64.2178L357.137 46.0578L355.118 47.0321L353.098 48.0063L361.858 66.1663L363.878 65.1921ZM355.118 47.0321V49.2744H362.838V47.0321V44.7897H355.118V47.0321ZM362.838 47.0321L360.807 47.9828L365.807 58.6628L367.838 57.7121L369.869 56.7613L364.869 46.0813L362.838 47.0321ZM367.838 57.7121L369.866 58.669L374.906 47.989L372.878 47.0321L370.85 46.0751L365.81 56.7551L367.838 57.7121ZM372.878 47.0321V49.2744H380.118V47.0321V44.7897H372.878V47.0321ZM380.118 47.0321L378.107 46.0404L369.547 63.4004L371.558 64.3921L373.569 65.3837L382.129 48.0237L380.118 47.0321ZM371.558 64.3921H369.315V73.9921H371.558H373.8V64.3921H371.558ZM371.558 73.9921V71.7497H363.878V73.9921V76.2344H371.558V73.9921ZM383.336 70.9921L381.651 72.4713L383.336 70.9921ZM383.336 50.0321L381.651 48.5528L381.651 48.5528L383.336 50.0321ZM401.736 50.0321L403.422 48.5528V48.5528L401.736 50.0321ZM395.896 66.7121L397.857 67.801L397.862 67.792L397.867 67.7828L395.896 66.7121ZM395.896 54.3521L393.926 55.4228L393.931 55.432L393.936 55.441L395.896 54.3521ZM389.176 54.3521L391.137 55.441L391.142 55.432L391.147 55.4228L389.176 54.3521ZM389.176 66.7121L387.206 67.7828L387.211 67.792L387.216 67.801L389.176 66.7121ZM392.536 74.5921V72.3497C388.974 72.3497 386.596 71.3065 385.022 69.5128L383.336 70.9921L381.651 72.4713C384.29 75.4776 388.046 76.8344 392.536 76.8344V74.5921ZM383.336 70.9921L385.022 69.5128C383.403 67.6691 382.419 64.7886 382.419 60.5121H380.176H377.934C377.934 65.4089 379.056 69.5151 381.651 72.4713L383.336 70.9921ZM380.176 60.5121H382.419C382.419 56.2355 383.403 53.3551 385.022 51.5113L383.336 50.0321L381.651 48.5528C379.056 51.5091 377.934 55.6153 377.934 60.5121H380.176ZM383.336 50.0321L385.022 51.5113C386.596 49.7176 388.974 48.6744 392.536 48.6744V46.4321V44.1897C388.046 44.1897 384.29 45.5465 381.651 48.5528L383.336 50.0321ZM392.536 46.4321V48.6744C396.099 48.6744 398.477 49.7176 400.051 51.5113L401.736 50.0321L403.422 48.5528C400.783 45.5465 397.027 44.1897 392.536 44.1897V46.4321ZM401.736 50.0321L400.051 51.5113C401.67 53.3551 402.654 56.2355 402.654 60.5121H404.896H407.139C407.139 55.6153 406.017 51.5091 403.422 48.5528L401.736 50.0321ZM404.896 60.5121H402.654C402.654 64.7886 401.67 67.6691 400.051 69.5128L401.736 70.9921L403.422 72.4713C406.017 69.5151 407.139 65.4089 407.139 60.5121H404.896ZM401.736 70.9921L400.051 69.5128C398.477 71.3065 396.099 72.3497 392.536 72.3497V74.5921V76.8344C397.027 76.8344 400.783 75.4776 403.422 72.4713L401.736 70.9921ZM392.536 68.5121V70.7544C394.781 70.7544 396.729 69.8302 397.857 67.801L395.896 66.7121L393.936 65.6231C393.73 65.994 393.439 66.2697 392.536 66.2697V68.5121ZM395.896 66.7121L397.867 67.7828C398.82 66.0288 399.139 63.4705 399.139 60.5121H396.896H394.654C394.654 63.3669 394.306 64.942 393.926 65.6413L395.896 66.7121ZM396.896 60.5121H399.139C399.139 57.561 398.822 55.0012 397.857 53.2631L395.896 54.3521L393.936 55.441C394.304 56.1029 394.654 57.6498 394.654 60.5121H396.896ZM395.896 54.3521L397.867 53.2813C396.75 51.2274 394.805 50.2697 392.536 50.2697V52.5121V54.7544C393.415 54.7544 393.709 55.0234 393.926 55.4228L395.896 54.3521ZM392.536 52.5121V50.2697C390.268 50.2697 388.323 51.2274 387.206 53.2813L389.176 54.3521L391.147 55.4228C391.364 55.0234 391.658 54.7544 392.536 54.7544V52.5121ZM389.176 54.3521L387.216 53.2631C386.251 55.0012 385.934 57.561 385.934 60.5121H388.176H390.419C390.419 57.6498 390.769 56.1029 391.137 55.441L389.176 54.3521ZM388.176 60.5121H385.934C385.934 63.4705 386.253 66.0288 387.206 67.7828L389.176 66.7121L391.147 65.6413C390.767 64.942 390.419 63.3669 390.419 60.5121H388.176ZM389.176 66.7121L387.216 67.801C388.344 69.8302 390.292 70.7544 392.536 70.7544V68.5121V66.2697C391.634 66.2697 391.343 65.994 391.137 65.6231L389.176 66.7121ZM410.824 71.8721L409.204 73.422L409.215 73.434L409.227 73.4459L410.824 71.8721ZM408.184 47.0321V44.7897H405.942V47.0321H408.184ZM415.904 47.0321H418.147V44.7897H415.904V47.0321ZM423.024 47.0321V44.7897H420.782V47.0321H423.024ZM430.744 47.0321H432.987V44.7897H430.744V47.0321ZM428.064 71.8721L426.456 70.31L426.455 70.3103L428.064 71.8721ZM419.464 74.5921V72.3497C415.763 72.3497 413.602 71.4962 412.422 70.2983L410.824 71.8721L409.227 73.4459C411.62 75.8746 415.219 76.8344 419.464 76.8344V74.5921ZM410.824 71.8721L412.445 70.3221C411.27 69.0942 410.427 66.8099 410.427 62.9121H408.184H405.942C405.942 67.2809 406.858 70.97 409.204 73.422L410.824 71.8721ZM408.184 62.9121H410.427V47.0321H408.184H405.942V62.9121H408.184ZM408.184 47.0321V49.2744H415.904V47.0321V44.7897H408.184V47.0321ZM415.904 47.0321H413.662V64.5521H415.904H418.147V47.0321H415.904ZM415.904 64.5521H413.662C413.662 66.143 414.032 67.7535 415.168 68.9657C416.33 70.2051 417.92 70.6344 419.504 70.6344V68.3921V66.1497C418.688 66.1497 418.478 65.939 418.44 65.8984C418.377 65.8306 418.147 65.5211 418.147 64.5521H415.904ZM419.504 68.3921V70.6344C421.076 70.6344 422.652 70.1968 423.797 68.9473C424.909 67.7347 425.267 66.1317 425.267 64.5521H423.024H420.782C420.782 65.5324 420.553 65.8494 420.491 65.9169C420.463 65.9473 420.279 66.1497 419.504 66.1497V68.3921ZM423.024 64.5521H425.267V47.0321H423.024H420.782V64.5521H423.024ZM423.024 47.0321V49.2744H430.744V47.0321V44.7897H423.024V47.0321ZM430.744 47.0321H428.502V62.9121H430.744H432.987V47.0321H430.744ZM430.744 62.9121H428.502C428.502 66.8029 427.648 69.0818 426.456 70.31L428.064 71.8721L429.673 73.4342C432.054 70.9824 432.987 67.2879 432.987 62.9121H430.744ZM428.064 71.8721L426.455 70.3103C425.306 71.4945 423.169 72.3497 419.464 72.3497V74.5921V76.8344C423.706 76.8344 427.303 75.8763 429.673 73.4338L428.064 71.8721ZM435.166 73.9921H432.924V76.2344H435.166V73.9921ZM435.166 47.0321V44.7897H432.924V47.0321H435.166ZM453.526 49.3121L452.061 51.0091L452.067 51.0146L452.073 51.02L453.526 49.3121ZM454.926 60.6721L456.792 61.9159L456.798 61.9071L456.804 61.8982L454.926 60.6721ZM451.366 63.3921L450.624 61.2762L447.991 62.1998L449.459 64.5721L451.366 63.3921ZM457.926 73.9921V76.2344H461.951L459.833 72.812L457.926 73.9921ZM449.926 73.9921L447.985 75.1143L448.632 76.2344H449.926V73.9921ZM444.446 64.5121L446.388 63.3899L445.74 62.2697H444.446V64.5121ZM442.446 64.5121V62.2697H440.204V64.5121H442.446ZM442.446 73.9921V76.2344H444.689V73.9921H442.446ZM442.446 52.4721V50.2297H440.204V52.4721H442.446ZM442.446 59.3521H440.204V61.5944H442.446V59.3521ZM435.166 73.9921H437.409V47.0321H435.166H432.924V73.9921H435.166ZM435.166 47.0321V49.2744H445.766V47.0321V44.7897H435.166V47.0321ZM445.766 47.0321V49.2744C448.887 49.2744 450.862 49.9737 452.061 51.0091L453.526 49.3121L454.992 47.615C452.671 45.6105 449.472 44.7897 445.766 44.7897V47.0321ZM453.526 49.3121L452.073 51.02C453.247 52.0183 453.964 53.5262 453.964 55.9121H456.206H458.449C458.449 52.538 457.379 49.6458 454.979 47.6042L453.526 49.3121ZM456.206 55.9121H453.964C453.964 57.4298 453.621 58.5702 453.049 59.446L454.926 60.6721L456.804 61.8982C457.938 60.1606 458.449 58.1276 458.449 55.9121H456.206ZM454.926 60.6721L453.06 59.4282C452.49 60.2834 451.708 60.8958 450.624 61.2762L451.366 63.3921L452.109 65.5079C454.065 64.8216 455.655 63.6207 456.792 61.9159L454.926 60.6721ZM451.366 63.3921L449.459 64.5721L456.019 75.1721L457.926 73.9921L459.833 72.812L453.273 62.212L451.366 63.3921ZM457.926 73.9921V71.7497H449.926V73.9921V76.2344H457.926V73.9921ZM449.926 73.9921L451.868 72.8699L446.388 63.3899L444.446 64.5121L442.505 65.6343L447.985 75.1143L449.926 73.9921ZM444.446 64.5121V62.2697H442.446V64.5121V66.7544H444.446V64.5121ZM442.446 64.5121H440.204V73.9921H442.446H444.689V64.5121H442.446ZM442.446 73.9921V71.7497H435.166V73.9921V76.2344H442.446V73.9921ZM445.086 52.4721V50.2297H442.446V52.4721V54.7144H445.086V52.4721ZM442.446 52.4721H440.204V59.3521H442.446H444.689V52.4721H442.446ZM442.446 59.3521V61.5944H445.086V59.3521V57.1097H442.446V59.3521ZM445.086 59.3521V61.5944C446.6 61.5944 448.15 61.2297 449.314 60.1046C450.493 58.9656 450.889 57.4243 450.889 55.9121H448.646H446.404C446.404 56.6932 446.206 56.8718 446.198 56.8795C446.176 56.9011 445.946 57.1097 445.086 57.1097V59.3521ZM448.646 55.9121H450.889C450.889 54.3998 450.493 52.8585 449.314 51.7195C448.15 50.5944 446.6 50.2297 445.086 50.2297V52.4721V54.7144C445.946 54.7144 446.176 54.9231 446.198 54.9446C446.206 54.9523 446.404 55.131 446.404 55.9121H448.646ZM467.394 73.9921H465.152V76.2344H467.394V73.9921ZM467.394 47.0321V44.7897H465.152V47.0321H467.394ZM476.194 47.0321L478.277 46.2002L477.713 44.7897H476.194V47.0321ZM482.314 62.3521L480.232 63.1839L482.308 68.3796L484.395 63.1886L482.314 62.3521ZM488.474 47.0321V44.7897H486.959L486.394 46.1955L488.474 47.0321ZM497.034 47.0321H499.277V44.7897H497.034V47.0321ZM497.034 73.9921V76.2344H499.277V73.9921H497.034ZM490.394 73.9921H488.152V76.2344H490.394V73.9921ZM490.394 56.6721H492.637L488.312 55.8393L490.394 56.6721ZM485.194 69.6721V71.9144H486.712L487.276 70.5049L485.194 69.6721ZM479.274 69.6721L477.199 70.5206L477.768 71.9144H479.274V69.6721ZM474.074 56.9521L476.15 56.1035L471.832 56.9521H474.074ZM474.074 73.9921V76.2344H476.317V73.9921H474.074ZM467.394 73.9921H469.637V47.0321H467.394H465.152V73.9921H467.394ZM467.394 47.0321V49.2744H476.194V47.0321V44.7897H467.394V47.0321ZM476.194 47.0321L474.112 47.8639L480.232 63.1839L482.314 62.3521L484.397 61.5202L478.277 46.2002L476.194 47.0321ZM482.314 62.3521L484.395 63.1886L490.555 47.8686L488.474 47.0321L486.394 46.1955L480.234 61.5155L482.314 62.3521ZM488.474 47.0321V49.2744H497.034V47.0321V44.7897H488.474V47.0321ZM497.034 47.0321H494.792V73.9921H497.034H499.277V47.0321H497.034ZM497.034 73.9921V71.7497H490.394V73.9921V76.2344H497.034V73.9921ZM490.394 73.9921H492.637V56.6721H490.394H488.152V73.9921H490.394ZM490.394 56.6721L488.312 55.8393L483.112 68.8393L485.194 69.6721L487.276 70.5049L492.476 57.5049L490.394 56.6721ZM485.194 69.6721V67.4297H479.274V69.6721V71.9144H485.194V69.6721ZM479.274 69.6721L481.35 68.8235L476.15 56.1035L474.074 56.9521L471.999 57.8006L477.199 70.5206L479.274 69.6721ZM474.074 56.9521H471.832V73.9921H474.074H476.317V56.9521H474.074ZM474.074 73.9921V71.7497H467.394V73.9921V76.2344H474.074V73.9921ZM501.829 73.9921H499.586V76.2344H501.829V73.9921ZM501.829 47.0321V44.7897H499.586V47.0321H501.829ZM509.509 47.0321H511.751V44.7897H509.509V47.0321ZM509.509 73.9921V76.2344H511.751V73.9921H509.509ZM501.829 73.9921H504.071V47.0321H501.829H499.586V73.9921H501.829ZM501.829 47.0321V49.2744H509.509V47.0321V44.7897H501.829V47.0321ZM509.509 47.0321H507.266V73.9921H509.509H511.751V47.0321H509.509ZM509.509 73.9921V71.7497H501.829V73.9921V76.2344H509.509V73.9921ZM513.15 73.0321L510.969 72.5093L510.515 74.4042L512.328 75.1184L513.15 73.0321ZM514.55 67.1921L515.355 65.0992L512.966 64.1804L512.369 66.6693L514.55 67.1921ZM517.87 68.1521L517.421 70.3489L517.449 70.3547L517.477 70.3598L517.87 68.1521ZM524.55 67.8721L523.429 65.9298L523.413 65.9394L523.396 65.9493L524.55 67.8721ZM523.75 63.9121L523.305 66.1099L523.312 66.1113L523.319 66.1127L523.75 63.9121ZM520.19 63.1921L519.74 65.3888L519.745 65.3899L520.19 63.1921ZM516.27 48.7921L517.725 50.4981L517.732 50.492L517.739 50.4858L516.27 48.7921ZM532.23 47.8721L534.404 48.4195L534.889 46.4967L533.039 45.7809L532.23 47.8721ZM530.79 53.5921L529.973 55.6802L532.343 56.6077L532.964 54.1395L530.79 53.5921ZM522.75 56.8721L523.184 54.6722L523.175 54.6703L523.166 54.6686L522.75 56.8721ZM525.79 57.4721L526.243 55.2761L526.234 55.2741L526.224 55.2722L525.79 57.4721ZM531.19 60.1921L529.505 61.6711L529.513 61.6807L529.522 61.6902L531.19 60.1921ZM530.23 72.3921L531.64 74.1355L531.648 74.1293L531.655 74.123L530.23 72.3921ZM521.87 74.5921V72.3497C518.945 72.3497 516.321 71.8712 513.972 70.9458L513.15 73.0321L512.328 75.1184C515.259 76.273 518.448 76.8344 521.87 76.8344V74.5921ZM513.15 73.0321L515.331 73.5548L516.73 67.7148L514.55 67.1921L512.369 66.6693L510.969 72.5093L513.15 73.0321ZM514.55 67.1921L513.745 69.285C514.909 69.7325 516.135 70.086 517.421 70.3489L517.87 68.1521L518.319 65.9552C517.258 65.7382 516.271 65.4516 515.355 65.0992L514.55 67.1921ZM517.87 68.1521L517.477 70.3598C518.786 70.5924 520.038 70.7144 521.23 70.7144V68.4721V66.2297C520.342 66.2297 519.354 66.1384 518.262 65.9443L517.87 68.1521ZM521.23 68.4721V70.7144C522.853 70.7144 524.486 70.5256 525.704 69.7949L524.55 67.8721L523.396 65.9493C523.281 66.0185 522.7 66.2297 521.23 66.2297V68.4721ZM524.55 67.8721L525.671 69.8144C527.162 68.9539 527.832 67.4922 527.832 65.9121H525.59H523.348C523.348 65.9966 523.339 66.0425 523.336 66.0581C523.333 66.0721 523.334 66.0594 523.349 66.031C523.356 66.0175 523.365 66.0028 523.376 65.9878C523.387 65.9729 523.399 65.9599 523.409 65.9491C523.432 65.9266 523.443 65.9221 523.429 65.9298L524.55 67.8721ZM525.59 65.9121H527.832C527.832 64.9258 527.543 63.9034 526.78 63.0739C526.048 62.2776 525.088 61.8891 524.181 61.7114L523.75 63.9121L523.319 66.1127C523.472 66.1426 523.545 66.1743 523.564 66.1835C523.578 66.1905 523.537 66.1724 523.48 66.1103C523.452 66.0803 523.426 66.0458 523.404 66.0084C523.382 65.9711 523.367 65.9371 523.357 65.91C523.339 65.8556 523.348 65.8474 523.348 65.9121H525.59ZM523.75 63.9121L524.194 61.7142L520.634 60.9942L520.19 63.1921L519.745 65.3899L523.305 66.1099L523.75 63.9121ZM520.19 63.1921L520.64 60.9953C518.77 60.6124 517.625 59.9162 516.932 59.0857C516.245 58.2621 515.792 57.0539 515.792 55.2321H513.55H511.308C511.308 57.8103 511.962 60.1287 513.488 61.9584C515.009 63.7813 517.183 64.8651 519.74 65.3888L520.19 63.1921ZM513.55 55.2321H515.792C515.792 53.0305 516.49 51.5514 517.725 50.4981L516.27 48.7921L514.815 47.086C512.423 49.126 511.308 51.9402 511.308 55.2321H513.55ZM516.27 48.7921L517.739 50.4858C519.029 49.3669 520.94 48.6744 523.75 48.6744V46.4321V44.1897C520.213 44.1897 517.138 45.0706 514.8 47.0984L516.27 48.7921ZM523.75 46.4321V48.6744C526.699 48.6744 529.243 49.1204 531.42 49.9632L532.23 47.8721L533.039 45.7809C530.257 44.7037 527.148 44.1897 523.75 44.1897V46.4321ZM532.23 47.8721L530.055 47.3246L528.615 53.0446L530.79 53.5921L532.964 54.1395L534.404 48.4195L532.23 47.8721ZM530.79 53.5921L531.607 51.5039C529.45 50.6597 527.001 50.2697 524.31 50.2697V52.5121V54.7544C526.579 54.7544 528.45 55.0844 529.973 55.6802L530.79 53.5921ZM524.31 52.5121V50.2697C522.924 50.2697 521.506 50.4712 520.369 51.1759C519.054 51.9905 518.388 53.3059 518.388 54.7921H520.63H522.872C522.872 54.7182 522.885 54.7628 522.835 54.857C522.781 54.9563 522.719 54.9956 522.731 54.9882C522.758 54.9715 522.877 54.9076 523.153 54.8506C523.427 54.7941 523.806 54.7544 524.31 54.7544V52.5121ZM520.63 54.7921H518.388C518.388 55.8677 518.748 56.9274 519.59 57.7527C520.373 58.5212 521.379 58.8953 522.334 59.0755L522.75 56.8721L523.166 54.6686C522.948 54.6276 522.817 54.5808 522.747 54.5494C522.681 54.5192 522.69 54.5116 522.73 54.5515C522.776 54.5966 522.823 54.6633 522.852 54.7379C522.879 54.8068 522.872 54.8351 522.872 54.7921H520.63ZM522.75 56.8721L522.316 59.072L525.356 59.672L525.79 57.4721L526.224 55.2722L523.184 54.6722L522.75 56.8721ZM525.79 57.4721L525.336 59.6681C527.516 60.1181 528.794 60.8614 529.505 61.6711L531.19 60.1921L532.875 58.713C531.293 56.9094 528.971 55.8393 526.243 55.2761L525.79 57.4721ZM531.19 60.1921L529.522 61.6902C530.224 62.4725 530.708 63.6786 530.708 65.5921H532.95H535.192C535.192 62.9189 534.503 60.525 532.858 58.6939L531.19 60.1921ZM532.95 65.5921H530.708C530.708 68.1745 529.956 69.7125 528.804 70.6611L530.23 72.3921L531.655 74.123C534.13 72.0849 535.192 69.0897 535.192 65.5921H532.95ZM530.23 72.3921L528.82 70.6486C527.585 71.647 525.409 72.3497 521.87 72.3497V74.5921V76.8344C525.851 76.8344 529.248 76.0705 531.64 74.1355L530.23 72.3921ZM534.733 73.0321L532.552 72.5093L532.098 74.4042L533.911 75.1184L534.733 73.0321ZM536.133 67.1921L536.938 65.0992L534.549 64.1804L533.952 66.6693L536.133 67.1921ZM539.453 68.1521L539.003 70.3489L539.032 70.3547L539.06 70.3598L539.453 68.1521ZM546.133 67.8721L545.012 65.9298L544.996 65.9394L544.979 65.9493L546.133 67.8721ZM545.333 63.9121L544.888 66.1099L544.895 66.1113L544.902 66.1127L545.333 63.9121ZM541.773 63.1921L541.323 65.3888L541.328 65.3899L541.773 63.1921ZM537.853 48.7921L539.308 50.4981L539.315 50.492L539.322 50.4858L537.853 48.7921ZM553.813 47.8721L555.987 48.4195L556.471 46.4967L554.622 45.7809L553.813 47.8721ZM552.373 53.5921L551.556 55.6802L553.926 56.6077L554.547 54.1395L552.373 53.5921ZM544.333 56.8721L544.767 54.6722L544.758 54.6703L544.748 54.6686L544.333 56.8721ZM547.373 57.4721L547.826 55.2761L547.817 55.2741L547.807 55.2722L547.373 57.4721ZM552.773 60.1921L551.087 61.6711L551.096 61.6807L551.104 61.6902L552.773 60.1921ZM551.813 72.3921L553.223 74.1355L553.231 74.1293L553.238 74.123L551.813 72.3921ZM543.453 74.5921V72.3497C540.528 72.3497 537.904 71.8712 535.555 70.9458L534.733 73.0321L533.911 75.1184C536.842 76.273 540.031 76.8344 543.453 76.8344V74.5921ZM534.733 73.0321L536.913 73.5548L538.313 67.7148L536.133 67.1921L533.952 66.6693L532.552 72.5093L534.733 73.0321ZM536.133 67.1921L535.328 69.285C536.491 69.7325 537.718 70.086 539.003 70.3489L539.453 68.1521L539.902 65.9552C538.841 65.7382 537.854 65.4516 536.938 65.0992L536.133 67.1921ZM539.453 68.1521L539.06 70.3598C540.368 70.5924 541.621 70.7144 542.813 70.7144V68.4721V66.2297C541.924 66.2297 540.937 66.1384 539.845 65.9443L539.453 68.1521ZM542.813 68.4721V70.7144C544.436 70.7144 546.068 70.5256 547.286 69.7949L546.133 67.8721L544.979 65.9493C544.864 66.0185 544.283 66.2297 542.813 66.2297V68.4721ZM546.133 67.8721L547.253 69.8144C548.745 68.9539 549.415 67.4922 549.415 65.9121H547.173H544.93C544.93 65.9966 544.922 66.0425 544.919 66.0581C544.916 66.0721 544.917 66.0594 544.932 66.031C544.939 66.0175 544.948 66.0028 544.959 65.9878C544.97 65.9729 544.981 65.9599 544.992 65.9491C545.014 65.9266 545.025 65.9221 545.012 65.9298L546.133 67.8721ZM547.173 65.9121H549.415C549.415 64.9258 549.126 63.9034 548.363 63.0739C547.63 62.2776 546.671 61.8891 545.763 61.7114L545.333 63.9121L544.902 66.1127C545.055 66.1426 545.128 66.1743 545.147 66.1835C545.161 66.1905 545.12 66.1724 545.062 66.1103C545.035 66.0803 545.009 66.0458 544.987 66.0084C544.965 65.9711 544.95 65.9371 544.94 65.91C544.921 65.8556 544.93 65.8474 544.93 65.9121H547.173ZM545.333 63.9121L545.777 61.7142L542.217 60.9942L541.773 63.1921L541.328 65.3899L544.888 66.1099L545.333 63.9121ZM541.773 63.1921L542.223 60.9953C540.353 60.6124 539.207 59.9162 538.515 59.0857C537.828 58.2621 537.375 57.0539 537.375 55.2321H535.133H532.89C532.89 57.8103 533.545 60.1287 535.071 61.9584C536.591 63.7813 538.766 64.8651 541.323 65.3888L541.773 63.1921ZM535.133 55.2321H537.375C537.375 53.0305 538.073 51.5514 539.308 50.4981L537.853 48.7921L536.398 47.086C534.006 49.126 532.89 51.9402 532.89 55.2321H535.133ZM537.853 48.7921L539.322 50.4858C540.612 49.3669 542.523 48.6744 545.333 48.6744V46.4321V44.1897C541.796 44.1897 538.72 45.0706 536.383 47.0984L537.853 48.7921ZM545.333 46.4321V48.6744C548.281 48.6744 550.826 49.1204 553.003 49.9632L553.813 47.8721L554.622 45.7809C551.839 44.7037 548.731 44.1897 545.333 44.1897V46.4321ZM553.813 47.8721L551.638 47.3246L550.198 53.0446L552.373 53.5921L554.547 54.1395L555.987 48.4195L553.813 47.8721ZM552.373 53.5921L553.19 51.5039C551.032 50.6597 548.584 50.2697 545.893 50.2697V52.5121V54.7544C548.162 54.7544 550.033 55.0844 551.556 55.6802L552.373 53.5921ZM545.893 52.5121V50.2697C544.507 50.2697 543.089 50.4712 541.952 51.1759C540.637 51.9905 539.97 53.3059 539.97 54.7921H542.213H544.455C544.455 54.7182 544.468 54.7628 544.417 54.857C544.364 54.9563 544.302 54.9956 544.314 54.9882C544.341 54.9715 544.46 54.9076 544.736 54.8506C545.01 54.7941 545.388 54.7544 545.893 54.7544V52.5121ZM542.213 54.7921H539.97C539.97 55.8677 540.331 56.9274 541.172 57.7527C541.956 58.5212 542.962 58.8953 543.917 59.0755L544.333 56.8721L544.748 54.6686C544.531 54.6276 544.4 54.5808 544.33 54.5494C544.263 54.5192 544.273 54.5116 544.313 54.5515C544.359 54.5966 544.405 54.6633 544.435 54.7379C544.461 54.8068 544.455 54.8351 544.455 54.7921H542.213ZM544.333 56.8721L543.899 59.072L546.939 59.672L547.373 57.4721L547.807 55.2722L544.767 54.6722L544.333 56.8721ZM547.373 57.4721L546.919 59.6681C549.098 60.1181 550.377 60.8614 551.087 61.6711L552.773 60.1921L554.458 58.713C552.875 56.9094 550.554 55.8393 547.826 55.2761L547.373 57.4721ZM552.773 60.1921L551.104 61.6902C551.807 62.4725 552.29 63.6786 552.29 65.5921H554.533H556.775C556.775 62.9189 556.085 60.525 554.441 58.6939L552.773 60.1921ZM554.533 65.5921H552.29C552.29 68.1745 551.539 69.7125 550.387 70.6611L551.813 72.3921L553.238 74.123C555.713 72.0849 556.775 69.0897 556.775 65.5921H554.533ZM551.813 72.3921L550.403 70.6486C549.168 71.647 546.992 72.3497 543.453 72.3497V74.5921V76.8344C547.433 76.8344 550.831 76.0705 553.223 74.1355L551.813 72.3921ZM557.866 73.9921H555.624V76.2344H557.866V73.9921ZM557.866 47.0321V44.7897H555.624V47.0321H557.866ZM565.546 47.0321H567.789V44.7897H565.546V47.0321ZM565.546 73.9921V76.2344H567.789V73.9921H565.546ZM557.866 73.9921H560.109V47.0321H557.866H555.624V73.9921H557.866ZM557.866 47.0321V49.2744H565.546V47.0321V44.7897H557.866V47.0321ZM565.546 47.0321H563.304V73.9921H565.546H567.789V47.0321H565.546ZM565.546 73.9921V71.7497H557.866V73.9921V76.2344H565.546V73.9921ZM572.347 70.9921L570.662 72.4713L572.347 70.9921ZM572.347 50.0321L570.662 48.5528V48.5528L572.347 50.0321ZM590.747 50.0321L592.433 48.5528V48.5528L590.747 50.0321ZM584.907 66.7121L586.868 67.801L586.873 67.792L586.878 67.7828L584.907 66.7121ZM584.907 54.3521L582.937 55.4228L582.942 55.432L582.947 55.441L584.907 54.3521ZM578.187 54.3521L580.148 55.441L580.153 55.432L580.158 55.4228L578.187 54.3521ZM578.187 66.7121L576.217 67.7828L576.222 67.792L576.227 67.801L578.187 66.7121ZM581.547 74.5921V72.3497C577.985 72.3497 575.607 71.3065 574.033 69.5128L572.347 70.9921L570.662 72.4713C573.301 75.4776 577.057 76.8344 581.547 76.8344V74.5921ZM572.347 70.9921L574.033 69.5128C572.414 67.6691 571.43 64.7886 571.43 60.5121H569.187H566.945C566.945 65.4089 568.067 69.5151 570.662 72.4713L572.347 70.9921ZM569.187 60.5121H571.43C571.43 56.2355 572.414 53.3551 574.033 51.5113L572.347 50.0321L570.662 48.5528C568.067 51.5091 566.945 55.6153 566.945 60.5121H569.187ZM572.347 50.0321L574.033 51.5113C575.607 49.7176 577.985 48.6744 581.547 48.6744V46.4321V44.1897C577.057 44.1897 573.301 45.5465 570.662 48.5528L572.347 50.0321ZM581.547 46.4321V48.6744C585.11 48.6744 587.488 49.7176 589.062 51.5113L590.747 50.0321L592.433 48.5528C589.794 45.5465 586.038 44.1897 581.547 44.1897V46.4321ZM590.747 50.0321L589.062 51.5113C590.681 53.3551 591.665 56.2355 591.665 60.5121H593.907H596.15C596.15 55.6153 595.028 51.5091 592.433 48.5528L590.747 50.0321ZM593.907 60.5121H591.665C591.665 64.7886 590.681 67.6691 589.062 69.5128L590.747 70.9921L592.433 72.4713C595.028 69.5151 596.15 65.4089 596.15 60.5121H593.907ZM590.747 70.9921L589.062 69.5128C587.488 71.3065 585.11 72.3497 581.547 72.3497V74.5921V76.8344C586.038 76.8344 589.794 75.4776 592.433 72.4713L590.747 70.9921ZM581.547 68.5121V70.7544C583.792 70.7544 585.74 69.8302 586.868 67.801L584.907 66.7121L582.947 65.6231C582.741 65.994 582.45 66.2697 581.547 66.2697V68.5121ZM584.907 66.7121L586.878 67.7828C587.831 66.0288 588.15 63.4705 588.15 60.5121H585.907H583.665C583.665 63.3669 583.317 64.942 582.937 65.6413L584.907 66.7121ZM585.907 60.5121H588.15C588.15 57.561 587.833 55.0012 586.868 53.2631L584.907 54.3521L582.947 55.441C583.315 56.1029 583.665 57.6498 583.665 60.5121H585.907ZM584.907 54.3521L586.878 53.2813C585.761 51.2274 583.816 50.2697 581.547 50.2697V52.5121V54.7544C582.426 54.7544 582.72 55.0234 582.937 55.4228L584.907 54.3521ZM581.547 52.5121V50.2697C579.279 50.2697 577.333 51.2274 576.217 53.2813L578.187 54.3521L580.158 55.4228C580.375 55.0234 580.669 54.7544 581.547 54.7544V52.5121ZM578.187 54.3521L576.227 53.2631C575.262 55.0012 574.945 57.561 574.945 60.5121H577.187H579.43C579.43 57.6498 579.78 56.1029 580.148 55.441L578.187 54.3521ZM577.187 60.5121H574.945C574.945 63.4705 575.264 66.0288 576.217 67.7828L578.187 66.7121L580.158 65.6413C579.778 64.942 579.43 63.3669 579.43 60.5121H577.187ZM578.187 66.7121L576.227 67.801C577.355 69.8302 579.303 70.7544 581.547 70.7544V68.5121V66.2697C580.645 66.2697 580.354 65.994 580.148 65.6231L578.187 66.7121ZM597.555 73.9921H595.313V76.2344H597.555V73.9921ZM597.555 47.0321V44.7897H595.313V47.0321H597.555ZM605.555 47.0321L607.549 46.0066L606.924 44.7897H605.555V47.0321ZM614.235 63.9121L612.241 64.9375L616.478 63.9121H614.235ZM614.235 47.0321V44.7897H611.993V47.0321H614.235ZM620.915 47.0321H623.158V44.7897H620.915V47.0321ZM620.915 73.9921V76.2344H623.158V73.9921H620.915ZM612.915 73.9921L610.921 75.0175L611.547 76.2344H612.915V73.9921ZM604.235 57.1121L606.229 56.0866L601.993 57.1121H604.235ZM604.235 73.9921V76.2344H606.478V73.9921H604.235ZM597.555 73.9921H599.798V47.0321H597.555H595.313V73.9921H597.555ZM597.555 47.0321V49.2744H605.555V47.0321V44.7897H597.555V47.0321ZM605.555 47.0321L603.561 48.0575L612.241 64.9375L614.235 63.9121L616.229 62.8866L607.549 46.0066L605.555 47.0321ZM614.235 63.9121H616.478V47.0321H614.235H611.993V63.9121H614.235ZM614.235 47.0321V49.2744H620.915V47.0321V44.7897H614.235V47.0321ZM620.915 47.0321H618.673V73.9921H620.915H623.158V47.0321H620.915ZM620.915 73.9921V71.7497H612.915V73.9921V76.2344H620.915V73.9921ZM612.915 73.9921L614.909 72.9666L606.229 56.0866L604.235 57.1121L602.241 58.1375L610.921 75.0175L612.915 73.9921ZM604.235 57.1121H601.993V73.9921H604.235H606.478V57.1121H604.235ZM604.235 73.9921V71.7497H597.555V73.9921V76.2344H604.235V73.9921Z" fill="#3B3B3B" mask="url(#path-5-outside-1_598_14458)"/>
</g>
<defs>
<filter id="filter0_d_598_14458" x="0.795593" y="0.778198" width="856.327" height="150.057" filterUnits="userSpaceOnUse" color-interpolation-filters="sRGB">
<feFlood flood-opacity="0" result="BackgroundImageFix"/>
<feColorMatrix in="SourceAlpha" type="matrix" values="0 0 0 0 0 0 0 0 0 0 0 0 0 0 0 0 0 0 127 0" result="hardAlpha"/>
<feOffset dy="8.82814"/>
<feComposite in2="hardAlpha" operator="out"/>
<feColorMatrix type="matrix" values="0 0 0 0 0 0 0 0 0 0 0 0 0 0 0 0 0 0 0.25 0"/>
<feBlend mode="normal" in2="BackgroundImageFix" result="effect1_dropShadow_598_14458"/>
<feBlend mode="normal" in="SourceGraphic" in2="effect1_dropShadow_598_14458" result="shape"/>
</filter>
<filter id="filter1_ddd_598_14458" x="227.614" y="42.5079" width="401.15" height="43.8564" filterUnits="userSpaceOnUse" color-interpolation-filters="sRGB">
<feFlood flood-opacity="0" result="BackgroundImageFix"/>
<feColorMatrix in="SourceAlpha" type="matrix" values="0 0 0 0 0 0 0 0 0 0 0 0 0 0 0 0 0 0 127 0" result="hardAlpha"/>
<feOffset dy="2.20703"/>
<feComposite in2="hardAlpha" operator="out"/>
<feColorMatrix type="matrix" values="0 0 0 0 0 0 0 0 0 0 0 0 0 0 0 0 0 0 1 0"/>
<feBlend mode="normal" in2="BackgroundImageFix" result="effect1_dropShadow_598_14458"/>
<feColorMatrix in="SourceAlpha" type="matrix" values="0 0 0 0 0 0 0 0 0 0 0 0 0 0 0 0 0 0 127 0" result="hardAlpha"/>
<feOffset dy="2.20703"/>
<feComposite in2="hardAlpha" operator="out"/>
<feColorMatrix type="matrix" values="0 0 0 0 0 0 0 0 0 0 0 0 0 0 0 0 0 0 1 0"/>
<feBlend mode="normal" in2="effect1_dropShadow_598_14458" result="effect2_dropShadow_598_14458"/>
<feColorMatrix in="SourceAlpha" type="matrix" values="0 0 0 0 0 0 0 0 0 0 0 0 0 0 0 0 0 0 127 0" result="hardAlpha"/>
<feOffset dy="3.92411"/>
<feGaussianBlur stdDeviation="2.80293"/>
<feComposite in2="hardAlpha" operator="out"/>
<feColorMatrix type="matrix" values="0 0 0 0 0 0 0 0 0 0 0 0 0 0 0 0 0 0 0.8 0"/>
<feBlend mode="normal" in2="effect2_dropShadow_598_14458" result="effect3_dropShadow_598_14458"/>
<feBlend mode="normal" in="SourceGraphic" in2="effect3_dropShadow_598_14458" result="shape"/>
</filter>
<linearGradient id="paint0_linear_598_14458" x1="3.02118" y1="59.7571" x2="854.895" y2="59.7571" gradientUnits="userSpaceOnUse">
<stop stop-color="#4B42A2"/>
<stop offset="0.475" stop-color="#8383FF"/>
<stop offset="1" stop-color="#4C43A3"/>
</linearGradient>
<radialGradient id="paint1_radial_598_14458" cx="0" cy="0" r="1" gradientUnits="userSpaceOnUse" gradientTransform="translate(428.957 82.9569) rotate(-90) scale(95.1954 2485.74)">
<stop offset="0.431628" stop-color="white" stop-opacity="0.26"/>
<stop offset="1" stop-color="white"/>
</radialGradient>
</defs>
</svg>
