<svg width="217" height="444" viewBox="0 0 217 444" fill="none" xmlns="http://www.w3.org/2000/svg">
<g style="mix-blend-mode:multiply" opacity="0.5">
<path d="M218.34 330.008C219.299 331.31 221.038 331.662 222.221 330.792C223.403 329.923 223.585 328.157 222.627 326.855C221.669 325.552 219.93 325.2 218.747 326.07C217.565 326.94 217.382 328.705 218.34 330.008Z" fill="#E1CCFF"/>
<path d="M216.936 342.771C217.924 344.114 219.731 344.48 220.95 343.583C222.17 342.686 222.359 340.853 221.371 339.509C220.383 338.166 218.577 337.801 217.357 338.698C216.138 339.594 215.948 341.428 216.936 342.771Z" fill="#E1CCFF"/>
<path d="M215.954 355.257C216.808 356.417 218.346 356.728 219.4 355.954C220.453 355.179 220.614 353.617 219.761 352.457C218.907 351.297 217.369 350.986 216.316 351.76C215.262 352.535 215.101 354.097 215.954 355.257Z" fill="#E1CCFF"/>
<path d="M214.958 367.72C215.662 368.677 216.933 368.934 217.802 368.296C218.67 367.657 218.803 366.367 218.1 365.41C217.396 364.453 216.125 364.196 215.257 364.835C214.388 365.474 214.255 366.764 214.958 367.72Z" fill="#E1CCFF"/>
<path d="M213.974 380.206C214.528 380.959 215.547 381.183 216.249 380.666C216.951 380.15 217.056 379.132 216.487 378.358C215.918 377.585 214.915 377.382 214.213 377.898C213.511 378.414 213.405 379.433 213.974 380.206Z" fill="#E1CCFF"/>
<path d="M212.663 392.902C213.216 393.655 214.235 393.878 214.937 393.362C215.639 392.845 215.744 391.827 215.176 391.053C214.607 390.28 213.603 390.077 212.901 390.593C212.199 391.11 212.094 392.128 212.663 392.902Z" fill="#E1CCFF"/>
<path d="M211.736 405.346C212.125 405.875 212.827 406.017 213.308 405.664C213.788 405.31 213.862 404.598 213.473 404.068C213.083 403.539 212.381 403.397 211.901 403.75C211.42 404.104 211.347 404.817 211.736 405.346Z" fill="#E1CCFF"/>
<path d="M210.74 417.81C210.98 418.136 211.415 418.224 211.71 418.007C212.006 417.789 212.052 417.348 211.812 417.022C211.573 416.697 211.138 416.609 210.842 416.826C210.546 417.043 210.501 417.485 210.74 417.81Z" fill="#E1CCFF"/>
<path d="M209.516 430.473C209.726 430.758 210.094 430.832 210.353 430.642C210.611 430.452 210.65 430.078 210.44 429.793C210.231 429.508 209.863 429.434 209.604 429.624C209.345 429.814 209.307 430.188 209.516 430.473Z" fill="#E1CCFF"/>
<path d="M208.633 442.855C208.633 442.855 208.648 442.876 208.666 442.863C208.684 442.849 208.684 442.849 208.669 442.829C208.654 442.808 208.654 442.808 208.636 442.821C208.617 442.835 208.617 442.835 208.633 442.855Z" fill="#E1CCFF"/>
<path d="M218.02 201.045C219.397 202.917 221.873 203.418 223.573 202.168C225.273 200.917 225.532 198.405 224.155 196.533C222.777 194.66 220.302 194.159 218.602 195.41C216.902 196.66 216.643 199.172 218.02 201.045Z" fill="#E1CCFF"/>
<path d="M216.891 213.638C218.179 215.388 220.52 215.862 222.109 214.693C223.698 213.524 223.944 211.148 222.656 209.397C221.369 207.647 219.027 207.173 217.438 208.342C215.849 209.511 215.604 211.887 216.891 213.638Z" fill="#E1CCFF"/>
<path d="M215.614 226.307C216.888 228.038 219.194 228.505 220.765 227.349C222.337 226.193 222.579 223.853 221.305 222.121C220.032 220.39 217.726 219.924 216.154 221.079C214.583 222.235 214.341 224.576 215.614 226.307Z" fill="#E1CCFF"/>
<path d="M214.102 239.152C215.458 240.995 217.914 241.492 219.588 240.261C221.262 239.03 221.519 236.538 220.163 234.694C218.807 232.85 216.351 232.354 214.677 233.585C213.004 234.815 212.746 237.308 214.102 239.152Z" fill="#E1CCFF"/>
<path d="M213.081 251.664C214.308 253.333 216.516 253.779 218.031 252.665C219.546 251.55 219.778 249.31 218.55 247.641C217.323 245.972 215.115 245.525 213.6 246.64C212.085 247.754 211.853 249.994 213.081 251.664Z" fill="#E1CCFF"/>
<path d="M211.826 264.318C213.025 265.948 215.196 266.387 216.676 265.299C218.156 264.21 218.383 262.007 217.185 260.377C215.986 258.746 213.814 258.307 212.334 259.396C210.855 260.484 210.627 262.688 211.826 264.318Z" fill="#E1CCFF"/>
<path d="M210.713 276.899C211.829 278.417 213.851 278.826 215.229 277.812C216.606 276.799 216.818 274.747 215.702 273.23C214.586 271.712 212.564 271.303 211.186 272.316C209.809 273.33 209.597 275.381 210.713 276.899Z" fill="#E1CCFF"/>
<path d="M209.384 289.609C210.507 291.136 212.514 291.542 213.9 290.522C215.285 289.503 215.496 287.466 214.373 285.94C213.25 284.413 211.243 284.007 209.857 285.026C208.471 286.046 208.261 288.082 209.384 289.609Z" fill="#E1CCFF"/>
<path d="M208.253 302.202C209.301 303.627 211.193 303.992 212.468 303.054C213.743 302.116 213.943 300.181 212.91 298.777C211.877 297.372 209.97 296.987 208.695 297.925C207.42 298.862 207.22 300.797 208.253 302.202Z" fill="#E1CCFF"/>
<path d="M207.184 314.719C208.112 315.982 209.818 316.327 210.964 315.484C212.109 314.641 212.288 312.91 211.36 311.648C210.432 310.386 208.726 310.041 207.58 310.884C206.435 311.726 206.256 313.457 207.184 314.719Z" fill="#E1CCFF"/>
<path d="M205.812 327.491C206.77 328.794 208.509 329.145 209.692 328.276C210.875 327.406 211.057 325.641 210.099 324.338C209.141 323.035 207.401 322.684 206.219 323.553C205.036 324.423 204.854 326.188 205.812 327.491Z" fill="#E1CCFF"/>
<path d="M204.816 339.956C205.624 341.055 207.096 341.352 208.094 340.619C209.092 339.885 209.246 338.391 208.437 337.292C207.629 336.193 206.157 335.895 205.159 336.629C204.162 337.363 204.007 338.856 204.816 339.956Z" fill="#E1CCFF"/>
<path d="M203.744 352.474C204.447 353.431 205.718 353.688 206.587 353.049C207.455 352.411 207.589 351.121 206.885 350.164C206.181 349.207 204.91 348.95 204.042 349.589C203.173 350.228 203.04 351.518 203.744 352.474Z" fill="#E1CCFF"/>
<path d="M202.761 364.959C203.315 365.712 204.333 365.936 205.035 365.419C205.737 364.903 205.843 363.884 205.274 363.111C204.705 362.337 203.701 362.135 202.999 362.651C202.297 363.167 202.192 364.186 202.761 364.959Z" fill="#E1CCFF"/>
<path d="M201.449 377.656C202.003 378.409 203.021 378.632 203.723 378.116C204.425 377.599 204.531 376.581 203.962 375.807C203.393 375.034 202.389 374.831 201.687 375.347C200.985 375.864 200.88 376.882 201.449 377.656Z" fill="#E1CCFF"/>
<path d="M200.506 390.113C200.911 390.663 201.631 390.791 202.112 390.438C202.592 390.084 202.669 389.338 202.28 388.808C201.891 388.279 201.155 388.13 200.675 388.484C200.194 388.837 200.117 389.584 200.506 390.113Z" fill="#E1CCFF"/>
<path d="M199.526 402.563C199.765 402.889 200.2 402.977 200.496 402.76C200.791 402.542 200.837 402.101 200.597 401.775C200.358 401.449 199.923 401.362 199.627 401.579C199.332 401.796 199.286 402.238 199.526 402.563Z" fill="#E1CCFF"/>
<path d="M198.229 415.28C198.468 415.606 198.903 415.694 199.199 415.476C199.494 415.259 199.54 414.818 199.3 414.492C199.061 414.166 198.626 414.078 198.33 414.296C198.035 414.513 197.989 414.954 198.229 415.28Z" fill="#E1CCFF"/>
<path d="M197.27 427.718C197.353 427.83 197.502 427.86 197.604 427.785C197.706 427.71 197.722 427.558 197.639 427.446C197.557 427.334 197.407 427.303 197.305 427.378C197.203 427.453 197.187 427.605 197.27 427.718Z" fill="#E1CCFF"/>
<path d="M217.237 95.9156C218.045 97.0148 219.517 97.3125 220.515 96.5786C221.512 95.8447 221.667 94.3511 220.858 93.2519C220.05 92.1527 218.578 91.8551 217.58 92.5889C216.582 93.3228 216.428 94.8164 217.237 95.9156Z" fill="#E1CCFF"/>
<path d="M215.697 108.809C216.626 110.071 218.298 110.409 219.444 109.566C220.589 108.724 220.765 107.026 219.836 105.764C218.908 104.502 217.236 104.164 216.09 105.007C214.945 105.849 214.769 107.547 215.697 108.809Z" fill="#E1CCFF"/>
<path d="M214.185 121.653C215.188 123.017 217.027 123.389 218.265 122.478C219.503 121.568 219.696 119.701 218.693 118.337C217.69 116.973 215.85 116.601 214.612 117.512C213.374 118.422 213.182 120.289 214.185 121.653Z" fill="#E1CCFF"/>
<path d="M213.035 134.26C213.963 135.523 215.669 135.868 216.815 135.025C217.96 134.182 218.139 132.451 217.211 131.189C216.283 129.927 214.577 129.582 213.431 130.425C212.285 131.267 212.107 132.998 213.035 134.26Z" fill="#E1CCFF"/>
<path d="M211.429 147.172C212.496 148.623 214.428 149.013 215.744 148.045C217.061 147.077 217.263 145.116 216.196 143.666C215.13 142.216 213.198 141.825 211.882 142.793C210.565 143.762 210.363 145.722 211.429 147.172Z" fill="#E1CCFF"/>
<path d="M209.951 159.991C211.084 161.531 213.135 161.946 214.534 160.918C215.932 159.89 216.147 157.808 215.014 156.267C213.881 154.727 211.83 154.312 210.431 155.341C209.033 156.369 208.818 158.451 209.951 159.991Z" fill="#E1CCFF"/>
<path d="M208.856 172.558C209.904 173.983 211.796 174.348 213.071 173.411C214.346 172.473 214.546 170.538 213.513 169.133C212.48 167.729 210.573 167.343 209.298 168.281C208.023 169.219 207.823 171.154 208.856 172.558Z" fill="#E1CCFF"/>
<path d="M207.288 185.444C208.441 187.011 210.515 187.43 211.938 186.384C213.36 185.337 213.596 183.219 212.444 181.652C211.291 180.085 209.217 179.665 207.776 180.725C206.334 181.785 206.135 183.876 207.288 185.444Z" fill="#E1CCFF"/>
<path d="M205.9 198.228C207.082 199.836 209.238 200.29 210.716 199.202C212.195 198.115 212.419 195.943 211.221 194.314C210.024 192.686 207.883 192.253 206.405 193.34C204.926 194.427 204.702 196.6 205.9 198.228Z" fill="#E1CCFF"/>
<path d="M204.587 210.924C205.77 212.532 207.925 212.985 209.404 211.898C210.882 210.81 211.106 208.638 209.909 207.01C208.711 205.381 206.57 204.948 205.092 206.035C203.614 207.123 203.389 209.295 204.587 210.924Z" fill="#E1CCFF"/>
<path d="M203.272 223.654C204.462 225.273 206.619 225.709 208.088 224.628C209.558 223.547 209.784 221.359 208.593 219.74C207.402 218.121 205.246 217.685 203.776 218.766C202.307 219.847 202.081 222.035 203.272 223.654Z" fill="#E1CCFF"/>
<path d="M202.052 236.282C203.201 237.844 205.283 238.265 206.702 237.222C208.12 236.179 208.338 234.066 207.189 232.503C206.04 230.941 203.958 230.52 202.54 231.563C201.121 232.606 200.903 234.719 202.052 236.282Z" fill="#E1CCFF"/>
<path d="M200.798 248.937C201.914 250.455 203.935 250.864 205.313 249.85C206.691 248.837 206.903 246.785 205.787 245.268C204.67 243.75 202.649 243.341 201.271 244.354C199.893 245.368 199.681 247.419 200.798 248.937Z" fill="#E1CCFF"/>
<path d="M199.761 261.461C200.749 262.805 202.555 263.17 203.775 262.273C204.994 261.376 205.184 259.543 204.196 258.2C203.208 256.856 201.401 256.491 200.182 257.388C198.962 258.285 198.773 260.118 199.761 261.461Z" fill="#E1CCFF"/>
<path d="M198.281 274.28C199.344 275.725 201.284 276.117 202.596 275.153C203.908 274.188 204.112 272.219 203.049 270.774C201.986 269.328 200.046 268.936 198.734 269.901C197.422 270.866 197.219 272.835 198.281 274.28Z" fill="#E1CCFF"/>
<path d="M197.151 286.874C198.139 288.217 199.945 288.582 201.165 287.685C202.384 286.788 202.574 284.955 201.586 283.612C200.598 282.268 198.791 281.903 197.572 282.8C196.352 283.697 196.163 285.53 197.151 286.874Z" fill="#E1CCFF"/>
<path d="M196.154 299.339C197.008 300.499 198.546 300.81 199.6 300.036C200.653 299.261 200.814 297.699 199.961 296.539C199.107 295.379 197.569 295.068 196.515 295.842C195.462 296.617 195.301 298.179 196.154 299.339Z" fill="#E1CCFF"/>
<path d="M194.73 312.148C195.629 313.37 197.268 313.701 198.376 312.886C199.485 312.07 199.657 310.407 198.759 309.186C197.86 307.964 196.221 307.633 195.113 308.448C194.004 309.264 193.832 310.927 194.73 312.148Z" fill="#E1CCFF"/>
<path d="M193.657 324.669C194.45 325.748 195.874 326.019 196.835 325.312C197.795 324.605 197.946 323.146 197.168 322.087C196.389 321.029 194.951 320.738 193.99 321.445C193.029 322.151 192.878 323.611 193.657 324.669Z" fill="#E1CCFF"/>
<path d="M192.619 337.194C193.289 338.105 194.502 338.35 195.329 337.742C196.155 337.134 196.283 335.903 195.613 334.993C194.943 334.082 193.73 333.837 192.903 334.445C192.077 335.053 191.95 336.284 192.619 337.194Z" fill="#E1CCFF"/>
<path d="M191.659 349.632C192.168 350.324 193.105 350.513 193.733 350.051C194.361 349.589 194.459 348.639 193.95 347.947C193.441 347.255 192.505 347.065 191.876 347.527C191.248 347.989 191.15 348.94 191.659 349.632Z" fill="#E1CCFF"/>
<path d="M190.255 362.394C190.794 363.127 191.798 363.33 192.463 362.841C193.128 362.352 193.233 361.333 192.694 360.601C192.155 359.868 191.152 359.665 190.487 360.154C189.821 360.643 189.716 361.662 190.255 362.394Z" fill="#E1CCFF"/>
<path d="M189.292 374.866C189.697 375.416 190.418 375.544 190.898 375.191C191.378 374.837 191.456 374.091 191.066 373.561C190.677 373.032 189.941 372.883 189.461 373.237C188.98 373.59 188.903 374.337 189.292 374.866Z" fill="#E1CCFF"/>
<path d="M188.313 387.318C188.553 387.644 188.988 387.732 189.283 387.514C189.579 387.297 189.624 386.856 189.385 386.53C189.145 386.204 188.71 386.116 188.415 386.334C188.119 386.551 188.074 386.993 188.313 387.318Z" fill="#E1CCFF"/>
<path d="M187.016 400.035C187.256 400.361 187.691 400.449 187.986 400.231C188.282 400.014 188.328 399.572 188.088 399.247C187.848 398.921 187.414 398.833 187.118 399.051C186.822 399.268 186.777 399.709 187.016 400.035Z" fill="#E1CCFF"/>
<path d="M186.056 412.472C186.139 412.584 186.289 412.614 186.391 412.539C186.493 412.464 186.508 412.312 186.426 412.2C186.343 412.087 186.193 412.057 186.091 412.132C185.989 412.207 185.973 412.359 186.056 412.472Z" fill="#E1CCFF"/>
<path d="M215.486 3.25884C215.591 3.40132 215.792 3.44192 215.921 3.34678C216.05 3.25165 216.071 3.04797 215.967 2.90549C215.862 2.763 215.661 2.72241 215.532 2.81755C215.402 2.91268 215.381 3.11635 215.486 3.25884Z" fill="#E1CCFF"/>
<path d="M214.177 15.9542C214.281 16.0966 214.482 16.1372 214.611 16.0421C214.741 15.947 214.762 15.7433 214.657 15.6008C214.552 15.4583 214.352 15.4177 214.222 15.5129C214.093 15.608 214.072 15.8117 214.177 15.9542Z" fill="#E1CCFF"/>
<path d="M212.566 28.9013C212.806 29.2273 213.24 29.3151 213.536 29.0974C213.832 28.8798 213.878 28.439 213.638 28.113C213.398 27.787 212.964 27.6992 212.668 27.9168C212.372 28.1345 212.326 28.5752 212.566 28.9013Z" fill="#E1CCFF"/>
<path d="M210.9 41.8552C211.297 42.3948 212.016 42.5402 212.506 42.1799C212.996 41.8197 213.071 41.0902 212.674 40.5505C212.277 40.0109 211.558 39.8656 211.069 40.2258C210.579 40.5861 210.503 41.3156 210.9 41.8552Z" fill="#E1CCFF"/>
<path d="M209.591 54.5508C209.979 55.0792 210.683 55.2216 211.163 54.8688C211.643 54.516 211.716 53.8017 211.328 53.2734C210.939 52.745 210.235 52.6026 209.756 52.9554C209.276 53.3082 209.202 54.0225 209.591 54.5508Z" fill="#E1CCFF"/>
<path d="M208.016 67.4709C208.525 68.163 209.462 68.3524 210.09 67.8903C210.718 67.4283 210.817 66.4778 210.308 65.7857C209.799 65.0936 208.862 64.9042 208.234 65.3663C207.606 65.8284 207.507 66.7788 208.016 67.4709Z" fill="#E1CCFF"/>
<path d="M206.355 80.4239C207.029 81.3399 208.233 81.5834 209.064 80.9719C209.896 80.3603 210.022 79.1383 209.348 78.2223C208.675 77.3063 207.471 77.0627 206.639 77.6743C205.808 78.2859 205.681 79.5079 206.355 80.4239Z" fill="#E1CCFF"/>
<path d="M205.15 93.0733C205.763 93.9078 206.901 94.1378 207.658 93.5806C208.416 93.0234 208.535 91.8693 207.921 91.0347C207.307 90.2001 206.17 89.9701 205.413 90.5273C204.655 91.0845 204.536 92.2387 205.15 93.0733Z" fill="#E1CCFF"/>
<path d="M203.617 105.932C204.335 106.909 205.64 107.173 206.527 106.52C207.414 105.868 207.55 104.544 206.832 103.567C206.113 102.59 204.809 102.326 203.922 102.979C203.035 103.631 202.898 104.955 203.617 105.932Z" fill="#E1CCFF"/>
<path d="M202.1 118.811C202.909 119.91 204.381 120.208 205.378 119.474C206.376 118.74 206.531 117.247 205.722 116.147C204.914 115.048 203.442 114.751 202.444 115.484C201.446 116.218 201.292 117.712 202.1 118.811Z" fill="#E1CCFF"/>
<path d="M200.511 131.71C201.445 132.98 203.137 133.322 204.291 132.474C205.444 131.626 205.621 129.909 204.687 128.638C203.753 127.368 202.06 127.026 200.907 127.874C199.754 128.722 199.577 130.439 200.511 131.71Z" fill="#E1CCFF"/>
<path d="M199.341 144.332C200.209 145.513 201.796 145.851 202.887 145.049C203.977 144.247 204.142 142.652 203.258 141.451C202.375 140.25 200.803 139.932 199.713 140.734C198.623 141.536 198.458 143.131 199.341 144.332Z" fill="#E1CCFF"/>
<path d="M197.904 157.121C198.83 158.38 200.507 158.719 201.65 157.879C202.793 157.038 202.969 155.336 202.043 154.077C201.116 152.818 199.439 152.479 198.296 153.319C197.153 154.16 196.977 155.862 197.904 157.121Z" fill="#E1CCFF"/>
<path d="M196.314 170.023C197.362 171.448 199.254 171.813 200.529 170.875C201.804 169.938 202.003 168.003 200.97 166.598C199.937 165.194 198.031 164.808 196.756 165.746C195.481 166.684 195.281 168.618 196.314 170.023Z" fill="#E1CCFF"/>
<path d="M195.202 182.601C196.16 183.904 197.9 184.256 199.082 183.386C200.265 182.516 200.447 180.751 199.489 179.448C198.531 178.146 196.792 177.794 195.609 178.664C194.426 179.533 194.244 181.299 195.202 182.601Z" fill="#E1CCFF"/>
<path d="M193.836 195.339C194.82 196.676 196.602 197.037 197.817 196.144C199.031 195.251 199.218 193.442 198.234 192.104C197.25 190.766 195.468 190.406 194.254 191.299C193.039 192.192 192.852 194.001 193.836 195.339Z" fill="#E1CCFF"/>
<path d="M192.317 208.217C193.395 209.682 195.369 210.081 196.699 209.103C198.029 208.124 198.236 206.122 197.158 204.656C196.08 203.19 194.107 202.791 192.776 203.77C191.446 204.748 191.239 206.751 192.317 208.217Z" fill="#E1CCFF"/>
<path d="M191.025 220.899C192.091 222.349 194.023 222.74 195.34 221.772C196.656 220.803 196.859 218.843 195.792 217.393C194.726 215.942 192.794 215.552 191.477 216.52C190.161 217.488 189.958 219.449 191.025 220.899Z" fill="#E1CCFF"/>
<path d="M189.988 233.424C190.931 234.706 192.652 235.072 193.834 234.202C195.017 233.332 195.196 231.601 194.238 230.298C193.279 228.995 191.574 228.65 190.391 229.52C189.208 230.39 189.03 232.121 189.988 233.424Z" fill="#E1CCFF"/>
<path d="M188.713 246.093C189.639 247.352 191.316 247.691 192.459 246.851C193.602 246.01 193.778 244.308 192.852 243.049C191.926 241.79 190.249 241.45 189.106 242.291C187.963 243.132 187.787 244.834 188.713 246.093Z" fill="#E1CCFF"/>
<path d="M187.236 258.912C188.224 260.255 190.03 260.62 191.25 259.723C192.469 258.826 192.658 256.993 191.67 255.65C190.682 254.306 188.876 253.941 187.656 254.838C186.437 255.735 186.248 257.568 187.236 258.912Z" fill="#E1CCFF"/>
<path d="M186.198 271.438C187.067 272.618 188.654 272.956 189.744 272.155C190.834 271.353 190.999 269.757 190.116 268.556C189.232 267.355 187.66 267.037 186.57 267.839C185.48 268.641 185.315 270.237 186.198 271.438Z" fill="#E1CCFF"/>
<path d="M185.069 283.997C185.863 285.075 187.286 285.346 188.247 284.639C189.208 283.933 189.359 282.473 188.58 281.414C187.802 280.356 186.363 280.065 185.403 280.772C184.442 281.479 184.291 282.938 185.069 283.997Z" fill="#E1CCFF"/>
<path d="M183.626 296.822C184.479 297.982 186.018 298.294 187.071 297.519C188.124 296.744 188.285 295.183 187.432 294.023C186.579 292.862 185.04 292.551 183.987 293.326C182.933 294.1 182.772 295.662 183.626 296.822Z" fill="#E1CCFF"/>
<path d="M182.647 309.273C183.351 310.23 184.622 310.487 185.49 309.848C186.359 309.21 186.492 307.92 185.788 306.963C185.085 306.006 183.814 305.749 182.945 306.388C182.077 307.027 181.944 308.317 182.647 309.273Z" fill="#E1CCFF"/>
<path d="M181.553 321.84C182.156 322.66 183.249 322.881 183.994 322.333C184.739 321.785 184.854 320.676 184.25 319.855C183.647 319.035 182.554 318.814 181.809 319.361C181.064 319.909 180.949 321.019 181.553 321.84Z" fill="#E1CCFF"/>
<path d="M180.482 334.358C180.978 335.033 181.877 335.215 182.489 334.764C183.101 334.314 183.195 333.402 182.699 332.727C182.203 332.053 181.305 331.871 180.692 332.322C180.08 332.772 179.986 333.684 180.482 334.358Z" fill="#E1CCFF"/>
<path d="M179.132 347.115C179.644 347.812 180.573 348 181.205 347.535C181.838 347.07 181.935 346.127 181.423 345.43C180.91 344.733 179.982 344.545 179.349 345.011C178.716 345.476 178.619 346.418 179.132 347.115Z" fill="#E1CCFF"/>
<path d="M178.171 359.553C178.53 360.042 179.165 360.17 179.609 359.844C180.052 359.518 180.119 358.873 179.76 358.384C179.4 357.896 178.765 357.767 178.321 358.093C177.878 358.42 177.811 359.065 178.171 359.553Z" fill="#E1CCFF"/>
<path d="M177.099 372.072C177.339 372.398 177.774 372.486 178.069 372.268C178.365 372.051 178.411 371.61 178.171 371.284C177.931 370.958 177.497 370.87 177.201 371.088C176.905 371.305 176.86 371.746 177.099 372.072Z" fill="#E1CCFF"/>
<path d="M175.802 384.788C176.042 385.114 176.477 385.202 176.772 384.984C177.068 384.767 177.114 384.325 176.874 384C176.635 383.674 176.2 383.586 175.904 383.804C175.608 384.021 175.563 384.462 175.802 384.788Z" fill="#E1CCFF"/>
<path d="M174.843 397.227C174.925 397.339 175.075 397.369 175.177 397.294C175.279 397.219 175.295 397.067 175.212 396.955C175.13 396.842 174.98 396.812 174.878 396.887C174.776 396.962 174.76 397.114 174.843 397.227Z" fill="#E1CCFF"/>
<path d="M201.683 13.4105C201.773 13.5327 201.955 13.5868 202.085 13.4917C202.214 13.3966 202.232 13.2268 202.127 13.0843C202.022 12.9419 201.855 12.908 201.726 13.0032C201.596 13.0983 201.579 13.268 201.683 13.4105Z" fill="#E1CCFF"/>
<path d="M200.353 26.1195C200.443 26.2416 200.625 26.2958 200.755 26.2007C200.884 26.1056 200.902 25.9358 200.797 25.7933C200.692 25.6509 200.525 25.617 200.395 25.7122C200.266 25.8073 200.249 25.977 200.353 26.1195Z" fill="#E1CCFF"/>
<path d="M198.726 39.08C198.966 39.406 199.4 39.4938 199.696 39.2762C199.992 39.0585 200.037 38.6177 199.797 38.2917C199.558 37.9657 199.123 37.8779 198.827 38.0955C198.531 38.3132 198.486 38.7539 198.726 39.08Z" fill="#E1CCFF"/>
<path d="M197.153 51.9681C197.513 52.4567 198.148 52.5852 198.592 52.259C199.035 51.9328 199.102 51.2879 198.742 50.7994C198.383 50.3108 197.748 50.1823 197.304 50.5085C196.861 50.8346 196.794 51.4796 197.153 51.9681Z" fill="#E1CCFF"/>
<path d="M195.843 64.6615C196.202 65.15 196.838 65.2785 197.281 64.9524C197.725 64.6262 197.791 63.9812 197.432 63.4927C197.073 63.0042 196.437 62.8756 195.994 63.2018C195.55 63.528 195.483 64.173 195.843 64.6615Z" fill="#E1CCFF"/>
<path d="M194.231 77.6096C194.71 78.2609 195.595 78.4572 196.205 78.0087C196.815 77.5602 196.906 76.6776 196.412 76.0059C195.918 75.3342 195.048 75.1583 194.438 75.6068C193.828 76.0552 193.737 76.9378 194.231 77.6096Z" fill="#E1CCFF"/>
<path d="M192.737 90.4404C193.305 91.2139 194.342 91.4236 195.044 90.9072C195.747 90.3907 195.855 89.3384 195.286 88.5649C194.718 87.7914 193.681 87.5817 192.978 88.0981C192.276 88.6146 192.168 89.6669 192.737 90.4404Z" fill="#E1CCFF"/>
<path d="M191.532 103.089C192.056 103.801 192.993 103.991 193.64 103.515C194.286 103.039 194.385 102.089 193.861 101.376C193.337 100.664 192.4 100.475 191.753 100.95C191.107 101.426 191.008 102.376 191.532 103.089Z" fill="#E1CCFF"/>
<path d="M189.887 116.03C190.557 116.941 191.77 117.186 192.597 116.578C193.423 115.97 193.55 114.739 192.881 113.829C192.211 112.918 190.998 112.673 190.171 113.281C189.345 113.889 189.218 115.12 189.887 116.03Z" fill="#E1CCFF"/>
<path d="M188.444 128.854C189.177 129.852 190.482 130.116 191.387 129.45C192.293 128.784 192.429 127.46 191.696 126.462C190.962 125.465 189.658 125.201 188.752 125.867C187.847 126.533 187.71 127.857 188.444 128.854Z" fill="#E1CCFF"/>
<path d="M186.948 141.684C187.758 142.786 189.226 143.083 190.226 142.347C191.226 141.612 191.38 140.122 190.569 139.02C189.759 137.919 188.291 137.622 187.291 138.357C186.291 139.093 186.137 140.582 186.948 141.684Z" fill="#E1CCFF"/>
<path d="M185.634 154.415C186.442 155.514 187.914 155.811 188.912 155.078C189.909 154.344 190.064 152.85 189.255 151.751C188.447 150.652 186.975 150.354 185.977 151.088C184.979 151.822 184.825 153.315 185.634 154.415Z" fill="#E1CCFF"/>
<path d="M184.265 167.151C185.103 168.291 186.609 168.595 187.643 167.834C188.678 167.073 188.836 165.546 187.997 164.406C187.159 163.266 185.654 162.961 184.619 163.722C183.584 164.484 183.427 166.011 184.265 167.151Z" fill="#E1CCFF"/>
<path d="M182.862 179.916C183.73 181.097 185.317 181.435 186.408 180.633C187.498 179.831 187.663 178.236 186.779 177.035C185.896 175.834 184.324 175.516 183.234 176.318C182.144 177.12 181.979 178.715 182.862 179.916Z" fill="#E1CCFF"/>
<path d="M181.548 192.646C182.417 193.826 184.004 194.164 185.094 193.363C186.184 192.561 186.349 190.965 185.466 189.764C184.582 188.563 183.01 188.245 181.92 189.047C180.83 189.849 180.665 191.445 181.548 192.646Z" fill="#E1CCFF"/>
<path d="M180.236 205.341C181.105 206.521 182.692 206.86 183.782 206.058C184.872 205.256 185.037 203.661 184.154 202.46C183.27 201.259 181.698 200.941 180.608 201.743C179.518 202.544 179.353 204.14 180.236 205.341Z" fill="#E1CCFF"/>
<path d="M178.938 218.057C179.807 219.237 181.394 219.576 182.484 218.774C183.574 217.972 183.739 216.376 182.856 215.175C181.972 213.975 180.4 213.657 179.31 214.458C178.22 215.26 178.055 216.856 178.938 218.057Z" fill="#E1CCFF"/>
<path d="M177.702 230.699C178.537 231.834 180.049 232.14 181.08 231.382C182.111 230.624 182.269 229.089 181.434 227.954C180.599 226.818 179.087 226.512 178.056 227.27C177.025 228.028 176.867 229.563 177.702 230.699Z" fill="#E1CCFF"/>
<path d="M176.387 243.427C177.222 244.563 178.734 244.869 179.765 244.111C180.796 243.353 180.954 241.818 180.119 240.682C179.284 239.547 177.771 239.241 176.741 239.999C175.71 240.757 175.551 242.292 176.387 243.427Z" fill="#E1CCFF"/>
<path d="M175.186 256.042C175.979 257.12 177.402 257.391 178.363 256.684C179.324 255.978 179.475 254.518 178.696 253.459C177.918 252.401 176.48 252.11 175.519 252.817C174.558 253.523 174.407 254.983 175.186 256.042Z" fill="#E1CCFF"/>
<path d="M173.986 268.656C174.719 269.653 176.024 269.917 176.929 269.251C177.834 268.585 177.971 267.262 177.238 266.264C176.504 265.267 175.2 265.003 174.294 265.669C173.389 266.335 173.252 267.659 173.986 268.656Z" fill="#E1CCFF"/>
<path d="M172.691 281.371C173.424 282.368 174.729 282.632 175.634 281.966C176.54 281.3 176.676 279.976 175.943 278.979C175.209 277.982 173.905 277.718 172.999 278.384C172.094 279.05 171.957 280.374 172.691 281.371Z" fill="#E1CCFF"/>
<path d="M171.526 293.96C172.185 294.855 173.356 295.092 174.169 294.494C174.982 293.896 175.104 292.708 174.446 291.812C173.787 290.917 172.616 290.68 171.803 291.278C170.99 291.876 170.867 293.064 171.526 293.96Z" fill="#E1CCFF"/>
<path d="M170.414 306.54C170.983 307.313 172.02 307.523 172.722 307.007C173.425 306.49 173.533 305.438 172.964 304.665C172.395 303.891 171.359 303.681 170.656 304.198C169.954 304.714 169.846 305.766 170.414 306.54Z" fill="#E1CCFF"/>
<path d="M169.455 318.978C169.874 319.548 170.61 319.696 171.127 319.316C171.645 318.935 171.722 318.189 171.303 317.619C170.883 317.049 170.147 316.9 169.63 317.28C169.113 317.661 169.036 318.408 169.455 318.978Z" fill="#E1CCFF"/>
<path d="M168.028 331.788C168.491 332.418 169.33 332.587 169.901 332.167C170.473 331.747 170.56 330.896 170.097 330.266C169.634 329.637 168.796 329.467 168.224 329.887C167.653 330.308 167.565 331.159 168.028 331.788Z" fill="#E1CCFF"/>
<path d="M166.956 344.307C167.315 344.796 167.951 344.924 168.394 344.598C168.838 344.272 168.904 343.627 168.545 343.138C168.186 342.65 167.55 342.521 167.107 342.847C166.663 343.174 166.596 343.818 166.956 344.307Z" fill="#E1CCFF"/>
<path d="M165.991 356.778C166.201 357.063 166.569 357.138 166.827 356.948C167.086 356.757 167.125 356.384 166.915 356.099C166.705 355.814 166.338 355.74 166.079 355.93C165.82 356.12 165.782 356.494 165.991 356.778Z" fill="#E1CCFF"/>
<path d="M164.662 369.489C164.871 369.774 165.239 369.849 165.498 369.659C165.757 369.468 165.795 369.095 165.586 368.81C165.376 368.525 165.008 368.451 164.749 368.641C164.491 368.831 164.452 369.204 164.662 369.489Z" fill="#E1CCFF"/>
<path d="M163.61 381.992C163.7 382.114 163.852 382.128 163.945 382.06C164.037 381.992 164.055 381.822 163.98 381.72C163.905 381.619 163.738 381.585 163.645 381.653C163.553 381.721 163.535 381.89 163.61 381.992Z" fill="#E1CCFF"/>
<path d="M187.861 23.5752C187.951 23.6973 188.103 23.7108 188.196 23.6429C188.288 23.5749 188.306 23.4052 188.231 23.3034C188.156 23.2016 187.989 23.1678 187.896 23.2358C187.804 23.3037 187.786 23.4734 187.861 23.5752Z" fill="#E1CCFF"/>
<path d="M186.624 36.2192C186.624 36.2192 186.769 36.3008 186.825 36.2601C186.88 36.2193 186.89 36.1174 186.845 36.0562C186.8 35.995 186.7 35.9746 186.645 36.0153C186.589 36.0561 186.579 36.158 186.624 36.2192Z" fill="#E1CCFF"/>
<path d="M184.976 49.1926C185.186 49.4775 185.554 49.5519 185.813 49.3617C186.071 49.1714 186.11 48.798 185.9 48.513C185.691 48.2281 185.323 48.1536 185.064 48.3439C184.805 48.5342 184.767 48.9076 184.976 49.1926Z" fill="#E1CCFF"/>
<path d="M183.406 62.0781C183.721 62.5056 184.289 62.6206 184.677 62.3352C185.065 62.0498 185.125 61.4727 184.811 61.0452C184.496 60.6178 183.928 60.5028 183.54 60.7882C183.152 61.0736 183.092 61.6506 183.406 62.0781Z" fill="#E1CCFF"/>
<path d="M182.189 74.706C182.458 75.0724 182.926 75.1671 183.259 74.9224C183.592 74.6778 183.641 74.2026 183.371 73.8362C183.102 73.4698 182.633 73.3751 182.301 73.6197C181.968 73.8643 181.919 74.3396 182.189 74.706Z" fill="#E1CCFF"/>
<path d="M180.669 87.585C181.033 88.0796 181.692 88.2129 182.141 87.8826C182.59 87.5524 182.659 86.8837 182.295 86.389C181.932 85.8944 181.273 85.7611 180.824 86.0914C180.375 86.4216 180.306 87.0903 180.669 87.585Z" fill="#E1CCFF"/>
<path d="M179.008 100.538C179.529 101.246 180.472 101.437 181.115 100.964C181.758 100.491 181.857 99.5338 181.336 98.8256C180.815 98.1174 179.872 97.9265 179.229 98.3994C178.586 98.8723 178.487 99.8297 179.008 100.538Z" fill="#E1CCFF"/>
<path d="M177.839 113.159C178.303 113.79 179.139 113.959 179.712 113.538C180.285 113.117 180.372 112.268 179.908 111.637C179.444 111.006 178.608 110.837 178.035 111.258C177.462 111.68 177.375 112.528 177.839 113.159Z" fill="#E1CCFF"/>
<path d="M176.381 125.964C176.902 126.672 177.845 126.863 178.488 126.39C179.131 125.917 179.23 124.96 178.709 124.251C178.188 123.543 177.245 123.352 176.602 123.825C175.959 124.298 175.86 125.256 176.381 125.964Z" fill="#E1CCFF"/>
<path d="M174.752 138.924C175.422 139.835 176.635 140.08 177.461 139.472C178.288 138.864 178.415 137.633 177.745 136.722C177.076 135.812 175.863 135.566 175.036 136.174C174.209 136.782 174.082 138.013 174.752 138.924Z" fill="#E1CCFF"/>
<path d="M173.312 151.716C174.031 152.693 175.335 152.957 176.222 152.304C177.109 151.652 177.246 150.328 176.527 149.351C175.808 148.374 174.504 148.11 173.617 148.763C172.73 149.415 172.593 150.739 173.312 151.716Z" fill="#E1CCFF"/>
<path d="M172.235 164.269C172.849 165.103 173.986 165.333 174.744 164.776C175.501 164.219 175.621 163.065 175.007 162.23C174.393 161.395 173.256 161.165 172.498 161.723C171.741 162.28 171.621 163.434 172.235 164.269Z" fill="#E1CCFF"/>
<path d="M170.611 177.195C171.36 178.213 172.731 178.49 173.655 177.811C174.579 177.131 174.723 175.739 173.974 174.722C173.225 173.704 171.854 173.427 170.93 174.106C170.006 174.786 169.862 176.177 170.611 177.195Z" fill="#E1CCFF"/>
<path d="M169.263 189.918C170.032 190.964 171.425 191.245 172.374 190.547C173.323 189.849 173.469 188.436 172.7 187.39C171.931 186.345 170.538 186.063 169.589 186.761C168.64 187.459 168.494 188.873 169.263 189.918Z" fill="#E1CCFF"/>
<path d="M168.186 202.473C168.86 203.389 170.064 203.632 170.896 203.021C171.727 202.409 171.853 201.187 171.18 200.271C170.506 199.355 169.302 199.112 168.47 199.723C167.639 200.335 167.513 201.557 168.186 202.473Z" fill="#E1CCFF"/>
<path d="M166.894 215.153C167.553 216.049 168.742 216.272 169.537 215.687C170.331 215.103 170.473 213.901 169.814 213.006C169.155 212.11 167.984 211.873 167.171 212.471C166.358 213.069 166.236 214.257 166.894 215.153Z" fill="#E1CCFF"/>
<path d="M165.358 228.045C166.111 229.068 167.473 229.343 168.402 228.66C169.331 227.977 169.473 226.594 168.721 225.571C167.969 224.548 166.606 224.273 165.677 224.956C164.749 225.639 164.606 227.022 165.358 228.045Z" fill="#E1CCFF"/>
<path d="M164.158 240.659C164.862 241.616 166.133 241.873 167.002 241.234C167.87 240.595 168.003 239.305 167.3 238.349C166.596 237.392 165.325 237.135 164.456 237.774C163.588 238.412 163.455 239.702 164.158 240.659Z" fill="#E1CCFF"/>
<path d="M163.102 253.199C163.701 254.013 164.771 254.23 165.511 253.686C166.25 253.143 166.362 252.056 165.763 251.242C165.164 250.428 164.094 250.212 163.355 250.755C162.616 251.299 162.503 252.385 163.102 253.199Z" fill="#E1CCFF"/>
<path d="M161.606 266.031C162.276 266.942 163.489 267.187 164.315 266.579C165.142 265.971 165.269 264.74 164.599 263.83C163.929 262.919 162.716 262.674 161.89 263.282C161.063 263.89 160.936 265.121 161.606 266.031Z" fill="#E1CCFF"/>
<path d="M160.46 278.604C161.059 279.419 162.13 279.635 162.869 279.092C163.608 278.548 163.72 277.462 163.121 276.647C162.522 275.833 161.452 275.617 160.713 276.16C159.974 276.704 159.861 277.79 160.46 278.604Z" fill="#E1CCFF"/>
<path d="M159.441 291.117C159.906 291.748 160.742 291.917 161.315 291.496C161.887 291.075 161.975 290.226 161.511 289.595C161.047 288.964 160.211 288.795 159.638 289.216C159.065 289.638 158.977 290.486 159.441 291.117Z" fill="#E1CCFF"/>
<path d="M158.368 303.635C158.727 304.124 159.363 304.252 159.806 303.926C160.25 303.6 160.316 302.955 159.957 302.466C159.598 301.978 158.962 301.849 158.519 302.175C158.075 302.502 158.009 303.147 158.368 303.635Z" fill="#E1CCFF"/>
<path d="M156.925 316.46C157.345 317.03 158.081 317.179 158.598 316.798C159.115 316.418 159.192 315.671 158.773 315.101C158.354 314.531 157.618 314.382 157.101 314.763C156.583 315.143 156.506 315.89 156.925 316.46Z" fill="#E1CCFF"/>
<path d="M155.966 328.898C156.22 329.244 156.689 329.338 157.003 329.107C157.317 328.876 157.366 328.401 157.111 328.055C156.857 327.709 156.389 327.614 156.074 327.845C155.76 328.076 155.711 328.552 155.966 328.898Z" fill="#E1CCFF"/>
<path d="M154.909 341.437C155.059 341.641 155.327 341.695 155.512 341.559C155.696 341.423 155.724 341.151 155.575 340.948C155.425 340.744 155.157 340.69 154.973 340.826C154.788 340.962 154.76 341.233 154.909 341.437Z" fill="#E1CCFF"/>
<path d="M153.487 354.214C153.681 354.478 154.034 354.532 154.256 354.369C154.478 354.206 154.516 353.833 154.337 353.589C154.157 353.344 153.789 353.27 153.567 353.433C153.345 353.596 153.307 353.969 153.487 354.214Z" fill="#E1CCFF"/>
<path d="M152.504 366.7C152.504 366.7 152.649 366.781 152.705 366.741C152.76 366.7 152.77 366.598 152.725 366.537C152.68 366.475 152.58 366.455 152.525 366.496C152.469 366.537 152.459 366.638 152.504 366.7Z" fill="#E1CCFF"/>
<path d="M174.116 33.687C174.116 33.687 174.261 33.7686 174.317 33.7278C174.372 33.6871 174.383 33.5852 174.338 33.524C174.293 33.4628 174.192 33.4424 174.137 33.4831C174.081 33.5239 174.071 33.6258 174.116 33.687Z" fill="#E1CCFF"/>
<path d="M172.879 46.3271C172.879 46.3271 172.894 46.3479 172.912 46.3345C172.93 46.3211 172.93 46.3211 172.915 46.3003C172.9 46.2795 172.9 46.2795 172.882 46.293C172.863 46.3064 172.863 46.3064 172.879 46.3271Z" fill="#E1CCFF"/>
<path d="M171.302 59.2491C171.437 59.4323 171.671 59.4797 171.837 59.3573C172.004 59.235 172.028 58.9974 171.893 58.8142C171.759 58.631 171.524 58.5837 171.358 58.706C171.192 58.8283 171.167 59.0659 171.302 59.2491Z" fill="#E1CCFF"/>
<path d="M169.733 72.1356C169.972 72.4616 170.407 72.5495 170.703 72.3318C170.999 72.1141 171.044 71.6734 170.804 71.3474C170.564 71.0214 170.13 70.9335 169.834 71.1512C169.538 71.3689 169.493 71.8096 169.733 72.1356Z" fill="#E1CCFF"/>
<path d="M168.403 84.8446C168.643 85.1703 169.078 85.2582 169.373 85.0408C169.669 84.8234 169.715 84.3821 169.475 84.0564C169.236 83.7307 168.801 83.6427 168.505 83.8602C168.21 84.0776 168.164 84.5189 168.403 84.8446Z" fill="#E1CCFF"/>
<path d="M166.941 97.6826C167.255 98.1098 167.824 98.2249 168.212 97.9397C168.6 97.6544 168.659 97.0769 168.345 96.6497C168.031 96.2225 167.462 96.1074 167.074 96.3927C166.686 96.6779 166.627 97.2554 166.941 97.6826Z" fill="#E1CCFF"/>
<path d="M165.445 110.512C165.849 111.062 166.57 111.191 167.051 110.837C167.531 110.484 167.608 109.737 167.219 109.208C166.83 108.679 166.094 108.53 165.614 108.883C165.133 109.236 165.056 109.983 165.445 110.512Z" fill="#E1CCFF"/>
<path d="M164.131 123.243C164.536 123.793 165.256 123.921 165.737 123.568C166.217 123.214 166.294 122.467 165.905 121.938C165.516 121.409 164.78 121.26 164.3 121.614C163.819 121.967 163.742 122.714 164.131 123.243Z" fill="#E1CCFF"/>
<path d="M162.671 136.047C163.135 136.678 163.972 136.847 164.544 136.426C165.117 136.005 165.205 135.156 164.741 134.525C164.277 133.894 163.44 133.725 162.868 134.146C162.295 134.567 162.207 135.416 162.671 136.047Z" fill="#E1CCFF"/>
<path d="M161.282 148.831C161.776 149.503 162.679 149.685 163.289 149.237C163.899 148.788 163.994 147.872 163.5 147.2C163.006 146.528 162.102 146.346 161.493 146.794C160.883 147.243 160.788 148.159 161.282 148.831Z" fill="#E1CCFF"/>
<path d="M159.692 161.731C160.313 162.575 161.436 162.802 162.201 162.239C162.967 161.676 163.084 160.536 162.464 159.693C161.844 158.85 160.721 158.623 159.955 159.186C159.19 159.748 159.072 160.888 159.692 161.731Z" fill="#E1CCFF"/>
<path d="M158.565 174.325C159.104 175.058 160.107 175.261 160.773 174.772C161.438 174.282 161.543 173.264 161.004 172.531C160.465 171.798 159.462 171.595 158.796 172.085C158.131 172.574 158.026 173.592 158.565 174.325Z" fill="#E1CCFF"/>
<path d="M157.215 187.048C157.769 187.801 158.787 188.025 159.489 187.508C160.191 186.992 160.297 185.973 159.728 185.2C159.159 184.426 158.155 184.223 157.453 184.74C156.751 185.256 156.646 186.275 157.215 187.048Z" fill="#E1CCFF"/>
<path d="M155.885 199.758C156.439 200.511 157.457 200.735 158.159 200.218C158.861 199.702 158.967 198.683 158.398 197.91C157.829 197.136 156.825 196.933 156.123 197.45C155.421 197.966 155.316 198.985 155.885 199.758Z" fill="#E1CCFF"/>
<path d="M154.59 212.473C155.144 213.226 156.162 213.449 156.864 212.933C157.566 212.417 157.672 211.398 157.103 210.625C156.534 209.851 155.53 209.648 154.828 210.165C154.126 210.681 154.021 211.699 154.59 212.473Z" fill="#E1CCFF"/>
<path d="M153.35 225.116C153.871 225.824 154.814 226.015 155.457 225.542C156.1 225.069 156.199 224.112 155.678 223.404C155.157 222.695 154.214 222.505 153.571 222.978C152.928 223.45 152.829 224.408 153.35 225.116Z" fill="#E1CCFF"/>
<path d="M152.091 237.803C152.585 238.474 153.489 238.657 154.098 238.209C154.708 237.76 154.803 236.843 154.309 236.172C153.815 235.5 152.911 235.317 152.302 235.766C151.692 236.214 151.597 237.131 152.091 237.803Z" fill="#E1CCFF"/>
<path d="M150.558 250.662C151.154 251.472 152.232 251.69 152.967 251.149C153.702 250.609 153.815 249.514 153.219 248.705C152.624 247.896 151.546 247.678 150.811 248.218C150.076 248.758 149.963 249.853 150.558 250.662Z" fill="#E1CCFF"/>
<path d="M149.576 263.148C150.025 263.759 150.827 263.921 151.382 263.514C151.936 263.106 152.02 262.291 151.571 261.68C151.122 261.07 150.319 260.907 149.765 261.315C149.211 261.723 149.126 262.538 149.576 263.148Z" fill="#E1CCFF"/>
<path d="M148.393 275.748C148.782 276.277 149.485 276.419 149.965 276.066C150.446 275.713 150.519 275 150.13 274.471C149.741 273.941 149.038 273.799 148.558 274.153C148.077 274.506 148.004 275.219 148.393 275.748Z" fill="#E1CCFF"/>
<path d="M147.268 288.308C147.574 288.724 148.128 288.836 148.506 288.558C148.883 288.281 148.941 287.718 148.635 287.302C148.329 286.886 147.775 286.774 147.398 287.052C147.02 287.33 146.962 287.892 147.268 288.308Z" fill="#E1CCFF"/>
<path d="M145.971 301.025C146.27 301.432 146.82 301.56 147.208 301.275C147.596 300.99 147.653 300.446 147.338 300.019C147.024 299.592 146.489 299.483 146.1 299.769C145.712 300.054 145.656 300.597 145.971 301.025Z" fill="#E1CCFF"/>
<path d="M144.844 313.585C145.069 313.89 145.455 313.951 145.714 313.761C145.973 313.57 146.015 313.163 145.805 312.878C145.596 312.593 145.194 312.512 144.936 312.702C144.677 312.893 144.635 313.3 144.844 313.585Z" fill="#E1CCFF"/>
<path d="M143.714 326.177C143.849 326.36 144.083 326.407 144.25 326.285C144.416 326.163 144.44 325.925 144.306 325.742C144.171 325.559 143.937 325.511 143.771 325.634C143.604 325.756 143.58 325.994 143.714 326.177Z" fill="#E1CCFF"/>
<path d="M142.403 338.874C142.538 339.057 142.772 339.105 142.938 338.982C143.104 338.86 143.129 338.622 142.994 338.439C142.859 338.256 142.625 338.209 142.459 338.331C142.293 338.453 142.268 338.691 142.403 338.874Z" fill="#E1CCFF"/>
<path d="M141.384 351.385C141.393 351.396 141.408 351.4 141.418 351.392C141.428 351.385 141.429 351.369 141.421 351.358C141.412 351.346 141.397 351.343 141.387 351.351C141.377 351.358 141.376 351.373 141.384 351.385Z" fill="#E1CCFF"/>
<path d="M157.574 69.3467C157.656 69.4591 157.806 69.4894 157.908 69.4144C158.01 69.3393 158.026 69.1873 157.943 69.0749C157.86 68.9625 157.711 68.9322 157.609 69.0072C157.507 69.0823 157.491 69.2343 157.574 69.3467Z" fill="#E1CCFF"/>
<path d="M156.024 82.2189C156.206 82.4662 156.535 82.5328 156.76 82.3677C156.984 82.2026 157.019 81.8682 156.837 81.6209C156.655 81.3736 156.325 81.307 156.101 81.4721C155.876 81.6372 155.842 81.9716 156.024 82.2189Z" fill="#E1CCFF"/>
<path d="M154.822 94.8321C154.954 95.012 155.194 95.0604 155.357 94.9403C155.521 94.8203 155.546 94.5771 155.413 94.3972C155.281 94.2173 155.041 94.1689 154.878 94.289C154.715 94.4091 154.69 94.6522 154.822 94.8321Z" fill="#E1CCFF"/>
<path d="M153.25 107.752C153.504 108.098 153.972 108.193 154.287 107.962C154.601 107.731 154.65 107.256 154.395 106.91C154.141 106.564 153.672 106.469 153.358 106.7C153.044 106.931 152.995 107.406 153.25 107.752Z" fill="#E1CCFF"/>
<path d="M151.79 120.558C152.104 120.985 152.673 121.1 153.061 120.815C153.449 120.529 153.508 119.952 153.194 119.525C152.88 119.097 152.311 118.982 151.923 119.268C151.535 119.553 151.475 120.13 151.79 120.558Z" fill="#E1CCFF"/>
<path d="M150.64 133.165C150.879 133.491 151.314 133.579 151.61 133.361C151.905 133.144 151.951 132.702 151.712 132.377C151.472 132.051 151.037 131.963 150.742 132.18C150.446 132.398 150.4 132.839 150.64 133.165Z" fill="#E1CCFF"/>
<path d="M149.053 146.064C149.412 146.553 150.081 146.688 150.524 146.362C150.968 146.036 151.038 145.357 150.679 144.869C150.319 144.38 149.65 144.245 149.207 144.571C148.764 144.897 148.693 145.576 149.053 146.064Z" fill="#E1CCFF"/>
<path d="M147.646 158.862C148.065 159.432 148.801 159.581 149.318 159.201C149.836 158.82 149.913 158.073 149.494 157.503C149.074 156.933 148.339 156.785 147.821 157.165C147.304 157.546 147.227 158.292 147.646 158.862Z" fill="#E1CCFF"/>
<path d="M146.259 171.612C146.693 172.203 147.496 172.365 148.032 171.971C148.568 171.577 148.652 170.762 148.218 170.172C147.784 169.582 146.981 169.419 146.445 169.813C145.909 170.207 145.825 171.022 146.259 171.612Z" fill="#E1CCFF"/>
<path d="M145.186 184.165C145.53 184.633 146.132 184.755 146.557 184.442C146.982 184.13 147.045 183.519 146.701 183.051C146.357 182.582 145.755 182.461 145.33 182.773C144.905 183.086 144.841 183.697 145.186 184.165Z" fill="#E1CCFF"/>
<path d="M143.616 197.051C144.063 197.658 144.871 197.821 145.422 197.416C145.973 197.011 146.058 196.19 145.612 195.583C145.165 194.976 144.356 194.812 143.805 195.218C143.254 195.623 143.17 196.444 143.616 197.051Z" fill="#E1CCFF"/>
<path d="M142.323 209.733C142.757 210.323 143.56 210.485 144.095 210.091C144.631 209.697 144.715 208.882 144.281 208.292C143.847 207.702 143.044 207.539 142.508 207.933C141.973 208.328 141.888 209.142 142.323 209.733Z" fill="#E1CCFF"/>
<path d="M141.284 222.258C141.598 222.685 142.167 222.8 142.555 222.515C142.943 222.229 143.003 221.652 142.688 221.225C142.374 220.797 141.805 220.682 141.417 220.968C141.029 221.253 140.97 221.83 141.284 222.258Z" fill="#E1CCFF"/>
<path d="M139.788 235.09C140.192 235.639 140.913 235.768 141.394 235.414C141.874 235.061 141.951 234.314 141.562 233.785C141.173 233.256 140.437 233.107 139.957 233.46C139.476 233.814 139.399 234.56 139.788 235.09Z" fill="#E1CCFF"/>
<path d="M138.566 247.752C138.929 248.247 139.588 248.38 140.037 248.05C140.486 247.719 140.556 247.051 140.192 246.556C139.828 246.061 139.169 245.928 138.72 246.258C138.271 246.589 138.202 247.257 138.566 247.752Z" fill="#E1CCFF"/>
<path d="M137.346 260.379C137.66 260.806 138.23 260.921 138.617 260.636C139.005 260.351 139.065 259.773 138.751 259.346C138.436 258.919 137.867 258.804 137.479 259.089C137.092 259.374 137.032 259.952 137.346 260.379Z" fill="#E1CCFF"/>
<path d="M136.346 272.878C136.525 273.122 136.86 273.19 137.082 273.027C137.303 272.864 137.338 272.524 137.159 272.28C136.979 272.036 136.645 271.968 136.423 272.131C136.201 272.294 136.166 272.634 136.346 272.878Z" fill="#E1CCFF"/>
<path d="M134.886 285.682C135.126 286.009 135.56 286.096 135.856 285.879C136.152 285.661 136.197 285.22 135.958 284.894C135.718 284.568 135.284 284.48 134.988 284.698C134.692 284.916 134.646 285.356 134.886 285.682Z" fill="#E1CCFF"/>
<path d="M133.761 298.242C133.918 298.456 134.202 298.513 134.396 298.371C134.59 298.228 134.62 297.939 134.463 297.726C134.306 297.512 134.021 297.455 133.827 297.597C133.633 297.74 133.604 298.029 133.761 298.242Z" fill="#E1CCFF"/>
<path d="M132.777 310.729C132.777 310.729 132.793 310.749 132.811 310.736C132.829 310.722 132.829 310.722 132.814 310.702C132.799 310.681 132.799 310.681 132.78 310.694C132.762 310.708 132.762 310.708 132.777 310.729Z" fill="#E1CCFF"/>
<path d="M131.356 323.504C131.356 323.504 131.516 323.606 131.589 323.551C131.663 323.497 131.674 323.395 131.614 323.314C131.554 323.233 131.454 323.213 131.38 323.267C131.306 323.321 131.296 323.423 131.356 323.504Z" fill="#E1CCFF"/>
<path d="M142.294 92.3165C142.429 92.4997 142.663 92.547 142.829 92.4247C142.996 92.3024 143.02 92.0648 142.886 91.8816C142.751 91.6984 142.517 91.651 142.35 91.7733C142.184 91.8957 142.16 92.1333 142.294 92.3165Z" fill="#E1CCFF"/>
<path d="M141.169 104.876C141.169 104.876 141.315 104.958 141.37 104.917C141.425 104.877 141.436 104.775 141.391 104.713C141.346 104.652 141.245 104.632 141.19 104.673C141.135 104.713 141.124 104.815 141.169 104.876Z" fill="#E1CCFF"/>
<path d="M139.723 117.702C139.827 117.845 140.028 117.885 140.157 117.79C140.287 117.695 140.308 117.491 140.203 117.349C140.098 117.206 139.897 117.166 139.768 117.261C139.639 117.356 139.618 117.56 139.723 117.702Z" fill="#E1CCFF"/>
<path d="M138.115 130.614C138.354 130.94 138.789 131.028 139.085 130.81C139.38 130.593 139.426 130.152 139.186 129.826C138.947 129.5 138.512 129.412 138.216 129.63C137.921 129.847 137.875 130.288 138.115 130.614Z" fill="#E1CCFF"/>
<path d="M137.003 143.194C137.168 143.418 137.454 143.459 137.638 143.323C137.823 143.187 137.855 142.882 137.705 142.678C137.555 142.474 137.254 142.414 137.07 142.549C136.885 142.685 136.853 142.991 137.003 143.194Z" fill="#E1CCFF"/>
<path d="M135.601 155.958C135.795 156.222 136.148 156.277 136.37 156.113C136.592 155.95 136.63 155.577 136.451 155.333C136.271 155.088 135.903 155.014 135.681 155.177C135.46 155.34 135.421 155.714 135.601 155.958Z" fill="#E1CCFF"/>
<path d="M134.249 168.715C134.464 169.007 134.853 169.086 135.119 168.891C135.384 168.695 135.425 168.3 135.21 168.008C134.995 167.716 134.605 167.637 134.34 167.832C134.075 168.027 134.034 168.422 134.249 168.715Z" fill="#E1CCFF"/>
<path d="M132.642 181.628C132.986 182.096 133.588 182.218 134.013 181.905C134.438 181.593 134.501 180.982 134.157 180.514C133.813 180.045 133.211 179.924 132.786 180.236C132.361 180.549 132.298 181.16 132.642 181.628Z" fill="#E1CCFF"/>
<path d="M131.622 194.14C131.846 194.446 132.233 194.507 132.491 194.316C132.75 194.126 132.792 193.719 132.583 193.434C132.373 193.149 131.972 193.068 131.713 193.258C131.454 193.448 131.412 193.855 131.622 194.14Z" fill="#E1CCFF"/>
<path d="M130.29 206.849C130.515 207.155 130.901 207.216 131.16 207.025C131.419 206.835 131.461 206.428 131.251 206.143C131.042 205.858 130.64 205.777 130.382 205.967C130.123 206.157 130.081 206.564 130.29 206.849Z" fill="#E1CCFF"/>
<path d="M128.76 219.708C129.074 220.135 129.643 220.25 130.031 219.965C130.419 219.68 130.479 219.103 130.164 218.675C129.85 218.248 129.281 218.133 128.893 218.418C128.505 218.703 128.445 219.281 128.76 219.708Z" fill="#E1CCFF"/>
<path d="M127.721 232.234C127.916 232.499 128.269 232.553 128.49 232.39C128.712 232.227 128.751 231.853 128.571 231.609C128.391 231.365 128.024 231.29 127.802 231.453C127.58 231.617 127.542 231.99 127.721 232.234Z" fill="#E1CCFF"/>
<path d="M126.503 244.861C126.652 245.063 126.922 245.118 127.106 244.983C127.289 244.847 127.317 244.574 127.169 244.372C127.02 244.169 126.75 244.115 126.567 244.25C126.383 244.385 126.355 244.658 126.503 244.861Z" fill="#E1CCFF"/>
<path d="M125.299 257.51C125.404 257.652 125.604 257.693 125.734 257.598C125.863 257.503 125.884 257.299 125.779 257.156C125.675 257.014 125.474 256.973 125.345 257.069C125.215 257.164 125.194 257.367 125.299 257.51Z" fill="#E1CCFF"/>
<path d="M123.802 270.342C123.982 270.586 124.316 270.654 124.538 270.491C124.76 270.328 124.795 269.988 124.615 269.744C124.436 269.5 124.101 269.432 123.879 269.595C123.658 269.758 123.623 270.098 123.802 270.342Z" fill="#E1CCFF"/>
<path d="M122.839 282.814C122.839 282.814 122.936 282.868 122.973 282.841C123.01 282.814 123.017 282.746 122.987 282.705C122.957 282.664 122.89 282.65 122.853 282.678C122.816 282.705 122.809 282.773 122.839 282.814Z" fill="#E1CCFF"/>
<path d="M120.255 308.177C120.255 308.177 120.27 308.198 120.289 308.184C120.307 308.171 120.307 308.171 120.292 308.15C120.276 308.129 120.276 308.129 120.258 308.143C120.24 308.156 120.24 308.156 120.255 308.177Z" fill="#E1CCFF"/>
<path d="M126.106 127.716C126.106 127.716 126.122 127.737 126.14 127.723C126.158 127.71 126.158 127.71 126.143 127.689C126.127 127.668 126.127 127.668 126.109 127.682C126.091 127.695 126.091 127.695 126.106 127.716Z" fill="#E1CCFF"/>
<path d="M124.682 140.494C124.682 140.494 124.842 140.596 124.915 140.542C124.989 140.487 125 140.386 124.94 140.305C124.88 140.223 124.78 140.203 124.706 140.257C124.633 140.312 124.622 140.413 124.682 140.494Z" fill="#E1CCFF"/>
<path d="M121.982 165.974C122.072 166.096 122.254 166.15 122.384 166.055C122.513 165.96 122.531 165.79 122.426 165.648C122.321 165.505 122.154 165.472 122.024 165.567C121.895 165.662 121.877 165.832 121.982 165.974Z" fill="#E1CCFF"/>
<path d="M120.649 178.718C120.754 178.86 120.954 178.901 121.084 178.806C121.213 178.711 121.234 178.507 121.129 178.364C121.025 178.222 120.824 178.181 120.695 178.277C120.565 178.372 120.544 178.575 120.649 178.718Z" fill="#E1CCFF"/>
<path d="M119.318 191.426C119.423 191.568 119.624 191.609 119.753 191.514C119.883 191.419 119.904 191.215 119.799 191.072C119.694 190.93 119.493 190.889 119.364 190.985C119.235 191.08 119.214 191.283 119.318 191.426Z" fill="#E1CCFF"/>
<path d="M118.023 204.143C118.128 204.285 118.329 204.326 118.458 204.231C118.587 204.135 118.608 203.932 118.503 203.789C118.399 203.647 118.198 203.606 118.069 203.701C117.939 203.796 117.918 204 118.023 204.143Z" fill="#E1CCFF"/>
<path d="M116.731 216.825C116.83 216.959 117.01 216.996 117.132 216.906C117.255 216.816 117.274 216.633 117.175 216.498C117.075 216.364 116.896 216.327 116.773 216.417C116.651 216.507 116.632 216.69 116.731 216.825Z" fill="#E1CCFF"/>
<path d="M115.491 229.465C115.491 229.465 115.651 229.567 115.725 229.512C115.799 229.458 115.809 229.356 115.749 229.275C115.69 229.194 115.589 229.174 115.516 229.228C115.442 229.282 115.431 229.384 115.491 229.465Z" fill="#E1CCFF"/>
<path d="M112.977 254.81C112.977 254.81 112.992 254.83 113.011 254.817C113.029 254.804 113.029 254.804 113.014 254.783C112.998 254.762 112.998 254.762 112.98 254.775C112.962 254.789 112.962 254.789 112.977 254.81Z" fill="#E1CCFF"/>
</g>
</svg>
