<svg width="341" height="411" viewBox="0 0 341 411" fill="none" xmlns="http://www.w3.org/2000/svg">
<g style="mix-blend-mode:multiply" opacity="0.5">
<path d="M44.0618 383.433C40.2042 385.683 38.7326 390.346 40.7748 393.847C42.8171 397.349 47.5998 398.364 51.4574 396.114C55.3149 393.865 56.7866 389.202 54.7444 385.7C52.7021 382.199 47.9194 381.184 44.0618 383.433Z" fill="#E1CCFF"/>
<path d="M31.7173 381.074C28.0285 383.225 26.6431 387.671 28.5845 391C30.5258 394.329 35.0992 395.299 38.7662 393.161C42.4332 391.022 43.8405 386.564 41.8991 383.235C39.9578 379.906 35.3843 378.936 31.7173 381.074Z" fill="#E1CCFF"/>
<path d="M60.3078 373.722C56.3417 376.036 54.8287 380.829 56.9284 384.429C59.028 388.03 63.9453 389.073 67.9113 386.76C71.8774 384.447 73.3904 379.653 71.2907 376.053C69.1911 372.453 64.2738 371.409 60.3078 373.722Z" fill="#E1CCFF"/>
<path d="M47.9623 371.362C44.1644 373.577 42.7379 378.153 44.737 381.581C46.7361 385.009 51.4431 386.008 55.2192 383.805C58.9953 381.603 60.4437 377.015 58.4445 373.587C56.4454 370.159 51.7384 369.16 47.9623 371.362Z" fill="#E1CCFF"/>
<path d="M35.4765 368.713C31.6785 370.928 30.252 375.504 32.2511 378.932C34.2503 382.359 38.9572 383.358 42.7334 381.156C46.5095 378.954 47.9578 374.365 45.9587 370.937C43.9596 367.51 39.2526 366.511 35.4765 368.713Z" fill="#E1CCFF"/>
<path d="M23.13 366.354C19.5285 368.455 18.1303 372.828 20.0485 376.117C21.9667 379.406 26.44 380.356 30.0634 378.243C33.6867 376.129 35.0631 371.769 33.1449 368.479C31.2267 365.19 26.7534 364.241 23.13 366.354Z" fill="#E1CCFF"/>
<path d="M76.633 364.149C72.6604 366.466 71.1402 371.282 73.2433 374.888C75.3464 378.494 80.2871 379.543 84.2596 377.226C88.2322 374.909 89.7524 370.093 87.6493 366.487C85.5462 362.88 80.6055 361.832 76.633 364.149Z" fill="#E1CCFF"/>
<path d="M64.1941 361.63C60.287 363.909 58.7757 368.64 60.8557 372.207C62.9357 375.773 67.7763 376.8 71.7052 374.509C75.6341 372.218 77.1235 367.499 75.0435 363.932C72.9635 360.366 68.123 359.339 64.1941 361.63Z" fill="#E1CCFF"/>
<path d="M51.7562 359.059C47.8986 361.309 46.427 365.972 48.4692 369.473C50.5114 372.975 55.2942 373.99 59.1517 371.74C63.0093 369.491 64.4809 364.828 62.4387 361.326C60.3965 357.825 55.6137 356.81 51.7562 359.059Z" fill="#E1CCFF"/>
<path d="M39.4097 356.701C35.7209 358.852 34.3355 363.298 36.2768 366.627C38.2182 369.956 42.7916 370.926 46.4586 368.788C50.1256 366.649 51.5328 362.191 49.5915 358.862C47.6502 355.533 43.0767 354.562 39.4097 356.701Z" fill="#E1CCFF"/>
<path d="M27.0412 354.248C23.4834 356.323 22.1275 360.619 24.011 363.849C25.8946 367.078 30.3011 368.014 33.859 365.939C37.4169 363.864 38.7728 359.568 36.8892 356.338C35.0056 353.109 30.5991 352.173 27.0412 354.248Z" fill="#E1CCFF"/>
<path d="M14.5902 351.711C11.0978 353.747 9.78429 357.965 11.6216 361.116C13.459 364.266 17.7987 365.187 21.2693 363.163C24.7398 361.139 26.0752 356.908 24.2378 353.758C22.4005 350.607 18.0607 349.687 14.5902 351.711Z" fill="#E1CCFF"/>
<path d="M93.0852 354.791C89.2 357.057 87.7208 361.743 89.7777 365.27C91.8346 368.797 96.6417 369.817 100.527 367.551C104.412 365.285 105.891 360.599 103.835 357.072C101.778 353.545 96.9705 352.525 93.0852 354.791Z" fill="#E1CCFF"/>
<path d="M80.5769 352.154C76.6917 354.42 75.2125 359.106 77.2694 362.633C79.3263 366.16 84.1334 367.18 88.0187 364.914C91.904 362.648 93.3831 357.962 91.3262 354.435C89.2693 350.908 84.4622 349.888 80.5769 352.154Z" fill="#E1CCFF"/>
<path d="M68.0813 349.484C64.1961 351.75 62.7169 356.436 64.7738 359.963C66.8307 363.49 71.6378 364.51 75.5231 362.244C79.4084 359.978 80.8875 355.292 78.8306 351.765C76.7737 348.238 71.9666 347.218 68.0813 349.484Z" fill="#E1CCFF"/>
<path d="M55.6669 347.006C51.8938 349.207 50.4543 353.767 52.4519 357.193C54.4494 360.618 59.1275 361.61 62.9007 359.41C66.6739 357.209 68.1133 352.649 66.1158 349.224C64.1182 345.799 59.4401 344.806 55.6669 347.006Z" fill="#E1CCFF"/>
<path d="M41.0829 346.525C38.4744 349.73 38.9157 354.133 42.0685 356.359C45.2213 358.584 49.8918 357.791 52.5003 354.586C55.1088 351.381 54.6675 346.979 51.5147 344.753C48.3619 342.527 43.6914 343.32 41.0829 346.525Z" fill="#E1CCFF"/>
<path d="M30.8699 342.058C27.312 344.133 25.9561 348.429 27.8397 351.658C29.7233 354.888 34.1298 355.823 37.6876 353.748C41.2455 351.673 42.6014 347.377 40.7178 344.148C38.8343 340.918 34.4277 339.983 30.8699 342.058Z" fill="#E1CCFF"/>
<path d="M18.5239 339.646C15.097 341.645 13.8143 345.765 15.617 348.856C17.4196 351.947 21.6592 352.847 25.0643 350.861C28.4694 348.875 29.7739 344.742 27.9712 341.651C26.1686 338.56 21.9289 337.66 18.5239 339.646Z" fill="#E1CCFF"/>
<path d="M6.1906 337.304C2.96016 339.188 1.74937 343.081 3.44804 345.993C5.14671 348.906 9.15266 349.756 12.3613 347.885C15.5699 346.014 16.8025 342.108 15.1039 339.196C13.4052 336.283 9.39922 335.433 6.1906 337.304Z" fill="#E1CCFF"/>
<path d="M109.538 345.486C105.789 347.672 104.359 352.204 106.344 355.607C108.328 359.01 112.977 359.997 116.726 357.81C120.475 355.624 121.905 351.092 119.92 347.689C117.935 344.286 113.287 343.299 109.538 345.486Z" fill="#E1CCFF"/>
<path d="M97.0879 342.897C93.3991 345.049 91.97 349.52 93.9345 352.888C95.8989 356.257 100.472 357.227 104.183 355.063C107.894 352.899 109.301 348.441 107.336 345.072C105.372 341.704 100.799 340.733 97.0879 342.897Z" fill="#E1CCFF"/>
<path d="M84.5004 340.07C80.7024 342.285 79.2323 346.887 81.2545 350.354C83.2767 353.821 87.9837 354.82 91.8035 352.593C95.6233 350.365 97.0716 345.776 95.0494 342.309C93.0271 338.841 88.3201 337.843 84.5004 340.07Z" fill="#E1CCFF"/>
<path d="M72.038 337.511C68.2837 339.701 66.856 344.224 68.8435 347.632C70.8311 351.04 75.4713 352.025 79.2256 349.836C82.9799 347.646 84.4077 343.123 82.4201 339.715C80.4326 336.307 75.7924 335.322 72.038 337.511Z" fill="#E1CCFF"/>
<path d="M59.6686 335.06C56.0401 337.176 54.6558 341.561 56.5768 344.855C58.4977 348.149 62.9965 349.104 66.625 346.988C70.2536 344.871 71.6378 340.486 69.7168 337.192C67.7959 333.898 63.2971 332.943 59.6686 335.06Z" fill="#E1CCFF"/>
<path d="M47.1627 332.425C43.5342 334.541 42.1499 338.927 44.0709 342.221C45.9919 345.514 50.4907 346.469 54.1192 344.353C57.7477 342.237 59.132 337.851 57.211 334.557C55.29 331.263 50.7913 330.309 47.1627 332.425Z" fill="#E1CCFF"/>
<path d="M34.8143 330.011C31.3438 332.035 30.0187 336.233 31.856 339.383C33.6934 342.534 37.9998 343.448 41.4703 341.424C44.9409 339.4 46.2659 335.202 44.4286 332.051C42.5913 328.901 38.2848 327.987 34.8143 330.011Z" fill="#E1CCFF"/>
<path d="M22.4816 327.671C19.1906 329.59 17.9351 333.568 19.6774 336.556C21.4196 339.543 25.4999 340.409 28.7909 338.49C32.0819 336.57 33.3374 332.593 31.5951 329.605C29.8528 326.618 25.7725 325.752 22.4816 327.671Z" fill="#E1CCFF"/>
<path d="M10.1351 325.261C6.99193 327.094 5.80043 330.869 7.46443 333.722C9.12843 336.576 13.0008 337.397 16.144 335.564C19.2871 333.731 20.4786 329.956 18.8146 327.103C17.1506 324.25 13.2782 323.428 10.1351 325.261Z" fill="#E1CCFF"/>
<path d="M-2.30282 322.743C-5.35865 324.525 -6.52962 328.235 -4.91184 331.009C-3.29406 333.783 0.511581 334.59 3.56741 332.808C6.62324 331.026 7.79424 327.316 6.17646 324.542C4.55868 321.768 0.753005 320.961 -2.30282 322.743Z" fill="#E1CCFF"/>
<path d="M126.118 336.347C122.61 338.393 121.272 342.633 123.129 345.817C124.986 349.002 129.335 349.925 132.843 347.879C136.351 345.833 137.69 341.593 135.832 338.409C133.975 335.224 129.626 334.301 126.118 336.347Z" fill="#E1CCFF"/>
<path d="M113.541 333.542C109.948 335.637 108.578 339.979 110.48 343.24C112.382 346.501 116.835 347.446 120.428 345.351C124.02 343.256 125.391 338.914 123.489 335.653C121.587 332.392 117.133 331.447 113.541 333.542Z" fill="#E1CCFF"/>
<path d="M100.93 330.725C97.2409 332.877 95.8118 337.348 97.7763 340.716C99.7407 344.085 104.314 345.055 108.025 342.891C111.736 340.727 113.143 336.269 111.178 332.9C109.214 329.532 104.64 328.561 100.93 330.725Z" fill="#E1CCFF"/>
<path d="M88.5143 328.196C84.8978 330.305 83.5182 334.676 85.4328 337.959C87.3474 341.242 91.8312 342.193 95.4476 340.084C99.0641 337.975 100.444 333.604 98.5292 330.321C96.6146 327.038 92.1308 326.087 88.5143 328.196Z" fill="#E1CCFF"/>
<path d="M76.0627 325.605C72.483 327.692 71.1169 332.021 73.012 335.27C74.9071 338.52 79.347 339.462 82.9267 337.374C86.5064 335.287 87.8725 330.958 85.9774 327.709C84.0823 324.459 79.6424 323.517 76.0627 325.605Z" fill="#E1CCFF"/>
<path d="M63.5108 322.89C59.8823 325.006 58.4981 329.392 60.4191 332.685C62.34 335.979 66.8388 336.934 70.4673 334.818C74.0958 332.702 75.4801 328.316 73.5591 325.022C71.6382 321.728 67.1394 320.774 63.5108 322.89Z" fill="#E1CCFF"/>
<path d="M51.1522 320.458C47.6598 322.494 46.3463 326.712 48.1836 329.863C50.021 333.013 54.3608 333.934 57.8313 331.91C61.3019 329.886 62.6372 325.655 60.7998 322.505C58.9625 319.355 54.6227 318.434 51.1522 320.458Z" fill="#E1CCFF"/>
<path d="M38.7715 318.038C35.4319 319.985 34.1364 324.033 35.916 327.085C37.6955 330.136 41.835 331.015 45.1964 329.054C48.5578 327.094 49.8315 323.058 48.052 320.007C46.2724 316.956 42.1329 316.077 38.7715 318.038Z" fill="#E1CCFF"/>
<path d="M26.4378 315.646C23.2553 317.502 22.0412 321.348 23.726 324.237C25.4108 327.126 29.3566 327.964 32.5391 326.107C35.7216 324.251 36.9357 320.405 35.2508 317.516C33.566 314.627 29.6203 313.79 26.4378 315.646Z" fill="#E1CCFF"/>
<path d="M13.9764 313.089C10.8332 314.922 9.6417 318.697 11.3057 321.551C12.9697 324.404 16.8421 325.226 19.9853 323.393C23.1284 321.559 24.32 317.784 22.6559 314.931C20.9919 312.078 17.1195 311.256 13.9764 313.089Z" fill="#E1CCFF"/>
<path d="M1.65386 310.717C-1.29959 312.44 -2.4263 316.01 -0.862716 318.691C0.700865 321.372 4.36264 322.149 7.31609 320.426C10.2695 318.704 11.3963 315.134 9.8327 312.453C8.26912 309.772 4.60732 308.995 1.65386 310.717Z" fill="#E1CCFF"/>
<path d="M142.617 327.071C139.277 329.019 137.982 333.067 139.761 336.118C141.541 339.169 145.68 340.048 149.042 338.087C152.403 336.127 153.677 332.092 151.897 329.04C150.118 325.989 145.978 325.11 142.617 327.071Z" fill="#E1CCFF"/>
<path d="M130.167 324.482C126.849 326.417 125.586 330.419 127.342 333.431C129.099 336.443 133.205 337.314 136.523 335.379C139.84 333.444 141.104 329.442 139.347 326.43C137.591 323.418 133.485 322.547 130.167 324.482Z" fill="#E1CCFF"/>
<path d="M117.521 321.607C114.074 323.617 112.758 327.784 114.584 330.914C116.409 334.044 120.683 334.951 124.131 332.94C127.579 330.93 128.894 326.762 127.069 323.633C125.244 320.503 120.969 319.596 117.521 321.607Z" fill="#E1CCFF"/>
<path d="M104.955 318.819C101.435 320.872 100.092 325.127 101.956 328.322C103.82 331.517 108.184 332.444 111.704 330.391C115.224 328.338 116.567 324.083 114.703 320.888C112.84 317.693 108.475 316.766 104.955 318.819Z" fill="#E1CCFF"/>
<path d="M92.4603 316.202C88.9523 318.248 87.614 322.487 89.4712 325.672C91.3283 328.856 95.6776 329.779 99.1856 327.733C102.694 325.688 104.032 321.448 102.175 318.263C100.318 315.079 95.9683 314.156 92.4603 316.202Z" fill="#E1CCFF"/>
<path d="M78.9933 314.225C75.8299 316.757 75.2089 321.09 77.6064 323.904C80.0038 326.718 84.5118 326.946 87.6752 324.415C90.8386 321.883 91.4596 317.55 89.0621 314.736C86.6647 311.922 82.1567 311.694 78.9933 314.225Z" fill="#E1CCFF"/>
<path d="M67.5477 311.003C64.1208 313.001 62.8061 317.167 64.6203 320.278C66.4345 323.388 70.7075 324.295 74.1344 322.297C77.5613 320.298 78.8761 316.133 77.0619 313.022C75.2477 309.911 70.9746 309.004 67.5477 311.003Z" fill="#E1CCFF"/>
<path d="M55.1431 308.545C51.8253 310.48 50.5517 314.515 52.3081 317.527C54.0646 320.538 58.204 321.417 61.5218 319.482C64.8395 317.547 66.1133 313.512 64.3568 310.5C62.6004 307.488 58.4609 306.61 55.1431 308.545Z" fill="#E1CCFF"/>
<path d="M42.7859 306.112C39.6034 307.969 38.3893 311.815 40.0742 314.704C41.759 317.593 45.7047 318.43 48.8872 316.574C52.0697 314.718 53.2838 310.872 51.599 307.983C49.9141 305.094 45.9684 304.256 42.7859 306.112Z" fill="#E1CCFF"/>
<path d="M30.2786 303.475C27.0961 305.331 25.882 309.177 27.5668 312.066C29.2517 314.955 33.1974 315.793 36.3799 313.937C39.5624 312.081 40.7765 308.234 39.0917 305.345C37.4068 302.456 33.4611 301.619 30.2786 303.475Z" fill="#E1CCFF"/>
<path d="M17.9453 301.084C14.9316 302.841 13.7819 306.484 15.3774 309.22C16.9729 311.955 20.7094 312.748 23.7231 310.991C26.7368 309.233 27.8865 305.591 26.291 302.855C24.6955 300.119 20.959 299.326 17.9453 301.084Z" fill="#E1CCFF"/>
<path d="M5.63406 298.782C2.81834 300.424 1.76162 303.829 3.24074 306.365C4.71985 308.901 8.22506 309.645 11.019 308.016C13.8129 306.386 14.8914 302.969 13.4123 300.433C11.9332 297.897 8.42796 297.153 5.63406 298.782Z" fill="#E1CCFF"/>
<path d="M-6.86399 296.114C-9.67971 297.756 -10.7364 301.161 -9.25728 303.697C-7.77817 306.233 -4.27299 306.977 -1.47909 305.348C1.31481 303.718 2.39335 300.301 0.91424 297.765C-0.564873 295.229 -4.07009 294.485 -6.86399 296.114Z" fill="#E1CCFF"/>
<path d="M159.279 318.073C156.245 319.842 155.094 323.487 156.701 326.241C158.307 328.995 162.046 329.789 165.08 328.019C168.114 326.25 169.264 322.605 167.658 319.851C166.052 317.097 162.313 316.303 159.279 318.073Z" fill="#E1CCFF"/>
<path d="M146.653 315.185C143.488 317.031 142.276 320.871 143.952 323.744C145.627 326.617 149.566 327.453 152.731 325.607C155.896 323.762 157.108 319.921 155.433 317.048C153.757 314.175 149.818 313.339 146.653 315.185Z" fill="#E1CCFF"/>
<path d="M133.997 312.291C130.682 314.225 129.417 318.231 131.172 321.241C132.927 324.25 137.037 325.122 140.352 323.189C143.667 321.256 144.932 317.249 143.177 314.239C141.422 311.23 137.312 310.358 133.997 312.291Z" fill="#E1CCFF"/>
<path d="M121.558 309.721C118.305 311.617 117.063 315.555 118.784 318.507C120.506 321.46 124.545 322.317 127.798 320.42C131.05 318.523 132.293 314.586 130.571 311.633C128.849 308.681 124.81 307.824 121.558 309.721Z" fill="#E1CCFF"/>
<path d="M109.017 307.025C105.726 308.944 104.471 312.922 106.213 315.909C107.955 318.897 112.036 319.762 115.327 317.843C118.618 315.924 119.873 311.946 118.131 308.959C116.388 305.971 112.308 305.105 109.017 307.025Z" fill="#E1CCFF"/>
<path d="M96.4042 304.156C92.9774 306.155 91.6947 310.275 93.4973 313.366C95.3 316.457 99.5396 317.357 102.945 315.371C106.35 313.385 107.654 309.252 105.852 306.161C104.049 303.07 99.8093 302.17 96.4042 304.156Z" fill="#E1CCFF"/>
<path d="M83.9302 301.579C80.5469 303.552 79.2745 307.639 81.0541 310.691C82.8336 313.742 87.0399 314.635 90.4013 312.674C93.7627 310.714 95.0569 306.614 93.2774 303.562C91.4978 300.511 87.2916 299.618 83.9302 301.579Z" fill="#E1CCFF"/>
<path d="M71.5744 299.147C68.3439 301.031 67.0895 304.949 68.8113 307.901C70.5331 310.854 74.539 311.704 77.7913 309.807C81.0436 307.91 82.2762 304.005 80.5544 301.053C78.8326 298.1 74.8267 297.25 71.5744 299.147Z" fill="#E1CCFF"/>
<path d="M59.1692 296.638C56.0261 298.471 54.8243 302.278 56.4883 305.131C58.1523 307.985 62.0581 308.814 65.2013 306.98C68.3444 305.147 69.5462 301.34 67.8822 298.487C66.2182 295.633 62.3124 294.804 59.1692 296.638Z" fill="#E1CCFF"/>
<path d="M46.6277 293.941C43.4452 295.797 42.2311 299.643 43.9159 302.532C45.6008 305.421 49.5465 306.258 52.729 304.402C55.9115 302.546 57.1256 298.7 55.4408 295.811C53.7559 292.922 49.8102 292.085 46.6277 293.941Z" fill="#E1CCFF"/>
<path d="M34.3042 291.57C31.292 293.327 30.1416 296.972 31.7363 299.706C33.3309 302.44 37.0698 303.234 40.082 301.477C43.0942 299.72 44.2446 296.076 42.6499 293.341C41.0553 290.607 37.3164 289.813 34.3042 291.57Z" fill="#E1CCFF"/>
<path d="M21.9588 289.209C19.1259 290.861 18.0451 294.285 19.5449 296.857C21.0446 299.428 24.557 300.174 27.3899 298.522C30.2228 296.869 31.3035 293.445 29.8037 290.874C28.304 288.302 24.7917 287.557 21.9588 289.209Z" fill="#E1CCFF"/>
<path d="M9.48562 286.579C6.6699 288.221 5.61319 291.626 7.0923 294.162C8.57141 296.698 12.0766 297.442 14.8705 295.812C17.6644 294.183 18.743 290.766 17.2638 288.23C15.7847 285.694 12.2795 284.95 9.48562 286.579Z" fill="#E1CCFF"/>
<path d="M-2.83735 284.259C-5.45663 285.786 -6.45298 288.943 -5.06631 291.321C-3.67964 293.698 -0.441504 294.385 2.17778 292.858C4.79706 291.33 5.79342 288.174 4.40675 285.796C3.02008 283.418 -0.218064 282.731 -2.83735 284.259Z" fill="#E1CCFF"/>
<path d="M175.8 308.834C172.955 310.494 171.869 313.932 173.375 316.515C174.882 319.097 178.409 319.846 181.254 318.187C184.099 316.527 185.184 313.089 183.678 310.506C182.172 307.924 178.645 307.175 175.8 308.834Z" fill="#E1CCFF"/>
<path d="M163.165 305.928C160.175 307.672 159.035 311.284 160.618 313.998C162.201 316.713 165.906 317.499 168.897 315.755C171.887 314.011 173.027 310.399 171.444 307.685C169.861 304.97 166.155 304.184 163.165 305.928Z" fill="#E1CCFF"/>
<path d="M150.658 303.291C147.667 305.035 146.527 308.647 148.11 311.362C149.693 314.076 153.399 314.863 156.389 313.119C159.38 311.375 160.52 307.762 158.937 305.048C157.354 302.333 153.648 301.547 150.658 303.291Z" fill="#E1CCFF"/>
<path d="M138.068 300.463C134.969 302.271 133.788 306.013 135.428 308.827C137.069 311.64 140.908 312.455 144.008 310.647C147.107 308.84 148.289 305.097 146.648 302.284C145.007 299.47 141.168 298.655 138.068 300.463Z" fill="#E1CCFF"/>
<path d="M124.6 298.317C121.741 300.606 121.18 304.522 123.347 307.065C125.513 309.608 129.588 309.814 132.447 307.526C135.306 305.238 135.867 301.322 133.7 298.779C131.533 296.236 127.459 296.029 124.6 298.317Z" fill="#E1CCFF"/>
<path d="M112.996 295.037C109.831 296.883 108.619 300.723 110.294 303.596C111.97 306.469 115.909 307.305 119.074 305.459C122.239 303.613 123.451 299.773 121.776 296.9C120.1 294.027 116.161 293.191 112.996 295.037Z" fill="#E1CCFF"/>
<path d="M100.466 292.362C97.2788 294.221 96.0667 298.061 97.7538 300.954C99.4409 303.847 103.38 304.683 106.567 302.824C109.754 300.966 110.966 297.126 109.279 294.233C107.592 291.34 103.652 290.504 100.466 292.362Z" fill="#E1CCFF"/>
<path d="M87.992 289.732C84.8215 291.581 83.612 295.413 85.2905 298.291C86.9689 301.169 90.8998 302.003 94.0702 300.154C97.2406 298.305 98.4501 294.473 96.7717 291.595C95.0932 288.717 91.1624 287.883 87.992 289.732Z" fill="#E1CCFF"/>
<path d="M75.5654 287.234C72.4914 289.027 71.3187 292.743 72.9461 295.533C74.5735 298.324 78.3847 299.132 81.4587 297.34C84.5327 295.547 85.7054 291.831 84.078 289.041C82.4506 286.25 78.6394 285.442 75.5654 287.234Z" fill="#E1CCFF"/>
<path d="M63.0805 284.584C60.0065 286.377 58.8338 290.092 60.4612 292.883C62.0886 295.673 65.8998 296.482 68.9738 294.689C72.0478 292.896 73.2205 289.181 71.5931 286.391C69.9657 283.6 66.1545 282.791 63.0805 284.584Z" fill="#E1CCFF"/>
<path d="M50.6866 282.093C47.7181 283.824 46.5663 287.417 48.1494 290.132C49.7326 292.846 53.4047 293.625 56.395 291.881C59.3854 290.137 60.5153 286.558 58.9322 283.843C57.349 281.128 53.6769 280.349 50.6866 282.093Z" fill="#E1CCFF"/>
<path d="M38.3074 279.674C35.4698 281.329 34.3913 284.746 35.8935 287.322C37.3957 289.897 40.9009 290.641 43.7385 288.986C46.576 287.332 47.6546 283.914 46.1524 281.339C44.6501 278.763 41.1449 278.019 38.3074 279.674Z" fill="#E1CCFF"/>
<path d="M25.8225 277.026C22.985 278.681 21.9064 282.098 23.4087 284.674C24.9109 287.25 28.4161 287.994 31.2537 286.339C34.0912 284.684 35.1697 281.267 33.6675 278.691C32.1653 276.115 28.6601 275.371 25.8225 277.026Z" fill="#E1CCFF"/>
<path d="M13.4546 274.627C10.7916 276.18 9.7529 279.415 11.1742 281.852C12.5956 284.289 15.9005 284.99 18.5852 283.424C21.27 281.859 22.2869 278.637 20.8656 276.2C19.4442 273.763 16.1393 273.061 13.4546 274.627Z" fill="#E1CCFF"/>
<path d="M1.17656 272.332C-1.28993 273.77 -2.22465 276.732 -0.91887 278.971C0.386909 281.21 3.42474 281.854 5.89123 280.416C8.35772 278.977 9.29244 276.016 7.98666 273.777C6.68088 271.538 3.64305 270.893 1.17656 272.332Z" fill="#E1CCFF"/>
<path d="M192.311 299.577C189.648 301.13 188.609 304.365 190.03 306.802C191.452 309.239 194.756 309.94 197.441 308.375C200.126 306.809 201.143 303.587 199.722 301.15C198.3 298.713 194.995 298.011 192.311 299.577Z" fill="#E1CCFF"/>
<path d="M179.827 296.98C177.187 298.52 176.18 301.711 177.577 304.107C178.975 306.504 182.248 307.198 184.888 305.659C187.528 304.119 188.535 300.928 187.138 298.532C185.74 296.135 182.467 295.44 179.827 296.98Z" fill="#E1CCFF"/>
<path d="M167.168 294.032C164.352 295.674 163.295 299.079 164.774 301.615C166.254 304.151 169.759 304.895 172.553 303.266C175.347 301.636 176.425 298.219 174.946 295.683C173.467 293.147 169.962 292.403 167.168 294.032Z" fill="#E1CCFF"/>
<path d="M154.568 291.187C151.622 292.905 150.502 296.452 152.062 299.127C153.622 301.802 157.261 302.574 160.208 300.856C163.154 299.137 164.274 295.59 162.714 292.915C161.154 290.24 157.515 289.468 154.568 291.187Z" fill="#E1CCFF"/>
<path d="M142.118 288.649C139.259 290.316 138.16 293.799 139.674 296.394C141.187 298.99 144.738 299.761 147.619 298.08C150.5 296.4 151.589 292.95 150.063 290.335C148.538 287.719 145 286.968 142.118 288.649Z" fill="#E1CCFF"/>
<path d="M129.483 285.743C126.449 287.513 125.298 291.158 126.905 293.912C128.511 296.666 132.25 297.459 135.284 295.69C138.318 293.921 139.468 290.276 137.862 287.522C136.256 284.767 132.517 283.974 129.483 285.743Z" fill="#E1CCFF"/>
<path d="M116.93 283.025C113.874 284.807 112.703 288.517 114.321 291.291C115.938 294.065 119.744 294.873 122.8 293.091C125.856 291.308 127.027 287.598 125.409 284.824C123.791 282.05 119.985 281.243 116.93 283.025Z" fill="#E1CCFF"/>
<path d="M104.56 280.572C101.613 282.291 100.493 285.838 102.053 288.513C103.613 291.188 107.252 291.96 110.199 290.242C113.145 288.523 114.265 284.976 112.705 282.301C111.145 279.626 107.506 278.854 104.56 280.572Z" fill="#E1CCFF"/>
<path d="M92.0651 277.958C89.1402 279.664 88.0309 283.179 89.5793 285.834C91.1277 288.489 94.7331 289.254 97.658 287.548C100.583 285.842 101.692 282.328 100.144 279.673C98.5953 277.017 94.9899 276.252 92.0651 277.958Z" fill="#E1CCFF"/>
<path d="M79.4873 275.149C76.4751 276.906 75.3247 280.551 76.9194 283.285C78.514 286.019 82.2529 286.813 85.2651 285.056C88.2773 283.3 89.4277 279.655 87.833 276.92C86.2384 274.186 82.4995 273.393 79.4873 275.149Z" fill="#E1CCFF"/>
<path d="M67.0372 272.611C64.0958 274.327 62.9737 277.882 64.5309 280.552C66.0881 283.222 69.735 283.996 72.6764 282.281C75.6178 280.565 76.7398 277.01 75.1826 274.34C73.6254 271.67 69.9786 270.896 67.0372 272.611Z" fill="#E1CCFF"/>
<path d="M54.725 270.259C51.9529 271.876 50.9167 275.215 52.3727 277.712C53.8287 280.208 57.2672 280.938 60.0174 279.334C62.7677 277.73 63.8256 274.378 62.3696 271.881C60.9136 269.385 57.4752 268.655 54.725 270.259Z" fill="#E1CCFF"/>
<path d="M42.1834 267.51C39.3677 269.152 38.3109 272.556 39.7901 275.093C41.2692 277.629 44.7744 278.373 47.5683 276.743C50.3622 275.114 51.4407 271.697 49.9616 269.16C48.4825 266.624 44.9773 265.88 42.1834 267.51Z" fill="#E1CCFF"/>
<path d="M29.8027 265.093C27.1398 266.646 26.101 269.88 27.5224 272.318C28.9437 274.755 32.2486 275.456 34.9334 273.89C37.6181 272.324 38.6351 269.103 37.2137 266.666C35.7924 264.228 32.4875 263.527 29.8027 265.093Z" fill="#E1CCFF"/>
<path d="M17.5247 262.799C15.0582 264.237 14.1235 267.199 15.4292 269.438C16.735 271.677 19.7729 272.321 22.2394 270.883C24.7059 269.444 25.6406 266.483 24.3348 264.244C23.029 262.005 19.9912 261.36 17.5247 262.799Z" fill="#E1CCFF"/>
<path d="M4.99488 260.122C2.50656 261.573 1.56156 264.567 2.8789 266.826C4.19623 269.085 7.26745 269.736 9.75577 268.285C12.2441 266.834 13.1891 263.84 11.8718 261.581C10.5544 259.322 7.4832 258.671 4.99488 260.122Z" fill="#E1CCFF"/>
<path d="M-7.29292 257.811C-9.56297 259.135 -10.4258 261.869 -9.22403 263.929C-8.02225 265.99 -5.21808 266.585 -2.94803 265.261C-0.67799 263.937 0.184853 261.204 -1.01693 259.143C-2.21871 257.082 -5.02288 256.487 -7.29292 257.811Z" fill="#E1CCFF"/>
<path d="M209.018 290.656C206.715 291.999 205.837 294.782 207.056 296.872C208.275 298.962 211.129 299.568 213.432 298.225C215.734 296.882 216.613 294.099 215.394 292.009C214.175 289.919 211.32 289.313 209.018 290.656Z" fill="#E1CCFF"/>
<path d="M196.35 287.743C193.883 289.181 192.949 292.143 194.254 294.382C195.56 296.621 198.598 297.266 201.065 295.827C203.531 294.389 204.466 291.427 203.16 289.188C201.854 286.949 198.816 286.305 196.35 287.743Z" fill="#E1CCFF"/>
<path d="M183.69 284.796C181.05 286.335 180.043 289.526 181.44 291.923C182.838 294.319 186.111 295.014 188.751 293.474C191.391 291.934 192.398 288.744 191.001 286.347C189.603 283.95 186.33 283.256 183.69 284.796Z" fill="#E1CCFF"/>
<path d="M171.229 282.239C168.653 283.741 167.667 286.865 169.03 289.203C170.394 291.541 173.599 292.221 176.174 290.719C178.75 289.217 179.736 286.093 178.373 283.755C177.009 281.417 173.804 280.737 171.229 282.239Z" fill="#E1CCFF"/>
<path d="M158.616 279.372C155.91 280.951 154.872 284.238 156.305 286.695C157.738 289.152 161.11 289.867 163.816 288.289C166.523 286.71 167.56 283.423 166.127 280.966C164.694 278.509 161.323 277.794 158.616 279.372Z" fill="#E1CCFF"/>
<path d="M145.981 276.463C143.122 278.131 142.023 281.613 143.536 284.209C145.05 286.804 148.622 287.562 151.482 285.895C154.341 284.227 155.44 280.745 153.926 278.149C152.413 275.554 148.862 274.783 145.981 276.463Z" fill="#E1CCFF"/>
<path d="M133.555 273.967C130.783 275.584 129.703 278.948 131.182 281.485C132.661 284.021 136.1 284.75 138.894 283.121C141.688 281.492 142.746 278.14 141.266 275.603C139.787 273.067 136.349 272.338 133.555 273.967Z" fill="#E1CCFF"/>
<path d="M121.023 271.236C118.208 272.879 117.151 276.283 118.63 278.819C120.109 281.355 123.614 282.099 126.408 280.47C129.202 278.84 130.281 275.423 128.801 272.887C127.322 270.351 123.817 269.607 121.023 271.236Z" fill="#E1CCFF"/>
<path d="M108.516 268.6C105.701 270.242 104.644 273.646 106.123 276.182C107.602 278.719 111.107 279.462 113.901 277.833C116.695 276.204 117.774 272.786 116.295 270.25C114.816 267.714 111.31 266.97 108.516 268.6Z" fill="#E1CCFF"/>
<path d="M96.0203 265.931C93.2046 267.573 92.1479 270.977 93.627 273.513C95.1061 276.05 98.6113 276.793 101.405 275.164C104.199 273.535 105.278 270.118 103.799 267.581C102.319 265.045 98.8142 264.301 96.0203 265.931Z" fill="#E1CCFF"/>
<path d="M83.535 263.333C80.7503 264.957 79.688 268.323 81.1622 270.851C82.6364 273.379 86.089 274.111 88.8736 272.487C91.6583 270.863 92.7207 267.497 91.2464 264.97C89.7722 262.442 86.3197 261.709 83.535 263.333Z" fill="#E1CCFF"/>
<path d="M71.145 260.844C68.4602 262.41 67.433 265.664 68.8544 268.101C70.2757 270.539 73.614 271.247 76.2988 269.681C78.9835 268.115 80.0107 264.861 78.5894 262.424C77.168 259.987 73.8298 259.278 71.145 260.844Z" fill="#E1CCFF"/>
<path d="M58.556 258.069C55.7839 259.685 54.7478 263.025 56.2038 265.521C57.6598 268.018 61.0982 268.747 63.8485 267.143C66.5987 265.539 67.6567 262.187 66.2007 259.691C64.7447 257.194 61.3063 256.465 58.556 258.069Z" fill="#E1CCFF"/>
<path d="M46.2555 255.734C43.6799 257.236 42.704 260.328 44.0676 262.666C45.4311 265.004 48.6025 265.677 51.1782 264.175C53.7538 262.673 54.7296 259.581 53.3661 257.243C52.0025 254.905 48.8311 254.232 46.2555 255.734Z" fill="#E1CCFF"/>
<path d="M33.8963 253.302C31.4735 254.715 30.549 257.644 31.8317 259.844C33.1144 262.043 36.1188 262.68 38.5416 261.267C40.9645 259.854 41.889 256.925 40.6063 254.726C39.3236 252.527 36.3191 251.889 33.8963 253.302Z" fill="#E1CCFF"/>
<path d="M21.3543 250.606C18.8878 252.045 17.9531 255.006 19.2588 257.245C20.5646 259.484 23.6024 260.129 26.0689 258.69C28.5354 257.252 29.4702 254.29 28.1644 252.051C26.8586 249.812 23.8207 249.168 21.3543 250.606Z" fill="#E1CCFF"/>
<path d="M9.05623 248.275C6.78619 249.599 5.92334 252.332 7.12512 254.393C8.3269 256.454 11.1311 257.049 13.4011 255.725C15.6712 254.401 16.534 251.667 15.3322 249.607C14.1304 247.546 11.3263 246.951 9.05623 248.275Z" fill="#E1CCFF"/>
<path d="M-3.29071 245.915C-5.37621 247.131 -6.17183 249.652 -5.06775 251.545C-3.96367 253.438 -1.37798 253.987 0.707522 252.77C2.79302 251.554 3.58861 249.033 2.48453 247.14C1.38045 245.247 -1.20521 244.698 -3.29071 245.915Z" fill="#E1CCFF"/>
<path d="M238.244 284.447C236.345 285.554 235.626 287.832 236.632 289.556C237.637 291.28 239.974 291.776 241.873 290.668C243.772 289.561 244.491 287.283 243.485 285.559C242.48 283.835 240.143 283.339 238.244 284.447Z" fill="#E1CCFF"/>
<path d="M225.552 281.44C223.457 282.662 222.634 285.213 223.754 287.135C224.875 289.057 227.479 289.61 229.596 288.375C231.714 287.14 232.515 284.602 231.394 282.68C230.273 280.758 227.669 280.205 225.552 281.44Z" fill="#E1CCFF"/>
<path d="M213.079 278.863C211.005 280.072 210.214 282.578 211.312 284.46C212.41 286.342 214.98 286.888 217.054 285.679C219.128 284.469 219.919 281.963 218.821 280.081C217.723 278.199 215.153 277.653 213.079 278.863Z" fill="#E1CCFF"/>
<path d="M200.397 275.877C198.127 277.201 197.264 279.935 198.466 281.996C199.668 284.056 202.472 284.651 204.742 283.328C207.012 282.004 207.875 279.27 206.673 277.209C205.471 275.149 202.667 274.554 200.397 275.877Z" fill="#E1CCFF"/>
<path d="M187.74 272.982C185.329 274.389 184.409 277.303 185.686 279.491C186.962 281.68 189.951 282.314 192.362 280.908C194.773 279.502 195.693 276.588 194.417 274.399C193.14 272.211 190.151 271.576 187.74 272.982Z" fill="#E1CCFF"/>
<path d="M175.138 270.134C172.607 271.611 171.641 274.67 172.981 276.969C174.321 279.267 177.46 279.933 179.992 278.456C182.523 276.98 183.489 273.92 182.149 271.622C180.809 269.324 177.67 268.658 175.138 270.134Z" fill="#E1CCFF"/>
<path d="M162.632 267.498C160.1 268.974 159.135 272.034 160.475 274.332C161.815 276.63 164.954 277.296 167.485 275.819C170.017 274.343 170.983 271.283 169.642 268.985C168.302 266.687 165.164 266.021 162.632 267.498Z" fill="#E1CCFF"/>
<path d="M150.054 264.689C147.434 266.217 146.438 269.374 147.825 271.751C149.211 274.129 152.45 274.816 155.069 273.288C157.688 271.761 158.685 268.604 157.298 266.226C155.911 263.849 152.673 263.162 150.054 264.689Z" fill="#E1CCFF"/>
<path d="M137.511 261.941C134.848 263.494 133.809 266.729 135.23 269.166C136.652 271.603 139.957 272.305 142.641 270.739C145.326 269.173 146.343 265.951 144.922 263.514C143.5 261.077 140.195 260.376 137.511 261.941Z" fill="#E1CCFF"/>
<path d="M125.119 259.502C122.565 260.991 121.612 264.07 122.952 266.369C124.292 268.667 127.464 269.34 129.996 267.863C132.528 266.387 133.504 263.295 132.163 260.997C130.823 258.698 127.651 258.025 125.119 259.502Z" fill="#E1CCFF"/>
<path d="M112.496 256.615C109.811 258.18 108.784 261.435 110.205 263.872C111.626 266.309 114.965 267.018 117.649 265.452C120.334 263.886 121.361 260.632 119.94 258.195C118.519 255.757 115.18 255.049 112.496 256.615Z" fill="#E1CCFF"/>
<path d="M100 253.996C97.3375 255.549 96.2988 258.784 97.7201 261.221C99.1415 263.658 102.446 264.359 105.131 262.794C107.816 261.228 108.833 258.006 107.411 255.569C105.99 253.132 102.685 252.43 100 253.996Z" fill="#E1CCFF"/>
<path d="M87.6408 251.566C85.1088 253.043 84.1433 256.102 85.4837 258.4C86.8242 260.699 89.9622 261.365 92.4941 259.888C95.0261 258.411 95.9917 255.352 94.6512 253.054C93.3108 250.755 90.1728 250.089 87.6408 251.566Z" fill="#E1CCFF"/>
<path d="M75.066 248.811C72.4685 250.326 71.4722 253.482 72.8473 255.84C74.2224 258.198 77.4605 258.885 80.058 257.37C82.6554 255.856 83.6518 252.699 82.2767 250.341C80.9016 247.983 77.6634 247.296 75.066 248.811Z" fill="#E1CCFF"/>
<path d="M62.6398 246.26C60.1079 247.737 59.1423 250.796 60.4828 253.094C61.8232 255.393 64.9612 256.059 67.4932 254.582C70.0252 253.106 70.9907 250.046 69.6502 247.748C68.3098 245.45 65.1718 244.784 62.6398 246.26Z" fill="#E1CCFF"/>
<path d="M50.2592 243.842C47.88 245.229 46.9658 248.126 48.2253 250.286C49.4849 252.445 52.456 253.076 54.8352 251.688C57.2144 250.301 58.1285 247.404 56.869 245.245C55.6094 243.085 52.6384 242.454 50.2592 243.842Z" fill="#E1CCFF"/>
<path d="M37.7738 241.191C35.3946 242.579 34.4805 245.475 35.74 247.635C36.9996 249.795 39.9706 250.425 42.3498 249.038C44.729 247.65 45.6432 244.754 44.3836 242.594C43.1241 240.434 40.153 239.804 37.7738 241.191Z" fill="#E1CCFF"/>
<path d="M25.4156 238.76C23.1674 240.072 22.3148 242.773 23.5051 244.813C24.6953 246.854 27.4661 247.442 29.7143 246.131C31.9625 244.82 32.8151 242.119 31.6248 240.078C30.4346 238.037 27.6638 237.449 25.4156 238.76Z" fill="#E1CCFF"/>
<path d="M13.0701 236.4C10.9967 237.609 10.2057 240.115 11.3034 241.997C12.4011 243.879 14.9718 244.425 17.0453 243.216C19.1187 242.006 19.9097 239.5 18.812 237.618C17.7143 235.736 15.1436 235.19 13.0701 236.4Z" fill="#E1CCFF"/>
<path d="M0.768651 234.067C-1.11192 235.164 -1.82932 237.437 -0.833734 239.144C0.161853 240.851 2.49343 241.346 4.37399 240.249C6.25456 239.153 6.97197 236.88 5.97639 235.172C4.9808 233.465 2.64922 232.971 0.768651 234.067Z" fill="#E1CCFF"/>
<path d="M254.766 275.209C253.042 276.214 252.407 278.284 253.308 279.83C254.209 281.375 256.346 281.829 258.048 280.836C259.751 279.843 260.408 277.76 259.507 276.214C258.605 274.669 256.469 274.216 254.766 275.209Z" fill="#E1CCFF"/>
<path d="M242.248 272.551C240.524 273.557 239.888 275.627 240.789 277.173C241.691 278.718 243.827 279.171 245.53 278.178C247.232 277.186 247.89 275.103 246.988 273.557C246.087 272.012 243.95 271.558 242.248 272.551Z" fill="#E1CCFF"/>
<path d="M229.601 269.626C227.721 270.723 227.003 272.996 227.999 274.703C228.994 276.41 231.326 276.905 233.206 275.808C235.087 274.711 235.804 272.438 234.809 270.731C233.813 269.024 231.482 268.529 229.601 269.626Z" fill="#E1CCFF"/>
<path d="M216.93 266.658C214.857 267.868 214.066 270.374 215.164 272.256C216.261 274.138 218.832 274.684 220.906 273.474C222.979 272.265 223.77 269.759 222.672 267.877C221.575 265.995 219.004 265.449 216.93 266.658Z" fill="#E1CCFF"/>
<path d="M204.458 264.082C202.428 265.266 201.648 267.739 202.722 269.582C203.797 271.424 206.334 271.963 208.364 270.779C210.394 269.595 211.175 267.122 210.1 265.279C209.025 263.436 206.488 262.898 204.458 264.082Z" fill="#E1CCFF"/>
<path d="M191.822 261.173C189.64 262.446 188.808 265.082 189.963 267.064C191.119 269.045 193.823 269.619 196.006 268.346C198.188 267.073 199.02 264.437 197.865 262.455C196.709 260.474 194.005 259.9 191.822 261.173Z" fill="#E1CCFF"/>
<path d="M179.143 258.24C176.786 259.615 175.892 262.446 177.14 264.586C178.388 266.726 181.292 267.342 183.65 265.967C186.007 264.593 186.901 261.761 185.653 259.621C184.405 257.481 181.5 256.865 179.143 258.24Z" fill="#E1CCFF"/>
<path d="M166.552 255.413C164.086 256.851 163.151 259.813 164.457 262.052C165.762 264.291 168.8 264.935 171.267 263.497C173.733 262.059 174.668 259.097 173.362 256.858C172.056 254.619 169.019 253.974 166.552 255.413Z" fill="#E1CCFF"/>
<path d="M154.128 252.915C151.749 254.302 150.845 257.166 152.104 259.326C153.364 261.486 156.302 262.109 158.681 260.721C161.06 259.334 161.964 256.47 160.704 254.31C159.445 252.151 156.507 251.527 154.128 252.915Z" fill="#E1CCFF"/>
<path d="M141.618 250.225C139.231 251.617 138.321 254.502 139.584 256.668C140.848 258.835 143.807 259.463 146.194 258.071C148.581 256.679 149.491 253.794 148.228 251.627C146.964 249.461 144.005 248.833 141.618 250.225Z" fill="#E1CCFF"/>
<path d="M128.971 247.297C126.418 248.786 125.464 251.865 126.804 254.164C128.144 256.462 131.316 257.135 133.848 255.658C136.38 254.182 137.356 251.09 136.015 248.792C134.675 246.493 131.503 245.82 128.971 247.297Z" fill="#E1CCFF"/>
<path d="M116.593 244.879C114.182 246.285 113.262 249.199 114.538 251.388C115.815 253.576 118.804 254.211 121.215 252.804C123.626 251.398 124.546 248.484 123.269 246.296C121.993 244.107 119.004 243.473 116.593 244.879Z" fill="#E1CCFF"/>
<path d="M104.13 242.271C101.751 243.658 100.837 246.555 102.096 248.714C103.356 250.874 106.327 251.504 108.706 250.117C111.085 248.729 112 245.833 110.74 243.673C109.481 241.514 106.509 240.883 104.13 242.271Z" fill="#E1CCFF"/>
<path d="M91.485 239.396C88.9535 240.872 87.9878 243.932 89.328 246.23C90.6682 248.528 93.8068 249.194 96.3384 247.718C98.8699 246.242 99.8357 243.182 98.4955 240.884C97.1552 238.586 94.0166 237.92 91.485 239.396Z" fill="#E1CCFF"/>
<path d="M79.1601 237.023C76.8027 238.398 75.9091 241.229 77.1571 243.369C78.4051 245.509 81.3094 246.125 83.6668 244.751C86.0241 243.376 86.9178 240.544 85.6698 238.405C84.4218 236.265 81.5174 235.648 79.1601 237.023Z" fill="#E1CCFF"/>
<path d="M66.7344 234.525C64.4644 235.849 63.6015 238.582 64.8033 240.643C66.0051 242.704 68.8093 243.299 71.0793 241.975C73.3494 240.651 74.2122 237.917 73.0104 235.857C71.8086 233.796 69.0045 233.201 66.7344 234.525Z" fill="#E1CCFF"/>
<path d="M54.1679 231.737C51.8324 233.099 50.9388 235.93 52.1752 238.05C53.4116 240.17 56.316 240.786 58.6515 239.424C60.987 238.062 61.8806 235.231 60.6442 233.111C59.4078 230.991 56.5035 230.374 54.1679 231.737Z" fill="#E1CCFF"/>
<path d="M41.7765 229.298C39.5584 230.591 38.7122 233.272 39.8865 235.286C41.0607 237.299 43.8108 237.883 46.0289 236.589C48.247 235.295 49.0932 232.615 47.9189 230.601C46.7447 228.588 43.9946 228.004 41.7765 229.298Z" fill="#E1CCFF"/>
<path d="M29.4887 226.986C27.4806 228.157 26.7204 230.565 27.7836 232.388C28.8467 234.211 31.317 234.735 33.3251 233.564C35.3333 232.393 36.0934 229.985 35.0303 228.162C33.9671 226.339 31.4968 225.815 29.4887 226.986Z" fill="#E1CCFF"/>
<path d="M17.1422 224.574C15.2869 225.656 14.5781 227.902 15.5604 229.586C16.5426 231.27 18.846 231.759 20.7013 230.677C22.5566 229.595 23.2654 227.349 22.2832 225.665C21.301 223.981 18.9975 223.492 17.1422 224.574Z" fill="#E1CCFF"/>
<path d="M4.59971 221.876C2.71914 222.973 2.00173 225.246 2.99732 226.953C3.99291 228.66 6.32448 229.155 8.20505 228.058C10.0856 226.961 10.803 224.688 9.80744 222.981C8.81185 221.274 6.48027 220.779 4.59971 221.876Z" fill="#E1CCFF"/>
<path d="M271.52 266.368C270.233 267.119 269.74 268.681 270.421 269.85C271.103 271.019 272.706 271.359 273.993 270.608C275.281 269.857 275.774 268.295 275.092 267.126C274.411 265.957 272.808 265.617 271.52 266.368Z" fill="#E1CCFF"/>
<path d="M258.839 263.432C257.377 264.285 256.812 266.075 257.586 267.402C258.36 268.73 260.196 269.12 261.659 268.267C263.121 267.414 263.686 265.624 262.912 264.296C262.138 262.969 260.301 262.579 258.839 263.432Z" fill="#E1CCFF"/>
<path d="M246.159 260.447C244.495 261.417 243.86 263.428 244.741 264.938C245.622 266.448 247.684 266.886 249.348 265.916C251.012 264.945 251.646 262.935 250.765 261.425C249.885 259.914 247.822 259.477 246.159 260.447Z" fill="#E1CCFF"/>
<path d="M233.65 257.81C231.991 258.778 231.355 260.795 232.233 262.301C233.111 263.807 235.181 264.246 236.84 263.279C238.499 262.311 239.135 260.294 238.257 258.788C237.379 257.282 235.309 256.843 233.65 257.81Z" fill="#E1CCFF"/>
<path d="M220.982 254.844C219.137 255.92 218.434 258.149 219.41 259.823C220.386 261.498 222.673 261.983 224.518 260.907C226.362 259.832 227.066 257.602 226.089 255.928C225.113 254.254 222.826 253.769 220.982 254.844Z" fill="#E1CCFF"/>
<path d="M208.367 251.975C206.39 253.128 205.635 255.518 206.682 257.312C207.729 259.107 210.18 259.627 212.157 258.474C214.134 257.321 214.888 254.932 213.841 253.137C212.795 251.342 210.344 250.822 208.367 251.975Z" fill="#E1CCFF"/>
<path d="M195.849 249.319C193.862 250.477 193.124 252.873 194.164 254.656C195.204 256.439 197.674 256.964 199.639 255.818C201.603 254.672 202.363 252.264 201.323 250.481C200.283 248.697 197.813 248.173 195.849 249.319Z" fill="#E1CCFF"/>
<path d="M183.237 246.453C181.119 247.688 180.318 250.226 181.439 252.148C182.56 254.07 185.164 254.622 187.281 253.388C189.398 252.153 190.199 249.614 189.079 247.692C187.958 245.771 185.354 245.218 183.237 246.453Z" fill="#E1CCFF"/>
<path d="M170.648 243.677C168.454 244.956 167.617 247.608 168.778 249.6C169.94 251.591 172.66 252.168 174.854 250.889C177.048 249.609 177.885 246.957 176.723 244.966C175.562 242.974 172.842 242.397 170.648 243.677Z" fill="#E1CCFF"/>
<path d="M158.106 240.928C155.858 242.239 155.017 244.96 156.195 246.981C157.374 249.002 160.156 249.61 162.405 248.299C164.653 246.988 165.505 244.287 164.315 242.246C163.125 240.205 160.354 239.617 158.106 240.928Z" fill="#E1CCFF"/>
<path d="M145.587 238.272C143.339 239.583 142.498 242.304 143.676 244.325C144.855 246.346 147.637 246.954 149.886 245.643C152.134 244.332 152.986 241.631 151.796 239.59C150.606 237.549 147.835 236.961 145.587 238.272Z" fill="#E1CCFF"/>
<path d="M133.08 235.584C130.81 236.907 129.947 239.641 131.149 241.702C132.35 243.762 135.154 244.357 137.425 243.034C139.695 241.71 140.557 238.976 139.356 236.915C138.154 234.855 135.35 234.26 133.08 235.584Z" fill="#E1CCFF"/>
<path d="M120.594 232.933C118.324 234.257 117.461 236.991 118.663 239.051C119.865 241.112 122.669 241.707 124.939 240.383C127.209 239.059 128.072 236.326 126.87 234.265C125.668 232.204 122.864 231.609 120.594 232.933Z" fill="#E1CCFF"/>
<path d="M108.087 230.295C105.817 231.619 104.954 234.353 106.156 236.414C107.358 238.474 110.162 239.069 112.432 237.745C114.702 236.422 115.565 233.688 114.363 231.627C113.161 229.567 110.357 228.972 108.087 230.295Z" fill="#E1CCFF"/>
<path d="M95.6139 227.667C93.3656 228.978 92.5131 231.679 93.7033 233.72C94.8935 235.761 97.6643 236.349 99.9125 235.037C102.161 233.726 103.013 231.025 101.823 228.984C100.633 226.943 97.8621 226.355 95.6139 227.667Z" fill="#E1CCFF"/>
<path d="M83.1642 225.128C80.9815 226.401 80.1495 229.037 81.305 231.019C82.4606 233 85.1646 233.574 87.3474 232.301C89.5301 231.028 90.3621 228.392 89.2065 226.41C88.051 224.429 85.347 223.855 83.1642 225.128Z" fill="#E1CCFF"/>
<path d="M70.6784 222.479C68.4957 223.752 67.6636 226.388 68.8192 228.369C69.9748 230.351 72.6788 230.924 74.8615 229.652C77.0442 228.379 77.8763 225.742 76.7207 223.761C75.5651 221.78 72.8611 221.206 70.6784 222.479Z" fill="#E1CCFF"/>
<path d="M58.2532 219.98C56.1677 221.196 55.3721 223.717 56.4762 225.61C57.5803 227.503 60.166 228.052 62.2515 226.836C64.3369 225.62 65.1326 223.099 64.0285 221.206C62.9244 219.313 60.3387 218.764 58.2532 219.98Z" fill="#E1CCFF"/>
<path d="M45.8716 217.511C43.9066 218.657 43.157 221.032 44.1973 222.815C45.2375 224.599 47.6737 225.116 49.6387 223.97C51.6036 222.824 52.3532 220.449 51.313 218.666C50.2727 216.882 47.8365 216.365 45.8716 217.511Z" fill="#E1CCFF"/>
<path d="M33.5026 215.11C31.6691 216.179 30.9925 218.38 31.9516 220.024C32.9107 221.669 35.1807 222.15 36.9924 221.094C38.8041 220.037 39.5026 217.824 38.5434 216.18C37.5843 214.535 35.3143 214.053 33.5026 215.11Z" fill="#E1CCFF"/>
<path d="M21.0065 212.44C19.173 213.509 18.4964 215.71 19.4555 217.354C20.4146 218.999 22.6847 219.48 24.4963 218.424C26.308 217.367 27.0065 215.154 26.0474 213.51C25.0882 211.865 22.8182 211.384 21.0065 212.44Z" fill="#E1CCFF"/>
<path d="M8.6835 210.069C7.03197 211.032 6.40194 213.028 7.27627 214.527C8.1506 216.026 10.1982 216.461 11.8497 215.498C13.5012 214.534 14.1313 212.538 13.257 211.039C12.3826 209.54 10.335 209.105 8.6835 210.069Z" fill="#E1CCFF"/>
<path d="M-3.65071 207.729C-5.11315 208.582 -5.6781 210.372 -4.90387 211.699C-4.12965 213.027 -2.29358 213.416 -0.831152 212.564C0.63128 211.711 1.19623 209.921 0.422006 208.593C-0.352218 207.266 -2.18828 206.876 -3.65071 207.729Z" fill="#E1CCFF"/>
<path d="M288.087 257.209C287.018 257.833 286.617 259.102 287.183 260.073C287.749 261.044 289.051 261.32 290.121 260.696C291.19 260.072 291.591 258.803 291.025 257.832C290.459 256.861 289.157 256.585 288.087 257.209Z" fill="#E1CCFF"/>
<path d="M275.591 254.592C274.543 255.203 274.143 256.472 274.697 257.424C275.252 258.375 276.554 258.651 277.602 258.04C278.649 257.429 279.05 256.16 278.495 255.209C277.941 254.257 276.639 253.981 275.591 254.592Z" fill="#E1CCFF"/>
<path d="M262.924 251.626C261.68 252.351 261.207 253.848 261.866 254.978C262.525 256.107 264.06 256.433 265.304 255.707C266.548 254.982 267.021 253.485 266.362 252.355C265.704 251.226 264.168 250.9 262.924 251.626Z" fill="#E1CCFF"/>
<path d="M250.184 248.592C248.722 249.445 248.157 251.235 248.931 252.563C249.705 253.89 251.541 254.28 253.004 253.427C254.466 252.574 255.031 250.784 254.257 249.456C253.483 248.129 251.647 247.739 250.184 248.592Z" fill="#E1CCFF"/>
<path d="M237.536 245.665C235.909 246.614 235.288 248.581 236.149 250.059C237.011 251.536 239.029 251.964 240.656 251.015C242.284 250.066 242.904 248.099 242.043 246.622C241.181 245.144 239.164 244.716 237.536 245.665Z" fill="#E1CCFF"/>
<path d="M225.064 243.089C223.471 244.018 222.865 245.938 223.709 247.385C224.552 248.831 226.522 249.249 228.115 248.32C229.709 247.39 230.315 245.47 229.471 244.024C228.627 242.578 226.658 242.16 225.064 243.089Z" fill="#E1CCFF"/>
<path d="M212.384 240.103C210.594 241.147 209.916 243.295 210.863 244.919C211.811 246.544 214.014 247.012 215.804 245.968C217.594 244.924 218.272 242.776 217.324 241.151C216.377 239.527 214.173 239.059 212.384 240.103Z" fill="#E1CCFF"/>
<path d="M199.758 237.216C197.838 238.336 197.098 240.679 198.115 242.423C199.132 244.166 201.535 244.676 203.456 243.556C205.377 242.436 206.116 240.093 205.1 238.349C204.083 236.605 201.679 236.095 199.758 237.216Z" fill="#E1CCFF"/>
<path d="M187.333 234.716C185.499 235.786 184.779 238.011 185.761 239.696C186.743 241.38 189.013 241.861 190.869 240.779C192.724 239.697 193.422 237.484 192.44 235.8C191.458 234.116 189.188 233.634 187.333 234.716Z" fill="#E1CCFF"/>
<path d="M174.755 231.909C172.835 233.029 172.095 235.372 173.112 237.116C174.129 238.86 176.532 239.37 178.453 238.249C180.374 237.129 181.114 234.786 180.097 233.042C179.08 231.299 176.676 230.789 174.755 231.909Z" fill="#E1CCFF"/>
<path d="M162.097 229.013C160.012 230.23 159.216 232.75 160.32 234.643C161.425 236.537 164.01 237.085 166.096 235.869C168.181 234.653 168.977 232.132 167.873 230.239C166.769 228.346 164.183 227.797 162.097 229.013Z" fill="#E1CCFF"/>
<path d="M149.567 226.285C147.445 227.523 146.636 230.087 147.759 232.013C148.882 233.939 151.513 234.497 153.634 233.26C155.756 232.022 156.565 229.458 155.442 227.532C154.319 225.606 151.688 225.048 149.567 226.285Z" fill="#E1CCFF"/>
<path d="M136.614 224.205C134.809 225.648 134.454 228.12 135.821 229.726C137.188 231.331 139.759 231.462 141.564 230.019C143.369 228.575 143.725 226.103 142.358 224.498C140.991 222.892 138.419 222.761 136.614 224.205Z" fill="#E1CCFF"/>
<path d="M124.563 220.979C122.446 222.213 121.635 224.784 122.755 226.706C123.876 228.628 126.514 229.188 128.631 227.953C130.748 226.718 131.56 224.147 130.439 222.225C129.318 220.303 126.68 219.744 124.563 220.979Z" fill="#E1CCFF"/>
<path d="M112.077 218.329C109.96 219.564 109.148 222.135 110.269 224.057C111.39 225.979 114.027 226.538 116.144 225.304C118.262 224.069 119.073 221.498 117.952 219.576C116.831 217.654 114.194 217.094 112.077 218.329Z" fill="#E1CCFF"/>
<path d="M99.7089 215.931C97.7319 217.084 96.9777 219.474 98.0244 221.268C99.071 223.063 101.522 223.583 103.499 222.43C105.476 221.277 106.23 218.888 105.184 217.093C104.137 215.298 101.686 214.778 99.7089 215.931Z" fill="#E1CCFF"/>
<path d="M87.1082 213.084C85.0227 214.3 84.2271 216.821 85.3312 218.714C86.4353 220.607 89.0209 221.156 91.1064 219.939C93.1919 218.723 93.9875 216.202 92.8835 214.309C91.7794 212.416 89.1937 211.867 87.1082 213.084Z" fill="#E1CCFF"/>
<path d="M74.683 210.585C72.6749 211.757 71.9148 214.165 72.9779 215.988C74.041 217.811 76.5114 218.335 78.5195 217.164C80.5276 215.993 81.2877 213.584 80.2246 211.761C79.1615 209.939 76.6911 209.414 74.683 210.585Z" fill="#E1CCFF"/>
<path d="M62.3586 208.213C60.5251 209.282 59.8484 211.482 60.8075 213.127C61.7667 214.771 64.0367 215.253 65.8484 214.196C67.66 213.14 68.3585 210.927 67.3994 209.282C66.4403 207.638 64.1702 207.156 62.3586 208.213Z" fill="#E1CCFF"/>
<path d="M49.9447 205.735C48.2203 206.741 47.5847 208.811 48.4861 210.356C49.3874 211.902 51.5239 212.355 53.2264 211.362C54.929 210.369 55.5864 208.286 54.685 206.741C53.7837 205.195 51.6472 204.742 49.9447 205.735Z" fill="#E1CCFF"/>
<path d="M37.4016 202.985C35.6295 204.019 34.9535 206.16 35.8917 207.769C36.8298 209.378 39.0269 209.844 40.799 208.81C42.571 207.777 43.247 205.635 42.3089 204.027C41.3707 202.418 39.1737 201.952 37.4016 202.985Z" fill="#E1CCFF"/>
<path d="M25.0674 200.647C23.474 201.577 22.868 203.497 23.7115 204.943C24.5551 206.39 26.5247 206.808 28.1181 205.878C29.7115 204.949 30.3175 203.029 29.4739 201.583C28.6304 200.136 26.6608 199.718 25.0674 200.647Z" fill="#E1CCFF"/>
<path d="M12.7669 198.313C11.3699 199.128 10.8358 200.82 11.5753 202.088C12.3149 203.356 14.0508 203.725 15.4478 202.91C16.8447 202.095 17.3788 200.403 16.6393 199.135C15.8997 197.867 14.1638 197.498 12.7669 198.313Z" fill="#E1CCFF"/>
<path d="M0.224785 195.565C-1.21582 196.405 -1.77049 198.162 -1.00783 199.47C-0.245158 200.778 1.55752 201.16 2.99812 200.32C4.43873 199.48 4.99343 197.723 4.23076 196.415C3.46809 195.107 1.66539 194.725 0.224785 195.565Z" fill="#E1CCFF"/>
<path d="M304.875 248.427C304.264 248.784 304.038 249.5 304.362 250.054C304.685 250.609 305.42 250.765 306.031 250.409C306.642 250.052 306.868 249.336 306.545 248.782C306.221 248.227 305.487 248.071 304.875 248.427Z" fill="#E1CCFF"/>
<path d="M292.149 245.415C291.32 245.899 291.001 246.908 291.44 247.661C291.879 248.414 292.914 248.633 293.744 248.15C294.573 247.666 294.892 246.657 294.452 245.904C294.013 245.151 292.978 244.932 292.149 245.415Z" fill="#E1CCFF"/>
<path d="M279.467 242.428C278.441 243.027 278.05 244.263 278.594 245.194C279.137 246.126 280.405 246.395 281.431 245.797C282.457 245.198 282.847 243.962 282.304 243.03C281.761 242.099 280.492 241.83 279.467 242.428Z" fill="#E1CCFF"/>
<path d="M266.959 239.791C265.933 240.389 265.543 241.626 266.086 242.557C266.629 243.488 267.898 243.757 268.924 243.159C269.95 242.561 270.34 241.324 269.797 240.393C269.254 239.461 267.985 239.192 266.959 239.791Z" fill="#E1CCFF"/>
<path d="M254.279 236.805C253.057 237.517 252.594 238.982 253.241 240.091C253.889 241.201 255.391 241.52 256.613 240.807C257.835 240.094 258.298 238.63 257.651 237.52C257.003 236.41 255.501 236.092 254.279 236.805Z" fill="#E1CCFF"/>
<path d="M241.621 233.911C240.246 234.713 239.701 236.386 240.44 237.654C241.18 238.922 242.882 239.283 244.279 238.469C245.676 237.654 246.2 235.994 245.46 234.726C244.721 233.458 243.018 233.097 241.621 233.911Z" fill="#E1CCFF"/>
<path d="M228.917 230.885C227.324 231.814 226.718 233.734 227.561 235.181C228.405 236.627 230.374 237.045 231.968 236.116C233.561 235.186 234.167 233.266 233.324 231.82C232.48 230.373 230.51 229.955 228.917 230.885Z" fill="#E1CCFF"/>
<path d="M216.456 228.326C214.906 229.23 214.32 231.085 215.141 232.492C215.961 233.899 217.864 234.303 219.414 233.399C220.964 232.495 221.549 230.64 220.729 229.233C219.908 227.826 218.005 227.422 216.456 228.326Z" fill="#E1CCFF"/>
<path d="M203.398 225.815C201.908 227.006 201.615 229.046 202.743 230.371C203.871 231.696 205.993 231.804 207.483 230.613C208.973 229.422 209.266 227.382 208.138 226.057C207.01 224.731 204.887 224.623 203.398 225.815Z" fill="#E1CCFF"/>
<path d="M191.277 222.671C189.529 223.69 188.862 225.803 189.788 227.39C190.713 228.976 192.88 229.436 194.628 228.417C196.376 227.397 197.043 225.285 196.118 223.698C195.192 222.111 193.025 221.651 191.277 222.671Z" fill="#E1CCFF"/>
<path d="M178.771 220.035C177.023 221.054 176.356 223.167 177.281 224.754C178.207 226.341 180.374 226.801 182.122 225.781C183.87 224.762 184.537 222.649 183.611 221.062C182.686 219.476 180.519 219.016 178.771 220.035Z" fill="#E1CCFF"/>
<path d="M166.205 217.247C164.371 218.316 163.695 220.516 164.654 222.161C165.613 223.805 167.883 224.287 169.695 223.231C171.506 222.174 172.205 219.961 171.246 218.316C170.286 216.672 168.016 216.19 166.205 217.247Z" fill="#E1CCFF"/>
<path d="M153.663 214.551C151.806 215.633 151.098 217.877 152.081 219.563C153.064 221.248 155.365 221.736 157.222 220.653C159.078 219.571 159.787 217.327 158.804 215.642C157.821 213.957 155.519 213.468 153.663 214.551Z" fill="#E1CCFF"/>
<path d="M141.038 211.663C139.029 212.834 138.269 215.242 139.332 217.065C140.396 218.888 142.866 219.412 144.874 218.241C146.882 217.07 147.642 214.661 146.579 212.839C145.516 211.016 143.046 210.491 141.038 211.663Z" fill="#E1CCFF"/>
<path d="M128.635 209.205C126.758 210.3 126.039 212.578 127.033 214.282C128.027 215.986 130.364 216.482 132.241 215.387C134.118 214.292 134.837 212.014 133.843 210.31C132.849 208.606 130.513 208.11 128.635 209.205Z" fill="#E1CCFF"/>
<path d="M116.172 206.593C114.316 207.675 113.608 209.919 114.591 211.605C115.573 213.29 117.875 213.778 119.732 212.695C121.588 211.613 122.296 209.369 121.313 207.684C120.331 205.999 118.029 205.51 116.172 206.593Z" fill="#E1CCFF"/>
<path d="M103.561 203.728C101.584 204.881 100.829 207.271 101.876 209.065C102.923 210.86 105.374 211.38 107.351 210.227C109.328 209.074 110.082 206.685 109.035 204.89C107.989 203.095 105.538 202.575 103.561 203.728Z" fill="#E1CCFF"/>
<path d="M91.2278 201.386C89.4379 202.43 88.76 204.578 89.7075 206.202C90.6551 207.827 92.8584 208.295 94.6482 207.251C96.438 206.207 97.116 204.059 96.1684 202.434C95.2209 200.81 93.0176 200.342 91.2278 201.386Z" fill="#E1CCFF"/>
<path d="M78.7771 198.798C77.0292 199.817 76.3623 201.93 77.2877 203.517C78.2131 205.103 80.3803 205.563 82.1283 204.544C83.8762 203.524 84.543 201.412 83.6177 199.825C82.6923 198.238 80.5251 197.778 78.7771 198.798Z" fill="#E1CCFF"/>
<path d="M66.3847 196.358C64.7573 197.307 64.1365 199.274 64.998 200.751C65.8596 202.228 67.8773 202.657 69.5047 201.708C71.1321 200.758 71.753 198.791 70.8914 197.314C70.0299 195.837 68.0121 195.409 66.3847 196.358Z" fill="#E1CCFF"/>
<path d="M53.8876 193.689C52.2506 194.644 51.6343 196.596 52.501 198.082C53.3676 199.568 55.3706 199.993 57.0076 199.039C58.6447 198.084 59.261 196.131 58.3943 194.645C57.5277 193.159 55.5247 192.734 53.8876 193.689Z" fill="#E1CCFF"/>
<path d="M41.4855 191.231C39.9575 192.122 39.3939 193.964 40.1912 195.331C40.9886 196.698 42.8914 197.102 44.3975 196.224C45.9035 195.345 46.489 193.49 45.6917 192.123C44.8944 190.756 42.9915 190.352 41.4855 191.231Z" fill="#E1CCFF"/>
<path d="M29.1512 188.84C27.7979 189.629 27.274 191.289 27.9905 192.518C28.7069 193.746 30.4095 194.107 31.7628 193.318C33.1161 192.529 33.6399 190.869 32.9235 189.641C32.207 188.412 30.5045 188.051 29.1512 188.84Z" fill="#E1CCFF"/>
<path d="M16.5975 186.122C15.2005 186.936 14.6664 188.629 15.4059 189.897C16.1455 191.165 17.8814 191.533 19.2784 190.719C20.6753 189.904 21.2094 188.212 20.4699 186.944C19.7303 185.675 17.9944 185.307 16.5975 186.122Z" fill="#E1CCFF"/>
<path d="M4.3082 183.811C3.12952 184.498 2.67757 185.93 3.30157 187C3.92557 188.07 5.39441 188.382 6.57309 187.695C7.75176 187.007 8.20371 185.575 7.57971 184.505C6.95571 183.435 5.48687 183.124 4.3082 183.811Z" fill="#E1CCFF"/>
<path d="M321.422 239.282C321.051 239.499 320.907 239.954 321.103 240.291C321.3 240.628 321.767 240.727 322.138 240.511C322.509 240.294 322.653 239.839 322.456 239.502C322.26 239.165 321.793 239.066 321.422 239.282Z" fill="#E1CCFF"/>
<path d="M308.719 236.257C308.107 236.614 307.882 237.33 308.205 237.885C308.529 238.439 309.263 238.595 309.874 238.239C310.485 237.882 310.711 237.166 310.388 236.612C310.064 236.057 309.33 235.901 308.719 236.257Z" fill="#E1CCFF"/>
<path d="M296.243 233.627C295.664 233.964 295.444 234.663 295.75 235.189C296.056 235.714 296.774 235.866 297.352 235.529C297.931 235.191 298.152 234.492 297.845 233.967C297.539 233.441 296.822 233.289 296.243 233.627Z" fill="#E1CCFF"/>
<path d="M283.505 230.594C282.697 231.065 282.367 232.054 282.806 232.807C283.246 233.559 284.247 233.772 285.077 233.288C285.906 232.805 286.214 231.828 285.775 231.075C285.336 230.322 284.334 230.11 283.505 230.594Z" fill="#E1CCFF"/>
<path d="M270.812 227.587C269.786 228.186 269.396 229.422 269.939 230.354C270.482 231.285 271.75 231.554 272.776 230.956C273.802 230.358 274.192 229.121 273.649 228.19C273.106 227.258 271.838 226.989 270.812 227.587Z" fill="#E1CCFF"/>
<path d="M258.351 225.029C257.369 225.602 256.999 226.773 257.519 227.665C258.039 228.557 259.241 228.812 260.223 228.239C261.206 227.666 261.575 226.494 261.055 225.603C260.535 224.711 259.334 224.456 258.351 225.029Z" fill="#E1CCFF"/>
<path d="M245.658 222.025C244.479 222.712 244.027 224.144 244.651 225.214C245.275 226.284 246.744 226.596 247.923 225.908C249.101 225.221 249.553 223.789 248.929 222.719C248.305 221.649 246.836 221.337 245.658 222.025Z" fill="#E1CCFF"/>
<path d="M233 219.129C231.647 219.918 231.133 221.545 231.85 222.774C232.566 224.002 234.235 224.356 235.589 223.567C236.942 222.778 237.456 221.151 236.739 219.922C236.023 218.694 234.354 218.34 233 219.129Z" fill="#E1CCFF"/>
<path d="M220.388 216.262C218.926 217.115 218.361 218.905 219.135 220.232C219.909 221.56 221.745 221.95 223.208 221.097C224.67 220.244 225.235 218.454 224.461 217.126C223.687 215.799 221.851 215.409 220.388 216.262Z" fill="#E1CCFF"/>
<path d="M207.974 213.783C206.621 214.573 206.097 216.232 206.814 217.461C207.53 218.689 209.233 219.051 210.586 218.261C211.939 217.472 212.463 215.812 211.747 214.584C211.03 213.356 209.328 212.994 207.974 213.783Z" fill="#E1CCFF"/>
<path d="M195.305 210.818C193.75 211.725 193.156 213.604 193.98 215.016C194.803 216.428 196.731 216.837 198.286 215.93C199.841 215.023 200.434 213.143 199.611 211.732C198.788 210.32 196.86 209.911 195.305 210.818Z" fill="#E1CCFF"/>
<path d="M182.715 207.989C181.063 208.953 180.433 210.949 181.308 212.448C182.182 213.947 184.229 214.382 185.881 213.419C187.533 212.455 188.163 210.459 187.288 208.96C186.414 207.461 184.366 207.026 182.715 207.989Z" fill="#E1CCFF"/>
<path d="M170.335 205.57C168.807 206.461 168.243 208.303 169.04 209.67C169.838 211.037 171.74 211.441 173.247 210.563C174.753 209.684 175.338 207.829 174.541 206.462C173.743 205.095 171.841 204.691 170.335 205.57Z" fill="#E1CCFF"/>
<path d="M157.689 202.644C156.008 203.625 155.371 205.642 156.261 207.168C157.151 208.694 159.232 209.153 160.913 208.173C162.593 207.192 163.23 205.175 162.329 203.629C161.427 202.084 159.369 201.664 157.689 202.644Z" fill="#E1CCFF"/>
<path d="M145.123 199.909C143.399 200.914 142.72 203.01 143.644 204.595C144.569 206.18 146.705 206.633 148.451 205.615C150.198 204.597 150.855 202.514 149.93 200.929C149.006 199.344 146.87 198.89 145.123 199.909Z" fill="#E1CCFF"/>
<path d="M132.638 197.257C130.914 198.263 130.235 200.358 131.159 201.944C132.084 203.529 134.22 203.982 135.966 202.964C137.713 201.945 138.37 199.863 137.446 198.277C136.521 196.692 134.385 196.239 132.638 197.257Z" fill="#E1CCFF"/>
<path d="M120.118 194.601C118.383 195.613 117.72 197.712 118.639 199.287C119.558 200.863 121.711 201.32 123.446 200.307C125.182 199.295 125.845 197.197 124.926 195.621C124.007 194.045 121.854 193.589 120.118 194.601Z" fill="#E1CCFF"/>
<path d="M107.692 192.05C106.016 193.027 105.377 195.052 106.264 196.574C107.151 198.095 109.229 198.535 110.904 197.558C112.58 196.581 113.219 194.556 112.332 193.035C111.445 191.514 109.367 191.073 107.692 192.05Z" fill="#E1CCFF"/>
<path d="M95.2402 189.461C93.6128 190.41 92.9919 192.377 93.8535 193.855C94.7151 195.332 96.7328 195.76 98.3602 194.811C99.9876 193.862 100.608 191.895 99.7469 190.418C98.8853 188.94 96.8676 188.512 95.2402 189.461Z" fill="#E1CCFF"/>
<path d="M82.8962 187.103C81.4556 187.943 80.9009 189.701 81.6636 191.008C82.4263 192.316 84.2289 192.699 85.6695 191.858C87.1101 191.018 87.6648 189.261 86.9022 187.953C86.1395 186.645 84.3368 186.263 82.8962 187.103Z" fill="#E1CCFF"/>
<path d="M70.3067 184.273C68.757 185.177 68.1612 187.064 68.9816 188.471C69.8021 189.878 71.7383 190.289 73.288 189.385C74.8378 188.481 75.4335 186.594 74.6131 185.187C73.7926 183.78 71.8564 183.369 70.3067 184.273Z" fill="#E1CCFF"/>
<path d="M57.904 181.815C56.4634 182.655 55.9087 184.412 56.6714 185.72C57.4341 187.028 59.2368 187.41 60.6774 186.57C62.118 185.73 62.6726 183.973 61.91 182.665C61.1473 181.357 59.3446 180.975 57.904 181.815Z" fill="#E1CCFF"/>
<path d="M45.6147 179.503C44.3706 180.228 43.8981 181.725 44.5567 182.855C45.2154 183.984 46.751 184.31 47.9952 183.584C49.2393 182.859 49.7119 181.362 49.0532 180.232C48.3945 179.103 46.8589 178.777 45.6147 179.503Z" fill="#E1CCFF"/>
<path d="M33.0277 176.729C31.7181 177.493 31.2148 179.087 31.9081 180.276C32.6014 181.465 34.2372 181.812 35.5468 181.048C36.8565 180.285 37.3598 178.69 36.6665 177.501C35.9731 176.312 34.3374 175.965 33.0277 176.729Z" fill="#E1CCFF"/>
<path d="M20.6915 174.335C19.5347 175.01 19.1148 176.396 19.7157 177.427C20.3166 178.457 21.7521 178.762 22.8871 178.1C24.0221 177.438 24.4638 176.038 23.8629 175.008C23.262 173.978 21.8266 173.673 20.6915 174.335Z" fill="#E1CCFF"/>
<path d="M8.34657 171.975C7.37012 172.545 6.99758 173.725 7.51452 174.611C8.03146 175.498 9.24211 175.755 10.2186 175.185C11.195 174.616 11.5675 173.436 11.0506 172.549C10.5336 171.663 9.32301 171.406 8.34657 171.975Z" fill="#E1CCFF"/>
<path d="M337.979 230.104C337.826 230.193 337.764 230.389 337.845 230.527C337.926 230.666 338.126 230.708 338.279 230.619C338.432 230.53 338.493 230.335 338.413 230.196C338.332 230.058 338.131 230.015 337.979 230.104Z" fill="#E1CCFF"/>
<path d="M325.493 227.457C325.34 227.546 325.279 227.741 325.36 227.88C325.441 228.018 325.641 228.061 325.794 227.972C325.946 227.883 326.008 227.688 325.927 227.549C325.846 227.41 325.646 227.368 325.493 227.457Z" fill="#E1CCFF"/>
<path d="M312.79 224.483C312.441 224.687 312.307 225.11 312.492 225.427C312.677 225.744 313.111 225.836 313.461 225.633C313.81 225.429 313.943 225.006 313.758 224.689C313.573 224.371 313.14 224.279 312.79 224.483Z" fill="#E1CCFF"/>
<path d="M300.085 221.454C299.506 221.791 299.286 222.491 299.592 223.016C299.898 223.541 300.616 223.693 301.194 223.356C301.773 223.018 301.994 222.319 301.687 221.794C301.381 221.269 300.664 221.116 300.085 221.454Z" fill="#E1CCFF"/>
<path d="M287.6 218.806C287.033 219.136 286.817 219.821 287.117 220.335C287.417 220.85 288.12 220.999 288.686 220.668C289.253 220.338 289.469 219.653 289.169 219.139C288.869 218.624 288.167 218.475 287.6 218.806Z" fill="#E1CCFF"/>
<path d="M274.92 215.871C274.177 216.304 273.89 217.215 274.283 217.889C274.676 218.563 275.61 218.761 276.353 218.328C277.095 217.895 277.382 216.984 276.989 216.31C276.596 215.637 275.662 215.438 274.92 215.871Z" fill="#E1CCFF"/>
<path d="M262.215 212.846C261.233 213.419 260.863 214.591 261.383 215.482C261.903 216.374 263.105 216.629 264.087 216.056C265.069 215.483 265.439 214.312 264.919 213.42C264.399 212.529 263.197 212.274 262.215 212.846Z" fill="#E1CCFF"/>
<path d="M249.766 210.308C248.871 210.83 248.521 211.936 248.995 212.748C249.469 213.561 250.604 213.802 251.499 213.28C252.394 212.758 252.743 211.651 252.269 210.839C251.796 210.027 250.661 209.786 249.766 210.308Z" fill="#E1CCFF"/>
<path d="M237.141 207.42C236.093 208.031 235.693 209.301 236.247 210.252C236.802 211.203 238.104 211.479 239.152 210.868C240.199 210.257 240.6 208.988 240.045 208.037C239.491 207.086 238.189 206.809 237.141 207.42Z" fill="#E1CCFF"/>
<path d="M224.495 204.547C223.317 205.235 222.865 206.667 223.489 207.737C224.113 208.807 225.581 209.118 226.76 208.431C227.939 207.743 228.391 206.312 227.767 205.242C227.143 204.172 225.674 203.86 224.495 204.547Z" fill="#E1CCFF"/>
<path d="M211.838 201.6C210.476 202.394 209.956 204.041 210.677 205.277C211.398 206.514 213.087 206.872 214.449 206.078C215.811 205.283 216.331 203.637 215.61 202.4C214.889 201.164 213.2 200.805 211.838 201.6Z" fill="#E1CCFF"/>
<path d="M199.411 199.099C198.145 199.837 197.64 201.379 198.322 202.548C199.004 203.717 200.573 204.05 201.861 203.299C203.149 202.548 203.631 201.019 202.95 199.85C202.268 198.681 200.699 198.348 199.411 199.099Z" fill="#E1CCFF"/>
<path d="M186.846 196.314C185.495 197.102 184.98 198.734 185.695 199.959C186.41 201.185 188.084 201.54 189.434 200.753C190.784 199.965 191.299 198.333 190.584 197.108C189.87 195.882 188.196 195.527 186.846 196.314Z" fill="#E1CCFF"/>
<path d="M174.186 193.366C172.658 194.258 172.094 196.1 172.891 197.467C173.689 198.834 175.592 199.238 177.098 198.36C178.604 197.481 179.189 195.626 178.392 194.259C177.595 192.892 175.692 192.488 174.186 193.366Z" fill="#E1CCFF"/>
<path d="M161.795 190.927C160.398 191.742 159.864 193.434 160.604 194.702C161.343 195.971 163.079 196.339 164.476 195.524C165.873 194.71 166.407 193.017 165.668 191.749C164.928 190.481 163.192 190.113 161.795 190.927Z" fill="#E1CCFF"/>
<path d="M149.275 188.22C147.84 189.056 147.293 190.79 148.052 192.092C148.812 193.395 150.59 193.772 152.025 192.935C153.459 192.099 154.007 190.365 153.247 189.063C152.488 187.761 150.709 187.383 149.275 188.22Z" fill="#E1CCFF"/>
<path d="M136.63 185.344C135.058 186.261 134.452 188.181 135.284 189.607C136.116 191.034 138.086 191.452 139.657 190.536C141.229 189.619 141.835 187.699 141.003 186.272C140.171 184.846 138.201 184.428 136.63 185.344Z" fill="#E1CCFF"/>
<path d="M124.157 182.715C122.602 183.622 122.008 185.502 122.832 186.914C123.655 188.325 125.583 188.734 127.138 187.827C128.693 186.921 129.286 185.041 128.463 183.629C127.64 182.218 125.712 181.808 124.157 182.715Z" fill="#E1CCFF"/>
<path d="M111.812 180.356C110.437 181.158 109.891 182.83 110.631 184.098C111.37 185.366 113.073 185.728 114.47 184.913C115.867 184.098 116.39 182.438 115.651 181.17C114.911 179.902 113.209 179.541 111.812 180.356Z" fill="#E1CCFF"/>
<path d="M99.349 177.746C97.9988 178.533 97.4838 180.165 98.1985 181.391C98.9133 182.616 100.587 182.972 101.937 182.184C103.288 181.397 103.803 179.765 103.088 178.539C102.373 177.314 100.699 176.959 99.349 177.746Z" fill="#E1CCFF"/>
<path d="M86.7595 174.918C85.3189 175.759 84.7642 177.516 85.5269 178.824C86.2896 180.131 88.0922 180.514 89.5328 179.674C90.9734 178.834 91.5281 177.076 90.7654 175.769C90.0028 174.461 88.2001 174.078 86.7595 174.918Z" fill="#E1CCFF"/>
<path d="M74.414 172.56C73.148 173.298 72.6434 174.84 73.3252 176.009C74.007 177.178 75.576 177.511 76.8638 176.76C78.1516 176.009 78.6344 174.48 77.9526 173.311C77.2708 172.142 75.7018 171.809 74.414 172.56Z" fill="#E1CCFF"/>
<path d="M62.0451 170.106C60.8882 170.78 60.4683 172.167 61.0692 173.197C61.6701 174.228 63.1056 174.532 64.2406 173.87C65.3756 173.208 65.8173 171.809 65.2164 170.779C64.6155 169.748 63.1801 169.444 62.0451 170.106Z" fill="#E1CCFF"/>
<path d="M49.4448 167.311C48.2007 168.037 47.7282 169.534 48.3868 170.663C49.0455 171.793 50.5811 172.119 51.8253 171.393C53.0694 170.667 53.5419 169.17 52.8833 168.041C52.2246 166.912 50.689 166.586 49.4448 167.311Z" fill="#E1CCFF"/>
<path d="M37.1673 165.018C36.1414 165.616 35.7511 166.853 36.2942 167.784C36.8373 168.716 38.1058 168.985 39.1317 168.386C40.1576 167.788 40.548 166.552 40.0048 165.62C39.4617 164.689 38.1932 164.42 37.1673 165.018Z" fill="#E1CCFF"/>
<path d="M24.7876 162.599C23.9076 163.112 23.5719 164.176 24.0378 164.974C24.5037 165.773 25.5947 166.005 26.4747 165.492C27.3547 164.978 27.6904 163.915 27.2246 163.116C26.7587 162.317 25.6676 162.085 24.7876 162.599Z" fill="#E1CCFF"/>
<path d="M12.4534 160.207C11.7301 160.629 11.4541 161.503 11.8371 162.16C12.22 162.816 13.1167 163.007 13.84 162.585C14.5633 162.163 14.8392 161.289 14.4563 160.632C14.0734 159.976 13.1767 159.785 12.4534 160.207Z" fill="#E1CCFF"/>
<path d="M-0.0886631 157.513C-0.836068 157.949 -1.12121 158.852 -0.725533 159.53C-0.329851 160.209 0.596821 160.406 1.34423 159.97C2.09163 159.534 2.37675 158.63 1.98107 157.952C1.58539 157.273 0.658741 157.077 -0.0886631 157.513Z" fill="#E1CCFF"/>
<path d="M329.347 215.303C329.216 215.379 329.143 215.555 329.223 215.693C329.304 215.832 329.471 215.868 329.624 215.778C329.777 215.689 329.828 215.527 329.747 215.388C329.666 215.249 329.5 215.214 329.347 215.303Z" fill="#E1CCFF"/>
<path d="M316.85 212.634C316.719 212.71 316.646 212.886 316.727 213.025C316.808 213.163 316.975 213.199 317.127 213.11C317.28 213.02 317.332 212.858 317.251 212.719C317.17 212.58 317.003 212.545 316.85 212.634Z" fill="#E1CCFF"/>
<path d="M304.135 209.642C303.785 209.845 303.652 210.268 303.837 210.585C304.022 210.903 304.456 210.995 304.805 210.791C305.155 210.587 305.288 210.164 305.103 209.847C304.918 209.53 304.485 209.438 304.135 209.642Z" fill="#E1CCFF"/>
<path d="M291.486 206.712C290.962 207.018 290.767 207.636 291.045 208.112C291.322 208.587 291.956 208.722 292.48 208.416C293.004 208.111 293.199 207.492 292.922 207.017C292.644 206.541 292.01 206.407 291.486 206.712Z" fill="#E1CCFF"/>
<path d="M279.003 204.064C278.479 204.369 278.284 204.988 278.561 205.463C278.839 205.939 279.473 206.073 279.997 205.768C280.521 205.462 280.716 204.844 280.438 204.368C280.161 203.893 279.527 203.758 279.003 204.064Z" fill="#E1CCFF"/>
<path d="M266.3 201.09C265.601 201.497 265.312 202.356 265.694 203.01C266.075 203.663 266.943 203.848 267.663 203.428C268.383 203.007 268.65 202.161 268.269 201.507C267.888 200.854 267.02 200.669 266.3 201.09Z" fill="#E1CCFF"/>
<path d="M253.698 198.243C252.869 198.727 252.55 199.736 252.99 200.489C253.429 201.242 254.464 201.461 255.293 200.978C256.122 200.494 256.441 199.485 256.002 198.732C255.563 197.979 254.528 197.76 253.698 198.243Z" fill="#E1CCFF"/>
<path d="M241.25 195.706C240.486 196.151 240.198 197.062 240.603 197.756C241.007 198.449 241.942 198.648 242.706 198.202C243.47 197.757 243.757 196.845 243.353 196.152C242.948 195.458 242.014 195.26 241.25 195.706Z" fill="#E1CCFF"/>
<path d="M228.555 192.698C227.579 193.267 227.206 194.448 227.723 195.334C228.24 196.22 229.451 196.477 230.427 195.908C231.403 195.338 231.776 194.158 231.259 193.272C230.742 192.385 229.531 192.128 228.555 192.698Z" fill="#E1CCFF"/>
<path d="M215.956 189.903C214.887 190.527 214.486 191.796 215.052 192.767C215.619 193.738 216.921 194.014 217.99 193.39C219.06 192.767 219.46 191.498 218.894 190.527C218.328 189.556 217.026 189.279 215.956 189.903Z" fill="#E1CCFF"/>
<path d="M203.357 187.056C202.175 187.745 201.724 189.173 202.35 190.245C202.975 191.318 204.44 191.629 205.621 190.94C206.803 190.251 207.253 188.823 206.628 187.75C206.003 186.678 204.538 186.367 203.357 187.056Z" fill="#E1CCFF"/>
<path d="M190.838 184.4C189.659 185.087 189.207 186.519 189.831 187.589C190.455 188.659 191.924 188.971 193.103 188.283C194.282 187.596 194.734 186.164 194.11 185.094C193.486 184.024 192.017 183.712 190.838 184.4Z" fill="#E1CCFF"/>
<path d="M178.317 181.689C177.095 182.402 176.633 183.867 177.28 184.976C177.927 186.086 179.429 186.405 180.652 185.692C181.874 184.979 182.336 183.514 181.689 182.405C181.042 181.295 179.54 180.976 178.317 181.689Z" fill="#E1CCFF"/>
<path d="M165.774 178.942C164.508 179.68 164.003 181.222 164.685 182.391C165.367 183.56 166.936 183.893 168.224 183.142C169.511 182.391 169.994 180.861 169.312 179.692C168.631 178.523 167.062 178.19 165.774 178.942Z" fill="#E1CCFF"/>
<path d="M153.255 176.286C151.989 177.025 151.484 178.567 152.166 179.736C152.848 180.905 154.417 181.238 155.705 180.487C156.992 179.736 157.475 178.206 156.793 177.037C156.112 175.868 154.543 175.535 153.255 176.286Z" fill="#E1CCFF"/>
<path d="M140.77 173.636C139.504 174.374 138.999 175.916 139.681 177.085C140.363 178.255 141.932 178.587 143.22 177.836C144.508 177.085 144.99 175.556 144.309 174.387C143.627 173.218 142.058 172.885 140.77 173.636Z" fill="#E1CCFF"/>
<path d="M128.264 170.997C126.998 171.735 126.493 173.278 127.175 174.447C127.857 175.616 129.426 175.949 130.713 175.198C132.001 174.447 132.484 172.917 131.802 171.748C131.12 170.579 129.551 170.246 128.264 170.997Z" fill="#E1CCFF"/>
<path d="M115.824 168.429C114.606 169.139 114.142 170.61 114.786 171.715C115.431 172.821 116.94 173.141 118.158 172.431C119.376 171.721 119.84 170.249 119.195 169.144C118.551 168.039 117.041 167.718 115.824 168.429Z" fill="#E1CCFF"/>
<path d="M103.306 165.771C102.089 166.481 101.624 167.953 102.269 169.058C102.913 170.163 104.423 170.484 105.64 169.774C106.858 169.064 107.322 167.592 106.678 166.487C106.033 165.382 104.524 165.061 103.306 165.771Z" fill="#E1CCFF"/>
<path d="M90.8898 163.24C89.7329 163.915 89.3131 165.302 89.914 166.332C90.5148 167.362 91.9503 167.667 93.0853 167.005C94.2203 166.343 94.662 164.944 94.0612 163.913C93.4603 162.883 92.0248 162.578 90.8898 163.24Z" fill="#E1CCFF"/>
<path d="M78.4739 160.71C77.4043 161.334 77.0037 162.603 77.57 163.574C78.1362 164.545 79.4381 164.821 80.5077 164.197C81.5772 163.573 81.9778 162.304 81.4116 161.333C80.8453 160.362 79.5434 160.086 78.4739 160.71Z" fill="#E1CCFF"/>
<path d="M65.9675 158.075C64.898 158.699 64.4974 159.968 65.0636 160.939C65.6298 161.91 66.9318 162.186 68.0013 161.562C69.0709 160.939 69.4714 159.669 68.9052 158.698C68.339 157.728 67.0371 157.451 65.9675 158.075Z" fill="#E1CCFF"/>
<path d="M53.5731 155.583C52.6127 156.143 52.2532 157.282 52.7617 158.154C53.2701 159.026 54.4385 159.274 55.3989 158.713C56.3593 158.153 56.7188 157.014 56.2104 156.142C55.702 155.271 54.5335 155.023 53.5731 155.583Z" fill="#E1CCFF"/>
<path d="M41.1817 153.145C40.3523 153.628 40.0339 154.637 40.473 155.39C40.9121 156.143 41.947 156.363 42.7764 155.879C43.6058 155.395 43.9242 154.386 43.4851 153.634C43.046 152.881 42.0112 152.661 41.1817 153.145Z" fill="#E1CCFF"/>
<path d="M28.9164 150.872C28.3052 151.228 28.0793 151.944 28.4028 152.499C28.7264 153.054 29.4608 153.209 30.072 152.853C30.6831 152.497 30.9091 151.781 30.5856 151.226C30.262 150.671 29.5276 150.515 28.9164 150.872Z" fill="#E1CCFF"/>
<path d="M16.3284 148.096C15.6533 148.49 15.3958 149.306 15.7532 149.918C16.1106 150.531 16.9476 150.709 17.6226 150.315C18.2977 149.921 18.5553 149.106 18.1979 148.493C17.8405 147.88 17.0035 147.702 16.3284 148.096Z" fill="#E1CCFF"/>
<path d="M3.99369 145.702C3.46983 146.008 3.27464 146.626 3.55197 147.102C3.82931 147.577 4.46361 147.712 4.98747 147.407C5.51132 147.101 5.70646 146.483 5.42913 146.007C5.15179 145.532 4.51754 145.397 3.99369 145.702Z" fill="#E1CCFF"/>
<path d="M320.704 200.482C320.573 200.558 320.543 200.708 320.601 200.807C320.659 200.906 320.826 200.942 320.935 200.878C321.044 200.814 321.095 200.652 321.038 200.553C320.98 200.454 320.813 200.418 320.704 200.482Z" fill="#E1CCFF"/>
<path d="M308.263 197.912C308.263 197.912 308.166 198.048 308.201 198.107C308.235 198.167 308.336 198.188 308.401 198.15C308.467 198.111 308.498 198.014 308.463 197.954C308.429 197.895 308.328 197.874 308.263 197.912Z" fill="#E1CCFF"/>
<path d="M295.537 194.898C295.232 195.076 295.119 195.434 295.281 195.711C295.442 195.989 295.81 196.067 296.115 195.888C296.421 195.71 296.534 195.352 296.372 195.075C296.21 194.797 295.843 194.719 295.537 194.898Z" fill="#E1CCFF"/>
<path d="M282.89 191.972C282.432 192.239 282.257 192.792 282.5 193.208C282.743 193.625 283.31 193.745 283.768 193.478C284.227 193.21 284.401 192.657 284.159 192.241C283.916 191.825 283.349 191.704 282.89 191.972Z" fill="#E1CCFF"/>
<path d="M270.463 189.422C270.07 189.651 269.926 190.107 270.134 190.464C270.342 190.82 270.809 190.919 271.202 190.69C271.595 190.461 271.739 190.006 271.531 189.649C271.323 189.292 270.855 189.193 270.463 189.422Z" fill="#E1CCFF"/>
<path d="M257.816 186.547C257.286 186.856 257.084 187.497 257.364 187.979C257.645 188.46 258.303 188.6 258.833 188.29C259.364 187.981 259.566 187.34 259.285 186.858C259.004 186.377 258.347 186.237 257.816 186.547Z" fill="#E1CCFF"/>
<path d="M245.113 183.522C244.354 183.965 244.064 184.883 244.466 185.572C244.868 186.262 245.81 186.461 246.569 186.019C247.328 185.576 247.618 184.658 247.216 183.968C246.814 183.279 245.872 183.079 245.113 183.522Z" fill="#E1CCFF"/>
<path d="M232.687 181.021C232.01 181.415 231.753 182.229 232.112 182.843C232.47 183.457 233.304 183.635 233.981 183.24C234.658 182.845 234.914 182.032 234.556 181.418C234.198 180.803 233.363 180.626 232.687 181.021Z" fill="#E1CCFF"/>
<path d="M220.109 178.215C219.349 178.658 219.059 179.576 219.461 180.266C219.864 180.955 220.805 181.155 221.565 180.712C222.324 180.269 222.614 179.351 222.212 178.662C221.81 177.972 220.868 177.772 220.109 178.215Z" fill="#E1CCFF"/>
<path d="M207.394 175.221C206.418 175.791 206.045 176.971 206.562 177.857C207.079 178.744 208.29 179.001 209.266 178.431C210.243 177.862 210.615 176.682 210.098 175.795C209.581 174.909 208.371 174.652 207.394 175.221Z" fill="#E1CCFF"/>
<path d="M194.827 172.434C193.779 173.045 193.379 174.314 193.933 175.265C194.488 176.216 195.79 176.493 196.838 175.882C197.885 175.271 198.286 174.001 197.731 173.05C197.177 172.099 195.875 171.823 194.827 172.434Z" fill="#E1CCFF"/>
<path d="M182.459 170.033C181.565 170.555 181.215 171.662 181.689 172.474C182.163 173.286 183.298 173.527 184.193 173.005C185.088 172.483 185.437 171.377 184.963 170.564C184.489 169.752 183.354 169.511 182.459 170.033Z" fill="#E1CCFF"/>
<path d="M169.778 167.048C168.686 167.685 168.265 169.019 168.843 170.01C169.421 171 170.789 171.291 171.881 170.654C172.972 170.018 173.393 168.683 172.815 167.693C172.238 166.702 170.869 166.412 169.778 167.048Z" fill="#E1CCFF"/>
<path d="M157.269 164.36C156.148 165.013 155.72 166.368 156.314 167.386C156.907 168.404 158.297 168.699 159.419 168.045C160.54 167.391 160.967 166.036 160.374 165.018C159.78 164.001 158.39 163.706 157.269 164.36Z" fill="#E1CCFF"/>
<path d="M144.9 161.958C143.918 162.531 143.548 163.702 144.068 164.594C144.588 165.485 145.79 165.74 146.772 165.168C147.754 164.595 148.124 163.423 147.604 162.532C147.084 161.64 145.882 161.385 144.9 161.958Z" fill="#E1CCFF"/>
<path d="M132.428 159.329C131.467 159.889 131.119 161.048 131.616 161.9C132.113 162.752 133.293 163.02 134.253 162.46C135.214 161.899 135.573 160.76 135.065 159.889C134.556 159.017 133.388 158.769 132.428 159.329Z" fill="#E1CCFF"/>
<path d="M119.771 156.436C118.674 157.076 118.255 158.401 118.836 159.397C119.417 160.393 120.777 160.682 121.874 160.042C122.971 159.402 123.389 158.076 122.809 157.08C122.228 156.085 120.868 155.796 119.771 156.436Z" fill="#E1CCFF"/>
<path d="M107.355 153.906C106.329 154.504 105.939 155.741 106.482 156.672C107.025 157.603 108.293 157.872 109.319 157.274C110.345 156.676 110.735 155.439 110.192 154.508C109.649 153.577 108.381 153.307 107.355 153.906Z" fill="#E1CCFF"/>
<path d="M94.9976 151.527C94.1245 152.036 93.7958 153.078 94.258 153.87C94.7202 154.663 95.7885 154.889 96.6616 154.38C97.5347 153.871 97.8634 152.83 97.4012 152.037C96.9389 151.244 95.8707 151.018 94.9976 151.527Z" fill="#E1CCFF"/>
<path d="M82.3964 148.678C81.4199 149.248 81.0474 150.428 81.5643 151.314C82.0813 152.201 83.2919 152.458 84.2684 151.888C85.2448 151.319 85.6173 150.139 85.1004 149.252C84.5834 148.366 83.3728 148.109 82.3964 148.678Z" fill="#E1CCFF"/>
<path d="M70.0152 146.207C69.1421 146.716 68.8134 147.757 69.2756 148.55C69.7378 149.342 70.8061 149.569 71.6792 149.06C72.5523 148.551 72.881 147.509 72.4187 146.717C71.9565 145.924 70.8882 145.697 70.0152 146.207Z" fill="#E1CCFF"/>
<path d="M57.681 143.867C57.0043 144.262 56.7475 145.076 57.1057 145.69C57.464 146.304 58.2985 146.481 58.9752 146.087C59.6518 145.692 59.9086 144.878 59.5504 144.264C59.1922 143.65 58.3576 143.473 57.681 143.867Z" fill="#E1CCFF"/>
<path d="M45.3472 141.474C44.8233 141.78 44.6282 142.398 44.9055 142.873C45.1828 143.349 45.8171 143.484 46.341 143.178C46.8648 142.872 47.06 142.254 46.7827 141.779C46.5053 141.303 45.871 141.168 45.3472 141.474Z" fill="#E1CCFF"/>
<path d="M32.747 138.68C32.1358 139.037 31.9098 139.753 32.2334 140.307C32.5569 140.862 33.2914 141.018 33.9025 140.662C34.5137 140.305 34.7397 139.589 34.4161 139.034C34.0926 138.48 33.3581 138.324 32.747 138.68Z" fill="#E1CCFF"/>
<path d="M20.4812 136.407C20.1101 136.624 19.9663 137.079 20.1627 137.416C20.3592 137.753 20.8265 137.852 21.1976 137.636C21.5687 137.419 21.7125 136.964 21.516 136.627C21.3196 136.29 20.8522 136.191 20.4812 136.407Z" fill="#E1CCFF"/>
<path d="M8.12494 134.028C7.90667 134.156 7.82452 134.416 7.94008 134.614C8.05563 134.812 8.32267 134.869 8.54095 134.742C8.75922 134.614 8.8414 134.354 8.72585 134.156C8.61029 133.958 8.34322 133.901 8.12494 134.028Z" fill="#E1CCFF"/>
<path d="M312.106 185.742C312.106 185.742 312.009 185.878 312.044 185.937C312.079 185.997 312.179 186.018 312.245 185.98C312.31 185.941 312.341 185.844 312.306 185.784C312.272 185.725 312.172 185.704 312.106 185.742Z" fill="#E1CCFF"/>
<path d="M299.668 183.172C299.668 183.172 299.645 183.185 299.657 183.204C299.668 183.224 299.668 183.224 299.69 183.211C299.713 183.198 299.713 183.198 299.701 183.178C299.69 183.159 299.69 183.159 299.668 183.172Z" fill="#E1CCFF"/>
<path d="M286.986 180.235C286.789 180.35 286.717 180.578 286.821 180.756C286.925 180.934 287.159 180.984 287.356 180.869C287.552 180.755 287.624 180.527 287.52 180.349C287.416 180.17 287.182 180.121 286.986 180.235Z" fill="#E1CCFF"/>
<path d="M274.339 177.309C273.989 177.512 273.856 177.935 274.041 178.252C274.226 178.57 274.659 178.662 275.009 178.458C275.358 178.254 275.492 177.831 275.307 177.514C275.122 177.197 274.688 177.105 274.339 177.309Z" fill="#E1CCFF"/>
<path d="M261.842 174.64C261.493 174.843 261.359 175.266 261.544 175.583C261.729 175.9 262.163 175.993 262.512 175.789C262.862 175.585 262.995 175.162 262.81 174.845C262.625 174.528 262.191 174.436 261.842 174.64Z" fill="#E1CCFF"/>
<path d="M249.232 171.825C248.773 172.092 248.599 172.646 248.841 173.062C249.084 173.478 249.652 173.598 250.11 173.331C250.568 173.064 250.743 172.51 250.5 172.094C250.258 171.679 249.69 171.558 249.232 171.825Z" fill="#E1CCFF"/>
<path d="M236.632 168.978C236.043 169.322 235.839 170.025 236.139 170.54C236.44 171.055 237.174 171.211 237.742 170.88C238.309 170.549 238.535 169.833 238.235 169.318C237.934 168.803 237.2 168.647 236.632 168.978Z" fill="#E1CCFF"/>
<path d="M224.113 166.323C223.523 166.667 223.319 167.37 223.62 167.885C223.92 168.4 224.655 168.556 225.222 168.225C225.79 167.894 226.016 167.178 225.715 166.663C225.415 166.148 224.68 165.992 224.113 166.323Z" fill="#E1CCFF"/>
<path d="M211.535 163.514C210.858 163.909 210.602 164.722 210.96 165.336C211.318 165.951 212.153 166.128 212.829 165.733C213.506 165.339 213.763 164.525 213.404 163.911C213.046 163.296 212.212 163.119 211.535 163.514Z" fill="#E1CCFF"/>
<path d="M198.97 160.777C198.25 161.198 197.973 162.076 198.354 162.73C198.735 163.384 199.637 163.575 200.357 163.155C201.077 162.735 201.355 161.856 200.973 161.203C200.592 160.549 199.691 160.357 198.97 160.777Z" fill="#E1CCFF"/>
<path d="M186.311 157.83C185.407 158.357 185.062 159.45 185.541 160.271C186.019 161.092 187.14 161.329 188.044 160.802C188.948 160.275 189.293 159.182 188.815 158.361C188.336 157.541 187.215 157.303 186.311 157.83Z" fill="#E1CCFF"/>
<path d="M173.908 155.374C173.123 155.832 172.814 156.808 173.23 157.522C173.646 158.235 174.648 158.448 175.434 157.989C176.219 157.531 176.528 156.555 176.112 155.841C175.696 155.128 174.694 154.916 173.908 155.374Z" fill="#E1CCFF"/>
<path d="M161.4 152.682C160.592 153.153 160.262 154.142 160.702 154.895C161.141 155.648 162.142 155.861 162.972 155.377C163.801 154.893 164.109 153.917 163.67 153.164C163.231 152.411 162.229 152.199 161.4 152.682Z" fill="#E1CCFF"/>
<path d="M148.902 150.013C148.094 150.484 147.764 151.473 148.203 152.226C148.643 152.979 149.644 153.192 150.474 152.708C151.303 152.224 151.611 151.248 151.172 150.495C150.733 149.742 149.731 149.53 148.902 150.013Z" fill="#E1CCFF"/>
<path d="M136.396 147.378C135.588 147.849 135.258 148.838 135.698 149.591C136.137 150.344 137.138 150.556 137.968 150.072C138.797 149.589 139.105 148.612 138.666 147.859C138.227 147.107 137.226 146.894 136.396 147.378Z" fill="#E1CCFF"/>
<path d="M123.956 144.805C123.196 145.248 122.907 146.166 123.309 146.855C123.711 147.545 124.652 147.745 125.412 147.302C126.171 146.859 126.461 145.941 126.059 145.251C125.657 144.562 124.715 144.362 123.956 144.805Z" fill="#E1CCFF"/>
<path d="M111.474 142.209C110.754 142.629 110.477 143.508 110.858 144.162C111.239 144.816 112.141 145.007 112.861 144.587C113.581 144.167 113.859 143.288 113.477 142.634C113.096 141.98 112.195 141.789 111.474 142.209Z" fill="#E1CCFF"/>
<path d="M98.8496 139.323C97.9817 139.829 97.6506 140.878 98.1101 141.666C98.5696 142.454 99.6457 142.682 100.514 142.176C101.382 141.67 101.713 140.621 101.253 139.833C100.794 139.045 99.7176 138.817 98.8496 139.323Z" fill="#E1CCFF"/>
<path d="M86.5379 137.022C85.8831 137.404 85.6366 138.185 85.9833 138.779C86.3299 139.374 87.1311 139.544 87.7859 139.162C88.4408 138.78 88.6873 137.999 88.3406 137.404C87.9939 136.81 87.1928 136.64 86.5379 137.022Z" fill="#E1CCFF"/>
<path d="M74.1347 134.511C73.5672 134.842 73.3515 135.525 73.6519 136.04C73.9524 136.556 74.6534 136.704 75.2209 136.373C75.7884 136.042 76.0042 135.359 75.7037 134.844C75.4033 134.329 74.7022 134.18 74.1347 134.511Z" fill="#E1CCFF"/>
<path d="M61.7648 132.06C61.3187 132.32 61.1486 132.859 61.3847 133.264C61.6208 133.669 62.1738 133.787 62.6199 133.526C63.0659 133.266 63.2361 132.727 62.9999 132.322C62.7638 131.917 62.2108 131.8 61.7648 132.06Z" fill="#E1CCFF"/>
<path d="M49.2565 129.423C48.8199 129.678 48.6337 130.211 48.8764 130.628C49.1191 131.044 49.6532 131.157 50.1116 130.89C50.5699 130.622 50.7343 130.102 50.4916 129.686C50.249 129.269 49.7148 129.156 49.2565 129.423Z" fill="#E1CCFF"/>
<path d="M36.887 126.972C36.5596 127.163 36.4582 127.541 36.6199 127.818C36.7817 128.096 37.1823 128.181 37.4879 128.003C37.7935 127.824 37.9167 127.434 37.755 127.156C37.5932 126.879 37.1926 126.794 36.887 126.972Z" fill="#E1CCFF"/>
<path d="M24.4853 124.514C24.2889 124.628 24.217 124.856 24.321 125.034C24.425 125.213 24.6587 125.262 24.8551 125.148C25.0516 125.033 25.1235 124.805 25.0195 124.627C24.9155 124.449 24.6818 124.399 24.4853 124.514Z" fill="#E1CCFF"/>
<path d="M11.999 121.863C11.8026 121.978 11.7307 122.206 11.8347 122.384C11.9387 122.562 12.1723 122.612 12.3688 122.497C12.5652 122.383 12.6371 122.155 12.5331 121.977C12.4291 121.798 12.1954 121.749 11.999 121.863Z" fill="#E1CCFF"/>
<path d="M278.4 165.514C278.28 165.584 278.234 165.73 278.298 165.839C278.362 165.949 278.511 165.981 278.632 165.91C278.752 165.84 278.798 165.694 278.734 165.585C278.67 165.475 278.521 165.444 278.4 165.514Z" fill="#E1CCFF"/>
<path d="M265.765 162.608C265.499 162.763 265.398 163.083 265.539 163.324C265.679 163.565 266.008 163.635 266.273 163.48C266.538 163.325 266.639 163.005 266.499 162.764C266.359 162.523 266.03 162.454 265.765 162.608Z" fill="#E1CCFF"/>
<path d="M253.35 160.076C253.157 160.189 253.083 160.422 253.185 160.597C253.287 160.772 253.526 160.823 253.719 160.71C253.912 160.598 253.986 160.365 253.884 160.19C253.782 160.014 253.542 159.964 253.35 160.076Z" fill="#E1CCFF"/>
<path d="M240.669 157.143C240.298 157.36 240.154 157.815 240.351 158.152C240.547 158.489 241.015 158.588 241.386 158.372C241.757 158.156 241.9 157.7 241.704 157.363C241.508 157.026 241.04 156.927 240.669 157.143Z" fill="#E1CCFF"/>
<path d="M228.09 154.335C227.632 154.602 227.457 155.156 227.7 155.572C227.943 155.988 228.51 156.108 228.969 155.841C229.427 155.574 229.602 155.02 229.359 154.604C229.116 154.188 228.549 154.068 228.09 154.335Z" fill="#E1CCFF"/>
<path d="M215.677 151.855C215.327 152.059 215.194 152.482 215.379 152.799C215.564 153.116 215.998 153.208 216.347 153.005C216.696 152.801 216.83 152.378 216.645 152.061C216.46 151.744 216.026 151.652 215.677 151.855Z" fill="#E1CCFF"/>
<path d="M203.018 148.91C202.494 149.216 202.288 149.866 202.566 150.342C202.843 150.817 203.511 150.959 204.034 150.654C204.558 150.348 204.764 149.697 204.486 149.222C204.209 148.746 203.541 148.604 203.018 148.91Z" fill="#E1CCFF"/>
<path d="M190.441 146.155C189.83 146.511 189.604 147.227 189.928 147.782C190.251 148.337 190.986 148.493 191.597 148.136C192.208 147.78 192.434 147.064 192.11 146.509C191.787 145.954 191.052 145.798 190.441 146.155Z" fill="#E1CCFF"/>
<path d="M177.91 143.425C177.277 143.794 177.03 144.575 177.366 145.15C177.701 145.724 178.502 145.894 179.135 145.525C179.768 145.156 180.014 144.375 179.679 143.8C179.344 143.226 178.543 143.056 177.91 143.425Z" fill="#E1CCFF"/>
<path d="M165.542 141.027C165.04 141.32 164.855 141.905 165.12 142.361C165.386 142.817 165.987 142.944 166.489 142.652C166.991 142.359 167.176 141.773 166.91 141.317C166.644 140.862 166.044 140.734 165.542 141.027Z" fill="#E1CCFF"/>
<path d="M152.895 138.101C152.244 138.481 151.996 139.267 152.34 139.858C152.685 140.449 153.492 140.621 154.143 140.241C154.794 139.861 155.042 139.074 154.698 138.484C154.353 137.893 153.546 137.721 152.895 138.101Z" fill="#E1CCFF"/>
<path d="M140.421 135.471C139.788 135.84 139.542 136.621 139.877 137.195C140.212 137.77 141.013 137.94 141.646 137.571C142.279 137.202 142.526 136.421 142.191 135.846C141.855 135.271 141.054 135.101 140.421 135.471Z" fill="#E1CCFF"/>
<path d="M128.076 133.11C127.618 133.378 127.443 133.931 127.686 134.347C127.929 134.763 128.496 134.884 128.954 134.616C129.413 134.349 129.587 133.796 129.345 133.38C129.102 132.964 128.535 132.843 128.076 133.11Z" fill="#E1CCFF"/>
<path d="M115.476 130.263C114.886 130.607 114.682 131.31 114.982 131.825C115.283 132.341 116.017 132.496 116.585 132.165C117.152 131.834 117.378 131.119 117.078 130.603C116.777 130.088 116.043 129.932 115.476 130.263Z" fill="#E1CCFF"/>
<path d="M103.014 127.705C102.484 128.014 102.281 128.655 102.562 129.137C102.843 129.618 103.501 129.758 104.031 129.449C104.561 129.139 104.764 128.498 104.483 128.017C104.202 127.535 103.545 127.396 103.014 127.705Z" fill="#E1CCFF"/>
<path d="M90.5875 125.154C90.1294 125.422 89.9547 125.975 90.1972 126.391C90.4397 126.807 91.0076 126.927 91.4657 126.66C91.9238 126.393 92.0986 125.839 91.8561 125.424C91.6135 125.008 91.0456 124.887 90.5875 125.154Z" fill="#E1CCFF"/>
<path d="M78.2645 122.835C78.0026 122.988 77.8999 123.313 78.0386 123.551C78.1772 123.788 78.5111 123.859 78.773 123.707C79.0349 123.554 79.1376 123.228 78.999 122.991C78.8603 122.753 78.5265 122.682 78.2645 122.835Z" fill="#E1CCFF"/>
<path d="M65.6868 120.026C65.3372 120.23 65.2038 120.653 65.3889 120.97C65.574 121.287 66.0074 121.379 66.357 121.176C66.7066 120.972 66.84 120.549 66.6549 120.232C66.4698 119.914 66.0364 119.822 65.6868 120.026Z" fill="#E1CCFF"/>
<path d="M53.3178 117.577C53.0887 117.71 53.0014 117.987 53.1226 118.195C53.2439 118.403 53.5279 118.463 53.7569 118.33C53.9859 118.196 54.0733 117.919 53.9521 117.711C53.8308 117.503 53.5468 117.443 53.3178 117.577Z" fill="#E1CCFF"/>
<path d="M41.0064 115.275C41.0064 115.275 40.9841 115.288 40.9955 115.308C41.0069 115.327 41.0069 115.328 41.0292 115.315C41.0515 115.302 41.0515 115.301 41.0401 115.282C41.0287 115.262 41.0287 115.262 41.0064 115.275Z" fill="#E1CCFF"/>
<path d="M28.453 112.508C28.453 112.508 28.3351 112.656 28.3813 112.735C28.4274 112.815 28.5273 112.836 28.6144 112.785C28.7015 112.734 28.7323 112.637 28.6861 112.558C28.64 112.479 28.5401 112.457 28.453 112.508Z" fill="#E1CCFF"/>
<path d="M257.179 147.886C256.983 148 256.911 148.228 257.015 148.406C257.119 148.585 257.353 148.634 257.549 148.52C257.745 148.405 257.817 148.177 257.713 147.999C257.609 147.821 257.376 147.771 257.179 147.886Z" fill="#E1CCFF"/>
<path d="M244.81 145.436C244.81 145.436 244.713 145.572 244.748 145.632C244.782 145.691 244.883 145.712 244.948 145.674C245.014 145.636 245.045 145.538 245.01 145.479C244.975 145.419 244.875 145.398 244.81 145.436Z" fill="#E1CCFF"/>
<path d="M232.209 142.638C232.056 142.727 231.995 142.923 232.075 143.061C232.156 143.2 232.357 143.243 232.509 143.154C232.662 143.064 232.724 142.869 232.643 142.73C232.562 142.592 232.362 142.549 232.209 142.638Z" fill="#E1CCFF"/>
<path d="M219.54 139.671C219.191 139.875 219.057 140.298 219.242 140.615C219.427 140.932 219.861 141.024 220.21 140.82C220.559 140.616 220.693 140.193 220.508 139.876C220.323 139.559 219.889 139.467 219.54 139.671Z" fill="#E1CCFF"/>
<path d="M207.148 137.233C206.908 137.373 206.838 137.653 206.953 137.851C207.069 138.049 207.369 138.113 207.587 137.986C207.806 137.858 207.898 137.566 207.783 137.367C207.667 137.169 207.367 137.106 207.148 137.233Z" fill="#E1CCFF"/>
<path d="M194.605 134.486C194.322 134.651 194.23 134.996 194.369 135.234C194.508 135.472 194.875 135.55 195.137 135.397C195.399 135.244 195.512 134.886 195.373 134.649C195.234 134.411 194.867 134.333 194.605 134.486Z" fill="#E1CCFF"/>
<path d="M182.064 131.789C181.751 131.971 181.631 132.35 181.797 132.635C181.963 132.919 182.352 133.002 182.665 132.819C182.979 132.636 183.098 132.257 182.932 131.973C182.766 131.688 182.378 131.606 182.064 131.789Z" fill="#E1CCFF"/>
<path d="M169.394 128.823C168.892 129.115 168.707 129.701 168.972 130.157C169.238 130.613 169.839 130.74 170.341 130.447C170.843 130.155 171.028 129.569 170.762 129.113C170.497 128.657 169.896 128.53 169.394 128.823Z" fill="#E1CCFF"/>
<path d="M157.059 126.482C156.732 126.673 156.631 127.051 156.792 127.328C156.954 127.606 157.355 127.691 157.66 127.512C157.966 127.334 158.089 126.944 157.927 126.666C157.766 126.389 157.365 126.304 157.059 126.482Z" fill="#E1CCFF"/>
<path d="M144.563 123.811C144.236 124.002 144.134 124.38 144.296 124.657C144.458 124.935 144.859 125.02 145.164 124.841C145.47 124.663 145.593 124.273 145.431 123.995C145.269 123.718 144.869 123.633 144.563 123.811Z" fill="#E1CCFF"/>
<path d="M131.94 120.927C131.481 121.194 131.307 121.747 131.549 122.163C131.792 122.58 132.359 122.7 132.818 122.433C133.276 122.165 133.451 121.612 133.208 121.196C132.965 120.78 132.398 120.66 131.94 120.927Z" fill="#E1CCFF"/>
<path d="M119.594 118.567C119.31 118.732 119.219 119.077 119.358 119.315C119.497 119.553 119.864 119.631 120.126 119.478C120.388 119.325 120.501 118.967 120.362 118.73C120.223 118.492 119.856 118.414 119.594 118.567Z" fill="#E1CCFF"/>
<path d="M107.167 116.018C106.95 116.144 106.867 116.406 106.982 116.603C107.097 116.8 107.366 116.857 107.583 116.731C107.8 116.604 107.883 116.342 107.768 116.145C107.653 115.948 107.384 115.891 107.167 116.018Z" fill="#E1CCFF"/>
<path d="M94.7168 113.479C94.564 113.568 94.5024 113.764 94.5833 113.902C94.6642 114.041 94.8645 114.083 95.0173 113.994C95.1701 113.905 95.2317 113.71 95.1508 113.571C95.0699 113.433 94.8696 113.39 94.7168 113.479Z" fill="#E1CCFF"/>
<path d="M82.1166 110.631C81.8547 110.783 81.752 111.109 81.8906 111.347C82.0293 111.584 82.3631 111.655 82.625 111.502C82.887 111.35 82.9897 111.024 82.851 110.787C82.7123 110.549 82.3785 110.478 82.1166 110.631Z" fill="#E1CCFF"/>
<path d="M69.8165 108.351C69.8165 108.351 69.7521 108.442 69.7752 108.482C69.7983 108.521 69.8651 108.535 69.9089 108.51C69.9526 108.484 69.9732 108.419 69.9501 108.38C69.927 108.34 69.8602 108.326 69.8165 108.351Z" fill="#E1CCFF"/>
<path d="M44.8702 103.094C44.8702 103.094 44.8479 103.107 44.8593 103.126C44.8707 103.146 44.8707 103.146 44.893 103.133C44.9153 103.12 44.9153 103.12 44.9039 103.1C44.8925 103.081 44.8925 103.081 44.8702 103.094Z" fill="#E1CCFF"/>
<path d="M223.695 128.037C223.695 128.037 223.673 128.05 223.684 128.07C223.695 128.089 223.695 128.089 223.718 128.076C223.74 128.063 223.74 128.063 223.729 128.044C223.717 128.024 223.717 128.024 223.695 128.037Z" fill="#E1CCFF"/>
<path d="M211.139 125.267C211.139 125.267 211.021 125.415 211.067 125.494C211.113 125.573 211.213 125.595 211.3 125.544C211.388 125.493 211.418 125.396 211.372 125.316C211.326 125.237 211.226 125.216 211.139 125.267Z" fill="#E1CCFF"/>
<path d="M186.089 119.882C185.958 119.958 185.885 120.134 185.966 120.273C186.047 120.411 186.213 120.447 186.366 120.358C186.519 120.268 186.57 120.106 186.49 119.967C186.409 119.828 186.242 119.793 186.089 119.882Z" fill="#E1CCFF"/>
<path d="M173.559 117.206C173.406 117.295 173.344 117.49 173.425 117.629C173.506 117.767 173.706 117.81 173.859 117.721C174.012 117.632 174.073 117.437 173.993 117.298C173.912 117.159 173.711 117.117 173.559 117.206Z" fill="#E1CCFF"/>
<path d="M161.063 114.536C160.91 114.625 160.848 114.82 160.929 114.959C161.01 115.098 161.21 115.14 161.363 115.051C161.516 114.962 161.577 114.767 161.497 114.628C161.416 114.489 161.215 114.447 161.063 114.536Z" fill="#E1CCFF"/>
<path d="M148.555 111.9C148.402 111.989 148.341 112.184 148.422 112.323C148.503 112.462 148.703 112.504 148.856 112.415C149.008 112.326 149.07 112.131 148.989 111.992C148.908 111.853 148.708 111.811 148.555 111.9Z" fill="#E1CCFF"/>
<path d="M136.082 109.271C135.937 109.355 135.882 109.53 135.959 109.661C136.035 109.793 136.215 109.831 136.359 109.746C136.504 109.662 136.559 109.487 136.483 109.356C136.406 109.224 136.227 109.186 136.082 109.271Z" fill="#E1CCFF"/>
<path d="M123.643 106.699C123.643 106.699 123.525 106.847 123.571 106.926C123.617 107.005 123.717 107.026 123.804 106.975C123.891 106.925 123.922 106.827 123.876 106.748C123.83 106.669 123.73 106.648 123.643 106.699Z" fill="#E1CCFF"/>
<path d="M98.7076 101.513C98.7076 101.513 98.6853 101.526 98.6967 101.545C98.7081 101.565 98.7081 101.565 98.7304 101.552C98.7527 101.539 98.7527 101.539 98.7413 101.519C98.7299 101.5 98.7299 101.5 98.7076 101.513Z" fill="#E1CCFF"/>
</g>
</svg>
