<svg width="390" height="69" viewBox="0 0 390 69" fill="none" xmlns="http://www.w3.org/2000/svg">
<g filter="url(#filter0_d_1118_16225)">
<path d="M2.00828 5.99894C2.00886 3.23793 4.24727 1 7.00828 1H383C385.761 1 388 3.23858 388 6V39.8856C388 42.9756 385.653 45.5603 382.578 45.8578L196.925 63.8138C195.645 63.9376 194.355 63.9376 193.075 63.8138L7.42356 45.8579C4.34745 45.5604 2.00052 42.975 2.00117 39.8845L2.00828 5.99894Z" fill="#342E72"/>
<path d="M383 0.5C386.038 0.5 388.5 2.96243 388.5 6V39.8857C388.5 43.2331 385.958 46.0331 382.626 46.3555L196.974 64.3115C195.661 64.4385 194.339 64.4385 193.026 64.3115L7.375 46.3555C4.04289 46.033 1.50046 43.2325 1.50098 39.8848L1.50781 5.99902C1.50845 2.96206 3.97091 0.500253 7.00781 0.5H383Z" stroke="black"/>
</g>
<path d="M7.02609 1.5H382.974C385.459 1.5 387.473 3.51357 387.474 5.99805L387.489 36.9717C387.49 39.2869 385.734 41.2254 383.429 41.4521L196.91 59.8096C195.64 59.9346 194.361 59.9345 193.091 59.8096L6.57101 41.4521C4.26688 41.2254 2.51053 39.2869 2.51144 36.9717L2.52609 5.99805C2.52721 3.59114 4.41763 1.62619 6.79465 1.50586L7.02609 1.5Z" fill="url(#paint0_linear_1118_16225)"/>
<path d="M7.02609 1.5H382.974C385.459 1.5 387.473 3.51357 387.474 5.99805L387.489 36.9717C387.49 39.2869 385.734 41.2254 383.429 41.4521L196.91 59.8096C195.64 59.9346 194.361 59.9345 193.091 59.8096L6.57101 41.4521C4.26688 41.2254 2.51053 39.2869 2.51144 36.9717L2.52609 5.99805C2.52721 3.59114 4.41763 1.62619 6.79465 1.50586L7.02609 1.5Z" stroke="#D2BFFF" style="mix-blend-mode:hard-light"/>
<path style="mix-blend-mode:hard-light" d="M383.037 2.16699C385.245 2.16699 387.036 3.95673 387.037 6.16504L387.04 13.3281C349.487 17.8037 277.561 20.834 195 20.834C112.438 20.834 40.5114 17.8038 2.95898 13.3281L2.96289 6.16504C2.96406 3.95673 4.75458 2.16699 6.96289 2.16699H383.037Z" fill="url(#paint1_radial_1118_16225)" fill-opacity="0.25"/>
<g filter="url(#filter1_ddd_1118_16225)">
<mask id="path-5-outside-1_1118_16225" maskUnits="userSpaceOnUse" x="88" y="17" width="219" height="20" fill="black">
<rect fill="white" x="88" y="17" width="219" height="20"/>
<path d="M89.2509 35V18.824H94.5309L98.2029 28.016L101.899 18.824H107.035V35H103.051V24.608L99.9309 32.408H96.3789L93.2589 24.776V35H89.2509ZM109.912 35V18.824H120.76V22.328H114.352V25.064H119.536V28.568H114.352V31.496H120.856V35H109.912ZM123.283 35V18.824H134.131V22.328H127.723V25.064H132.907V28.568H127.723V31.496H134.227V35H123.283ZM139.463 35V22.472H135.503V18.824H148.031V22.472H144.071V35H139.463ZM157.435 35V29.72L152.179 18.824H156.811L159.811 25.232L162.835 18.824H167.179L162.043 29.24V35H157.435ZM174.63 35.36C172.214 35.36 170.374 34.64 169.11 33.2C167.846 31.76 167.214 29.664 167.214 26.912C167.214 24.16 167.846 22.064 169.11 20.624C170.374 19.184 172.214 18.464 174.63 18.464C177.046 18.464 178.886 19.184 180.15 20.624C181.414 22.064 182.046 24.16 182.046 26.912C182.046 29.664 181.414 31.76 180.15 33.2C178.886 34.64 177.046 35.36 174.63 35.36ZM174.63 31.712C175.574 31.712 176.246 31.352 176.646 30.632C177.046 29.896 177.246 28.656 177.246 26.912C177.246 25.168 177.046 23.936 176.646 23.216C176.246 22.48 175.574 22.112 174.63 22.112C173.686 22.112 173.014 22.48 172.614 23.216C172.214 23.936 172.014 25.168 172.014 26.912C172.014 28.656 172.214 29.896 172.614 30.632C173.014 31.352 173.686 31.712 174.63 31.712ZM190.787 35.36C188.403 35.36 186.675 34.816 185.603 33.728C184.547 32.624 184.019 30.832 184.019 28.352V18.824H188.651V29.336C188.651 30.872 189.371 31.64 190.811 31.64C192.219 31.64 192.923 30.872 192.923 29.336V18.824H197.555V28.352C197.555 30.832 197.019 32.624 195.947 33.728C194.891 34.816 193.171 35.36 190.787 35.36ZM200.208 35V18.824H206.568C208.616 18.824 210.168 19.28 211.224 20.192C212.296 21.104 212.832 22.424 212.832 24.152C212.832 25.272 212.576 26.224 212.064 27.008C211.552 27.776 210.84 28.32 209.928 28.64L213.864 35H209.064L205.776 29.312H204.576V35H200.208ZM206.16 22.088H204.576V26.216H206.16C207.584 26.216 208.296 25.528 208.296 24.152C208.296 22.776 207.584 22.088 206.16 22.088ZM219.545 35V18.824H224.153V24.992H228.737V18.824H233.345V35H228.737V28.592H224.153V35H219.545ZM236.221 35V18.824H247.069V22.328H240.661V25.064H245.845V28.568H240.661V31.496H247.165V35H236.221ZM249.592 35V18.824H255.952C258 18.824 259.552 19.28 260.608 20.192C261.68 21.104 262.216 22.424 262.216 24.152C262.216 25.272 261.96 26.224 261.448 27.008C260.936 27.776 260.224 28.32 259.312 28.64L263.248 35H258.448L255.16 29.312H253.96V35H249.592ZM255.544 22.088H253.96V26.216H255.544C256.968 26.216 257.68 25.528 257.68 24.152C257.68 22.776 256.968 22.088 255.544 22.088ZM271.559 35.36C269.143 35.36 267.303 34.64 266.039 33.2C264.775 31.76 264.143 29.664 264.143 26.912C264.143 24.16 264.775 22.064 266.039 20.624C267.303 19.184 269.143 18.464 271.559 18.464C273.975 18.464 275.815 19.184 277.079 20.624C278.343 22.064 278.975 24.16 278.975 26.912C278.975 29.664 278.343 31.76 277.079 33.2C275.815 34.64 273.975 35.36 271.559 35.36ZM271.559 31.712C272.503 31.712 273.175 31.352 273.575 30.632C273.975 29.896 274.175 28.656 274.175 26.912C274.175 25.168 273.975 23.936 273.575 23.216C273.175 22.48 272.503 22.112 271.559 22.112C270.615 22.112 269.943 22.48 269.543 23.216C269.143 23.936 268.943 25.168 268.943 26.912C268.943 28.656 269.143 29.896 269.543 30.632C269.943 31.352 270.615 31.712 271.559 31.712ZM281.164 35V18.824H292.012V22.328H285.604V25.064H290.788V28.568H285.604V31.496H292.108V35H281.164ZM299.071 35.36C297.167 35.36 295.423 35.048 293.839 34.424L294.679 30.92C295.303 31.16 295.967 31.352 296.671 31.496C297.391 31.624 298.063 31.688 298.687 31.688C299.615 31.688 300.279 31.568 300.679 31.328C301.095 31.088 301.303 30.696 301.303 30.152C301.303 29.496 300.935 29.096 300.199 28.952L298.063 28.52C295.407 27.976 294.079 26.384 294.079 23.744C294.079 22.096 294.623 20.808 295.711 19.88C296.799 18.936 298.295 18.464 300.199 18.464C302.103 18.464 303.799 18.752 305.287 19.328L304.423 22.76C303.319 22.328 302.023 22.112 300.535 22.112C299.063 22.112 298.327 22.568 298.327 23.48C298.327 24.152 298.751 24.568 299.599 24.728L301.423 25.088C302.895 25.392 303.975 25.936 304.663 26.72C305.367 27.504 305.719 28.584 305.719 29.96C305.719 31.784 305.175 33.144 304.087 34.04C302.999 34.92 301.327 35.36 299.071 35.36Z"/>
</mask>
<path d="M89.2509 35V18.824H94.5309L98.2029 28.016L101.899 18.824H107.035V35H103.051V24.608L99.9309 32.408H96.3789L93.2589 24.776V35H89.2509ZM109.912 35V18.824H120.76V22.328H114.352V25.064H119.536V28.568H114.352V31.496H120.856V35H109.912ZM123.283 35V18.824H134.131V22.328H127.723V25.064H132.907V28.568H127.723V31.496H134.227V35H123.283ZM139.463 35V22.472H135.503V18.824H148.031V22.472H144.071V35H139.463ZM157.435 35V29.72L152.179 18.824H156.811L159.811 25.232L162.835 18.824H167.179L162.043 29.24V35H157.435ZM174.63 35.36C172.214 35.36 170.374 34.64 169.11 33.2C167.846 31.76 167.214 29.664 167.214 26.912C167.214 24.16 167.846 22.064 169.11 20.624C170.374 19.184 172.214 18.464 174.63 18.464C177.046 18.464 178.886 19.184 180.15 20.624C181.414 22.064 182.046 24.16 182.046 26.912C182.046 29.664 181.414 31.76 180.15 33.2C178.886 34.64 177.046 35.36 174.63 35.36ZM174.63 31.712C175.574 31.712 176.246 31.352 176.646 30.632C177.046 29.896 177.246 28.656 177.246 26.912C177.246 25.168 177.046 23.936 176.646 23.216C176.246 22.48 175.574 22.112 174.63 22.112C173.686 22.112 173.014 22.48 172.614 23.216C172.214 23.936 172.014 25.168 172.014 26.912C172.014 28.656 172.214 29.896 172.614 30.632C173.014 31.352 173.686 31.712 174.63 31.712ZM190.787 35.36C188.403 35.36 186.675 34.816 185.603 33.728C184.547 32.624 184.019 30.832 184.019 28.352V18.824H188.651V29.336C188.651 30.872 189.371 31.64 190.811 31.64C192.219 31.64 192.923 30.872 192.923 29.336V18.824H197.555V28.352C197.555 30.832 197.019 32.624 195.947 33.728C194.891 34.816 193.171 35.36 190.787 35.36ZM200.208 35V18.824H206.568C208.616 18.824 210.168 19.28 211.224 20.192C212.296 21.104 212.832 22.424 212.832 24.152C212.832 25.272 212.576 26.224 212.064 27.008C211.552 27.776 210.84 28.32 209.928 28.64L213.864 35H209.064L205.776 29.312H204.576V35H200.208ZM206.16 22.088H204.576V26.216H206.16C207.584 26.216 208.296 25.528 208.296 24.152C208.296 22.776 207.584 22.088 206.16 22.088ZM219.545 35V18.824H224.153V24.992H228.737V18.824H233.345V35H228.737V28.592H224.153V35H219.545ZM236.221 35V18.824H247.069V22.328H240.661V25.064H245.845V28.568H240.661V31.496H247.165V35H236.221ZM249.592 35V18.824H255.952C258 18.824 259.552 19.28 260.608 20.192C261.68 21.104 262.216 22.424 262.216 24.152C262.216 25.272 261.96 26.224 261.448 27.008C260.936 27.776 260.224 28.32 259.312 28.64L263.248 35H258.448L255.16 29.312H253.96V35H249.592ZM255.544 22.088H253.96V26.216H255.544C256.968 26.216 257.68 25.528 257.68 24.152C257.68 22.776 256.968 22.088 255.544 22.088ZM271.559 35.36C269.143 35.36 267.303 34.64 266.039 33.2C264.775 31.76 264.143 29.664 264.143 26.912C264.143 24.16 264.775 22.064 266.039 20.624C267.303 19.184 269.143 18.464 271.559 18.464C273.975 18.464 275.815 19.184 277.079 20.624C278.343 22.064 278.975 24.16 278.975 26.912C278.975 29.664 278.343 31.76 277.079 33.2C275.815 34.64 273.975 35.36 271.559 35.36ZM271.559 31.712C272.503 31.712 273.175 31.352 273.575 30.632C273.975 29.896 274.175 28.656 274.175 26.912C274.175 25.168 273.975 23.936 273.575 23.216C273.175 22.48 272.503 22.112 271.559 22.112C270.615 22.112 269.943 22.48 269.543 23.216C269.143 23.936 268.943 25.168 268.943 26.912C268.943 28.656 269.143 29.896 269.543 30.632C269.943 31.352 270.615 31.712 271.559 31.712ZM281.164 35V18.824H292.012V22.328H285.604V25.064H290.788V28.568H285.604V31.496H292.108V35H281.164ZM299.071 35.36C297.167 35.36 295.423 35.048 293.839 34.424L294.679 30.92C295.303 31.16 295.967 31.352 296.671 31.496C297.391 31.624 298.063 31.688 298.687 31.688C299.615 31.688 300.279 31.568 300.679 31.328C301.095 31.088 301.303 30.696 301.303 30.152C301.303 29.496 300.935 29.096 300.199 28.952L298.063 28.52C295.407 27.976 294.079 26.384 294.079 23.744C294.079 22.096 294.623 20.808 295.711 19.88C296.799 18.936 298.295 18.464 300.199 18.464C302.103 18.464 303.799 18.752 305.287 19.328L304.423 22.76C303.319 22.328 302.023 22.112 300.535 22.112C299.063 22.112 298.327 22.568 298.327 23.48C298.327 24.152 298.751 24.568 299.599 24.728L301.423 25.088C302.895 25.392 303.975 25.936 304.663 26.72C305.367 27.504 305.719 28.584 305.719 29.96C305.719 31.784 305.175 33.144 304.087 34.04C302.999 34.92 301.327 35.36 299.071 35.36Z" fill="white"/>
<path d="M89.2509 35H88.2349V36.016H89.2509V35ZM89.2509 18.824V17.808H88.2349V18.824H89.2509ZM94.5309 18.824L95.4744 18.4471L95.2191 17.808H94.5309V18.824ZM98.2029 28.016L97.2594 28.3929L98.1999 30.7471L99.1456 28.395L98.2029 28.016ZM101.899 18.824V17.808H101.212L100.956 18.445L101.899 18.824ZM107.035 18.824H108.051V17.808H107.035V18.824ZM107.035 35V36.016H108.051V35H107.035ZM103.051 35H102.035V36.016H103.051V35ZM103.051 24.608H104.067L102.108 24.2307L103.051 24.608ZM99.9309 32.408V33.424H100.619L100.874 32.7853L99.9309 32.408ZM96.3789 32.408L95.4385 32.7925L95.6967 33.424H96.3789V32.408ZM93.2589 24.776L94.1994 24.3915L92.2429 24.776H93.2589ZM93.2589 35V36.016H94.2749V35H93.2589ZM89.2509 35H90.2669V18.824H89.2509H88.2349V35H89.2509ZM89.2509 18.824V19.84H94.5309V18.824V17.808H89.2509V18.824ZM94.5309 18.824L93.5874 19.2009L97.2594 28.3929L98.2029 28.016L99.1464 27.6391L95.4744 18.4471L94.5309 18.824ZM98.2029 28.016L99.1456 28.395L102.842 19.203L101.899 18.824L100.956 18.445L97.2603 27.637L98.2029 28.016ZM101.899 18.824V19.84H107.035V18.824V17.808H101.899V18.824ZM107.035 18.824H106.019V35H107.035H108.051V18.824H107.035ZM107.035 35V33.984H103.051V35V36.016H107.035V35ZM103.051 35H104.067V24.608H103.051H102.035V35H103.051ZM103.051 24.608L102.108 24.2307L98.9876 32.0307L99.9309 32.408L100.874 32.7853L103.994 24.9853L103.051 24.608ZM99.9309 32.408V31.392H96.3789V32.408V33.424H99.9309V32.408ZM96.3789 32.408L97.3194 32.0235L94.1994 24.3915L93.2589 24.776L92.3185 25.1605L95.4385 32.7925L96.3789 32.408ZM93.2589 24.776H92.2429V35H93.2589H94.2749V24.776H93.2589ZM93.2589 35V33.984H89.2509V35V36.016H93.2589V35ZM109.912 35H108.896V36.016H109.912V35ZM109.912 18.824V17.808H108.896V18.824H109.912ZM120.76 18.824H121.776V17.808H120.76V18.824ZM120.76 22.328V23.344H121.776V22.328H120.76ZM114.352 22.328V21.312H113.336V22.328H114.352ZM114.352 25.064H113.336V26.08H114.352V25.064ZM119.536 25.064H120.552V24.048H119.536V25.064ZM119.536 28.568V29.584H120.552V28.568H119.536ZM114.352 28.568V27.552H113.336V28.568H114.352ZM114.352 31.496H113.336V32.512H114.352V31.496ZM120.856 31.496H121.872V30.48H120.856V31.496ZM120.856 35V36.016H121.872V35H120.856ZM109.912 35H110.928V18.824H109.912H108.896V35H109.912ZM109.912 18.824V19.84H120.76V18.824V17.808H109.912V18.824ZM120.76 18.824H119.744V22.328H120.76H121.776V18.824H120.76ZM120.76 22.328V21.312H114.352V22.328V23.344H120.76V22.328ZM114.352 22.328H113.336V25.064H114.352H115.368V22.328H114.352ZM114.352 25.064V26.08H119.536V25.064V24.048H114.352V25.064ZM119.536 25.064H118.52V28.568H119.536H120.552V25.064H119.536ZM119.536 28.568V27.552H114.352V28.568V29.584H119.536V28.568ZM114.352 28.568H113.336V31.496H114.352H115.368V28.568H114.352ZM114.352 31.496V32.512H120.856V31.496V30.48H114.352V31.496ZM120.856 31.496H119.84V35H120.856H121.872V31.496H120.856ZM120.856 35V33.984H109.912V35V36.016H120.856V35ZM123.283 35H122.267V36.016H123.283V35ZM123.283 18.824V17.808H122.267V18.824H123.283ZM134.131 18.824H135.147V17.808H134.131V18.824ZM134.131 22.328V23.344H135.147V22.328H134.131ZM127.723 22.328V21.312H126.707V22.328H127.723ZM127.723 25.064H126.707V26.08H127.723V25.064ZM132.907 25.064H133.923V24.048H132.907V25.064ZM132.907 28.568V29.584H133.923V28.568H132.907ZM127.723 28.568V27.552H126.707V28.568H127.723ZM127.723 31.496H126.707V32.512H127.723V31.496ZM134.227 31.496H135.243V30.48H134.227V31.496ZM134.227 35V36.016H135.243V35H134.227ZM123.283 35H124.299V18.824H123.283H122.267V35H123.283ZM123.283 18.824V19.84H134.131V18.824V17.808H123.283V18.824ZM134.131 18.824H133.115V22.328H134.131H135.147V18.824H134.131ZM134.131 22.328V21.312H127.723V22.328V23.344H134.131V22.328ZM127.723 22.328H126.707V25.064H127.723H128.739V22.328H127.723ZM127.723 25.064V26.08H132.907V25.064V24.048H127.723V25.064ZM132.907 25.064H131.891V28.568H132.907H133.923V25.064H132.907ZM132.907 28.568V27.552H127.723V28.568V29.584H132.907V28.568ZM127.723 28.568H126.707V31.496H127.723H128.739V28.568H127.723ZM127.723 31.496V32.512H134.227V31.496V30.48H127.723V31.496ZM134.227 31.496H133.211V35H134.227H135.243V31.496H134.227ZM134.227 35V33.984H123.283V35V36.016H134.227V35ZM139.463 35H138.447V36.016H139.463V35ZM139.463 22.472H140.479V21.456H139.463V22.472ZM135.503 22.472H134.487V23.488H135.503V22.472ZM135.503 18.824V17.808H134.487V18.824H135.503ZM148.031 18.824H149.047V17.808H148.031V18.824ZM148.031 22.472V23.488H149.047V22.472H148.031ZM144.071 22.472V21.456H143.055V22.472H144.071ZM144.071 35V36.016H145.087V35H144.071ZM139.463 35H140.479V22.472H139.463H138.447V35H139.463ZM139.463 22.472V21.456H135.503V22.472V23.488H139.463V22.472ZM135.503 22.472H136.519V18.824H135.503H134.487V22.472H135.503ZM135.503 18.824V19.84H148.031V18.824V17.808H135.503V18.824ZM148.031 18.824H147.015V22.472H148.031H149.047V18.824H148.031ZM148.031 22.472V21.456H144.071V22.472V23.488H148.031V22.472ZM144.071 22.472H143.055V35H144.071H145.087V22.472H144.071ZM144.071 35V33.984H139.463V35V36.016H144.071V35ZM157.435 35H156.419V36.016H157.435V35ZM157.435 29.72H158.451V29.4878L158.35 29.2786L157.435 29.72ZM152.179 18.824V17.808H150.561L151.264 19.2654L152.179 18.824ZM156.811 18.824L157.731 18.3932L157.457 17.808H156.811V18.824ZM159.811 25.232L158.891 25.6628L159.807 27.6204L160.73 25.6656L159.811 25.232ZM162.835 18.824V17.808H162.191L161.916 18.3904L162.835 18.824ZM167.179 18.824L168.09 19.2733L168.813 17.808H167.179V18.824ZM162.043 29.24L161.132 28.7907L161.027 29.0031V29.24H162.043ZM162.043 35V36.016H163.059V35H162.043ZM157.435 35H158.451V29.72H157.435H156.419V35H157.435ZM157.435 29.72L158.35 29.2786L153.094 18.3826L152.179 18.824L151.264 19.2654L156.52 30.1614L157.435 29.72ZM152.179 18.824V19.84H156.811V18.824V17.808H152.179V18.824ZM156.811 18.824L155.891 19.2548L158.891 25.6628L159.811 25.232L160.731 24.8012L157.731 18.3932L156.811 18.824ZM159.811 25.232L160.73 25.6656L163.754 19.2576L162.835 18.824L161.916 18.3904L158.892 24.7984L159.811 25.232ZM162.835 18.824V19.84H167.179V18.824V17.808H162.835V18.824ZM167.179 18.824L166.268 18.3747L161.132 28.7907L162.043 29.24L162.954 29.6893L168.09 19.2733L167.179 18.824ZM162.043 29.24H161.027V35H162.043H163.059V29.24H162.043ZM162.043 35V33.984H157.435V35V36.016H162.043V35ZM169.11 33.2L168.346 33.8702L169.11 33.2ZM169.11 20.624L168.346 19.9538L169.11 20.624ZM180.15 20.624L180.914 19.9538L180.15 20.624ZM176.646 30.632L177.534 31.1254L177.539 31.1172L176.646 30.632ZM176.646 23.216L175.753 23.7012L175.758 23.7094L176.646 23.216ZM172.614 23.216L173.502 23.7094L173.507 23.7012L172.614 23.216ZM172.614 30.632L171.721 31.1172L171.726 31.1254L172.614 30.632ZM174.63 35.36V34.344C172.424 34.344 170.896 33.695 169.874 32.5298L169.11 33.2L168.346 33.8702C169.852 35.585 172.004 36.376 174.63 36.376V35.36ZM169.11 33.2L169.874 32.5298C168.831 31.3418 168.23 29.5235 168.23 26.912H167.214H166.198C166.198 29.8045 166.861 32.1782 168.346 33.8702L169.11 33.2ZM167.214 26.912H168.23C168.23 24.3005 168.831 22.4822 169.874 21.2942L169.11 20.624L168.346 19.9538C166.861 21.6458 166.198 24.0195 166.198 26.912H167.214ZM169.11 20.624L169.874 21.2942C170.896 20.129 172.424 19.48 174.63 19.48V18.464V17.448C172.004 17.448 169.852 18.239 168.346 19.9538L169.11 20.624ZM174.63 18.464V19.48C176.836 19.48 178.364 20.129 179.386 21.2942L180.15 20.624L180.914 19.9538C179.408 18.239 177.256 17.448 174.63 17.448V18.464ZM180.15 20.624L179.386 21.2942C180.429 22.4822 181.03 24.3005 181.03 26.912H182.046H183.062C183.062 24.0195 182.399 21.6458 180.914 19.9538L180.15 20.624ZM182.046 26.912H181.03C181.03 29.5235 180.429 31.3418 179.386 32.5298L180.15 33.2L180.914 33.8702C182.399 32.1782 183.062 29.8045 183.062 26.912H182.046ZM180.15 33.2L179.386 32.5298C178.364 33.695 176.836 34.344 174.63 34.344V35.36V36.376C177.256 36.376 179.408 35.585 180.914 33.8702L180.15 33.2ZM174.63 31.712V32.728C175.878 32.728 176.925 32.2211 177.534 31.1254L176.646 30.632L175.758 30.1386C175.567 30.4829 175.27 30.696 174.63 30.696V31.712ZM176.646 30.632L177.539 31.1172C178.069 30.1422 178.262 28.6795 178.262 26.912H177.246H176.23C176.23 28.6325 176.023 29.6498 175.753 30.1468L176.646 30.632ZM177.246 26.912H178.262C178.262 25.1479 178.07 23.6864 177.534 22.7226L176.646 23.216L175.758 23.7094C176.022 24.1856 176.23 25.1881 176.23 26.912H177.246ZM176.646 23.216L177.539 22.7308C176.935 21.62 175.889 21.096 174.63 21.096V22.112V23.128C175.259 23.128 175.557 23.34 175.753 23.7012L176.646 23.216ZM174.63 22.112V21.096C173.371 21.096 172.325 21.62 171.721 22.7308L172.614 23.216L173.507 23.7012C173.703 23.34 174.001 23.128 174.63 23.128V22.112ZM172.614 23.216L171.726 22.7226C171.19 23.6864 170.998 25.1479 170.998 26.912H172.014H173.03C173.03 25.1881 173.238 24.1856 173.502 23.7094L172.614 23.216ZM172.014 26.912H170.998C170.998 28.6795 171.191 30.1422 171.721 31.1172L172.614 30.632L173.507 30.1468C173.237 29.6498 173.03 28.6325 173.03 26.912H172.014ZM172.614 30.632L171.726 31.1254C172.335 32.2211 173.382 32.728 174.63 32.728V31.712V30.696C173.99 30.696 173.693 30.4829 173.502 30.1386L172.614 30.632ZM185.603 33.728L184.868 34.4303L184.874 34.4357L184.879 34.4411L185.603 33.728ZM184.019 18.824V17.808H183.003V18.824H184.019ZM188.651 18.824H189.667V17.808H188.651V18.824ZM192.923 18.824V17.808H191.907V18.824H192.923ZM197.555 18.824H198.571V17.808H197.555V18.824ZM195.947 33.728L195.218 33.0202L195.218 33.0204L195.947 33.728ZM190.787 35.36V34.344C188.526 34.344 187.124 33.8241 186.326 33.0149L185.603 33.728L184.879 34.4411C186.226 35.8079 188.279 36.376 190.787 36.376V35.36ZM185.603 33.728L186.337 33.0257C185.546 32.199 185.035 30.7253 185.035 28.352H184.019H183.003C183.003 30.9387 183.547 33.049 184.868 34.4303L185.603 33.728ZM184.019 28.352H185.035V18.824H184.019H183.003V28.352H184.019ZM184.019 18.824V19.84H188.651V18.824V17.808H184.019V18.824ZM188.651 18.824H187.635V29.336H188.651H189.667V18.824H188.651ZM188.651 29.336H187.635C187.635 30.2449 187.846 31.1156 188.449 31.7589C189.064 32.4145 189.917 32.656 190.811 32.656V31.64V30.624C190.265 30.624 190.037 30.4815 189.932 30.3691C189.815 30.2444 189.667 29.9631 189.667 29.336H188.651ZM190.811 31.64V32.656C191.695 32.656 192.538 32.4107 193.144 31.7505C193.733 31.1071 193.939 30.2398 193.939 29.336H192.923H191.907C191.907 29.9682 191.76 30.2529 191.646 30.3775C191.547 30.4853 191.334 30.624 190.811 30.624V31.64ZM192.923 29.336H193.939V18.824H192.923H191.907V29.336H192.923ZM192.923 18.824V19.84H197.555V18.824V17.808H192.923V18.824ZM197.555 18.824H196.539V28.352H197.555H198.571V18.824H197.555ZM197.555 28.352H196.539C196.539 30.7221 196.021 32.1934 195.218 33.0202L195.947 33.728L196.676 34.4358C198.017 33.0546 198.571 30.9419 198.571 28.352H197.555ZM195.947 33.728L195.218 33.0204C194.438 33.8233 193.049 34.344 190.787 34.344V35.36V36.376C193.292 36.376 195.343 35.8087 196.676 34.4356L195.947 33.728ZM200.208 35H199.192V36.016H200.208V35ZM200.208 18.824V17.808H199.192V18.824H200.208ZM211.224 20.192L210.56 20.961L210.565 20.9658L211.224 20.192ZM212.064 27.008L212.909 27.5716L212.914 27.5635L212.064 27.008ZM209.928 28.64L209.591 27.6813L208.399 28.0998L209.064 29.1747L209.928 28.64ZM213.864 35V36.016H215.687L214.728 34.4653L213.864 35ZM209.064 35L208.184 35.5085L208.478 36.016H209.064V35ZM205.776 29.312L206.655 28.8035L206.362 28.296H205.776V29.312ZM204.576 29.312V28.296H203.56V29.312H204.576ZM204.576 35V36.016H205.592V35H204.576ZM204.576 22.088V21.072H203.56V22.088H204.576ZM204.576 26.216H203.56V27.232H204.576V26.216ZM200.208 35H201.224V18.824H200.208H199.192V35H200.208ZM200.208 18.824V19.84H206.568V18.824V17.808H200.208V18.824ZM206.568 18.824V19.84C208.483 19.84 209.758 20.2685 210.56 20.9609L211.224 20.192L211.888 19.4231C210.578 18.2915 208.748 17.808 206.568 17.808V18.824ZM211.224 20.192L210.565 20.9658C211.36 21.6415 211.816 22.6479 211.816 24.152H212.832H213.848C213.848 22.2001 213.232 20.5665 211.882 19.4182L211.224 20.192ZM212.832 24.152H211.816C211.816 25.1139 211.598 25.8637 211.213 26.4525L212.064 27.008L212.914 27.5635C213.554 26.5843 213.848 25.4301 213.848 24.152H212.832ZM212.064 27.008L211.218 26.4444C210.835 27.0199 210.306 27.4306 209.591 27.6813L209.928 28.64L210.264 29.5987C211.374 29.2094 212.269 28.5321 212.909 27.5716L212.064 27.008ZM209.928 28.64L209.064 29.1747L213 35.5347L213.864 35L214.728 34.4653L210.792 28.1053L209.928 28.64ZM213.864 35V33.984H209.064V35V36.016H213.864V35ZM209.064 35L209.943 34.4915L206.655 28.8035L205.776 29.312L204.896 29.8205L208.184 35.5085L209.064 35ZM205.776 29.312V28.296H204.576V29.312V30.328H205.776V29.312ZM204.576 29.312H203.56V35H204.576H205.592V29.312H204.576ZM204.576 35V33.984H200.208V35V36.016H204.576V35ZM206.16 22.088V21.072H204.576V22.088V23.104H206.16V22.088ZM204.576 22.088H203.56V26.216H204.576H205.592V22.088H204.576ZM204.576 26.216V27.232H206.16V26.216V25.2H204.576V26.216ZM206.16 26.216V27.232C207.02 27.232 207.853 27.0246 208.468 26.4306C209.089 25.8303 209.312 25.0056 209.312 24.152H208.296H207.28C207.28 24.6744 207.147 24.8817 207.056 24.9694C206.959 25.0633 206.724 25.2 206.16 25.2V26.216ZM208.296 24.152H209.312C209.312 23.2984 209.089 22.4737 208.468 21.8734C207.853 21.2793 207.02 21.072 206.16 21.072V22.088V23.104C206.724 23.104 206.959 23.2406 207.056 23.3346C207.147 23.4223 207.28 23.6296 207.28 24.152H208.296ZM219.545 35H218.529V36.016H219.545V35ZM219.545 18.824V17.808H218.529V18.824H219.545ZM224.153 18.824H225.169V17.808H224.153V18.824ZM224.153 24.992H223.137V26.008H224.153V24.992ZM228.737 24.992V26.008H229.753V24.992H228.737ZM228.737 18.824V17.808H227.721V18.824H228.737ZM233.345 18.824H234.361V17.808H233.345V18.824ZM233.345 35V36.016H234.361V35H233.345ZM228.737 35H227.721V36.016H228.737V35ZM228.737 28.592H229.753V27.576H228.737V28.592ZM224.153 28.592V27.576H223.137V28.592H224.153ZM224.153 35V36.016H225.169V35H224.153ZM219.545 35H220.561V18.824H219.545H218.529V35H219.545ZM219.545 18.824V19.84H224.153V18.824V17.808H219.545V18.824ZM224.153 18.824H223.137V24.992H224.153H225.169V18.824H224.153ZM224.153 24.992V26.008H228.737V24.992V23.976H224.153V24.992ZM228.737 24.992H229.753V18.824H228.737H227.721V24.992H228.737ZM228.737 18.824V19.84H233.345V18.824V17.808H228.737V18.824ZM233.345 18.824H232.329V35H233.345H234.361V18.824H233.345ZM233.345 35V33.984H228.737V35V36.016H233.345V35ZM228.737 35H229.753V28.592H228.737H227.721V35H228.737ZM228.737 28.592V27.576H224.153V28.592V29.608H228.737V28.592ZM224.153 28.592H223.137V35H224.153H225.169V28.592H224.153ZM224.153 35V33.984H219.545V35V36.016H224.153V35ZM236.221 35H235.205V36.016H236.221V35ZM236.221 18.824V17.808H235.205V18.824H236.221ZM247.069 18.824H248.085V17.808H247.069V18.824ZM247.069 22.328V23.344H248.085V22.328H247.069ZM240.661 22.328V21.312H239.645V22.328H240.661ZM240.661 25.064H239.645V26.08H240.661V25.064ZM245.845 25.064H246.861V24.048H245.845V25.064ZM245.845 28.568V29.584H246.861V28.568H245.845ZM240.661 28.568V27.552H239.645V28.568H240.661ZM240.661 31.496H239.645V32.512H240.661V31.496ZM247.165 31.496H248.181V30.48H247.165V31.496ZM247.165 35V36.016H248.181V35H247.165ZM236.221 35H237.237V18.824H236.221H235.205V35H236.221ZM236.221 18.824V19.84H247.069V18.824V17.808H236.221V18.824ZM247.069 18.824H246.053V22.328H247.069H248.085V18.824H247.069ZM247.069 22.328V21.312H240.661V22.328V23.344H247.069V22.328ZM240.661 22.328H239.645V25.064H240.661H241.677V22.328H240.661ZM240.661 25.064V26.08H245.845V25.064V24.048H240.661V25.064ZM245.845 25.064H244.829V28.568H245.845H246.861V25.064H245.845ZM245.845 28.568V27.552H240.661V28.568V29.584H245.845V28.568ZM240.661 28.568H239.645V31.496H240.661H241.677V28.568H240.661ZM240.661 31.496V32.512H247.165V31.496V30.48H240.661V31.496ZM247.165 31.496H246.149V35H247.165H248.181V31.496H247.165ZM247.165 35V33.984H236.221V35V36.016H247.165V35ZM249.592 35H248.576V36.016H249.592V35ZM249.592 18.824V17.808H248.576V18.824H249.592ZM260.608 20.192L259.944 20.961L259.95 20.9658L260.608 20.192ZM261.448 27.008L262.294 27.5716L262.299 27.5635L261.448 27.008ZM259.312 28.64L258.976 27.6813L257.783 28.0998L258.449 29.1747L259.312 28.64ZM263.249 35V36.016H265.072L264.112 34.4653L263.249 35ZM258.448 35L257.569 35.5085L257.862 36.016H258.448V35ZM255.16 29.312L256.04 28.8035L255.747 28.296H255.16V29.312ZM253.96 29.312V28.296H252.944V29.312H253.96ZM253.96 35V36.016H254.976V35H253.96ZM253.96 22.088V21.072H252.944V22.088H253.96ZM253.96 26.216H252.944V27.232H253.96V26.216ZM249.592 35H250.608V18.824H249.592H248.576V35H249.592ZM249.592 18.824V19.84H255.952V18.824V17.808H249.592V18.824ZM255.952 18.824V19.84C257.868 19.84 259.143 20.2685 259.944 20.9609L260.608 20.192L261.273 19.4231C259.962 18.2915 258.133 17.808 255.952 17.808V18.824ZM260.608 20.192L259.95 20.9658C260.744 21.6415 261.201 22.6479 261.201 24.152H262.216H263.232C263.232 22.2001 262.617 20.5665 261.267 19.4182L260.608 20.192ZM262.216 24.152H261.201C261.201 25.1139 260.982 25.8637 260.598 26.4525L261.448 27.008L262.299 27.5635C262.939 26.5843 263.232 25.4301 263.232 24.152H262.216ZM261.448 27.008L260.603 26.4444C260.219 27.0199 259.691 27.4306 258.976 27.6813L259.312 28.64L259.649 29.5987C260.758 29.2094 261.654 28.5321 262.294 27.5716L261.448 27.008ZM259.312 28.64L258.449 29.1747L262.385 35.5347L263.249 35L264.112 34.4653L260.176 28.1053L259.312 28.64ZM263.249 35V33.984H258.448V35V36.016H263.249V35ZM258.448 35L259.328 34.4915L256.04 28.8035L255.16 29.312L254.281 29.8205L257.569 35.5085L258.448 35ZM255.16 29.312V28.296H253.96V29.312V30.328H255.16V29.312ZM253.96 29.312H252.944V35H253.96H254.976V29.312H253.96ZM253.96 35V33.984H249.592V35V36.016H253.96V35ZM255.544 22.088V21.072H253.96V22.088V23.104H255.544V22.088ZM253.96 22.088H252.944V26.216H253.96H254.976V22.088H253.96ZM253.96 26.216V27.232H255.544V26.216V25.2H253.96V26.216ZM255.544 26.216V27.232C256.405 27.232 257.238 27.0246 257.852 26.4306C258.474 25.8303 258.697 25.0056 258.697 24.152H257.68H256.664C256.664 24.6744 256.531 24.8817 256.44 24.9694C256.343 25.0633 256.108 25.2 255.544 25.2V26.216ZM257.68 24.152H258.697C258.697 23.2984 258.474 22.4737 257.852 21.8734C257.238 21.2793 256.405 21.072 255.544 21.072V22.088V23.104C256.108 23.104 256.343 23.2406 256.44 23.3346C256.531 23.4223 256.664 23.6296 256.664 24.152H257.68ZM266.039 33.2L265.275 33.8702L266.039 33.2ZM266.039 20.624L265.275 19.9538L266.039 20.624ZM277.079 20.624L277.843 19.9538L277.079 20.624ZM273.575 30.632L274.463 31.1254L274.468 31.1172L273.575 30.632ZM273.575 23.216L272.682 23.7012L272.687 23.7094L273.575 23.216ZM269.543 23.216L270.431 23.7094L270.436 23.7012L269.543 23.216ZM269.543 30.632L268.65 31.1172L268.655 31.1254L269.543 30.632ZM271.559 35.36V34.344C269.353 34.344 267.825 33.695 266.803 32.5298L266.039 33.2L265.275 33.8702C266.781 35.585 268.933 36.376 271.559 36.376V35.36ZM266.039 33.2L266.803 32.5298C265.76 31.3418 265.159 29.5235 265.159 26.912H264.143H263.127C263.127 29.8045 263.79 32.1782 265.275 33.8702L266.039 33.2ZM264.143 26.912H265.159C265.159 24.3005 265.76 22.4822 266.803 21.2942L266.039 20.624L265.275 19.9538C263.79 21.6458 263.127 24.0195 263.127 26.912H264.143ZM266.039 20.624L266.803 21.2942C267.825 20.129 269.353 19.48 271.559 19.48V18.464V17.448C268.933 17.448 266.781 18.239 265.275 19.9538L266.039 20.624ZM271.559 18.464V19.48C273.765 19.48 275.293 20.129 276.315 21.2942L277.079 20.624L277.843 19.9538C276.337 18.239 274.185 17.448 271.559 17.448V18.464ZM277.079 20.624L276.315 21.2942C277.358 22.4822 277.959 24.3005 277.959 26.912H278.975H279.991C279.991 24.0195 279.328 21.6458 277.843 19.9538L277.079 20.624ZM278.975 26.912H277.959C277.959 29.5235 277.358 31.3418 276.315 32.5298L277.079 33.2L277.843 33.8702C279.328 32.1782 279.991 29.8045 279.991 26.912H278.975ZM277.079 33.2L276.315 32.5298C275.293 33.695 273.765 34.344 271.559 34.344V35.36V36.376C274.185 36.376 276.337 35.585 277.843 33.8702L277.079 33.2ZM271.559 31.712V32.728C272.807 32.728 273.854 32.2211 274.463 31.1254L273.575 30.632L272.687 30.1386C272.496 30.4829 272.199 30.696 271.559 30.696V31.712ZM273.575 30.632L274.468 31.1172C274.998 30.1422 275.191 28.6795 275.191 26.912H274.175H273.159C273.159 28.6325 272.953 29.6498 272.682 30.1468L273.575 30.632ZM274.175 26.912H275.191C275.191 25.1479 274.999 23.6864 274.463 22.7226L273.575 23.216L272.687 23.7094C272.951 24.1856 273.159 25.1881 273.159 26.912H274.175ZM273.575 23.216L274.468 22.7308C273.864 21.62 272.818 21.096 271.559 21.096V22.112V23.128C272.188 23.128 272.486 23.34 272.682 23.7012L273.575 23.216ZM271.559 22.112V21.096C270.3 21.096 269.254 21.62 268.65 22.7308L269.543 23.216L270.436 23.7012C270.632 23.34 270.93 23.128 271.559 23.128V22.112ZM269.543 23.216L268.655 22.7226C268.119 23.6864 267.927 25.1479 267.927 26.912H268.943H269.959C269.959 25.1881 270.167 24.1856 270.431 23.7094L269.543 23.216ZM268.943 26.912H267.927C267.927 28.6795 268.121 30.1422 268.65 31.1172L269.543 30.632L270.436 30.1468C270.166 29.6498 269.959 28.6325 269.959 26.912H268.943ZM269.543 30.632L268.655 31.1254C269.264 32.2211 270.311 32.728 271.559 32.728V31.712V30.696C270.919 30.696 270.622 30.4829 270.431 30.1386L269.543 30.632ZM281.164 35H280.148V36.016H281.164V35ZM281.164 18.824V17.808H280.148V18.824H281.164ZM292.012 18.824H293.028V17.808H292.012V18.824ZM292.012 22.328V23.344H293.028V22.328H292.012ZM285.604 22.328V21.312H284.588V22.328H285.604ZM285.604 25.064H284.588V26.08H285.604V25.064ZM290.788 25.064H291.804V24.048H290.788V25.064ZM290.788 28.568V29.584H291.804V28.568H290.788ZM285.604 28.568V27.552H284.588V28.568H285.604ZM285.604 31.496H284.588V32.512H285.604V31.496ZM292.108 31.496H293.124V30.48H292.108V31.496ZM292.108 35V36.016H293.124V35H292.108ZM281.164 35H282.18V18.824H281.164H280.148V35H281.164ZM281.164 18.824V19.84H292.012V18.824V17.808H281.164V18.824ZM292.012 18.824H290.996V22.328H292.012H293.028V18.824H292.012ZM292.012 22.328V21.312H285.604V22.328V23.344H292.012V22.328ZM285.604 22.328H284.588V25.064H285.604H286.62V22.328H285.604ZM285.604 25.064V26.08H290.788V25.064V24.048H285.604V25.064ZM290.788 25.064H289.772V28.568H290.788H291.804V25.064H290.788ZM290.788 28.568V27.552H285.604V28.568V29.584H290.788V28.568ZM285.604 28.568H284.588V31.496H285.604H286.62V28.568H285.604ZM285.604 31.496V32.512H292.108V31.496V30.48H285.604V31.496ZM292.108 31.496H291.092V35H292.108H293.124V31.496H292.108ZM292.108 35V33.984H281.164V35V36.016H292.108V35ZM293.839 34.424L292.851 34.1871L292.645 35.0457L293.467 35.3693L293.839 34.424ZM294.679 30.92L295.044 29.9717L293.962 29.5554L293.691 30.6831L294.679 30.92ZM296.671 31.496L296.468 32.4914L296.481 32.494L296.493 32.4963L296.671 31.496ZM300.679 31.328L300.172 30.448L300.164 30.4523L300.157 30.4568L300.679 31.328ZM300.199 28.952L299.998 29.9479L300.004 29.9491L300.199 28.952ZM298.063 28.52L297.859 29.5153L297.862 29.5158L298.063 28.52ZM295.711 19.88L296.371 20.653L296.377 20.6474L295.711 19.88ZM305.287 19.328L306.273 19.576L306.492 18.7048L305.654 18.3805L305.287 19.328ZM304.423 22.76L304.053 23.7061L305.127 24.1264L305.409 23.008L304.423 22.76ZM299.599 24.728L299.796 23.7312L299.788 23.7296L299.599 24.728ZM301.423 25.088L301.629 24.093L301.62 24.0912L301.423 25.088ZM304.663 26.72L303.9 27.3902L303.907 27.3988L304.663 26.72ZM304.087 34.04L304.726 34.83L304.733 34.8243L304.087 34.04ZM299.071 35.36V34.344C297.28 34.344 295.664 34.0508 294.212 33.4787L293.839 34.424L293.467 35.3693C295.183 36.0452 297.055 36.376 299.071 36.376V35.36ZM293.839 34.424L294.827 34.6609L295.667 31.1569L294.679 30.92L293.691 30.6831L292.851 34.1871L293.839 34.424ZM294.679 30.92L294.315 31.8683C294.995 32.1298 295.713 32.337 296.468 32.4914L296.671 31.496L296.875 30.5006C296.222 30.367 295.612 30.1902 295.044 29.9717L294.679 30.92ZM296.671 31.496L296.493 32.4963C297.262 32.633 297.995 32.704 298.687 32.704V31.688V30.672C298.132 30.672 297.52 30.615 296.849 30.4957L296.671 31.496ZM298.687 31.688V32.704C299.65 32.704 300.552 32.5891 301.202 32.1992L300.679 31.328L300.157 30.4568C300.006 30.5469 299.581 30.672 298.687 30.672V31.688ZM300.679 31.328L301.187 32.208C301.965 31.7594 302.319 31.0012 302.319 30.152H301.303H300.287C300.287 30.295 300.26 30.358 300.25 30.3778C300.243 30.3914 300.228 30.4151 300.172 30.448L300.679 31.328ZM301.303 30.152H302.319C302.319 29.6248 302.166 29.0969 301.775 28.6721C301.398 28.2623 300.896 28.053 300.394 27.9549L300.199 28.952L300.004 29.9491C300.239 29.995 300.289 30.0577 300.28 30.0479C300.275 30.0428 300.273 30.0376 300.275 30.0423C300.278 30.05 300.287 30.0826 300.287 30.152H301.303ZM300.199 28.952L300.401 27.9562L298.265 27.5242L298.063 28.52L297.862 29.5158L299.998 29.9478L300.199 28.952ZM298.063 28.52L298.267 27.5247C297.095 27.2845 296.332 26.8384 295.855 26.2672C295.382 25.6991 295.095 24.8926 295.095 23.744H294.079H293.063C293.063 25.2354 293.441 26.5449 294.295 27.5688C295.147 28.5896 296.376 29.2115 297.859 29.5153L298.063 28.52ZM294.079 23.744H295.095C295.095 22.343 295.545 21.3575 296.371 20.653L295.711 19.88L295.052 19.107C293.702 20.2585 293.063 21.849 293.063 23.744H294.079ZM295.711 19.88L296.377 20.6474C297.228 19.9093 298.46 19.48 300.199 19.48V18.464V17.448C298.131 17.448 296.371 17.9627 295.045 19.1126L295.711 19.88ZM300.199 18.464V19.48C302.002 19.48 303.57 19.7526 304.921 20.2755L305.287 19.328L305.654 18.3805C304.029 17.7514 302.205 17.448 300.199 17.448V18.464ZM305.287 19.328L304.302 19.08L303.438 22.512L304.423 22.76L305.409 23.008L306.273 19.576L305.287 19.328ZM304.423 22.76L304.794 21.8139C303.546 21.3256 302.119 21.096 300.535 21.096V22.112V23.128C301.928 23.128 303.093 23.3304 304.053 23.7061L304.423 22.76ZM300.535 22.112V21.096C299.727 21.096 298.95 21.2152 298.344 21.5903C297.658 22.0152 297.311 22.695 297.311 23.48H298.327H299.343C299.343 23.4343 299.348 23.4046 299.352 23.3877C299.356 23.3713 299.359 23.3644 299.36 23.3629C299.361 23.3615 299.362 23.3587 299.368 23.3532C299.373 23.3472 299.387 23.3346 299.414 23.3177C299.545 23.2368 299.871 23.128 300.535 23.128V22.112ZM298.327 23.48H297.311C297.311 24.0497 297.501 24.5964 297.934 25.0212C298.341 25.4204 298.874 25.6251 299.411 25.7264L299.599 24.728L299.788 23.7296C299.476 23.6709 299.374 23.5876 299.357 23.5708C299.353 23.567 299.352 23.5657 299.353 23.5669C299.354 23.5681 299.354 23.5686 299.353 23.5671C299.353 23.565 299.343 23.5406 299.343 23.48H298.327ZM299.599 24.728L299.403 25.7248L301.227 26.0848L301.423 25.088L301.62 24.0912L299.796 23.7312L299.599 24.728ZM301.423 25.088L301.218 26.083C302.566 26.3613 303.409 26.8313 303.9 27.3901L304.663 26.72L305.427 26.0499C304.541 25.0407 303.225 24.4227 301.629 24.093L301.423 25.088ZM304.663 26.72L303.907 27.3988C304.398 27.9452 304.703 28.7561 304.703 29.96H305.719H306.735C306.735 28.4119 306.337 27.0628 305.419 26.0412L304.663 26.72ZM305.719 29.96H304.703C304.703 31.5767 304.23 32.6065 303.441 33.2557L304.087 34.04L304.733 34.8243C306.121 33.6815 306.735 31.9913 306.735 29.96H305.719ZM304.087 34.04L303.448 33.25C302.623 33.9179 301.227 34.344 299.071 34.344V35.36V36.376C301.427 36.376 303.376 35.9221 304.726 34.83L304.087 34.04Z" fill="#3B3B3B" mask="url(#path-5-outside-1_1118_16225)"/>
</g>
<defs>
<filter id="filter0_d_1118_16225" x="1.00117" y="0" width="387.999" height="68.9067" filterUnits="userSpaceOnUse" color-interpolation-filters="sRGB">
<feFlood flood-opacity="0" result="BackgroundImageFix"/>
<feColorMatrix in="SourceAlpha" type="matrix" values="0 0 0 0 0 0 0 0 0 0 0 0 0 0 0 0 0 0 127 0" result="hardAlpha"/>
<feOffset dy="4"/>
<feComposite in2="hardAlpha" operator="out"/>
<feColorMatrix type="matrix" values="0 0 0 0 0 0 0 0 0 0 0 0 0 0 0 0 0 0 0.25 0"/>
<feBlend mode="normal" in2="BackgroundImageFix" result="effect1_dropShadow_1118_16225"/>
<feBlend mode="normal" in="SourceGraphic" in2="effect1_dropShadow_1118_16225" result="shape"/>
</filter>
<filter id="filter1_ddd_1118_16225" x="85.6949" y="16.686" width="223.58" height="24.008" filterUnits="userSpaceOnUse" color-interpolation-filters="sRGB">
<feFlood flood-opacity="0" result="BackgroundImageFix"/>
<feColorMatrix in="SourceAlpha" type="matrix" values="0 0 0 0 0 0 0 0 0 0 0 0 0 0 0 0 0 0 127 0" result="hardAlpha"/>
<feOffset dy="1"/>
<feComposite in2="hardAlpha" operator="out"/>
<feColorMatrix type="matrix" values="0 0 0 0 0 0 0 0 0 0 0 0 0 0 0 0 0 0 1 0"/>
<feBlend mode="normal" in2="BackgroundImageFix" result="effect1_dropShadow_1118_16225"/>
<feColorMatrix in="SourceAlpha" type="matrix" values="0 0 0 0 0 0 0 0 0 0 0 0 0 0 0 0 0 0 127 0" result="hardAlpha"/>
<feOffset dy="1"/>
<feComposite in2="hardAlpha" operator="out"/>
<feColorMatrix type="matrix" values="0 0 0 0 0 0 0 0 0 0 0 0 0 0 0 0 0 0 1 0"/>
<feBlend mode="normal" in2="effect1_dropShadow_1118_16225" result="effect2_dropShadow_1118_16225"/>
<feColorMatrix in="SourceAlpha" type="matrix" values="0 0 0 0 0 0 0 0 0 0 0 0 0 0 0 0 0 0 127 0" result="hardAlpha"/>
<feOffset dy="1.778"/>
<feGaussianBlur stdDeviation="1.27"/>
<feComposite in2="hardAlpha" operator="out"/>
<feColorMatrix type="matrix" values="0 0 0 0 0 0 0 0 0 0 0 0 0 0 0 0 0 0 0.8 0"/>
<feBlend mode="normal" in2="effect2_dropShadow_1118_16225" result="effect3_dropShadow_1118_16225"/>
<feBlend mode="normal" in="SourceGraphic" in2="effect3_dropShadow_1118_16225" result="shape"/>
</filter>
<linearGradient id="paint0_linear_1118_16225" x1="2.00949" y1="27.1039" x2="387.991" y2="27.1039" gradientUnits="userSpaceOnUse">
<stop stop-color="#4B42A2"/>
<stop offset="0.475" stop-color="#8383FF"/>
<stop offset="1" stop-color="#4C43A3"/>
</linearGradient>
<radialGradient id="paint1_radial_1118_16225" cx="0" cy="0" r="1" gradientUnits="userSpaceOnUse" gradientTransform="translate(195 37.7726) rotate(-90) scale(43.7723 1126.28)">
<stop offset="0.431628" stop-color="white" stop-opacity="0.26"/>
<stop offset="1" stop-color="white"/>
</radialGradient>
</defs>
</svg>
