<svg width="1440" height="955" viewBox="0 0 1440 955" fill="none" xmlns="http://www.w3.org/2000/svg">
<g clip-path="url(#clip0_699_2101)">
<rect width="1440" height="983" fill="#D7FFCC"/>
<g style="mix-blend-mode:multiply" opacity="0.5">
<path d="M15.384 941.507C12.0278 938.433 6.97803 938.343 4.10492 941.304C1.23181 944.266 1.6234 949.158 4.97955 952.231C8.3357 955.304 13.3855 955.395 16.2586 952.433C19.1317 949.472 18.7401 944.58 15.384 941.507Z" fill="#A0D591"/>
<path d="M13.3853 916.523C10.0134 913.436 4.96114 913.378 2.10627 916.321C-0.748612 919.264 -0.353964 924.194 2.98089 927.248C6.31575 930.301 11.4051 930.392 14.26 927.45C17.1148 924.507 16.7202 919.577 13.3853 916.523Z" fill="#A0D591"/>
<path d="M11.7375 891.245C8.14326 887.954 2.77882 887.858 -0.298105 891.029C-3.37503 894.201 -2.95905 899.398 0.635186 902.689C4.22942 905.98 9.59386 906.076 12.6708 902.905C15.7477 899.733 15.3317 894.536 11.7375 891.245Z" fill="#A0D591"/>
<path d="M9.92708 866.065C6.20257 862.655 0.598515 862.554 -2.58993 865.841C-5.77838 869.128 -5.34382 874.556 -1.61931 877.967C2.1052 881.377 7.70926 881.478 10.8977 878.191C14.0862 874.905 13.6516 869.476 9.92708 866.065Z" fill="#A0D591"/>
<path d="M8.09282 840.987C4.27626 837.492 -1.46378 837.423 -4.6993 840.758C-7.93483 844.093 -7.52391 849.655 -3.70735 853.15C0.109211 856.645 5.81753 856.747 9.08478 853.379C12.352 850.012 11.9094 844.482 8.09282 840.987Z" fill="#A0D591"/>
<path d="M6.09221 816C2.27565 812.505 -3.46439 812.435 -6.69991 815.77C-9.93544 819.105 -9.52452 824.668 -5.70796 828.163C-1.8914 831.657 3.81692 831.76 7.08416 828.392C10.3514 825.024 9.90877 819.494 6.09221 816Z" fill="#A0D591"/>
<path d="M4.16046 791.019C0.306849 787.49 -5.47022 787.387 -8.76919 790.787C-12.0682 794.187 -11.6202 799.784 -7.76658 803.313C-3.91297 806.841 1.86414 806.945 5.16311 803.544C8.46208 800.144 8.01407 794.547 4.16046 791.019Z" fill="#A0D591"/>
<path d="M2.16624 766.098C-1.68737 762.57 -7.46447 762.466 -10.7634 765.867C-14.0624 769.267 -13.6144 774.864 -9.76081 778.392C-5.9072 781.921 -0.130134 782.024 3.16884 778.624C6.46781 775.224 6.01985 769.627 2.16624 766.098Z" fill="#A0D591"/>
<path d="M0.136331 741.146C-3.71728 737.617 -9.49437 737.514 -12.7933 740.914C-16.0923 744.314 -15.6443 749.911 -11.7907 753.44C-7.93711 756.968 -2.16004 757.072 1.13893 753.671C4.4379 750.271 3.98994 744.674 0.136331 741.146Z" fill="#A0D591"/>
<path d="M-1.89207 716.26C-5.70863 712.766 -11.4169 712.663 -14.6842 716.031C-17.9514 719.399 -17.5088 724.929 -13.6922 728.423C-9.87565 731.918 -4.16736 732.021 -0.900112 728.653C2.36714 725.285 1.92449 719.755 -1.89207 716.26Z" fill="#A0D591"/>
<path d="M-4.08061 691.472C-7.786 688.079 -13.3568 687.979 -16.5289 691.249C-19.7009 694.518 -19.269 699.915 -15.5636 703.308C-11.8582 706.701 -6.28741 706.801 -3.11532 703.531C0.0567683 700.261 -0.375212 694.865 -4.08061 691.472Z" fill="#A0D591"/>
<path d="M-6.07676 666.554C-9.78215 663.161 -15.3529 663.062 -18.525 666.331C-21.6971 669.601 -21.2651 674.998 -17.5597 678.39C-13.8543 681.783 -8.28352 681.883 -5.11144 678.614C-1.93935 675.344 -2.37136 669.947 -6.07676 666.554Z" fill="#A0D591"/>
<path d="M40.6268 942.465C37.5884 939.683 33.0493 939.601 30.4482 942.282C27.847 944.963 28.199 949.361 31.2374 952.143C34.2759 954.925 38.815 955.007 41.4161 952.325C44.0172 949.644 43.6652 945.247 40.6268 942.465Z" fill="#A0D591"/>
<path d="M39.0143 917.149C35.7535 914.164 30.8018 914.075 28.0103 916.952C25.2189 919.829 25.6029 924.627 28.8636 927.612C32.1244 930.598 37.0761 930.687 39.8676 927.81C42.659 924.932 42.275 920.135 39.0143 917.149Z" fill="#A0D591"/>
<path d="M36.7612 892.428C33.6487 889.578 28.9349 889.46 26.2387 892.24C23.5424 895.019 23.905 899.549 27.0546 902.433C30.2042 905.317 34.8809 905.401 37.5772 902.622C40.2734 899.843 39.9108 895.312 36.7612 892.428Z" fill="#A0D591"/>
<path d="M35.0195 867.249C31.7588 864.263 26.807 864.174 24.0156 867.051C21.2241 869.929 21.6081 874.726 24.8689 877.711C28.1296 880.697 33.0814 880.786 35.8728 877.909C38.6643 875.031 38.2803 870.234 35.0195 867.249Z" fill="#A0D591"/>
<path d="M33.4023 841.868C29.8619 838.627 24.535 838.531 21.5042 841.655C18.4734 844.779 18.8865 849.94 22.4268 853.181C25.9672 856.423 31.2941 856.519 34.3249 853.395C37.3556 850.271 36.9426 845.11 33.4023 841.868Z" fill="#A0D591"/>
<path d="M31.5336 816.823C27.9318 813.525 22.5125 813.428 19.4292 816.606C16.3458 819.784 16.7661 825.034 20.3678 828.332C23.9695 831.63 29.3888 831.727 32.4722 828.549C35.5555 825.371 35.1353 820.121 31.5336 816.823Z" fill="#A0D591"/>
<path d="M28.1742 791.343C24.3543 788.754 19.3728 789.459 17.0479 792.917C14.7229 796.375 15.9349 801.278 19.7549 803.867C23.5748 806.455 28.5562 805.751 30.8812 802.293C33.2061 798.834 31.9942 793.932 28.1742 791.343Z" fill="#A0D591"/>
<path d="M27.5405 766.919C23.9463 763.627 18.5131 763.53 15.4361 766.702C12.3592 769.873 12.7805 775.137 16.3747 778.428C19.969 781.719 25.4022 781.816 28.4791 778.645C31.556 775.473 31.1347 770.21 27.5405 766.919Z" fill="#A0D591"/>
<path d="M25.5454 742.001C21.9511 738.71 16.5179 738.613 13.441 741.784C10.364 744.956 10.7854 750.219 14.3796 753.51C17.9739 756.801 23.4071 756.899 26.484 753.727C29.5609 750.556 29.1396 745.292 25.5454 742.001Z" fill="#A0D591"/>
<path d="M23.1318 717.44C19.7756 714.367 14.7258 714.276 11.8527 717.238C8.97962 720.199 9.3712 725.091 12.7274 728.165C16.0835 731.238 21.1333 731.328 24.0064 728.367C26.8795 725.405 26.4879 720.513 23.1318 717.44Z" fill="#A0D591"/>
<path d="M21.4554 692.198C17.915 688.956 12.5881 688.86 9.55731 691.984C6.52653 695.108 6.93961 700.269 10.4799 703.511C14.0203 706.752 19.3472 706.848 22.378 703.724C25.4088 700.6 24.9957 695.439 21.4554 692.198Z" fill="#A0D591"/>
<path d="M19.2015 667.476C15.7925 664.354 10.7031 664.263 7.7848 667.271C4.86648 670.279 5.26114 675.21 8.6701 678.331C12.0791 681.453 17.1684 681.544 20.0867 678.536C23.005 675.528 22.6104 670.597 19.2015 667.476Z" fill="#A0D591"/>
<path d="M16.7614 643.011C13.6489 640.161 9.00926 640.111 6.37643 642.825C3.7436 645.539 4.10622 650.069 7.1817 652.885C10.2572 655.702 14.9339 655.785 17.5667 653.072C20.1995 650.358 19.8369 645.827 16.7614 643.011Z" fill="#A0D591"/>
<path d="M14.4779 618.322C11.5506 615.642 7.18608 615.597 4.71185 618.147C2.23762 620.697 2.57894 624.961 5.46915 627.608C8.35936 630.254 12.761 630.333 15.2352 627.783C17.7094 625.233 17.3681 620.968 14.4779 618.322Z" fill="#A0D591"/>
<path d="M12.6432 593.241C9.63493 590.486 5.10857 590.405 2.53328 593.06C-0.0420032 595.714 0.308991 600.099 3.31725 602.854C6.32551 605.608 10.8518 605.689 13.4271 603.035C16.0024 600.38 15.6515 595.995 12.6432 593.241Z" fill="#A0D591"/>
<path d="M10.1326 568.777C7.42769 566.3 3.36995 566.227 1.05432 568.614C-1.2613 571.001 -0.94662 574.932 1.75832 577.409C4.46326 579.885 8.52094 579.958 10.8366 577.571C13.1522 575.184 12.8376 571.254 10.1326 568.777Z" fill="#A0D591"/>
<path d="M7.63311 544.383C5.26166 542.212 1.68536 542.148 -0.34477 544.24C-2.37491 546.333 -2.09758 549.797 0.273871 551.969C2.64532 554.14 6.22164 554.205 8.25178 552.112C10.2819 550.019 10.0046 546.555 7.63311 544.383Z" fill="#A0D591"/>
<path d="M5.79881 519.301C3.35325 517.062 -0.360568 516.995 -2.45414 519.153C-4.54772 521.311 -4.25976 524.909 -1.8142 527.148C0.631365 529.387 4.34527 529.454 6.43884 527.296C8.53242 525.138 8.24438 521.54 5.79881 519.301Z" fill="#A0D591"/>
<path d="M3.22575 494.904C1.11367 492.97 -2.04996 492.913 -3.85805 494.777C-5.66614 496.64 -5.42082 499.705 -3.30874 501.639C-1.19667 503.573 1.96697 503.63 3.77506 501.766C5.58315 499.902 5.33783 496.838 3.22575 494.904Z" fill="#A0D591"/>
<path d="M0.689639 470.543C-1.0519 468.948 -3.66536 468.901 -5.15624 470.438C-6.64712 471.975 -6.44443 474.507 -4.7029 476.101C-2.96136 477.696 -0.347957 477.743 1.14292 476.206C2.6338 474.669 2.43118 472.138 0.689639 470.543Z" fill="#A0D591"/>
<path d="M-1.87907 446.145C-3.25006 444.89 -5.35039 444.819 -6.55578 446.062C-7.76118 447.304 -7.60116 449.303 -6.1931 450.592C-4.78505 451.882 -2.72184 451.919 -1.51644 450.676C-0.31105 449.434 -0.471015 447.435 -1.87907 446.145Z" fill="#A0D591"/>
<path d="M65.7185 943.574C63.0876 941.165 59.1675 941.095 56.9153 943.416C54.6631 945.737 54.9671 949.535 57.5979 951.944C60.2287 954.353 64.1489 954.423 66.4011 952.102C68.6533 949.78 68.3493 945.983 65.7185 943.574Z" fill="#A0D591"/>
<path d="M63.1323 917.658C59.9796 915.521 55.8685 916.103 53.9497 918.957C52.0309 921.811 53.0311 925.856 56.1838 927.993C59.3364 930.13 63.4476 929.548 65.3663 926.694C67.2851 923.84 66.2849 919.794 63.1323 917.658Z" fill="#A0D591"/>
<path d="M62.2991 893.149C59.3318 890.432 54.867 890.352 52.3268 892.971C49.7865 895.589 50.1327 899.914 53.1001 902.631C56.0674 905.349 60.5322 905.429 63.0724 902.81C65.6127 900.192 65.2664 895.867 62.2991 893.149Z" fill="#A0D591"/>
<path d="M60.2654 868.201C57.2981 865.484 52.8333 865.404 50.2931 868.022C47.7528 870.641 48.099 874.966 51.0664 877.683C54.0337 880.4 58.4985 880.48 61.0387 877.862C63.579 875.244 63.2328 870.918 60.2654 868.201Z" fill="#A0D591"/>
<path d="M58.4938 843.055C55.3813 840.205 50.7417 840.155 48.1088 842.869C45.476 845.583 45.8386 850.113 48.9141 852.929C51.9896 855.746 56.6663 855.829 59.2991 853.116C61.932 850.402 61.5693 845.871 58.4938 843.055Z" fill="#A0D591"/>
<path d="M56.5574 818.003C53.4059 815.117 48.664 815.032 45.966 817.813C43.2681 820.594 43.6358 825.187 46.7873 828.073C49.9388 830.959 54.6808 831.044 57.3787 828.263C60.0766 825.482 59.7089 820.888 56.5574 818.003Z" fill="#A0D591"/>
<path d="M54.9439 792.691C51.5349 789.569 46.4455 789.478 43.5272 792.486C40.6089 795.494 41.0036 800.424 44.4125 803.546C47.8215 806.667 52.9108 806.759 55.8291 803.751C58.7474 800.743 58.3528 795.812 54.9439 792.691Z" fill="#A0D591"/>
<path d="M52.6251 768.035C49.4384 765.117 44.6241 765.031 41.8961 767.843C39.1681 770.655 39.5415 775.318 42.7281 778.236C45.9148 781.154 50.729 781.241 53.457 778.429C56.185 775.617 55.8117 770.953 52.6251 768.035Z" fill="#A0D591"/>
<path d="M50.5708 743.181C47.4193 740.295 42.6774 740.21 39.9795 742.991C37.2815 745.772 37.6493 750.366 40.8008 753.251C43.9523 756.137 48.6942 756.222 51.3921 753.441C54.09 750.66 53.7223 746.067 50.5708 743.181Z" fill="#A0D591"/>
<path d="M48.9218 717.905C45.5657 714.832 40.5159 714.741 37.6428 717.703C34.7697 720.664 35.1612 725.556 38.5174 728.629C41.8735 731.703 46.9234 731.793 49.7965 728.832C52.6696 725.87 52.278 720.978 48.9218 717.905Z" fill="#A0D591"/>
<path d="M46.416 693.442C43.3776 690.66 38.8384 690.579 36.2373 693.26C33.6362 695.941 33.9882 700.338 37.0266 703.121C40.065 705.903 44.6042 705.984 47.2053 703.303C49.8064 700.622 49.4544 696.225 46.416 693.442Z" fill="#A0D591"/>
<path d="M44.3265 668.622C41.3591 665.905 36.8944 665.825 34.3541 668.443C31.8139 671.062 32.1601 675.387 35.1274 678.104C38.0948 680.821 42.5595 680.901 45.0998 678.283C47.64 675.665 47.2938 671.339 44.3265 668.622Z" fill="#A0D591"/>
<path d="M41.9791 643.997C39.2164 641.467 35.0596 641.393 32.6945 643.831C30.3294 646.269 30.6518 650.296 33.4145 652.825C36.1772 655.355 40.334 655.43 42.6991 652.992C45.0641 650.554 44.7418 646.527 41.9791 643.997Z" fill="#A0D591"/>
<path d="M40.0152 619.045C37.2361 616.5 33.1097 616.426 30.7306 618.879C28.3515 621.331 28.6715 625.328 31.4506 627.873C34.2296 630.418 38.3561 630.492 40.7352 628.04C43.1143 625.587 42.7942 621.59 40.0152 619.045Z" fill="#A0D591"/>
<path d="M37.6986 594.387C35.1048 592.012 31.2218 591.976 29.033 594.232C26.8443 596.488 27.1482 600.286 29.705 602.627C32.2617 604.968 36.1819 605.038 38.3706 602.782C40.5594 600.526 40.2553 596.728 37.6986 594.387Z" fill="#A0D591"/>
<path d="M35.2892 569.897C32.9919 567.794 29.4843 567.731 27.5176 569.758C25.551 571.785 25.8229 575.183 28.1203 577.287C30.4176 579.39 33.9252 579.453 35.8918 577.426C37.8585 575.399 37.5866 572.001 35.2892 569.897Z" fill="#A0D591"/>
<path d="M33.3874 544.814C31.016 542.642 27.4397 542.578 25.4096 544.671C23.3794 546.763 23.6567 550.228 26.0282 552.399C28.3997 554.571 31.9759 554.635 34.006 552.542C36.0362 550.45 35.7589 546.985 33.3874 544.814Z" fill="#A0D591"/>
<path d="M30.8503 520.45C28.8494 518.617 25.8233 518.563 24.1104 520.329C22.3975 522.094 22.6321 525.026 24.633 526.858C26.6339 528.69 29.66 528.744 31.3729 526.979C33.0859 525.213 32.8512 522.282 30.8503 520.45Z" fill="#A0D591"/>
<path d="M28.4451 495.96C26.7035 494.365 24.0901 494.318 22.5993 495.855C21.1084 497.392 21.311 499.924 23.0525 501.518C24.7941 503.113 27.4075 503.16 28.8984 501.623C30.3893 500.086 30.1866 497.555 28.4451 495.96Z" fill="#A0D591"/>
<path d="M25.8756 471.559C24.5046 470.303 22.4044 470.232 21.199 471.475C19.9936 472.717 20.1535 474.716 21.5616 476.005C22.9697 477.295 25.0329 477.332 26.2383 476.089C27.4437 474.847 27.2837 472.848 25.8756 471.559Z" fill="#A0D591"/>
<path d="M23.8805 446.641C22.5095 445.386 20.4091 445.315 19.2037 446.557C17.9983 447.8 18.1584 449.799 19.5664 451.088C20.9745 452.377 23.0377 452.414 24.2431 451.172C25.4485 449.929 25.2885 447.93 23.8805 446.641Z" fill="#A0D591"/>
<path d="M21.2415 422.313C20.241 421.397 18.765 421.404 17.9402 422.254C17.1155 423.104 17.2329 424.57 18.1963 425.452C19.1597 426.334 20.6727 426.361 21.4974 425.511C22.3222 424.661 22.2049 423.195 21.2415 422.313Z" fill="#A0D591"/>
<path d="M18.6799 397.982C18.0871 397.44 17.1931 397.424 16.6855 397.947C16.178 398.47 16.2473 399.336 16.8401 399.879C17.433 400.422 18.3271 400.438 18.8346 399.915C19.3421 399.391 19.2728 398.525 18.6799 397.982Z" fill="#A0D591"/>
<path d="M16.6481 373.03C16.0552 372.487 15.1612 372.471 14.6536 372.994C14.1461 373.517 14.2154 374.383 14.8083 374.926C15.4011 375.469 16.2952 375.485 16.8027 374.962C17.3102 374.439 17.241 373.573 16.6481 373.03Z" fill="#A0D591"/>
<path d="M14.0505 348.735C13.846 348.548 13.5383 348.542 13.3632 348.723C13.1881 348.903 13.2119 349.201 13.4165 349.388C13.621 349.576 13.9288 349.581 14.1039 349.401C14.279 349.22 14.2551 348.922 14.0505 348.735Z" fill="#A0D591"/>
<path d="M91.284 944.267C88.8014 941.994 85.0188 941.926 82.8935 944.117C80.7682 946.307 81.0615 949.972 83.5441 952.245C86.0267 954.518 89.8093 954.586 91.9346 952.395C94.0599 950.205 93.7666 946.54 91.284 944.267Z" fill="#A0D591"/>
<path d="M88.9987 919.578C86.7013 917.474 83.1938 917.411 81.2271 919.438C79.2604 921.466 79.5324 924.864 81.8298 926.967C84.1271 929.071 87.6346 929.134 89.6013 927.107C91.568 925.079 91.296 921.681 88.9987 919.578Z" fill="#A0D591"/>
<path d="M87.5114 894.139C84.8715 891.722 80.8995 891.651 78.6395 893.98C76.3796 896.309 76.6876 900.157 79.3275 902.575C81.9674 904.992 85.9395 905.063 88.1994 902.734C90.4594 900.404 90.1513 896.556 87.5114 894.139Z" fill="#A0D591"/>
<path d="M85.8024 868.923C82.9988 866.355 78.7803 866.28 76.3802 868.754C73.9801 871.228 74.3072 875.314 77.1109 877.881C79.9145 880.449 84.1329 880.524 86.533 878.05C88.9331 875.576 88.606 871.49 85.8024 868.923Z" fill="#A0D591"/>
<path d="M83.4233 844.332C80.8295 841.956 76.9463 841.92 74.7576 844.176C72.5689 846.432 72.8729 850.23 75.4296 852.571C77.9863 854.912 81.9065 854.982 84.0952 852.726C86.284 850.47 85.98 846.673 83.4233 844.332Z" fill="#A0D591"/>
<path d="M81.8715 818.957C79.0183 816.345 74.7543 816.268 72.3118 818.786C69.8693 821.304 70.1682 825.467 73.0214 828.08C75.8745 830.692 80.1386 830.769 82.6128 828.218C85.087 825.668 84.7247 821.57 81.8715 818.957Z" fill="#A0D591"/>
<path d="M79.9971 793.839C77.0698 791.159 72.6312 791.046 70.0935 793.662C67.5558 796.277 67.8972 800.541 70.8615 803.256C73.8258 805.97 78.2274 806.049 80.7651 803.433C83.3027 800.818 82.9614 796.554 79.9971 793.839Z" fill="#A0D591"/>
<path d="M78.0057 768.922C75.0784 766.241 70.6398 766.128 68.1021 768.744C65.5644 771.36 65.9057 775.624 68.8701 778.338C71.8344 781.053 76.236 781.132 78.7736 778.516C81.3113 775.9 80.97 771.636 78.0057 768.922Z" fill="#A0D591"/>
<path d="M76.0052 743.935C73.0583 741.236 68.6243 741.157 66.1016 743.757C63.5789 746.358 63.9227 750.653 66.8696 753.351C69.8164 756.05 74.2504 756.129 76.7731 753.529C79.2959 750.929 78.952 746.633 76.0052 743.935Z" fill="#A0D591"/>
<path d="M73.853 719.181C71.0084 716.576 66.7284 716.5 64.2933 719.01C61.8581 721.52 62.19 725.666 65.0346 728.271C67.8791 730.875 72.1591 730.952 74.5943 728.442C77.0294 725.932 76.6975 721.786 73.853 719.181Z" fill="#A0D591"/>
<path d="M71.7611 694.363C68.9984 691.833 64.8415 691.759 62.4765 694.197C60.1114 696.634 60.4338 700.661 63.1965 703.191C65.9591 705.721 70.116 705.795 72.481 703.357C74.8461 700.92 74.5238 696.893 71.7611 694.363Z" fill="#A0D591"/>
<path d="M69.2844 669.87C66.8389 667.631 63.1251 667.564 61.0315 669.722C58.9379 671.88 59.2259 675.478 61.6715 677.718C64.117 679.957 67.8308 680.023 69.9244 677.865C72.018 675.708 71.73 672.11 69.2844 669.87Z" fill="#A0D591"/>
<path d="M67.5786 644.656C64.9478 642.247 60.9588 642.175 58.7066 644.497C56.4544 646.818 56.7638 650.682 59.3946 653.091C62.0254 655.5 66.0144 655.572 68.2666 653.25C70.5187 650.929 70.2094 647.065 67.5786 644.656Z" fill="#A0D591"/>
<path d="M65.2603 619.997C62.8147 617.758 59.1009 617.691 57.0073 619.849C54.9137 622.007 55.2017 625.605 57.6473 627.844C60.0928 630.084 63.8067 630.15 65.9003 627.992C67.9938 625.834 67.7059 622.237 65.2603 619.997Z" fill="#A0D591"/>
<path d="M62.7265 595.635C60.6144 593.701 57.4507 593.644 55.6427 595.508C53.8346 597.371 54.0799 600.436 56.192 602.37C58.304 604.304 61.4677 604.361 63.2758 602.497C65.0839 600.633 64.8385 597.568 62.7265 595.635Z" fill="#A0D591"/>
<path d="M60.9146 570.458C58.6913 568.422 55.3214 568.361 53.4182 570.323C51.5149 572.285 51.7762 575.55 53.9994 577.585C56.2227 579.621 59.5927 579.682 61.4959 577.72C63.3992 575.758 63.1378 572.493 60.9146 570.458Z" fill="#A0D591"/>
<path d="M58.5098 545.96C56.5459 544.162 53.6256 544.142 51.9761 545.843C50.3267 547.543 50.556 550.408 52.4828 552.172C54.4096 553.937 57.3669 553.99 59.0164 552.289C60.6659 550.589 60.4366 547.724 58.5098 545.96Z" fill="#A0D591"/>
<path d="M56.0346 521.469C54.377 519.951 51.8829 519.906 50.4638 521.369C49.0448 522.831 49.2382 525.248 50.8959 526.765C52.5535 528.283 55.0476 528.328 56.4666 526.865C57.8856 525.403 57.6922 522.986 56.0346 521.469Z" fill="#A0D591"/>
<path d="M53.4363 497.17C52.1765 496.016 50.2508 495.982 49.1723 497.093C48.0938 498.205 48.2431 500.07 49.503 501.224C50.7628 502.378 52.6885 502.412 53.767 501.3C54.8455 500.189 54.6962 498.323 53.4363 497.17Z" fill="#A0D591"/>
<path d="M51.6012 472.09C50.2673 470.869 48.204 470.832 47.0621 472.009C45.9201 473.186 46.0801 475.185 47.414 476.406C48.748 477.628 50.8112 477.665 51.9532 476.488C53.0951 475.31 52.9351 473.312 51.6012 472.09Z" fill="#A0D591"/>
<path d="M48.9953 447.726C47.9948 446.81 46.5189 446.817 45.6941 447.667C44.8694 448.517 44.9867 449.983 45.9501 450.865C46.9135 451.747 48.4266 451.774 49.2513 450.924C50.0761 450.074 49.9587 448.608 48.9953 447.726Z" fill="#A0D591"/>
<path d="M46.433 423.396C45.8401 422.853 44.9461 422.837 44.4385 423.36C43.931 423.883 44.0003 424.749 44.5932 425.292C45.186 425.835 46.0801 425.851 46.5877 425.328C47.0952 424.805 47.0259 423.938 46.433 423.396Z" fill="#A0D591"/>
<path d="M44.401 398.44C43.8082 397.897 42.914 397.881 42.4065 398.404C41.899 398.927 41.9683 399.794 42.5612 400.336C43.1541 400.879 44.0481 400.895 44.5556 400.372C45.0632 399.849 44.9939 398.983 44.401 398.44Z" fill="#A0D591"/>
<path d="M41.8036 374.144C41.5991 373.957 41.2913 373.952 41.1162 374.132C40.9411 374.313 40.965 374.611 41.1695 374.798C41.3741 374.985 41.6818 374.991 41.8569 374.81C42.032 374.63 42.0081 374.332 41.8036 374.144Z" fill="#A0D591"/>
<path d="M116.276 945.482C114.275 943.65 111.249 943.596 109.536 945.361C107.823 947.127 108.057 950.059 110.058 951.891C112.059 953.723 115.085 953.777 116.798 952.012C118.511 950.246 118.277 947.314 116.276 945.482Z" fill="#A0D591"/>
<path d="M114.758 920.073C112.446 917.956 108.967 917.894 106.987 919.934C105.007 921.975 105.277 925.345 107.59 927.463C109.902 929.58 113.381 929.643 115.361 927.602C117.341 925.562 117.071 922.191 114.758 920.073Z" fill="#A0D591"/>
<path d="M112.509 895.349C110.36 893.381 107.09 893.289 105.219 895.218C103.347 897.147 103.598 900.279 105.784 902.28C107.97 904.282 111.203 904.34 113.074 902.411C114.946 900.482 114.695 897.351 112.509 895.349Z" fill="#A0D591"/>
<path d="M110.732 870.203C108.44 868.104 104.991 868.042 103.029 870.064C101.067 872.087 101.334 875.428 103.626 877.527C105.918 879.625 109.367 879.687 111.329 877.665C113.291 875.642 113.024 872.301 110.732 870.203Z" fill="#A0D591"/>
<path d="M109.214 844.792C106.62 842.417 102.737 842.381 100.548 844.637C98.3596 846.893 98.6636 850.691 101.22 853.032C103.777 855.373 107.697 855.443 109.886 853.187C112.075 850.931 111.771 847.134 109.214 844.792Z" fill="#A0D591"/>
<path d="M106.864 820.168C104.492 817.997 100.916 817.932 98.8861 820.025C96.8559 822.118 97.1333 825.582 99.5047 827.754C101.876 829.925 105.452 829.989 107.483 827.897C109.513 825.804 109.235 822.34 106.864 820.168Z" fill="#A0D591"/>
<path d="M104.964 795.15C102.529 792.92 98.8647 792.855 96.7799 795.004C94.6951 797.152 94.9793 800.702 97.4145 802.932C99.8498 805.162 103.514 805.228 105.599 803.079C107.684 800.93 107.399 797.38 104.964 795.15Z" fill="#A0D591"/>
<path d="M103.313 769.807C100.645 767.364 96.5877 767.291 94.3038 769.646C92.0198 772 92.3345 775.931 95.0024 778.374C97.6703 780.817 101.728 780.889 104.012 778.535C106.296 776.181 105.981 772.25 103.313 769.807Z" fill="#A0D591"/>
<path d="M101.286 744.925C98.646 742.508 94.6739 742.437 92.4139 744.766C90.154 747.096 90.462 750.944 93.1019 753.361C95.7418 755.778 99.7139 755.849 101.974 753.52C104.234 751.19 103.926 747.342 101.286 744.925Z" fill="#A0D591"/>
<path d="M98.8115 720.431C96.4771 718.293 92.9325 718.197 90.9024 720.289C88.8722 722.382 89.1442 725.78 91.5157 727.951C93.8871 730.123 97.3946 730.185 99.4248 728.093C101.455 726 101.183 722.602 98.8115 720.431Z" fill="#A0D591"/>
<path d="M96.754 695.576C94.462 693.477 91.0133 693.415 89.0512 695.438C87.0891 697.46 87.3565 700.801 89.6485 702.9C91.9405 704.998 95.3892 705.06 97.3513 703.038C99.3134 701.015 99.046 697.674 96.754 695.576Z" fill="#A0D591"/>
<path d="M95.0442 670.363C92.5987 668.124 88.8848 668.057 86.7912 670.215C84.6977 672.373 84.9857 675.971 87.4312 678.21C89.8768 680.45 93.5906 680.516 95.6842 678.358C97.7778 676.2 97.4898 672.602 95.0442 670.363Z" fill="#A0D591"/>
<path d="M92.5671 645.869C90.418 643.901 87.1486 643.809 85.277 645.738C83.4055 647.667 83.6561 650.799 85.8423 652.8C88.0285 654.802 91.2609 654.86 93.1324 652.931C95.004 651.002 94.7533 647.871 92.5671 645.869Z" fill="#A0D591"/>
<path d="M90.2586 621.277C88.2947 619.479 85.3744 619.46 83.7249 621.16C82.0755 622.86 82.3048 625.725 84.2316 627.49C86.1584 629.254 89.1157 629.307 90.7652 627.607C92.4147 625.906 92.1854 623.042 90.2586 621.277Z" fill="#A0D591"/>
<path d="M88.4797 596.064C86.3676 594.13 83.2039 594.074 81.3959 595.937C79.5878 597.801 79.8331 600.866 81.9452 602.8C84.0572 604.734 87.2209 604.79 89.029 602.927C90.8371 601.063 90.5917 597.998 88.4797 596.064Z" fill="#A0D591"/>
<path d="M85.915 571.732C84.1735 570.137 81.5601 570.09 80.0692 571.627C78.5783 573.164 78.781 575.696 80.5225 577.29C82.264 578.885 84.8775 578.932 86.3684 577.395C87.8593 575.858 87.6566 573.327 85.915 571.732Z" fill="#A0D591"/>
<path d="M83.5354 547.143C82.0415 545.775 79.7937 545.734 78.5149 547.053C77.236 548.371 77.4103 550.548 78.9042 551.916C80.3981 553.284 82.6459 553.324 83.9247 552.006C85.2036 550.688 85.0293 548.51 83.5354 547.143Z" fill="#A0D591"/>
<path d="M81.1285 522.65C79.9006 521.525 78.0531 521.492 77.0019 522.576C75.9508 523.659 76.0941 525.449 77.322 526.573C78.5498 527.697 80.3973 527.731 81.4484 526.647C82.4995 525.564 82.3563 523.774 81.1285 522.65Z" fill="#A0D591"/>
<path d="M79.1888 497.599C77.92 496.438 76.0109 496.403 74.9247 497.523C73.8385 498.642 73.9866 500.492 75.2554 501.654C76.5242 502.816 78.4332 502.85 79.5194 501.73C80.6056 500.611 80.4576 498.761 79.1888 497.599Z" fill="#A0D591"/>
<path d="M76.5942 473.3C75.7049 472.486 74.3982 472.462 73.6369 473.247C72.8756 474.032 72.9769 475.298 73.8662 476.112C74.7555 476.926 76.0622 476.95 76.8235 476.165C77.5848 475.38 77.4835 474.114 76.5942 473.3Z" fill="#A0D591"/>
<path d="M74.1866 448.809C73.5937 448.266 72.6997 448.25 72.1922 448.773C71.6846 449.296 71.7539 450.163 72.3468 450.705C72.9397 451.248 73.8338 451.264 74.3413 450.741C74.8489 450.218 74.7795 449.352 74.1866 448.809Z" fill="#A0D591"/>
<path d="M72.1558 423.856C71.563 423.314 70.6689 423.298 70.1614 423.821C69.6538 424.344 69.7232 425.21 70.316 425.753C70.9089 426.296 71.803 426.312 72.3105 425.789C72.818 425.265 72.7487 424.399 72.1558 423.856Z" fill="#A0D591"/>
<path d="M69.5567 399.558C69.3522 399.37 69.0444 399.365 68.8693 399.545C68.6942 399.726 68.7181 400.024 68.9226 400.211C69.1272 400.398 69.4349 400.404 69.61 400.224C69.7851 400.043 69.7613 399.745 69.5567 399.558Z" fill="#A0D591"/>
<path d="M141.497 946.529C139.839 945.011 137.345 944.967 135.926 946.429C134.507 947.892 134.7 950.308 136.358 951.826C138.015 953.344 140.509 953.388 141.929 951.926C143.348 950.463 143.154 948.047 141.497 946.529Z" fill="#A0D591"/>
<path d="M139.718 921.319C137.902 919.656 135.22 919.608 133.666 921.21C132.112 922.812 132.32 925.411 134.135 927.073C135.951 928.736 138.633 928.784 140.187 927.182C141.742 925.58 141.534 922.981 139.718 921.319Z" fill="#A0D591"/>
<path d="M138.042 896.074C136.037 894.237 133.019 894.183 131.302 895.953C129.585 897.722 129.82 900.646 131.825 902.482C133.831 904.318 136.848 904.373 138.565 902.603C140.282 900.833 140.048 897.91 138.042 896.074Z" fill="#A0D591"/>
<path d="M136.041 871.091C134.04 869.258 131.014 869.204 129.301 870.97C127.588 872.735 127.823 875.667 129.824 877.499C131.824 879.331 134.851 879.386 136.563 877.62C138.276 875.854 138.042 872.923 136.041 871.091Z" fill="#A0D591"/>
<path d="M134.144 846.072C132.069 844.172 128.975 844.117 127.198 845.948C125.422 847.779 125.662 850.777 127.737 852.677C129.812 854.577 132.907 854.633 134.683 852.802C136.459 850.971 136.219 847.972 134.144 846.072Z" fill="#A0D591"/>
<path d="M132.305 820.991C130.156 819.023 126.887 818.932 125.015 820.861C123.144 822.79 123.394 825.921 125.581 827.923C127.767 829.925 130.999 829.983 132.871 828.054C134.742 826.125 134.492 822.993 132.305 820.991Z" fill="#A0D591"/>
<path d="M130.305 796.005C128.156 794.037 124.886 793.945 123.015 795.874C121.143 797.803 121.394 800.934 123.58 802.936C125.766 804.938 128.998 804.996 130.87 803.067C132.742 801.138 132.491 798.006 130.305 796.005Z" fill="#A0D591"/>
<path d="M128.311 771.087C126.162 769.119 122.893 769.027 121.021 770.956C119.15 772.885 119.401 776.017 121.587 778.019C123.773 780.021 127.005 780.079 128.877 778.149C130.748 776.22 130.498 773.089 128.311 771.087Z" fill="#A0D591"/>
<path d="M126.282 746.135C124.133 744.167 120.864 744.075 118.992 746.004C117.121 747.933 117.371 751.065 119.558 753.067C121.744 755.068 124.976 755.126 126.848 753.197C128.719 751.268 128.469 748.137 126.282 746.135Z" fill="#A0D591"/>
<path d="M124.159 721.346C122.092 719.454 118.982 719.398 117.213 721.222C115.443 723.046 115.684 726.058 117.751 727.951C119.818 729.844 122.928 729.899 124.697 728.076C126.467 726.252 126.226 723.239 124.159 721.346Z" fill="#A0D591"/>
<path d="M122.159 696.363C120.092 694.47 116.982 694.415 115.213 696.238C113.444 698.062 113.685 701.075 115.752 702.968C117.819 704.86 120.929 704.916 122.698 703.092C124.467 701.268 124.226 698.256 122.159 696.363Z" fill="#A0D591"/>
<path d="M119.974 671.643C118.01 669.845 115.09 669.826 113.441 671.526C111.791 673.226 112.021 676.091 113.947 677.855C115.874 679.62 118.832 679.673 120.481 677.972C122.131 676.272 121.901 673.407 119.974 671.643Z" fill="#A0D591"/>
<path d="M117.789 646.918C115.974 645.255 113.291 645.207 111.737 646.809C110.183 648.411 110.391 651.01 112.206 652.672C114.022 654.335 116.704 654.383 118.258 652.781C119.813 651.179 119.605 648.58 117.789 646.918Z" fill="#A0D591"/>
<path d="M115.755 621.969C113.939 620.306 111.257 620.258 109.703 621.86C108.148 623.462 108.356 626.061 110.172 627.723C111.988 629.386 114.67 629.434 116.224 627.832C117.778 626.23 117.57 623.631 115.755 621.969Z" fill="#A0D591"/>
<path d="M113.511 597.307C111.88 595.814 109.473 595.771 108.077 597.21C106.682 598.649 106.868 600.98 108.499 602.473C110.129 603.966 112.536 604.009 113.932 602.571C115.328 601.132 115.141 598.8 113.511 597.307Z" fill="#A0D591"/>
<path d="M111.161 572.683C109.753 571.394 107.621 571.355 106.416 572.598C105.21 573.84 105.376 575.906 106.784 577.195C108.192 578.484 110.324 578.523 111.529 577.28C112.735 576.038 112.569 573.972 111.161 572.683Z" fill="#A0D591"/>
<path d="M108.561 548.39C107.524 547.44 106.011 547.413 105.123 548.329C104.234 549.244 104.352 550.71 105.389 551.66C106.427 552.61 107.94 552.637 108.828 551.722C109.716 550.806 109.599 549.34 108.561 548.39Z" fill="#A0D591"/>
<path d="M106.754 523.206C105.608 522.157 103.884 522.126 102.903 523.137C101.922 524.149 102.055 525.819 103.201 526.868C104.347 527.918 106.072 527.949 107.053 526.938C108.034 525.926 107.9 524.256 106.754 523.206Z" fill="#A0D591"/>
<path d="M104.348 498.713C103.459 497.899 102.152 497.875 101.391 498.66C100.629 499.445 100.731 500.711 101.62 501.525C102.509 502.339 103.816 502.363 104.577 501.578C105.339 500.793 105.237 499.527 104.348 498.713Z" fill="#A0D591"/>
<path d="M101.747 474.349C101.228 473.874 100.472 473.86 100.027 474.318C99.5834 474.776 99.6421 475.509 100.161 475.984C100.68 476.459 101.436 476.472 101.88 476.015C102.324 475.557 102.266 474.824 101.747 474.349Z" fill="#A0D591"/>
<path d="M99.782 449.397C99.2633 448.922 98.5067 448.908 98.0626 449.366C97.6185 449.824 97.6772 450.557 98.196 451.032C98.7147 451.507 99.4712 451.52 99.9153 451.062C100.359 450.605 100.301 449.872 99.782 449.397Z" fill="#A0D591"/>
<path d="M97.3416 424.943C97.1193 424.74 96.8127 424.768 96.6542 424.931C96.4957 425.094 96.5223 425.427 96.7075 425.597C96.8927 425.766 97.2364 425.773 97.3949 425.609C97.5534 425.446 97.5267 425.113 97.3416 424.943Z" fill="#A0D591"/>
<path d="M166.427 947.809C165.278 946.757 163.559 946.726 162.576 947.74C161.592 948.754 161.726 950.419 162.874 951.471C164.023 952.523 165.742 952.554 166.726 951.54C167.709 950.526 167.576 948.861 166.427 947.809Z" fill="#A0D591"/>
<path d="M164.685 922.63C163.396 921.449 161.456 921.415 160.352 922.552C159.249 923.69 159.399 925.569 160.688 926.75C161.978 927.93 163.917 927.965 165.021 926.827C166.125 925.69 165.974 923.81 164.685 922.63Z" fill="#A0D591"/>
<path d="M163.224 897.09C161.566 895.572 159.072 895.527 157.653 896.99C156.234 898.452 156.427 900.869 158.085 902.386C159.743 903.904 162.237 903.949 163.656 902.486C165.075 901.024 164.881 898.607 163.224 897.09Z" fill="#A0D591"/>
<path d="M161.451 871.943C159.673 870.315 156.99 870.267 155.468 871.836C153.945 873.406 154.153 876.004 155.932 877.633C157.71 879.261 160.393 879.309 161.915 877.74C163.438 876.17 163.23 873.572 161.451 871.943Z" fill="#A0D591"/>
<path d="M159.042 847.382C157.523 845.991 155.185 845.949 153.884 847.29C152.584 848.63 152.765 850.896 154.284 852.287C155.803 853.678 158.142 853.72 159.442 852.379C160.743 851.039 160.562 848.773 159.042 847.382Z" fill="#A0D591"/>
<path d="M157.585 821.909C155.732 820.212 152.913 820.162 151.327 821.797C149.741 823.432 149.959 826.163 151.812 827.86C153.665 829.556 156.484 829.607 158.07 827.972C159.656 826.337 159.438 823.605 157.585 821.909Z" fill="#A0D591"/>
<path d="M155.653 796.928C153.749 795.185 150.886 795.134 149.256 796.813C147.627 798.493 147.849 801.267 149.752 803.01C151.656 804.752 154.519 804.804 156.149 803.124C157.778 801.445 157.556 798.671 155.653 796.928Z" fill="#A0D591"/>
<path d="M153.241 772.364C151.574 770.837 149.098 770.792 147.67 772.264C146.243 773.735 146.435 776.134 148.102 777.66C149.77 779.187 152.245 779.232 153.673 777.76C155.1 776.289 154.908 773.89 153.241 772.364Z" fill="#A0D591"/>
<path d="M151.214 747.482C149.584 745.989 147.145 745.978 145.781 747.384C144.417 748.79 144.572 751.155 146.202 752.648C147.833 754.141 150.24 754.184 151.636 752.745C153.031 751.306 152.845 748.975 151.214 747.482Z" fill="#A0D591"/>
<path d="M149.594 722.104C147.732 720.399 144.93 720.349 143.335 721.992C141.741 723.635 141.958 726.35 143.821 728.055C145.683 729.76 148.485 729.81 150.079 728.167C151.673 726.524 151.456 723.809 149.594 722.104Z" fill="#A0D591"/>
<path d="M147.409 697.383C145.668 695.789 143.054 695.742 141.563 697.278C140.072 698.815 140.275 701.347 142.017 702.942C143.758 704.536 146.372 704.583 147.863 703.046C149.353 701.51 149.151 698.978 147.409 697.383Z" fill="#A0D591"/>
<path d="M144.966 672.856C143.483 671.499 141.283 671.459 140.014 672.767C138.745 674.075 138.916 676.207 140.398 677.564C141.88 678.922 144.081 678.961 145.35 677.653C146.618 676.345 146.448 674.213 144.966 672.856Z" fill="#A0D591"/>
<path d="M143.288 647.609C141.631 646.091 139.137 646.047 137.718 647.509C136.298 648.972 136.492 651.388 138.149 652.906C139.807 654.424 142.301 654.469 143.72 653.006C145.139 651.543 144.946 649.127 143.288 647.609Z" fill="#A0D591"/>
<path d="M141.007 622.986C139.524 621.629 137.324 621.589 136.055 622.897C134.786 624.205 134.957 626.337 136.439 627.694C137.921 629.051 140.122 629.091 141.391 627.783C142.659 626.475 142.489 624.343 141.007 622.986Z" fill="#A0D591"/>
<path d="M138.501 598.524C137.352 597.472 135.633 597.441 134.65 598.455C133.666 599.468 133.8 601.134 134.948 602.186C136.097 603.238 137.816 603.269 138.8 602.255C139.783 601.241 139.65 599.576 138.501 598.524Z" fill="#A0D591"/>
<path d="M136.097 574.031C135.207 573.217 133.901 573.193 133.139 573.978C132.378 574.763 132.479 576.028 133.369 576.843C134.258 577.657 135.565 577.681 136.326 576.896C137.087 576.111 136.986 574.845 136.097 574.031Z" fill="#A0D591"/>
<path d="M134.315 548.817C133.278 547.867 131.765 547.839 130.877 548.755C129.989 549.67 130.106 551.136 131.143 552.086C132.181 553.036 133.694 553.063 134.582 552.148C135.47 551.232 135.353 549.767 134.315 548.817Z" fill="#A0D591"/>
<path d="M131.717 524.521C131.087 523.944 130.125 523.927 129.585 524.482C129.046 525.038 129.121 525.971 129.751 526.548C130.381 527.125 131.343 527.142 131.883 526.586C132.422 526.03 132.347 525.097 131.717 524.521Z" fill="#A0D591"/>
<path d="M129.274 499.994C128.903 499.655 128.353 499.645 128.036 499.972C127.719 500.299 127.762 500.831 128.132 501.17C128.503 501.509 129.052 501.519 129.369 501.193C129.687 500.866 129.644 500.333 129.274 499.994Z" fill="#A0D591"/>
<path d="M127.47 474.881C126.989 474.44 126.269 474.46 125.889 474.852C125.508 475.245 125.567 475.978 126.011 476.385C126.456 476.792 127.212 476.805 127.593 476.413C127.974 476.021 127.915 475.288 127.47 474.881Z" fill="#A0D591"/>
<path d="M124.901 450.481C124.901 450.481 124.582 450.375 124.487 450.473C124.391 450.572 124.408 450.772 124.519 450.875C124.631 450.977 124.838 450.981 124.933 450.882C125.029 450.784 125.012 450.584 124.901 450.481Z" fill="#A0D591"/>
<path d="M191.962 948.538C190.961 947.622 189.485 947.628 188.661 948.479C187.836 949.329 187.953 950.794 188.917 951.677C189.88 952.559 191.393 952.586 192.218 951.736C193.043 950.886 192.925 949.42 191.962 948.538Z" fill="#A0D591"/>
<path d="M189.96 923.554C188.959 922.638 187.483 922.645 186.659 923.495C185.834 924.345 185.951 925.811 186.915 926.693C187.878 927.575 189.391 927.602 190.216 926.752C191.04 925.902 190.923 924.436 189.96 923.554Z" fill="#A0D591"/>
<path d="M188.221 898.369C187.072 897.317 185.353 897.286 184.37 898.3C183.386 899.314 183.52 900.979 184.668 902.031C185.817 903.083 187.536 903.114 188.52 902.1C189.503 901.087 189.37 899.421 188.221 898.369Z" fill="#A0D591"/>
<path d="M186.347 873.255C185.125 872.136 183.268 872.103 182.221 873.182C181.174 874.261 181.318 876.059 182.541 877.179C183.764 878.299 185.621 878.332 186.667 877.253C187.714 876.174 187.57 874.375 186.347 873.255Z" fill="#A0D591"/>
<path d="M184.832 847.843C183.297 846.438 180.988 846.396 179.674 847.751C178.36 849.105 178.539 851.342 180.074 852.748C181.609 854.153 183.918 854.195 185.232 852.84C186.546 851.486 186.367 849.249 184.832 847.843Z" fill="#A0D591"/>
<path d="M182.51 823.189C181.176 821.967 179.113 821.93 177.971 823.107C176.829 824.285 176.989 826.283 178.323 827.505C179.657 828.726 181.72 828.763 182.862 827.586C184.004 826.409 183.844 824.41 182.51 823.189Z" fill="#A0D591"/>
<path d="M180.582 798.205C179.211 796.949 177.111 796.878 175.906 798.121C174.7 799.363 174.86 801.362 176.268 802.651C177.676 803.941 179.739 803.978 180.945 802.735C182.15 801.493 181.99 799.494 180.582 798.205Z" fill="#A0D591"/>
<path d="M178.619 773.252C177.248 771.997 175.148 771.926 173.942 773.169C172.737 774.411 172.897 776.41 174.305 777.699C175.713 778.988 177.776 779.025 178.982 777.783C180.187 776.541 180.027 774.542 178.619 773.252Z" fill="#A0D591"/>
<path d="M176.586 748.304C175.215 747.048 173.114 746.977 171.909 748.22C170.704 749.462 170.864 751.461 172.272 752.75C173.68 754.04 175.743 754.077 176.948 752.834C178.154 751.592 177.994 749.593 176.586 748.304Z" fill="#A0D591"/>
<path d="M174.467 723.512C173.178 722.331 171.238 722.296 170.135 723.434C169.031 724.572 169.181 726.451 170.471 727.631C171.76 728.812 173.7 728.847 174.803 727.709C175.907 726.572 175.757 724.692 174.467 723.512Z" fill="#A0D591"/>
<path d="M172.37 698.629C171.147 697.509 169.29 697.476 168.243 698.555C167.197 699.634 167.341 701.433 168.563 702.553C169.786 703.672 171.643 703.706 172.69 702.627C173.737 701.548 173.593 699.749 172.37 698.629Z" fill="#A0D591"/>
<path d="M170.756 673.317C169.283 671.968 167.066 671.928 165.805 673.228C164.543 674.528 164.715 676.676 166.189 678.025C167.662 679.375 169.879 679.414 171.14 678.114C172.402 676.814 172.23 674.666 170.756 673.317Z" fill="#A0D591"/>
<path d="M168.186 648.918C167.075 647.9 165.424 647.871 164.473 648.852C163.521 649.833 163.649 651.432 164.761 652.45C165.872 653.467 167.523 653.497 168.474 652.516C169.426 651.535 169.298 649.936 168.186 648.918Z" fill="#A0D591"/>
<path d="M165.969 624.231C165.006 623.349 163.561 623.323 162.737 624.173C161.912 625.023 162.024 626.423 162.987 627.305C163.951 628.187 165.395 628.213 166.22 627.363C167.044 626.513 166.932 625.113 165.969 624.231Z" fill="#A0D591"/>
<path d="M163.656 599.641C162.898 598.948 161.759 598.928 161.111 599.596C160.463 600.264 160.551 601.368 161.308 602.061C162.065 602.754 163.205 602.775 163.853 602.107C164.501 601.439 164.413 600.335 163.656 599.641Z" fill="#A0D591"/>
<path d="M161.626 574.685C160.884 574.007 159.747 573.953 159.081 574.64C158.415 575.326 158.5 576.392 159.278 577.105C160.056 577.817 161.157 577.837 161.823 577.151C162.489 576.464 162.404 575.398 161.626 574.685Z" fill="#A0D591"/>
<path d="M159.314 550.094C158.758 549.585 157.97 549.605 157.526 550.062C157.082 550.52 157.146 551.32 157.665 551.795C158.184 552.27 159.009 552.284 159.453 551.827C159.897 551.369 159.833 550.569 159.314 550.094Z" fill="#A0D591"/>
<path d="M156.996 525.442C156.663 525.137 156.182 525.129 155.896 525.423C155.611 525.717 155.648 526.183 155.982 526.488C156.315 526.793 156.796 526.802 157.081 526.508C157.367 526.214 157.33 525.748 156.996 525.442Z" fill="#A0D591"/>
<path d="M155.002 500.522C154.668 500.217 154.187 500.208 153.902 500.502C153.617 500.796 153.654 501.263 153.987 501.568C154.321 501.873 154.802 501.882 155.087 501.588C155.372 501.293 155.335 500.827 155.002 500.522Z" fill="#A0D591"/>
<path d="M152.493 476.059C152.472 476.04 152.441 476.039 152.423 476.057C152.406 476.075 152.409 476.105 152.43 476.124C152.451 476.144 152.482 476.145 152.499 476.127C152.517 476.109 152.514 476.079 152.493 476.059Z" fill="#A0D591"/>
<path d="M217.143 949.553C216.514 948.977 215.551 948.959 215.011 949.515C214.472 950.071 214.547 951.004 215.177 951.581C215.807 952.157 216.77 952.175 217.309 951.619C217.848 951.063 217.773 950.13 217.143 949.553Z" fill="#A0D591"/>
<path d="M215.405 924.371C214.627 923.658 213.458 923.637 212.792 924.324C212.126 925.011 212.216 926.143 212.995 926.856C213.773 927.568 214.942 927.589 215.608 926.903C216.274 926.216 216.183 925.083 215.405 924.371Z" fill="#A0D591"/>
<path d="M213.12 899.681C212.527 899.138 211.633 899.122 211.125 899.645C210.618 900.169 210.687 901.035 211.28 901.578C211.873 902.12 212.767 902.136 213.275 901.613C213.782 901.09 213.713 900.224 213.12 899.681Z" fill="#A0D591"/>
<path d="M211.599 874.272C210.71 873.458 209.335 873.433 208.573 874.218C207.812 875.003 207.919 876.335 208.808 877.15C209.697 877.964 211.073 877.989 211.834 877.204C212.595 876.419 212.489 875.087 211.599 874.272Z" fill="#A0D591"/>
<path d="M209.757 849.123C208.72 848.173 207.207 848.146 206.318 849.062C205.43 849.977 205.548 851.443 206.585 852.393C207.623 853.343 209.136 853.37 210.024 852.455C210.912 851.539 210.795 850.073 209.757 849.123Z" fill="#A0D591"/>
<path d="M207.892 824.074C206.817 823.09 205.167 823.061 204.247 824.009C203.327 824.957 203.455 826.556 204.53 827.54C205.604 828.524 207.255 828.554 208.175 827.605C209.095 826.657 208.967 825.058 207.892 824.074Z" fill="#A0D591"/>
<path d="M205.477 799.513C204.625 798.733 203.387 798.711 202.658 799.463C201.928 800.215 202.024 801.414 202.876 802.194C203.729 802.975 204.966 802.997 205.696 802.245C206.426 801.493 206.33 800.294 205.477 799.513Z" fill="#A0D591"/>
<path d="M203.928 774.14C202.823 773.128 201.16 773.098 200.214 774.073C199.268 775.049 199.397 776.659 200.502 777.671C201.607 778.683 203.27 778.713 204.216 777.738C205.162 776.763 205.033 775.152 203.928 774.14Z" fill="#A0D591"/>
<path d="M201.899 749.256C200.825 748.272 199.174 748.242 198.254 749.191C197.334 750.139 197.462 751.738 198.537 752.722C199.611 753.706 201.262 753.735 202.182 752.787C203.102 751.839 202.974 750.24 201.899 749.256Z" fill="#A0D591"/>
<path d="M199.426 724.76C198.648 724.048 197.479 724.027 196.813 724.714C196.147 725.4 196.237 726.533 197.016 727.245C197.794 727.958 198.963 727.979 199.629 727.292C200.295 726.606 200.204 725.473 199.426 724.76Z" fill="#A0D591"/>
<path d="M197.749 699.516C196.749 698.6 195.273 698.606 194.448 699.457C193.623 700.307 193.741 701.772 194.704 702.655C195.667 703.537 197.181 703.564 198.005 702.714C198.83 701.864 198.713 700.398 197.749 699.516Z" fill="#A0D591"/>
<path d="M195.591 674.694C194.69 673.869 193.335 673.845 192.565 674.639C191.794 675.434 191.899 676.747 192.799 677.571C193.7 678.396 195.055 678.42 195.825 677.625C196.596 676.831 196.491 675.518 195.591 674.694Z" fill="#A0D591"/>
<path d="M193.437 649.939C192.659 649.227 191.489 649.206 190.824 649.892C190.158 650.578 190.249 651.712 191.026 652.424C191.804 653.136 192.974 653.157 193.64 652.47C194.305 651.784 194.215 650.651 193.437 649.939Z" fill="#A0D591"/>
<path d="M190.897 625.511C190.453 625.104 189.765 625.092 189.384 625.484C189.004 625.876 189.057 626.543 189.502 626.95C189.946 627.357 190.634 627.369 191.015 626.977C191.395 626.585 191.342 625.918 190.897 625.511Z" fill="#A0D591"/>
<path d="M189.158 600.329C188.564 599.785 187.671 599.769 187.163 600.293C186.655 600.817 186.724 601.682 187.318 602.225C187.911 602.768 188.804 602.784 189.312 602.261C189.82 601.737 189.751 600.872 189.158 600.329Z" fill="#A0D591"/>
<path d="M186.845 575.739C186.456 575.383 185.871 575.373 185.539 575.716C185.206 576.059 185.251 576.625 185.64 576.981C186.029 577.337 186.613 577.347 186.946 577.005C187.279 576.662 187.233 576.095 186.845 575.739Z" fill="#A0D591"/>
<path d="M184.276 551.339C184.276 551.339 184.238 551.304 184.207 551.337C184.175 551.369 184.175 551.369 184.213 551.404C184.251 551.439 184.251 551.439 184.283 551.406C184.314 551.374 184.314 551.374 184.276 551.339Z" fill="#A0D591"/>
<path d="M182.468 526.228C182.468 526.228 182.114 526.089 181.987 526.22C181.86 526.351 181.876 526.55 182.024 526.686C182.173 526.822 182.379 526.825 182.506 526.695C182.632 526.564 182.616 526.364 182.468 526.228Z" fill="#A0D591"/>
<path d="M242.141 950.831C242.141 950.831 241.822 950.725 241.726 950.824C241.631 950.922 241.647 951.122 241.759 951.225C241.871 951.327 242.078 951.331 242.173 951.233C242.269 951.134 242.252 950.934 242.141 950.831Z" fill="#A0D591"/>
<path d="M240.365 925.617C240.106 925.379 239.693 925.372 239.471 925.601C239.249 925.829 239.281 926.229 239.541 926.466C239.8 926.704 240.212 926.711 240.434 926.482C240.656 926.254 240.624 925.854 240.365 925.617Z" fill="#A0D591"/>
<path d="M238.88 900.177C238.287 899.634 237.393 899.618 236.885 900.142C236.378 900.665 236.447 901.531 237.04 902.074C237.633 902.617 238.527 902.633 239.034 902.109C239.542 901.586 239.473 900.72 238.88 900.177Z" fill="#A0D591"/>
<path d="M236.529 875.55C236.122 875.177 235.54 875.2 235.223 875.526C234.906 875.853 234.954 876.453 235.325 876.792C235.695 877.131 236.314 877.142 236.631 876.815C236.948 876.488 236.9 875.889 236.529 875.55Z" fill="#A0D591"/>
<path d="M234.693 850.47C234.211 850.029 233.491 850.049 233.111 850.442C232.73 850.834 232.789 851.567 233.233 851.974C233.678 852.381 234.435 852.395 234.815 852.002C235.196 851.61 235.137 850.877 234.693 850.47Z" fill="#A0D591"/>
<path d="M232.758 825.418C232.226 824.93 231.425 824.916 230.97 825.386C230.514 825.855 230.576 826.631 231.108 827.118C231.64 827.605 232.441 827.619 232.897 827.15C233.352 826.68 233.29 825.905 232.758 825.418Z" fill="#A0D591"/>
<path d="M231.268 799.978C230.416 799.197 229.178 799.175 228.448 799.927C227.719 800.679 227.815 801.878 228.667 802.659C229.519 803.439 230.757 803.461 231.487 802.709C232.216 801.957 232.12 800.758 231.268 799.978Z" fill="#A0D591"/>
<path d="M228.763 775.513C228.207 775.004 227.419 775.024 226.975 775.481C226.531 775.939 226.595 776.739 227.114 777.214C227.633 777.689 228.458 777.703 228.902 777.246C229.346 776.788 229.282 775.988 228.763 775.513Z" fill="#A0D591"/>
<path d="M226.802 750.565C226.246 750.056 225.458 750.075 225.014 750.533C224.57 750.99 224.634 751.79 225.152 752.265C225.671 752.74 226.496 752.755 226.94 752.297C227.385 751.839 227.321 751.04 226.802 750.565Z" fill="#A0D591"/>
<path d="M225.184 725.256C224.406 724.544 223.237 724.523 222.571 725.21C221.905 725.896 221.995 727.029 222.773 727.741C223.551 728.454 224.721 728.475 225.387 727.788C226.053 727.102 225.962 725.969 225.184 725.256Z" fill="#A0D591"/>
<path d="M222.708 700.76C222.227 700.319 221.507 700.34 221.126 700.732C220.746 701.124 220.804 701.857 221.249 702.265C221.694 702.672 222.45 702.685 222.831 702.293C223.212 701.901 223.153 701.168 222.708 700.76Z" fill="#A0D591"/>
<path d="M220.556 676.008C220.188 675.671 219.634 675.661 219.319 675.986C219.003 676.311 219.046 676.847 219.415 677.184C219.783 677.522 220.337 677.532 220.652 677.207C220.967 676.882 220.924 676.345 220.556 676.008Z" fill="#A0D591"/>
<path d="M218.366 651.216C218.106 650.978 217.694 650.971 217.472 651.2C217.25 651.429 217.282 651.828 217.541 652.065C217.8 652.303 218.213 652.31 218.435 652.082C218.657 651.853 218.625 651.453 218.366 651.216Z" fill="#A0D591"/>
<path d="M216.688 625.972C216.244 625.565 215.556 625.553 215.175 625.945C214.794 626.337 214.848 627.004 215.293 627.411C215.737 627.818 216.425 627.83 216.806 627.438C217.186 627.046 217.133 626.379 216.688 625.972Z" fill="#A0D591"/>
<path d="M214.087 601.605C214.087 601.605 213.873 601.534 213.809 601.6C213.746 601.666 213.756 601.8 213.831 601.868C213.906 601.937 214.045 601.94 214.108 601.874C214.172 601.808 214.161 601.674 214.087 601.605Z" fill="#A0D591"/>
<path d="M210.03 551.838C210.03 551.838 209.991 551.803 209.96 551.836C209.928 551.868 209.928 551.868 209.967 551.903C210.005 551.938 210.005 551.938 210.036 551.905C210.068 551.873 210.068 551.873 210.03 551.838Z" fill="#A0D591"/>
<path d="M263.74 901.522C263.74 901.522 263.702 901.487 263.67 901.52C263.639 901.552 263.639 901.552 263.677 901.587C263.715 901.622 263.715 901.622 263.747 901.59C263.778 901.557 263.778 901.557 263.74 901.522Z" fill="#A0D591"/>
<path d="M261.939 876.405C261.939 876.405 261.584 876.265 261.457 876.396C261.33 876.527 261.347 876.727 261.495 876.862C261.643 876.998 261.849 877.002 261.976 876.871C262.103 876.74 262.087 876.54 261.939 876.405Z" fill="#A0D591"/>
<path d="M258.069 826.372C257.847 826.168 257.466 826.128 257.245 826.357C257.023 826.586 257.049 826.919 257.308 827.156C257.568 827.393 257.911 827.4 258.133 827.171C258.355 826.942 258.329 826.609 258.069 826.372Z" fill="#A0D591"/>
<path d="M256.103 801.355C255.844 801.118 255.432 801.11 255.21 801.339C254.988 801.568 255.02 801.967 255.279 802.205C255.538 802.442 255.951 802.449 256.173 802.221C256.395 801.992 256.363 801.592 256.103 801.355Z" fill="#A0D591"/>
<path d="M254.14 776.406C253.881 776.169 253.469 776.161 253.247 776.39C253.025 776.619 253.057 777.019 253.316 777.256C253.575 777.493 253.988 777.501 254.21 777.272C254.431 777.043 254.399 776.644 254.14 776.406Z" fill="#A0D591"/>
<path d="M252.107 751.454C251.848 751.217 251.436 751.209 251.214 751.438C250.992 751.667 251.024 752.066 251.283 752.304C251.542 752.541 251.955 752.549 252.177 752.32C252.399 752.091 252.367 751.691 252.107 751.454Z" fill="#A0D591"/>
<path d="M250.082 726.567C249.836 726.342 249.467 726.335 249.257 726.552C249.047 726.768 249.075 727.126 249.321 727.351C249.566 727.576 249.935 727.582 250.146 727.366C250.356 727.149 250.327 726.791 250.082 726.567Z" fill="#A0D591"/>
<path d="M247.962 701.778C247.962 701.778 247.608 701.638 247.481 701.769C247.354 701.9 247.37 702.1 247.519 702.235C247.667 702.371 247.873 702.375 248 702.244C248.127 702.113 248.111 701.913 247.962 701.778Z" fill="#A0D591"/>
<path d="M243.775 652.073C243.775 652.073 243.737 652.038 243.706 652.071C243.674 652.104 243.674 652.104 243.712 652.138C243.75 652.173 243.75 652.173 243.782 652.141C243.813 652.108 243.813 652.108 243.775 652.073Z" fill="#A0D591"/>
</g>
<g style="mix-blend-mode:multiply" opacity="0.5">
<path d="M1418.86 -1.26245C1421.67 0.258306 1425.32 -0.83857 1426.96 -3.69553C1428.6 -6.55249 1427.64 -10.1461 1424.83 -11.6669C1422.02 -13.1877 1418.37 -12.0908 1416.73 -9.23381C1415.09 -6.37685 1416.05 -2.78321 1418.86 -1.26245Z" fill="#A0D591"/>
<path d="M1424.98 23.8988C1428.17 25.6288 1432.28 24.3966 1434.14 21.1467C1436 17.8967 1434.92 13.8598 1431.73 12.1299C1428.53 10.3999 1424.43 11.6321 1422.57 14.882C1420.7 18.132 1421.78 22.1689 1424.98 23.8988Z" fill="#A0D591"/>
<path d="M1431.55 48.3583C1434.74 50.0833 1438.85 48.8469 1440.71 45.6061C1442.57 42.3654 1441.49 38.3144 1438.3 36.5893C1435.12 34.8643 1431 36.1008 1429.14 39.3415C1427.28 42.5823 1428.37 46.6333 1431.55 48.3583Z" fill="#A0D591"/>
<path d="M1437.69 73.4751C1441.24 75.3931 1445.78 74.0269 1447.85 70.4238C1449.92 66.8206 1448.72 62.3448 1445.18 60.4269C1441.63 58.5089 1437.09 59.8751 1435.02 63.4782C1432.95 67.0814 1434.15 71.5571 1437.69 73.4751Z" fill="#A0D591"/>
<path d="M1443.96 98.3875C1447.76 100.443 1452.63 98.979 1454.84 95.1168C1457.06 91.2545 1455.78 86.457 1451.98 84.4012C1448.18 82.3453 1443.31 83.8097 1441.09 87.6719C1438.88 91.5341 1440.16 96.3316 1443.96 98.3875Z" fill="#A0D591"/>
<path d="M1394.46 5.3622C1396.85 6.65598 1399.9 5.73858 1401.29 3.30803C1402.69 0.877484 1401.88 -2.12811 1399.5 -3.42189C1397.11 -4.71567 1394.05 -3.79827 1392.66 -1.36772C1391.26 1.06283 1392.07 4.06842 1394.46 5.3622Z" fill="#A0D591"/>
<path d="M1400.54 30.679C1403.35 32.1997 1407 31.1028 1408.64 28.2459C1410.28 25.3889 1409.32 21.7953 1406.51 20.2745C1403.7 18.7538 1400.05 19.8506 1398.41 22.7076C1396.77 25.5646 1397.73 29.1582 1400.54 30.679Z" fill="#A0D591"/>
<path d="M1406.73 55.7155C1409.86 57.4078 1413.87 56.2024 1415.69 53.0232C1417.52 49.8439 1416.46 45.8947 1413.34 44.2024C1410.21 42.5101 1406.2 43.7155 1404.37 46.8948C1402.55 50.074 1403.61 54.0232 1406.73 55.7155Z" fill="#A0D591"/>
<path d="M1413.38 80.0385C1416.44 81.6955 1420.36 80.5188 1422.14 77.406C1423.93 74.2932 1422.9 70.4382 1419.84 68.7813C1416.78 67.1243 1412.86 68.301 1411.07 71.4138C1409.29 74.5266 1410.32 78.3816 1413.38 80.0385Z" fill="#A0D591"/>
<path d="M1419.5 105.199C1422.94 107.061 1427.32 105.744 1429.32 102.248C1431.33 98.7511 1430.18 94.4388 1426.74 92.5776C1423.3 90.7163 1418.92 92.0326 1416.91 95.5292C1414.91 99.0257 1416.06 103.338 1419.5 105.199Z" fill="#A0D591"/>
<path d="M1425.74 130.15C1429.43 132.148 1434.21 130.712 1436.36 126.959C1438.51 123.207 1437.25 118.503 1433.56 116.505C1429.87 114.508 1425.09 115.944 1422.94 119.696C1420.79 123.449 1422.05 128.153 1425.74 130.15Z" fill="#A0D591"/>
<path d="M1432.48 154.316C1436 156.223 1440.56 154.89 1442.64 151.265C1444.72 147.641 1443.53 143.197 1439.97 141.268C1436.4 139.339 1431.89 140.695 1429.81 144.32C1427.73 147.944 1428.92 152.387 1432.48 154.316Z" fill="#A0D591"/>
<path d="M1438.82 179.092C1442.51 181.089 1447.29 179.653 1449.44 175.901C1451.59 172.148 1450.34 167.444 1446.65 165.447C1442.96 163.449 1438.18 164.885 1436.02 168.638C1433.87 172.39 1435.13 177.094 1438.82 179.092Z" fill="#A0D591"/>
<path d="M1445.08 204.106C1449.08 206.275 1454.22 204.73 1456.56 200.656C1458.9 196.582 1457.54 191.521 1453.54 189.353C1449.53 187.184 1444.39 188.729 1442.05 192.803C1439.72 196.877 1441.07 201.938 1445.08 204.106Z" fill="#A0D591"/>
<path d="M1370.05 12.1007C1372.02 13.1675 1374.54 12.4096 1375.69 10.4055C1376.84 8.40138 1376.17 5.91848 1374.2 4.85168C1372.23 3.78488 1369.71 4.54274 1368.56 6.54687C1367.41 8.55101 1368.07 11.0339 1370.05 12.1007Z" fill="#A0D591"/>
<path d="M1376.16 37.2615C1378.51 38.5326 1381.5 37.6351 1382.87 35.2472C1384.24 32.8593 1383.45 29.919 1381.1 28.6479C1378.75 27.3769 1375.77 28.2743 1374.4 30.6622C1373.03 33.0501 1373.81 35.9904 1376.16 37.2615Z" fill="#A0D591"/>
<path d="M1382.42 62.2732C1385.06 63.7032 1388.49 62.7088 1390.05 59.9797C1391.62 57.2507 1390.73 53.9184 1388.04 52.4657C1385.36 51.0131 1381.98 52.0302 1380.41 54.7592C1378.84 57.4882 1379.74 60.8205 1382.42 62.2732Z" fill="#A0D591"/>
<path d="M1388.49 87.5234C1391.55 89.1804 1395.46 88.0037 1397.25 84.8909C1399.03 81.7781 1398 77.9231 1394.94 76.2661C1391.88 74.6092 1387.97 75.7858 1386.18 78.8987C1384.4 82.0115 1385.43 85.8665 1388.49 87.5234Z" fill="#A0D591"/>
<path d="M1395.16 111.814C1398.13 113.425 1401.92 112.288 1403.65 109.261C1405.39 106.233 1404.39 102.509 1401.42 100.898C1398.44 99.286 1394.66 100.423 1392.92 103.45C1391.18 106.478 1392.18 110.202 1395.16 111.814Z" fill="#A0D591"/>
<path d="M1402.44 137.073C1405.87 138.25 1409.72 136.399 1411.04 132.938C1412.35 129.478 1410.64 125.719 1407.21 124.542C1403.79 123.365 1399.94 125.216 1398.62 128.676C1397.3 132.136 1399.02 135.896 1402.44 137.073Z" fill="#A0D591"/>
<path d="M1407.78 161.451C1411.14 163.268 1415.45 161.974 1417.41 158.559C1419.37 155.144 1418.23 150.902 1414.88 149.085C1411.52 147.267 1407.21 148.562 1405.25 151.976C1403.29 155.391 1404.43 159.633 1407.78 161.451Z" fill="#A0D591"/>
<path d="M1414.36 185.91C1417.72 187.728 1422.03 186.433 1423.98 183.018C1425.94 179.604 1424.81 175.362 1421.45 173.544C1418.09 171.726 1413.78 173.021 1411.83 176.436C1409.87 179.851 1411 184.092 1414.36 185.91Z" fill="#A0D591"/>
<path d="M1420.72 210.641C1424.24 212.548 1428.71 211.169 1430.74 207.63C1432.77 204.09 1431.59 199.647 1428.11 197.763C1424.63 195.879 1420.11 197.236 1418.08 200.775C1416.05 204.314 1417.24 208.757 1420.72 210.641Z" fill="#A0D591"/>
<path d="M1427.22 235.232C1430.79 237.162 1435.36 235.787 1437.44 232.16C1439.52 228.534 1438.32 224.029 1434.75 222.098C1431.19 220.168 1426.61 221.543 1424.53 225.169C1422.45 228.796 1423.65 233.301 1427.22 235.232Z" fill="#A0D591"/>
<path d="M1433.46 260.182C1437.32 262.27 1442.23 260.794 1444.48 256.871C1446.73 252.948 1445.44 248.113 1441.58 246.025C1437.72 243.937 1432.81 245.413 1430.56 249.336C1428.31 253.259 1429.6 258.094 1433.46 260.182Z" fill="#A0D591"/>
<path d="M1440.25 284.256C1443.86 286.208 1448.51 284.812 1450.61 281.144C1452.71 277.477 1451.49 272.904 1447.88 270.952C1444.28 268.999 1439.63 270.396 1437.53 274.063C1435.43 277.73 1436.65 282.304 1440.25 284.256Z" fill="#A0D591"/>
<path d="M1345.15 19.5792C1347.12 20.646 1349.64 19.8882 1350.79 17.884C1351.94 15.8799 1351.28 13.397 1349.31 12.3302C1347.34 11.2634 1344.82 12.0213 1343.67 14.0254C1342.52 16.0295 1343.18 18.5124 1345.15 19.5792Z" fill="#A0D591"/>
<path d="M1351.82 43.8665C1353.71 44.8879 1356.1 44.17 1357.2 42.2511C1358.3 40.3323 1357.67 37.98 1355.78 36.9586C1353.9 35.9372 1351.51 36.6552 1350.4 38.5741C1349.3 40.4929 1349.93 42.8451 1351.82 43.8665Z" fill="#A0D591"/>
<path d="M1357.92 69.0689C1360.18 70.2946 1363.1 69.4171 1364.42 67.1144C1365.74 64.8118 1364.97 61.9369 1362.71 60.7112C1360.45 59.4855 1357.52 60.363 1356.2 62.6657C1354.88 64.9683 1355.65 67.8432 1357.92 69.0689Z" fill="#A0D591"/>
<path d="M1364.17 94.084C1366.77 95.4913 1370.09 94.4941 1371.61 91.8504C1373.12 89.2066 1372.25 85.9397 1369.65 84.5324C1367.05 83.1251 1363.73 84.1223 1362.21 86.766C1360.7 89.4098 1361.57 92.6767 1364.17 94.084Z" fill="#A0D591"/>
<path d="M1370.43 118.993C1373.24 120.514 1376.9 119.417 1378.53 116.56C1380.17 113.703 1379.21 110.109 1376.4 108.588C1373.59 107.068 1369.94 108.165 1368.3 111.022C1366.67 113.879 1367.63 117.472 1370.43 118.993Z" fill="#A0D591"/>
<path d="M1377.21 143.108C1379.8 144.515 1383.19 143.498 1384.71 140.854C1386.22 138.211 1385.33 134.878 1382.73 133.471C1380.13 132.064 1376.75 133.081 1375.23 135.725C1373.72 138.368 1374.61 141.701 1377.21 143.108Z" fill="#A0D591"/>
<path d="M1383.35 168.229C1386.33 169.846 1390.17 168.694 1391.91 165.656C1393.65 162.618 1392.64 158.844 1389.66 157.227C1386.67 155.61 1382.84 156.762 1381.09 159.8C1379.35 162.838 1380.36 166.612 1383.35 168.229Z" fill="#A0D591"/>
<path d="M1389.66 193.048C1392.83 194.765 1396.9 193.542 1398.75 190.315C1400.61 187.089 1399.53 183.081 1396.36 181.364C1393.19 179.647 1389.12 180.87 1387.27 184.096C1385.42 187.323 1386.49 191.33 1389.66 193.048Z" fill="#A0D591"/>
<path d="M1396.5 217.039C1399.44 218.627 1403.18 217.468 1404.87 214.526C1406.56 211.584 1405.56 207.859 1402.67 206.293C1399.77 204.727 1395.99 205.864 1394.3 208.806C1392.61 211.748 1393.61 215.472 1396.5 217.039Z" fill="#A0D591"/>
<path d="M1402.69 242.07C1405.92 243.818 1410.04 242.582 1411.92 239.298C1413.8 236.015 1412.75 231.921 1409.52 230.174C1406.29 228.426 1402.17 229.662 1400.27 232.988C1398.36 236.314 1399.46 240.323 1402.69 242.07Z" fill="#A0D591"/>
<path d="M1409.15 266.745C1412.46 268.539 1416.75 267.285 1418.71 263.874C1420.66 260.462 1419.55 256.281 1416.19 254.465C1412.84 252.649 1408.59 253.925 1406.63 257.337C1404.68 260.748 1405.79 264.93 1409.15 266.745Z" fill="#A0D591"/>
<path d="M1415.68 291.18C1418.99 292.973 1423.28 291.719 1425.24 288.308C1427.19 284.896 1426.07 280.715 1422.72 278.899C1419.37 277.083 1415.12 278.359 1413.16 281.771C1411.2 285.182 1412.32 289.364 1415.68 291.18Z" fill="#A0D591"/>
<path d="M1422.23 315.68C1425.56 317.486 1429.84 316.2 1431.79 312.809C1433.73 309.417 1432.61 305.205 1429.27 303.4C1425.94 301.595 1421.66 302.88 1419.71 306.272C1417.77 309.663 1418.89 313.875 1422.23 315.68Z" fill="#A0D591"/>
<path d="M1428.88 339.904C1432.1 341.647 1436.23 340.406 1438.11 337.132C1439.99 333.859 1438.9 329.792 1435.68 328.05C1432.46 326.308 1428.33 327.549 1426.45 330.822C1424.58 334.096 1425.66 338.162 1428.88 339.904Z" fill="#A0D591"/>
<path d="M1435.49 364.217C1438.62 365.909 1442.63 364.704 1444.45 361.525C1446.27 358.345 1445.22 354.396 1442.09 352.704C1438.97 351.012 1434.96 352.217 1433.13 355.396C1431.31 358.575 1432.36 362.525 1435.49 364.217Z" fill="#A0D591"/>
<path d="M1442.41 388.074C1445.17 389.572 1448.76 388.495 1450.37 385.681C1451.99 382.866 1451.04 379.338 1448.28 377.84C1445.51 376.342 1441.93 377.419 1440.31 380.233C1438.7 383.047 1439.64 386.576 1442.41 388.074Z" fill="#A0D591"/>
<path d="M1314.68 0.955927C1315.76 1.5451 1317.16 1.12546 1317.8 0.0186049C1318.43 -1.08825 1318.06 -2.46316 1316.98 -3.05234C1315.89 -3.64152 1314.49 -3.22185 1313.86 -2.115C1313.22 -1.00815 1313.59 0.36675 1314.68 0.955927Z" fill="#A0D591"/>
<path d="M1320.88 26.0566C1322.31 26.8283 1324.17 26.2699 1325 24.8201C1325.83 23.3703 1325.34 21.5408 1323.92 20.7691C1322.49 19.9974 1320.63 20.5558 1319.8 22.0056C1318.97 23.4554 1319.46 25.2849 1320.88 26.0566Z" fill="#A0D591"/>
<path d="M1326.95 51.304C1328.84 52.3254 1331.23 51.6075 1332.33 49.6886C1333.43 47.7698 1332.8 45.4175 1330.91 44.3961C1329.03 43.3747 1326.64 44.0927 1325.54 46.0116C1324.44 47.9304 1325.07 50.2826 1326.95 51.304Z" fill="#A0D591"/>
<path d="M1333.65 75.5497C1335.37 76.4803 1337.62 75.8022 1338.63 74.0539C1339.63 72.3057 1339.04 70.0841 1337.32 69.1535C1335.6 68.2229 1333.34 68.901 1332.34 70.6493C1331.34 72.3976 1331.93 74.6191 1333.65 75.5497Z" fill="#A0D591"/>
<path d="M1339.89 100.497C1341.9 101.587 1344.49 100.809 1345.66 98.7622C1346.84 96.7155 1346.16 94.1672 1344.14 93.0777C1342.13 91.9882 1339.54 92.766 1338.37 94.8128C1337.19 96.8596 1337.87 99.4078 1339.89 100.497Z" fill="#A0D591"/>
<path d="M1346.17 125.467C1348.44 126.693 1351.36 125.815 1352.68 123.512C1354 121.21 1353.23 118.335 1350.97 117.109C1348.7 115.883 1345.78 116.761 1344.46 119.064C1343.14 121.366 1343.91 124.241 1346.17 125.467Z" fill="#A0D591"/>
<path d="M1352.34 150.542C1354.95 151.959 1358.31 150.95 1359.84 148.289C1361.36 145.627 1360.48 142.322 1357.86 140.905C1355.25 139.489 1351.89 140.498 1350.36 143.159C1348.84 145.82 1349.72 149.126 1352.34 150.542Z" fill="#A0D591"/>
<path d="M1359.08 174.708C1361.51 176.025 1364.67 175.11 1366.11 172.594C1367.56 170.078 1366.74 167.007 1364.26 165.668C1361.79 164.329 1358.67 165.266 1357.23 167.782C1355.78 170.298 1356.6 173.369 1359.08 174.708Z" fill="#A0D591"/>
<path d="M1365.44 199.439C1368.04 200.843 1371.37 199.843 1372.88 197.205C1374.39 194.568 1373.52 191.291 1370.92 189.887C1368.33 188.483 1365 189.483 1363.49 192.121C1361.97 194.759 1362.85 198.035 1365.44 199.439Z" fill="#A0D591"/>
<path d="M1371.61 224.52C1374.54 226.109 1378.29 224.949 1379.97 222.007C1381.66 219.065 1380.67 215.341 1377.77 213.774C1374.88 212.208 1371.1 213.345 1369.41 216.287C1367.72 219.23 1368.72 222.954 1371.61 224.52Z" fill="#A0D591"/>
<path d="M1378.43 248.553C1381.11 250.005 1384.56 248.968 1386.13 246.239C1387.69 243.51 1386.79 240.112 1384.1 238.66C1381.42 237.207 1377.97 238.244 1376.4 240.973C1374.84 243.702 1375.75 247.1 1378.43 248.553Z" fill="#A0D591"/>
<path d="M1384.89 273.118C1387.64 274.609 1391.18 273.547 1392.79 270.744C1394.4 267.942 1393.46 264.461 1390.71 262.969C1387.95 261.477 1384.42 262.54 1382.81 265.342C1381.2 268.145 1382.13 271.626 1384.89 273.118Z" fill="#A0D591"/>
<path d="M1391.17 298.084C1394.19 299.719 1398.11 298.542 1399.87 295.472C1401.63 292.402 1400.6 288.547 1397.58 286.912C1394.56 285.278 1390.64 286.455 1388.88 289.525C1387.12 292.595 1388.15 296.45 1391.17 298.084Z" fill="#A0D591"/>
<path d="M1397.73 322.477C1400.71 324.094 1404.55 322.942 1406.29 319.904C1408.03 316.866 1407.02 313.092 1404.04 311.475C1401.05 309.858 1397.22 311.01 1395.47 314.048C1393.73 317.086 1394.74 320.86 1397.73 322.477Z" fill="#A0D591"/>
<path d="M1404.64 346.34C1407.28 347.77 1410.71 346.776 1412.28 344.047C1413.84 341.318 1412.95 337.985 1410.27 336.533C1407.58 335.08 1404.2 336.097 1402.63 338.826C1401.07 341.555 1401.96 344.887 1404.64 346.34Z" fill="#A0D591"/>
<path d="M1411.22 370.691C1413.82 372.095 1417.15 371.095 1418.66 368.458C1420.17 365.82 1419.3 362.544 1416.7 361.14C1414.11 359.736 1410.78 360.736 1409.27 363.373C1407.76 366.011 1408.63 369.287 1411.22 370.691Z" fill="#A0D591"/>
<path d="M1417.54 395.511C1420.3 397.009 1423.89 395.932 1425.5 393.118C1427.12 390.304 1426.17 386.776 1423.41 385.277C1420.64 383.779 1417.05 384.856 1415.44 387.671C1413.83 390.485 1414.77 394.013 1417.54 395.511Z" fill="#A0D591"/>
<path d="M1424.46 419.371C1426.89 420.688 1430.05 419.773 1431.49 417.257C1432.93 414.741 1432.11 411.67 1429.64 410.331C1427.17 408.992 1424.05 409.929 1422.6 412.445C1421.16 414.961 1421.98 418.032 1424.46 419.371Z" fill="#A0D591"/>
<path d="M1431.23 443.388C1433.45 444.591 1436.26 443.71 1437.54 441.493C1438.81 439.276 1438.06 436.466 1435.88 435.286C1433.7 434.105 1430.84 434.963 1429.57 437.18C1428.3 439.398 1429.05 442.207 1431.23 443.388Z" fill="#A0D591"/>
<path d="M1437.61 468.188C1440 469.482 1443.05 468.565 1444.45 466.134C1445.84 463.704 1445.04 460.698 1442.65 459.404C1440.26 458.111 1437.21 459.028 1435.81 461.458C1434.42 463.889 1435.22 466.895 1437.61 468.188Z" fill="#A0D591"/>
<path d="M1289.95 8.24618C1290.95 8.79093 1292.21 8.41201 1292.8 7.38862C1293.39 6.36523 1293.06 5.12378 1292.05 4.57904C1291.04 4.03429 1289.78 4.41321 1289.2 5.4366C1288.61 6.45999 1288.94 7.70143 1289.95 8.24618Z" fill="#A0D591"/>
<path d="M1296.48 32.6773C1297.49 33.2221 1298.75 32.8432 1299.33 31.8198C1299.92 30.7964 1299.59 29.5549 1298.58 29.0102C1297.58 28.4654 1296.31 28.8444 1295.73 29.8678C1295.14 30.8911 1295.47 32.1326 1296.48 32.6773Z" fill="#A0D591"/>
<path d="M1302.64 57.8703C1303.98 58.5967 1305.75 58.1008 1306.55 56.6937C1307.36 55.2865 1306.91 53.5877 1305.52 52.8387C1304.14 52.0897 1302.41 52.6082 1301.61 54.0153C1300.8 55.4225 1301.25 57.1213 1302.64 57.8703Z" fill="#A0D591"/>
<path d="M1308.92 82.7285C1310.52 83.591 1312.58 82.9727 1313.5 81.3524C1314.43 79.732 1313.89 77.7065 1312.3 76.844C1310.71 75.9815 1308.65 76.5997 1307.72 78.2201C1306.79 79.8404 1307.33 81.866 1308.92 82.7285Z" fill="#A0D591"/>
<path d="M1315.62 106.971C1317.09 107.766 1318.95 107.207 1319.81 105.715C1320.66 104.222 1320.17 102.393 1318.71 101.598C1317.24 100.804 1315.38 101.362 1314.52 102.855C1313.67 104.347 1314.16 106.177 1315.62 106.971Z" fill="#A0D591"/>
<path d="M1321.72 132.183C1323.59 133.199 1326 132.476 1327.09 130.568C1328.19 128.66 1327.55 126.291 1325.68 125.276C1323.8 124.26 1321.39 124.983 1320.3 126.891C1319.21 128.799 1319.84 131.168 1321.72 132.183Z" fill="#A0D591"/>
<path d="M1328.1 156.981C1330.15 158.093 1332.74 157.315 1333.94 155.226C1335.14 153.136 1334.46 150.588 1332.4 149.476C1330.35 148.364 1327.76 149.142 1326.56 151.231C1325.36 153.32 1326.04 155.869 1328.1 156.981Z" fill="#A0D591"/>
<path d="M1334.38 181.846C1336.65 183.074 1339.56 182.199 1340.89 179.891C1342.21 177.583 1341.45 174.717 1339.18 173.488C1336.91 172.26 1333.99 173.135 1332.67 175.442C1331.35 177.75 1332.11 180.617 1334.38 181.846Z" fill="#A0D591"/>
<path d="M1340.93 206.347C1343.2 207.572 1346.12 206.695 1347.44 204.392C1348.76 202.09 1347.99 199.215 1345.73 197.989C1343.46 196.763 1340.54 197.641 1339.22 199.943C1337.9 202.246 1338.67 205.121 1340.93 206.347Z" fill="#A0D591"/>
<path d="M1347.39 230.915C1349.74 232.186 1352.73 231.288 1354.09 228.9C1355.46 226.513 1354.68 223.572 1352.33 222.301C1349.98 221.03 1347 221.928 1345.63 224.316C1344.26 226.703 1345.04 229.644 1347.39 230.915Z" fill="#A0D591"/>
<path d="M1353.8 255.56C1356.24 256.876 1359.4 255.962 1360.84 253.446C1362.28 250.93 1361.46 247.859 1358.99 246.52C1356.51 245.181 1353.39 246.118 1351.95 248.634C1350.51 251.15 1351.33 254.221 1353.8 255.56Z" fill="#A0D591"/>
<path d="M1360.36 280.064C1362.79 281.38 1365.95 280.465 1367.39 277.95C1368.84 275.434 1368.01 272.363 1365.54 271.024C1363.07 269.684 1359.95 270.622 1358.5 273.138C1357.06 275.653 1357.88 278.724 1360.36 280.064Z" fill="#A0D591"/>
<path d="M1366.89 304.498C1369.32 305.814 1372.48 304.899 1373.92 302.384C1375.37 299.868 1374.55 296.797 1372.07 295.458C1369.6 294.119 1366.48 295.056 1365.04 297.572C1363.59 300.088 1364.41 303.158 1366.89 304.498Z" fill="#A0D591"/>
<path d="M1373.46 328.958C1375.89 330.274 1379.05 329.359 1380.5 326.844C1381.94 324.328 1381.12 321.257 1378.64 319.918C1376.17 318.579 1373.05 319.516 1371.61 322.032C1370.16 324.548 1370.99 327.618 1373.46 328.958Z" fill="#A0D591"/>
<path d="M1380.09 353.226C1382.43 354.492 1385.43 353.59 1386.8 351.212C1388.16 348.833 1387.37 345.878 1385.03 344.612C1382.69 343.346 1379.69 344.248 1378.33 346.627C1376.96 349.005 1377.75 351.96 1380.09 353.226Z" fill="#A0D591"/>
<path d="M1386.64 377.726C1388.98 378.992 1391.98 378.091 1393.35 375.712C1394.71 373.333 1393.92 370.379 1391.58 369.113C1389.24 367.847 1386.24 368.748 1384.88 371.127C1383.51 373.506 1384.3 376.46 1386.64 377.726Z" fill="#A0D591"/>
<path d="M1393.32 401.903C1395.54 403.106 1398.35 402.225 1399.63 400.008C1400.9 397.791 1400.15 394.981 1397.97 393.801C1395.79 392.621 1392.93 393.478 1391.66 395.695C1390.39 397.913 1391.14 400.722 1393.32 401.903Z" fill="#A0D591"/>
<path d="M1400 426.088C1402.05 427.2 1404.64 426.422 1405.84 424.333C1407.04 422.243 1406.36 419.695 1404.3 418.583C1402.25 417.471 1399.66 418.248 1398.46 420.338C1397.26 422.427 1397.94 424.976 1400 426.088Z" fill="#A0D591"/>
<path d="M1406.57 450.541C1408.63 451.653 1411.22 450.875 1412.42 448.786C1413.61 446.696 1412.93 444.148 1410.88 443.036C1408.83 441.924 1406.24 442.702 1405.04 444.791C1403.84 446.88 1404.52 449.429 1406.57 450.541Z" fill="#A0D591"/>
<path d="M1413.3 474.647C1415.15 475.645 1417.47 474.947 1418.55 473.071C1419.62 471.195 1419.01 468.908 1417.17 467.909C1415.32 466.911 1413 467.609 1411.92 469.485C1410.84 471.361 1411.46 473.648 1413.3 474.647Z" fill="#A0D591"/>
<path d="M1420.12 498.679C1421.71 499.541 1423.77 498.923 1424.7 497.303C1425.63 495.682 1425.09 493.657 1423.5 492.794C1421.9 491.932 1419.85 492.55 1418.92 494.17C1417.99 495.791 1418.53 497.816 1420.12 498.679Z" fill="#A0D591"/>
<path d="M1427.12 522.303C1428.29 522.939 1429.75 522.5 1430.44 521.306C1431.12 520.112 1430.74 518.675 1429.57 518.039C1428.39 517.404 1426.93 517.842 1426.25 519.036C1425.56 520.23 1425.95 521.668 1427.12 522.303Z" fill="#A0D591"/>
<path d="M1433.52 547.052C1434.82 547.754 1436.48 547.254 1437.24 545.935C1438 544.616 1437.56 542.978 1436.26 542.276C1434.96 541.574 1433.3 542.074 1432.54 543.393C1431.79 544.712 1432.22 546.35 1433.52 547.052Z" fill="#A0D591"/>
<path d="M1440.37 570.935C1441.38 571.479 1442.64 571.101 1443.22 570.077C1443.81 569.054 1443.48 567.812 1442.47 567.267C1441.47 566.723 1440.21 567.102 1439.62 568.125C1439.03 569.148 1439.36 570.39 1440.37 570.935Z" fill="#A0D591"/>
<path d="M1265.56 14.9344C1266.15 15.2521 1266.88 15.0328 1267.22 14.4358C1267.56 13.8388 1267.37 13.1201 1266.78 12.8023C1266.19 12.4845 1265.46 12.7039 1265.12 13.3009C1264.78 13.8979 1264.97 14.6166 1265.56 14.9344Z" fill="#A0D591"/>
<path d="M1271.75 39.9709C1272.63 40.4476 1273.76 40.1085 1274.27 39.2131C1274.79 38.3176 1274.49 37.2068 1273.61 36.7302C1272.73 36.2535 1271.6 36.5926 1271.09 37.488C1270.57 38.3835 1270.87 39.4943 1271.75 39.9709Z" fill="#A0D591"/>
<path d="M1278.4 64.1946C1279.16 64.6032 1280.09 64.324 1280.53 63.5564C1280.97 62.7889 1280.72 61.8742 1279.97 61.4656C1279.21 61.057 1278.29 61.3362 1277.85 62.1038C1277.4 62.8713 1277.65 63.7861 1278.4 64.1946Z" fill="#A0D591"/>
<path d="M1284.69 89.1676C1285.71 89.7192 1287.01 89.3263 1287.61 88.2901C1288.2 87.2539 1287.86 85.9668 1286.84 85.4152C1285.82 84.8636 1284.51 85.2565 1283.92 86.2927C1283.32 87.3289 1283.67 88.6161 1284.69 89.1676Z" fill="#A0D591"/>
<path d="M1290.75 114.409C1292.21 115.198 1294.08 114.636 1294.94 113.152C1295.79 111.669 1295.29 109.826 1293.84 109.036C1292.38 108.246 1290.5 108.809 1289.65 110.292C1288.8 111.776 1289.29 113.619 1290.75 114.409Z" fill="#A0D591"/>
<path d="M1297.5 138.575C1298.8 139.278 1300.46 138.78 1301.22 137.458C1301.97 136.136 1301.54 134.503 1300.24 133.799C1298.94 133.095 1297.28 133.594 1296.52 134.916C1295.76 136.238 1296.2 137.871 1297.5 138.575Z" fill="#A0D591"/>
<path d="M1303.84 163.353C1305.29 164.143 1307.17 163.58 1308.02 162.097C1308.87 160.613 1308.38 158.77 1306.92 157.98C1305.46 157.191 1303.59 157.753 1302.74 159.237C1301.88 160.72 1302.38 162.563 1303.84 163.353Z" fill="#A0D591"/>
<path d="M1309.97 188.575C1311.85 189.59 1314.25 188.867 1315.35 186.96C1316.44 185.052 1315.81 182.683 1313.93 181.667C1312.06 180.652 1309.65 181.375 1308.56 183.283C1307.46 185.19 1308.1 187.56 1309.97 188.575Z" fill="#A0D591"/>
<path d="M1316.33 213.315C1318.34 214.405 1320.93 213.627 1322.11 211.58C1323.28 209.533 1322.6 206.985 1320.59 205.896C1318.58 204.806 1315.99 205.584 1314.81 207.631C1313.64 209.677 1314.32 212.226 1316.33 213.315Z" fill="#A0D591"/>
<path d="M1323.2 237.261C1324.92 238.192 1327.17 237.514 1328.18 235.765C1329.18 234.017 1328.59 231.796 1326.87 230.865C1325.15 229.934 1322.89 230.612 1321.89 232.361C1320.88 234.109 1321.48 236.331 1323.2 237.261Z" fill="#A0D591"/>
<path d="M1329.32 262.422C1331.41 263.557 1334.13 262.74 1335.36 260.608C1336.58 258.476 1335.86 255.797 1333.77 254.662C1331.67 253.527 1328.95 254.344 1327.73 256.477C1326.5 258.609 1327.22 261.288 1329.32 262.422Z" fill="#A0D591"/>
<path d="M1335.8 286.946C1337.96 288.112 1340.72 287.281 1341.98 285.091C1343.23 282.901 1342.51 280.181 1340.35 279.015C1338.2 277.849 1335.43 278.679 1334.18 280.869C1332.92 283.06 1333.65 285.78 1335.8 286.946Z" fill="#A0D591"/>
<path d="M1342.67 310.895C1344.56 311.917 1346.95 311.199 1348.05 309.28C1349.15 307.361 1348.52 305.009 1346.63 303.987C1344.75 302.966 1342.36 303.684 1341.26 305.603C1340.15 307.522 1340.78 309.874 1342.67 310.895Z" fill="#A0D591"/>
<path d="M1349.23 335.288C1351.07 336.286 1353.42 335.546 1354.47 333.712C1355.52 331.879 1354.94 329.549 1353.09 328.55C1351.25 327.552 1348.92 328.25 1347.85 330.126C1346.77 332.002 1347.38 334.289 1349.23 335.288Z" fill="#A0D591"/>
<path d="M1355.49 360.299C1357.59 361.44 1360.3 360.627 1361.53 358.484C1362.76 356.341 1362.04 353.679 1359.94 352.538C1357.83 351.397 1355.13 352.21 1353.9 354.353C1352.67 356.496 1353.38 359.158 1355.49 360.299Z" fill="#A0D591"/>
<path d="M1362.16 384.475C1364.13 385.542 1366.66 384.784 1367.81 382.78C1368.96 380.776 1368.29 378.293 1366.32 377.226C1364.35 376.159 1361.83 376.917 1360.68 378.921C1359.53 380.926 1360.19 383.408 1362.16 384.475Z" fill="#A0D591"/>
<path d="M1369.05 408.386C1370.73 409.294 1372.86 408.656 1373.83 406.95C1374.81 405.244 1374.25 403.153 1372.58 402.246C1370.9 401.338 1368.77 401.976 1367.8 403.681C1366.82 405.387 1367.38 407.478 1369.05 408.386Z" fill="#A0D591"/>
<path d="M1375.34 433.247C1377.22 434.263 1379.63 433.54 1380.72 431.632C1381.81 429.724 1381.18 427.355 1379.3 426.34C1377.43 425.324 1375.02 426.047 1373.93 427.955C1372.83 429.862 1373.47 432.232 1375.34 433.247Z" fill="#A0D591"/>
<path d="M1382.1 457.299C1383.77 458.207 1385.9 457.569 1386.88 455.863C1387.85 454.157 1387.3 452.067 1385.62 451.159C1383.94 450.251 1381.82 450.889 1380.84 452.595C1379.86 454.3 1380.42 456.391 1382.1 457.299Z" fill="#A0D591"/>
<path d="M1389.04 481.124C1390.34 481.828 1392 481.329 1392.76 480.007C1393.51 478.685 1393.08 477.052 1391.78 476.348C1390.48 475.645 1388.82 476.143 1388.06 477.465C1387.3 478.787 1387.74 480.42 1389.04 481.124Z" fill="#A0D591"/>
<path d="M1395.89 505.004C1396.89 505.548 1398.15 505.169 1398.74 504.146C1399.33 503.123 1399 501.881 1397.99 501.336C1396.98 500.792 1395.72 501.171 1395.13 502.194C1394.55 503.217 1394.88 504.459 1395.89 505.004Z" fill="#A0D591"/>
<path d="M1402.27 529.791C1403.44 530.426 1404.9 529.987 1405.58 528.793C1406.27 527.599 1405.89 526.162 1404.71 525.526C1403.54 524.891 1402.08 525.33 1401.39 526.524C1400.71 527.718 1401.09 529.155 1402.27 529.791Z" fill="#A0D591"/>
<path d="M1409.26 553.418C1409.98 553.804 1410.91 553.524 1411.32 552.799C1411.74 552.075 1411.49 551.16 1410.78 550.774C1410.07 550.388 1409.14 550.667 1408.72 551.392C1408.31 552.117 1408.55 553.032 1409.26 553.418Z" fill="#A0D591"/>
<path d="M1416.16 577.323C1416.58 577.55 1417.11 577.39 1417.35 576.964C1417.6 576.537 1417.46 576.014 1417.04 575.787C1416.62 575.56 1416.09 575.72 1415.84 576.146C1415.6 576.573 1415.74 577.096 1416.16 577.323Z" fill="#A0D591"/>
<path d="M1422.54 602.018C1423.09 602.313 1423.77 602.071 1424.07 601.56C1424.36 601.048 1424.17 600.329 1423.67 600.057C1423.16 599.784 1422.43 600.004 1422.14 600.515C1421.85 601.027 1422.04 601.746 1422.54 602.018Z" fill="#A0D591"/>
<path d="M1429.53 625.755C1429.53 625.755 1429.86 625.763 1429.93 625.636C1430.01 625.508 1429.95 625.311 1429.83 625.243C1429.7 625.174 1429.5 625.234 1429.43 625.362C1429.35 625.49 1429.41 625.686 1429.53 625.755Z" fill="#A0D591"/>
<path d="M1241.25 21.3891C1241.25 21.3891 1241.3 21.4124 1241.32 21.3701C1241.34 21.3278 1241.34 21.3278 1241.3 21.3045C1241.26 21.2813 1241.26 21.2813 1241.23 21.3236C1241.21 21.3659 1241.21 21.3659 1241.25 21.3891Z" fill="#A0D591"/>
<path d="M1247.46 46.4962C1247.83 46.7005 1248.3 46.5609 1248.52 46.1771C1248.74 45.7934 1248.62 45.336 1248.24 45.1317C1247.86 44.9274 1247.4 45.067 1247.18 45.4508C1246.96 45.8346 1247.08 46.292 1247.46 46.4962Z" fill="#A0D591"/>
<path d="M1253.65 71.5264C1254.32 71.89 1255.18 71.631 1255.57 70.9481C1255.96 70.2651 1255.74 69.4168 1255.07 69.0533C1254.39 68.6897 1253.53 68.9487 1253.14 69.6316C1252.75 70.3146 1252.98 71.1629 1253.65 71.5264Z" fill="#A0D591"/>
<path d="M1260.16 96.005C1260.83 96.3681 1261.69 96.1089 1262.08 95.4266C1262.47 94.7444 1262.25 93.8949 1261.58 93.5318C1260.9 93.1686 1260.04 93.4279 1259.65 94.1101C1259.26 94.7924 1259.49 95.6418 1260.16 96.005Z" fill="#A0D591"/>
<path d="M1266.51 120.844C1267.39 121.32 1268.52 120.981 1269.04 120.086C1269.55 119.191 1269.25 118.08 1268.37 117.603C1267.49 117.127 1266.36 117.466 1265.85 118.361C1265.34 119.256 1265.63 120.368 1266.51 120.844Z" fill="#A0D591"/>
<path d="M1272.8 145.706C1273.93 146.319 1275.35 145.857 1275.99 144.749C1276.62 143.64 1276.24 142.203 1275.15 141.612C1274.06 141.022 1272.6 141.461 1271.96 142.57C1271.33 143.678 1271.71 145.116 1272.8 145.706Z" fill="#A0D591"/>
<path d="M1279.35 170.21C1280.48 170.823 1281.9 170.361 1282.54 169.253C1283.17 168.144 1282.79 166.706 1281.7 166.116C1280.61 165.526 1279.15 165.965 1278.51 167.074C1277.88 168.182 1278.26 169.62 1279.35 170.21Z" fill="#A0D591"/>
<path d="M1285.69 194.992C1286.99 195.695 1288.65 195.197 1289.41 193.875C1290.16 192.553 1289.73 190.92 1288.43 190.216C1287.13 189.512 1285.47 190.011 1284.71 191.333C1283.95 192.655 1284.39 194.288 1285.69 194.992Z" fill="#A0D591"/>
<path d="M1292.14 219.661C1293.52 220.41 1295.32 219.872 1296.12 218.465C1296.93 217.058 1296.46 215.294 1295.08 214.544C1293.69 213.795 1291.9 214.334 1291.09 215.741C1290.29 217.148 1290.76 218.912 1292.14 219.661Z" fill="#A0D591"/>
<path d="M1298.31 244.737C1300.04 245.677 1302.27 245.007 1303.28 243.241C1304.3 241.475 1303.71 239.281 1301.97 238.341C1300.24 237.4 1298.01 238.07 1297 239.836C1295.98 241.603 1296.57 243.797 1298.31 244.737Z" fill="#A0D591"/>
<path d="M1305.1 268.81C1306.61 269.627 1308.61 269.029 1309.49 267.494C1310.37 265.959 1309.84 263.999 1308.33 263.182C1306.82 262.365 1304.83 262.963 1303.95 264.498C1303.07 266.033 1303.6 267.993 1305.1 268.81Z" fill="#A0D591"/>
<path d="M1311.58 293.337C1313.14 294.177 1315.17 293.602 1316.1 291.981C1317.03 290.361 1316.5 288.401 1314.91 287.538C1313.32 286.676 1311.33 287.274 1310.4 288.894C1309.47 290.515 1309.99 292.475 1311.58 293.337Z" fill="#A0D591"/>
<path d="M1318.09 317.819C1319.64 318.659 1321.68 318.083 1322.61 316.463C1323.54 314.843 1323.01 312.883 1321.42 312.02C1319.83 311.157 1317.84 311.756 1316.91 313.376C1315.98 314.997 1316.5 316.957 1318.09 317.819Z" fill="#A0D591"/>
<path d="M1324.67 342.269C1326.22 343.109 1328.25 342.534 1329.18 340.913C1330.11 339.293 1329.59 337.333 1328 336.47C1326.4 335.608 1324.41 336.206 1323.48 337.826C1322.55 339.447 1323.08 341.407 1324.67 342.269Z" fill="#A0D591"/>
<path d="M1331.3 366.547C1332.76 367.337 1334.63 366.774 1335.48 365.29C1336.33 363.807 1335.84 361.964 1334.38 361.174C1332.92 360.384 1331.05 360.947 1330.2 362.431C1329.35 363.914 1329.84 365.757 1331.3 366.547Z" fill="#A0D591"/>
<path d="M1337.92 390.914C1339.31 391.663 1341.1 391.124 1341.91 389.717C1342.71 388.31 1342.24 386.546 1340.86 385.797C1339.47 385.048 1337.68 385.586 1336.87 386.994C1336.07 388.401 1336.54 390.165 1337.92 390.914Z" fill="#A0D591"/>
<path d="M1344.16 415.861C1345.83 416.764 1347.97 416.121 1348.94 414.426C1349.91 412.73 1349.35 410.624 1347.68 409.721C1346.02 408.819 1343.88 409.461 1342.9 411.157C1341.93 412.853 1342.49 414.959 1344.16 415.861Z" fill="#A0D591"/>
<path d="M1351.15 439.6C1352.41 440.281 1354 439.802 1354.74 438.523C1355.47 437.244 1355.05 435.676 1353.79 434.995C1352.53 434.314 1350.94 434.792 1350.21 436.072C1349.47 437.351 1349.89 438.919 1351.15 439.6Z" fill="#A0D591"/>
<path d="M1357.85 463.732C1358.94 464.322 1360.34 463.903 1360.97 462.794C1361.61 461.686 1361.24 460.314 1360.15 459.724C1359.06 459.133 1357.67 459.552 1357.03 460.661C1356.4 461.77 1356.76 463.142 1357.85 463.732Z" fill="#A0D591"/>
<path d="M1364.63 487.745C1365.49 488.209 1366.59 487.878 1367.09 487.007C1367.59 486.136 1367.3 485.053 1366.44 484.589C1365.59 484.126 1364.49 484.456 1363.99 485.327C1363.49 486.199 1363.78 487.281 1364.63 487.745Z" fill="#A0D591"/>
<path d="M1371.21 512.201C1372.04 512.655 1373.15 512.358 1373.66 511.463C1374.18 510.567 1373.9 509.522 1373.02 509.045C1372.14 508.569 1371.07 508.888 1370.56 509.783C1370.05 510.679 1370.33 511.724 1371.21 512.201Z" fill="#A0D591"/>
<path d="M1377.98 536.207C1378.61 536.548 1379.37 536.286 1379.71 535.689C1380.05 535.092 1379.84 534.308 1379.26 533.99C1378.67 533.672 1377.87 533.912 1377.53 534.509C1377.19 535.106 1377.4 535.89 1377.98 536.207Z" fill="#A0D591"/>
<path d="M1384.78 560.281C1385.15 560.485 1385.62 560.346 1385.84 559.962C1386.06 559.578 1385.94 559.121 1385.56 558.916C1385.18 558.712 1384.72 558.852 1384.5 559.235C1384.28 559.619 1384.4 560.077 1384.78 560.281Z" fill="#A0D591"/>
<path d="M1391.31 584.721C1391.69 584.926 1392.15 584.786 1392.37 584.402C1392.59 584.018 1392.47 583.561 1392.09 583.357C1391.71 583.153 1391.25 583.292 1391.03 583.676C1390.81 584.06 1390.93 584.517 1391.31 584.721Z" fill="#A0D591"/>
<path d="M1398.25 608.534C1398.28 608.546 1398.31 608.538 1398.32 608.515C1398.33 608.491 1398.33 608.462 1398.3 608.449C1398.28 608.436 1398.25 608.445 1398.24 608.468C1398.22 608.491 1398.23 608.521 1398.25 608.534Z" fill="#A0D591"/>
<path d="M1229.29 78.1719C1229.52 78.2972 1229.81 78.208 1229.95 77.9727C1230.08 77.7374 1230.01 77.445 1229.77 77.3197C1229.54 77.1944 1229.25 77.2835 1229.11 77.5189C1228.98 77.7542 1229.05 78.0465 1229.29 78.1719Z" fill="#A0D591"/>
<path d="M1235.5 103.165C1236.01 103.44 1236.67 103.244 1236.96 102.726C1237.26 102.208 1237.09 101.564 1236.58 101.288C1236.07 101.013 1235.42 101.209 1235.12 101.727C1234.82 102.245 1234.99 102.889 1235.5 103.165Z" fill="#A0D591"/>
<path d="M1242.18 127.341C1242.55 127.542 1243.03 127.399 1243.24 127.022C1243.46 126.645 1243.33 126.177 1242.96 125.976C1242.59 125.776 1242.12 125.919 1241.9 126.296C1241.69 126.672 1241.81 127.14 1242.18 127.341Z" fill="#A0D591"/>
<path d="M1248.39 152.438C1249.1 152.824 1250.03 152.545 1250.45 151.82C1250.86 151.095 1250.62 150.18 1249.91 149.794C1249.19 149.409 1248.26 149.688 1247.85 150.413C1247.43 151.138 1247.68 152.052 1248.39 152.438Z" fill="#A0D591"/>
<path d="M1254.72 177.223C1255.61 177.7 1256.73 177.36 1257.25 176.465C1257.76 175.57 1257.46 174.459 1256.58 173.982C1255.7 173.505 1254.57 173.845 1254.06 174.74C1253.55 175.635 1253.84 176.746 1254.72 177.223Z" fill="#A0D591"/>
<path d="M1261.49 201.341C1262.17 201.705 1263.03 201.445 1263.42 200.763C1263.81 200.081 1263.58 199.231 1262.91 198.868C1262.24 198.505 1261.38 198.764 1260.99 199.447C1260.6 200.129 1260.82 200.978 1261.49 201.341Z" fill="#A0D591"/>
<path d="M1267.66 226.413C1268.67 226.958 1270 226.559 1270.58 225.536C1271.17 224.512 1270.82 223.206 1269.81 222.661C1268.81 222.116 1267.48 222.515 1266.89 223.538C1266.31 224.562 1266.66 225.868 1267.66 226.413Z" fill="#A0D591"/>
<path d="M1274.09 251.131C1275.27 251.767 1276.73 251.328 1277.41 250.134C1278.1 248.94 1277.71 247.503 1276.54 246.867C1275.36 246.232 1273.9 246.671 1273.22 247.864C1272.53 249.058 1272.92 250.496 1274.09 251.131Z" fill="#A0D591"/>
<path d="M1280.53 275.741C1281.74 276.399 1283.33 275.92 1284.04 274.684C1284.75 273.447 1284.33 271.879 1283.12 271.221C1281.9 270.562 1280.31 271.041 1279.6 272.278C1278.89 273.514 1279.31 275.082 1280.53 275.741Z" fill="#A0D591"/>
<path d="M1287.39 299.684C1288.36 300.206 1289.55 299.847 1290.12 298.866C1290.68 297.885 1290.36 296.709 1289.4 296.187C1288.44 295.665 1287.24 296.024 1286.68 297.005C1286.12 297.985 1286.43 299.161 1287.39 299.684Z" fill="#A0D591"/>
<path d="M1293.58 324.717C1294.83 325.394 1296.44 324.912 1297.17 323.64C1297.9 322.369 1297.48 320.789 1296.23 320.112C1294.98 319.435 1293.37 319.917 1292.64 321.189C1291.91 322.461 1292.33 324.04 1293.58 324.717Z" fill="#A0D591"/>
<path d="M1300.14 349.117C1301.36 349.775 1302.95 349.296 1303.66 348.06C1304.37 346.823 1303.95 345.255 1302.74 344.597C1301.52 343.938 1299.93 344.417 1299.22 345.654C1298.51 346.89 1298.93 348.458 1300.14 349.117Z" fill="#A0D591"/>
<path d="M1307.06 372.976C1307.94 373.453 1309.07 373.114 1309.58 372.218C1310.09 371.323 1309.8 370.212 1308.92 369.736C1308.04 369.259 1306.91 369.598 1306.39 370.493C1305.88 371.389 1306.18 372.5 1307.06 372.976Z" fill="#A0D591"/>
<path d="M1313.35 397.838C1314.48 398.451 1315.9 397.989 1316.53 396.881C1317.17 395.772 1316.78 394.334 1315.69 393.744C1314.6 393.154 1313.14 393.593 1312.51 394.702C1311.87 395.81 1312.26 397.248 1313.35 397.838Z" fill="#A0D591"/>
<path d="M1320.02 422.132C1321.04 422.683 1322.35 422.29 1322.94 421.254C1323.53 420.218 1323.19 418.931 1322.17 418.379C1321.15 417.828 1319.84 418.22 1319.25 419.257C1318.66 420.293 1319 421.58 1320.02 422.132Z" fill="#A0D591"/>
<path d="M1326.67 446.352C1327.55 446.828 1328.68 446.489 1329.19 445.594C1329.71 444.699 1329.41 443.587 1328.53 443.111C1327.65 442.635 1326.52 442.974 1326.01 443.869C1325.5 444.764 1325.79 445.875 1326.67 446.352Z" fill="#A0D591"/>
<path d="M1333.64 470.126C1334.14 470.398 1334.81 470.199 1335.1 469.687C1335.39 469.176 1335.22 468.522 1334.72 468.25C1334.21 467.977 1333.55 468.177 1333.25 468.689C1332.96 469.2 1333.14 469.854 1333.64 470.126Z" fill="#A0D591"/>
<path d="M1339.97 494.894C1340.65 495.258 1341.51 494.999 1341.9 494.316C1342.29 493.633 1342.06 492.784 1341.39 492.421C1340.72 492.057 1339.86 492.316 1339.47 492.999C1339.08 493.682 1339.3 494.531 1339.97 494.894Z" fill="#A0D591"/>
<path d="M1346.75 518.904C1347.19 519.142 1347.76 518.973 1348.01 518.525C1348.27 518.078 1348.12 517.522 1347.68 517.284C1347.24 517.046 1346.68 517.215 1346.42 517.663C1346.16 518.11 1346.31 518.666 1346.75 518.904Z" fill="#A0D591"/>
<path d="M1353.74 542.643C1353.74 542.643 1353.78 542.666 1353.81 542.624C1353.83 542.582 1353.83 542.582 1353.79 542.558C1353.75 542.535 1353.75 542.535 1353.72 542.578C1353.7 542.62 1353.7 542.62 1353.74 542.643Z" fill="#A0D591"/>
<path d="M1360.13 567.33C1360.13 567.33 1360.5 567.361 1360.59 567.191C1360.69 567.02 1360.64 566.824 1360.47 566.733C1360.3 566.642 1360.1 566.701 1360.01 566.872C1359.91 567.043 1359.96 567.239 1360.13 567.33Z" fill="#A0D591"/>
<path d="M1217.33 134.845C1217.71 135.049 1218.17 134.91 1218.39 134.526C1218.61 134.142 1218.49 133.685 1218.11 133.48C1217.74 133.276 1217.27 133.416 1217.05 133.799C1216.83 134.183 1216.95 134.641 1217.33 134.845Z" fill="#A0D591"/>
<path d="M1224.11 158.856C1224.11 158.856 1224.43 158.865 1224.51 158.737C1224.58 158.609 1224.53 158.412 1224.4 158.344C1224.28 158.275 1224.08 158.335 1224 158.463C1223.93 158.591 1223.98 158.787 1224.11 158.856Z" fill="#A0D591"/>
<path d="M1230.48 183.662C1230.78 183.821 1231.18 183.701 1231.35 183.403C1231.52 183.104 1231.41 182.712 1231.12 182.553C1230.83 182.394 1230.43 182.514 1230.26 182.813C1230.09 183.111 1230.19 183.503 1230.48 183.662Z" fill="#A0D591"/>
<path d="M1236.62 208.778C1237.3 209.142 1238.16 208.882 1238.55 208.2C1238.94 207.518 1238.71 206.668 1238.04 206.305C1237.37 205.942 1236.51 206.201 1236.12 206.884C1235.73 207.566 1235.95 208.415 1236.62 208.778Z" fill="#A0D591"/>
<path d="M1243.45 232.805C1243.91 233.054 1244.46 232.852 1244.71 232.426C1244.95 231.999 1244.79 231.411 1244.37 231.184C1243.96 230.957 1243.36 231.137 1243.11 231.563C1242.87 231.99 1243.03 232.578 1243.45 232.805Z" fill="#A0D591"/>
<path d="M1249.86 257.459C1250.4 257.754 1251.09 257.512 1251.38 257C1251.68 256.488 1251.48 255.77 1250.98 255.497C1250.48 255.225 1249.75 255.444 1249.46 255.956C1249.16 256.468 1249.35 257.186 1249.86 257.459Z" fill="#A0D591"/>
<path d="M1256.36 282.046C1256.96 282.372 1257.73 282.14 1258.08 281.527C1258.43 280.915 1258.23 280.154 1257.63 279.828C1257.03 279.503 1256.25 279.735 1255.9 280.347C1255.55 280.959 1255.75 281.72 1256.36 282.046Z" fill="#A0D591"/>
<path d="M1262.5 307.165C1263.46 307.688 1264.66 307.329 1265.22 306.348C1265.78 305.367 1265.47 304.191 1264.51 303.669C1263.54 303.147 1262.35 303.506 1261.78 304.487C1261.22 305.467 1261.54 306.643 1262.5 307.165Z" fill="#A0D591"/>
<path d="M1269.44 330.987C1270.07 331.328 1270.82 331.066 1271.17 330.469C1271.51 329.872 1271.3 329.088 1270.71 328.77C1270.13 328.452 1269.33 328.691 1268.99 329.288C1268.64 329.885 1268.85 330.669 1269.44 330.987Z" fill="#A0D591"/>
<path d="M1275.95 355.466C1276.58 355.806 1277.33 355.544 1277.67 354.947C1278.02 354.35 1277.81 353.566 1277.22 353.248C1276.63 352.931 1275.84 353.17 1275.49 353.767C1275.15 354.364 1275.36 355.148 1275.95 355.466Z" fill="#A0D591"/>
<path d="M1282.19 380.41C1283.07 380.887 1284.2 380.548 1284.71 379.653C1285.23 378.757 1284.93 377.646 1284.05 377.17C1283.17 376.693 1282.04 377.032 1281.53 377.928C1281.01 378.823 1281.31 379.934 1282.19 380.41Z" fill="#A0D591"/>
<path d="M1289.11 404.274C1289.65 404.569 1290.34 404.327 1290.63 403.815C1290.93 403.303 1290.73 402.584 1290.23 402.312C1289.73 402.04 1289 402.259 1288.7 402.771C1288.41 403.282 1288.6 404.001 1289.11 404.274Z" fill="#A0D591"/>
<path d="M1295.76 428.494C1296.18 428.72 1296.71 428.559 1296.95 428.135C1297.2 427.711 1297.06 427.184 1296.64 426.959C1296.22 426.733 1295.69 426.894 1295.45 427.318C1295.2 427.742 1295.34 428.268 1295.76 428.494Z" fill="#A0D591"/>
<path d="M1302.46 452.747C1302.75 452.905 1303.15 452.786 1303.32 452.487C1303.49 452.189 1303.39 451.797 1303.09 451.638C1302.8 451.479 1302.4 451.599 1302.23 451.897C1302.06 452.196 1302.16 452.588 1302.46 452.747Z" fill="#A0D591"/>
<path d="M1308.74 477.601C1309.25 477.873 1309.91 477.674 1310.2 477.162C1310.5 476.65 1310.32 475.997 1309.82 475.724C1309.32 475.452 1308.65 475.651 1308.36 476.163C1308.06 476.675 1308.24 477.328 1308.74 477.601Z" fill="#A0D591"/>
<path d="M1315.76 501.289C1315.76 501.289 1315.98 501.295 1316.02 501.21C1316.07 501.124 1316.04 500.993 1315.95 500.948C1315.87 500.902 1315.74 500.942 1315.69 501.027C1315.64 501.113 1315.67 501.244 1315.76 501.289Z" fill="#A0D591"/>
<path d="M1328.88 550.074C1328.88 550.074 1328.92 550.097 1328.94 550.055C1328.97 550.012 1328.97 550.012 1328.92 549.989C1328.88 549.966 1328.88 549.966 1328.86 550.008C1328.83 550.05 1328.83 550.05 1328.88 550.074Z" fill="#A0D591"/>
<path d="M1212.46 215.08C1212.46 215.08 1212.5 215.103 1212.53 215.061C1212.55 215.019 1212.55 215.019 1212.51 214.995C1212.47 214.972 1212.47 214.972 1212.44 215.014C1212.42 215.057 1212.42 215.057 1212.46 215.08Z" fill="#A0D591"/>
<path d="M1218.85 239.774C1218.85 239.774 1219.21 239.805 1219.31 239.635C1219.41 239.464 1219.36 239.267 1219.19 239.176C1219.02 239.085 1218.82 239.145 1218.72 239.316C1218.63 239.487 1218.68 239.683 1218.85 239.774Z" fill="#A0D591"/>
<path d="M1231.83 288.883C1232.08 289.019 1232.46 288.942 1232.63 288.644C1232.8 288.346 1232.71 288.019 1232.42 287.86C1232.12 287.701 1231.79 287.801 1231.62 288.099C1231.45 288.397 1231.54 288.724 1231.83 288.883Z" fill="#A0D591"/>
<path d="M1238.36 313.429C1238.65 313.588 1239.05 313.468 1239.22 313.17C1239.39 312.871 1239.29 312.479 1238.99 312.32C1238.7 312.162 1238.3 312.281 1238.13 312.58C1237.96 312.878 1238.06 313.27 1238.36 313.429Z" fill="#A0D591"/>
<path d="M1244.86 337.908C1245.16 338.067 1245.56 337.947 1245.73 337.648C1245.9 337.35 1245.79 336.958 1245.5 336.799C1245.21 336.64 1244.81 336.76 1244.64 337.058C1244.47 337.357 1244.57 337.749 1244.86 337.908Z" fill="#A0D591"/>
<path d="M1251.44 362.371C1251.73 362.529 1252.13 362.41 1252.3 362.111C1252.47 361.813 1252.37 361.421 1252.08 361.262C1251.78 361.103 1251.38 361.223 1251.21 361.521C1251.04 361.82 1251.15 362.212 1251.44 362.371Z" fill="#A0D591"/>
<path d="M1258 386.759C1258.27 386.91 1258.63 386.803 1258.79 386.52C1258.96 386.238 1258.86 385.887 1258.58 385.737C1258.31 385.586 1257.95 385.693 1257.79 385.976C1257.63 386.258 1257.72 386.609 1258 386.759Z" fill="#A0D591"/>
<path d="M1264.63 411.033C1264.63 411.033 1264.99 411.064 1265.09 410.893C1265.19 410.723 1265.14 410.526 1264.97 410.435C1264.8 410.344 1264.6 410.404 1264.5 410.575C1264.41 410.745 1264.46 410.942 1264.63 411.033Z" fill="#A0D591"/>
<path d="M1277.86 459.705C1277.86 459.705 1277.9 459.728 1277.92 459.686C1277.95 459.643 1277.95 459.643 1277.91 459.62C1277.86 459.597 1277.86 459.597 1277.84 459.639C1277.81 459.681 1277.81 459.681 1277.86 459.705Z" fill="#A0D591"/>
</g>
</g>
<defs>
<clipPath id="clip0_699_2101">
<rect width="1440" height="955" fill="white"/>
</clipPath>
</defs>
</svg>
