<svg width="858" height="151" viewBox="0 0 858 151" fill="none" xmlns="http://www.w3.org/2000/svg">
<g filter="url(#filter0_d_642_9657)">
<path d="M3.01824 14.0328C3.01954 7.93918 7.95977 3 14.0534 3H843.88C849.975 3 854.915 7.94061 854.915 14.0352V87.3672C854.915 94.194 849.725 99.902 842.929 100.55L433.145 139.601C430.36 139.866 427.555 139.866 424.77 139.601L14.9885 100.55C8.19142 99.9021 3.00117 94.1925 3.00262 87.3646L3.01824 14.0328Z" fill="#342E72"/>
<path d="M843.88 1.89648C850.584 1.89648 856.019 7.33116 856.019 14.0352V87.3672C856.019 94.7628 850.396 100.947 843.034 101.648L433.25 140.699C430.395 140.971 427.52 140.971 424.665 140.699L14.8838 101.648C7.52027 100.947 1.89784 94.7611 1.89941 87.3643L1.91504 14.0322C1.91666 7.32939 7.35083 1.89648 14.0537 1.89648H843.88Z" stroke="black" stroke-width="2.20703"/>
</g>
<path d="M14.0925 4.10352H843.824C849.307 4.10358 853.753 8.54715 853.756 14.0303L853.787 81.0615C853.789 86.177 849.906 90.4582 844.814 90.9521L433.112 130.877C430.349 131.145 427.567 131.145 424.804 130.877L13.1022 90.9521C8.01062 90.4583 4.12718 86.177 4.12958 81.0615L4.16083 14.0303C4.16352 8.54711 8.60927 4.10353 14.0925 4.10352Z" fill="url(#paint0_linear_642_9657)"/>
<path d="M14.0925 4.10352H843.824C849.307 4.10358 853.753 8.54715 853.756 14.0303L853.787 81.0615C853.789 86.177 849.906 90.4582 844.814 90.9521L433.112 130.877C430.349 131.145 427.567 131.145 424.804 130.877L13.1022 90.9521C8.01062 90.4583 4.12718 86.177 4.12958 81.0615L4.16083 14.0303C4.16352 8.54711 8.60927 4.10353 14.0925 4.10352Z" stroke="#D2BFFF" stroke-width="2.20703" style="mix-blend-mode:hard-light"/>
<path style="mix-blend-mode:hard-light" d="M843.962 5.53711C848.836 5.53711 852.789 9.4866 852.791 14.3604L852.799 29.8145C769.919 39.5472 611.174 46.1299 428.958 46.1299C246.742 46.1299 87.9961 39.5472 5.11646 29.8145L5.12427 14.3604C5.12693 9.48668 9.07874 5.53724 13.9524 5.53711H843.962Z" fill="url(#paint1_radial_642_9657)" fill-opacity="0.25"/>
<g filter="url(#filter1_ddd_642_9657)">
<mask id="path-5-outside-1_642_9657" maskUnits="userSpaceOnUse" x="285.906" y="44.0054" width="288" height="33" fill="black">
<rect fill="white" x="285.906" y="44.0054" width="288" height="33"/>
<path d="M288.344 74.0054V47.0454H299.184C306.144 47.0454 309.624 50.1654 309.624 56.4054C309.624 62.6454 306.144 65.7654 299.184 65.7654H295.744V74.0054H288.344ZM298.304 52.6054H295.744V60.2054H298.304C299.638 60.2054 300.611 59.8987 301.224 59.2854C301.838 58.672 302.144 57.712 302.144 56.4054C302.144 55.072 301.838 54.112 301.224 53.5254C300.611 52.912 299.638 52.6054 298.304 52.6054ZM308.657 74.0054L316.257 47.0454H326.417L334.257 74.0054H326.697L325.457 69.0454H317.217L315.977 74.0054H308.657ZM318.497 63.8054H324.137L321.337 52.4454L318.497 63.8054ZM336.549 74.0054V47.0454H347.149C350.562 47.0454 353.149 47.8054 354.909 49.3254C356.696 50.8454 357.589 53.0454 357.589 55.9254C357.589 57.792 357.162 59.3787 356.309 60.6854C355.456 61.9654 354.269 62.872 352.749 63.4054L359.309 74.0054H351.309L345.829 64.5254H343.829V74.0054H336.549ZM346.469 52.4854H343.829V59.3654H346.469C348.842 59.3654 350.029 58.2187 350.029 55.9254C350.029 53.632 348.842 52.4854 346.469 52.4854ZM361.96 74.0054V47.0454H380.04V52.8854H369.36V57.4454H378V63.2854H369.36V68.1654H380.2V74.0054H361.96ZM384.246 74.0054V47.0454H392.246L400.926 63.9254V47.0454H407.606V74.0054H399.606L390.926 57.1254V74.0054H384.246ZM417.071 74.0054V53.1254H410.471V47.0454H431.351V53.1254H424.751V74.0054H417.071ZM434.258 58.9654L435.618 47.0454H443.058L439.778 58.9654H434.258ZM453.937 74.6054C450.764 74.6054 447.857 74.0854 445.217 73.0454L446.617 67.2054C447.657 67.6054 448.764 67.9254 449.937 68.1654C451.137 68.3787 452.257 68.4854 453.297 68.4854C454.844 68.4854 455.95 68.2854 456.617 67.8854C457.31 67.4854 457.657 66.832 457.657 65.9254C457.657 64.832 457.044 64.1654 455.817 63.9254L452.257 63.2054C447.83 62.2987 445.617 59.6454 445.617 55.2454C445.617 52.4987 446.524 50.352 448.337 48.8054C450.15 47.232 452.644 46.4454 455.817 46.4454C458.99 46.4454 461.817 46.9254 464.297 47.8854L462.857 53.6054C461.017 52.8854 458.857 52.5254 456.377 52.5254C453.924 52.5254 452.697 53.2854 452.697 54.8054C452.697 55.9254 453.404 56.6187 454.817 56.8854L457.857 57.4854C460.31 57.992 462.11 58.8987 463.257 60.2054C464.43 61.512 465.017 63.312 465.017 65.6054C465.017 68.6454 464.11 70.912 462.297 72.4054C460.484 73.872 457.697 74.6054 453.937 74.6054ZM474.088 74.0054V68.6854L484.888 52.8854H474.128V47.0454H493.648V52.3654L482.848 68.1654H493.928V74.0054H474.088ZM508.732 74.6054C504.705 74.6054 501.638 73.4054 499.532 71.0054C497.425 68.6054 496.372 65.112 496.372 60.5254C496.372 55.9387 497.425 52.4454 499.532 50.0454C501.638 47.6454 504.705 46.4454 508.732 46.4454C512.758 46.4454 515.825 47.6454 517.932 50.0454C520.038 52.4454 521.092 55.9387 521.092 60.5254C521.092 65.112 520.038 68.6054 517.932 71.0054C515.825 73.4054 512.758 74.6054 508.732 74.6054ZM508.732 68.5254C510.305 68.5254 511.425 67.9254 512.092 66.7254C512.758 65.4987 513.092 63.432 513.092 60.5254C513.092 57.6187 512.758 55.5654 512.092 54.3654C511.425 53.1387 510.305 52.5254 508.732 52.5254C507.158 52.5254 506.038 53.1387 505.372 54.3654C504.705 55.5654 504.372 57.6187 504.372 60.5254C504.372 63.432 504.705 65.4987 505.372 66.7254C506.038 67.9254 507.158 68.5254 508.732 68.5254ZM524.74 74.0054V47.0454H532.74L541.42 63.9254V47.0454H548.1V74.0054H540.1L531.42 57.1254V74.0054H524.74ZM552.885 74.0054V47.0454H570.965V52.8854H560.285V57.4454H568.925V63.2854H560.285V68.1654H571.125V74.0054H552.885Z"/>
</mask>
<path d="M288.344 74.0054V47.0454H299.184C306.144 47.0454 309.624 50.1654 309.624 56.4054C309.624 62.6454 306.144 65.7654 299.184 65.7654H295.744V74.0054H288.344ZM298.304 52.6054H295.744V60.2054H298.304C299.638 60.2054 300.611 59.8987 301.224 59.2854C301.838 58.672 302.144 57.712 302.144 56.4054C302.144 55.072 301.838 54.112 301.224 53.5254C300.611 52.912 299.638 52.6054 298.304 52.6054ZM308.657 74.0054L316.257 47.0454H326.417L334.257 74.0054H326.697L325.457 69.0454H317.217L315.977 74.0054H308.657ZM318.497 63.8054H324.137L321.337 52.4454L318.497 63.8054ZM336.549 74.0054V47.0454H347.149C350.562 47.0454 353.149 47.8054 354.909 49.3254C356.696 50.8454 357.589 53.0454 357.589 55.9254C357.589 57.792 357.162 59.3787 356.309 60.6854C355.456 61.9654 354.269 62.872 352.749 63.4054L359.309 74.0054H351.309L345.829 64.5254H343.829V74.0054H336.549ZM346.469 52.4854H343.829V59.3654H346.469C348.842 59.3654 350.029 58.2187 350.029 55.9254C350.029 53.632 348.842 52.4854 346.469 52.4854ZM361.96 74.0054V47.0454H380.04V52.8854H369.36V57.4454H378V63.2854H369.36V68.1654H380.2V74.0054H361.96ZM384.246 74.0054V47.0454H392.246L400.926 63.9254V47.0454H407.606V74.0054H399.606L390.926 57.1254V74.0054H384.246ZM417.071 74.0054V53.1254H410.471V47.0454H431.351V53.1254H424.751V74.0054H417.071ZM434.258 58.9654L435.618 47.0454H443.058L439.778 58.9654H434.258ZM453.937 74.6054C450.764 74.6054 447.857 74.0854 445.217 73.0454L446.617 67.2054C447.657 67.6054 448.764 67.9254 449.937 68.1654C451.137 68.3787 452.257 68.4854 453.297 68.4854C454.844 68.4854 455.95 68.2854 456.617 67.8854C457.31 67.4854 457.657 66.832 457.657 65.9254C457.657 64.832 457.044 64.1654 455.817 63.9254L452.257 63.2054C447.83 62.2987 445.617 59.6454 445.617 55.2454C445.617 52.4987 446.524 50.352 448.337 48.8054C450.15 47.232 452.644 46.4454 455.817 46.4454C458.99 46.4454 461.817 46.9254 464.297 47.8854L462.857 53.6054C461.017 52.8854 458.857 52.5254 456.377 52.5254C453.924 52.5254 452.697 53.2854 452.697 54.8054C452.697 55.9254 453.404 56.6187 454.817 56.8854L457.857 57.4854C460.31 57.992 462.11 58.8987 463.257 60.2054C464.43 61.512 465.017 63.312 465.017 65.6054C465.017 68.6454 464.11 70.912 462.297 72.4054C460.484 73.872 457.697 74.6054 453.937 74.6054ZM474.088 74.0054V68.6854L484.888 52.8854H474.128V47.0454H493.648V52.3654L482.848 68.1654H493.928V74.0054H474.088ZM508.732 74.6054C504.705 74.6054 501.638 73.4054 499.532 71.0054C497.425 68.6054 496.372 65.112 496.372 60.5254C496.372 55.9387 497.425 52.4454 499.532 50.0454C501.638 47.6454 504.705 46.4454 508.732 46.4454C512.758 46.4454 515.825 47.6454 517.932 50.0454C520.038 52.4454 521.092 55.9387 521.092 60.5254C521.092 65.112 520.038 68.6054 517.932 71.0054C515.825 73.4054 512.758 74.6054 508.732 74.6054ZM508.732 68.5254C510.305 68.5254 511.425 67.9254 512.092 66.7254C512.758 65.4987 513.092 63.432 513.092 60.5254C513.092 57.6187 512.758 55.5654 512.092 54.3654C511.425 53.1387 510.305 52.5254 508.732 52.5254C507.158 52.5254 506.038 53.1387 505.372 54.3654C504.705 55.5654 504.372 57.6187 504.372 60.5254C504.372 63.432 504.705 65.4987 505.372 66.7254C506.038 67.9254 507.158 68.5254 508.732 68.5254ZM524.74 74.0054V47.0454H532.74L541.42 63.9254V47.0454H548.1V74.0054H540.1L531.42 57.1254V74.0054H524.74ZM552.885 74.0054V47.0454H570.965V52.8854H560.285V57.4454H568.925V63.2854H560.285V68.1654H571.125V74.0054H552.885Z" fill="white"/>
<path d="M288.344 74.0054H286.102V76.2477H288.344V74.0054ZM288.344 47.0454V44.803H286.102V47.0454H288.344ZM295.744 65.7654V63.523H293.502V65.7654H295.744ZM295.744 74.0054V76.2477H297.987V74.0054H295.744ZM295.744 52.6054V50.363H293.502V52.6054H295.744ZM295.744 60.2054H293.502V62.4477H295.744V60.2054ZM301.224 53.5254L299.639 55.1109L299.656 55.1286L299.674 55.1458L301.224 53.5254ZM288.344 74.0054H290.587V47.0454H288.344H286.102V74.0054H288.344ZM288.344 47.0454V49.2877H299.184V47.0454V44.803H288.344V47.0454ZM299.184 47.0454V49.2877C302.375 49.2877 304.35 50.0083 305.517 51.055C306.638 52.0599 307.382 53.6982 307.382 56.4054H309.624H311.867C311.867 52.8726 310.87 49.8309 308.511 47.7158C306.199 45.6425 302.953 44.803 299.184 44.803V47.0454ZM309.624 56.4054H307.382C307.382 59.1126 306.638 60.7509 305.517 61.7558C304.35 62.8025 302.375 63.523 299.184 63.523V65.7654V68.0077C302.953 68.0077 306.199 67.1683 308.511 65.095C310.87 62.9799 311.867 59.9382 311.867 56.4054H309.624ZM299.184 65.7654V63.523H295.744V65.7654V68.0077H299.184V65.7654ZM295.744 65.7654H293.502V74.0054H295.744H297.987V65.7654H295.744ZM295.744 74.0054V71.763H288.344V74.0054V76.2477H295.744V74.0054ZM298.304 52.6054V50.363H295.744V52.6054V54.8477H298.304V52.6054ZM295.744 52.6054H293.502V60.2054H295.744H297.987V52.6054H295.744ZM295.744 60.2054V62.4477H298.304V60.2054V57.963H295.744V60.2054ZM298.304 60.2054V62.4477C299.92 62.4477 301.597 62.0836 302.81 60.8709L301.224 59.2854L299.639 57.6998C299.625 57.7138 299.356 57.963 298.304 57.963V60.2054ZM301.224 59.2854L302.81 60.8709C304.015 59.6655 304.387 58.0096 304.387 56.4054H302.144H299.902C299.902 57.4145 299.66 57.6786 299.639 57.6998L301.224 59.2854ZM302.144 56.4054H304.387C304.387 54.8012 304.027 53.1034 302.774 51.905L301.224 53.5254L299.674 55.1458C299.674 55.1458 299.674 55.1459 299.675 55.1461C299.675 55.1462 299.675 55.1466 299.676 55.147C299.676 55.1479 299.678 55.1495 299.68 55.152C299.684 55.1569 299.69 55.1663 299.7 55.1817C299.718 55.2126 299.747 55.2707 299.778 55.3677C299.843 55.569 299.902 55.9002 299.902 56.4054H302.144ZM301.224 53.5254L302.81 51.9398C301.597 50.7271 299.92 50.363 298.304 50.363V52.6054V54.8477C299.356 54.8477 299.625 55.0969 299.639 55.1109L301.224 53.5254ZM308.657 74.0054L306.499 73.397L305.695 76.2477H308.657V74.0054ZM316.257 47.0454V44.803H314.559L314.099 46.437L316.257 47.0454ZM326.417 47.0454L328.57 46.4192L328.1 44.803H326.417V47.0454ZM334.257 74.0054V76.2477H337.244L336.41 73.3792L334.257 74.0054ZM326.697 74.0054L324.522 74.5492L324.946 76.2477H326.697V74.0054ZM325.457 69.0454L327.633 68.5015L327.208 66.803H325.457V69.0454ZM317.217 69.0454V66.803H315.466L315.042 68.5015L317.217 69.0454ZM315.977 74.0054V76.2477H317.728L318.152 74.5492L315.977 74.0054ZM318.497 63.8054L316.322 63.2615L315.625 66.0477H318.497V63.8054ZM324.137 63.8054V66.0477H326.999L326.314 63.2687L324.137 63.8054ZM321.337 52.4454L323.514 51.9087L319.162 51.9015L321.337 52.4454ZM308.657 74.0054L310.815 74.6138L318.415 47.6538L316.257 47.0454L314.099 46.437L306.499 73.397L308.657 74.0054ZM316.257 47.0454V49.2877H326.417V47.0454V44.803H316.257V47.0454ZM326.417 47.0454L324.264 47.6715L332.104 74.6315L334.257 74.0054L336.41 73.3792L328.57 46.4192L326.417 47.0454ZM334.257 74.0054V71.763H326.697V74.0054V76.2477H334.257V74.0054ZM326.697 74.0054L328.872 73.4615L327.633 68.5015L325.457 69.0454L323.282 69.5892L324.522 74.5492L326.697 74.0054ZM325.457 69.0454V66.803H317.217V69.0454V71.2877H325.457V69.0454ZM317.217 69.0454L315.042 68.5015L313.802 73.4615L315.977 74.0054L318.152 74.5492L319.393 69.5892L317.217 69.0454ZM315.977 74.0054V71.763H308.657V74.0054V76.2477H315.977V74.0054ZM318.497 63.8054V66.0477H324.137V63.8054V61.563H318.497V63.8054ZM324.137 63.8054L326.314 63.2687L323.514 51.9087L321.337 52.4454L319.16 52.982L321.96 64.342L324.137 63.8054ZM321.337 52.4454L319.162 51.9015L316.322 63.2615L318.497 63.8054L320.673 64.3492L323.512 52.9892L321.337 52.4454ZM336.549 74.0054H334.307V76.2477H336.549V74.0054ZM336.549 47.0454V44.803H334.307V47.0454H336.549ZM354.909 49.3254L353.443 51.0224L353.45 51.0279L353.456 51.0333L354.909 49.3254ZM356.309 60.6854L358.175 61.9292L358.181 61.9204L358.186 61.9115L356.309 60.6854ZM352.749 63.4054L352.007 61.2895L349.374 62.2132L350.842 64.5854L352.749 63.4054ZM359.309 74.0054V76.2477H363.334L361.216 72.8253L359.309 74.0054ZM351.309 74.0054L349.368 75.1276L350.015 76.2477H351.309V74.0054ZM345.829 64.5254L347.77 63.4032L347.123 62.283H345.829V64.5254ZM343.829 64.5254V62.283H341.587V64.5254H343.829ZM343.829 74.0054V76.2477H346.071V74.0054H343.829ZM343.829 52.4854V50.243H341.587V52.4854H343.829ZM343.829 59.3654H341.587V61.6077H343.829V59.3654ZM336.549 74.0054H338.791V47.0454H336.549H334.307V74.0054H336.549ZM336.549 47.0454V49.2877H347.149V47.0454V44.803H336.549V47.0454ZM347.149 47.0454V49.2877C350.27 49.2877 352.244 49.987 353.443 51.0224L354.909 49.3254L356.375 47.6283C354.054 45.6238 350.855 44.803 347.149 44.803V47.0454ZM354.909 49.3254L353.456 51.0333C354.63 52.0316 355.347 53.5395 355.347 55.9254H357.589H359.831C359.831 52.5513 358.762 49.6591 356.362 47.6175L354.909 49.3254ZM357.589 55.9254H355.347C355.347 57.4431 355.003 58.5835 354.432 59.4593L356.309 60.6854L358.186 61.9115C359.321 60.1739 359.831 58.1409 359.831 55.9254H357.589ZM356.309 60.6854L354.443 59.4415C353.873 60.2967 353.091 60.9091 352.007 61.2895L352.749 63.4054L353.491 65.5212C355.447 64.8349 357.038 63.634 358.175 61.9292L356.309 60.6854ZM352.749 63.4054L350.842 64.5854L357.402 75.1854L359.309 74.0054L361.216 72.8253L354.656 62.2253L352.749 63.4054ZM359.309 74.0054V71.763H351.309V74.0054V76.2477H359.309V74.0054ZM351.309 74.0054L353.25 72.8832L347.77 63.4032L345.829 64.5254L343.888 65.6476L349.368 75.1276L351.309 74.0054ZM345.829 64.5254V62.283H343.829V64.5254V66.7677H345.829V64.5254ZM343.829 64.5254H341.587V74.0054H343.829H346.071V64.5254H343.829ZM343.829 74.0054V71.763H336.549V74.0054V76.2477H343.829V74.0054ZM346.469 52.4854V50.243H343.829V52.4854V54.7277H346.469V52.4854ZM343.829 52.4854H341.587V59.3654H343.829H346.071V52.4854H343.829ZM343.829 59.3654V61.6077H346.469V59.3654V57.123H343.829V59.3654ZM346.469 59.3654V61.6077C347.982 61.6077 349.533 61.243 350.697 60.1179C351.876 58.9789 352.271 57.4376 352.271 55.9254H350.029H347.787C347.787 56.7065 347.589 56.8851 347.581 56.8928C347.559 56.9144 347.329 57.123 346.469 57.123V59.3654ZM350.029 55.9254H352.271C352.271 54.4131 351.876 52.8718 350.697 51.7328C349.533 50.6077 347.982 50.243 346.469 50.243V52.4854V54.7277C347.329 54.7277 347.559 54.9364 347.581 54.9579C347.589 54.9656 347.787 55.1443 347.787 55.9254H350.029ZM361.96 74.0054H359.718V76.2477H361.96V74.0054ZM361.96 47.0454V44.803H359.718V47.0454H361.96ZM380.04 47.0454H382.282V44.803H380.04V47.0454ZM380.04 52.8854V55.1277H382.282V52.8854H380.04ZM369.36 52.8854V50.643H367.118V52.8854H369.36ZM369.36 57.4454H367.118V59.6877H369.36V57.4454ZM378 57.4454H380.242V55.203H378V57.4454ZM378 63.2854V65.5277H380.242V63.2854H378ZM369.36 63.2854V61.043H367.118V63.2854H369.36ZM369.36 68.1654H367.118V70.4077H369.36V68.1654ZM380.2 68.1654H382.442V65.923H380.2V68.1654ZM380.2 74.0054V76.2477H382.442V74.0054H380.2ZM361.96 74.0054H364.202V47.0454H361.96H359.718V74.0054H361.96ZM361.96 47.0454V49.2877H380.04V47.0454V44.803H361.96V47.0454ZM380.04 47.0454H377.798V52.8854H380.04H382.282V47.0454H380.04ZM380.04 52.8854V50.643H369.36V52.8854V55.1277H380.04V52.8854ZM369.36 52.8854H367.118V57.4454H369.36H371.602V52.8854H369.36ZM369.36 57.4454V59.6877H378V57.4454V55.203H369.36V57.4454ZM378 57.4454H375.758V63.2854H378H380.242V57.4454H378ZM378 63.2854V61.043H369.36V63.2854V65.5277H378V63.2854ZM369.36 63.2854H367.118V68.1654H369.36H371.602V63.2854H369.36ZM369.36 68.1654V70.4077H380.2V68.1654V65.923H369.36V68.1654ZM380.2 68.1654H377.958V74.0054H380.2H382.442V68.1654H380.2ZM380.2 74.0054V71.763H361.96V74.0054V76.2477H380.2V74.0054ZM384.246 74.0054H382.004V76.2477H384.246V74.0054ZM384.246 47.0454V44.803H382.004V47.0454H384.246ZM392.246 47.0454L394.24 46.0199L393.614 44.803H392.246V47.0454ZM400.926 63.9254L398.932 64.9508L403.168 63.9254H400.926ZM400.926 47.0454V44.803H398.684V47.0454H400.926ZM407.606 47.0454H409.848V44.803H407.606V47.0454ZM407.606 74.0054V76.2477H409.848V74.0054H407.606ZM399.606 74.0054L397.612 75.0308L398.237 76.2477H399.606V74.0054ZM390.926 57.1254L392.92 56.0999L388.684 57.1254H390.926ZM390.926 74.0054V76.2477H393.168V74.0054H390.926ZM384.246 74.0054H386.488V47.0454H384.246H382.004V74.0054H384.246ZM384.246 47.0454V49.2877H392.246V47.0454V44.803H384.246V47.0454ZM392.246 47.0454L390.252 48.0708L398.932 64.9508L400.926 63.9254L402.92 62.8999L394.24 46.0199L392.246 47.0454ZM400.926 63.9254H403.168V47.0454H400.926H398.684V63.9254H400.926ZM400.926 47.0454V49.2877H407.606V47.0454V44.803H400.926V47.0454ZM407.606 47.0454H405.364V74.0054H407.606H409.848V47.0454H407.606ZM407.606 74.0054V71.763H399.606V74.0054V76.2477H407.606V74.0054ZM399.606 74.0054L401.6 72.9799L392.92 56.0999L390.926 57.1254L388.932 58.1508L397.612 75.0308L399.606 74.0054ZM390.926 57.1254H388.684V74.0054H390.926H393.168V57.1254H390.926ZM390.926 74.0054V71.763H384.246V74.0054V76.2477H390.926V74.0054ZM417.071 74.0054H414.829V76.2477H417.071V74.0054ZM417.071 53.1254H419.314V50.883H417.071V53.1254ZM410.471 53.1254H408.229V55.3677H410.471V53.1254ZM410.471 47.0454V44.803H408.229V47.0454H410.471ZM431.351 47.0454H433.594V44.803H431.351V47.0454ZM431.351 53.1254V55.3677H433.594V53.1254H431.351ZM424.751 53.1254V50.883H422.509V53.1254H424.751ZM424.751 74.0054V76.2477H426.994V74.0054H424.751ZM417.071 74.0054H419.314V53.1254H417.071H414.829V74.0054H417.071ZM417.071 53.1254V50.883H410.471V53.1254V55.3677H417.071V53.1254ZM410.471 53.1254H412.714V47.0454H410.471H408.229V53.1254H410.471ZM410.471 47.0454V49.2877H431.351V47.0454V44.803H410.471V47.0454ZM431.351 47.0454H429.109V53.1254H431.351H433.594V47.0454H431.351ZM431.351 53.1254V50.883H424.751V53.1254V55.3677H431.351V53.1254ZM424.751 53.1254H422.509V74.0054H424.751H426.994V53.1254H424.751ZM424.751 74.0054V71.763H417.071V74.0054V76.2477H424.751V74.0054ZM434.258 58.9654L432.03 58.7112L431.746 61.2077H434.258V58.9654ZM435.618 47.0454V44.803H433.617L433.39 46.7912L435.618 47.0454ZM443.058 47.0454L445.22 47.6403L446.001 44.803H443.058V47.0454ZM439.778 58.9654V61.2077H441.487L441.94 59.5603L439.778 58.9654ZM434.258 58.9654L436.486 59.2196L437.846 47.2996L435.618 47.0454L433.39 46.7912L432.03 58.7112L434.258 58.9654ZM435.618 47.0454V49.2877H443.058V47.0454V44.803H435.618V47.0454ZM443.058 47.0454L440.896 46.4505L437.616 58.3705L439.778 58.9654L441.94 59.5603L445.22 47.6403L443.058 47.0454ZM439.778 58.9654V56.723H434.258V58.9654V61.2077H439.778V58.9654ZM445.217 73.0454L443.037 72.5226L442.582 74.4175L444.395 75.1317L445.217 73.0454ZM446.617 67.2054L447.422 65.1125L445.033 64.1937L444.437 66.6826L446.617 67.2054ZM449.937 68.1654L449.488 70.3622L449.516 70.368L449.545 70.3731L449.937 68.1654ZM456.617 67.8854L455.497 65.9431L455.48 65.9527L455.463 65.9626L456.617 67.8854ZM455.817 63.9254L455.373 66.1232L455.38 66.1246L455.387 66.126L455.817 63.9254ZM452.257 63.2054L451.807 65.4021L451.813 65.4032L452.257 63.2054ZM448.337 48.8054L449.792 50.5114L449.799 50.5053L449.807 50.4991L448.337 48.8054ZM464.297 47.8854L466.472 48.4328L466.956 46.51L465.107 45.7942L464.297 47.8854ZM462.857 53.6054L462.04 55.6935L464.41 56.621L465.032 54.1528L462.857 53.6054ZM454.817 56.8854L455.251 54.6855L455.242 54.6836L455.233 54.6819L454.817 56.8854ZM457.857 57.4854L458.311 55.2894L458.301 55.2874L458.291 55.2855L457.857 57.4854ZM463.257 60.2054L461.572 61.6844L461.58 61.694L461.589 61.7035L463.257 60.2054ZM462.297 72.4054L463.707 74.1488L463.715 74.1426L463.723 74.1363L462.297 72.4054ZM453.937 74.6054V72.363C451.012 72.363 448.388 71.8845 446.039 70.9591L445.217 73.0454L444.395 75.1317C447.326 76.2863 450.516 76.8477 453.937 76.8477V74.6054ZM445.217 73.0454L447.398 73.5681L448.798 67.7281L446.617 67.2054L444.437 66.6826L443.037 72.5226L445.217 73.0454ZM446.617 67.2054L445.812 69.2983C446.976 69.7458 448.202 70.0993 449.488 70.3622L449.937 68.1654L450.386 65.9685C449.325 65.7515 448.338 65.4649 447.422 65.1125L446.617 67.2054ZM449.937 68.1654L449.545 70.3731C450.853 70.6057 452.105 70.7277 453.297 70.7277V68.4854V66.243C452.409 66.243 451.421 66.1518 450.33 65.9576L449.937 68.1654ZM453.297 68.4854V70.7277C454.92 70.7277 456.553 70.5389 457.771 69.8082L456.617 67.8854L455.463 65.9626C455.348 66.0318 454.767 66.243 453.297 66.243V68.4854ZM456.617 67.8854L457.738 69.8277C459.229 68.9672 459.899 67.5056 459.899 65.9254H457.657H455.415C455.415 66.0099 455.407 66.0558 455.403 66.0714C455.4 66.0854 455.401 66.0727 455.416 66.0443C455.423 66.0308 455.433 66.0161 455.444 66.0011C455.455 65.9862 455.466 65.9732 455.476 65.9624C455.499 65.9399 455.51 65.9354 455.497 65.9431L456.617 67.8854ZM457.657 65.9254H459.899C459.899 64.9391 459.61 63.9167 458.847 63.0872C458.115 62.2909 457.156 61.9024 456.248 61.7247L455.817 63.9254L455.387 66.126C455.54 66.1559 455.612 66.1876 455.631 66.1968C455.645 66.2038 455.604 66.1857 455.547 66.1236C455.519 66.0936 455.493 66.0591 455.471 66.0217C455.449 65.9844 455.434 65.9504 455.425 65.9233C455.406 65.8689 455.415 65.8607 455.415 65.9254H457.657ZM455.817 63.9254L456.262 61.7275L452.702 61.0075L452.257 63.2054L451.813 65.4032L455.373 66.1232L455.817 63.9254ZM452.257 63.2054L452.707 61.0086C450.837 60.6257 449.692 59.9295 448.999 59.099C448.312 58.2754 447.859 57.0672 447.859 55.2454H445.617H443.375C443.375 57.8236 444.029 60.142 445.555 61.9717C447.076 63.7946 449.25 64.8784 451.807 65.4021L452.257 63.2054ZM445.617 55.2454H447.859C447.859 53.0439 448.557 51.5647 449.792 50.5114L448.337 48.8054L446.882 47.0993C444.49 49.1393 443.375 51.9536 443.375 55.2454H445.617ZM448.337 48.8054L449.807 50.4991C451.096 49.3802 453.007 48.6877 455.817 48.6877V46.4454V44.203C452.28 44.203 449.205 45.0839 446.868 47.1117L448.337 48.8054ZM455.817 46.4454V48.6877C458.766 48.6877 461.31 49.1337 463.488 49.9765L464.297 47.8854L465.107 45.7942C462.324 44.717 459.215 44.203 455.817 44.203V46.4454ZM464.297 47.8854L462.123 47.3379L460.683 53.0579L462.857 53.6054L465.032 54.1528L466.472 48.4328L464.297 47.8854ZM462.857 53.6054L463.674 51.5172C461.517 50.673 459.068 50.283 456.377 50.283V52.5254V54.7677C458.646 54.7677 460.517 55.0978 462.04 55.6935L462.857 53.6054ZM456.377 52.5254V50.283C454.992 50.283 453.573 50.4845 452.436 51.1892C451.121 52.0038 450.455 53.3192 450.455 54.8054H452.697H454.939C454.939 54.7315 454.952 54.7761 454.902 54.8703C454.848 54.9696 454.786 55.0089 454.798 55.0015C454.825 54.9848 454.945 54.9209 455.221 54.8639C455.494 54.8074 455.873 54.7677 456.377 54.7677V52.5254ZM452.697 54.8054H450.455C450.455 55.8811 450.816 56.9407 451.657 57.766C452.44 58.5346 453.446 58.9086 454.401 59.0888L454.817 56.8854L455.233 54.6819C455.016 54.6409 454.884 54.5941 454.815 54.5627C454.748 54.5325 454.757 54.5249 454.797 54.5648C454.843 54.6099 454.89 54.6767 454.919 54.7512C454.946 54.8201 454.939 54.8484 454.939 54.8054H452.697ZM454.817 56.8854L454.383 59.0853L457.423 59.6853L457.857 57.4854L458.291 55.2855L455.251 54.6855L454.817 56.8854ZM457.857 57.4854L457.404 59.6814C459.583 60.1314 460.861 60.8747 461.572 61.6844L463.257 60.2054L464.943 58.7263C463.36 56.9227 461.038 55.8527 458.311 55.2894L457.857 57.4854ZM463.257 60.2054L461.589 61.7035C462.291 62.4858 462.775 63.6919 462.775 65.6054H465.017H467.259C467.259 62.9322 466.57 60.5383 464.926 58.7072L463.257 60.2054ZM465.017 65.6054H462.775C462.775 68.1878 462.023 69.7259 460.872 70.6744L462.297 72.4054L463.723 74.1363C466.197 72.0982 467.259 69.103 467.259 65.6054H465.017ZM462.297 72.4054L460.887 70.6619C459.653 71.6603 457.477 72.363 453.937 72.363V74.6054V76.8477C457.918 76.8477 461.315 76.0838 463.707 74.1488L462.297 72.4054ZM474.088 74.0054H471.845V76.2477H474.088V74.0054ZM474.088 68.6854L472.237 67.42L471.845 67.9922V68.6854H474.088ZM484.888 52.8854L486.739 54.1507L489.137 50.643H484.888V52.8854ZM474.128 52.8854H471.885V55.1277H474.128V52.8854ZM474.128 47.0454V44.803H471.885V47.0454H474.128ZM493.648 47.0454H495.89V44.803H493.648V47.0454ZM493.648 52.3654L495.499 53.6307L495.89 53.0585V52.3654H493.648ZM482.848 68.1654L480.997 66.9L478.599 70.4077H482.848V68.1654ZM493.928 68.1654H496.17V65.923H493.928V68.1654ZM493.928 74.0054V76.2477H496.17V74.0054H493.928ZM474.088 74.0054H476.33V68.6854H474.088H471.845V74.0054H474.088ZM474.088 68.6854L475.939 69.9507L486.739 54.1507L484.888 52.8854L483.037 51.62L472.237 67.42L474.088 68.6854ZM484.888 52.8854V50.643H474.128V52.8854V55.1277H484.888V52.8854ZM474.128 52.8854H476.37V47.0454H474.128H471.885V52.8854H474.128ZM474.128 47.0454V49.2877H493.648V47.0454V44.803H474.128V47.0454ZM493.648 47.0454H491.405V52.3654H493.648H495.89V47.0454H493.648ZM493.648 52.3654L491.797 51.1L480.997 66.9L482.848 68.1654L484.699 69.4307L495.499 53.6307L493.648 52.3654ZM482.848 68.1654V70.4077H493.928V68.1654V65.923H482.848V68.1654ZM493.928 68.1654H491.685V74.0054H493.928H496.17V68.1654H493.928ZM493.928 74.0054V71.763H474.088V74.0054V76.2477H493.928V74.0054ZM499.532 71.0054L497.847 72.4846L499.532 71.0054ZM499.532 50.0454L497.847 48.5661V48.5661L499.532 50.0454ZM517.932 50.0454L519.617 48.5661V48.5661L517.932 50.0454ZM512.092 66.7254L514.052 67.8144L514.057 67.8053L514.062 67.7961L512.092 66.7254ZM512.092 54.3654L510.122 55.4361L510.127 55.4453L510.132 55.4543L512.092 54.3654ZM505.372 54.3654L507.332 55.4543L507.337 55.4453L507.342 55.4361L505.372 54.3654ZM505.372 66.7254L503.402 67.7961L503.407 67.8053L503.412 67.8144L505.372 66.7254ZM508.732 74.6054V72.363C505.169 72.363 502.791 71.3198 501.217 69.5261L499.532 71.0054L497.847 72.4846C500.485 75.4909 504.241 76.8477 508.732 76.8477V74.6054ZM499.532 71.0054L501.217 69.5261C499.599 67.6824 498.614 64.8019 498.614 60.5254H496.372H494.129C494.129 65.4222 495.252 69.5284 497.847 72.4846L499.532 71.0054ZM496.372 60.5254H498.614C498.614 56.2488 499.599 53.3684 501.217 51.5246L499.532 50.0454L497.847 48.5661C495.252 51.5224 494.129 55.6286 494.129 60.5254H496.372ZM499.532 50.0454L501.217 51.5246C502.791 49.7309 505.169 48.6877 508.732 48.6877V46.4454V44.203C504.241 44.203 500.485 45.5598 497.847 48.5661L499.532 50.0454ZM508.732 46.4454V48.6877C512.294 48.6877 514.672 49.7309 516.247 51.5246L517.932 50.0454L519.617 48.5661C516.978 45.5598 513.223 44.203 508.732 44.203V46.4454ZM517.932 50.0454L516.247 51.5246C517.865 53.3684 518.849 56.2488 518.849 60.5254H521.092H523.334C523.334 55.6286 522.212 51.5224 519.617 48.5661L517.932 50.0454ZM521.092 60.5254H518.849C518.849 64.8019 517.865 67.6824 516.247 69.5261L517.932 71.0054L519.617 72.4846C522.212 69.5284 523.334 65.4222 523.334 60.5254H521.092ZM517.932 71.0054L516.247 69.5261C514.672 71.3198 512.294 72.363 508.732 72.363V74.6054V76.8477C513.223 76.8477 516.978 75.4909 519.617 72.4846L517.932 71.0054ZM508.732 68.5254V70.7677C510.976 70.7677 512.925 69.8435 514.052 67.8144L512.092 66.7254L510.132 65.6364C509.926 66.0073 509.634 66.283 508.732 66.283V68.5254ZM512.092 66.7254L514.062 67.7961C515.015 66.0421 515.334 63.4838 515.334 60.5254H513.092H510.849C510.849 63.3802 510.502 64.9553 510.122 65.6546L512.092 66.7254ZM513.092 60.5254H515.334C515.334 57.5743 515.018 55.0145 514.052 53.2764L512.092 54.3654L510.132 55.4543C510.499 56.1162 510.849 57.6631 510.849 60.5254H513.092ZM512.092 54.3654L514.062 53.2946C512.946 51.2407 511 50.283 508.732 50.283V52.5254V54.7677C509.61 54.7677 509.905 55.0367 510.122 55.4361L512.092 54.3654ZM508.732 52.5254V50.283C506.464 50.283 504.518 51.2407 503.402 53.2946L505.372 54.3654L507.342 55.4361C507.559 55.0367 507.853 54.7677 508.732 54.7677V52.5254ZM505.372 54.3654L503.412 53.2764C502.446 55.0145 502.129 57.5743 502.129 60.5254H504.372H506.614C506.614 57.6631 506.964 56.1162 507.332 55.4543L505.372 54.3654ZM504.372 60.5254H502.129C502.129 63.4838 502.448 66.0421 503.402 67.7961L505.372 66.7254L507.342 65.6546C506.962 64.9553 506.614 63.3802 506.614 60.5254H504.372ZM505.372 66.7254L503.412 67.8144C504.539 69.8435 506.488 70.7677 508.732 70.7677V68.5254V66.283C507.829 66.283 507.538 66.0073 507.332 65.6364L505.372 66.7254ZM524.74 74.0054H522.497V76.2477H524.74V74.0054ZM524.74 47.0454V44.803H522.497V47.0454H524.74ZM532.74 47.0454L534.734 46.0199L534.108 44.803H532.74V47.0454ZM541.42 63.9254L539.425 64.9508L543.662 63.9254H541.42ZM541.42 47.0454V44.803H539.177V47.0454H541.42ZM548.1 47.0454H550.342V44.803H548.1V47.0454ZM548.1 74.0054V76.2477H550.342V74.0054H548.1ZM540.1 74.0054L538.105 75.0308L538.731 76.2477H540.1V74.0054ZM531.42 57.1254L533.414 56.0999L529.177 57.1254H531.42ZM531.42 74.0054V76.2477H533.662V74.0054H531.42ZM524.74 74.0054H526.982V47.0454H524.74H522.497V74.0054H524.74ZM524.74 47.0454V49.2877H532.74V47.0454V44.803H524.74V47.0454ZM532.74 47.0454L530.745 48.0708L539.425 64.9508L541.42 63.9254L543.414 62.8999L534.734 46.0199L532.74 47.0454ZM541.42 63.9254H543.662V47.0454H541.42H539.177V63.9254H541.42ZM541.42 47.0454V49.2877H548.1V47.0454V44.803H541.42V47.0454ZM548.1 47.0454H545.857V74.0054H548.1H550.342V47.0454H548.1ZM548.1 74.0054V71.763H540.1V74.0054V76.2477H548.1V74.0054ZM540.1 74.0054L542.094 72.9799L533.414 56.0999L531.42 57.1254L529.425 58.1508L538.105 75.0308L540.1 74.0054ZM531.42 57.1254H529.177V74.0054H531.42H533.662V57.1254H531.42ZM531.42 74.0054V71.763H524.74V74.0054V76.2477H531.42V74.0054ZM552.885 74.0054H550.643V76.2477H552.885V74.0054ZM552.885 47.0454V44.803H550.643V47.0454H552.885ZM570.965 47.0454H573.207V44.803H570.965V47.0454ZM570.965 52.8854V55.1277H573.207V52.8854H570.965ZM560.285 52.8854V50.643H558.043V52.8854H560.285ZM560.285 57.4454H558.043V59.6877H560.285V57.4454ZM568.925 57.4454H571.167V55.203H568.925V57.4454ZM568.925 63.2854V65.5277H571.167V63.2854H568.925ZM560.285 63.2854V61.043H558.043V63.2854H560.285ZM560.285 68.1654H558.043V70.4077H560.285V68.1654ZM571.125 68.1654H573.367V65.923H571.125V68.1654ZM571.125 74.0054V76.2477H573.367V74.0054H571.125ZM552.885 74.0054H555.127V47.0454H552.885H550.643V74.0054H552.885ZM552.885 47.0454V49.2877H570.965V47.0454V44.803H552.885V47.0454ZM570.965 47.0454H568.723V52.8854H570.965H573.207V47.0454H570.965ZM570.965 52.8854V50.643H560.285V52.8854V55.1277H570.965V52.8854ZM560.285 52.8854H558.043V57.4454H560.285H562.527V52.8854H560.285ZM560.285 57.4454V59.6877H568.925V57.4454V55.203H560.285V57.4454ZM568.925 57.4454H566.683V63.2854H568.925H571.167V57.4454H568.925ZM568.925 63.2854V61.043H560.285V63.2854V65.5277H568.925V63.2854ZM560.285 63.2854H558.043V68.1654H560.285H562.527V63.2854H560.285ZM560.285 68.1654V70.4077H571.125V68.1654V65.923H560.285V68.1654ZM571.125 68.1654H568.883V74.0054H571.125H573.367V68.1654H571.125ZM571.125 74.0054V71.763H552.885V74.0054V76.2477H571.125V74.0054Z" fill="#3B3B3B" mask="url(#path-5-outside-1_642_9657)"/>
</g>
<defs>
<filter id="filter0_d_642_9657" x="0.795593" y="0.792969" width="856.327" height="150.042" filterUnits="userSpaceOnUse" color-interpolation-filters="sRGB">
<feFlood flood-opacity="0" result="BackgroundImageFix"/>
<feColorMatrix in="SourceAlpha" type="matrix" values="0 0 0 0 0 0 0 0 0 0 0 0 0 0 0 0 0 0 127 0" result="hardAlpha"/>
<feOffset dy="8.82814"/>
<feComposite in2="hardAlpha" operator="out"/>
<feColorMatrix type="matrix" values="0 0 0 0 0 0 0 0 0 0 0 0 0 0 0 0 0 0 0.25 0"/>
<feBlend mode="normal" in2="BackgroundImageFix" result="effect1_dropShadow_642_9657"/>
<feBlend mode="normal" in="SourceGraphic" in2="effect1_dropShadow_642_9657" result="shape"/>
</filter>
<filter id="filter1_ddd_642_9657" x="280.496" y="42.5214" width="298.477" height="43.8563" filterUnits="userSpaceOnUse" color-interpolation-filters="sRGB">
<feFlood flood-opacity="0" result="BackgroundImageFix"/>
<feColorMatrix in="SourceAlpha" type="matrix" values="0 0 0 0 0 0 0 0 0 0 0 0 0 0 0 0 0 0 127 0" result="hardAlpha"/>
<feOffset dy="2.20703"/>
<feComposite in2="hardAlpha" operator="out"/>
<feColorMatrix type="matrix" values="0 0 0 0 0 0 0 0 0 0 0 0 0 0 0 0 0 0 1 0"/>
<feBlend mode="normal" in2="BackgroundImageFix" result="effect1_dropShadow_642_9657"/>
<feColorMatrix in="SourceAlpha" type="matrix" values="0 0 0 0 0 0 0 0 0 0 0 0 0 0 0 0 0 0 127 0" result="hardAlpha"/>
<feOffset dy="2.20703"/>
<feComposite in2="hardAlpha" operator="out"/>
<feColorMatrix type="matrix" values="0 0 0 0 0 0 0 0 0 0 0 0 0 0 0 0 0 0 1 0"/>
<feBlend mode="normal" in2="effect1_dropShadow_642_9657" result="effect2_dropShadow_642_9657"/>
<feColorMatrix in="SourceAlpha" type="matrix" values="0 0 0 0 0 0 0 0 0 0 0 0 0 0 0 0 0 0 127 0" result="hardAlpha"/>
<feOffset dy="3.92411"/>
<feGaussianBlur stdDeviation="2.80293"/>
<feComposite in2="hardAlpha" operator="out"/>
<feColorMatrix type="matrix" values="0 0 0 0 0 0 0 0 0 0 0 0 0 0 0 0 0 0 0.8 0"/>
<feBlend mode="normal" in2="effect2_dropShadow_642_9657" result="effect3_dropShadow_642_9657"/>
<feBlend mode="normal" in="SourceGraphic" in2="effect3_dropShadow_642_9657" result="shape"/>
</filter>
<linearGradient id="paint0_linear_642_9657" x1="3.02118" y1="59.7657" x2="854.895" y2="59.7656" gradientUnits="userSpaceOnUse">
<stop stop-color="#4B42A2"/>
<stop offset="0.475" stop-color="#8383FF"/>
<stop offset="1" stop-color="#4C43A3"/>
</linearGradient>
<radialGradient id="paint1_radial_642_9657" cx="0" cy="0" r="1" gradientUnits="userSpaceOnUse" gradientTransform="translate(428.958 82.9641) rotate(-90) scale(95.1863 2485.74)">
<stop offset="0.431628" stop-color="white" stop-opacity="0.26"/>
<stop offset="1" stop-color="white"/>
</radialGradient>
</defs>
</svg>
