<svg width="219" height="489" viewBox="0 0 219 489" fill="none" xmlns="http://www.w3.org/2000/svg">
<g style="mix-blend-mode:multiply" opacity="0.5">
<path d="M219.751 415.661C220.356 416.495 221.478 416.748 222.256 416.183C223.035 415.618 223.158 414.495 222.536 413.639C221.914 412.782 220.808 412.552 220.03 413.117C219.252 413.682 219.128 414.804 219.751 415.661Z" fill="#A0D591"/>
<path d="M218.623 429.394C219.065 430.002 219.859 430.149 220.392 429.762C220.924 429.375 221.014 428.552 220.589 427.966C220.163 427.38 219.352 427.211 218.82 427.598C218.287 427.984 218.197 428.807 218.623 429.394Z" fill="#A0D591"/>
<path d="M217.454 443.12C217.716 443.481 218.195 443.58 218.522 443.342C218.85 443.105 218.903 442.618 218.642 442.257C218.38 441.897 217.901 441.797 217.573 442.035C217.245 442.273 217.192 442.759 217.454 443.12Z" fill="#A0D591"/>
<path d="M215.934 457.136C216.196 457.497 216.675 457.597 217.003 457.359C217.33 457.121 217.384 456.635 217.122 456.274C216.86 455.913 216.381 455.813 216.053 456.051C215.725 456.289 215.672 456.776 215.934 457.136Z" fill="#A0D591"/>
<path d="M214.788 470.848C214.878 470.973 215.043 471.007 215.156 470.925C215.269 470.843 215.288 470.675 215.197 470.551C215.107 470.426 214.942 470.392 214.829 470.474C214.716 470.556 214.697 470.724 214.788 470.848Z" fill="#A0D591"/>
<path d="M219.935 273.69C221.156 275.371 223.383 275.835 224.91 274.726C226.437 273.617 226.685 271.356 225.464 269.675C224.243 267.994 222.016 267.53 220.489 268.638C218.962 269.747 218.714 272.009 219.935 273.69Z" fill="#A0D591"/>
<path d="M218.704 287.497C219.784 288.985 221.774 289.4 223.126 288.418C224.477 287.437 224.699 285.416 223.618 283.928C222.538 282.44 220.548 282.026 219.196 283.007C217.845 283.989 217.623 286.009 218.704 287.497Z" fill="#A0D591"/>
<path d="M216.982 301.625C218.144 303.226 220.282 303.671 221.736 302.615C223.19 301.56 223.428 299.389 222.265 297.789C221.103 296.188 218.966 295.743 217.512 296.798C216.058 297.854 215.819 300.024 216.982 301.625Z" fill="#A0D591"/>
<path d="M215.646 315.508C216.727 316.996 218.717 317.41 220.069 316.429C221.42 315.448 221.642 313.427 220.561 311.939C219.481 310.451 217.491 310.036 216.139 311.018C214.788 311.999 214.566 314.02 215.646 315.508Z" fill="#A0D591"/>
<path d="M214.459 329.249C215.393 330.534 217.088 330.887 218.255 330.04C219.422 329.192 219.611 327.471 218.678 326.186C217.745 324.9 216.05 324.547 214.882 325.395C213.715 326.243 213.526 327.964 214.459 329.249Z" fill="#A0D591"/>
<path d="M212.797 343.368C213.78 344.721 215.585 345.097 216.814 344.205C218.043 343.313 218.244 341.479 217.262 340.127C216.279 338.774 214.474 338.398 213.245 339.29C212.016 340.182 211.815 342.015 212.797 343.368Z" fill="#A0D591"/>
<path d="M211.527 357.17C212.394 358.365 213.963 358.673 215.028 357.9C216.092 357.126 216.269 355.517 215.418 354.345C214.566 353.172 212.982 352.842 211.917 353.616C210.852 354.389 210.675 355.998 211.527 357.17Z" fill="#A0D591"/>
<path d="M210.294 370.978C211.026 371.987 212.362 372.265 213.278 371.6C214.195 370.935 214.343 369.578 213.611 368.569C212.879 367.561 211.542 367.282 210.626 367.948C209.71 368.613 209.561 369.97 210.294 370.978Z" fill="#A0D591"/>
<path d="M209.148 384.69C209.704 385.457 210.736 385.672 211.432 385.166C212.129 384.66 212.244 383.613 211.687 382.846C211.13 382.08 210.098 381.865 209.402 382.37C208.706 382.876 208.591 383.923 209.148 384.69Z" fill="#A0D591"/>
<path d="M207.509 398.758C208.099 399.569 209.204 399.8 209.941 399.264C210.679 398.729 210.802 397.606 210.212 396.795C209.623 395.983 208.517 395.753 207.78 396.288C207.043 396.823 206.92 397.946 207.509 398.758Z" fill="#A0D591"/>
<path d="M206.36 412.506C206.802 413.115 207.596 413.261 208.129 412.874C208.661 412.488 208.751 411.665 208.326 411.078C207.9 410.492 207.089 410.323 206.557 410.71C206.024 411.096 205.934 411.92 206.36 412.506Z" fill="#A0D591"/>
<path d="M205.191 426.233C205.453 426.594 205.932 426.694 206.26 426.456C206.588 426.218 206.641 425.731 206.379 425.371C206.117 425.01 205.638 424.91 205.31 425.148C204.983 425.386 204.929 425.872 205.191 426.233Z" fill="#A0D591"/>
<path d="M203.672 440.251C203.934 440.611 204.413 440.711 204.74 440.473C205.068 440.235 205.121 439.749 204.86 439.388C204.598 439.027 204.119 438.928 203.791 439.166C203.463 439.404 203.41 439.89 203.672 440.251Z" fill="#A0D591"/>
<path d="M202.525 453.961C202.616 454.086 202.781 454.12 202.894 454.038C203.007 453.956 203.025 453.788 202.935 453.664C202.844 453.539 202.679 453.505 202.566 453.587C202.453 453.669 202.435 453.837 202.525 453.961Z" fill="#A0D591"/>
<path d="M220.442 144.397C221.464 145.804 223.328 146.192 224.606 145.264C225.884 144.336 226.092 142.443 225.07 141.036C224.049 139.629 222.184 139.241 220.906 140.169C219.628 141.097 219.42 142.99 220.442 144.397Z" fill="#A0D591"/>
<path d="M219.064 158.309C220.014 159.617 221.762 160 222.97 159.123C224.178 158.245 224.371 156.487 223.405 155.157C222.439 153.826 220.707 153.466 219.499 154.343C218.291 155.22 218.098 156.979 219.064 158.309Z" fill="#A0D591"/>
<path d="M217.387 172.406C218.4 173.801 220.248 174.185 221.514 173.266C222.781 172.346 222.987 170.47 221.974 169.075C220.962 167.68 219.114 167.295 217.847 168.215C216.58 169.135 216.374 171.011 217.387 172.406Z" fill="#A0D591"/>
<path d="M215.543 186.625C216.689 188.204 218.774 188.619 220.187 187.592C221.6 186.566 221.834 184.434 220.704 182.878C219.574 181.322 217.474 180.885 216.061 181.911C214.648 182.937 214.414 185.07 215.543 186.625Z" fill="#A0D591"/>
<path d="M214.23 200.492C215.278 201.935 217.194 202.334 218.504 201.382C219.815 200.431 220.029 198.485 218.981 197.042C217.933 195.599 216.017 195.2 214.706 196.152C213.395 197.103 213.182 199.049 214.23 200.492Z" fill="#A0D591"/>
<path d="M212.633 214.531C213.709 216.013 215.672 216.422 217.018 215.444C218.364 214.467 218.582 212.473 217.506 210.992C216.43 209.51 214.467 209.101 213.121 210.078C211.775 211.055 211.557 213.049 212.633 214.531Z" fill="#A0D591"/>
<path d="M210.867 228.725C212.046 230.348 214.22 230.801 215.694 229.73C217.169 228.66 217.411 226.452 216.232 224.829C215.053 223.205 212.879 222.753 211.405 223.823C209.93 224.894 209.688 227.101 210.867 228.725Z" fill="#A0D591"/>
<path d="M209.353 242.704C210.519 244.31 212.648 244.754 214.107 243.694C215.566 242.635 215.803 240.474 214.636 238.867C213.47 237.261 211.342 236.818 209.883 237.877C208.424 238.937 208.187 241.098 209.353 242.704Z" fill="#A0D591"/>
<path d="M208.12 256.511C209.151 257.931 211.047 258.346 212.357 257.394C213.668 256.442 213.877 254.534 212.83 253.091C211.782 251.648 209.902 251.256 208.592 252.208C207.281 253.16 207.072 255.068 208.12 256.511Z" fill="#A0D591"/>
<path d="M206.624 270.475C207.637 271.87 209.484 272.255 210.751 271.335C212.018 270.415 212.224 268.539 211.211 267.144C210.198 265.75 208.351 265.365 207.084 266.285C205.817 267.204 205.611 269.081 206.624 270.475Z" fill="#A0D591"/>
<path d="M204.904 284.604C205.985 286.092 207.975 286.506 209.326 285.525C210.678 284.543 210.9 282.523 209.819 281.035C208.739 279.547 206.749 279.132 205.397 280.114C204.046 281.095 203.824 283.115 204.904 284.604Z" fill="#A0D591"/>
<path d="M203.672 298.413C204.622 299.72 206.37 300.104 207.578 299.226C208.787 298.349 208.98 296.59 208.014 295.26C207.048 293.93 205.316 293.569 204.108 294.446C202.899 295.324 202.706 297.082 203.672 298.413Z" fill="#A0D591"/>
<path d="M202.339 312.257C203.207 313.452 204.775 313.76 205.84 312.986C206.905 312.213 207.082 310.604 206.23 309.432C205.379 308.259 203.794 307.929 202.73 308.703C201.665 309.476 201.488 311.085 202.339 312.257Z" fill="#A0D591"/>
<path d="M200.657 326.393C201.59 327.679 203.285 328.032 204.452 327.184C205.62 326.336 205.808 324.615 204.875 323.33C203.942 322.045 202.247 321.692 201.08 322.539C199.912 323.387 199.724 325.108 200.657 326.393Z" fill="#A0D591"/>
<path d="M199.489 340.119C200.258 341.179 201.659 341.471 202.621 340.772C203.584 340.073 203.74 338.651 202.97 337.591C202.201 336.532 200.8 336.24 199.838 336.939C198.875 337.638 198.719 339.06 199.489 340.119Z" fill="#A0D591"/>
<path d="M198.195 353.972C198.855 354.881 200.059 355.132 200.885 354.533C201.71 353.933 201.844 352.71 201.184 351.801C200.524 350.892 199.32 350.641 198.494 351.241C197.669 351.84 197.535 353.063 198.195 353.972Z" fill="#A0D591"/>
<path d="M196.925 367.773C197.467 368.52 198.457 368.726 199.136 368.234C199.814 367.741 199.925 366.736 199.382 365.989C198.84 365.241 197.85 365.035 197.171 365.528C196.493 366.021 196.382 367.026 196.925 367.773Z" fill="#A0D591"/>
<path d="M195.346 381.834C195.906 382.606 196.929 382.819 197.63 382.31C198.332 381.8 198.446 380.762 197.885 379.99C197.324 379.218 196.301 379.005 195.6 379.514C194.899 380.023 194.785 381.062 195.346 381.834Z" fill="#A0D591"/>
<path d="M194.197 395.546C194.59 396.087 195.29 396.233 195.782 395.876C196.273 395.519 196.351 394.808 195.958 394.267C195.565 393.726 194.865 393.58 194.374 393.937C193.882 394.294 193.804 395.005 194.197 395.546Z" fill="#A0D591"/>
<path d="M192.928 409.345C193.19 409.706 193.669 409.806 193.997 409.568C194.325 409.33 194.378 408.844 194.116 408.483C193.854 408.122 193.375 408.022 193.047 408.26C192.72 408.498 192.666 408.985 192.928 409.345Z" fill="#A0D591"/>
<path d="M191.409 423.362C191.671 423.723 192.15 423.823 192.478 423.585C192.805 423.347 192.859 422.86 192.597 422.5C192.335 422.139 191.856 422.039 191.528 422.277C191.201 422.515 191.147 423.001 191.409 423.362Z" fill="#A0D591"/>
<path d="M190.262 437.074C190.353 437.198 190.518 437.233 190.631 437.15C190.744 437.068 190.762 436.901 190.672 436.776C190.582 436.652 190.417 436.617 190.304 436.699C190.19 436.782 190.172 436.949 190.262 437.074Z" fill="#A0D591"/>
<path d="M219.123 42.2224C219.386 42.5835 219.864 42.6832 220.192 42.445C220.52 42.2068 220.573 41.721 220.311 41.3599C220.049 40.9988 219.571 40.8991 219.243 41.1373C218.915 41.3755 218.861 41.8613 219.123 42.2224Z" fill="#A0D591"/>
<path d="M217.299 56.4261C217.692 56.9672 218.392 57.113 218.884 56.7562C219.375 56.3993 219.453 55.6883 219.06 55.1472C218.668 54.6061 217.967 54.4603 217.476 54.8172C216.984 55.174 216.906 55.885 217.299 56.4261Z" fill="#A0D591"/>
<path d="M215.765 70.4175C216.158 70.9587 216.858 71.1045 217.349 70.7476C217.841 70.3907 217.919 69.6798 217.526 69.1387C217.133 68.5976 216.433 68.4517 215.941 68.8086C215.45 69.1655 215.372 69.8764 215.765 70.4175Z" fill="#A0D591"/>
<path d="M213.896 84.6876C214.42 85.4091 215.394 85.6312 216.07 85.1405C216.746 84.6498 216.852 83.6769 216.312 82.9329C215.772 82.1889 214.814 81.9893 214.138 82.48C213.462 82.9707 213.355 83.9436 213.896 84.6876Z" fill="#A0D591"/>
<path d="M212.156 98.8295C212.778 99.6863 213.921 99.9242 214.699 99.3591C215.477 98.7941 215.604 97.6342 214.982 96.7774C214.36 95.9206 213.218 95.6827 212.44 96.2477C211.661 96.8128 211.534 97.9727 212.156 98.8295Z" fill="#A0D591"/>
<path d="M210.74 112.771C211.313 113.561 212.345 113.775 213.062 113.255C213.779 112.735 213.894 111.687 213.32 110.898C212.747 110.109 211.716 109.894 210.999 110.414C210.282 110.935 210.167 111.982 210.74 112.771Z" fill="#A0D591"/>
<path d="M208.834 127.035C209.567 128.044 210.903 128.322 211.819 127.657C212.735 126.992 212.884 125.635 212.152 124.626C211.419 123.617 210.083 123.339 209.167 124.004C208.251 124.67 208.102 126.026 208.834 127.035Z" fill="#A0D591"/>
<path d="M207.152 141.17C207.954 142.274 209.391 142.574 210.395 141.845C211.398 141.116 211.558 139.657 210.756 138.552C209.954 137.448 208.517 137.148 207.513 137.877C206.51 138.606 206.35 140.065 207.152 141.17Z" fill="#A0D591"/>
<path d="M205.411 155.311C206.297 156.531 207.914 156.868 209.022 156.063C210.131 155.258 210.311 153.616 209.425 152.396C208.539 151.176 206.922 150.839 205.813 151.644C204.705 152.449 204.525 154.09 205.411 155.311Z" fill="#A0D591"/>
<path d="M203.872 169.342C204.756 170.56 206.377 170.897 207.483 170.094C208.589 169.291 208.77 167.645 207.886 166.427C207.002 165.21 205.38 164.872 204.274 165.675C203.169 166.478 202.988 168.125 203.872 169.342Z" fill="#A0D591"/>
<path d="M202.272 183.381C203.189 184.643 204.847 184.989 205.994 184.156C207.141 183.323 207.326 181.639 206.409 180.377C205.492 179.114 203.834 178.769 202.687 179.602C201.54 180.434 201.355 182.118 202.272 183.381Z" fill="#A0D591"/>
<path d="M200.636 197.451C201.585 198.758 203.334 199.142 204.542 198.264C205.75 197.387 205.943 195.628 204.977 194.298C204.011 192.968 202.279 192.607 201.071 193.484C199.863 194.362 199.67 196.12 200.636 197.451Z" fill="#A0D591"/>
<path d="M199.096 211.482C200.046 212.789 201.794 213.173 203.003 212.295C204.211 211.418 204.404 209.659 203.438 208.329C202.472 206.999 200.74 206.638 199.532 207.516C198.323 208.393 198.13 210.152 199.096 211.482Z" fill="#A0D591"/>
<path d="M197.56 225.475C198.509 226.783 200.258 227.166 201.466 226.289C202.674 225.411 202.867 223.653 201.901 222.323C200.935 220.992 199.203 220.632 197.995 221.509C196.787 222.386 196.594 224.145 197.56 225.475Z" fill="#A0D591"/>
<path d="M196.039 239.492C196.989 240.799 198.737 241.183 199.945 240.305C201.153 239.428 201.346 237.669 200.38 236.339C199.415 235.009 197.683 234.648 196.474 235.525C195.266 236.403 195.073 238.161 196.039 239.492Z" fill="#A0D591"/>
<path d="M194.586 253.426C195.5 254.684 197.166 255.031 198.308 254.202C199.45 253.372 199.636 251.68 198.723 250.423C197.81 249.165 196.143 248.818 195.001 249.647C193.859 250.477 193.673 252.169 194.586 253.426Z" fill="#A0D591"/>
<path d="M193.046 267.457C193.959 268.714 195.626 269.061 196.768 268.232C197.91 267.402 198.096 265.711 197.183 264.453C196.27 263.195 194.603 262.848 193.461 263.678C192.319 264.507 192.133 266.199 193.046 267.457Z" fill="#A0D591"/>
<path d="M191.633 281.362C192.5 282.557 194.069 282.864 195.133 282.091C196.198 281.318 196.375 279.709 195.524 278.536C194.672 277.364 193.088 277.034 192.023 277.807C190.958 278.58 190.781 280.189 191.633 281.362Z" fill="#A0D591"/>
<path d="M190.22 295.266C191.022 296.371 192.459 296.67 193.463 295.942C194.466 295.213 194.626 293.754 193.824 292.649C193.022 291.544 191.585 291.245 190.581 291.974C189.578 292.702 189.418 294.162 190.22 295.266Z" fill="#A0D591"/>
<path d="M188.702 309.282C189.504 310.386 190.942 310.686 191.945 309.957C192.949 309.228 193.109 307.769 192.306 306.664C191.504 305.56 190.067 305.26 189.064 305.989C188.06 306.718 187.9 308.177 188.702 309.282Z" fill="#A0D591"/>
<path d="M187.328 323.158C188.049 324.15 189.338 324.419 190.239 323.764C191.141 323.11 191.284 321.801 190.564 320.809C189.844 319.816 188.554 319.548 187.653 320.202C186.752 320.856 186.608 322.166 187.328 323.158Z" fill="#A0D591"/>
<path d="M186.015 337.026C186.637 337.883 187.779 338.121 188.557 337.555C189.335 336.99 189.463 335.83 188.841 334.974C188.218 334.117 187.076 333.879 186.298 334.444C185.52 335.009 185.392 336.169 186.015 337.026Z" fill="#A0D591"/>
<path d="M184.869 350.737C185.327 351.369 186.138 351.537 186.711 351.121C187.285 350.705 187.375 349.882 186.917 349.25C186.458 348.619 185.647 348.45 185.074 348.866C184.501 349.283 184.41 350.106 184.869 350.737Z" fill="#A0D591"/>
<path d="M183.205 364.858C183.711 365.555 184.635 365.748 185.268 365.288C185.902 364.828 186.005 363.89 185.498 363.192C184.992 362.495 184.068 362.303 183.435 362.762C182.801 363.222 182.698 364.16 183.205 364.858Z" fill="#A0D591"/>
<path d="M181.935 378.658C182.327 379.2 183.028 379.345 183.519 378.989C184.011 378.632 184.089 377.921 183.696 377.38C183.303 376.839 182.603 376.693 182.111 377.05C181.62 377.406 181.542 378.117 181.935 378.658Z" fill="#A0D591"/>
<path d="M180.783 392.407C181.013 392.722 181.418 392.807 181.705 392.599C181.991 392.391 182.036 391.979 181.807 391.663C181.578 391.348 181.173 391.263 180.886 391.471C180.599 391.68 180.554 392.091 180.783 392.407Z" fill="#A0D591"/>
<path d="M179.228 406.417C179.457 406.732 179.862 406.817 180.149 406.608C180.436 406.4 180.481 405.989 180.252 405.673C180.022 405.357 179.617 405.273 179.33 405.481C179.044 405.689 178.998 406.101 179.228 406.417Z" fill="#A0D591"/>
<path d="M177.98 420.2C178.078 420.335 178.246 420.351 178.349 420.276C178.451 420.202 178.472 420.015 178.39 419.902C178.308 419.79 178.124 419.751 178.021 419.825C177.919 419.9 177.898 420.087 177.98 420.2Z" fill="#A0D591"/>
<path d="M207.248 25.0512C207.347 25.1865 207.514 25.2023 207.617 25.128C207.719 25.0536 207.74 24.8665 207.658 24.7538C207.576 24.641 207.392 24.6027 207.289 24.677C207.187 24.7514 207.166 24.9385 207.248 25.0512Z" fill="#A0D591"/>
<path d="M205.794 38.9884C205.794 38.9884 205.955 39.0796 206.016 39.0349C206.078 38.9902 206.09 38.8776 206.041 38.8097C205.991 38.7418 205.88 38.7185 205.819 38.7632C205.757 38.8079 205.745 38.9205 205.794 38.9884Z" fill="#A0D591"/>
<path d="M203.886 53.2867C204.115 53.6023 204.52 53.6868 204.807 53.4786C205.094 53.2704 205.139 52.8588 204.91 52.5432C204.681 52.2275 204.275 52.1431 203.989 52.3512C203.702 52.5594 203.657 52.971 203.886 53.2867Z" fill="#A0D591"/>
<path d="M202.064 67.4881C202.408 67.9616 203.034 68.0921 203.464 67.7798C203.894 67.4675 203.964 66.8315 203.62 66.358C203.277 65.8845 202.65 65.754 202.22 66.0663C201.79 66.3786 201.72 67.0146 202.064 67.4881Z" fill="#A0D591"/>
<path d="M200.631 81.4076C200.925 81.8134 201.441 81.9209 201.81 81.6532C202.179 81.3855 202.236 80.8617 201.941 80.4559C201.647 80.05 201.131 79.9426 200.762 80.2102C200.394 80.4779 200.336 81.0017 200.631 81.4076Z" fill="#A0D591"/>
<path d="M198.866 95.6034C199.264 96.1513 199.99 96.3025 200.487 95.9411C200.985 95.5798 201.066 94.8427 200.668 94.2948C200.27 93.7469 199.544 93.5957 199.047 93.957C198.549 94.3184 198.468 95.0555 198.866 95.6034Z" fill="#A0D591"/>
<path d="M196.941 109.878C197.511 110.663 198.55 110.879 199.263 110.362C199.975 109.844 200.091 108.789 199.522 108.004C198.952 107.22 197.913 107.003 197.2 107.521C196.488 108.038 196.372 109.094 196.941 109.878Z" fill="#A0D591"/>
<path d="M195.564 123.79C196.071 124.489 196.992 124.681 197.627 124.22C198.262 123.759 198.365 122.824 197.857 122.125C197.35 121.426 196.428 121.234 195.794 121.695C195.159 122.156 195.056 123.091 195.564 123.79Z" fill="#A0D591"/>
<path d="M193.865 137.904C194.434 138.689 195.474 138.905 196.186 138.388C196.899 137.871 197.015 136.815 196.445 136.031C195.875 135.246 194.836 135.03 194.123 135.547C193.411 136.065 193.295 137.12 193.865 137.904Z" fill="#A0D591"/>
<path d="M191.977 152.187C192.71 153.196 194.046 153.474 194.962 152.809C195.878 152.144 196.027 150.787 195.295 149.778C194.562 148.77 193.226 148.491 192.31 149.157C191.394 149.822 191.245 151.179 191.977 152.187Z" fill="#A0D591"/>
<path d="M190.298 166.286C191.084 167.369 192.521 167.668 193.504 166.954C194.487 166.24 194.647 164.781 193.861 163.699C193.075 162.617 191.638 162.317 190.655 163.031C189.672 163.745 189.512 165.204 190.298 166.286Z" fill="#A0D591"/>
<path d="M189.023 180.124C189.694 181.048 190.947 181.309 191.787 180.699C192.626 180.09 192.766 178.818 192.095 177.893C191.423 176.969 190.17 176.708 189.331 177.317C188.491 177.927 188.352 179.199 189.023 180.124Z" fill="#A0D591"/>
<path d="M187.139 194.37C187.958 195.498 189.469 195.812 190.493 195.069C191.517 194.325 191.685 192.791 190.867 191.664C190.048 190.537 188.537 190.222 187.513 190.966C186.489 191.709 186.321 193.243 187.139 194.37Z" fill="#A0D591"/>
<path d="M185.563 208.394C186.404 209.552 187.939 209.871 188.991 209.108C190.042 208.344 190.213 206.786 189.372 205.628C188.532 204.47 186.997 204.15 185.945 204.914C184.894 205.678 184.723 207.236 185.563 208.394Z" fill="#A0D591"/>
<path d="M184.289 222.234C185.026 223.248 186.352 223.524 187.274 222.855C188.195 222.186 188.343 220.839 187.606 219.825C186.87 218.81 185.543 218.534 184.622 219.203C183.7 219.872 183.552 221.219 184.289 222.234Z" fill="#A0D591"/>
<path d="M182.774 236.211C183.495 237.203 184.805 237.456 185.686 236.817C186.566 236.178 186.73 234.853 186.01 233.861C185.29 232.869 184 232.6 183.099 233.255C182.198 233.909 182.054 235.219 182.774 236.211Z" fill="#A0D591"/>
<path d="M180.989 250.42C181.812 251.553 183.314 251.866 184.343 251.119C185.372 250.371 185.539 248.847 184.716 247.714C183.894 246.581 182.392 246.268 181.363 247.015C180.334 247.763 180.167 249.287 180.989 250.42Z" fill="#A0D591"/>
<path d="M179.577 264.325C180.346 265.385 181.747 265.677 182.709 264.978C183.672 264.279 183.828 262.857 183.058 261.797C182.289 260.738 180.888 260.446 179.926 261.145C178.963 261.844 178.807 263.266 179.577 264.325Z" fill="#A0D591"/>
<path d="M178.323 278.148C178.978 279.05 180.157 279.296 180.976 278.701C181.796 278.106 181.927 276.909 181.272 276.007C180.617 275.105 179.438 274.86 178.619 275.454C177.8 276.049 177.668 277.247 178.323 278.148Z" fill="#A0D591"/>
<path d="M176.582 292.291C177.314 293.3 178.651 293.578 179.567 292.913C180.483 292.247 180.632 290.891 179.899 289.882C179.167 288.873 177.831 288.595 176.914 289.26C175.998 289.925 175.849 291.282 176.582 292.291Z" fill="#A0D591"/>
<path d="M175.231 306.151C175.886 307.053 177.065 307.299 177.885 306.704C178.704 306.109 178.835 304.912 178.18 304.01C177.525 303.108 176.346 302.863 175.527 303.457C174.708 304.052 174.576 305.25 175.231 306.151Z" fill="#A0D591"/>
<path d="M174.018 319.945C174.526 320.644 175.447 320.836 176.082 320.375C176.717 319.914 176.819 318.978 176.312 318.279C175.804 317.581 174.883 317.389 174.248 317.85C173.613 318.311 173.511 319.246 174.018 319.945Z" fill="#A0D591"/>
<path d="M172.747 333.745C173.14 334.287 173.84 334.432 174.332 334.075C174.823 333.719 174.901 333.008 174.508 332.467C174.115 331.925 173.415 331.78 172.924 332.136C172.432 332.493 172.354 333.204 172.747 333.745Z" fill="#A0D591"/>
<path d="M171.066 347.88C171.524 348.512 172.335 348.68 172.908 348.264C173.482 347.848 173.572 347.024 173.114 346.393C172.655 345.762 171.844 345.593 171.271 346.009C170.698 346.426 170.607 347.249 171.066 347.88Z" fill="#A0D591"/>
<path d="M169.92 361.592C170.198 361.975 170.714 362.082 171.062 361.83C171.41 361.577 171.468 361.053 171.189 360.67C170.911 360.286 170.395 360.179 170.047 360.432C169.699 360.684 169.641 361.208 169.92 361.592Z" fill="#A0D591"/>
<path d="M168.666 375.415C168.83 375.64 169.125 375.702 169.33 375.553C169.534 375.404 169.567 375.105 169.404 374.879C169.24 374.654 168.945 374.592 168.74 374.741C168.536 374.89 168.503 375.189 168.666 375.415Z" fill="#A0D591"/>
<path d="M167.007 389.499C167.22 389.792 167.609 389.854 167.854 389.675C168.1 389.497 168.145 389.085 167.949 388.814C167.752 388.544 167.347 388.459 167.101 388.638C166.856 388.816 166.81 389.228 167.007 389.499Z" fill="#A0D591"/>
<path d="M165.835 403.263C165.835 403.263 165.995 403.354 166.057 403.309C166.118 403.265 166.131 403.152 166.081 403.084C166.032 403.016 165.921 402.993 165.86 403.038C165.798 403.082 165.786 403.195 165.835 403.263Z" fill="#A0D591"/>
<path d="M192.013 36.1161C192.013 36.1161 192.173 36.2073 192.235 36.1626C192.296 36.1179 192.309 36.0053 192.259 35.9374C192.21 35.8694 192.099 35.8462 192.038 35.8909C191.976 35.9356 191.964 36.0482 192.013 36.1161Z" fill="#A0D591"/>
<path d="M190.561 50.0496C190.561 50.0496 190.577 50.0726 190.598 50.0579C190.618 50.0432 190.618 50.0432 190.601 50.0201C190.584 49.9971 190.584 49.9971 190.564 50.0118C190.544 50.0265 190.544 50.0265 190.561 50.0496Z" fill="#A0D591"/>
<path d="M188.732 64.2906C188.879 64.4935 189.137 64.5472 189.321 64.4134C189.506 64.2796 189.534 64.0176 189.387 63.8147C189.24 63.6118 188.982 63.5581 188.797 63.6919C188.613 63.8257 188.584 64.0877 188.732 64.2906Z" fill="#A0D591"/>
<path d="M186.909 78.4919C187.171 78.853 187.649 78.9527 187.977 78.7145C188.305 78.4764 188.359 77.9905 188.096 77.6294C187.834 77.2683 187.356 77.1687 187.028 77.4068C186.7 77.645 186.646 78.1308 186.909 78.4919Z" fill="#A0D591"/>
<path d="M185.353 92.5017C185.615 92.8624 186.094 92.9622 186.422 92.7243C186.749 92.4864 186.803 91.9999 186.541 91.6392C186.279 91.2785 185.8 91.1787 185.472 91.4166C185.144 91.6545 185.091 92.1409 185.353 92.5017Z" fill="#A0D591"/>
<path d="M183.651 106.651C183.994 107.124 184.621 107.255 185.051 106.943C185.481 106.631 185.551 105.994 185.207 105.521C184.864 105.048 184.237 104.917 183.807 105.229C183.377 105.541 183.307 106.178 183.651 106.651Z" fill="#A0D591"/>
<path d="M181.91 120.791C182.352 121.4 183.147 121.546 183.679 121.159C184.212 120.773 184.302 119.95 183.876 119.363C183.451 118.777 182.64 118.608 182.107 118.995C181.575 119.382 181.485 120.205 181.91 120.791Z" fill="#A0D591"/>
<path d="M180.371 134.823C180.813 135.432 181.608 135.578 182.14 135.192C182.672 134.805 182.763 133.982 182.337 133.396C181.911 132.81 181.101 132.641 180.568 133.027C180.036 133.414 179.946 134.237 180.371 134.823Z" fill="#A0D591"/>
<path d="M178.671 148.937C179.178 149.636 180.099 149.828 180.734 149.367C181.369 148.906 181.472 147.97 180.964 147.271C180.457 146.572 179.535 146.381 178.901 146.842C178.266 147.303 178.163 148.238 178.671 148.937Z" fill="#A0D591"/>
<path d="M177.049 163.028C177.589 163.772 178.584 163.979 179.26 163.488C179.936 162.998 180.047 161.987 179.506 161.243C178.966 160.499 177.971 160.292 177.295 160.783C176.619 161.274 176.509 162.284 177.049 163.028Z" fill="#A0D591"/>
<path d="M175.204 177.246C175.882 178.18 177.12 178.437 177.968 177.821C178.816 177.206 178.954 175.949 178.276 175.015C177.598 174.081 176.36 173.824 175.512 174.439C174.664 175.055 174.526 176.312 175.204 177.246Z" fill="#A0D591"/>
<path d="M173.872 191.128C174.461 191.939 175.567 192.17 176.304 191.634C177.041 191.099 177.164 189.976 176.575 189.165C175.986 188.353 174.88 188.123 174.143 188.658C173.406 189.193 173.282 190.316 173.872 191.128Z" fill="#A0D591"/>
<path d="M172.293 205.151C172.899 205.985 174.021 206.238 174.799 205.673C175.577 205.108 175.7 203.986 175.078 203.129C174.456 202.272 173.35 202.042 172.572 202.607C171.794 203.172 171.671 204.294 172.293 205.151Z" fill="#A0D591"/>
<path d="M170.737 219.161C171.342 219.995 172.464 220.248 173.243 219.683C174.021 219.118 174.144 217.995 173.522 217.139C172.9 216.282 171.794 216.052 171.016 216.617C170.238 217.182 170.115 218.304 170.737 219.161Z" fill="#A0D591"/>
<path d="M169.218 233.177C169.824 234.011 170.946 234.264 171.724 233.699C172.502 233.134 172.626 232.011 172.003 231.154C171.381 230.297 170.276 230.067 169.498 230.632C168.719 231.197 168.596 232.32 169.218 233.177Z" fill="#A0D591"/>
<path d="M167.763 247.112C168.333 247.897 169.372 248.113 170.084 247.596C170.797 247.079 170.913 246.023 170.343 245.239C169.774 244.454 168.734 244.238 168.022 244.755C167.309 245.272 167.193 246.328 167.763 247.112Z" fill="#A0D591"/>
<path d="M166.286 261.096C166.826 261.84 167.821 262.048 168.497 261.557C169.172 261.066 169.283 260.056 168.743 259.312C168.203 258.568 167.208 258.36 166.532 258.851C165.856 259.342 165.745 260.352 166.286 261.096Z" fill="#A0D591"/>
<path d="M164.505 275.27C165.156 276.166 166.343 276.414 167.158 275.822C167.972 275.231 168.104 274.025 167.453 273.128C166.802 272.232 165.615 271.984 164.8 272.576C163.986 273.167 163.854 274.373 164.505 275.27Z" fill="#A0D591"/>
<path d="M163.332 289.035C163.823 289.711 164.708 289.895 165.322 289.449C165.936 289.003 166.035 288.105 165.544 287.429C165.053 286.752 164.168 286.568 163.554 287.014C162.939 287.46 162.841 288.358 163.332 289.035Z" fill="#A0D591"/>
<path d="M161.94 302.923C162.366 303.51 163.14 303.671 163.672 303.284C164.204 302.898 164.291 302.112 163.865 301.526C163.439 300.939 162.665 300.778 162.133 301.165C161.601 301.551 161.514 302.337 161.94 302.923Z" fill="#A0D591"/>
<path d="M160.61 316.769C160.944 317.229 161.555 317.356 161.973 317.053C162.392 316.749 162.46 316.129 162.125 315.668C161.791 315.207 161.18 315.08 160.762 315.384C160.343 315.688 160.275 316.308 160.61 316.769Z" fill="#A0D591"/>
<path d="M159.089 330.786C159.417 331.237 160.023 331.382 160.453 331.07C160.883 330.758 160.949 330.159 160.605 329.686C160.261 329.212 159.671 329.089 159.241 329.402C158.811 329.714 158.746 330.313 159.089 330.786Z" fill="#A0D591"/>
<path d="M157.758 344.631C158.004 344.969 158.43 345.039 158.716 344.831C159.003 344.622 159.052 344.173 158.823 343.858C158.594 343.542 158.152 343.45 157.865 343.658C157.578 343.866 157.529 344.315 157.758 344.631Z" fill="#A0D591"/>
<path d="M156.424 358.512C156.571 358.715 156.829 358.769 157.013 358.635C157.198 358.501 157.226 358.24 157.079 358.037C156.932 357.834 156.674 357.78 156.489 357.914C156.305 358.048 156.276 358.31 156.424 358.512Z" fill="#A0D591"/>
<path d="M154.887 372.507C155.035 372.71 155.293 372.764 155.477 372.63C155.661 372.496 155.69 372.235 155.543 372.032C155.395 371.829 155.137 371.775 154.953 371.909C154.769 372.043 154.74 372.305 154.887 372.507Z" fill="#A0D591"/>
<path d="M153.676 386.3C153.686 386.313 153.702 386.316 153.713 386.308C153.725 386.3 153.726 386.283 153.717 386.27C153.708 386.258 153.691 386.254 153.68 386.262C153.669 386.27 153.667 386.287 153.676 386.3Z" fill="#A0D591"/>
<path d="M173.516 75.3386C173.607 75.4631 173.772 75.4974 173.885 75.4153C173.998 75.3332 174.016 75.1657 173.926 75.0411C173.836 74.9166 173.671 74.8823 173.557 74.9644C173.444 75.0465 173.426 75.214 173.516 75.3386Z" fill="#A0D591"/>
<path d="M171.716 89.5263C171.915 89.8002 172.278 89.8758 172.527 89.6952C172.775 89.5145 172.816 89.1459 172.617 88.872C172.418 88.598 172.055 88.5224 171.806 88.7031C171.557 88.8838 171.517 89.2523 171.716 89.5263Z" fill="#A0D591"/>
<path d="M170.302 103.429C170.447 103.629 170.711 103.684 170.892 103.552C171.073 103.421 171.102 103.153 170.957 102.954C170.813 102.754 170.549 102.699 170.368 102.831C170.187 102.962 170.157 103.23 170.302 103.429Z" fill="#A0D591"/>
<path d="M168.476 117.67C168.754 118.053 169.27 118.16 169.619 117.908C169.967 117.655 170.024 117.131 169.746 116.748C169.467 116.364 168.952 116.257 168.603 116.51C168.255 116.763 168.198 117.286 168.476 117.67Z" fill="#A0D591"/>
<path d="M166.775 131.783C167.119 132.256 167.746 132.387 168.176 132.074C168.606 131.762 168.675 131.126 168.332 130.653C167.988 130.179 167.361 130.049 166.931 130.361C166.501 130.673 166.431 131.309 166.775 131.783Z" fill="#A0D591"/>
<path d="M165.419 145.68C165.681 146.041 166.16 146.141 166.488 145.903C166.816 145.665 166.869 145.179 166.607 144.818C166.345 144.457 165.866 144.357 165.538 144.595C165.211 144.833 165.157 145.32 165.419 145.68Z" fill="#A0D591"/>
<path d="M163.578 159.897C163.971 160.438 164.708 160.592 165.199 160.235C165.691 159.878 165.773 159.13 165.38 158.589C164.987 158.047 164.25 157.894 163.758 158.251C163.267 158.608 163.185 159.356 163.578 159.897Z" fill="#A0D591"/>
<path d="M161.936 174.003C162.394 174.634 163.205 174.803 163.778 174.387C164.352 173.97 164.442 173.147 163.984 172.516C163.525 171.885 162.715 171.716 162.141 172.132C161.568 172.549 161.477 173.372 161.936 174.003Z" fill="#A0D591"/>
<path d="M160.317 188.056C160.791 188.71 161.676 188.894 162.27 188.463C162.864 188.032 162.962 187.134 162.487 186.48C162.013 185.826 161.128 185.642 160.534 186.073C159.94 186.505 159.842 187.403 160.317 188.056Z" fill="#A0D591"/>
<path d="M159.044 201.895C159.42 202.413 160.084 202.551 160.555 202.209C161.026 201.867 161.1 201.194 160.723 200.675C160.346 200.157 159.683 200.019 159.212 200.361C158.741 200.703 158.667 201.376 159.044 201.895Z" fill="#A0D591"/>
<path d="M157.222 216.096C157.71 216.768 158.601 216.954 159.212 216.51C159.822 216.067 159.922 215.162 159.433 214.49C158.945 213.818 158.054 213.632 157.443 214.075C156.833 214.519 156.733 215.424 157.222 216.096Z" fill="#A0D591"/>
<path d="M155.707 230.075C156.182 230.729 157.066 230.913 157.66 230.482C158.254 230.051 158.352 229.153 157.877 228.499C157.403 227.845 156.518 227.661 155.924 228.092C155.331 228.523 155.232 229.421 155.707 230.075Z" fill="#A0D591"/>
<path d="M154.473 243.883C154.817 244.357 155.443 244.487 155.873 244.175C156.303 243.863 156.373 243.227 156.029 242.753C155.686 242.28 155.059 242.149 154.629 242.462C154.199 242.774 154.129 243.41 154.473 243.883Z" fill="#A0D591"/>
<path d="M152.733 258.025C153.175 258.634 153.969 258.78 154.501 258.394C155.034 258.007 155.124 257.184 154.698 256.598C154.273 256.012 153.462 255.843 152.93 256.229C152.397 256.616 152.307 257.439 152.733 258.025Z" fill="#A0D591"/>
<path d="M151.294 271.983C151.692 272.531 152.418 272.682 152.916 272.321C153.413 271.96 153.494 271.223 153.096 270.675C152.699 270.127 151.973 269.976 151.475 270.337C150.977 270.698 150.896 271.435 151.294 271.983Z" fill="#A0D591"/>
<path d="M149.862 285.902C150.205 286.375 150.832 286.506 151.262 286.194C151.692 285.882 151.762 285.245 151.418 284.772C151.074 284.299 150.448 284.168 150.018 284.48C149.588 284.792 149.518 285.429 149.862 285.902Z" fill="#A0D591"/>
<path d="M148.67 299.681C148.866 299.951 149.235 300.028 149.481 299.85C149.726 299.671 149.767 299.297 149.571 299.026C149.374 298.756 149.006 298.679 148.76 298.858C148.514 299.036 148.473 299.41 148.67 299.681Z" fill="#A0D591"/>
<path d="M146.97 313.794C147.232 314.155 147.711 314.255 148.039 314.016C148.367 313.778 148.42 313.292 148.158 312.931C147.896 312.57 147.417 312.471 147.089 312.709C146.761 312.947 146.708 313.433 146.97 313.794Z" fill="#A0D591"/>
<path d="M145.639 327.638C145.811 327.875 146.125 327.94 146.339 327.784C146.554 327.628 146.589 327.31 146.418 327.073C146.246 326.836 145.932 326.771 145.717 326.927C145.502 327.083 145.468 327.401 145.639 327.638Z" fill="#A0D591"/>
<path d="M144.467 341.403C144.467 341.403 144.484 341.426 144.504 341.411C144.525 341.397 144.525 341.397 144.508 341.374C144.491 341.351 144.491 341.351 144.471 341.365C144.451 341.38 144.451 341.38 144.467 341.403Z" fill="#A0D591"/>
<path d="M142.81 355.485C142.81 355.485 142.986 355.598 143.068 355.539C143.15 355.48 143.162 355.367 143.097 355.277C143.031 355.187 142.921 355.164 142.839 355.223C142.757 355.283 142.745 355.395 142.81 355.485Z" fill="#A0D591"/>
<path d="M156.5 100.574C156.648 100.777 156.906 100.831 157.09 100.697C157.274 100.563 157.303 100.301 157.156 100.098C157.008 99.8951 156.75 99.8414 156.566 99.9752C156.382 100.109 156.353 100.371 156.5 100.574Z" fill="#A0D591"/>
<path d="M155.169 114.42C155.169 114.42 155.33 114.511 155.391 114.467C155.453 114.422 155.465 114.309 155.416 114.241C155.366 114.173 155.255 114.15 155.194 114.195C155.132 114.24 155.12 114.352 155.169 114.42Z" fill="#A0D591"/>
<path d="M153.485 128.556C153.599 128.714 153.82 128.76 153.964 128.656C154.107 128.552 154.132 128.327 154.017 128.169C153.902 128.011 153.681 127.965 153.538 128.069C153.395 128.174 153.37 128.398 153.485 128.556Z" fill="#A0D591"/>
<path d="M151.621 142.787C151.882 143.147 152.362 143.247 152.689 143.009C153.017 142.771 153.07 142.285 152.808 141.924C152.546 141.563 152.067 141.464 151.74 141.702C151.412 141.939 151.359 142.426 151.621 142.787Z" fill="#A0D591"/>
<path d="M150.307 156.655C150.487 156.903 150.802 156.949 151.007 156.8C151.212 156.652 151.249 156.315 151.085 156.09C150.921 155.864 150.59 155.795 150.385 155.944C150.18 156.092 150.143 156.429 150.307 156.655Z" fill="#A0D591"/>
<path d="M148.669 170.723C148.882 171.016 149.271 171.078 149.517 170.9C149.763 170.721 149.808 170.31 149.611 170.039C149.415 169.769 149.01 169.684 148.764 169.863C148.518 170.041 148.473 170.453 148.669 170.723Z" fill="#A0D591"/>
<path d="M147.087 184.783C147.322 185.107 147.751 185.197 148.045 184.983C148.34 184.769 148.387 184.334 148.152 184.01C147.917 183.686 147.488 183.597 147.194 183.811C146.9 184.024 146.852 184.46 147.087 184.783Z" fill="#A0D591"/>
<path d="M145.225 199.016C145.602 199.534 146.265 199.673 146.736 199.331C147.207 198.989 147.281 198.315 146.905 197.796C146.528 197.278 145.865 197.14 145.394 197.482C144.923 197.824 144.849 198.497 145.225 199.016Z" fill="#A0D591"/>
<path d="M144.012 212.81C144.257 213.148 144.683 213.217 144.97 213.009C145.256 212.801 145.306 212.352 145.077 212.036C144.847 211.721 144.405 211.629 144.118 211.837C143.832 212.045 143.782 212.494 144.012 212.81Z" fill="#A0D591"/>
<path d="M142.455 226.817C142.7 227.156 143.126 227.225 143.413 227.017C143.699 226.809 143.749 226.36 143.519 226.044C143.29 225.729 142.848 225.636 142.561 225.845C142.275 226.053 142.225 226.502 142.455 226.817Z" fill="#A0D591"/>
<path d="M140.675 240.989C141.019 241.462 141.645 241.593 142.075 241.281C142.506 240.968 142.575 240.332 142.232 239.859C141.888 239.385 141.261 239.255 140.831 239.567C140.401 239.879 140.331 240.515 140.675 240.989Z" fill="#A0D591"/>
<path d="M139.442 254.798C139.655 255.091 140.044 255.153 140.289 254.975C140.535 254.796 140.58 254.385 140.384 254.114C140.187 253.844 139.782 253.759 139.536 253.938C139.291 254.116 139.245 254.528 139.442 254.798Z" fill="#A0D591"/>
<path d="M138.009 268.718C138.171 268.942 138.468 269.004 138.672 268.856C138.876 268.708 138.909 268.406 138.746 268.182C138.583 267.958 138.286 267.896 138.083 268.044C137.879 268.192 137.846 268.493 138.009 268.718Z" fill="#A0D591"/>
<path d="M136.592 282.66C136.706 282.818 136.927 282.864 137.071 282.76C137.214 282.656 137.239 282.431 137.124 282.274C137.009 282.116 136.788 282.07 136.645 282.174C136.502 282.278 136.477 282.502 136.592 282.66Z" fill="#A0D591"/>
<path d="M134.85 296.803C135.047 297.073 135.415 297.15 135.661 296.972C135.907 296.793 135.948 296.419 135.752 296.148C135.555 295.878 135.187 295.801 134.941 295.98C134.695 296.158 134.654 296.532 134.85 296.803Z" fill="#A0D591"/>
<path d="M133.7 310.552C133.7 310.552 133.806 310.613 133.847 310.583C133.888 310.554 133.896 310.479 133.864 310.433C133.831 310.388 133.757 310.373 133.716 310.402C133.675 310.432 133.667 310.507 133.7 310.552Z" fill="#A0D591"/>
<path d="M130.672 338.508C130.672 338.508 130.688 338.531 130.709 338.517C130.729 338.502 130.729 338.502 130.712 338.479C130.695 338.456 130.695 338.456 130.675 338.471C130.655 338.485 130.655 338.485 130.672 338.508Z" fill="#A0D591"/>
<path d="M138.394 139.513C138.394 139.513 138.411 139.536 138.431 139.522C138.451 139.507 138.451 139.507 138.435 139.484C138.418 139.461 138.418 139.461 138.398 139.476C138.377 139.49 138.377 139.49 138.394 139.513Z" fill="#A0D591"/>
<path d="M136.733 153.598C136.733 153.598 136.909 153.712 136.991 153.652C137.073 153.593 137.085 153.48 137.02 153.39C136.954 153.3 136.844 153.277 136.762 153.337C136.68 153.396 136.668 153.508 136.733 153.598Z" fill="#A0D591"/>
<path d="M133.577 181.682C133.675 181.817 133.876 181.878 134.019 181.774C134.163 181.67 134.183 181.483 134.069 181.325C133.954 181.167 133.77 181.129 133.626 181.233C133.483 181.337 133.462 181.524 133.577 181.682Z" fill="#A0D591"/>
<path d="M132.016 195.729C132.13 195.887 132.352 195.933 132.495 195.828C132.638 195.724 132.663 195.5 132.548 195.342C132.434 195.184 132.213 195.138 132.069 195.242C131.926 195.346 131.901 195.571 132.016 195.729Z" fill="#A0D591"/>
<path d="M130.46 209.736C130.574 209.894 130.795 209.94 130.939 209.836C131.082 209.732 131.107 209.508 130.992 209.35C130.878 209.192 130.656 209.146 130.513 209.25C130.37 209.354 130.345 209.579 130.46 209.736Z" fill="#A0D591"/>
<path d="M128.941 223.753C129.055 223.911 129.277 223.957 129.42 223.853C129.563 223.749 129.588 223.524 129.473 223.366C129.359 223.209 129.138 223.162 128.994 223.267C128.851 223.371 128.826 223.595 128.941 223.753Z" fill="#A0D591"/>
<path d="M127.426 237.732C127.534 237.881 127.732 237.923 127.868 237.824C128.004 237.725 128.026 237.524 127.917 237.375C127.809 237.226 127.611 237.184 127.475 237.283C127.339 237.381 127.317 237.583 127.426 237.732Z" fill="#A0D591"/>
<path d="M125.97 251.667C125.97 251.667 126.146 251.78 126.228 251.721C126.31 251.661 126.322 251.549 126.256 251.459C126.191 251.369 126.08 251.346 125.998 251.405C125.917 251.464 125.904 251.577 125.97 251.667Z" fill="#A0D591"/>
<path d="M123.018 279.603C123.018 279.603 123.035 279.626 123.055 279.612C123.076 279.597 123.075 279.597 123.059 279.574C123.042 279.551 123.042 279.551 123.022 279.565C123.002 279.58 123.002 279.58 123.018 279.603Z" fill="#A0D591"/>
</g>
</svg>
