<svg width="195" height="298" viewBox="0 0 195 298" fill="none" xmlns="http://www.w3.org/2000/svg">
<g style="mix-blend-mode:multiply" opacity="0.5">
<path d="M-3.58561 278.589C-7.21734 278.589 -10.1614 281.263 -10.1614 284.562C-10.1614 287.86 -7.21734 290.534 -3.58561 290.534C0.0461292 290.534 2.99023 287.86 2.99023 284.562C2.99023 281.263 0.0461282 278.589 -3.58561 278.589Z" fill="#A0D591"/>
<path d="M17.2847 278.944C13.8854 278.944 11.099 281.449 11.099 284.562C11.099 287.675 13.8575 290.181 17.2847 290.181C20.712 290.181 23.4705 287.675 23.4705 284.562C23.4705 281.449 20.712 278.944 17.2847 278.944Z" fill="#A0D591"/>
<path d="M6.83585 269.529C3.46572 269.529 0.733685 272.01 0.733685 275.071C0.733685 278.132 3.46572 280.614 6.83585 280.614C10.206 280.614 12.938 278.132 12.938 275.071C12.938 272.01 10.206 269.529 6.83585 269.529Z" fill="#A0D591"/>
<path d="M-3.58503 259.683C-7.17945 259.683 -10.0773 262.341 -10.0773 265.58C-10.0773 268.819 -7.15158 271.477 -3.58503 271.477C-0.0184698 271.477 2.90723 268.819 2.90723 265.58C2.90723 262.341 -0.0184708 259.683 -3.58503 259.683Z" fill="#A0D591"/>
<path d="M38.1551 279.727C35.2158 279.727 32.8331 281.891 32.8331 284.561C32.8331 287.231 35.2158 289.395 38.1551 289.395C41.0943 289.395 43.4771 287.231 43.4771 284.561C43.4771 281.891 41.0943 279.727 38.1551 279.727Z" fill="#A0D591"/>
<path d="M27.7059 269.91C24.5573 269.91 22.0217 272.213 22.0217 275.073C22.0217 277.932 24.5573 280.235 27.7059 280.235C30.8545 280.235 33.3901 277.932 33.3901 275.073C33.3901 272.213 30.8545 269.91 27.7059 269.91Z" fill="#A0D591"/>
<path d="M17.2851 260.063C13.9149 260.063 11.1829 262.544 11.1829 265.605C11.1829 268.666 13.9149 271.147 17.2851 271.147C20.6552 271.147 23.3872 268.666 23.3872 265.605C23.3872 262.544 20.6552 260.063 17.2851 260.063Z" fill="#A0D591"/>
<path d="M6.83526 250.699C3.54734 250.699 0.872424 253.129 0.872425 256.115C0.872425 259.102 3.54734 261.531 6.83526 261.531C10.1232 261.531 12.7981 259.102 12.7981 256.115C12.7981 253.129 10.1232 250.699 6.83526 250.699Z" fill="#A0D591"/>
<path d="M-3.58575 240.955C-7.04085 240.955 -9.85508 243.512 -9.85508 246.65C-9.85508 249.788 -7.04085 252.344 -3.58574 252.344C-0.130642 252.344 2.68359 249.788 2.68359 246.65C2.68359 243.512 -0.130643 240.955 -3.58575 240.955Z" fill="#A0D591"/>
<path d="M69.445 290.054C67.0208 290.054 65.0704 291.825 65.0704 294.027C65.0704 296.229 67.0208 298 69.445 298C71.8691 298 73.8196 296.229 73.8196 294.027C73.8196 291.825 71.8691 290.054 69.445 290.054Z" fill="#A0D591"/>
<path d="M59.0252 280.134C56.3503 280.134 54.1491 282.108 54.1491 284.563C54.1491 287.017 56.3224 288.991 59.0252 288.991C61.728 288.991 63.9014 287.017 63.9014 284.563C63.9014 282.108 61.728 280.134 59.0252 280.134Z" fill="#A0D591"/>
<path d="M48.5754 270.743C45.9283 270.743 43.7828 272.692 43.7828 275.096C43.7828 277.501 45.9283 279.449 48.5754 279.449C51.2224 279.449 53.3679 277.501 53.3679 275.096C53.3679 272.692 51.2224 270.743 48.5754 270.743Z" fill="#A0D591"/>
<path d="M38.1537 260.85C35.2559 260.85 32.9153 262.976 32.9153 265.608C32.9153 268.24 35.2559 270.365 38.1537 270.365C41.0515 270.365 43.3921 268.24 43.3921 265.608C43.3921 262.976 41.0515 260.85 38.1537 260.85Z" fill="#A0D591"/>
<path d="M27.7056 251.055C24.6278 251.055 22.1328 253.321 22.1328 256.116C22.1328 258.912 24.6278 261.178 27.7056 261.178C30.7833 261.178 33.2783 258.912 33.2783 256.116C33.2783 253.321 30.7833 251.055 27.7056 251.055Z" fill="#A0D591"/>
<path d="M17.2841 241.335C14.0525 241.335 11.4327 243.714 11.4327 246.65C11.4327 249.585 14.0525 251.964 17.2841 251.964C20.5157 251.964 23.1355 249.585 23.1355 246.65C23.1355 243.714 20.5157 241.335 17.2841 241.335Z" fill="#A0D591"/>
<path d="M6.83588 231.872C3.60425 231.872 0.984479 234.251 0.984479 237.187C0.98448 240.122 3.60425 242.501 6.83588 242.501C10.0675 242.501 12.6873 240.122 12.6873 237.187C12.6873 234.251 10.0675 231.872 6.83588 231.872Z" fill="#A0D591"/>
<path d="M-3.58551 222.203C-6.92915 222.203 -9.63193 224.658 -9.63193 227.695C-9.63193 230.732 -6.92915 233.187 -3.58551 233.187C-0.24186 233.187 2.46094 230.732 2.46094 227.695C2.46094 224.658 -0.241861 222.203 -3.58551 222.203Z" fill="#A0D591"/>
<path d="M90.3158 290.433C88.1146 290.433 86.3592 292.053 86.3592 294.027C86.3592 296.001 88.1424 297.62 90.3158 297.62C92.4892 297.62 94.2725 296.001 94.2725 294.027C94.2725 292.053 92.4892 290.433 90.3158 290.433Z" fill="#A0D591"/>
<path d="M79.8666 280.942C77.6654 280.942 75.9099 282.562 75.9099 284.536C75.9099 286.51 77.6932 288.129 79.8666 288.129C82.04 288.129 83.8232 286.51 83.8232 284.536C83.8232 282.562 82.04 280.942 79.8666 280.942Z" fill="#A0D591"/>
<path d="M69.4457 271.124C67.0451 271.124 65.099 272.892 65.099 275.072C65.099 277.252 67.0451 279.02 69.4457 279.02C71.8464 279.02 73.7925 277.252 73.7925 275.072C73.7925 272.892 71.8464 271.124 69.4457 271.124Z" fill="#A0D591"/>
<path d="M59.0241 261.253C56.3772 261.253 54.2315 263.202 54.2315 265.606C54.2315 268.01 56.3772 269.959 59.0241 269.959C61.6709 269.959 63.8167 268.01 63.8167 265.606C63.8166 263.202 61.6709 261.253 59.0241 261.253Z" fill="#A0D591"/>
<path d="M48.5757 251.864C45.9844 251.864 43.8667 253.788 43.8667 256.141C43.8667 258.495 45.9844 260.418 48.5757 260.418C51.167 260.418 53.2847 258.495 53.2847 256.141C53.2847 253.788 51.167 251.864 48.5757 251.864Z" fill="#A0D591"/>
<path d="M38.1549 242.069C35.3685 242.069 33.1116 244.119 33.1116 246.65C33.1116 249.181 35.3685 251.231 38.1549 251.231C40.9413 251.231 43.1982 249.181 43.1982 246.65C43.1982 244.119 40.9413 242.069 38.1549 242.069Z" fill="#A0D591"/>
<path d="M27.706 232.226C24.6967 232.226 22.2725 234.428 22.2725 237.161C22.2725 239.894 24.6967 242.096 27.706 242.096C30.7153 242.096 33.1394 239.894 33.1394 237.161C33.1394 234.428 30.7153 232.226 27.706 232.226Z" fill="#A0D591"/>
<path d="M17.2836 222.532C14.135 222.532 11.5994 224.835 11.5994 227.695C11.5994 230.555 14.135 232.858 17.2836 232.858C20.4322 232.858 22.9678 230.555 22.9678 227.695C22.9678 224.835 20.4322 222.532 17.2836 222.532Z" fill="#A0D591"/>
<path d="M6.83606 213.244C3.79891 213.244 1.3469 215.472 1.3469 218.23C1.3469 220.989 3.79891 223.216 6.83606 223.216C9.8732 223.216 12.3252 220.989 12.3252 218.23C12.3252 215.472 9.8732 213.244 6.83606 213.244Z" fill="#A0D591"/>
<path d="M-3.58588 203.727C-6.63284 203.727 -9.10288 205.971 -9.10288 208.738C-9.10288 211.506 -6.63284 213.749 -3.58587 213.749C-0.53891 213.749 1.93115 211.506 1.93115 208.738C1.93115 205.971 -0.538911 203.727 -3.58588 203.727Z" fill="#A0D591"/>
<path d="M111.187 291.32C109.543 291.32 108.205 292.534 108.205 294.028C108.205 295.521 109.543 296.736 111.187 296.736C112.831 296.736 114.168 295.521 114.168 294.028C114.168 292.534 112.831 291.32 111.187 291.32Z" fill="#A0D591"/>
<path d="M100.737 281.474C98.87 281.474 97.3375 282.865 97.3375 284.561C97.3375 286.257 98.87 287.649 100.737 287.649C102.604 287.649 104.136 286.257 104.136 284.561C104.136 282.865 102.604 281.474 100.737 281.474Z" fill="#A0D591"/>
<path d="M90.3162 271.58C88.1925 271.58 86.471 273.144 86.471 275.072C86.471 277.001 88.1925 278.565 90.3162 278.565C92.4398 278.565 94.1614 277.001 94.1614 275.072C94.1614 273.144 92.4398 271.58 90.3162 271.58Z" fill="#A0D591"/>
<path d="M79.8667 262.114C77.7491 262.114 76.0215 263.683 76.0215 265.606C76.0215 267.53 77.7491 269.099 79.8667 269.099C81.9844 269.099 83.7119 267.53 83.7119 265.606C83.7119 263.683 81.9844 262.114 79.8667 262.114Z" fill="#A0D591"/>
<path d="M69.4463 252.245C67.0918 252.245 65.1832 253.978 65.1832 256.117C65.1832 258.255 67.0918 259.989 69.4463 259.989C71.8008 259.989 73.7095 258.255 73.7095 256.117C73.7095 253.978 71.8008 252.245 69.4463 252.245Z" fill="#A0D591"/>
<path d="M59.0241 242.499C56.5004 242.499 54.4545 244.357 54.4545 246.649C54.4545 248.942 56.5004 250.8 59.0241 250.8C61.5478 250.8 63.5937 248.942 63.5937 246.649C63.5937 244.357 61.5478 242.499 59.0241 242.499Z" fill="#A0D591"/>
<path d="M48.5754 233.008C46.0398 233.008 44.0057 234.881 44.0057 237.158C44.0057 239.436 46.0676 241.309 48.5754 241.309C51.0831 241.309 53.145 239.436 53.145 237.158C53.145 234.881 51.0831 233.008 48.5754 233.008Z" fill="#A0D591"/>
<path d="M38.1541 223.266C35.4513 223.266 33.278 225.24 33.278 227.694C33.278 230.149 35.4513 232.123 38.1541 232.123C40.8569 232.123 43.0303 230.149 43.0303 227.694C43.0303 225.24 40.8569 223.266 38.1541 223.266Z" fill="#A0D591"/>
<path d="M27.7044 213.623C24.9037 213.623 22.6332 215.685 22.6332 218.229C22.6332 220.773 24.9037 222.835 27.7044 222.835C30.5052 222.835 32.7756 220.773 32.7756 218.229C32.7756 215.685 30.5052 213.623 27.7044 213.623Z" fill="#A0D591"/>
<path d="M17.2851 204.032C14.4152 204.032 12.1025 206.158 12.1025 208.739C12.1025 211.321 14.4152 213.447 17.2851 213.447C20.1551 213.447 22.4678 211.346 22.4678 208.739C22.4678 206.133 20.1551 204.032 17.2851 204.032Z" fill="#A0D591"/>
<path d="M6.83541 194.541C3.96545 194.541 1.65276 196.667 1.65276 199.248C1.65276 201.829 3.96545 203.955 6.83541 203.955C9.70538 203.955 12.0181 201.855 12.0181 199.248C12.0181 196.641 9.70537 194.541 6.83541 194.541Z" fill="#A0D591"/>
<path d="M-3.58507 185.026C-6.4829 185.026 -8.82345 187.152 -8.82345 189.784C-8.82345 192.416 -6.4829 194.542 -3.58507 194.542C-0.687246 194.542 1.65332 192.416 1.65332 189.784C1.65332 187.152 -0.687247 185.026 -3.58507 185.026Z" fill="#A0D591"/>
<path d="M132.055 291.799C130.69 291.799 129.603 292.786 129.603 294.026C129.603 295.266 130.69 296.253 132.055 296.253C133.421 296.253 134.507 295.266 134.507 294.026C134.507 292.786 133.421 291.799 132.055 291.799Z" fill="#A0D591"/>
<path d="M121.606 282.359C120.268 282.359 119.181 283.346 119.181 284.561C119.181 285.776 120.268 286.763 121.606 286.763C122.943 286.763 124.03 285.776 124.03 284.561C124.03 283.346 122.943 282.359 121.606 282.359Z" fill="#A0D591"/>
<path d="M111.186 272.492C109.598 272.492 108.316 273.656 108.316 275.099C108.316 276.541 109.598 277.705 111.186 277.705C112.774 277.705 114.056 276.541 114.056 275.099C114.056 273.656 112.774 272.492 111.186 272.492Z" fill="#A0D591"/>
<path d="M100.737 262.518C98.87 262.518 97.3375 263.91 97.3375 265.606C97.3375 267.302 98.87 268.694 100.737 268.694C102.604 268.694 104.136 267.302 104.136 265.606C104.136 263.91 102.604 262.518 100.737 262.518Z" fill="#A0D591"/>
<path d="M90.3148 252.699C88.2373 252.699 86.5532 254.228 86.5532 256.115C86.5532 258.002 88.2373 259.532 90.3148 259.532C92.3923 259.532 94.0764 258.002 94.0764 256.115C94.0764 254.228 92.3923 252.699 90.3148 252.699Z" fill="#A0D591"/>
<path d="M79.8664 243.31C77.8324 243.31 76.1884 244.803 76.1884 246.651C76.1884 248.498 77.8324 249.991 79.8664 249.991C81.9005 249.991 83.5444 248.498 83.5444 246.651C83.5444 244.803 81.9005 243.31 79.8664 243.31Z" fill="#A0D591"/>
<path d="M69.4455 233.416C67.1607 233.416 65.3217 235.087 65.3217 237.162C65.3217 239.237 67.1607 240.907 69.4455 240.907C71.7303 240.907 73.5693 239.237 73.5693 237.162C73.5693 235.087 71.7303 233.416 69.4455 233.416Z" fill="#A0D591"/>
<path d="M59.0242 223.646C56.5722 223.646 54.566 225.468 54.566 227.695C54.566 229.922 56.5722 231.744 59.0242 231.744C61.4762 231.744 63.4824 229.922 63.4824 227.695C63.4824 225.468 61.4762 223.646 59.0242 223.646Z" fill="#A0D591"/>
<path d="M48.5757 214.358C46.2352 214.358 44.3126 216.079 44.3126 218.23C44.3126 220.381 46.2073 222.102 48.5757 222.102C50.9441 222.102 52.8389 220.381 52.8389 218.23C52.8389 216.079 50.9441 214.358 48.5757 214.358Z" fill="#A0D591"/>
<path d="M38.1546 204.691C35.7026 204.691 33.6964 206.513 33.6964 208.74C33.6964 210.967 35.7026 212.789 38.1546 212.789C40.6066 212.789 42.6128 210.967 42.6128 208.74C42.6128 206.513 40.6066 204.691 38.1546 204.691Z" fill="#A0D591"/>
<path d="M27.706 194.895C25.0437 194.895 22.8855 196.855 22.8855 199.273C22.8855 201.691 25.0437 203.652 27.706 203.652C30.3682 203.652 32.5264 201.691 32.5264 199.273C32.5264 196.855 30.3682 194.895 27.706 194.895Z" fill="#A0D591"/>
<path d="M17.285 185.33C14.5766 185.33 12.3809 187.324 12.3809 189.784C12.3809 192.244 14.5766 194.239 17.285 194.239C19.9934 194.239 22.189 192.244 22.189 189.784C22.189 187.324 19.9934 185.33 17.285 185.33Z" fill="#A0D591"/>
<path d="M6.10306 176.146C3.58168 176.519 1.87021 178.677 2.28039 180.967C2.69057 183.258 5.06708 184.812 7.58846 184.439C10.1098 184.067 11.8213 181.908 11.4111 179.618C11.0009 177.328 8.62444 175.774 6.10306 176.146Z" fill="#A0D591"/>
<path d="M-3.58469 166.373C-6.28747 166.373 -8.48869 168.372 -8.48869 170.827C-8.48869 173.282 -6.28747 175.281 -3.58469 175.281C-0.881904 175.281 1.31934 173.282 1.31934 170.827C1.31934 168.372 -0.881905 166.373 -3.58469 166.373Z" fill="#A0D591"/>
<path d="M152.925 292.761C152.145 292.761 151.532 293.318 151.532 294.027C151.532 294.735 152.145 295.292 152.925 295.292C153.705 295.292 154.318 294.735 154.318 294.027C154.318 293.318 153.705 292.761 152.925 292.761Z" fill="#A0D591"/>
<path d="M142.476 282.816C141.417 282.816 140.553 283.601 140.553 284.563C140.553 285.524 141.417 286.309 142.476 286.309C143.535 286.309 144.398 285.524 144.398 284.563C144.398 283.601 143.535 282.816 142.476 282.816Z" fill="#A0D591"/>
<path d="M132.055 272.92C130.746 272.92 129.687 273.882 129.687 275.071C129.687 276.26 130.746 277.222 132.055 277.222C133.365 277.222 134.424 276.26 134.424 275.071C134.424 273.882 133.365 272.92 132.055 272.92Z" fill="#A0D591"/>
<path d="M121.606 263.455C120.296 263.455 119.238 264.416 119.238 265.606C119.238 266.795 120.296 267.757 121.606 267.757C122.916 267.757 123.974 266.795 123.974 265.606C123.974 264.416 122.916 263.455 121.606 263.455Z" fill="#A0D591"/>
<path d="M111.186 253.56C109.625 253.56 108.372 254.699 108.372 256.116C108.372 257.533 109.625 258.672 111.186 258.672C112.746 258.672 114 257.533 114 256.116C114 254.699 112.746 253.56 111.186 253.56Z" fill="#A0D591"/>
<path d="M100.736 243.766C98.9807 243.766 97.5318 245.057 97.5318 246.677C97.5318 248.296 98.9528 249.587 100.736 249.587C102.519 249.587 103.94 248.296 103.94 246.677C103.94 245.057 102.519 243.766 100.736 243.766Z" fill="#A0D591"/>
<path d="M90.3156 233.82C88.2816 233.82 86.6376 235.313 86.6376 237.16C86.6376 239.008 88.2816 240.501 90.3156 240.501C92.3497 240.501 93.9937 239.008 93.9937 237.16C93.9937 235.313 92.3497 233.82 90.3156 233.82Z" fill="#A0D591"/>
<path d="M79.867 224.454C77.8887 224.454 76.3005 225.897 76.3005 227.693C76.3005 229.49 77.8887 230.933 79.867 230.933C81.8454 230.933 83.4336 229.49 83.4336 227.693C83.4336 225.897 81.8454 224.454 79.867 224.454Z" fill="#A0D591"/>
<path d="M68.8242 214.801C66.7433 215.109 65.3308 216.89 65.6693 218.78C66.0079 220.67 67.9692 221.953 70.0501 221.646C72.131 221.338 73.5434 219.557 73.2049 217.667C72.8664 215.777 70.9051 214.494 68.8242 214.801Z" fill="#A0D591"/>
<path d="M59.0244 205.069C56.7931 205.069 54.9842 206.712 54.9842 208.739C54.9842 210.765 56.7931 212.408 59.0244 212.408C61.2558 212.408 63.0647 210.765 63.0647 208.739C63.0647 206.712 61.2558 205.069 59.0244 205.069Z" fill="#A0D591"/>
<path d="M48.5757 195.605C46.3444 195.605 44.5355 197.248 44.5355 199.275C44.5355 201.302 46.3444 202.945 48.5757 202.945C50.8071 202.945 52.616 201.302 52.616 199.275C52.616 197.248 50.8071 195.605 48.5757 195.605Z" fill="#A0D591"/>
<path d="M38.1554 185.963C35.8148 185.963 33.9479 187.684 33.9479 189.784C33.9479 191.885 35.8427 193.606 38.1554 193.606C40.4681 193.606 42.3628 191.885 42.3628 189.784C42.3628 187.684 40.4681 185.963 38.1554 185.963Z" fill="#A0D591"/>
<path d="M27.7058 176.421C25.3359 176.421 23.4148 178.166 23.4148 180.318C23.4148 182.471 25.3359 184.216 27.7058 184.216C30.0757 184.216 31.9968 182.471 31.9968 180.318C31.9968 178.166 30.0757 176.421 27.7058 176.421Z" fill="#A0D591"/>
<path d="M17.2848 166.652C14.7213 166.652 12.6594 168.525 12.6594 170.853C12.6594 173.181 14.7213 175.054 17.2848 175.054C19.8483 175.054 21.9102 173.181 21.9102 170.853C21.9102 168.525 19.8483 166.652 17.2848 166.652Z" fill="#A0D591"/>
<path d="M6.83539 157.416C4.43911 157.416 2.48864 159.187 2.48864 161.364C2.48864 163.54 4.43911 165.312 6.83539 165.312C9.23167 165.312 11.1821 163.54 11.1821 161.364C11.1821 159.187 9.23167 157.416 6.83539 157.416Z" fill="#A0D591"/>
<path d="M-3.58496 147.998C-5.95482 147.998 -7.87598 149.743 -7.87598 151.896C-7.87598 154.048 -5.95482 155.793 -3.58496 155.793C-1.2151 155.793 0.706055 154.048 0.706054 151.896C0.706054 149.743 -1.2151 147.998 -3.58496 147.998Z" fill="#A0D591"/>
<path d="M173.767 293.244C173.293 293.244 172.903 293.598 172.903 294.028C172.903 294.458 173.293 294.813 173.767 294.813C174.241 294.813 174.631 294.458 174.631 294.028C174.631 293.598 174.241 293.244 173.767 293.244Z" fill="#A0D591"/>
<path d="M163.347 283.299C162.567 283.299 161.954 283.855 161.954 284.564C161.954 285.273 162.567 285.829 163.347 285.829C164.127 285.829 164.74 285.273 164.74 284.564C164.74 283.855 164.127 283.299 163.347 283.299Z" fill="#A0D591"/>
<path d="M152.925 273.857C152.187 273.857 151.588 274.401 151.588 275.072C151.588 275.743 152.187 276.286 152.925 276.286C153.664 276.286 154.263 275.743 154.263 275.072C154.263 274.401 153.664 273.857 152.925 273.857Z" fill="#A0D591"/>
<path d="M142.477 263.885C141.446 263.885 140.582 264.644 140.582 265.606C140.582 266.567 141.418 267.327 142.477 267.327C143.535 267.327 144.371 266.567 144.371 265.606C144.371 264.644 143.535 263.885 142.477 263.885Z" fill="#A0D591"/>
<path d="M132.055 253.965C130.746 253.965 129.687 254.926 129.687 256.116C129.687 257.305 130.746 258.267 132.055 258.267C133.365 258.267 134.424 257.305 134.424 256.116C134.424 254.926 133.365 253.965 132.055 253.965Z" fill="#A0D591"/>
<path d="M121.608 244.6C120.354 244.6 119.351 245.511 119.351 246.65C119.351 247.788 120.354 248.699 121.608 248.699C122.861 248.699 123.865 247.788 123.865 246.65C123.865 245.511 122.861 244.6 121.608 244.6Z" fill="#A0D591"/>
<path d="M111.185 234.681C109.68 234.681 108.454 235.794 108.454 237.161C108.454 238.527 109.68 239.641 111.185 239.641C112.69 239.641 113.916 238.527 113.916 237.161C113.916 235.794 112.69 234.681 111.185 234.681Z" fill="#A0D591"/>
<path d="M100.736 224.885C99.0089 224.885 97.6157 226.15 97.6157 227.719C97.6157 229.288 99.0089 230.554 100.736 230.554C102.464 230.554 103.857 229.288 103.857 227.719C103.857 226.15 102.464 224.885 100.736 224.885Z" fill="#A0D591"/>
<path d="M90.3155 215.143C88.4486 215.143 86.9161 216.535 86.9161 218.23C86.9161 219.926 88.4486 221.318 90.3155 221.318C92.1823 221.318 93.7148 219.926 93.7148 218.23C93.7148 216.535 92.1823 215.143 90.3155 215.143Z" fill="#A0D591"/>
<path d="M79.867 205.88C78.1395 205.88 76.7184 207.171 76.7184 208.74C76.7184 210.309 78.1395 211.6 79.867 211.6C81.5946 211.6 83.0156 210.309 83.0156 208.74C83.0156 207.171 81.5946 205.88 79.867 205.88Z" fill="#A0D591"/>
<path d="M69.4461 196.011C67.461 196.011 65.8517 197.472 65.8517 199.276C65.8517 201.079 67.461 202.54 69.4461 202.54C71.4312 202.54 73.0405 201.079 73.0405 199.276C73.0405 197.472 71.4312 196.011 69.4461 196.011Z" fill="#A0D591"/>
<path d="M59.024 186.317C56.9157 186.317 55.2067 187.869 55.2067 189.784C55.2067 191.699 56.9157 193.251 59.024 193.251C61.1322 193.251 62.8413 191.699 62.8413 189.784C62.8413 187.869 61.1322 186.317 59.024 186.317Z" fill="#A0D591"/>
<path d="M48.5756 177.129C46.6251 177.129 45.0648 178.572 45.0648 180.318C45.0648 182.065 46.653 183.507 48.5756 183.507C50.4982 183.507 52.0864 182.065 52.0864 180.318C52.0864 178.572 50.4982 177.129 48.5756 177.129Z" fill="#A0D591"/>
<path d="M38.1553 167.311C36.0098 167.311 34.2822 168.88 34.2822 170.829C34.2822 172.778 36.0098 174.372 38.1553 174.372C40.3008 174.372 42.0283 172.803 42.0283 170.829C42.0283 168.855 40.3008 167.311 38.1553 167.311Z" fill="#A0D591"/>
<path d="M27.7051 157.719C25.5039 157.719 23.6928 159.339 23.6928 161.364C23.6928 163.388 25.476 165.008 27.7051 165.008C29.9342 165.008 31.7175 163.388 31.7175 161.364C31.7175 159.339 29.9342 157.719 27.7051 157.719Z" fill="#A0D591"/>
<path d="M17.2855 148.254C15.0843 148.254 13.2731 149.873 13.2731 151.898C13.2731 153.923 15.0564 155.542 17.2855 155.542C19.5146 155.542 21.2979 153.923 21.2979 151.898C21.2979 149.873 19.5146 148.254 17.2855 148.254Z" fill="#A0D591"/>
<path d="M6.83578 138.762C4.61981 138.762 2.8234 140.394 2.8234 142.407C2.8234 144.419 4.61981 146.051 6.83578 146.051C9.05176 146.051 10.8481 144.419 10.8481 142.407C10.8481 140.394 9.05176 138.762 6.83578 138.762Z" fill="#A0D591"/>
<path d="M-3.58497 129.424C-5.724 129.424 -7.45803 130.999 -7.45803 132.941C-7.45803 134.884 -5.724 136.459 -3.58497 136.459C-1.44594 136.459 0.288086 134.884 0.288086 132.941C0.288085 130.999 -1.44594 129.424 -3.58497 129.424Z" fill="#A0D591"/>
<path d="M194.637 293.697C194.442 293.697 194.275 293.849 194.275 294.026C194.275 294.203 194.442 294.355 194.637 294.355C194.832 294.355 195 294.203 195 294.026C195 293.849 194.832 293.697 194.637 293.697Z" fill="#A0D591"/>
<path d="M184.216 284.234C184.021 284.234 183.854 284.386 183.854 284.563C183.854 284.74 184.021 284.892 184.216 284.892C184.411 284.892 184.578 284.74 184.578 284.563C184.578 284.386 184.411 284.234 184.216 284.234Z" fill="#A0D591"/>
<path d="M173.767 274.339C173.321 274.339 172.959 274.668 172.959 275.073C172.959 275.478 173.321 275.807 173.767 275.807C174.213 275.807 174.575 275.478 174.575 275.073C174.575 274.668 174.213 274.339 173.767 274.339Z" fill="#A0D591"/>
<path d="M163.347 264.39C162.608 264.39 162.01 264.934 162.01 265.605C162.01 266.276 162.608 266.82 163.347 266.82C164.086 266.82 164.685 266.276 164.685 265.605C164.685 264.934 164.086 264.39 163.347 264.39Z" fill="#A0D591"/>
<path d="M152.926 254.926C152.202 254.926 151.616 255.459 151.616 256.116C151.616 256.773 152.202 257.305 152.926 257.305C153.649 257.305 154.235 256.773 154.235 256.116C154.235 255.459 153.649 254.926 152.926 254.926Z" fill="#A0D591"/>
<path d="M142.476 245.082C141.529 245.082 140.749 245.79 140.749 246.651C140.749 247.511 141.529 248.22 142.476 248.22C143.423 248.22 144.204 247.511 144.204 246.651C144.204 245.79 143.423 245.082 142.476 245.082Z" fill="#A0D591"/>
<path d="M132.056 235.136C130.802 235.136 129.799 236.048 129.799 237.186C129.799 238.325 130.802 239.236 132.056 239.236C133.31 239.236 134.313 238.325 134.313 237.186C134.313 236.048 133.31 235.136 132.056 235.136Z" fill="#A0D591"/>
<path d="M121.607 225.796C120.464 225.796 119.517 226.656 119.517 227.694C119.517 228.732 120.464 229.592 121.607 229.592C122.749 229.592 123.696 228.732 123.696 227.694C123.696 226.656 122.749 225.796 121.607 225.796Z" fill="#A0D591"/>
<path d="M111.185 216.027C109.848 216.027 108.761 217.014 108.761 218.229C108.761 219.444 109.848 220.431 111.185 220.431C112.523 220.431 113.61 219.444 113.61 218.229C113.61 217.014 112.523 216.027 111.185 216.027Z" fill="#A0D591"/>
<path d="M100.736 206.26C99.2315 206.26 98.0055 207.373 98.0055 208.74C98.0055 210.106 99.2315 211.22 100.736 211.22C102.241 211.22 103.467 210.106 103.467 208.74C103.467 207.373 102.241 206.26 100.736 206.26Z" fill="#A0D591"/>
<path d="M90.3155 196.414C88.5766 196.414 87.1669 197.695 87.1669 199.274C87.1669 200.854 88.5766 202.134 90.3155 202.134C92.0544 202.134 93.4641 200.854 93.4641 199.274C93.4641 197.695 92.0544 196.414 90.3155 196.414Z" fill="#A0D591"/>
<path d="M79.8677 187.124C78.2516 187.124 76.9142 188.314 76.9142 189.807C76.9142 191.3 78.2238 192.49 79.8677 192.49C81.5117 192.49 82.8213 191.3 82.8213 189.807C82.8213 188.314 81.5117 187.124 79.8677 187.124Z" fill="#A0D591"/>
<path d="M69.4459 177.485C67.7224 177.485 66.3252 178.754 66.3252 180.319C66.3252 181.885 67.7224 183.154 69.4459 183.154C71.1694 183.154 72.5667 181.885 72.5667 180.319C72.5667 178.754 71.1694 177.485 69.4459 177.485Z" fill="#A0D591"/>
<path d="M59.0241 167.638C57.0736 167.638 55.5132 169.081 55.5132 170.827C55.5132 172.573 57.1015 174.016 59.0241 174.016C60.9467 174.016 62.5349 172.573 62.5349 170.827C62.5349 169.081 60.9467 167.638 59.0241 167.638Z" fill="#A0D591"/>
<path d="M48.5754 158.427C46.7921 158.427 45.3432 159.743 45.3432 161.363C45.3432 162.983 46.7921 164.299 48.5754 164.299C50.3587 164.299 51.8076 162.983 51.8076 161.363C51.8076 159.743 50.3587 158.427 48.5754 158.427Z" fill="#A0D591"/>
<path d="M38.1539 148.886C36.3227 148.886 34.8381 150.234 34.8381 151.898C34.8381 153.561 36.3227 154.909 38.1539 154.909C39.9852 154.909 41.4697 153.561 41.4697 151.898C41.4697 150.234 39.9852 148.886 38.1539 148.886Z" fill="#A0D591"/>
<path d="M27.7058 139.118C25.6996 139.118 24.0557 140.611 24.0557 142.433C24.0557 144.255 25.6996 145.748 27.7058 145.748C29.712 145.748 31.356 144.255 31.356 142.433C31.356 140.611 29.712 139.118 27.7058 139.118Z" fill="#A0D591"/>
<path d="M17.2843 129.679C15.2991 129.679 13.6898 131.14 13.6898 132.943C13.6898 134.746 15.2991 136.208 17.2843 136.208C19.2694 136.208 20.8787 134.746 20.8787 132.943C20.8787 131.14 19.2694 129.679 17.2843 129.679Z" fill="#A0D591"/>
<path d="M6.83622 120.567C5.0808 120.567 3.63188 121.858 3.63188 123.478C3.63188 125.097 5.05294 126.388 6.83622 126.388C8.61949 126.388 10.0405 125.097 10.0405 123.478C10.0405 121.858 8.61949 120.567 6.83622 120.567Z" fill="#A0D591"/>
<path d="M194.638 274.793C194.47 274.793 194.303 274.92 194.303 275.097C194.303 275.274 194.443 275.401 194.638 275.401C194.833 275.401 194.972 275.274 194.972 275.097C194.972 274.92 194.833 274.793 194.638 274.793Z" fill="#A0D591"/>
<path d="M184.216 265.303C184.049 265.303 183.882 265.43 183.882 265.607C183.882 265.784 184.021 265.91 184.216 265.91C184.411 265.91 184.551 265.784 184.551 265.607C184.551 265.43 184.411 265.303 184.216 265.303Z" fill="#A0D591"/>
<path d="M173.767 255.383C173.321 255.383 172.959 255.712 172.959 256.117C172.959 256.522 173.321 256.851 173.767 256.851C174.213 256.851 174.575 256.522 174.575 256.117C174.575 255.712 174.213 255.383 173.767 255.383Z" fill="#A0D591"/>
<path d="M163.346 245.561C162.677 245.561 162.148 246.042 162.148 246.649C162.148 247.256 162.677 247.737 163.346 247.737C164.015 247.737 164.544 247.256 164.544 246.649C164.544 246.042 164.015 245.561 163.346 245.561Z" fill="#A0D591"/>
<path d="M152.926 236.098C152.257 236.098 151.727 236.579 151.727 237.186C151.727 237.794 152.257 238.274 152.926 238.274C153.594 238.274 154.124 237.794 154.124 237.186C154.124 236.579 153.594 236.098 152.926 236.098Z" fill="#A0D591"/>
<path d="M142.477 226.2C141.585 226.2 140.833 226.858 140.833 227.694C140.833 228.529 141.557 229.187 142.477 229.187C143.396 229.187 144.121 228.529 144.121 227.694C144.121 226.858 143.396 226.2 142.477 226.2Z" fill="#A0D591"/>
<path d="M132.056 216.483C130.997 216.483 130.133 217.268 130.133 218.23C130.133 219.191 130.997 219.976 132.056 219.976C133.115 219.976 133.979 219.191 133.979 218.23C133.979 217.268 133.115 216.483 132.056 216.483Z" fill="#A0D591"/>
<path d="M121.606 207.146C120.631 207.146 119.851 207.855 119.851 208.741C119.851 209.627 120.631 210.335 121.606 210.335C122.582 210.335 123.362 209.627 123.362 208.741C123.362 207.855 122.582 207.146 121.606 207.146Z" fill="#A0D591"/>
<path d="M111.185 197.224C109.938 197.224 108.928 198.141 108.928 199.274C108.928 200.406 109.938 201.323 111.185 201.323C112.431 201.323 113.442 200.406 113.442 199.274C113.442 198.141 112.431 197.224 111.185 197.224Z" fill="#A0D591"/>
<path d="M100.736 187.557C99.3709 187.557 98.2842 188.544 98.2842 189.784C98.2842 191.024 99.3709 192.011 100.736 192.011C102.102 192.011 103.188 191.024 103.188 189.784C103.188 188.544 102.102 187.557 100.736 187.557Z" fill="#A0D591"/>
<path d="M90.3162 177.839C88.8081 177.839 87.5856 178.949 87.5856 180.319C87.5856 181.689 88.8081 182.799 90.3162 182.799C91.8243 182.799 93.0469 181.689 93.0469 180.319C93.0469 178.949 91.8243 177.839 90.3162 177.839Z" fill="#A0D591"/>
<path d="M79.867 168.348C78.3624 168.348 77.1364 169.462 77.1364 170.829C77.1364 172.195 78.3624 173.309 79.867 173.309C81.3717 173.309 82.5977 172.195 82.5977 170.829C82.5977 169.462 81.3717 168.348 79.867 168.348Z" fill="#A0D591"/>
<path d="M69.4465 158.806C67.8861 158.806 66.6323 159.945 66.6323 161.362C66.6323 162.779 67.8861 163.918 69.4465 163.918C71.0069 163.918 72.2607 162.779 72.2607 161.362C72.2607 159.945 71.0069 158.806 69.4465 158.806Z" fill="#A0D591"/>
<path d="M59.024 149.215C57.4079 149.215 56.0704 150.404 56.0704 151.898C56.0704 153.391 57.38 154.58 59.024 154.58C60.668 154.58 61.9775 153.391 61.9775 151.898C61.9775 150.404 60.668 149.215 59.024 149.215Z" fill="#A0D591"/>
<path d="M48.5745 139.725C46.9584 139.725 45.621 140.914 45.621 142.407C45.621 143.9 46.9306 145.09 48.5745 145.09C50.2185 145.09 51.5281 143.9 51.5281 142.407C51.5281 140.914 50.2185 139.725 48.5745 139.725Z" fill="#A0D591"/>
<path d="M38.1544 130.259C36.5383 130.259 35.2008 131.448 35.2008 132.942C35.2008 134.435 36.5104 135.624 38.1544 135.624C39.7983 135.624 41.1079 134.435 41.1079 132.942C41.1079 131.448 39.7983 130.259 38.1544 130.259Z" fill="#A0D591"/>
<path d="M27.7066 120.793C26.0905 120.793 24.7531 121.983 24.7531 123.476C24.7531 124.969 26.0626 126.158 27.7066 126.158C29.3506 126.158 30.6602 124.969 30.6602 123.476C30.6602 121.983 29.3506 120.793 27.7066 120.793Z" fill="#A0D591"/>
<path d="M17.2844 111.43C15.7302 111.43 14.4702 112.574 14.4702 113.986C14.4702 115.398 15.7302 116.542 17.2844 116.542C18.8387 116.542 20.0986 115.398 20.0986 113.986C20.0986 112.574 18.8387 111.43 17.2844 111.43Z" fill="#A0D591"/>
<path d="M6.83617 101.94C5.28191 101.94 4.02193 103.084 4.02193 104.496C4.02193 105.907 5.28191 107.052 6.83617 107.052C8.39043 107.052 9.65039 105.907 9.65039 104.496C9.65039 103.084 8.39043 101.94 6.83617 101.94Z" fill="#A0D591"/>
<path d="M194.638 255.863C194.471 255.863 194.36 255.99 194.36 256.116C194.36 256.243 194.499 256.369 194.638 256.369C194.778 256.369 194.917 256.243 194.917 256.116C194.917 255.99 194.778 255.863 194.638 255.863Z" fill="#A0D591"/>
<path d="M184.215 246.497C184.215 246.497 184.047 246.573 184.047 246.649C184.047 246.725 184.131 246.801 184.215 246.801C184.299 246.801 184.383 246.725 184.383 246.649C184.383 246.573 184.299 246.497 184.215 246.497Z" fill="#A0D591"/>
<path d="M173.767 236.552C173.377 236.552 173.071 236.831 173.071 237.185C173.071 237.539 173.377 237.818 173.767 237.818C174.157 237.818 174.464 237.539 174.464 237.185C174.464 236.831 174.157 236.552 173.767 236.552Z" fill="#A0D591"/>
<path d="M163.346 226.733C162.761 226.733 162.287 227.163 162.287 227.695C162.287 228.226 162.761 228.656 163.346 228.656C163.931 228.656 164.405 228.226 164.405 227.695C164.405 227.163 163.931 226.733 163.346 226.733Z" fill="#A0D591"/>
<path d="M152.925 217.394C152.424 217.394 152.034 217.749 152.034 218.204C152.034 218.66 152.424 219.014 152.925 219.014C153.427 219.014 153.817 218.66 153.817 218.204C153.817 217.749 153.427 217.394 152.925 217.394Z" fill="#A0D591"/>
<path d="M142.476 207.625C141.799 207.625 141.25 208.124 141.25 208.739C141.25 209.354 141.799 209.853 142.476 209.853C143.153 209.853 143.702 209.354 143.702 208.739C143.702 208.124 143.153 207.625 142.476 207.625Z" fill="#A0D591"/>
<path d="M132.055 197.681C131.086 197.681 130.3 198.394 130.3 199.275C130.3 200.156 131.086 200.869 132.055 200.869C133.025 200.869 133.811 200.156 133.811 199.275C133.811 198.394 133.025 197.681 132.055 197.681Z" fill="#A0D591"/>
<path d="M121.607 188.391C120.743 188.391 120.047 189.024 120.047 189.809C120.047 190.593 120.743 191.226 121.607 191.226C122.471 191.226 123.167 190.593 123.167 189.809C123.167 189.024 122.471 188.391 121.607 188.391Z" fill="#A0D591"/>
<path d="M111.185 178.724C110.216 178.724 109.43 179.437 109.43 180.318C109.43 181.199 110.216 181.912 111.186 181.912C112.155 181.912 112.941 181.199 112.941 180.318C112.941 179.437 112.155 178.724 111.185 178.724Z" fill="#A0D591"/>
<path d="M100.737 168.804C99.4902 168.804 98.4797 169.721 98.4797 170.854C98.4797 171.986 99.4902 172.904 100.737 172.904C101.983 172.904 102.994 171.986 102.994 170.854C102.994 169.721 101.983 168.804 100.737 168.804Z" fill="#A0D591"/>
<path d="M90.3151 159.161C88.9777 159.161 87.891 160.148 87.891 161.363C87.891 162.577 88.9777 163.564 90.3151 163.564C91.6526 163.564 92.7393 162.577 92.7393 161.363C92.7393 160.148 91.6526 159.161 90.3151 159.161Z" fill="#A0D591"/>
<path d="M79.8673 149.998C78.7248 149.998 77.7775 150.858 77.7775 151.896C77.7775 152.934 78.7248 153.794 79.8673 153.794C81.0097 153.794 81.957 152.934 81.957 151.896C81.957 150.858 81.0097 149.998 79.8673 149.998Z" fill="#A0D591"/>
<path d="M69.4458 140.103C68.0526 140.103 66.9102 141.141 66.9102 142.406C66.9102 143.672 68.0526 144.709 69.4458 144.709C70.839 144.709 71.9814 143.672 71.9814 142.406C71.9814 141.141 70.839 140.103 69.4458 140.103Z" fill="#A0D591"/>
<path d="M59.0249 130.589C57.5937 130.589 56.4336 131.643 56.4336 132.943C56.4336 134.242 57.5937 135.296 59.0249 135.296C60.456 135.296 61.6162 134.242 61.6162 132.943C61.6162 131.643 60.456 130.589 59.0249 130.589Z" fill="#A0D591"/>
<path d="M48.5751 121.426C47.3212 121.426 46.3181 122.337 46.3181 123.476C46.3181 124.615 47.3212 125.526 48.5751 125.526C49.8289 125.526 50.832 124.615 50.832 123.476C50.832 122.337 49.8289 121.426 48.5751 121.426Z" fill="#A0D591"/>
<path d="M38.1547 111.987C36.9287 111.987 35.9535 112.898 35.9535 113.986C35.9535 115.075 36.9287 115.986 38.1547 115.986C39.3807 115.986 40.356 115.1 40.356 113.986C40.356 112.873 39.3807 111.987 38.1547 111.987Z" fill="#A0D591"/>
<path d="M27.7061 102.194C26.3057 102.194 25.1705 103.225 25.1705 104.497C25.1705 105.769 26.3057 106.8 27.7061 106.8C29.1065 106.8 30.2417 105.769 30.2417 104.497C30.2417 103.225 29.1065 102.194 27.7061 102.194Z" fill="#A0D591"/>
<path d="M17.2849 92.8805C15.9753 92.8805 14.9165 93.8422 14.9165 95.0317C14.9165 96.2211 15.9753 97.1829 17.2849 97.1829C18.5945 97.1829 19.6533 96.2211 19.6533 95.0317C19.6533 93.8422 18.5945 92.8805 17.2849 92.8805Z" fill="#A0D591"/>
<path d="M6.83563 83.7436C5.72108 83.7436 4.82943 84.5534 4.82943 85.5658C4.82943 86.5781 5.72108 87.3879 6.83563 87.3879C7.95018 87.3879 8.8418 86.5781 8.8418 85.5658C8.8418 84.5534 7.95018 83.7436 6.83563 83.7436Z" fill="#A0D591"/>
<path d="M194.637 237.033C194.637 237.033 194.469 237.109 194.469 237.185C194.469 237.261 194.553 237.337 194.637 237.337C194.721 237.337 194.805 237.261 194.805 237.185C194.805 237.109 194.721 237.033 194.637 237.033Z" fill="#A0D591"/>
<path d="M184.216 227.672C184.216 227.672 184.188 227.672 184.188 227.697C184.188 227.722 184.188 227.722 184.216 227.722C184.245 227.722 184.245 227.722 184.245 227.697C184.245 227.672 184.245 227.672 184.216 227.672Z" fill="#A0D591"/>
<path d="M173.767 217.823C173.516 217.823 173.321 218 173.321 218.228C173.321 218.456 173.516 218.633 173.767 218.633C174.018 218.633 174.213 218.456 174.213 218.228C174.213 218 174.018 217.823 173.767 217.823Z" fill="#A0D591"/>
<path d="M163.347 208.004C162.9 208.004 162.539 208.332 162.539 208.738C162.539 209.143 162.9 209.472 163.347 209.472C163.793 209.472 164.155 209.143 164.155 208.738C164.155 208.332 163.793 208.004 163.347 208.004Z" fill="#A0D591"/>
<path d="M152.925 198.514C152.479 198.514 152.117 198.843 152.117 199.248C152.117 199.653 152.479 199.982 152.925 199.982C153.371 199.982 153.733 199.653 153.733 199.248C153.733 198.843 153.371 198.514 152.925 198.514Z" fill="#A0D591"/>
<path d="M142.476 188.822C141.892 188.822 141.418 189.253 141.418 189.784C141.418 190.315 141.892 190.745 142.476 190.745C143.061 190.745 143.535 190.315 143.535 189.784C143.535 189.253 143.061 188.822 142.476 188.822Z" fill="#A0D591"/>
<path d="M132.057 179.105C131.304 179.105 130.719 179.662 130.719 180.32C130.719 180.978 131.332 181.534 132.057 181.534C132.781 181.534 133.394 180.978 133.394 180.32C133.394 179.662 132.781 179.105 132.057 179.105Z" fill="#A0D591"/>
<path d="M121.607 169.616C120.855 169.616 120.269 170.172 120.269 170.83C120.269 171.488 120.882 172.045 121.607 172.045C122.331 172.045 122.944 171.488 122.944 170.83C122.944 170.172 122.331 169.616 121.607 169.616Z" fill="#A0D591"/>
<path d="M111.186 159.946C110.322 159.946 109.625 160.579 109.625 161.363C109.625 162.148 110.322 162.781 111.186 162.781C112.049 162.781 112.746 162.148 112.746 161.363C112.746 160.579 112.049 159.946 111.186 159.946Z" fill="#A0D591"/>
<path d="M100.737 150.355C99.8174 150.355 99.0651 151.038 99.0651 151.873C99.0651 152.708 99.8174 153.392 100.737 153.392C101.656 153.392 102.409 152.708 102.409 151.873C102.409 151.038 101.656 150.355 100.737 150.355Z" fill="#A0D591"/>
<path d="M90.316 140.508C89.1618 140.508 88.2262 141.358 88.2262 142.406C88.2262 143.454 89.1618 144.304 90.316 144.304C91.4701 144.304 92.4058 143.454 92.4058 142.406C92.4058 141.358 91.4701 140.508 90.316 140.508Z" fill="#A0D591"/>
<path d="M79.8661 131.273C78.863 131.273 78.0271 132.032 78.0271 132.943C78.0271 133.854 78.863 134.614 79.8661 134.614C80.8692 134.614 81.7051 133.854 81.7051 132.943C81.7051 132.032 80.8692 131.273 79.8661 131.273Z" fill="#A0D591"/>
<path d="M69.4458 121.756C68.4149 121.756 67.5511 122.515 67.5511 123.477C67.5511 124.438 68.387 125.198 69.4458 125.198C70.5047 125.198 71.3406 124.438 71.3406 123.477C71.3406 122.515 70.5047 121.756 69.4458 121.756Z" fill="#A0D591"/>
<path d="M59.0242 112.264C57.9933 112.264 57.1295 113.024 57.1295 113.985C57.1295 114.947 57.9654 115.706 59.0242 115.706C60.083 115.706 60.9189 114.947 60.9189 113.985C60.9189 113.024 60.083 112.264 59.0242 112.264Z" fill="#A0D591"/>
<path d="M48.5755 102.802C47.5445 102.802 46.6807 103.561 46.6807 104.522C46.6807 105.484 47.5167 106.243 48.5755 106.243C49.6343 106.243 50.4702 105.484 50.4702 104.522C50.4702 103.561 49.6343 102.802 48.5755 102.802Z" fill="#A0D591"/>
<path d="M38.1543 93.4345C37.1848 93.4345 36.3989 94.1483 36.3989 95.0289C36.3989 95.9094 37.1848 96.6233 38.1543 96.6233C39.1237 96.6233 39.9097 95.9094 39.9097 95.0289C39.9097 94.1483 39.1237 93.4345 38.1543 93.4345Z" fill="#A0D591"/>
<path d="M27.7061 84.0228C26.7866 84.0228 26.0343 84.7062 26.0343 85.5413C26.0343 86.3765 26.7866 87.0598 27.7061 87.0598C28.6256 87.0598 29.3779 86.3765 29.3779 85.5413C29.3779 84.7062 28.6256 84.0228 27.7061 84.0228Z" fill="#A0D591"/>
<path d="M17.2848 74.2534C16.1769 74.2534 15.2787 75.0692 15.2787 76.0755C15.2787 77.0819 16.1769 77.8977 17.2848 77.8977C18.3928 77.8977 19.291 77.0819 19.291 76.0755C19.291 75.0692 18.3928 74.2534 17.2848 74.2534Z" fill="#A0D591"/>
<path d="M6.83522 65.2171C5.99931 65.2171 5.33058 65.8244 5.33058 66.5837C5.33058 67.3429 5.99931 67.9503 6.83522 67.9503C7.67113 67.9503 8.33984 67.3429 8.33984 66.5837C8.33984 65.8244 7.67113 65.2171 6.83522 65.2171Z" fill="#A0D591"/>
<path d="M173.768 199.02C173.614 199.02 173.489 199.134 173.489 199.274C173.489 199.413 173.614 199.527 173.768 199.527C173.922 199.527 174.046 199.413 174.046 199.274C174.046 199.134 173.922 199.02 173.768 199.02Z" fill="#A0D591"/>
<path d="M163.346 189.228C163.007 189.228 162.732 189.477 162.732 189.784C162.732 190.092 163.007 190.341 163.346 190.341C163.684 190.341 163.958 190.092 163.958 189.784C163.958 189.477 163.684 189.228 163.346 189.228Z" fill="#A0D591"/>
<path d="M152.926 179.914C152.68 179.914 152.48 180.095 152.48 180.319C152.48 180.543 152.68 180.724 152.926 180.724C153.172 180.724 153.372 180.543 153.372 180.319C153.372 180.095 153.172 179.914 152.926 179.914Z" fill="#A0D591"/>
<path d="M142.476 170.07C142.003 170.07 141.613 170.424 141.613 170.854C141.613 171.284 142.003 171.639 142.476 171.639C142.95 171.639 143.34 171.284 143.34 170.854C143.34 170.424 142.95 170.07 142.476 170.07Z" fill="#A0D591"/>
<path d="M132.055 160.4C131.47 160.4 130.997 160.83 130.997 161.362C130.997 161.893 131.47 162.323 132.055 162.323C132.641 162.323 133.114 161.893 133.114 161.362C133.114 160.83 132.641 160.4 132.055 160.4Z" fill="#A0D591"/>
<path d="M121.607 151.138C121.161 151.138 120.799 151.467 120.799 151.872C120.799 152.276 121.161 152.605 121.607 152.605C122.053 152.605 122.415 152.276 122.415 151.872C122.415 151.467 122.053 151.138 121.607 151.138Z" fill="#A0D591"/>
<path d="M111.185 141.294C110.516 141.294 109.959 141.8 109.959 142.407C109.959 143.015 110.516 143.521 111.185 143.521C111.854 143.521 112.411 143.015 112.411 142.407C112.411 141.8 111.854 141.294 111.185 141.294Z" fill="#A0D591"/>
<path d="M100.736 131.677C99.956 131.677 99.343 132.234 99.343 132.943C99.343 133.651 99.956 134.208 100.736 134.208C101.516 134.208 102.129 133.651 102.129 132.943C102.129 132.234 101.516 131.677 100.736 131.677Z" fill="#A0D591"/>
<path d="M90.3157 122.109C89.5077 122.109 88.8389 122.717 88.8389 123.451C88.8389 124.185 89.5077 124.792 90.3157 124.792C91.1238 124.792 91.7925 124.185 91.7925 123.451C91.7925 122.717 91.1238 122.109 90.3157 122.109Z" fill="#A0D591"/>
<path d="M79.8659 112.948C79.225 112.948 78.7235 113.404 78.7235 113.986C78.7235 114.568 79.225 115.024 79.8659 115.024C80.5068 115.024 81.0083 114.568 81.0083 113.986C81.0083 113.404 80.5068 112.948 79.8659 112.948Z" fill="#A0D591"/>
<path d="M69.4456 103.129C68.6146 103.129 67.9409 103.741 67.9409 104.496C67.9409 105.251 68.6146 105.863 69.4456 105.863C70.2765 105.863 70.9502 105.251 70.9502 104.496C70.9502 103.741 70.2765 103.129 69.4456 103.129Z" fill="#A0D591"/>
<path d="M59.0242 93.6906C58.2162 93.6906 57.5474 94.298 57.5474 95.032C57.5474 95.7659 58.2162 96.3733 59.0242 96.3733C59.8323 96.3733 60.501 95.7659 60.501 95.032C60.501 94.298 59.8323 93.6906 59.0242 93.6906Z" fill="#A0D591"/>
<path d="M48.5759 84.5788C47.9908 84.5788 47.5171 85.009 47.5171 85.5405C47.5171 86.072 47.9908 86.5022 48.5759 86.5022C49.1611 86.5022 49.6348 86.0719 49.6348 85.5405C49.6348 85.009 49.1611 84.5788 48.5759 84.5788Z" fill="#A0D591"/>
<path d="M38.1547 74.8597C37.4024 74.8597 36.8173 75.4165 36.8173 76.0745C36.8173 76.7325 37.4303 77.2893 38.1547 77.2893C38.8792 77.2893 39.4922 76.7325 39.4922 76.0745C39.4922 75.4165 38.8792 74.8597 38.1547 74.8597Z" fill="#A0D591"/>
<path d="M27.7059 65.4957C27.0288 65.4957 26.4799 65.9942 26.4799 66.6092C26.4799 67.2242 27.0288 67.7228 27.7059 67.7228C28.383 67.7228 28.9319 67.2242 28.9319 66.6092C28.9319 65.9942 28.383 65.4957 27.7059 65.4957Z" fill="#A0D591"/>
<path d="M17.2849 56.158C16.7002 56.158 16.2261 56.5886 16.2261 57.1197C16.2261 57.6509 16.7002 58.0814 17.2849 58.0814C17.8697 58.0814 18.3437 57.6509 18.3437 57.1197C18.3437 56.5886 17.8697 56.158 17.2849 56.158Z" fill="#A0D591"/>
<path d="M6.83599 47.0976C6.50163 47.0976 6.22299 47.3507 6.22299 47.6544C6.22299 47.9581 6.50163 48.2112 6.83599 48.2112C7.17036 48.2112 7.44897 47.9581 7.44897 47.6544C7.44897 47.3507 7.17036 47.0976 6.83599 47.0976Z" fill="#A0D591"/>
<path d="M163.346 170.424C163.095 170.424 162.9 170.601 162.9 170.829C162.9 171.056 163.095 171.234 163.346 171.234C163.596 171.234 163.792 171.056 163.792 170.829C163.792 170.601 163.596 170.424 163.346 170.424Z" fill="#A0D591"/>
<path d="M152.924 161.211C152.924 161.211 152.756 161.287 152.756 161.364C152.756 161.44 152.84 161.516 152.924 161.516C153.008 161.516 153.092 161.44 153.092 161.364C153.092 161.287 153.008 161.211 152.924 161.211Z" fill="#A0D591"/>
<path d="M142.476 151.542C142.281 151.542 142.114 151.694 142.114 151.871C142.114 152.049 142.281 152.2 142.476 152.2C142.671 152.2 142.838 152.049 142.838 151.871C142.838 151.694 142.671 151.542 142.476 151.542Z" fill="#A0D591"/>
<path d="M132.056 141.672C131.61 141.672 131.248 142.001 131.248 142.406C131.248 142.811 131.61 143.14 132.056 143.14C132.502 143.14 132.864 142.811 132.864 142.406C132.864 142.001 132.502 141.672 132.056 141.672Z" fill="#A0D591"/>
<path d="M121.607 132.461C121.3 132.461 121.077 132.688 121.077 132.942C121.077 133.195 121.328 133.422 121.607 133.422C121.885 133.422 122.136 133.195 122.136 132.942C122.136 132.688 121.885 132.461 121.607 132.461Z" fill="#A0D591"/>
<path d="M111.185 122.869C110.823 122.869 110.544 123.148 110.544 123.451C110.544 123.755 110.851 124.033 111.185 124.033C111.52 124.033 111.826 123.755 111.826 123.451C111.826 123.148 111.52 122.869 111.185 122.869Z" fill="#A0D591"/>
<path d="M100.737 113.328C100.337 113.328 100.013 113.622 100.013 113.986C100.013 114.349 100.337 114.644 100.737 114.644C101.137 114.644 101.462 114.349 101.462 113.986C101.462 113.622 101.137 113.328 100.737 113.328Z" fill="#A0D591"/>
<path d="M90.3151 103.458C89.6743 103.458 89.1727 103.914 89.1727 104.496C89.1727 105.078 89.6743 105.533 90.3151 105.533C90.956 105.533 91.4575 105.078 91.4575 104.496C91.4575 103.914 90.956 103.458 90.3151 103.458Z" fill="#A0D591"/>
<path d="M79.8664 94.3715C79.4484 94.3715 79.1419 94.6752 79.1419 95.0295C79.1419 95.3838 79.4763 95.6875 79.8664 95.6875C80.2565 95.6875 80.5908 95.3838 80.5908 95.0295C80.5908 94.6752 80.2565 94.3715 79.8664 94.3715Z" fill="#A0D591"/>
<path d="M69.4462 84.8808C69.0282 84.8808 68.7217 85.1845 68.7217 85.5388C68.7217 85.8931 69.0561 86.1968 69.4462 86.1968C69.8363 86.1968 70.1707 85.8931 70.1707 85.5388C70.1707 85.1845 69.8363 84.8808 69.4462 84.8808Z" fill="#A0D591"/>
<path d="M59.0247 75.1139C58.4395 75.1139 57.9658 75.5442 57.9658 76.0756C57.9658 76.6071 58.4395 77.0374 59.0247 77.0374C59.6098 77.0374 60.0835 76.6071 60.0835 76.0756C60.0835 75.5442 59.6098 75.1139 59.0247 75.1139Z" fill="#A0D591"/>
<path d="M48.5759 66.0031C48.2137 66.0031 47.9351 66.2814 47.9351 66.5851C47.9351 66.8888 48.2416 67.1672 48.5759 67.1672C48.9103 67.1672 49.2168 66.8888 49.2168 66.5851C49.2168 66.2814 48.9103 66.0031 48.5759 66.0031Z" fill="#A0D591"/>
<path d="M38.1552 56.6644C37.8782 56.6644 37.6536 56.8683 37.6536 57.1199C37.6536 57.3715 37.8782 57.5754 38.1552 57.5754C38.4322 57.5754 38.6567 57.3715 38.6567 57.1199C38.6567 56.8683 38.4322 56.6644 38.1552 56.6644Z" fill="#A0D591"/>
<path d="M27.7054 47.3249C27.5104 47.3249 27.3432 47.4768 27.3432 47.6539C27.3432 47.8311 27.5104 47.9829 27.7054 47.9829C27.9005 47.9829 28.0676 47.8311 28.0676 47.6539C28.0676 47.4768 27.9005 47.3249 27.7054 47.3249Z" fill="#A0D591"/>
<path d="M17.2845 37.6064C16.9501 37.6064 16.6715 37.8595 16.6715 38.1632C16.6715 38.4669 16.9501 38.72 17.2845 38.72C17.6188 38.72 17.8975 38.4669 17.8975 38.1632C17.8975 37.8595 17.6188 37.6064 17.2845 37.6064Z" fill="#A0D591"/>
<path d="M6.83511 28.5963C6.83511 28.5963 6.72318 28.647 6.72318 28.6977C6.72318 28.7484 6.77915 28.7991 6.83511 28.7991C6.89108 28.7991 6.94702 28.7484 6.94702 28.6977C6.94702 28.647 6.89108 28.5963 6.83511 28.5963Z" fill="#A0D591"/>
<path d="M142.476 132.894C142.476 132.894 142.448 132.894 142.448 132.919C142.448 132.944 142.448 132.944 142.476 132.944C142.505 132.944 142.505 132.944 142.505 132.919C142.505 132.894 142.505 132.894 142.476 132.894Z" fill="#A0D591"/>
<path d="M132.055 123.274C132.055 123.274 131.86 123.35 131.86 123.451C131.86 123.552 131.943 123.628 132.055 123.628C132.166 123.628 132.25 123.552 132.25 123.451C132.25 123.35 132.166 123.274 132.055 123.274Z" fill="#A0D591"/>
<path d="M111.185 104.218C111.018 104.218 110.851 104.344 110.851 104.522C110.851 104.699 110.99 104.825 111.185 104.825C111.38 104.825 111.52 104.699 111.52 104.522C111.52 104.344 111.38 104.218 111.185 104.218Z" fill="#A0D591"/>
<path d="M100.736 94.7006C100.541 94.7006 100.374 94.8525 100.374 95.0296C100.374 95.2068 100.541 95.3586 100.736 95.3586C100.931 95.3586 101.099 95.2068 101.099 95.0296C101.099 94.8525 100.931 94.7006 100.736 94.7006Z" fill="#A0D591"/>
<path d="M90.316 85.2114C90.121 85.2114 89.9538 85.3632 89.9538 85.5404C89.9538 85.7175 90.121 85.8694 90.316 85.8694C90.511 85.8694 90.6782 85.7175 90.6782 85.5404C90.6782 85.3632 90.511 85.2114 90.316 85.2114Z" fill="#A0D591"/>
<path d="M79.8665 75.7468C79.6715 75.7468 79.5043 75.8986 79.5043 76.0758C79.5043 76.2529 79.6715 76.4048 79.8665 76.4048C80.0616 76.4048 80.2288 76.2529 80.2288 76.0758C80.2288 75.8986 80.0616 75.7468 79.8665 75.7468Z" fill="#A0D591"/>
<path d="M69.4459 66.3069C69.2612 66.3069 69.1115 66.4429 69.1116 66.6106C69.1116 66.7783 69.2612 66.9143 69.4459 66.9143C69.6306 66.9143 69.7803 66.7783 69.7803 66.6106C69.7803 66.4429 69.6306 66.3069 69.4459 66.3069Z" fill="#A0D591"/>
<path d="M59.0254 56.9409C59.0254 56.9409 58.8304 57.0168 58.8304 57.118C58.8304 57.2192 58.914 57.2952 59.0254 57.2952C59.1369 57.2952 59.2205 57.2192 59.2205 57.118C59.2205 57.0168 59.1369 56.9409 59.0254 56.9409Z" fill="#A0D591"/>
<path d="M38.1546 38.1387C38.1546 38.1387 38.1261 38.1387 38.1261 38.1637C38.1261 38.1887 38.1261 38.1887 38.1546 38.1887C38.1831 38.1887 38.1831 38.1887 38.1831 38.1637C38.1831 38.1387 38.1831 38.1387 38.1546 38.1387Z" fill="#A0D591"/>
</g>
</svg>
