<svg width="174" height="475" viewBox="0 0 174 475" fill="none" xmlns="http://www.w3.org/2000/svg">
<g style="mix-blend-mode:multiply" opacity="0.5">
<path d="M2.48611 8.60747C2.3526 8.30092 2.0093 8.14652 1.73087 8.26778C1.45244 8.38905 1.33167 8.74557 1.46518 9.05212C1.5987 9.35867 1.94199 9.51308 2.22042 9.39181C2.49886 9.27054 2.61963 8.91402 2.48611 8.60747Z" fill="#A0D591"/>
<path d="M2.81891 53.9909C2.40725 53.0457 1.36626 52.557 0.484554 52.941C-0.397152 53.325 -0.759459 54.3945 -0.336665 55.3653C0.0861284 56.336 1.11601 56.7992 1.99771 56.4152C2.87942 56.0312 3.24171 54.9617 2.81891 53.9909Z" fill="#A0D591"/>
<path d="M6.85931 40.8327C6.57003 40.1685 5.84912 39.8442 5.24584 40.107C4.64257 40.3697 4.38896 41.1184 4.67824 41.7826C4.96752 42.4468 5.68843 42.7711 6.29171 42.5083C6.89498 42.2456 7.14859 41.4969 6.85931 40.8327Z" fill="#A0D591"/>
<path d="M10.9811 27.6711C10.8031 27.2623 10.3568 27.0616 9.98559 27.2233C9.61434 27.385 9.45732 27.8485 9.63534 28.2572C9.81336 28.6659 10.2597 28.8667 10.6309 28.705C11.0022 28.5433 11.1591 28.0798 10.9811 27.6711Z" fill="#A0D591"/>
<path d="M15.3947 14.3512C15.2389 13.9935 14.8613 13.8237 14.5365 13.9652C14.2116 14.1067 14.0788 14.4988 14.2345 14.8565C14.3903 15.2141 14.7679 15.384 15.0928 15.2425C15.4176 15.101 15.5504 14.7088 15.3947 14.3512Z" fill="#A0D591"/>
<path d="M19.3753 1.25076C19.3753 1.25076 19.3639 1.22461 19.341 1.2346C19.318 1.24459 19.3181 1.24461 19.3294 1.27075C19.3408 1.29689 19.3408 1.29688 19.3638 1.28689C19.3867 1.27689 19.3867 1.2769 19.3753 1.25076Z" fill="#A0D591"/>
<path d="M2.52266 99.6468C1.99973 98.4461 0.695246 97.8594 -0.395285 98.3344C-1.48581 98.8093 -1.94473 100.164 -1.4218 101.365C-0.898875 102.565 0.405628 103.152 1.49616 102.677C2.58669 102.202 3.04559 100.847 2.52266 99.6468Z" fill="#A0D591"/>
<path d="M6.63532 86.4588C6.22365 85.5136 5.18266 85.0249 4.30096 85.4089C3.41925 85.7929 3.05695 86.8624 3.47974 87.8332C3.90253 88.8039 4.93241 89.2671 5.81412 88.8831C6.69582 88.4991 7.05811 87.4295 6.63532 86.4588Z" fill="#A0D591"/>
<path d="M11.1519 73.1239C10.7403 72.1787 9.69927 71.6899 8.81756 72.0739C7.93586 72.4579 7.57357 73.5275 7.99636 74.4982C8.41915 75.469 9.44901 75.9322 10.3307 75.5482C11.2124 75.1642 11.5747 74.0946 11.1519 73.1239Z" fill="#A0D591"/>
<path d="M15.2139 59.958C14.9135 59.2682 14.1694 58.9541 13.5661 59.2168C12.9628 59.4795 12.6972 60.2639 12.9865 60.9281C13.2757 61.5923 14.031 61.932 14.6342 61.6692C15.2375 61.4065 15.5032 60.6222 15.2139 59.958Z" fill="#A0D591"/>
<path d="M19.3146 46.8057C19.1366 46.397 18.6903 46.1963 18.3191 46.358C17.9479 46.5197 17.7908 46.9831 17.9689 47.3919C18.1469 47.8006 18.5932 48.0013 18.9644 47.8396C19.3356 47.6779 19.4926 47.2145 19.3146 46.8057Z" fill="#A0D591"/>
<path d="M23.8205 33.4465C23.6425 33.0378 23.1962 32.8371 22.8249 32.9988C22.4537 33.1604 22.2967 33.6239 22.4747 34.0326C22.6527 34.4414 23.099 34.6421 23.4702 34.4804C23.8415 34.3187 23.9985 33.8552 23.8205 33.4465Z" fill="#A0D591"/>
<path d="M27.8962 20.3041C27.8348 20.163 27.6811 20.0939 27.5529 20.1498C27.4248 20.2056 27.3707 20.3652 27.4322 20.5062C27.4936 20.6473 27.6473 20.7165 27.7755 20.6607C27.9036 20.6049 27.9577 20.4452 27.8962 20.3041Z" fill="#A0D591"/>
<path d="M2.3557 145.215C1.68813 143.683 0.00602986 142.926 -1.38614 143.532C-2.7783 144.139 -3.37007 145.886 -2.7025 147.418C-2.03493 148.951 -0.352801 149.708 1.03937 149.101C2.43153 148.495 3.02327 146.748 2.3557 145.215Z" fill="#A0D591"/>
<path d="M6.57176 132.012C5.98208 130.659 4.51705 130.02 3.31051 130.546C2.10397 131.071 1.58467 132.604 2.16323 133.933C2.74179 135.261 4.21794 135.925 5.42449 135.399C6.63103 134.874 7.15032 133.341 6.57176 132.012Z" fill="#A0D591"/>
<path d="M10.7531 118.795C10.2554 117.652 9.01046 117.092 7.97248 117.544C6.9345 117.996 6.49656 119.289 6.99429 120.432C7.49202 121.575 8.73695 122.134 9.77493 121.682C10.8129 121.23 11.2509 119.937 10.7531 118.795Z" fill="#A0D591"/>
<path d="M14.8279 105.652C14.4497 104.784 13.4884 104.351 12.6996 104.695C11.9107 105.039 11.5725 106.037 11.9508 106.905C12.3291 107.774 13.2903 108.206 14.0792 107.863C14.8681 107.519 15.2062 106.521 14.8279 105.652Z" fill="#A0D591"/>
<path d="M19.4612 92.2691C19.0607 91.3494 18.0308 90.8862 17.1955 91.2501C16.3602 91.6139 15.9979 92.6834 16.3985 93.603C16.799 94.5227 17.8289 94.9859 18.6642 94.6221C19.4995 94.2583 19.8618 93.1887 19.4612 92.2691Z" fill="#A0D591"/>
<path d="M23.5474 79.0917C23.247 78.402 22.5029 78.0878 21.8996 78.3506C21.2963 78.6133 21.0307 79.3977 21.3199 80.0619C21.6092 80.726 22.3645 81.0658 22.9677 80.803C23.571 80.5403 23.8367 79.7559 23.5474 79.0917Z" fill="#A0D591"/>
<path d="M27.6481 65.9395C27.4701 65.5308 27.0238 65.33 26.6526 65.4917C26.2813 65.6534 26.1243 66.1169 26.3023 66.5257C26.4804 66.9344 26.9267 67.1351 27.2979 66.9734C27.6691 66.8117 27.8261 66.3483 27.6481 65.9395Z" fill="#A0D591"/>
<path d="M32.1535 52.5792C31.9755 52.1704 31.5292 51.9697 31.1579 52.1314C30.7867 52.2931 30.6297 52.7566 30.8077 53.1653C30.9857 53.574 31.432 53.7748 31.8032 53.6131C32.1745 53.4514 32.3315 52.9879 32.1535 52.5792Z" fill="#A0D591"/>
<path d="M36.2292 39.4379C36.1678 39.2968 36.0141 39.2277 35.8859 39.2835C35.7578 39.3393 35.7037 39.4989 35.7652 39.64C35.8266 39.7811 35.9803 39.8503 36.1085 39.7945C36.2366 39.7386 36.2907 39.579 36.2292 39.4379Z" fill="#A0D591"/>
<path d="M1.5741 191.081C0.92878 189.6 -0.695797 188.848 -2.06476 189.445C-3.43372 190.041 -4.00134 191.716 -3.3449 193.224C-2.68845 194.731 -1.07498 195.457 0.293979 194.86C1.66294 194.264 2.23054 192.588 1.5741 191.081Z" fill="#A0D591"/>
<path d="M5.86034 177.849C5.27065 176.495 3.80564 175.857 2.59909 176.382C1.39255 176.908 0.873248 178.441 1.45181 179.769C2.03037 181.098 3.50652 181.762 4.71306 181.236C5.91961 180.711 6.4389 179.178 5.86034 177.849Z" fill="#A0D591"/>
<path d="M10.5513 164.409C9.91706 162.953 8.33794 162.243 7.01538 162.819C5.69282 163.395 5.1373 165.035 5.77149 166.491C6.40568 167.947 7.98481 168.657 9.30736 168.081C10.6299 167.505 11.1854 165.865 10.5513 164.409Z" fill="#A0D591"/>
<path d="M14.6506 151.257C14.1277 150.056 12.8232 149.47 11.7326 149.945C10.6421 150.42 10.1832 151.774 10.7061 152.975C11.2291 154.176 12.5336 154.762 13.6241 154.287C14.7146 153.812 15.1735 152.458 14.6506 151.257Z" fill="#A0D591"/>
<path d="M18.9016 138.009C18.453 136.979 17.331 136.475 16.3955 136.882C15.4601 137.29 15.0654 138.455 15.514 139.485C15.9625 140.515 17.0845 141.019 18.02 140.612C18.9554 140.204 19.3501 139.039 18.9016 138.009Z" fill="#A0D591"/>
<path d="M23.1163 124.807C22.7476 123.961 21.8254 123.546 21.0565 123.881C20.2877 124.216 19.9633 125.173 20.332 126.02C20.7006 126.867 21.6228 127.281 22.3917 126.946C23.1605 126.612 23.485 125.654 23.1163 124.807Z" fill="#A0D591"/>
<path d="M27.6898 111.417C27.3088 110.542 26.3559 110.114 25.5614 110.46C24.7669 110.806 24.4316 111.795 24.8126 112.67C25.1936 113.545 26.1465 113.973 26.941 113.627C27.7355 113.281 28.0707 112.292 27.6898 111.417Z" fill="#A0D591"/>
<path d="M31.7675 98.2746C31.5005 97.6615 30.8482 97.3681 30.2914 97.6107C29.7345 97.8532 29.505 98.5306 29.7721 99.1437C30.0391 99.7568 30.6914 100.05 31.2482 99.8076C31.8051 99.5651 32.0345 98.8877 31.7675 98.2746Z" fill="#A0D591"/>
<path d="M35.9816 85.0733C35.8036 84.6646 35.3573 84.4638 34.9861 84.6255C34.6148 84.7872 34.4578 85.2507 34.6358 85.6594C34.8138 86.0681 35.2602 86.2689 35.6314 86.1072C36.0026 85.9455 36.1596 85.482 35.9816 85.0733Z" fill="#A0D591"/>
<path d="M40.4875 71.714C40.3094 71.3053 39.8631 71.1046 39.4919 71.2663C39.1207 71.428 38.9637 71.8914 39.1417 72.3002C39.3197 72.7089 39.766 72.9096 40.1372 72.748C40.5085 72.5863 40.6655 72.1228 40.4875 71.714Z" fill="#A0D591"/>
<path d="M44.5628 58.5718C44.5013 58.4307 44.3476 58.3615 44.2194 58.4173C44.0913 58.4732 44.0373 58.6328 44.0987 58.7739C44.1602 58.9149 44.3138 58.9841 44.442 58.9282C44.5701 58.8724 44.6242 58.7128 44.5628 58.5718Z" fill="#A0D591"/>
<path d="M0.747787 236.969C0.127162 235.544 -1.42517 234.846 -2.71944 235.41C-4.01371 235.973 -4.55979 237.586 -3.93916 239.011C-3.31854 240.436 -1.76623 241.134 -0.471962 240.57C0.822306 240.006 1.36841 238.394 0.747787 236.969Z" fill="#A0D591"/>
<path d="M5.27611 223.6C4.65548 222.175 3.10315 221.477 1.80888 222.041C0.514611 222.604 -0.0314699 224.216 0.589155 225.641C1.20978 227.066 2.76209 227.765 4.05636 227.201C5.35063 226.637 5.89673 225.025 5.27611 223.6Z" fill="#A0D591"/>
<path d="M9.65427 210.327C9.06459 208.973 7.59958 208.334 6.39304 208.86C5.18649 209.385 4.66719 210.918 5.24574 212.247C5.8243 213.575 7.30046 214.239 8.50701 213.714C9.71355 213.188 10.2328 211.655 9.65427 210.327Z" fill="#A0D591"/>
<path d="M14.0318 197.053C13.4867 195.802 12.1478 195.199 11.0109 195.695C9.87397 196.19 9.40297 197.58 9.94815 198.832C10.4933 200.084 11.8322 200.686 12.9691 200.191C14.106 199.695 14.577 198.305 14.0318 197.053Z" fill="#A0D591"/>
<path d="M18.5353 183.695C17.9901 182.443 16.6513 181.841 15.5143 182.336C14.3774 182.831 13.9064 184.222 14.4516 185.474C14.9967 186.725 16.3356 187.327 17.4725 186.832C18.6095 186.337 19.0804 184.947 18.5353 183.695Z" fill="#A0D591"/>
<path d="M22.8686 170.441C22.3791 169.317 21.1776 168.776 20.1566 169.221C19.1357 169.666 18.713 170.913 19.2026 172.037C19.6921 173.161 20.8936 173.702 21.9146 173.257C22.9355 172.813 23.3582 171.565 22.8686 170.441Z" fill="#A0D591"/>
<path d="M27.1413 157.182C26.7185 156.212 25.6543 155.733 24.7726 156.117C23.8909 156.501 23.5165 157.606 23.9393 158.577C24.3621 159.548 25.4263 160.026 26.308 159.642C27.1897 159.258 27.5641 158.153 27.1413 157.182Z" fill="#A0D591"/>
<path d="M31.2166 144.041C30.9051 143.326 30.1498 142.986 29.5002 143.269C28.8505 143.552 28.5848 144.336 28.8963 145.052C29.2079 145.767 29.9631 146.107 30.6128 145.824C31.2625 145.541 31.5281 144.756 31.2166 144.041Z" fill="#A0D591"/>
<path d="M35.8853 130.611C35.5412 129.821 34.6805 129.434 33.9629 129.747C33.2453 130.059 32.9425 130.953 33.2866 131.743C33.6307 132.533 34.4914 132.92 35.209 132.608C35.9266 132.295 36.2294 131.401 35.8853 130.611Z" fill="#A0D591"/>
<path d="M40.101 117.409C39.834 116.796 39.1817 116.503 38.6249 116.745C38.068 116.988 37.8385 117.665 38.1056 118.278C38.3726 118.892 39.0249 119.185 39.5817 118.942C40.1386 118.7 40.368 118.023 40.101 117.409Z" fill="#A0D591"/>
<path d="M44.1896 104.232C44.0338 103.874 43.6562 103.705 43.3314 103.846C43.0065 103.988 42.8737 104.38 43.0295 104.737C43.1852 105.095 43.5628 105.265 43.8877 105.123C44.2125 104.982 44.3454 104.59 44.1896 104.232Z" fill="#A0D591"/>
<path d="M48.7287 90.8872C48.5729 90.5296 48.1953 90.3597 47.8704 90.5012C47.5456 90.6427 47.4128 91.0348 47.5685 91.3925C47.7243 91.7501 48.1019 91.92 48.4267 91.7785C48.7516 91.637 48.8844 91.2448 48.7287 90.8872Z" fill="#A0D591"/>
<path d="M52.9187 77.6966C52.8519 77.5433 52.6914 77.4917 52.5754 77.5422C52.4594 77.5927 52.399 77.771 52.4546 77.8987C52.5103 78.0264 52.6819 78.1037 52.7979 78.0531C52.9139 78.0026 52.9743 77.8243 52.9187 77.6966Z" fill="#A0D591"/>
<path d="M-0.150168 282.887C-0.721635 281.575 -2.15101 280.932 -3.34276 281.451C-4.53451 281.97 -5.03735 283.455 -4.46588 284.767C-3.89442 286.079 -2.46505 286.722 -1.27329 286.203C-0.0815419 285.684 0.421299 284.199 -0.150168 282.887Z" fill="#A0D591"/>
<path d="M4.07834 269.648C3.57767 268.498 2.34182 267.943 1.29769 268.397C0.253566 268.852 -0.181189 270.136 0.319487 271.285C0.820164 272.435 2.056 272.991 3.10012 272.536C4.14425 272.081 4.57902 270.798 4.07834 269.648Z" fill="#A0D591"/>
<path d="M8.57028 256.325C8.08073 255.201 6.85601 254.671 5.85829 255.106C4.86057 255.54 4.41469 256.798 4.90424 257.922C5.39379 259.046 6.5953 259.587 7.61622 259.142C8.63715 258.697 9.05983 257.45 8.57028 256.325Z" fill="#A0D591"/>
<path d="M13.3769 242.835C12.8178 241.551 11.4191 240.922 10.253 241.43C9.08686 241.938 8.59485 243.39 9.15403 244.674C9.71321 245.958 11.1118 246.587 12.2779 246.079C13.4441 245.571 13.9361 244.119 13.3769 242.835Z" fill="#A0D591"/>
<path d="M17.7541 229.563C17.2312 228.362 15.9267 227.775 14.8362 228.25C13.7456 228.725 13.2867 230.08 13.8096 231.281C14.3326 232.481 15.6371 233.068 16.7276 232.593C17.8182 232.118 18.2771 230.763 17.7541 229.563Z" fill="#A0D591"/>
<path d="M21.9581 216.334C21.5131 215.312 20.4145 214.818 19.4864 215.223C18.5583 215.627 18.1718 216.768 18.6169 217.789C19.0619 218.811 20.1605 219.305 21.0886 218.901C22.0167 218.497 22.4031 217.356 21.9581 216.334Z" fill="#A0D591"/>
<path d="M26.7077 202.899C26.21 201.756 24.9651 201.196 23.9271 201.648C22.8891 202.1 22.4511 203.393 22.9489 204.536C23.4466 205.679 24.6915 206.239 25.7295 205.787C26.7675 205.335 27.2054 204.042 26.7077 202.899Z" fill="#A0D591"/>
<path d="M31.0147 189.657C30.5697 188.635 29.4712 188.141 28.543 188.545C27.6149 188.949 27.2285 190.09 27.6735 191.112C28.1186 192.134 29.2171 192.628 30.1452 192.223C31.0733 191.819 31.4598 190.678 31.0147 189.657Z" fill="#A0D591"/>
<path d="M35.1729 176.448C34.828 175.656 33.9698 175.27 33.2505 175.584C32.5312 175.897 32.2293 176.788 32.5742 177.58C32.9191 178.372 33.7773 178.758 34.4966 178.445C35.2159 178.131 35.5178 177.24 35.1729 176.448Z" fill="#A0D591"/>
<path d="M39.3896 163.247C39.1225 162.634 38.4703 162.341 37.9134 162.583C37.3566 162.826 37.1271 163.503 37.3941 164.116C37.6612 164.729 38.3134 165.023 38.8703 164.78C39.4271 164.538 39.6566 163.86 39.3896 163.247Z" fill="#A0D591"/>
<path d="M44.0789 149.807C43.7674 149.091 43.0121 148.752 42.3625 149.035C41.7128 149.318 41.4471 150.102 41.7586 150.817C42.0702 151.533 42.8254 151.872 43.4751 151.589C44.1248 151.306 44.3904 150.522 44.0789 149.807Z" fill="#A0D591"/>
<path d="M48.1542 136.664C47.965 136.23 47.4844 136.014 47.09 136.186C46.6956 136.358 46.5265 136.857 46.7156 137.291C46.9048 137.725 47.3854 137.941 47.7798 137.77C48.1743 137.598 48.3433 137.099 48.1542 136.664Z" fill="#A0D591"/>
<path d="M52.3582 123.437C52.2469 123.182 51.9723 123.058 51.7402 123.159C51.5082 123.26 51.4116 123.545 51.5229 123.801C51.6341 124.056 51.9087 124.18 52.1408 124.079C52.3728 123.978 52.4694 123.693 52.3582 123.437Z" fill="#A0D591"/>
<path d="M57.0146 110.042C56.8699 109.71 56.5034 109.566 56.225 109.687C55.9465 109.808 55.8137 110.201 55.9472 110.507C56.0807 110.814 56.4583 110.984 56.7368 110.862C57.0152 110.741 57.1481 110.349 57.0146 110.042Z" fill="#A0D591"/>
<path d="M61.1264 96.8545C61.1264 96.8545 60.9896 96.7309 60.9199 96.7613C60.8502 96.7916 60.814 96.899 60.8475 96.976C60.881 97.0529 60.9843 97.0995 61.054 97.0692C61.1237 97.0388 61.1599 96.9315 61.1264 96.8545Z" fill="#A0D591"/>
<path d="M3.24996 315.537C2.7891 314.479 1.63638 313.96 0.675289 314.379C-0.285801 314.797 -0.691318 315.995 -0.230458 317.053C0.230403 318.111 1.38312 318.629 2.34421 318.211C3.3053 317.792 3.71082 316.595 3.24996 315.537Z" fill="#A0D591"/>
<path d="M7.54428 302.268C7.14374 301.348 6.11386 300.885 5.27856 301.249C4.44326 301.613 4.08096 302.682 4.4815 303.602C4.88204 304.522 5.91191 304.985 6.74721 304.621C7.58251 304.257 7.94482 303.188 7.54428 302.268Z" fill="#A0D591"/>
<path d="M12.109 288.914C11.6973 287.969 10.6563 287.48 9.77459 287.864C8.89289 288.248 8.53059 289.317 8.95338 290.288C9.37618 291.259 10.406 291.722 11.2878 291.338C12.1695 290.954 12.5318 289.885 12.109 288.914Z" fill="#A0D591"/>
<path d="M16.649 275.57C16.2373 274.625 15.1963 274.136 14.3146 274.52C13.4329 274.904 13.0706 275.974 13.4934 276.944C13.9162 277.915 14.9461 278.378 15.8278 277.994C16.7095 277.61 17.0718 276.541 16.649 275.57Z" fill="#A0D591"/>
<path d="M21.1534 262.212C20.7417 261.266 19.7007 260.778 18.819 261.162C17.9373 261.546 17.575 262.615 17.9978 263.586C18.4206 264.557 19.4505 265.02 20.3322 264.636C21.2139 264.252 21.5762 263.182 21.1534 262.212Z" fill="#A0D591"/>
<path d="M25.5791 248.917C25.1919 248.028 24.2237 247.593 23.4163 247.944C22.609 248.296 22.2684 249.301 22.6555 250.19C23.0426 251.079 24.0109 251.515 24.8182 251.163C25.6255 250.811 25.9662 249.806 25.5791 248.917Z" fill="#A0D591"/>
<path d="M30.0362 235.58C29.669 234.737 28.7422 234.32 27.9765 234.653C27.2108 234.987 26.8847 235.949 27.2519 236.792C27.619 237.635 28.5459 238.052 29.3116 237.719C30.0773 237.385 30.4034 236.423 30.0362 235.58Z" fill="#A0D591"/>
<path d="M34.8311 222.124C34.3887 221.108 33.2821 220.611 32.3595 221.013C31.4368 221.414 31.0475 222.564 31.4899 223.58C31.9324 224.595 33.039 225.093 33.9616 224.691C34.8843 224.289 35.2736 223.14 34.8311 222.124Z" fill="#A0D591"/>
<path d="M38.9437 208.935C38.6099 208.169 37.786 207.798 37.0899 208.101C36.3938 208.405 36.104 209.26 36.4378 210.027C36.7716 210.793 37.5954 211.164 38.2915 210.86C38.9876 210.557 39.2775 209.702 38.9437 208.935Z" fill="#A0D591"/>
<path d="M43.2973 195.674C43.008 195.009 42.2871 194.685 41.6838 194.948C41.0806 195.211 40.8269 195.959 41.1162 196.623C41.4055 197.288 42.1264 197.612 42.7297 197.349C43.333 197.086 43.5866 196.338 43.2973 195.674Z" fill="#A0D591"/>
<path d="M47.5812 182.441C47.3539 181.919 46.7852 181.663 46.311 181.869C45.8369 182.076 45.6369 182.666 45.8642 183.188C46.0916 183.71 46.6602 183.966 47.1344 183.76C47.6085 183.553 47.8086 182.963 47.5812 182.441Z" fill="#A0D591"/>
<path d="M52.0885 169.08C51.866 168.569 51.3056 168.297 50.8184 168.509C50.3311 168.721 50.1379 169.292 50.3715 169.828C50.6052 170.365 51.1545 170.612 51.6417 170.399C52.129 170.187 52.3222 169.617 52.0885 169.08Z" fill="#A0D591"/>
<path d="M56.3728 155.848C56.206 155.465 55.8051 155.305 55.4803 155.447C55.1555 155.588 55.0105 156.016 55.1663 156.374C55.3221 156.731 55.734 156.917 56.0589 156.775C56.3837 156.634 56.5286 156.206 56.3728 155.848Z" fill="#A0D591"/>
<path d="M60.669 142.581C60.5688 142.351 60.3285 142.243 60.1197 142.334C59.9109 142.425 59.8263 142.675 59.9265 142.905C60.0266 143.135 60.2669 143.243 60.4757 143.152C60.6846 143.061 60.7691 142.811 60.669 142.581Z" fill="#A0D591"/>
<path d="M65.186 129.247C65.0859 129.017 64.8456 128.909 64.6368 129C64.4279 129.091 64.3434 129.341 64.4436 129.571C64.5437 129.801 64.784 129.909 64.9928 129.818C65.2016 129.727 65.2862 129.477 65.186 129.247Z" fill="#A0D591"/>
<path d="M69.3421 116.04C69.3358 116.025 69.3205 116.018 69.3078 116.024C69.2951 116.029 69.2899 116.045 69.2962 116.06C69.3025 116.074 69.3179 116.081 69.3305 116.076C69.3432 116.07 69.3484 116.054 69.3421 116.04Z" fill="#A0D591"/>
<path d="M1.679 361.746C1.44535 361.21 0.86175 360.948 0.374492 361.16C-0.112766 361.372 -0.318061 361.978 -0.0844118 362.514C0.149237 363.051 0.73282 363.313 1.22008 363.101C1.70734 362.889 1.91265 362.283 1.679 361.746Z" fill="#A0D591"/>
<path d="M5.99917 348.469C5.82115 348.06 5.37487 347.859 5.00362 348.021C4.63238 348.183 4.4754 348.646 4.65342 349.055C4.83144 349.464 5.27769 349.664 5.64894 349.503C6.02018 349.341 6.17718 348.878 5.99917 348.469Z" fill="#A0D591"/>
<path d="M10.8628 334.984C10.5958 334.371 9.90924 334.062 9.35238 334.304C8.79551 334.547 8.55397 335.26 8.821 335.873C9.08803 336.486 9.77461 336.795 10.3315 336.552C10.8883 336.31 11.1299 335.597 10.8628 334.984Z" fill="#A0D591"/>
<path d="M15.5076 321.564C15.1961 320.848 14.4409 320.509 13.7912 320.792C13.1415 321.075 12.8758 321.859 13.1873 322.574C13.4989 323.289 14.2541 323.629 14.9038 323.346C15.5535 323.063 15.8192 322.279 15.5076 321.564Z" fill="#A0D591"/>
<path d="M20.1183 308.189C19.7957 307.448 18.9718 307.078 18.2989 307.371C17.626 307.664 17.3362 308.519 17.6589 309.26C17.9815 310.001 18.8054 310.372 19.4783 310.079C20.1512 309.785 20.441 308.93 20.1183 308.189Z" fill="#A0D591"/>
<path d="M24.3444 294.951C24.0885 294.363 23.4706 294.086 22.9369 294.318C22.4032 294.55 22.1859 295.192 22.4418 295.78C22.6977 296.367 23.3156 296.645 23.8493 296.413C24.3829 296.18 24.6003 295.539 24.3444 294.951Z" fill="#A0D591"/>
<path d="M29.1859 281.476C28.854 280.714 28.0241 280.341 27.3321 280.642C26.6401 280.944 26.3481 281.806 26.6799 282.568C27.0118 283.33 27.8417 283.703 28.5337 283.401C29.2257 283.1 29.5177 282.238 29.1859 281.476Z" fill="#A0D591"/>
<path d="M33.6789 268.153C33.3562 267.412 32.5324 267.041 31.8595 267.335C31.1866 267.628 30.8967 268.483 31.2194 269.224C31.5421 269.965 32.366 270.335 33.0388 270.042C33.7117 269.749 34.0016 268.894 33.6789 268.153Z" fill="#A0D591"/>
<path d="M37.8601 254.936C37.6265 254.399 37.0429 254.137 36.5557 254.349C36.0684 254.561 35.8631 255.167 36.0967 255.704C36.3304 256.24 36.914 256.503 37.4012 256.291C37.8885 256.078 38.0938 255.472 37.8601 254.936Z" fill="#A0D591"/>
<path d="M42.6089 241.501C42.3085 240.811 41.5644 240.497 40.9612 240.76C40.3579 241.022 40.0922 241.807 40.3815 242.471C40.6708 243.135 41.426 243.475 42.0293 243.212C42.6325 242.949 42.8982 242.165 42.6089 241.501Z" fill="#A0D591"/>
<path d="M47.022 228.182C46.7517 227.561 46.0754 227.257 45.5115 227.502C44.9477 227.748 44.7098 228.45 44.9802 229.071C45.2505 229.692 45.9268 229.996 46.4907 229.751C47.0545 229.505 47.2924 228.803 47.022 228.182Z" fill="#A0D591"/>
<path d="M51.4222 214.899C51.1886 214.363 50.6046 214.1 50.1177 214.312C49.6307 214.524 49.4252 215.131 49.6588 215.667C49.8923 216.203 50.4763 216.466 50.9632 216.254C51.4502 216.041 51.6557 215.435 51.4222 214.899Z" fill="#A0D591"/>
<path d="M55.5564 201.701C55.4229 201.395 55.0796 201.24 54.8012 201.362C54.5227 201.483 54.402 201.839 54.5355 202.146C54.669 202.452 55.0123 202.607 55.2907 202.486C55.5692 202.364 55.6899 202.008 55.5564 201.701Z" fill="#A0D591"/>
<path d="M60.2589 188.286C60.0807 187.877 59.635 187.677 59.2634 187.838C58.8918 188 58.735 188.463 58.9132 188.872C59.0914 189.281 59.5371 189.482 59.9087 189.32C60.2803 189.158 60.4371 188.695 60.2589 188.286Z" fill="#A0D591"/>
<path d="M64.5434 175.054C64.4266 174.786 64.1346 174.655 63.8911 174.761C63.6476 174.867 63.5449 175.17 63.6616 175.438C63.7784 175.706 64.0704 175.838 64.3139 175.732C64.5574 175.626 64.6601 175.322 64.5434 175.054Z" fill="#A0D591"/>
<path d="M68.6551 161.866C68.6551 161.866 68.6437 161.84 68.6208 161.85C68.5979 161.86 68.5978 161.86 68.6092 161.886C68.6206 161.912 68.6206 161.912 68.6436 161.902C68.6665 161.892 68.6665 161.892 68.6551 161.866Z" fill="#A0D591"/>
<path d="M73.3095 148.473C73.3095 148.473 73.1619 148.324 73.0691 148.364C72.9763 148.405 72.9401 148.512 72.9846 148.614C73.0291 148.716 73.1321 148.763 73.2249 148.722C73.3177 148.682 73.354 148.575 73.3095 148.473Z" fill="#A0D591"/>
<path d="M4.98439 394.437C4.88426 394.207 4.64395 394.099 4.43512 394.19C4.2263 394.281 4.14177 394.53 4.2419 394.76C4.34204 394.99 4.58233 395.098 4.79116 395.007C4.99998 394.916 5.08453 394.667 4.98439 394.437Z" fill="#A0D591"/>
<path d="M9.26899 381.204C9.26899 381.204 9.13221 381.08 9.06249 381.111C8.99276 381.141 8.95657 381.248 8.99009 381.325C9.02361 381.402 9.12685 381.449 9.19657 381.419C9.2663 381.388 9.30251 381.281 9.26899 381.204Z" fill="#A0D591"/>
<path d="M13.9616 367.763C13.8837 367.585 13.6777 367.492 13.5153 367.563C13.3529 367.633 13.2804 367.847 13.3583 368.026C13.4362 368.205 13.6421 368.298 13.8046 368.227C13.967 368.156 14.0394 367.942 13.9616 367.763Z" fill="#A0D591"/>
<path d="M18.8498 354.27C18.6718 353.861 18.2255 353.66 17.8542 353.822C17.483 353.984 17.326 354.447 17.504 354.856C17.682 355.264 18.1283 355.465 18.4995 355.303C18.8708 355.142 19.0278 354.678 18.8498 354.27Z" fill="#A0D591"/>
<path d="M23.1225 341.01C23.0001 340.729 22.7022 340.616 22.4702 340.717C22.2382 340.818 22.1295 341.139 22.2408 341.394C22.352 341.65 22.661 341.789 22.893 341.688C23.125 341.587 23.2337 341.266 23.1225 341.01Z" fill="#A0D591"/>
<path d="M27.7548 327.626C27.6102 327.294 27.2437 327.15 26.9652 327.271C26.6868 327.392 26.5539 327.784 26.6875 328.091C26.821 328.398 27.1986 328.567 27.477 328.446C27.7555 328.325 27.8883 327.933 27.7548 327.626Z" fill="#A0D591"/>
<path d="M32.3308 314.238C32.1711 313.871 31.7714 313.691 31.4383 313.836C31.1051 313.982 30.9645 314.397 31.1243 314.763C31.2841 315.13 31.6837 315.31 32.0168 315.165C32.35 315.02 32.4906 314.605 32.3308 314.238Z" fill="#A0D591"/>
<path d="M37.2175 300.742C36.9616 300.154 36.3436 299.877 35.81 300.109C35.2763 300.341 35.0589 300.983 35.3148 301.571C35.5707 302.158 36.1886 302.436 36.7223 302.204C37.256 301.971 37.4734 301.33 37.2175 300.742Z" fill="#A0D591"/>
<path d="M41.3762 287.534C41.2094 287.151 40.8085 286.991 40.4837 287.132C40.1589 287.274 40.0139 287.702 40.1697 288.059C40.3255 288.417 40.7374 288.602 41.0623 288.461C41.3871 288.319 41.532 287.891 41.3762 287.534Z" fill="#A0D591"/>
<path d="M45.9168 274.19C45.7499 273.807 45.3491 273.647 45.0242 273.789C44.6994 273.93 44.5545 274.358 44.7102 274.716C44.866 275.073 45.2779 275.258 45.6028 275.117C45.9276 274.976 46.0725 274.548 45.9168 274.19Z" fill="#A0D591"/>
<path d="M50.7098 260.736C50.4761 260.199 49.8925 259.937 49.4053 260.149C48.918 260.361 48.7127 260.967 48.9463 261.504C49.18 262.04 49.7636 262.303 50.2509 262.09C50.7381 261.878 50.9434 261.272 50.7098 260.736Z" fill="#A0D591"/>
<path d="M54.891 247.518C54.7464 247.186 54.3799 247.041 54.1015 247.163C53.823 247.284 53.6902 247.676 53.8237 247.983C53.9572 248.289 54.3348 248.459 54.6133 248.338C54.8917 248.216 55.0245 247.824 54.891 247.518Z" fill="#A0D591"/>
<path d="M59.2918 234.235C59.1812 233.981 58.9045 233.856 58.6738 233.957C58.4432 234.057 58.3459 234.345 58.4565 234.599C58.5671 234.853 58.8437 234.977 59.0744 234.877C59.3051 234.776 59.4024 234.489 59.2918 234.235Z" fill="#A0D591"/>
<path d="M63.6813 220.926C63.6034 220.747 63.3974 220.654 63.235 220.725C63.0726 220.796 63.0001 221.009 63.078 221.188C63.1559 221.367 63.3619 221.46 63.5243 221.389C63.6867 221.318 63.7592 221.104 63.6813 220.926Z" fill="#A0D591"/>
<path d="M68.4304 207.49C68.2969 207.184 67.9536 207.029 67.6752 207.151C67.3968 207.272 67.276 207.628 67.4095 207.935C67.543 208.242 67.8863 208.396 68.1647 208.275C68.4432 208.153 68.564 207.797 68.4304 207.49Z" fill="#A0D591"/>
<path d="M72.5187 194.312C72.5187 194.312 72.4275 194.23 72.381 194.25C72.3346 194.27 72.3104 194.342 72.3328 194.393C72.3551 194.445 72.4239 194.476 72.4704 194.455C72.5169 194.435 72.541 194.364 72.5187 194.312Z" fill="#A0D591"/>
<path d="M81.5028 167.667C81.5028 167.667 81.4914 167.64 81.4684 167.65C81.4455 167.66 81.4455 167.66 81.4569 167.687C81.4683 167.713 81.4682 167.713 81.4912 167.703C81.5141 167.693 81.5142 167.693 81.5028 167.667Z" fill="#A0D591"/>
<path d="M31.0594 360.317C31.0594 360.317 31.048 360.291 31.0251 360.301C31.0021 360.311 31.0021 360.311 31.0135 360.337C31.0249 360.363 31.0249 360.363 31.0479 360.353C31.0708 360.343 31.0708 360.343 31.0594 360.317Z" fill="#A0D591"/>
<path d="M35.7177 346.922C35.7177 346.922 35.5702 346.773 35.4774 346.814C35.3845 346.854 35.3483 346.961 35.3928 347.063C35.4373 347.165 35.5403 347.212 35.6331 347.171C35.7259 347.131 35.7622 347.024 35.7177 346.922Z" fill="#A0D591"/>
<path d="M44.8545 320.178C44.7877 320.025 44.605 319.922 44.4426 319.993C44.2801 320.064 44.2198 320.242 44.2976 320.421C44.3755 320.6 44.5472 320.677 44.7096 320.606C44.872 320.535 44.9324 320.357 44.8545 320.178Z" fill="#A0D591"/>
<path d="M49.4079 306.799C49.33 306.62 49.124 306.527 48.9616 306.598C48.7992 306.669 48.7267 306.883 48.8046 307.061C48.8825 307.24 49.0884 307.333 49.2509 307.262C49.4133 307.191 49.4857 306.977 49.4079 306.799Z" fill="#A0D591"/>
<path d="M53.9474 293.456C53.8695 293.277 53.6636 293.184 53.5011 293.255C53.3387 293.326 53.2662 293.54 53.3441 293.719C53.422 293.897 53.628 293.99 53.7904 293.919C53.9528 293.849 54.0253 293.635 53.9474 293.456Z" fill="#A0D591"/>
<path d="M58.4518 280.096C58.3739 279.918 58.1679 279.825 58.0055 279.896C57.8431 279.966 57.7706 280.18 57.8485 280.359C57.9264 280.538 58.1324 280.631 58.2948 280.56C58.4572 280.489 58.5297 280.275 58.4518 280.096Z" fill="#A0D591"/>
<path d="M62.9453 266.773C62.8716 266.604 62.6872 266.521 62.5334 266.588C62.3796 266.655 62.3147 266.846 62.3885 267.016C62.4622 267.185 62.6466 267.268 62.8004 267.201C62.9542 267.134 63.0191 266.942 62.9453 266.773Z" fill="#A0D591"/>
<path d="M67.3715 253.479C67.3715 253.479 67.224 253.331 67.1312 253.371C67.0384 253.412 67.0021 253.519 67.0466 253.621C67.0911 253.723 67.1941 253.769 67.2869 253.729C67.3797 253.689 67.416 253.582 67.3715 253.479Z" fill="#A0D591"/>
<path d="M76.2762 226.837C76.2762 226.837 76.2648 226.81 76.2419 226.82C76.2189 226.83 76.2189 226.83 76.2303 226.857C76.2417 226.883 76.2417 226.883 76.2646 226.873C76.2876 226.863 76.2876 226.863 76.2762 226.837Z" fill="#A0D591"/>
</g>
</svg>
