<svg width="388" height="69" viewBox="0 0 388 69" fill="none" xmlns="http://www.w3.org/2000/svg">
<g filter="url(#filter0_d_202_4906)">
<path d="M1.00828 5.99894C1.00886 3.23793 3.24727 1 6.00828 1H382C384.761 1 387 3.23858 387 6V39.8856C387 42.9756 384.653 45.5603 381.578 45.8578L195.925 63.8138C194.645 63.9376 193.355 63.9376 192.075 63.8138L6.42356 45.8579C3.34745 45.5604 1.00052 42.975 1.00117 39.8845L1.00828 5.99894Z" fill="#342E72"/>
<path d="M382 0.5C385.038 0.5 387.5 2.96243 387.5 6V39.8857C387.5 43.2331 384.958 46.0331 381.626 46.3555L195.974 64.3115C194.661 64.4385 193.339 64.4385 192.026 64.3115L6.375 46.3555C3.04289 46.033 0.500464 43.2325 0.500977 39.8848L0.507812 5.99902C0.50845 2.96206 2.97091 0.500253 6.00781 0.5H382Z" stroke="black"/>
</g>
<path d="M6.02612 1.5H381.974C384.459 1.5 386.473 3.51357 386.474 5.99805L386.489 36.9717C386.49 39.2869 384.734 41.2254 382.429 41.4521L195.91 59.8096C194.64 59.9346 193.361 59.9345 192.091 59.8096L5.57104 41.4521C3.26691 41.2254 1.51056 39.2869 1.51147 36.9717L1.52612 5.99805C1.52724 3.59114 3.41766 1.62619 5.79468 1.50586L6.02612 1.5Z" fill="url(#paint0_linear_202_4906)"/>
<path d="M6.02612 1.5H381.974C384.459 1.5 386.473 3.51357 386.474 5.99805L386.489 36.9717C386.49 39.2869 384.734 41.2254 382.429 41.4521L195.91 59.8096C194.64 59.9346 193.361 59.9345 192.091 59.8096L5.57104 41.4521C3.26691 41.2254 1.51056 39.2869 1.51147 36.9717L1.52612 5.99805C1.52724 3.59114 3.41766 1.62619 5.79468 1.50586L6.02612 1.5Z" stroke="#D2BFFF" style="mix-blend-mode:hard-light"/>
<path style="mix-blend-mode:hard-light" d="M382.037 2.16699C384.245 2.16699 386.036 3.95673 386.037 6.16504L386.04 13.3281C348.487 17.8037 276.561 20.834 194 20.834C111.438 20.834 39.5114 17.8038 1.95898 13.3281L1.96289 6.16504C1.96406 3.95673 3.75458 2.16699 5.96289 2.16699H382.037Z" fill="url(#paint1_radial_202_4906)" fill-opacity="0.25"/>
<g filter="url(#filter1_ddd_202_4906)">
<mask id="path-5-outside-1_202_4906" maskUnits="userSpaceOnUse" x="62" y="16" width="264" height="17" fill="black">
<rect fill="white" x="62" y="16" width="264" height="17"/>
<path d="M69.8132 31.3C65.5732 31.3 63.4532 28.9867 63.4532 24.36C63.4532 22.04 63.9999 20.2733 65.0932 19.06C66.1999 17.8333 67.7999 17.22 69.8932 17.22C70.5065 17.22 71.1065 17.2733 71.6932 17.38C72.2932 17.4867 72.8332 17.64 73.3132 17.84L72.6532 20.64C72.2265 20.52 71.8199 20.4267 71.4332 20.36C71.0465 20.2933 70.6999 20.26 70.3932 20.26C69.3799 20.26 68.6332 20.6 68.1532 21.28C67.6865 21.9467 67.4532 22.9933 67.4532 24.42C67.4532 25.78 67.6865 26.76 68.1532 27.36C68.6199 27.96 69.3799 28.26 70.4332 28.26C70.7932 28.26 71.1732 28.2267 71.5732 28.16C71.9865 28.0933 72.3999 28 72.8132 27.88L73.4732 30.66C73.0465 30.86 72.5065 31.0133 71.8532 31.12C71.2132 31.24 70.5332 31.3 69.8132 31.3ZM80.1902 31.3C78.1769 31.3 76.6436 30.7 75.5902 29.5C74.5369 28.3 74.0102 26.5533 74.0102 24.26C74.0102 21.9667 74.5369 20.22 75.5902 19.02C76.6436 17.82 78.1769 17.22 80.1902 17.22C82.2036 17.22 83.7369 17.82 84.7902 19.02C85.8436 20.22 86.3702 21.9667 86.3702 24.26C86.3702 26.5533 85.8436 28.3 84.7902 29.5C83.7369 30.7 82.2036 31.3 80.1902 31.3ZM80.1902 28.26C80.9769 28.26 81.5369 27.96 81.8702 27.36C82.2036 26.7467 82.3702 25.7133 82.3702 24.26C82.3702 22.8067 82.2036 21.78 81.8702 21.18C81.5369 20.5667 80.9769 20.26 80.1902 20.26C79.4036 20.26 78.8436 20.5667 78.5102 21.18C78.1769 21.78 78.0102 22.8067 78.0102 24.26C78.0102 25.7133 78.1769 26.7467 78.5102 27.36C78.8436 27.96 79.4036 28.26 80.1902 28.26ZM88.1941 31V17.52H92.5941L95.6541 25.18L98.7341 17.52H103.014V31H99.6941V22.34L97.0941 28.84H94.1341L91.5341 22.48V31H88.1941ZM105.411 31V17.52H110.831C114.311 17.52 116.051 19.08 116.051 22.2C116.051 25.32 114.311 26.88 110.831 26.88H109.111V31H105.411ZM110.391 20.3H109.111V24.1H110.391C111.058 24.1 111.545 23.9467 111.851 23.64C112.158 23.3333 112.311 22.8533 112.311 22.2C112.311 21.5333 112.158 21.0533 111.851 20.76C111.545 20.4533 111.058 20.3 110.391 20.3ZM117.629 31V17.52H121.469V27.92H126.189V31H117.629ZM128.01 31V17.52H137.05V20.44H131.71V22.72H136.03V25.64H131.71V28.08H137.13V31H128.01ZM141.493 31V20.56H138.193V17.52H148.633V20.56H145.333V31H141.493ZM150.081 31V17.52H159.121V20.44H153.781V22.72H158.101V25.64H153.781V28.08H159.201V31H150.081ZM168.412 31.3C166.826 31.3 165.372 31.04 164.052 30.52L164.752 27.6C165.272 27.8 165.826 27.96 166.412 28.08C167.012 28.1867 167.572 28.24 168.092 28.24C168.866 28.24 169.419 28.14 169.752 27.94C170.099 27.74 170.272 27.4133 170.272 26.96C170.272 26.4133 169.966 26.08 169.352 25.96L167.572 25.6C165.359 25.1467 164.252 23.82 164.252 21.62C164.252 20.2467 164.706 19.1733 165.612 18.4C166.519 17.6133 167.766 17.22 169.352 17.22C170.939 17.22 172.352 17.46 173.592 17.94L172.872 20.8C171.952 20.44 170.872 20.26 169.632 20.26C168.406 20.26 167.792 20.64 167.792 21.4C167.792 21.96 168.146 22.3067 168.852 22.44L170.372 22.74C171.599 22.9933 172.499 23.4467 173.072 24.1C173.659 24.7533 173.952 25.6533 173.952 26.8C173.952 28.32 173.499 29.4533 172.592 30.2C171.686 30.9333 170.292 31.3 168.412 31.3ZM175.619 31V17.52H179.459V31H175.619ZM181.86 31V17.52H186.26L189.32 25.18L192.4 17.52H196.68V31H193.36V22.34L190.76 28.84H187.8L185.2 22.48V31H181.86ZM199.077 31V17.52H204.497C207.977 17.52 209.717 19.08 209.717 22.2C209.717 25.32 207.977 26.88 204.497 26.88H202.777V31H199.077ZM204.057 20.3H202.777V24.1H204.057C204.724 24.1 205.21 23.9467 205.517 23.64C205.824 23.3333 205.977 22.8533 205.977 22.2C205.977 21.5333 205.824 21.0533 205.517 20.76C205.21 20.4533 204.724 20.3 204.057 20.3ZM211.294 31V17.52H215.134V27.92H219.854V31H211.294ZM221.675 31V17.52H230.715V20.44H225.375V22.72H229.695V25.64H225.375V28.08H230.795V31H221.675ZM236.227 31V17.52H240.627L243.687 25.18L246.767 17.52H251.047V31H247.727V22.34L245.127 28.84H242.167L239.567 22.48V31H236.227ZM253.444 31V17.52H257.284V31H253.444ZM263.465 31.3C261.878 31.3 260.425 31.04 259.105 30.52L259.805 27.6C260.325 27.8 260.878 27.96 261.465 28.08C262.065 28.1867 262.625 28.24 263.145 28.24C263.918 28.24 264.471 28.14 264.805 27.94C265.151 27.74 265.325 27.4133 265.325 26.96C265.325 26.4133 265.018 26.08 264.405 25.96L262.625 25.6C260.411 25.1467 259.305 23.82 259.305 21.62C259.305 20.2467 259.758 19.1733 260.665 18.4C261.571 17.6133 262.818 17.22 264.405 17.22C265.991 17.22 267.405 17.46 268.645 17.94L267.925 20.8C267.005 20.44 265.925 20.26 264.685 20.26C263.458 20.26 262.845 20.64 262.845 21.4C262.845 21.96 263.198 22.3067 263.905 22.44L265.425 22.74C266.651 22.9933 267.551 23.4467 268.125 24.1C268.711 24.7533 269.005 25.6533 269.005 26.8C269.005 28.32 268.551 29.4533 267.645 30.2C266.738 30.9333 265.345 31.3 263.465 31.3ZM274.256 31.3C272.67 31.3 271.216 31.04 269.896 30.52L270.596 27.6C271.116 27.8 271.67 27.96 272.256 28.08C272.856 28.1867 273.416 28.24 273.936 28.24C274.71 28.24 275.263 28.14 275.596 27.94C275.943 27.74 276.116 27.4133 276.116 26.96C276.116 26.4133 275.81 26.08 275.196 25.96L273.416 25.6C271.203 25.1467 270.096 23.82 270.096 21.62C270.096 20.2467 270.55 19.1733 271.456 18.4C272.363 17.6133 273.61 17.22 275.196 17.22C276.783 17.22 278.196 17.46 279.436 17.94L278.716 20.8C277.796 20.44 276.716 20.26 275.476 20.26C274.25 20.26 273.636 20.64 273.636 21.4C273.636 21.96 273.99 22.3067 274.696 22.44L276.216 22.74C277.443 22.9933 278.343 23.4467 278.916 24.1C279.503 24.7533 279.796 25.6533 279.796 26.8C279.796 28.32 279.343 29.4533 278.436 30.2C277.53 30.9333 276.136 31.3 274.256 31.3ZM281.463 31V17.52H285.303V31H281.463ZM293.304 31.3C291.29 31.3 289.757 30.7 288.704 29.5C287.65 28.3 287.124 26.5533 287.124 24.26C287.124 21.9667 287.65 20.22 288.704 19.02C289.757 17.82 291.29 17.22 293.304 17.22C295.317 17.22 296.85 17.82 297.904 19.02C298.957 20.22 299.484 21.9667 299.484 24.26C299.484 26.5533 298.957 28.3 297.904 29.5C296.85 30.7 295.317 31.3 293.304 31.3ZM293.304 28.26C294.09 28.26 294.65 27.96 294.984 27.36C295.317 26.7467 295.484 25.7133 295.484 24.26C295.484 22.8067 295.317 21.78 294.984 21.18C294.65 20.5667 294.09 20.26 293.304 20.26C292.517 20.26 291.957 20.5667 291.624 21.18C291.29 21.78 291.124 22.8067 291.124 24.26C291.124 25.7133 291.29 26.7467 291.624 27.36C291.957 27.96 292.517 28.26 293.304 28.26ZM301.307 31V17.52H305.307L309.647 25.96V17.52H312.987V31H308.987L304.647 22.56V31H301.307ZM319.16 31.3C317.573 31.3 316.12 31.04 314.8 30.52L315.5 27.6C316.02 27.8 316.573 27.96 317.16 28.08C317.76 28.1867 318.32 28.24 318.84 28.24C319.613 28.24 320.167 28.14 320.5 27.94C320.847 27.74 321.02 27.4133 321.02 26.96C321.02 26.4133 320.713 26.08 320.1 25.96L318.32 25.6C316.107 25.1467 315 23.82 315 21.62C315 20.2467 315.453 19.1733 316.36 18.4C317.267 17.6133 318.513 17.22 320.1 17.22C321.687 17.22 323.1 17.46 324.34 17.94L323.62 20.8C322.7 20.44 321.62 20.26 320.38 20.26C319.153 20.26 318.54 20.64 318.54 21.4C318.54 21.96 318.893 22.3067 319.6 22.44L321.12 22.74C322.347 22.9933 323.247 23.4467 323.82 24.1C324.407 24.7533 324.7 25.6533 324.7 26.8C324.7 28.32 324.247 29.4533 323.34 30.2C322.433 30.9333 321.04 31.3 319.16 31.3Z"/>
</mask>
<path d="M69.8132 31.3C65.5732 31.3 63.4532 28.9867 63.4532 24.36C63.4532 22.04 63.9999 20.2733 65.0932 19.06C66.1999 17.8333 67.7999 17.22 69.8932 17.22C70.5065 17.22 71.1065 17.2733 71.6932 17.38C72.2932 17.4867 72.8332 17.64 73.3132 17.84L72.6532 20.64C72.2265 20.52 71.8199 20.4267 71.4332 20.36C71.0465 20.2933 70.6999 20.26 70.3932 20.26C69.3799 20.26 68.6332 20.6 68.1532 21.28C67.6865 21.9467 67.4532 22.9933 67.4532 24.42C67.4532 25.78 67.6865 26.76 68.1532 27.36C68.6199 27.96 69.3799 28.26 70.4332 28.26C70.7932 28.26 71.1732 28.2267 71.5732 28.16C71.9865 28.0933 72.3999 28 72.8132 27.88L73.4732 30.66C73.0465 30.86 72.5065 31.0133 71.8532 31.12C71.2132 31.24 70.5332 31.3 69.8132 31.3ZM80.1902 31.3C78.1769 31.3 76.6436 30.7 75.5902 29.5C74.5369 28.3 74.0102 26.5533 74.0102 24.26C74.0102 21.9667 74.5369 20.22 75.5902 19.02C76.6436 17.82 78.1769 17.22 80.1902 17.22C82.2036 17.22 83.7369 17.82 84.7902 19.02C85.8436 20.22 86.3702 21.9667 86.3702 24.26C86.3702 26.5533 85.8436 28.3 84.7902 29.5C83.7369 30.7 82.2036 31.3 80.1902 31.3ZM80.1902 28.26C80.9769 28.26 81.5369 27.96 81.8702 27.36C82.2036 26.7467 82.3702 25.7133 82.3702 24.26C82.3702 22.8067 82.2036 21.78 81.8702 21.18C81.5369 20.5667 80.9769 20.26 80.1902 20.26C79.4036 20.26 78.8436 20.5667 78.5102 21.18C78.1769 21.78 78.0102 22.8067 78.0102 24.26C78.0102 25.7133 78.1769 26.7467 78.5102 27.36C78.8436 27.96 79.4036 28.26 80.1902 28.26ZM88.1941 31V17.52H92.5941L95.6541 25.18L98.7341 17.52H103.014V31H99.6941V22.34L97.0941 28.84H94.1341L91.5341 22.48V31H88.1941ZM105.411 31V17.52H110.831C114.311 17.52 116.051 19.08 116.051 22.2C116.051 25.32 114.311 26.88 110.831 26.88H109.111V31H105.411ZM110.391 20.3H109.111V24.1H110.391C111.058 24.1 111.545 23.9467 111.851 23.64C112.158 23.3333 112.311 22.8533 112.311 22.2C112.311 21.5333 112.158 21.0533 111.851 20.76C111.545 20.4533 111.058 20.3 110.391 20.3ZM117.629 31V17.52H121.469V27.92H126.189V31H117.629ZM128.01 31V17.52H137.05V20.44H131.71V22.72H136.03V25.64H131.71V28.08H137.13V31H128.01ZM141.493 31V20.56H138.193V17.52H148.633V20.56H145.333V31H141.493ZM150.081 31V17.52H159.121V20.44H153.781V22.72H158.101V25.64H153.781V28.08H159.201V31H150.081ZM168.412 31.3C166.826 31.3 165.372 31.04 164.052 30.52L164.752 27.6C165.272 27.8 165.826 27.96 166.412 28.08C167.012 28.1867 167.572 28.24 168.092 28.24C168.866 28.24 169.419 28.14 169.752 27.94C170.099 27.74 170.272 27.4133 170.272 26.96C170.272 26.4133 169.966 26.08 169.352 25.96L167.572 25.6C165.359 25.1467 164.252 23.82 164.252 21.62C164.252 20.2467 164.706 19.1733 165.612 18.4C166.519 17.6133 167.766 17.22 169.352 17.22C170.939 17.22 172.352 17.46 173.592 17.94L172.872 20.8C171.952 20.44 170.872 20.26 169.632 20.26C168.406 20.26 167.792 20.64 167.792 21.4C167.792 21.96 168.146 22.3067 168.852 22.44L170.372 22.74C171.599 22.9933 172.499 23.4467 173.072 24.1C173.659 24.7533 173.952 25.6533 173.952 26.8C173.952 28.32 173.499 29.4533 172.592 30.2C171.686 30.9333 170.292 31.3 168.412 31.3ZM175.619 31V17.52H179.459V31H175.619ZM181.86 31V17.52H186.26L189.32 25.18L192.4 17.52H196.68V31H193.36V22.34L190.76 28.84H187.8L185.2 22.48V31H181.86ZM199.077 31V17.52H204.497C207.977 17.52 209.717 19.08 209.717 22.2C209.717 25.32 207.977 26.88 204.497 26.88H202.777V31H199.077ZM204.057 20.3H202.777V24.1H204.057C204.724 24.1 205.21 23.9467 205.517 23.64C205.824 23.3333 205.977 22.8533 205.977 22.2C205.977 21.5333 205.824 21.0533 205.517 20.76C205.21 20.4533 204.724 20.3 204.057 20.3ZM211.294 31V17.52H215.134V27.92H219.854V31H211.294ZM221.675 31V17.52H230.715V20.44H225.375V22.72H229.695V25.64H225.375V28.08H230.795V31H221.675ZM236.227 31V17.52H240.627L243.687 25.18L246.767 17.52H251.047V31H247.727V22.34L245.127 28.84H242.167L239.567 22.48V31H236.227ZM253.444 31V17.52H257.284V31H253.444ZM263.465 31.3C261.878 31.3 260.425 31.04 259.105 30.52L259.805 27.6C260.325 27.8 260.878 27.96 261.465 28.08C262.065 28.1867 262.625 28.24 263.145 28.24C263.918 28.24 264.471 28.14 264.805 27.94C265.151 27.74 265.325 27.4133 265.325 26.96C265.325 26.4133 265.018 26.08 264.405 25.96L262.625 25.6C260.411 25.1467 259.305 23.82 259.305 21.62C259.305 20.2467 259.758 19.1733 260.665 18.4C261.571 17.6133 262.818 17.22 264.405 17.22C265.991 17.22 267.405 17.46 268.645 17.94L267.925 20.8C267.005 20.44 265.925 20.26 264.685 20.26C263.458 20.26 262.845 20.64 262.845 21.4C262.845 21.96 263.198 22.3067 263.905 22.44L265.425 22.74C266.651 22.9933 267.551 23.4467 268.125 24.1C268.711 24.7533 269.005 25.6533 269.005 26.8C269.005 28.32 268.551 29.4533 267.645 30.2C266.738 30.9333 265.345 31.3 263.465 31.3ZM274.256 31.3C272.67 31.3 271.216 31.04 269.896 30.52L270.596 27.6C271.116 27.8 271.67 27.96 272.256 28.08C272.856 28.1867 273.416 28.24 273.936 28.24C274.71 28.24 275.263 28.14 275.596 27.94C275.943 27.74 276.116 27.4133 276.116 26.96C276.116 26.4133 275.81 26.08 275.196 25.96L273.416 25.6C271.203 25.1467 270.096 23.82 270.096 21.62C270.096 20.2467 270.55 19.1733 271.456 18.4C272.363 17.6133 273.61 17.22 275.196 17.22C276.783 17.22 278.196 17.46 279.436 17.94L278.716 20.8C277.796 20.44 276.716 20.26 275.476 20.26C274.25 20.26 273.636 20.64 273.636 21.4C273.636 21.96 273.99 22.3067 274.696 22.44L276.216 22.74C277.443 22.9933 278.343 23.4467 278.916 24.1C279.503 24.7533 279.796 25.6533 279.796 26.8C279.796 28.32 279.343 29.4533 278.436 30.2C277.53 30.9333 276.136 31.3 274.256 31.3ZM281.463 31V17.52H285.303V31H281.463ZM293.304 31.3C291.29 31.3 289.757 30.7 288.704 29.5C287.65 28.3 287.124 26.5533 287.124 24.26C287.124 21.9667 287.65 20.22 288.704 19.02C289.757 17.82 291.29 17.22 293.304 17.22C295.317 17.22 296.85 17.82 297.904 19.02C298.957 20.22 299.484 21.9667 299.484 24.26C299.484 26.5533 298.957 28.3 297.904 29.5C296.85 30.7 295.317 31.3 293.304 31.3ZM293.304 28.26C294.09 28.26 294.65 27.96 294.984 27.36C295.317 26.7467 295.484 25.7133 295.484 24.26C295.484 22.8067 295.317 21.78 294.984 21.18C294.65 20.5667 294.09 20.26 293.304 20.26C292.517 20.26 291.957 20.5667 291.624 21.18C291.29 21.78 291.124 22.8067 291.124 24.26C291.124 25.7133 291.29 26.7467 291.624 27.36C291.957 27.96 292.517 28.26 293.304 28.26ZM301.307 31V17.52H305.307L309.647 25.96V17.52H312.987V31H308.987L304.647 22.56V31H301.307ZM319.16 31.3C317.573 31.3 316.12 31.04 314.8 30.52L315.5 27.6C316.02 27.8 316.573 27.96 317.16 28.08C317.76 28.1867 318.32 28.24 318.84 28.24C319.613 28.24 320.167 28.14 320.5 27.94C320.847 27.74 321.02 27.4133 321.02 26.96C321.02 26.4133 320.713 26.08 320.1 25.96L318.32 25.6C316.107 25.1467 315 23.82 315 21.62C315 20.2467 315.453 19.1733 316.36 18.4C317.267 17.6133 318.513 17.22 320.1 17.22C321.687 17.22 323.1 17.46 324.34 17.94L323.62 20.8C322.7 20.44 321.62 20.26 320.38 20.26C319.153 20.26 318.54 20.64 318.54 21.4C318.54 21.96 318.893 22.3067 319.6 22.44L321.12 22.74C322.347 22.9933 323.247 23.4467 323.82 24.1C324.407 24.7533 324.7 25.6533 324.7 26.8C324.7 28.32 324.247 29.4533 323.34 30.2C322.433 30.9333 321.04 31.3 319.16 31.3Z" fill="white"/>
<path d="M65.0932 19.06L64.3388 18.3794L64.3384 18.3799L65.0932 19.06ZM71.6932 17.38L71.5115 18.3796L71.5154 18.3803L71.6932 17.38ZM73.3132 17.84L74.3021 18.0731L74.4999 17.2338L73.704 16.9022L73.3132 17.84ZM72.6532 20.64L72.3781 21.6181L73.3988 21.9051L73.6421 20.8731L72.6532 20.64ZM71.4332 20.36L71.6058 19.3588L71.4332 20.36ZM68.1532 21.28L67.3232 20.6941L67.3209 20.6974L68.1532 21.28ZM68.1532 27.36L68.9552 26.7362V26.7362L68.1532 27.36ZM71.5732 28.16L71.4114 27.1569L71.4062 27.1578L71.5732 28.16ZM72.8132 27.88L73.8017 27.6453L73.5551 26.6066L72.5299 26.9043L72.8132 27.88ZM73.4732 30.66L73.9044 31.5799L74.6526 31.2292L74.4617 30.4253L73.4732 30.66ZM71.8532 31.12L71.6895 30.1173L71.6777 30.1192L71.666 30.1214L71.8532 31.12ZM69.8132 31.3V30.284C67.8737 30.284 66.5991 29.759 65.7922 28.8786C64.97 27.9813 64.4692 26.5376 64.4692 24.36H63.4532H62.4372C62.4372 26.809 62.9964 28.8353 64.2942 30.2514C65.6073 31.6843 67.5127 32.316 69.8132 32.316V31.3ZM63.4532 24.36H64.4692C64.4692 22.1862 64.9819 20.7013 65.848 19.7401L65.0932 19.06L64.3384 18.3799C63.0179 19.8454 62.4372 21.8938 62.4372 24.36H63.4532ZM65.0932 19.06L65.8476 19.7406C66.7127 18.7816 68.0054 18.236 69.8932 18.236V17.22V16.204C67.5944 16.204 65.687 16.885 64.3388 18.3794L65.0932 19.06ZM69.8932 17.22V18.236C70.4473 18.236 70.9865 18.2842 71.5115 18.3796L71.6932 17.38L71.875 16.3804C71.2266 16.2625 70.5658 16.204 69.8932 16.204V17.22ZM71.6932 17.38L71.5154 18.3803C72.0545 18.4762 72.5214 18.6108 72.9224 18.7778L73.3132 17.84L73.704 16.9022C73.145 16.6692 72.532 16.4972 71.871 16.3797L71.6932 17.38ZM73.3132 17.84L72.3243 17.6069L71.6643 20.4069L72.6532 20.64L73.6421 20.8731L74.3021 18.0731L73.3132 17.84ZM72.6532 20.64L72.9283 19.6619C72.4721 19.5337 72.0311 19.4321 71.6058 19.3588L71.4332 20.36L71.2606 21.3612C71.6086 21.4212 71.981 21.5063 72.3781 21.6181L72.6532 20.64ZM71.4332 20.36L71.6058 19.3588C71.1771 19.2848 70.7711 19.244 70.3932 19.244V20.26V21.276C70.6286 21.276 70.916 21.3018 71.2606 21.3612L71.4332 20.36ZM70.3932 20.26V19.244C69.131 19.244 68.036 19.6842 67.3232 20.6941L68.1532 21.28L68.9832 21.8659C69.2304 21.5158 69.6288 21.276 70.3932 21.276V20.26ZM68.1532 21.28L67.3209 20.6974C66.6742 21.6211 66.4372 22.9236 66.4372 24.42H67.4532H68.4692C68.4692 23.0631 68.6988 22.2722 68.9855 21.8626L68.1532 21.28ZM67.4532 24.42H66.4372C66.4372 25.848 66.6729 27.1116 67.3512 27.9838L68.1532 27.36L68.9552 26.7362C68.7002 26.4084 68.4692 25.712 68.4692 24.42H67.4532ZM68.1532 27.36L67.3512 27.9838C68.0775 28.9175 69.1948 29.276 70.4332 29.276V28.26V27.244C69.5649 27.244 69.1623 27.0025 68.9552 26.7362L68.1532 27.36ZM70.4332 28.26V29.276C70.8557 29.276 71.2918 29.2369 71.7402 29.1622L71.5732 28.16L71.4062 27.1578C71.0546 27.2164 70.7308 27.244 70.4332 27.244V28.26ZM71.5732 28.16L71.735 29.163C72.1905 29.0896 72.6444 28.987 73.0965 28.8557L72.8132 27.88L72.5299 26.9043C72.1554 27.013 71.7826 27.0971 71.4114 27.157L71.5732 28.16ZM72.8132 27.88L71.8247 28.1147L72.4847 30.8947L73.4732 30.66L74.4617 30.4253L73.8017 27.6453L72.8132 27.88ZM73.4732 30.66L73.042 29.7401C72.7268 29.8878 72.2845 30.0201 71.6895 30.1173L71.8532 31.12L72.0169 32.1227C72.7285 32.0065 73.3663 31.8322 73.9044 31.5799L73.4732 30.66ZM71.8532 31.12L71.666 30.1214C71.0938 30.2287 70.4769 30.284 69.8132 30.284V31.3V32.316C70.5895 32.316 71.3326 32.2513 72.0404 32.1186L71.8532 31.12ZM75.5902 29.5L74.8267 30.1702L75.5902 29.5ZM75.5902 19.02L74.8267 18.3498L75.5902 19.02ZM84.7902 19.02L85.5538 18.3498L84.7902 19.02ZM81.8702 27.36L82.7584 27.8534L82.7629 27.8452L81.8702 27.36ZM81.8702 21.18L80.9775 21.6652L80.9821 21.6734L81.8702 21.18ZM78.5102 21.18L79.3984 21.6734L79.4029 21.6652L78.5102 21.18ZM78.5102 27.36L77.6175 27.8452L77.6221 27.8534L78.5102 27.36ZM80.1902 31.3V30.284C78.3872 30.284 77.166 29.755 76.3538 28.8298L75.5902 29.5L74.8267 30.1702C76.1212 31.645 77.9666 32.316 80.1902 32.316V31.3ZM75.5902 29.5L76.3538 28.8298C75.5217 27.8818 75.0262 26.4128 75.0262 24.26H74.0102H72.9942C72.9942 26.6939 73.5521 28.7182 74.8267 30.1702L75.5902 29.5ZM74.0102 24.26H75.0262C75.0262 22.1072 75.5217 20.6382 76.3538 19.6902L75.5902 19.02L74.8267 18.3498C73.5521 19.8018 72.9942 21.8261 72.9942 24.26H74.0102ZM75.5902 19.02L76.3538 19.6902C77.166 18.765 78.3872 18.236 80.1902 18.236V17.22V16.204C77.9666 16.204 76.1212 16.875 74.8267 18.3498L75.5902 19.02ZM80.1902 17.22V18.236C81.9932 18.236 83.2145 18.765 84.0267 19.6902L84.7902 19.02L85.5538 18.3498C84.2593 16.875 82.4139 16.204 80.1902 16.204V17.22ZM84.7902 19.02L84.0267 19.6902C84.8588 20.6382 85.3542 22.1072 85.3542 24.26H86.3702H87.3862C87.3862 21.8261 86.8284 19.8018 85.5538 18.3498L84.7902 19.02ZM86.3702 24.26H85.3542C85.3542 26.4128 84.8588 27.8818 84.0267 28.8298L84.7902 29.5L85.5538 30.1702C86.8284 28.7182 87.3862 26.6939 87.3862 24.26H86.3702ZM84.7902 29.5L84.0267 28.8298C83.2145 29.755 81.9932 30.284 80.1902 30.284V31.3V32.316C82.4139 32.316 84.2593 31.645 85.5538 30.1702L84.7902 29.5ZM80.1902 28.26V29.276C81.2808 29.276 82.2163 28.8291 82.7584 27.8534L81.8702 27.36L80.9821 26.8666C80.8575 27.0909 80.673 27.244 80.1902 27.244V28.26ZM81.8702 27.36L82.7629 27.8452C83.2261 26.9929 83.3862 25.7368 83.3862 24.26H82.3702H81.3542C81.3542 25.6899 81.181 26.5004 80.9776 26.8748L81.8702 27.36ZM82.3702 24.26H83.3862C83.3862 22.7866 83.2272 21.5304 82.7584 20.6866L81.8702 21.18L80.9821 21.6734C81.18 22.0296 81.3542 22.8268 81.3542 24.26H82.3702ZM81.8702 21.18L82.7629 20.6948C82.2259 19.7067 81.2917 19.244 80.1902 19.244V20.26V21.276C80.6621 21.276 80.8479 21.4266 80.9776 21.6652L81.8702 21.18ZM80.1902 20.26V19.244C79.0888 19.244 78.1546 19.7067 77.6176 20.6948L78.5102 21.18L79.4029 21.6652C79.5326 21.4266 79.7184 21.276 80.1902 21.276V20.26ZM78.5102 21.18L77.6221 20.6866C77.1533 21.5304 76.9942 22.7866 76.9942 24.26H78.0102H79.0262C79.0262 22.8268 79.2005 22.0296 79.3984 21.6734L78.5102 21.18ZM78.0102 24.26H76.9942C76.9942 25.7368 77.1544 26.9929 77.6176 27.8452L78.5102 27.36L79.4029 26.8748C79.1994 26.5004 79.0262 25.6899 79.0262 24.26H78.0102ZM78.5102 27.36L77.6221 27.8534C78.1641 28.8291 79.0997 29.276 80.1902 29.276V28.26V27.244C79.7075 27.244 79.523 27.0909 79.3984 26.8666L78.5102 27.36ZM88.1941 31H87.1781V32.016H88.1941V31ZM88.1941 17.52V16.504H87.1781V17.52H88.1941ZM92.5941 17.52L93.5377 17.1431L93.2823 16.504H92.5941V17.52ZM95.6541 25.18L94.7106 25.5569L95.6511 27.9111L96.5968 25.559L95.6541 25.18ZM98.7341 17.52V16.504H98.0476L97.7915 17.141L98.7341 17.52ZM103.014 17.52H104.03V16.504H103.014V17.52ZM103.014 31V32.016H104.03V31H103.014ZM99.6941 31H98.6781V32.016H99.6941V31ZM99.6941 22.34H100.71L98.7508 21.9627L99.6941 22.34ZM97.0941 28.84V29.856H97.782L98.0375 29.2173L97.0941 28.84ZM94.1341 28.84L93.1937 29.2245L93.4519 29.856H94.1341V28.84ZM91.5341 22.48L92.4746 22.0955L90.5181 22.48H91.5341ZM91.5341 31V32.016H92.5501V31H91.5341ZM88.1941 31H89.2101V17.52H88.1941H87.1781V31H88.1941ZM88.1941 17.52V18.536H92.5941V17.52V16.504H88.1941V17.52ZM92.5941 17.52L91.6506 17.8969L94.7106 25.5569L95.6541 25.18L96.5976 24.8031L93.5377 17.1431L92.5941 17.52ZM95.6541 25.18L96.5968 25.559L99.6768 17.899L98.7341 17.52L97.7915 17.141L94.7115 24.801L95.6541 25.18ZM98.7341 17.52V18.536H103.014V17.52V16.504H98.7341V17.52ZM103.014 17.52H101.998V31H103.014H104.03V17.52H103.014ZM103.014 31V29.984H99.6941V31V32.016H103.014V31ZM99.6941 31H100.71V22.34H99.6941H98.6781V31H99.6941ZM99.6941 22.34L98.7508 21.9627L96.1508 28.4627L97.0941 28.84L98.0375 29.2173L100.637 22.7173L99.6941 22.34ZM97.0941 28.84V27.824H94.1341V28.84V29.856H97.0941V28.84ZM94.1341 28.84L95.0746 28.4555L92.4746 22.0955L91.5341 22.48L90.5937 22.8645L93.1937 29.2245L94.1341 28.84ZM91.5341 22.48H90.5181V31H91.5341H92.5501V22.48H91.5341ZM91.5341 31V29.984H88.1941V31V32.016H91.5341V31ZM105.411 31H104.395V32.016H105.411V31ZM105.411 17.52V16.504H104.395V17.52H105.411ZM109.111 26.88V25.864H108.095V26.88H109.111ZM109.111 31V32.016H110.127V31H109.111ZM109.111 20.3V19.284H108.095V20.3H109.111ZM109.111 24.1H108.095V25.116H109.111V24.1ZM111.851 20.76L111.133 21.4784L111.141 21.4864L111.149 21.4942L111.851 20.76ZM105.411 31H106.427V17.52H105.411H104.395V31H105.411ZM105.411 17.52V18.536H110.831V17.52V16.504H105.411V17.52ZM110.831 17.52V18.536C112.44 18.536 113.458 18.8991 114.068 19.4465C114.658 19.975 115.035 20.827 115.035 22.2H116.051H117.067C117.067 20.453 116.575 18.965 115.425 17.9335C114.295 16.9209 112.702 16.504 110.831 16.504V17.52ZM116.051 22.2H115.035C115.035 23.573 114.658 24.425 114.068 24.9535C113.458 25.5009 112.44 25.864 110.831 25.864V26.88V27.896C112.702 27.896 114.295 27.4791 115.425 26.4665C116.575 25.435 117.067 23.947 117.067 22.2H116.051ZM110.831 26.88V25.864H109.111V26.88V27.896H110.831V26.88ZM109.111 26.88H108.095V31H109.111H110.127V26.88H109.111ZM109.111 31V29.984H105.411V31V32.016H109.111V31ZM110.391 20.3V19.284H109.111V20.3V21.316H110.391V20.3ZM109.111 20.3H108.095V24.1H109.111H110.127V20.3H109.111ZM109.111 24.1V25.116H110.391V24.1V23.084H109.111V24.1ZM110.391 24.1V25.116C111.186 25.116 111.992 24.9366 112.57 24.3584L111.851 23.64L111.133 22.9216C111.098 22.9567 110.93 23.084 110.391 23.084V24.1ZM111.851 23.64L112.57 24.3584C113.145 23.7835 113.327 22.9882 113.327 22.2H112.311H111.295C111.295 22.7185 111.171 22.8832 111.133 22.9216L111.851 23.64ZM112.311 22.2H113.327C113.327 21.4106 113.15 20.5963 112.554 20.0258L111.851 20.76L111.149 21.4942C111.166 21.5103 111.295 21.656 111.295 22.2H112.311ZM111.851 20.76L112.57 20.0416C111.992 19.4634 111.186 19.284 110.391 19.284V20.3V21.316C110.93 21.316 111.098 21.4433 111.133 21.4784L111.851 20.76ZM117.629 31H116.613V32.016H117.629V31ZM117.629 17.52V16.504H116.613V17.52H117.629ZM121.469 17.52H122.485V16.504H121.469V17.52ZM121.469 27.92H120.453V28.936H121.469V27.92ZM126.189 27.92H127.205V26.904H126.189V27.92ZM126.189 31V32.016H127.205V31H126.189ZM117.629 31H118.645V17.52H117.629H116.613V31H117.629ZM117.629 17.52V18.536H121.469V17.52V16.504H117.629V17.52ZM121.469 17.52H120.453V27.92H121.469H122.485V17.52H121.469ZM121.469 27.92V28.936H126.189V27.92V26.904H121.469V27.92ZM126.189 27.92H125.173V31H126.189H127.205V27.92H126.189ZM126.189 31V29.984H117.629V31V32.016H126.189V31ZM128.01 31H126.994V32.016H128.01V31ZM128.01 17.52V16.504H126.994V17.52H128.01ZM137.05 17.52H138.066V16.504H137.05V17.52ZM137.05 20.44V21.456H138.066V20.44H137.05ZM131.71 20.44V19.424H130.694V20.44H131.71ZM131.71 22.72H130.694V23.736H131.71V22.72ZM136.03 22.72H137.046V21.704H136.03V22.72ZM136.03 25.64V26.656H137.046V25.64H136.03ZM131.71 25.64V24.624H130.694V25.64H131.71ZM131.71 28.08H130.694V29.096H131.71V28.08ZM137.13 28.08H138.146V27.064H137.13V28.08ZM137.13 31V32.016H138.146V31H137.13ZM128.01 31H129.026V17.52H128.01H126.994V31H128.01ZM128.01 17.52V18.536H137.05V17.52V16.504H128.01V17.52ZM137.05 17.52H136.034V20.44H137.05H138.066V17.52H137.05ZM137.05 20.44V19.424H131.71V20.44V21.456H137.05V20.44ZM131.71 20.44H130.694V22.72H131.71H132.726V20.44H131.71ZM131.71 22.72V23.736H136.03V22.72V21.704H131.71V22.72ZM136.03 22.72H135.014V25.64H136.03H137.046V22.72H136.03ZM136.03 25.64V24.624H131.71V25.64V26.656H136.03V25.64ZM131.71 25.64H130.694V28.08H131.71H132.726V25.64H131.71ZM131.71 28.08V29.096H137.13V28.08V27.064H131.71V28.08ZM137.13 28.08H136.114V31H137.13H138.146V28.08H137.13ZM137.13 31V29.984H128.01V31V32.016H137.13V31ZM141.493 31H140.477V32.016H141.493V31ZM141.493 20.56H142.509V19.544H141.493V20.56ZM138.193 20.56H137.177V21.576H138.193V20.56ZM138.193 17.52V16.504H137.177V17.52H138.193ZM148.633 17.52H149.649V16.504H148.633V17.52ZM148.633 20.56V21.576H149.649V20.56H148.633ZM145.333 20.56V19.544H144.317V20.56H145.333ZM145.333 31V32.016H146.349V31H145.333ZM141.493 31H142.509V20.56H141.493H140.477V31H141.493ZM141.493 20.56V19.544H138.193V20.56V21.576H141.493V20.56ZM138.193 20.56H139.209V17.52H138.193H137.177V20.56H138.193ZM138.193 17.52V18.536H148.633V17.52V16.504H138.193V17.52ZM148.633 17.52H147.617V20.56H148.633H149.649V17.52H148.633ZM148.633 20.56V19.544H145.333V20.56V21.576H148.633V20.56ZM145.333 20.56H144.317V31H145.333H146.349V20.56H145.333ZM145.333 31V29.984H141.493V31V32.016H145.333V31ZM150.081 31H149.065V32.016H150.081V31ZM150.081 17.52V16.504H149.065V17.52H150.081ZM159.121 17.52H160.137V16.504H159.121V17.52ZM159.121 20.44V21.456H160.137V20.44H159.121ZM153.781 20.44V19.424H152.765V20.44H153.781ZM153.781 22.72H152.765V23.736H153.781V22.72ZM158.101 22.72H159.117V21.704H158.101V22.72ZM158.101 25.64V26.656H159.117V25.64H158.101ZM153.781 25.64V24.624H152.765V25.64H153.781ZM153.781 28.08H152.765V29.096H153.781V28.08ZM159.201 28.08H160.217V27.064H159.201V28.08ZM159.201 31V32.016H160.217V31H159.201ZM150.081 31H151.097V17.52H150.081H149.065V31H150.081ZM150.081 17.52V18.536H159.121V17.52V16.504H150.081V17.52ZM159.121 17.52H158.105V20.44H159.121H160.137V17.52H159.121ZM159.121 20.44V19.424H153.781V20.44V21.456H159.121V20.44ZM153.781 20.44H152.765V22.72H153.781H154.797V20.44H153.781ZM153.781 22.72V23.736H158.101V22.72V21.704H153.781V22.72ZM158.101 22.72H157.085V25.64H158.101H159.117V22.72H158.101ZM158.101 25.64V24.624H153.781V25.64V26.656H158.101V25.64ZM153.781 25.64H152.765V28.08H153.781H154.797V25.64H153.781ZM153.781 28.08V29.096H159.201V28.08V27.064H153.781V28.08ZM159.201 28.08H158.185V31H159.201H160.217V28.08H159.201ZM159.201 31V29.984H150.081V31V32.016H159.201V31ZM164.052 30.52L163.064 30.2831L162.859 31.1417L163.68 31.4653L164.052 30.52ZM164.752 27.6L165.117 26.6517L164.035 26.2354L163.764 27.3631L164.752 27.6ZM166.412 28.08L166.209 29.0754L166.222 29.078L166.235 29.0803L166.412 28.08ZM169.752 27.94L169.245 27.06L169.237 27.0643L169.23 27.0688L169.752 27.94ZM169.352 25.96L169.151 26.9559L169.157 26.9571L169.352 25.96ZM167.572 25.6L167.369 26.5953L167.371 26.5958L167.572 25.6ZM165.612 18.4L166.272 19.173L166.278 19.1674L165.612 18.4ZM173.592 17.94L174.578 18.188L174.797 17.3168L173.959 16.9925L173.592 17.94ZM172.872 20.8L172.502 21.7461L173.576 22.1664L173.858 21.048L172.872 20.8ZM168.852 22.44L169.049 21.4432L169.041 21.4416L168.852 22.44ZM170.372 22.74L170.578 21.745L170.569 21.7432L170.372 22.74ZM173.072 24.1L172.309 24.7702L172.316 24.7788L173.072 24.1ZM172.592 30.2L173.231 30.99L173.238 30.9843L172.592 30.2ZM168.412 31.3V30.284C166.938 30.284 165.613 30.0428 164.425 29.5747L164.052 30.52L163.68 31.4653C165.132 32.0372 166.713 32.316 168.412 32.316V31.3ZM164.052 30.52L165.04 30.7569L165.74 27.8369L164.752 27.6L163.764 27.3631L163.064 30.2831L164.052 30.52ZM164.752 27.6L164.388 28.5483C164.964 28.7698 165.571 28.945 166.209 29.0754L166.412 28.08L166.616 27.0846C166.08 26.975 165.581 26.8302 165.117 26.6517L164.752 27.6ZM166.412 28.08L166.235 29.0803C166.884 29.1957 167.504 29.256 168.092 29.256V28.24V27.224C167.641 27.224 167.141 27.1776 166.59 27.0797L166.412 28.08ZM168.092 28.24V29.256C168.9 29.256 169.692 29.1611 170.275 28.8112L169.752 27.94L169.23 27.0688C169.146 27.1189 168.831 27.224 168.092 27.224V28.24ZM169.752 27.94L170.26 28.82C170.968 28.4114 171.288 27.7185 171.288 26.96H170.272H169.256C169.256 27.0577 169.238 27.0817 169.245 27.0688C169.248 27.0631 169.253 27.0568 169.257 27.0524C169.261 27.0484 169.259 27.0518 169.245 27.06L169.752 27.94ZM170.272 26.96H171.288C171.288 26.4875 171.15 26.0036 170.79 25.6121C170.444 25.2357 169.988 25.049 169.548 24.9629L169.352 25.96L169.157 26.9571C169.241 26.9735 169.287 26.9919 169.306 27.0014C169.323 27.0099 169.313 27.0082 169.295 26.9879C169.286 26.9782 169.277 26.9668 169.27 26.9544C169.263 26.942 169.258 26.9315 169.256 26.9243C169.251 26.91 169.256 26.9179 169.256 26.96H170.272ZM169.352 25.96L169.554 24.9642L167.774 24.6042L167.572 25.6L167.371 26.5958L169.151 26.9558L169.352 25.96ZM167.572 25.6L167.776 24.6047C166.825 24.4099 166.228 24.0527 165.863 23.6142C165.499 23.1788 165.268 22.5486 165.268 21.62H164.252H163.236C163.236 22.8914 163.559 24.0246 164.302 24.9158C165.043 25.804 166.106 26.3368 167.369 26.5953L167.572 25.6ZM164.252 21.62H165.268C165.268 20.4937 165.627 19.7228 166.272 19.173L165.612 18.4L164.953 17.627C163.784 18.6239 163.236 19.9997 163.236 21.62H164.252ZM165.612 18.4L166.278 19.1674C166.948 18.5866 167.93 18.236 169.352 18.236V17.22V16.204C167.601 16.204 166.091 16.64 164.947 17.6326L165.612 18.4ZM169.352 17.22V18.236C170.837 18.236 172.123 18.4606 173.226 18.8875L173.592 17.94L173.959 16.9925C172.582 16.4594 171.041 16.204 169.352 16.204V17.22ZM173.592 17.94L172.607 17.692L171.887 20.552L172.872 20.8L173.858 21.048L174.578 18.188L173.592 17.94ZM172.872 20.8L173.243 19.8539C172.179 19.4376 170.968 19.244 169.632 19.244V20.26V21.276C170.777 21.276 171.726 21.4424 172.502 21.7461L172.872 20.8ZM169.632 20.26V19.244C168.947 19.244 168.261 19.3442 167.717 19.6813C167.093 20.0682 166.776 20.691 166.776 21.4H167.792H168.808C168.808 21.3487 168.818 21.3533 168.802 21.3826C168.785 21.4143 168.768 21.4209 168.788 21.4087C168.857 21.3658 169.091 21.276 169.632 21.276V20.26ZM167.792 21.4H166.776C166.776 21.9137 166.948 22.415 167.346 22.8052C167.717 23.1697 168.198 23.3505 168.664 23.4384L168.852 22.44L169.041 21.4416C168.926 21.4199 168.852 21.3943 168.808 21.3745C168.765 21.3552 168.759 21.3448 168.769 21.3548C168.782 21.3671 168.796 21.388 168.805 21.4111C168.813 21.4317 168.808 21.4326 168.808 21.4H167.792ZM168.852 22.44L168.656 23.4368L170.176 23.7368L170.372 22.74L170.569 21.7432L169.049 21.4432L168.852 22.44ZM170.372 22.74L170.167 23.735C171.269 23.9627 171.933 24.342 172.309 24.7701L173.072 24.1L173.836 23.4299C173.065 22.5514 171.929 22.024 170.578 21.745L170.372 22.74ZM173.072 24.1L172.316 24.7788C172.69 25.1945 172.936 25.8254 172.936 26.8H173.952H174.968C174.968 25.4812 174.628 24.3121 173.828 23.4212L173.072 24.1ZM173.952 26.8H172.936C172.936 28.1127 172.553 28.9159 171.947 29.4157L172.592 30.2L173.238 30.9843C174.445 29.9908 174.968 28.5273 174.968 26.8H173.952ZM172.592 30.2L171.954 29.41C171.309 29.9312 170.192 30.284 168.412 30.284V31.3V32.316C170.392 32.316 172.062 31.9355 173.231 30.99L172.592 30.2ZM175.619 31H174.603V32.016H175.619V31ZM175.619 17.52V16.504H174.603V17.52H175.619ZM179.459 17.52H180.475V16.504H179.459V17.52ZM179.459 31V32.016H180.475V31H179.459ZM175.619 31H176.635V17.52H175.619H174.603V31H175.619ZM175.619 17.52V18.536H179.459V17.52V16.504H175.619V17.52ZM179.459 17.52H178.443V31H179.459H180.475V17.52H179.459ZM179.459 31V29.984H175.619V31V32.016H179.459V31ZM181.86 31H180.844V32.016H181.86V31ZM181.86 17.52V16.504H180.844V17.52H181.86ZM186.26 17.52L187.203 17.1431L186.948 16.504H186.26V17.52ZM189.32 25.18L188.376 25.5569L189.317 27.9111L190.262 25.559L189.32 25.18ZM192.4 17.52V16.504H191.713L191.457 17.141L192.4 17.52ZM196.68 17.52H197.696V16.504H196.68V17.52ZM196.68 31V32.016H197.696V31H196.68ZM193.36 31H192.344V32.016H193.36V31ZM193.36 22.34H194.376L192.416 21.9627L193.36 22.34ZM190.76 28.84V29.856H191.448L191.703 29.2173L190.76 28.84ZM187.8 28.84L186.859 29.2245L187.118 29.856H187.8V28.84ZM185.2 22.48L186.14 22.0955L184.184 22.48H185.2ZM185.2 31V32.016H186.216V31H185.2ZM181.86 31H182.876V17.52H181.86H180.844V31H181.86ZM181.86 17.52V18.536H186.26V17.52V16.504H181.86V17.52ZM186.26 17.52L185.316 17.8969L188.376 25.5569L189.32 25.18L190.263 24.8031L187.203 17.1431L186.26 17.52ZM189.32 25.18L190.262 25.559L193.342 17.899L192.4 17.52L191.457 17.141L188.377 24.801L189.32 25.18ZM192.4 17.52V18.536H196.68V17.52V16.504H192.4V17.52ZM196.68 17.52H195.664V31H196.68H197.696V17.52H196.68ZM196.68 31V29.984H193.36V31V32.016H196.68V31ZM193.36 31H194.376V22.34H193.36H192.344V31H193.36ZM193.36 22.34L192.416 21.9627L189.816 28.4627L190.76 28.84L191.703 29.2173L194.303 22.7173L193.36 22.34ZM190.76 28.84V27.824H187.8V28.84V29.856H190.76V28.84ZM187.8 28.84L188.74 28.4555L186.14 22.0955L185.2 22.48L184.259 22.8645L186.859 29.2245L187.8 28.84ZM185.2 22.48H184.184V31H185.2H186.216V22.48H185.2ZM185.2 31V29.984H181.86V31V32.016H185.2V31ZM199.077 31H198.061V32.016H199.077V31ZM199.077 17.52V16.504H198.061V17.52H199.077ZM202.777 26.88V25.864H201.761V26.88H202.777ZM202.777 31V32.016H203.793V31H202.777ZM202.777 20.3V19.284H201.761V20.3H202.777ZM202.777 24.1H201.761V25.116H202.777V24.1ZM205.517 20.76L204.799 21.4784L204.807 21.4864L204.815 21.4942L205.517 20.76ZM199.077 31H200.093V17.52H199.077H198.061V31H199.077ZM199.077 17.52V18.536H204.497V17.52V16.504H199.077V17.52ZM204.497 17.52V18.536C206.106 18.536 207.123 18.8991 207.734 19.4465C208.323 19.975 208.701 20.827 208.701 22.2H209.717H210.733C210.733 20.453 210.241 18.965 209.09 17.9335C207.961 16.9209 206.368 16.504 204.497 16.504V17.52ZM209.717 22.2H208.701C208.701 23.573 208.323 24.425 207.734 24.9535C207.123 25.5009 206.106 25.864 204.497 25.864V26.88V27.896C206.368 27.896 207.961 27.4791 209.09 26.4665C210.241 25.435 210.733 23.947 210.733 22.2H209.717ZM204.497 26.88V25.864H202.777V26.88V27.896H204.497V26.88ZM202.777 26.88H201.761V31H202.777H203.793V26.88H202.777ZM202.777 31V29.984H199.077V31V32.016H202.777V31ZM204.057 20.3V19.284H202.777V20.3V21.316H204.057V20.3ZM202.777 20.3H201.761V24.1H202.777H203.793V20.3H202.777ZM202.777 24.1V25.116H204.057V24.1V23.084H202.777V24.1ZM204.057 24.1V25.116C204.851 25.116 205.657 24.9366 206.235 24.3584L205.517 23.64L204.799 22.9216C204.763 22.9567 204.596 23.084 204.057 23.084V24.1ZM205.517 23.64L206.235 24.3584C206.81 23.7835 206.993 22.9882 206.993 22.2H205.977H204.961C204.961 22.7185 204.837 22.8832 204.799 22.9216L205.517 23.64ZM205.977 22.2H206.993C206.993 21.4106 206.816 20.5963 206.219 20.0258L205.517 20.76L204.815 21.4942C204.832 21.5103 204.961 21.656 204.961 22.2H205.977ZM205.517 20.76L206.235 20.0416C205.657 19.4634 204.851 19.284 204.057 19.284V20.3V21.316C204.596 21.316 204.763 21.4433 204.799 21.4784L205.517 20.76ZM211.294 31H210.278V32.016H211.294V31ZM211.294 17.52V16.504H210.278V17.52H211.294ZM215.134 17.52H216.15V16.504H215.134V17.52ZM215.134 27.92H214.118V28.936H215.134V27.92ZM219.854 27.92H220.87V26.904H219.854V27.92ZM219.854 31V32.016H220.87V31H219.854ZM211.294 31H212.31V17.52H211.294H210.278V31H211.294ZM211.294 17.52V18.536H215.134V17.52V16.504H211.294V17.52ZM215.134 17.52H214.118V27.92H215.134H216.15V17.52H215.134ZM215.134 27.92V28.936H219.854V27.92V26.904H215.134V27.92ZM219.854 27.92H218.838V31H219.854H220.87V27.92H219.854ZM219.854 31V29.984H211.294V31V32.016H219.854V31ZM221.675 31H220.659V32.016H221.675V31ZM221.675 17.52V16.504H220.659V17.52H221.675ZM230.715 17.52H231.731V16.504H230.715V17.52ZM230.715 20.44V21.456H231.731V20.44H230.715ZM225.375 20.44V19.424H224.359V20.44H225.375ZM225.375 22.72H224.359V23.736H225.375V22.72ZM229.695 22.72H230.711V21.704H229.695V22.72ZM229.695 25.64V26.656H230.711V25.64H229.695ZM225.375 25.64V24.624H224.359V25.64H225.375ZM225.375 28.08H224.359V29.096H225.375V28.08ZM230.795 28.08H231.811V27.064H230.795V28.08ZM230.795 31V32.016H231.811V31H230.795ZM221.675 31H222.691V17.52H221.675H220.659V31H221.675ZM221.675 17.52V18.536H230.715V17.52V16.504H221.675V17.52ZM230.715 17.52H229.699V20.44H230.715H231.731V17.52H230.715ZM230.715 20.44V19.424H225.375V20.44V21.456H230.715V20.44ZM225.375 20.44H224.359V22.72H225.375H226.391V20.44H225.375ZM225.375 22.72V23.736H229.695V22.72V21.704H225.375V22.72ZM229.695 22.72H228.679V25.64H229.695H230.711V22.72H229.695ZM229.695 25.64V24.624H225.375V25.64V26.656H229.695V25.64ZM225.375 25.64H224.359V28.08H225.375H226.391V25.64H225.375ZM225.375 28.08V29.096H230.795V28.08V27.064H225.375V28.08ZM230.795 28.08H229.779V31H230.795H231.811V28.08H230.795ZM230.795 31V29.984H221.675V31V32.016H230.795V31ZM236.227 31H235.211V32.016H236.227V31ZM236.227 17.52V16.504H235.211V17.52H236.227ZM240.627 17.52L241.57 17.1431L241.315 16.504H240.627V17.52ZM243.687 25.18L242.743 25.5569L243.684 27.9111L244.63 25.559L243.687 25.18ZM246.767 17.52V16.504H246.08L245.824 17.141L246.767 17.52ZM251.047 17.52H252.063V16.504H251.047V17.52ZM251.047 31V32.016H252.063V31H251.047ZM247.727 31H246.711V32.016H247.727V31ZM247.727 22.34H248.743L246.784 21.9627L247.727 22.34ZM245.127 28.84V29.856H245.815L246.07 29.2173L245.127 28.84ZM242.167 28.84L241.227 29.2245L241.485 29.856H242.167V28.84ZM239.567 22.48L240.507 22.0955L238.551 22.48H239.567ZM239.567 31V32.016H240.583V31H239.567ZM236.227 31H237.243V17.52H236.227H235.211V31H236.227ZM236.227 17.52V18.536H240.627V17.52V16.504H236.227V17.52ZM240.627 17.52L239.683 17.8969L242.743 25.5569L243.687 25.18L244.63 24.8031L241.57 17.1431L240.627 17.52ZM243.687 25.18L244.63 25.559L247.71 17.899L246.767 17.52L245.824 17.141L242.744 24.801L243.687 25.18ZM246.767 17.52V18.536H251.047V17.52V16.504H246.767V17.52ZM251.047 17.52H250.031V31H251.047H252.063V17.52H251.047ZM251.047 31V29.984H247.727V31V32.016H251.047V31ZM247.727 31H248.743V22.34H247.727H246.711V31H247.727ZM247.727 22.34L246.784 21.9627L244.184 28.4627L245.127 28.84L246.07 29.2173L248.67 22.7173L247.727 22.34ZM245.127 28.84V27.824H242.167V28.84V29.856H245.127V28.84ZM242.167 28.84L243.107 28.4555L240.507 22.0955L239.567 22.48L238.627 22.8645L241.227 29.2245L242.167 28.84ZM239.567 22.48H238.551V31H239.567H240.583V22.48H239.567ZM239.567 31V29.984H236.227V31V32.016H239.567V31ZM253.444 31H252.428V32.016H253.444V31ZM253.444 17.52V16.504H252.428V17.52H253.444ZM257.284 17.52H258.3V16.504H257.284V17.52ZM257.284 31V32.016H258.3V31H257.284ZM253.444 31H254.46V17.52H253.444H252.428V31H253.444ZM253.444 17.52V18.536H257.284V17.52V16.504H253.444V17.52ZM257.284 17.52H256.268V31H257.284H258.3V17.52H257.284ZM257.284 31V29.984H253.444V31V32.016H257.284V31ZM259.105 30.52L258.117 30.2831L257.911 31.1417L258.732 31.4653L259.105 30.52ZM259.805 27.6L260.169 26.6517L259.087 26.2354L258.817 27.3631L259.805 27.6ZM261.465 28.08L261.261 29.0754L261.274 29.078L261.287 29.0803L261.465 28.08ZM264.805 27.94L264.297 27.06L264.29 27.0643L264.282 27.0688L264.805 27.94ZM264.405 25.96L264.203 26.9559L264.21 26.9571L264.405 25.96ZM262.625 25.6L262.421 26.5953L262.423 26.5958L262.625 25.6ZM260.665 18.4L261.324 19.173L261.331 19.1674L260.665 18.4ZM268.645 17.94L269.63 18.188L269.849 17.3168L269.012 16.9925L268.645 17.94ZM267.925 20.8L267.555 21.7461L268.628 22.1664L268.91 21.048L267.925 20.8ZM263.905 22.44L264.102 21.4432L264.093 21.4416L263.905 22.44ZM265.425 22.74L265.63 21.745L265.622 21.7432L265.425 22.74ZM268.125 24.1L267.361 24.7702L267.369 24.7788L268.125 24.1ZM267.645 30.2L268.284 30.99L268.291 30.9843L267.645 30.2ZM263.465 31.3V30.284C261.991 30.284 260.665 30.0428 259.477 29.5747L259.105 30.52L258.732 31.4653C260.184 32.0372 261.766 32.316 263.465 32.316V31.3ZM259.105 30.52L260.093 30.7569L260.793 27.8369L259.805 27.6L258.817 27.3631L258.117 30.2831L259.105 30.52ZM259.805 27.6L259.44 28.5483C260.016 28.7698 260.624 28.945 261.261 29.0754L261.465 28.08L261.668 27.0846C261.133 26.975 260.633 26.8302 260.169 26.6517L259.805 27.6ZM261.465 28.08L261.287 29.0803C261.936 29.1957 262.556 29.256 263.145 29.256V28.24V27.224C262.694 27.224 262.194 27.1776 261.643 27.0797L261.465 28.08ZM263.145 28.24V29.256C263.953 29.256 264.744 29.1611 265.327 28.8112L264.805 27.94L264.282 27.0688C264.198 27.1189 263.883 27.224 263.145 27.224V28.24ZM264.805 27.94L265.312 28.82C266.021 28.4114 266.341 27.7185 266.341 26.96H265.325H264.309C264.309 27.0577 264.29 27.0817 264.297 27.0688C264.3 27.0631 264.305 27.0568 264.309 27.0524C264.313 27.0484 264.311 27.0518 264.297 27.06L264.805 27.94ZM265.325 26.96H266.341C266.341 26.4875 266.203 26.0036 265.842 25.6121C265.496 25.2357 265.04 25.049 264.6 24.9629L264.405 25.96L264.21 26.9571C264.293 26.9735 264.339 26.9919 264.358 27.0014C264.375 27.0099 264.366 27.0082 264.347 26.9879C264.338 26.9782 264.33 26.9668 264.322 26.9544C264.315 26.942 264.31 26.9315 264.308 26.9243C264.303 26.91 264.309 26.9179 264.309 26.96H265.325ZM264.405 25.96L264.606 24.9642L262.826 24.6042L262.625 25.6L262.423 26.5958L264.203 26.9558L264.405 25.96ZM262.625 25.6L262.829 24.6047C261.878 24.4099 261.281 24.0527 260.915 23.6142C260.552 23.1788 260.321 22.5486 260.321 21.62H259.305H258.289C258.289 22.8914 258.611 24.0246 259.355 24.9158C260.095 25.804 261.159 26.3368 262.421 26.5953L262.625 25.6ZM259.305 21.62H260.321C260.321 20.4937 260.68 19.7228 261.324 19.173L260.665 18.4L260.005 17.627C258.837 18.6239 258.289 19.9997 258.289 21.62H259.305ZM260.665 18.4L261.331 19.1674C262 18.5866 262.983 18.236 264.405 18.236V17.22V16.204C262.653 16.204 261.143 16.64 259.999 17.6326L260.665 18.4ZM264.405 17.22V18.236C265.89 18.236 267.175 18.4606 268.278 18.8875L268.645 17.94L269.012 16.9925C267.634 16.4594 266.093 16.204 264.405 16.204V17.22ZM268.645 17.94L267.66 17.692L266.94 20.552L267.925 20.8L268.91 21.048L269.63 18.188L268.645 17.94ZM267.925 20.8L268.295 19.8539C267.231 19.4376 266.02 19.244 264.685 19.244V20.26V21.276C265.829 21.276 266.778 21.4424 267.555 21.7461L267.925 20.8ZM264.685 20.26V19.244C263.999 19.244 263.314 19.3442 262.77 19.6813C262.145 20.0682 261.829 20.691 261.829 21.4H262.845H263.861C263.861 21.3487 263.87 21.3533 263.855 21.3826C263.837 21.4143 263.82 21.4209 263.84 21.4087C263.909 21.3658 264.143 21.276 264.685 21.276V20.26ZM262.845 21.4H261.829C261.829 21.9137 262.001 22.415 262.398 22.8052C262.77 23.1697 263.251 23.3505 263.716 23.4384L263.905 22.44L264.093 21.4416C263.978 21.4199 263.904 21.3943 263.86 21.3745C263.817 21.3552 263.811 21.3448 263.821 21.3548C263.834 21.3671 263.849 21.388 263.858 21.4111C263.866 21.4317 263.861 21.4326 263.861 21.4H262.845ZM263.905 22.44L263.708 23.4368L265.228 23.7368L265.425 22.74L265.622 21.7432L264.102 21.4432L263.905 22.44ZM265.425 22.74L265.219 23.735C266.322 23.9627 266.985 24.342 267.361 24.7701L268.125 24.1L268.888 23.4299C268.117 22.5514 266.981 22.024 265.63 21.745L265.425 22.74ZM268.125 24.1L267.369 24.7788C267.742 25.1945 267.989 25.8254 267.989 26.8H269.005H270.021C270.021 25.4812 269.681 24.3121 268.881 23.4212L268.125 24.1ZM269.005 26.8H267.989C267.989 28.1127 267.606 28.9159 266.999 29.4157L267.645 30.2L268.291 30.9843C269.497 29.9908 270.021 28.5273 270.021 26.8H269.005ZM267.645 30.2L267.006 29.41C266.362 29.9312 265.245 30.284 263.465 30.284V31.3V32.316C265.445 32.316 267.115 31.9355 268.284 30.99L267.645 30.2ZM269.896 30.52L268.908 30.2831L268.702 31.1417L269.524 31.4653L269.896 30.52ZM270.596 27.6L270.961 26.6517L269.879 26.2354L269.608 27.3631L270.596 27.6ZM272.256 28.08L272.053 29.0754L272.065 29.078L272.078 29.0803L272.256 28.08ZM275.596 27.94L275.088 27.06L275.081 27.0643L275.073 27.0688L275.596 27.94ZM275.196 25.96L274.995 26.9559L275.001 26.9571L275.196 25.96ZM273.416 25.6L273.212 26.5953L273.215 26.5958L273.416 25.6ZM271.456 18.4L272.116 19.173L272.122 19.1674L271.456 18.4ZM279.436 17.94L280.421 18.188L280.641 17.3168L279.803 16.9925L279.436 17.94ZM278.716 20.8L278.346 21.7461L279.42 22.1664L279.701 21.048L278.716 20.8ZM274.696 22.44L274.893 21.4432L274.885 21.4416L274.696 22.44ZM276.216 22.74L276.422 21.745L276.413 21.7432L276.216 22.74ZM278.916 24.1L278.152 24.7702L278.16 24.7788L278.916 24.1ZM278.436 30.2L279.075 30.99L279.082 30.9843L278.436 30.2ZM274.256 31.3V30.284C272.782 30.284 271.457 30.0428 270.269 29.5747L269.896 30.52L269.524 31.4653C270.976 32.0372 272.557 32.316 274.256 32.316V31.3ZM269.896 30.52L270.884 30.7569L271.584 27.8369L270.596 27.6L269.608 27.3631L268.908 30.2831L269.896 30.52ZM270.596 27.6L270.231 28.5483C270.807 28.7698 271.415 28.945 272.053 29.0754L272.256 28.08L272.46 27.0846C271.924 26.975 271.425 26.8302 270.961 26.6517L270.596 27.6ZM272.256 28.08L272.078 29.0803C272.727 29.1957 273.347 29.256 273.936 29.256V28.24V27.224C273.485 27.224 272.985 27.1776 272.434 27.0797L272.256 28.08ZM273.936 28.24V29.256C274.744 29.256 275.536 29.1611 276.119 28.8112L275.596 27.94L275.073 27.0688C274.99 27.1189 274.675 27.224 273.936 27.224V28.24ZM275.596 27.94L276.104 28.82C276.812 28.4114 277.132 27.7185 277.132 26.96H276.116H275.1C275.1 27.0577 275.082 27.0817 275.089 27.0688C275.092 27.0631 275.096 27.0568 275.101 27.0524C275.105 27.0484 275.103 27.0518 275.088 27.06L275.596 27.94ZM276.116 26.96H277.132C277.132 26.4875 276.994 26.0036 276.634 25.6121C276.288 25.2357 275.831 25.049 275.391 24.9629L275.196 25.96L275.001 26.9571C275.085 26.9735 275.13 26.9919 275.15 27.0014C275.167 27.0099 275.157 27.0082 275.138 26.9879C275.13 26.9782 275.121 26.9668 275.114 26.9544C275.106 26.942 275.102 26.9315 275.099 26.9243C275.094 26.91 275.1 26.9179 275.1 26.96H276.116ZM275.196 25.96L275.398 24.9642L273.618 24.6042L273.416 25.6L273.215 26.5958L274.995 26.9558L275.196 25.96ZM273.416 25.6L273.62 24.6047C272.669 24.4099 272.072 24.0527 271.706 23.6142C271.343 23.1788 271.112 22.5486 271.112 21.62H270.096H269.08C269.08 22.8914 269.403 24.0246 270.146 24.9158C270.887 25.804 271.95 26.3368 273.212 26.5953L273.416 25.6ZM270.096 21.62H271.112C271.112 20.4937 271.471 19.7228 272.116 19.173L271.456 18.4L270.797 17.627C269.628 18.6239 269.08 19.9997 269.08 21.62H270.096ZM271.456 18.4L272.122 19.1674C272.791 18.5866 273.774 18.236 275.196 18.236V17.22V16.204C273.445 16.204 271.934 16.64 270.79 17.6326L271.456 18.4ZM275.196 17.22V18.236C276.681 18.236 277.967 18.4606 279.069 18.8875L279.436 17.94L279.803 16.9925C278.426 16.4594 276.885 16.204 275.196 16.204V17.22ZM279.436 17.94L278.451 17.692L277.731 20.552L278.716 20.8L279.701 21.048L280.421 18.188L279.436 17.94ZM278.716 20.8L279.086 19.8539C278.023 19.4376 276.812 19.244 275.476 19.244V20.26V21.276C276.621 21.276 277.57 21.4424 278.346 21.7461L278.716 20.8ZM275.476 20.26V19.244C274.791 19.244 274.105 19.3442 273.561 19.6813C272.937 20.0682 272.62 20.691 272.62 21.4H273.636H274.652C274.652 21.3487 274.662 21.3533 274.646 21.3826C274.629 21.4143 274.611 21.4209 274.631 21.4087C274.7 21.3658 274.935 21.276 275.476 21.276V20.26ZM273.636 21.4H272.62C272.62 21.9137 272.792 22.415 273.19 22.8052C273.561 23.1697 274.042 23.3505 274.508 23.4384L274.696 22.44L274.885 21.4416C274.77 21.4199 274.695 21.3943 274.652 21.3745C274.609 21.3552 274.603 21.3448 274.613 21.3548C274.625 21.3671 274.64 21.388 274.649 21.4111C274.657 21.4317 274.652 21.4326 274.652 21.4H273.636ZM274.696 22.44L274.499 23.4368L276.019 23.7368L276.216 22.74L276.413 21.7432L274.893 21.4432L274.696 22.44ZM276.216 22.74L276.011 23.735C277.113 23.9627 277.777 24.342 278.153 24.7701L278.916 24.1L279.68 23.4299C278.909 22.5514 277.773 22.024 276.422 21.745L276.216 22.74ZM278.916 24.1L278.16 24.7788C278.534 25.1945 278.78 25.8254 278.78 26.8H279.796H280.812C280.812 25.4812 280.472 24.3121 279.672 23.4212L278.916 24.1ZM279.796 26.8H278.78C278.78 28.1127 278.397 28.9159 277.79 29.4157L278.436 30.2L279.082 30.9843C280.288 29.9908 280.812 28.5273 280.812 26.8H279.796ZM278.436 30.2L277.797 29.41C277.153 29.9312 276.036 30.284 274.256 30.284V31.3V32.316C276.236 32.316 277.906 31.9355 279.075 30.99L278.436 30.2ZM281.463 31H280.447V32.016H281.463V31ZM281.463 17.52V16.504H280.447V17.52H281.463ZM285.303 17.52H286.319V16.504H285.303V17.52ZM285.303 31V32.016H286.319V31H285.303ZM281.463 31H282.479V17.52H281.463H280.447V31H281.463ZM281.463 17.52V18.536H285.303V17.52V16.504H281.463V17.52ZM285.303 17.52H284.287V31H285.303H286.319V17.52H285.303ZM285.303 31V29.984H281.463V31V32.016H285.303V31ZM288.704 29.5L287.94 30.1702L288.704 29.5ZM288.704 19.02L287.94 18.3498L288.704 19.02ZM297.904 19.02L298.667 18.3498L297.904 19.02ZM294.984 27.36L295.872 27.8534L295.876 27.8452L294.984 27.36ZM294.984 21.18L294.091 21.6652L294.095 21.6734L294.984 21.18ZM291.624 21.18L292.512 21.6734L292.516 21.6652L291.624 21.18ZM291.624 27.36L290.731 27.8452L290.735 27.8534L291.624 27.36ZM293.304 31.3V30.284C291.501 30.284 290.279 29.755 289.467 28.8298L288.704 29.5L287.94 30.1702C289.234 31.645 291.08 32.316 293.304 32.316V31.3ZM288.704 29.5L289.467 28.8298C288.635 27.8818 288.14 26.4128 288.14 24.26H287.124H286.108C286.108 26.6939 286.665 28.7182 287.94 30.1702L288.704 29.5ZM287.124 24.26H288.14C288.14 22.1072 288.635 20.6382 289.467 19.6902L288.704 19.02L287.94 18.3498C286.665 19.8018 286.108 21.8261 286.108 24.26H287.124ZM288.704 19.02L289.467 19.6902C290.279 18.765 291.501 18.236 293.304 18.236V17.22V16.204C291.08 16.204 289.234 16.875 287.94 18.3498L288.704 19.02ZM293.304 17.22V18.236C295.107 18.236 296.328 18.765 297.14 19.6902L297.904 19.02L298.667 18.3498C297.373 16.875 295.527 16.204 293.304 16.204V17.22ZM297.904 19.02L297.14 19.6902C297.972 20.6382 298.468 22.1072 298.468 24.26H299.484H300.5C300.5 21.8261 299.942 19.8018 298.667 18.3498L297.904 19.02ZM299.484 24.26H298.468C298.468 26.4128 297.972 27.8818 297.14 28.8298L297.904 29.5L298.667 30.1702C299.942 28.7182 300.5 26.6939 300.5 24.26H299.484ZM297.904 29.5L297.14 28.8298C296.328 29.755 295.107 30.284 293.304 30.284V31.3V32.316C295.527 32.316 297.373 31.645 298.667 30.1702L297.904 29.5ZM293.304 28.26V29.276C294.394 29.276 295.33 28.8291 295.872 27.8534L294.984 27.36L294.095 26.8666C293.971 27.0909 293.786 27.244 293.304 27.244V28.26ZM294.984 27.36L295.876 27.8452C296.339 26.9929 296.5 25.7368 296.5 24.26H295.484H294.468C294.468 25.6899 294.294 26.5004 294.091 26.8748L294.984 27.36ZM295.484 24.26H296.5C296.5 22.7866 296.34 21.5304 295.872 20.6866L294.984 21.18L294.095 21.6734C294.293 22.0296 294.468 22.8268 294.468 24.26H295.484ZM294.984 21.18L295.876 20.6948C295.339 19.7067 294.405 19.244 293.304 19.244V20.26V21.276C293.775 21.276 293.961 21.4266 294.091 21.6652L294.984 21.18ZM293.304 20.26V19.244C292.202 19.244 291.268 19.7067 290.731 20.6948L291.624 21.18L292.516 21.6652C292.646 21.4266 292.832 21.276 293.304 21.276V20.26ZM291.624 21.18L290.735 20.6866C290.267 21.5304 290.108 22.7866 290.108 24.26H291.124H292.14C292.14 22.8268 292.314 22.0296 292.512 21.6734L291.624 21.18ZM291.124 24.26H290.108C290.108 25.7368 290.268 26.9929 290.731 27.8452L291.624 27.36L292.516 26.8748C292.313 26.5004 292.14 25.6899 292.14 24.26H291.124ZM291.624 27.36L290.735 27.8534C291.277 28.8291 292.213 29.276 293.304 29.276V28.26V27.244C292.821 27.244 292.636 27.0909 292.512 26.8666L291.624 27.36ZM301.307 31H300.291V32.016H301.307V31ZM301.307 17.52V16.504H300.291V17.52H301.307ZM305.307 17.52L306.211 17.0554L305.927 16.504H305.307V17.52ZM309.647 25.96L308.744 26.4246L310.663 25.96H309.647ZM309.647 17.52V16.504H308.631V17.52H309.647ZM312.987 17.52H314.003V16.504H312.987V17.52ZM312.987 31V32.016H314.003V31H312.987ZM308.987 31L308.084 31.4646L308.367 32.016H308.987V31ZM304.647 22.56L305.551 22.0954L303.631 22.56H304.647ZM304.647 31V32.016H305.663V31H304.647ZM301.307 31H302.323V17.52H301.307H300.291V31H301.307ZM301.307 17.52V18.536H305.307V17.52V16.504H301.307V17.52ZM305.307 17.52L304.404 17.9846L308.744 26.4246L309.647 25.96L310.551 25.4954L306.211 17.0554L305.307 17.52ZM309.647 25.96H310.663V17.52H309.647H308.631V25.96H309.647ZM309.647 17.52V18.536H312.987V17.52V16.504H309.647V17.52ZM312.987 17.52H311.971V31H312.987H314.003V17.52H312.987ZM312.987 31V29.984H308.987V31V32.016H312.987V31ZM308.987 31L309.891 30.5354L305.551 22.0954L304.647 22.56L303.744 23.0246L308.084 31.4646L308.987 31ZM304.647 22.56H303.631V31H304.647H305.663V22.56H304.647ZM304.647 31V29.984H301.307V31V32.016H304.647V31ZM314.8 30.52L313.812 30.2831L313.606 31.1417L314.428 31.4653L314.8 30.52ZM315.5 27.6L315.865 26.6517L314.782 26.2354L314.512 27.3631L315.5 27.6ZM317.16 28.08L316.957 29.0754L316.969 29.078L316.982 29.0803L317.16 28.08ZM320.5 27.94L319.992 27.06L319.985 27.0643L319.977 27.0688L320.5 27.94ZM320.1 25.96L319.899 26.9559L319.905 26.9571L320.1 25.96ZM318.32 25.6L318.116 26.5953L318.119 26.5958L318.32 25.6ZM316.36 18.4L317.019 19.173L317.026 19.1674L316.36 18.4ZM324.34 17.94L325.325 18.188L325.545 17.3168L324.707 16.9925L324.34 17.94ZM323.62 20.8L323.25 21.7461L324.324 22.1664L324.605 21.048L323.62 20.8ZM319.6 22.44L319.797 21.4432L319.788 21.4416L319.6 22.44ZM321.12 22.74L321.326 21.745L321.317 21.7432L321.12 22.74ZM323.82 24.1L323.056 24.7702L323.064 24.7788L323.82 24.1ZM323.34 30.2L323.979 30.99L323.986 30.9843L323.34 30.2ZM319.16 31.3V30.284C317.686 30.284 316.361 30.0428 315.172 29.5747L314.8 30.52L314.428 31.4653C315.88 32.0372 317.461 32.316 319.16 32.316V31.3ZM314.8 30.52L315.788 30.7569L316.488 27.8369L315.5 27.6L314.512 27.3631L313.812 30.2831L314.8 30.52ZM315.5 27.6L315.135 28.5483C315.711 28.7698 316.319 28.945 316.957 29.0754L317.16 28.08L317.364 27.0846C316.828 26.975 316.329 26.8302 315.865 26.6517L315.5 27.6ZM317.16 28.08L316.982 29.0803C317.631 29.1957 318.251 29.256 318.84 29.256V28.24V27.224C318.389 27.224 317.889 27.1776 317.338 27.0797L317.16 28.08ZM318.84 28.24V29.256C319.648 29.256 320.44 29.1611 321.023 28.8112L320.5 27.94L319.977 27.0688C319.894 27.1189 319.579 27.224 318.84 27.224V28.24ZM320.5 27.94L321.008 28.82C321.716 28.4114 322.036 27.7185 322.036 26.96H321.02H320.004C320.004 27.0577 319.986 27.0817 319.993 27.0688C319.996 27.0631 320 27.0568 320.005 27.0524C320.009 27.0484 320.007 27.0518 319.992 27.06L320.5 27.94ZM321.02 26.96H322.036C322.036 26.4875 321.898 26.0036 321.538 25.6121C321.191 25.2357 320.735 25.049 320.295 24.9629L320.1 25.96L319.905 26.9571C319.989 26.9735 320.034 26.9919 320.054 27.0014C320.071 27.0099 320.061 27.0082 320.042 26.9879C320.034 26.9782 320.025 26.9668 320.018 26.9544C320.01 26.942 320.006 26.9315 320.003 26.9243C319.998 26.91 320.004 26.9179 320.004 26.96H321.02ZM320.1 25.96L320.302 24.9642L318.522 24.6042L318.32 25.6L318.119 26.5958L319.899 26.9558L320.1 25.96ZM318.32 25.6L318.524 24.6047C317.573 24.4099 316.976 24.0527 316.61 23.6142C316.247 23.1788 316.016 22.5486 316.016 21.62H315H313.984C313.984 22.8914 314.306 24.0246 315.05 24.9158C315.791 25.804 316.854 26.3368 318.116 26.5953L318.32 25.6ZM315 21.62H316.016C316.016 20.4937 316.375 19.7228 317.019 19.173L316.36 18.4L315.701 17.627C314.532 18.6239 313.984 19.9997 313.984 21.62H315ZM316.36 18.4L317.026 19.1674C317.695 18.5866 318.678 18.236 320.1 18.236V17.22V16.204C318.349 16.204 316.838 16.64 315.694 17.6326L316.36 18.4ZM320.1 17.22V18.236C321.585 18.236 322.871 18.4606 323.973 18.8875L324.34 17.94L324.707 16.9925C323.33 16.4594 321.789 16.204 320.1 16.204V17.22ZM324.34 17.94L323.355 17.692L322.635 20.552L323.62 20.8L324.605 21.048L325.325 18.188L324.34 17.94ZM323.62 20.8L323.99 19.8539C322.927 19.4376 321.716 19.244 320.38 19.244V20.26V21.276C321.525 21.276 322.474 21.4424 323.25 21.7461L323.62 20.8ZM320.38 20.26V19.244C319.695 19.244 319.009 19.3442 318.465 19.6813C317.841 20.0682 317.524 20.691 317.524 21.4H318.54H319.556C319.556 21.3487 319.566 21.3533 319.55 21.3826C319.533 21.4143 319.515 21.4209 319.535 21.4087C319.604 21.3658 319.839 21.276 320.38 21.276V20.26ZM318.54 21.4H317.524C317.524 21.9137 317.696 22.415 318.094 22.8052C318.465 23.1697 318.946 23.3505 319.412 23.4384L319.6 22.44L319.788 21.4416C319.673 21.4199 319.599 21.3943 319.555 21.3745C319.513 21.3552 319.507 21.3448 319.517 21.3548C319.529 21.3671 319.544 21.388 319.553 21.4111C319.561 21.4317 319.556 21.4326 319.556 21.4H318.54ZM319.6 22.44L319.403 23.4368L320.923 23.7368L321.12 22.74L321.317 21.7432L319.797 21.4432L319.6 22.44ZM321.12 22.74L320.915 23.735C322.017 23.9627 322.681 24.342 323.056 24.7701L323.82 24.1L324.584 23.4299C323.813 22.5514 322.676 22.024 321.326 21.745L321.12 22.74ZM323.82 24.1L323.064 24.7788C323.437 25.1945 323.684 25.8254 323.684 26.8H324.7H325.716C325.716 25.4812 325.376 24.3121 324.576 23.4212L323.82 24.1ZM324.7 26.8H323.684C323.684 28.1127 323.301 28.9159 322.694 29.4157L323.34 30.2L323.986 30.9843C325.192 29.9908 325.716 28.5273 325.716 26.8H324.7ZM323.34 30.2L322.701 29.41C322.057 29.9312 320.94 30.284 319.16 30.284V31.3V32.316C321.14 32.316 322.81 31.9355 323.979 30.99L323.34 30.2Z" fill="#3B3B3B" mask="url(#path-5-outside-1_202_4906)"/>
</g>
<defs>
<filter id="filter0_d_202_4906" x="0.0012207" y="0" width="387.999" height="68.9066" filterUnits="userSpaceOnUse" color-interpolation-filters="sRGB">
<feFlood flood-opacity="0" result="BackgroundImageFix"/>
<feColorMatrix in="SourceAlpha" type="matrix" values="0 0 0 0 0 0 0 0 0 0 0 0 0 0 0 0 0 0 127 0" result="hardAlpha"/>
<feOffset dy="4"/>
<feComposite in2="hardAlpha" operator="out"/>
<feColorMatrix type="matrix" values="0 0 0 0 0 0 0 0 0 0 0 0 0 0 0 0 0 0 0.25 0"/>
<feBlend mode="normal" in2="BackgroundImageFix" result="effect1_dropShadow_202_4906"/>
<feBlend mode="normal" in="SourceGraphic" in2="effect1_dropShadow_202_4906" result="shape"/>
</filter>
<filter id="filter1_ddd_202_4906" x="59.8973" y="15.442" width="268.359" height="21.1921" filterUnits="userSpaceOnUse" color-interpolation-filters="sRGB">
<feFlood flood-opacity="0" result="BackgroundImageFix"/>
<feColorMatrix in="SourceAlpha" type="matrix" values="0 0 0 0 0 0 0 0 0 0 0 0 0 0 0 0 0 0 127 0" result="hardAlpha"/>
<feOffset dy="1"/>
<feComposite in2="hardAlpha" operator="out"/>
<feColorMatrix type="matrix" values="0 0 0 0 0 0 0 0 0 0 0 0 0 0 0 0 0 0 1 0"/>
<feBlend mode="normal" in2="BackgroundImageFix" result="effect1_dropShadow_202_4906"/>
<feColorMatrix in="SourceAlpha" type="matrix" values="0 0 0 0 0 0 0 0 0 0 0 0 0 0 0 0 0 0 127 0" result="hardAlpha"/>
<feOffset dy="1"/>
<feComposite in2="hardAlpha" operator="out"/>
<feColorMatrix type="matrix" values="0 0 0 0 0 0 0 0 0 0 0 0 0 0 0 0 0 0 1 0"/>
<feBlend mode="normal" in2="effect1_dropShadow_202_4906" result="effect2_dropShadow_202_4906"/>
<feColorMatrix in="SourceAlpha" type="matrix" values="0 0 0 0 0 0 0 0 0 0 0 0 0 0 0 0 0 0 127 0" result="hardAlpha"/>
<feOffset dy="1.778"/>
<feGaussianBlur stdDeviation="1.27"/>
<feComposite in2="hardAlpha" operator="out"/>
<feColorMatrix type="matrix" values="0 0 0 0 0 0 0 0 0 0 0 0 0 0 0 0 0 0 0.8 0"/>
<feBlend mode="normal" in2="effect2_dropShadow_202_4906" result="effect3_dropShadow_202_4906"/>
<feBlend mode="normal" in="SourceGraphic" in2="effect3_dropShadow_202_4906" result="shape"/>
</filter>
<linearGradient id="paint0_linear_202_4906" x1="1.00952" y1="27.1039" x2="386.991" y2="27.1039" gradientUnits="userSpaceOnUse">
<stop stop-color="#4B42A2"/>
<stop offset="0.475" stop-color="#8383FF"/>
<stop offset="1" stop-color="#4C43A3"/>
</linearGradient>
<radialGradient id="paint1_radial_202_4906" cx="0" cy="0" r="1" gradientUnits="userSpaceOnUse" gradientTransform="translate(194 37.7726) rotate(-90) scale(43.7723 1126.28)">
<stop offset="0.431628" stop-color="white" stop-opacity="0.26"/>
<stop offset="1" stop-color="white"/>
</radialGradient>
</defs>
</svg>
