<svg width="151" height="364" viewBox="0 0 151 364" fill="none" xmlns="http://www.w3.org/2000/svg">
<g style="mix-blend-mode:multiply" opacity="0.5">
<path d="M149.554 342.008C148.874 345.438 150.448 348.617 153.048 349.133C155.647 349.648 158.321 347.288 158.997 343.882C159.672 340.475 158.102 337.273 155.503 336.757C152.904 336.242 150.23 338.602 149.554 342.008Z" fill="#FFE779"/>
<path d="M144.791 332.031C144.129 335.368 145.646 338.463 148.193 338.969C150.739 339.474 153.323 337.192 153.986 333.855C154.648 330.518 153.13 327.423 150.584 326.918C148.037 326.412 145.453 328.694 144.791 332.031Z" fill="#FFE779"/>
<path d="M136.56 339.43C135.916 342.675 137.408 345.716 139.883 346.208C142.359 346.699 144.898 344.457 145.542 341.212C146.186 337.968 144.694 334.926 142.219 334.435C139.743 333.944 137.203 336.186 136.56 339.43Z" fill="#FFE779"/>
<path d="M148.164 314.659C147.493 318.038 149.04 321.191 151.618 321.703C154.196 322.214 156.829 319.89 157.5 316.511C158.17 313.132 156.624 309.978 154.045 309.466C151.467 308.955 148.834 311.28 148.164 314.659Z" fill="#FFE779"/>
<path d="M139.896 322.052C139.234 325.389 140.751 328.484 143.298 328.99C145.844 329.495 148.428 327.213 149.09 323.876C149.753 320.539 148.235 317.444 145.688 316.939C143.142 316.433 140.558 318.715 139.896 322.052Z" fill="#FFE779"/>
<path d="M131.811 329.456C131.189 332.591 132.624 335.518 135.017 335.993C137.41 336.468 139.854 334.31 140.476 331.174C141.098 328.039 139.662 325.112 137.27 324.637C134.877 324.162 132.433 326.32 131.811 329.456Z" fill="#FFE779"/>
<path d="M123.757 336.892C123.173 339.835 124.525 342.56 126.753 343.002C128.981 343.444 131.276 341.419 131.855 338.499C132.434 335.578 131.087 332.83 128.859 332.388C126.631 331.946 124.336 333.972 123.757 336.892Z" fill="#FFE779"/>
<path d="M151.606 297.301C150.936 300.68 152.482 303.834 155.06 304.345C157.638 304.857 160.272 302.532 160.942 299.153C161.613 295.774 160.066 292.621 157.488 292.109C154.91 291.598 152.276 293.922 151.606 297.301Z" fill="#FFE779"/>
<path d="M143.269 304.68C142.598 308.059 144.145 311.212 146.723 311.724C149.301 312.235 151.935 309.911 152.605 306.532C153.275 303.153 151.729 299.999 149.151 299.487C146.573 298.976 143.939 301.301 143.269 304.68Z" fill="#FFE779"/>
<path d="M135.167 312.08C134.532 315.28 135.996 318.267 138.438 318.751C140.879 319.235 143.373 317.034 144.008 313.834C144.643 310.634 143.178 307.648 140.737 307.164C138.295 306.679 135.801 308.88 135.167 312.08Z" fill="#FFE779"/>
<path d="M127.129 319.518C126.536 322.508 127.914 325.286 130.177 325.735C132.441 326.184 134.78 324.119 135.369 321.153C135.957 318.186 134.583 315.385 132.32 314.936C130.057 314.487 127.717 316.552 127.129 319.518Z" fill="#FFE779"/>
<path d="M118.779 326.872C118.186 329.861 119.565 332.64 121.828 333.089C124.091 333.538 126.431 331.473 127.019 328.506C127.608 325.54 126.234 322.738 123.97 322.289C121.707 321.84 119.368 323.905 118.779 326.872Z" fill="#FFE779"/>
<path d="M110.795 334.319C110.253 337.054 111.496 339.589 113.582 340.003C115.669 340.417 117.785 338.548 118.328 335.814C118.87 333.079 117.627 330.544 115.541 330.13C113.454 329.716 111.338 331.585 110.795 334.319Z" fill="#FFE779"/>
<path d="M146.713 287.322C146.042 290.701 147.589 293.854 150.167 294.366C152.745 294.877 155.379 292.553 156.049 289.174C156.719 285.795 155.173 282.641 152.595 282.13C150.016 281.618 147.383 283.943 146.713 287.322Z" fill="#FFE779"/>
<path d="M138.628 294.726C137.993 297.924 139.459 300.913 141.899 301.397C144.339 301.881 146.834 299.678 147.469 296.48C148.103 293.282 146.638 290.294 144.198 289.81C141.757 289.325 139.262 291.528 138.628 294.726Z" fill="#FFE779"/>
<path d="M130.537 302.153C129.94 305.161 131.317 307.969 133.612 308.424C135.907 308.879 138.251 306.81 138.848 303.802C139.444 300.794 138.068 297.987 135.773 297.532C133.478 297.076 131.134 299.146 130.537 302.153Z" fill="#FFE779"/>
<path d="M122.222 309.513C121.629 312.502 123.008 315.281 125.271 315.73C127.534 316.179 129.874 314.114 130.462 311.147C131.051 308.181 129.677 305.379 127.413 304.93C125.15 304.481 122.811 306.546 122.222 309.513Z" fill="#FFE779"/>
<path d="M114.168 316.947C113.617 319.728 114.886 322.316 117.008 322.737C119.13 323.158 121.291 321.25 121.842 318.469C122.394 315.688 121.125 313.1 119.003 312.679C116.881 312.258 114.72 314.166 114.168 316.947Z" fill="#FFE779"/>
<path d="M106.027 325.126C105.838 327.728 107.323 329.813 109.342 329.784C111.362 329.755 113.151 327.622 113.34 325.021C113.528 322.419 112.043 320.333 110.024 320.362C108.005 320.392 106.215 322.524 106.027 325.126Z" fill="#FFE779"/>
<path d="M97.8165 331.745C97.3153 334.271 98.4798 336.646 100.407 337.029C102.335 337.411 104.318 335.661 104.819 333.135C105.32 330.608 104.155 328.234 102.228 327.851C100.301 327.469 98.3176 329.219 97.8165 331.745Z" fill="#FFE779"/>
<path d="M150.316 269.994C149.669 273.258 151.163 276.304 153.653 276.798C156.143 277.292 158.687 275.047 159.334 271.783C159.982 268.519 158.488 265.473 155.998 264.979C153.507 264.485 150.964 266.73 150.316 269.994Z" fill="#FFE779"/>
<path d="M142.124 277.378C141.498 280.53 142.933 283.489 145.356 283.969C147.778 284.45 150.229 282.286 150.859 279.111C151.489 275.936 150.049 273.001 147.627 272.521C145.204 272.04 142.754 274.204 142.124 277.378Z" fill="#FFE779"/>
<path d="M133.981 284.795C133.383 287.808 134.757 290.61 137.056 291.066C139.355 291.522 141.694 289.457 142.292 286.444C142.889 283.431 141.515 280.63 139.217 280.174C136.918 279.718 134.579 281.783 133.981 284.795Z" fill="#FFE779"/>
<path d="M125.65 292.151C125.052 295.164 126.426 297.965 128.725 298.421C131.024 298.877 133.363 296.812 133.961 293.8C134.559 290.787 133.185 287.985 130.886 287.529C128.587 287.073 126.248 289.138 125.65 292.151Z" fill="#FFE779"/>
<path d="M117.524 299.573C116.963 302.4 118.254 305.065 120.429 305.496C122.604 305.928 124.81 303.981 125.375 301.13C125.941 298.28 124.645 295.638 122.47 295.207C120.295 294.775 118.09 296.722 117.524 299.573Z" fill="#FFE779"/>
<path d="M109.509 306.99C108.99 309.609 110.18 312.037 112.179 312.433C114.177 312.83 116.204 311.04 116.724 308.421C117.243 305.802 116.053 303.374 114.054 302.978C112.056 302.581 110.029 304.371 109.509 306.99Z" fill="#FFE779"/>
<path d="M101.208 314.377C100.698 316.95 101.875 319.351 103.838 319.74C105.801 320.13 107.806 318.36 108.316 315.787C108.827 313.214 107.649 310.813 105.686 310.424C103.723 310.034 101.718 311.804 101.208 314.377Z" fill="#FFE779"/>
<path d="M93.1227 321.779C92.6491 324.166 93.7351 326.381 95.5564 326.742C97.3777 327.103 99.2269 325.471 99.7005 323.084C100.174 320.697 99.088 318.482 97.2667 318.121C95.4455 317.76 93.5962 319.392 93.1227 321.779Z" fill="#FFE779"/>
<path d="M85.1392 329.23C84.7162 331.362 85.6845 333.336 87.3113 333.659C88.938 333.982 90.5868 332.527 91.0097 330.394C91.4327 328.262 90.4644 326.288 88.8377 325.965C87.2109 325.642 85.5622 327.098 85.1392 329.23Z" fill="#FFE779"/>
<path d="M145.598 260.05C144.978 263.173 146.408 266.088 148.79 266.561C151.173 267.034 153.607 264.885 154.227 261.762C154.846 258.639 153.417 255.724 151.034 255.251C148.651 254.779 146.217 256.927 145.598 260.05Z" fill="#FFE779"/>
<path d="M137.531 267.459C136.948 270.402 138.3 273.128 140.528 273.57C142.756 274.012 145.051 271.986 145.63 269.066C146.209 266.146 144.862 263.397 142.634 262.955C140.406 262.513 138.111 264.539 137.531 267.459Z" fill="#FFE779"/>
<path d="M129.111 274.795C128.518 277.785 129.896 280.563 132.16 281.012C134.423 281.461 136.762 279.396 137.351 276.43C137.939 273.464 136.565 270.662 134.302 270.213C132.039 269.764 129.699 271.829 129.111 274.795Z" fill="#FFE779"/>
<path d="M120.968 282.214C120.407 285.042 121.698 287.706 123.873 288.138C126.048 288.569 128.253 286.622 128.819 283.772C129.384 280.921 128.089 278.28 125.914 277.848C123.739 277.417 121.533 279.364 120.968 282.214Z" fill="#FFE779"/>
<path d="M112.953 289.632C112.433 292.251 113.624 294.679 115.622 295.075C117.62 295.472 119.648 293.682 120.167 291.063C120.687 288.444 119.496 286.016 117.498 285.62C115.5 285.223 113.472 287.013 112.953 289.632Z" fill="#FFE779"/>
<path d="M104.58 297.005C104.056 299.646 105.26 302.101 107.275 302.501C109.291 302.901 111.341 301.092 111.865 298.45C112.389 295.808 111.185 293.353 109.17 292.953C107.154 292.553 105.104 294.363 104.58 297.005Z" fill="#FFE779"/>
<path d="M96.5481 304.419C96.07 306.829 97.1691 309.071 99.008 309.436C100.847 309.801 102.719 308.148 103.197 305.738C103.675 303.328 102.576 301.087 100.737 300.722C98.8978 300.357 97.0263 302.009 96.5481 304.419Z" fill="#FFE779"/>
<path d="M88.5113 311.859C88.0797 314.035 89.0756 316.066 90.7357 316.395C92.3959 316.724 94.0917 315.227 94.5233 313.052C94.955 310.876 93.9591 308.845 92.2989 308.515C90.6388 308.186 88.943 309.683 88.5113 311.859Z" fill="#FFE779"/>
<path d="M80.462 319.27C80.071 321.241 80.9731 323.081 82.477 323.379C83.981 323.677 85.5171 322.321 85.9082 320.35C86.2992 318.379 85.397 316.539 83.8931 316.241C82.3892 315.943 80.853 317.299 80.462 319.27Z" fill="#FFE779"/>
<path d="M72.1595 326.654C71.7733 328.601 72.6677 330.392 74.1353 330.683C75.603 330.974 77.118 329.637 77.4996 327.713C77.8812 325.79 76.9915 323.975 75.5238 323.684C74.0562 323.393 72.5411 324.73 72.1595 326.654Z" fill="#FFE779"/>
<path d="M149.271 242.739C148.685 245.695 150.038 248.455 152.294 248.902C154.55 249.35 156.854 247.316 157.441 244.359C158.027 241.403 156.674 238.643 154.418 238.196C152.162 237.748 149.858 239.782 149.271 242.739Z" fill="#FFE779"/>
<path d="M141.081 250.122C140.516 252.972 141.824 255.64 143.999 256.072C146.174 256.503 148.402 254.537 148.967 251.686C149.533 248.836 148.224 246.167 146.05 245.736C143.875 245.304 141.647 247.271 141.081 250.122Z" fill="#FFE779"/>
<path d="M132.62 257.475C132.036 260.419 133.389 263.144 135.616 263.586C137.844 264.028 140.139 262.002 140.719 259.082C141.298 256.162 139.95 253.414 137.722 252.972C135.494 252.53 133.199 254.555 132.62 257.475Z" fill="#FFE779"/>
<path d="M124.57 264.886C124.027 267.621 125.27 270.156 127.357 270.57C129.443 270.984 131.56 269.115 132.102 266.381C132.645 263.646 131.402 261.111 129.315 260.697C127.229 260.283 125.112 262.152 124.57 264.886Z" fill="#FFE779"/>
<path d="M116.431 272.282C115.921 274.854 117.098 277.256 119.061 277.645C121.024 278.034 123.029 276.264 123.539 273.692C124.05 271.119 122.872 268.718 120.909 268.329C118.947 267.939 116.941 269.709 116.431 272.282Z" fill="#FFE779"/>
<path d="M108.041 279.649C107.521 282.267 108.712 284.695 110.71 285.092C112.708 285.488 114.735 283.699 115.255 281.08C115.774 278.461 114.584 276.033 112.586 275.636C110.588 275.24 108.56 277.03 108.041 279.649Z" fill="#FFE779"/>
<path d="M99.9922 287.061C99.5141 289.471 100.613 291.712 102.452 292.077C104.291 292.442 106.163 290.79 106.641 288.38C107.119 285.97 106.02 283.728 104.181 283.363C102.342 282.999 100.47 284.651 99.9922 287.061Z" fill="#FFE779"/>
<path d="M91.9014 294.488C91.4622 296.703 92.4756 298.769 94.1651 299.105C95.8546 299.44 97.5803 297.916 98.0195 295.702C98.4588 293.488 97.4454 291.421 95.7559 291.086C94.0664 290.751 92.3407 292.274 91.9014 294.488Z" fill="#FFE779"/>
<path d="M83.8691 301.903C83.4737 303.896 84.3897 305.764 85.9104 306.066C87.431 306.367 88.9906 304.991 89.386 302.998C89.7814 301.005 88.8655 299.137 87.3448 298.835C85.8242 298.533 84.2645 299.91 83.8691 301.903Z" fill="#FFE779"/>
<path d="M75.5511 309.286C75.1601 311.257 76.0623 313.097 77.5662 313.395C79.0701 313.693 80.6062 312.337 80.9973 310.366C81.3883 308.395 80.4862 306.555 78.9822 306.257C77.4783 305.959 75.9422 307.315 75.5511 309.286Z" fill="#FFE779"/>
<path d="M67.5191 316.701C67.1712 318.455 67.9738 320.091 69.3117 320.357C70.6495 320.622 72.0161 319.416 72.364 317.662C72.7119 315.909 71.9093 314.272 70.5714 314.007C69.2335 313.741 67.8669 314.948 67.5191 316.701Z" fill="#FFE779"/>
<path d="M59.5516 324.153C59.2574 325.636 59.9378 327.023 61.0694 327.248C62.2011 327.472 63.3597 326.45 63.6539 324.967C63.9482 323.483 63.2678 322.096 62.1361 321.871C61.0044 321.647 59.8459 322.67 59.5516 324.153Z" fill="#FFE779"/>
<path d="M144.753 232.809C144.22 235.498 145.45 238.006 147.501 238.413C149.552 238.82 151.646 236.971 152.18 234.283C152.713 231.594 151.483 229.086 149.432 228.679C147.381 228.272 145.287 230.121 144.753 232.809Z" fill="#FFE779"/>
<path d="M136.311 240.167C135.764 242.925 137.033 245.513 139.137 245.931C141.241 246.348 143.402 244.44 143.95 241.683C144.497 238.925 143.227 236.336 141.123 235.919C139.019 235.502 136.858 237.409 136.311 240.167Z" fill="#FFE779"/>
<path d="M128.068 247.539C127.534 250.227 128.764 252.735 130.815 253.142C132.867 253.549 134.961 251.701 135.494 249.012C136.028 246.324 134.798 243.816 132.746 243.409C130.695 243.002 128.601 244.851 128.068 247.539Z" fill="#FFE779"/>
<path d="M119.925 254.956C119.424 257.482 120.589 259.857 122.516 260.24C124.443 260.622 126.426 258.872 126.927 256.345C127.428 253.819 126.264 251.445 124.337 251.062C122.409 250.68 120.426 252.43 119.925 254.956Z" fill="#FFE779"/>
<path d="M111.591 262.313C111.09 264.839 112.255 267.214 114.182 267.596C116.11 267.978 118.092 266.228 118.594 263.702C119.095 261.176 117.93 258.801 116.003 258.419C114.075 258.036 112.093 259.787 111.591 262.313Z" fill="#FFE779"/>
<path d="M103.453 269.706C102.979 272.093 104.065 274.308 105.887 274.669C107.708 275.031 109.557 273.398 110.031 271.011C110.504 268.624 109.418 266.41 107.597 266.048C105.776 265.687 103.927 267.319 103.453 269.706Z" fill="#FFE779"/>
<path d="M95.3633 277.134C94.9265 279.335 95.9342 281.39 97.6139 281.723C99.2936 282.057 101.009 280.542 101.446 278.341C101.883 276.139 100.875 274.084 99.1955 273.751C97.5158 273.418 95.8 274.932 95.3633 277.134Z" fill="#FFE779"/>
<path d="M87.3132 284.546C86.9171 286.542 87.831 288.406 89.3545 288.708C90.8779 289.01 92.434 287.637 92.8301 285.64C93.2262 283.644 92.3124 281.78 90.7889 281.478C89.2655 281.175 87.7094 282.549 87.3132 284.546Z" fill="#FFE779"/>
<path d="M78.957 291.921C78.5609 293.918 79.4748 295.782 80.9983 296.084C82.5217 296.386 84.0778 295.012 84.4739 293.016C84.87 291.019 83.9562 289.155 82.4327 288.853C80.9093 288.551 79.3532 289.925 78.957 291.921Z" fill="#FFE779"/>
<path d="M70.9444 299.339C70.595 301.101 71.4062 302.755 72.7501 303.022C74.094 303.288 75.4753 302.069 75.8247 300.308C76.1742 298.546 75.3629 296.892 74.0191 296.625C72.6752 296.359 71.2938 297.578 70.9444 299.339Z" fill="#FFE779"/>
<path d="M62.9081 306.777C62.6047 308.307 63.3113 309.748 64.4783 309.979C65.6453 310.211 66.8484 309.149 67.1519 307.619C67.4553 306.09 66.7488 304.649 65.5817 304.417C64.4147 304.186 63.2116 305.248 62.9081 306.777Z" fill="#FFE779"/>
<path d="M54.5741 314.133C54.2707 315.663 54.9773 317.103 56.1443 317.335C57.3113 317.566 58.5145 316.504 58.8179 314.975C59.1213 313.445 58.4148 312.004 57.2477 311.773C56.0807 311.541 54.8776 312.603 54.5741 314.133Z" fill="#FFE779"/>
<path d="M46.6086 321.586C46.3603 322.838 46.936 324.012 47.8909 324.201C48.8457 324.39 49.8261 323.525 50.0743 322.274C50.3226 321.022 49.7469 319.848 48.792 319.659C47.8372 319.469 46.8569 320.335 46.6086 321.586Z" fill="#FFE779"/>
<path d="M148.411 215.492C147.91 218.019 149.075 220.393 151.002 220.776C152.929 221.158 154.912 219.408 155.413 216.882C155.915 214.356 154.75 211.981 152.823 211.598C150.895 211.216 148.912 212.966 148.411 215.492Z" fill="#FFE779"/>
<path d="M139.862 222.829C139.329 225.517 140.559 228.026 142.61 228.432C144.661 228.839 146.756 226.99 147.289 224.302C147.822 221.614 146.592 219.106 144.541 218.699C142.49 218.292 140.396 220.141 139.862 222.829Z" fill="#FFE779"/>
<path d="M131.776 230.235C131.279 232.737 132.418 235.059 134.327 235.438C136.237 235.817 138.175 234.106 138.672 231.603C139.168 229.1 138.03 226.778 136.12 226.399C134.211 226.021 132.272 227.732 131.776 230.235Z" fill="#FFE779"/>
<path d="M123.563 237.637C123.084 240.047 124.183 242.289 126.022 242.653C127.861 243.018 129.733 241.366 130.211 238.956C130.689 236.546 129.59 234.304 127.751 233.94C125.912 233.575 124.041 235.227 123.563 237.637Z" fill="#FFE779"/>
<path d="M115.105 244.968C114.614 247.448 115.752 249.769 117.644 250.145C119.536 250.52 121.474 248.809 121.966 246.329C122.458 243.85 121.32 241.528 119.428 241.153C117.536 240.778 115.597 242.489 115.105 244.968Z" fill="#FFE779"/>
<path d="M106.945 252.382C106.478 254.737 107.556 256.935 109.353 257.292C111.149 257.648 112.985 256.028 113.452 253.673C113.919 251.318 112.841 249.12 111.045 248.763C109.248 248.407 107.412 250.027 106.945 252.382Z" fill="#FFE779"/>
<path d="M98.9138 259.798C98.4909 261.93 99.4591 263.904 101.086 264.227C102.713 264.55 104.361 263.094 104.784 260.962C105.207 258.83 104.239 256.856 102.612 256.533C100.986 256.21 99.3368 257.666 98.9138 259.798Z" fill="#FFE779"/>
<path d="M90.7928 267.195C90.402 269.164 91.3049 271.006 92.8079 271.304C94.3109 271.602 95.8482 270.245 96.239 268.275C96.6298 266.305 95.7269 264.464 94.2239 264.166C92.7209 263.868 91.1836 265.225 90.7928 267.195Z" fill="#FFE779"/>
<path d="M82.4019 274.562C82.0057 276.558 82.9196 278.422 84.4431 278.724C85.9665 279.027 87.5226 277.653 87.9188 275.656C88.3149 273.66 87.401 271.796 85.8775 271.494C84.3541 271.192 82.798 272.565 82.4019 274.562Z" fill="#FFE779"/>
<path d="M74.3875 281.98C74.0381 283.742 74.8494 285.396 76.1932 285.663C77.5371 285.929 78.9184 284.71 79.2679 282.949C79.6173 281.187 78.806 279.533 77.4622 279.266C76.1183 279 74.737 280.219 74.3875 281.98Z" fill="#FFE779"/>
<path d="M66.3326 289.416C66.0246 290.969 66.7442 292.437 67.9289 292.672C69.1136 292.907 70.339 291.825 70.6471 290.272C70.9551 288.719 70.2355 287.252 69.0508 287.017C67.866 286.782 66.6406 287.864 66.3326 289.416Z" fill="#FFE779"/>
<path d="M57.9832 296.768C57.6752 298.321 58.3948 299.788 59.5796 300.023C60.7643 300.258 61.9897 299.176 62.2977 297.624C62.6058 296.071 61.8861 294.603 60.7014 294.368C59.5167 294.133 58.2913 295.215 57.9832 296.768Z" fill="#FFE779"/>
<path d="M50.0168 304.221C49.7603 305.514 50.352 306.72 51.3383 306.916C52.3247 307.112 53.3322 306.222 53.5886 304.93C53.8451 303.637 53.2534 302.43 52.2671 302.235C51.2807 302.039 50.2732 302.928 50.0168 304.221Z" fill="#FFE779"/>
<path d="M41.9499 311.629C41.7338 312.719 42.231 313.733 43.0621 313.897C43.8932 314.062 44.7398 313.315 44.9559 312.226C45.172 311.137 44.6748 310.123 43.8437 309.958C43.0126 309.793 42.166 310.54 41.9499 311.629Z" fill="#FFE779"/>
<path d="M34.0201 319.088C33.8638 319.876 34.2302 320.623 34.8314 320.742C35.4326 320.861 36.0564 320.311 36.2127 319.523C36.3691 318.735 36.0027 317.988 35.4015 317.868C34.8003 317.749 34.1765 318.3 34.0201 319.088Z" fill="#FFE779"/>
<path d="M143.693 205.548C143.215 207.958 144.314 210.2 146.153 210.565C147.992 210.929 149.863 209.277 150.341 206.867C150.82 204.457 149.72 202.216 147.882 201.851C146.043 201.486 144.171 203.138 143.693 205.548Z" fill="#FFE779"/>
<path d="M135.378 212.908C134.905 215.295 135.991 217.51 137.812 217.871C139.633 218.232 141.483 216.6 141.956 214.213C142.43 211.826 141.344 209.611 139.522 209.25C137.701 208.889 135.852 210.521 135.378 212.908Z" fill="#FFE779"/>
<path d="M127.129 220.303C126.67 222.621 127.729 224.782 129.498 225.133C131.266 225.484 133.071 223.891 133.53 221.573C133.99 219.256 132.93 217.094 131.162 216.743C129.394 216.393 127.589 217.986 127.129 220.303Z" fill="#FFE779"/>
<path d="M118.797 227.659C118.337 229.977 119.397 232.138 121.165 232.489C122.934 232.84 124.738 231.247 125.198 228.929C125.658 226.612 124.598 224.45 122.83 224.099C121.062 223.749 119.257 225.342 118.797 227.659Z" fill="#FFE779"/>
<path d="M110.584 235.062C110.145 237.276 111.158 239.343 112.847 239.678C114.537 240.013 116.263 238.49 116.702 236.276C117.141 234.062 116.128 231.995 114.438 231.66C112.749 231.325 111.023 232.848 110.584 235.062Z" fill="#FFE779"/>
<path d="M102.41 242.45C101.996 244.536 102.951 246.483 104.543 246.799C106.135 247.115 107.761 245.68 108.174 243.593C108.588 241.507 107.633 239.56 106.042 239.244C104.45 238.928 102.824 240.364 102.41 242.45Z" fill="#FFE779"/>
<path d="M94.2841 249.87C93.8979 251.817 94.7922 253.608 96.2598 253.899C97.7275 254.19 99.2425 252.853 99.6241 250.93C100.006 249.006 99.116 247.192 97.6483 246.9C96.1807 246.609 94.6657 247.947 94.2841 249.87Z" fill="#FFE779"/>
<path d="M85.9342 257.221C85.548 259.168 86.4424 260.959 87.91 261.25C89.3776 261.542 90.8927 260.204 91.2743 258.281C91.6559 256.357 90.7661 254.543 89.2985 254.252C87.8308 253.96 86.3158 255.298 85.9342 257.221Z" fill="#FFE779"/>
<path d="M77.8496 264.626C77.5018 266.38 78.3043 268.017 79.6422 268.282C80.9801 268.547 82.3467 267.341 82.6946 265.588C83.0425 263.834 82.2399 262.197 80.902 261.932C79.5641 261.667 78.1975 262.873 77.8496 264.626Z" fill="#FFE779"/>
<path d="M69.7764 272.058C69.4684 273.611 70.1881 275.079 71.3728 275.314C72.5575 275.549 73.7829 274.467 74.0909 272.914C74.399 271.362 73.6793 269.894 72.4946 269.659C71.3099 269.424 70.0845 270.506 69.7764 272.058Z" fill="#FFE779"/>
<path d="M61.4266 279.409C61.1185 280.962 61.8382 282.43 63.0229 282.665C64.2076 282.9 65.433 281.818 65.7411 280.265C66.0491 278.713 65.3295 277.245 64.1448 277.01C62.96 276.775 61.7346 277.857 61.4266 279.409Z" fill="#FFE779"/>
<path d="M53.4242 286.855C53.1621 288.176 53.764 289.404 54.7719 289.604C55.7798 289.804 56.8047 288.899 57.0667 287.578C57.3288 286.257 56.7269 285.03 55.719 284.83C54.7111 284.63 53.6862 285.534 53.4242 286.855Z" fill="#FFE779"/>
<path d="M45.3945 294.27C45.1786 295.358 45.6766 296.373 46.5067 296.538C47.3367 296.703 48.1846 295.954 48.4005 294.866C48.6163 293.778 48.1183 292.763 47.2883 292.598C46.4582 292.434 45.6103 293.182 45.3945 294.27Z" fill="#FFE779"/>
<path d="M37.3918 301.716C37.2242 302.561 37.6108 303.349 38.2554 303.477C38.8999 303.605 39.5583 303.024 39.7258 302.179C39.8934 301.334 39.5068 300.546 38.8623 300.418C38.2177 300.29 37.5594 300.871 37.3918 301.716Z" fill="#FFE779"/>
<path d="M29.0424 309.067C28.8769 309.902 29.2695 310.702 29.906 310.829C30.5426 310.955 31.211 310.365 31.3765 309.531C31.542 308.696 31.1495 307.896 30.5129 307.769C29.8763 307.643 29.2079 308.233 29.0424 309.067Z" fill="#FFE779"/>
<path d="M21.1097 316.527C20.9994 317.083 21.248 317.59 21.6724 317.674C22.0967 317.758 22.5201 317.385 22.6304 316.829C22.7408 316.272 22.4921 315.765 22.0678 315.681C21.6434 315.597 21.2201 315.971 21.1097 316.527Z" fill="#FFE779"/>
<path d="M13.1311 323.952C13.0759 324.23 13.2068 324.497 13.4189 324.539C13.6311 324.581 13.8539 324.385 13.9091 324.107C13.9643 323.828 13.8334 323.562 13.6212 323.52C13.4091 323.477 13.1862 323.674 13.1311 323.952Z" fill="#FFE779"/>
<path d="M147.331 188.229C146.885 190.477 147.919 192.585 149.634 192.925C151.349 193.265 153.109 191.712 153.555 189.464C154.001 187.216 152.968 185.108 151.252 184.767C149.537 184.427 147.777 185.981 147.331 188.229Z" fill="#FFE779"/>
<path d="M138.999 195.584C138.553 197.832 139.587 199.94 141.302 200.28C143.017 200.621 144.777 199.067 145.223 196.819C145.669 194.571 144.636 192.463 142.92 192.123C141.205 191.783 139.445 193.336 138.999 195.584Z" fill="#FFE779"/>
<path d="M130.873 203.006C130.457 205.105 131.418 207.064 133.019 207.382C134.621 207.699 136.257 206.255 136.673 204.156C137.09 202.057 136.129 200.098 134.527 199.78C132.926 199.462 131.29 200.906 130.873 203.006Z" fill="#FFE779"/>
<path d="M122.365 210.325C121.926 212.54 122.939 214.606 124.628 214.941C126.318 215.277 128.044 213.753 128.483 211.539C128.922 209.325 127.909 207.258 126.219 206.923C124.53 206.588 122.804 208.111 122.365 210.325Z" fill="#FFE779"/>
<path d="M114.152 217.728C113.729 219.86 114.697 221.834 116.324 222.157C117.95 222.48 119.599 221.025 120.022 218.892C120.445 216.76 119.477 214.786 117.85 214.463C116.223 214.14 114.575 215.596 114.152 217.728Z" fill="#FFE779"/>
<path d="M106.065 225.134C105.679 227.081 106.573 228.872 108.041 229.163C109.509 229.455 111.024 228.117 111.405 226.194C111.787 224.27 110.897 222.456 109.43 222.165C107.962 221.873 106.447 223.211 106.065 225.134Z" fill="#FFE779"/>
<path d="M97.8698 232.54C97.5066 234.371 98.3486 236.055 99.7278 236.329C101.107 236.602 102.533 235.344 102.892 233.536C103.25 231.728 102.413 230.021 101.034 229.747C99.6543 229.473 98.2284 230.732 97.8698 232.54Z" fill="#FFE779"/>
<path d="M89.4483 239.877C89.075 241.759 89.9362 243.515 91.3717 243.8C92.8073 244.085 94.2736 242.79 94.6469 240.909C95.0202 239.027 94.159 237.271 92.7234 236.986C91.2879 236.701 89.8216 237.996 89.4483 239.877Z" fill="#FFE779"/>
<path d="M81.3761 247.31C81.0405 249.002 81.8125 250.576 83.1033 250.832C84.3941 251.088 85.7086 249.928 86.0442 248.236C86.3799 246.545 85.6079 244.97 84.3171 244.714C83.0262 244.458 81.7117 245.618 81.3761 247.31Z" fill="#FFE779"/>
<path d="M73.3265 254.721C73.0323 256.204 73.7127 257.591 74.8443 257.816C75.976 258.04 77.1346 257.018 77.4288 255.535C77.7231 254.051 77.0427 252.664 75.911 252.439C74.7793 252.215 73.6208 253.237 73.3265 254.721Z" fill="#FFE779"/>
<path d="M64.905 262.058C64.6015 263.588 65.3081 265.029 66.4751 265.26C67.6421 265.492 68.8453 264.43 69.1487 262.9C69.4522 261.371 68.7456 259.93 67.5786 259.698C66.4115 259.467 65.2084 260.529 64.905 262.058Z" fill="#FFE779"/>
<path d="M56.8683 269.497C56.6062 270.818 57.2081 272.046 58.216 272.246C59.2239 272.446 60.2487 271.541 60.5108 270.22C60.7729 268.899 60.171 267.672 59.1631 267.472C58.1552 267.272 57.1303 268.176 56.8683 269.497Z" fill="#FFE779"/>
<path d="M48.8366 276.913C48.6205 278.002 49.1177 279.016 49.9488 279.181C50.7799 279.346 51.6265 278.599 51.8426 277.509C52.0587 276.42 51.5615 275.406 50.7304 275.241C49.8993 275.076 49.0527 275.824 48.8366 276.913Z" fill="#FFE779"/>
<path d="M40.7992 284.351C40.6291 285.208 41.017 286.032 41.6889 286.165C42.3608 286.299 43.0293 285.708 43.204 284.828C43.3787 283.947 42.9861 283.147 42.3142 283.013C41.6423 282.88 40.9739 283.47 40.7992 284.351Z" fill="#FFE779"/>
<path d="M32.4666 291.705C32.2965 292.563 32.6845 293.386 33.3564 293.52C34.0283 293.653 34.6967 293.063 34.8714 292.182C35.0461 291.302 34.6536 290.501 33.9817 290.368C33.3098 290.235 32.6414 290.825 32.4666 291.705Z" fill="#FFE779"/>
<path d="M24.4831 299.155C24.3636 299.758 24.6383 300.318 25.0981 300.409C25.5578 300.5 26.0257 300.087 26.1452 299.485C26.2648 298.882 25.99 298.322 25.5303 298.231C25.0705 298.139 24.6026 298.552 24.4831 299.155Z" fill="#FFE779"/>
<path d="M16.4522 306.57C16.3786 306.941 16.5487 307.288 16.8316 307.344C17.1145 307.4 17.4042 307.144 17.4777 306.774C17.5513 306.403 17.3812 306.056 17.0983 306C16.8154 305.944 16.5257 306.199 16.4522 306.57Z" fill="#FFE779"/>
<path d="M8.1838 313.964C8.11944 314.288 8.26337 314.582 8.51092 314.631C8.75847 314.68 9.00355 314.463 9.06792 314.139C9.13229 313.814 8.98836 313.521 8.7408 313.472C8.49325 313.423 8.24817 313.639 8.1838 313.964Z" fill="#FFE779"/>
<path d="M0.260405 321.4C0.260405 321.4 0.255684 321.424 0.273137 321.427C0.290589 321.431 0.290585 321.431 0.295318 321.407C0.300051 321.383 0.300058 321.383 0.282606 321.379C0.265153 321.376 0.265138 321.376 0.260405 321.4Z" fill="#FFE779"/>
<path d="M150.969 170.91C150.546 173.042 151.514 175.017 153.141 175.339C154.768 175.662 156.417 174.207 156.84 172.075C157.263 169.942 156.294 167.968 154.668 167.645C153.041 167.322 151.392 168.778 150.969 170.91Z" fill="#FFE779"/>
<path d="M142.792 178.32C142.397 180.313 143.313 182.181 144.833 182.483C146.354 182.784 147.914 181.408 148.309 179.415C148.705 177.422 147.789 175.554 146.268 175.252C144.747 174.95 143.188 176.327 142.792 178.32Z" fill="#FFE779"/>
<path d="M134.494 185.681C134.102 187.652 135.005 189.492 136.509 189.791C138.012 190.089 139.549 188.733 139.94 186.762C140.331 184.791 139.429 182.951 137.925 182.653C136.421 182.354 134.885 183.71 134.494 185.681Z" fill="#FFE779"/>
<path d="M125.967 192.999C125.551 195.098 126.512 197.057 128.113 197.375C129.715 197.693 131.351 196.249 131.767 194.15C132.184 192.051 131.223 190.092 129.621 189.774C128.02 189.456 126.384 190.9 125.967 192.999Z" fill="#FFE779"/>
<path d="M117.895 200.43C117.518 202.33 118.381 204.092 119.831 204.379C121.281 204.667 122.752 203.369 123.129 201.468C123.506 199.568 122.642 197.807 121.192 197.519C119.742 197.232 118.272 198.53 117.895 200.43Z" fill="#FFE779"/>
<path d="M109.615 207.796C109.247 209.652 110.096 211.384 111.512 211.665C112.928 211.946 114.375 210.669 114.743 208.813C115.111 206.958 114.262 205.225 112.846 204.944C111.43 204.664 109.983 205.94 109.615 207.796Z" fill="#FFE779"/>
<path d="M101.454 215.209C101.112 216.937 101.903 218.55 103.221 218.812C104.539 219.073 105.886 217.884 106.229 216.156C106.571 214.429 105.781 212.816 104.462 212.554C103.144 212.293 101.797 213.481 101.454 215.209Z" fill="#FFE779"/>
<path d="M93.1041 222.562C92.7593 224.3 93.5444 225.901 94.8705 226.164C96.1967 226.427 97.5335 225.247 97.8783 223.509C98.2232 221.771 97.4381 220.17 96.1119 219.907C94.7857 219.644 93.4489 220.824 93.1041 222.562Z" fill="#FFE779"/>
<path d="M84.9254 229.972C84.6036 231.594 85.354 233.092 86.5741 233.334C87.7942 233.576 89.0641 232.455 89.3814 230.856C89.6986 229.257 88.9528 227.736 87.7327 227.494C86.5126 227.252 85.2427 228.373 84.9254 229.972Z" fill="#FFE779"/>
<path d="M76.8246 237.373C76.5395 238.81 77.2068 240.171 78.3031 240.389C79.3995 240.606 80.5357 239.603 80.8208 238.166C81.1059 236.729 80.4385 235.368 79.3422 235.151C78.2459 234.933 77.1096 235.936 76.8246 237.373Z" fill="#FFE779"/>
<path d="M68.4156 244.737C68.1214 246.22 68.8018 247.607 69.9335 247.832C71.0651 248.056 72.2237 247.034 72.5179 245.551C72.8122 244.067 72.1318 242.68 71.0001 242.455C69.8684 242.231 68.7099 243.254 68.4156 244.737Z" fill="#FFE779"/>
<path d="M60.3835 252.154C60.1352 253.405 60.7109 254.579 61.6658 254.769C62.6206 254.958 63.601 254.093 63.8492 252.841C64.0975 251.59 63.5218 250.416 62.5669 250.227C61.6121 250.037 60.6318 250.902 60.3835 252.154Z" fill="#FFE779"/>
<path d="M52.2812 259.553C52.0651 260.642 52.5623 261.656 53.3934 261.821C54.2245 261.986 55.0711 261.239 55.2872 260.15C55.5033 259.06 55.0061 258.046 54.175 257.882C53.3439 257.717 52.4973 258.464 52.2812 259.553Z" fill="#FFE779"/>
<path d="M44.2433 266.992C44.0731 267.85 44.4611 268.674 45.133 268.807C45.8049 268.94 46.4733 268.35 46.648 267.469C46.8228 266.589 46.4302 265.788 45.7583 265.655C45.0864 265.522 44.418 266.112 44.2433 266.992Z" fill="#FFE779"/>
<path d="M35.9107 274.348C35.7406 275.205 36.1286 276.029 36.8005 276.162C37.4724 276.296 38.1408 275.706 38.3155 274.825C38.4902 273.944 38.0977 273.144 37.4258 273.01C36.7538 272.877 36.0854 273.467 35.9107 274.348Z" fill="#FFE779"/>
<path d="M27.9109 281.794C27.7868 282.42 28.0792 282.984 28.539 283.075C28.9987 283.166 29.4889 282.733 29.6084 282.131C29.728 281.528 29.4401 280.941 28.9804 280.85C28.5206 280.759 28.0305 281.192 27.9109 281.794Z" fill="#FFE779"/>
<path d="M19.8958 289.212C19.8222 289.583 19.9923 289.929 20.2752 289.986C20.5581 290.042 20.8478 289.786 20.9214 289.415C20.9949 289.044 20.8248 288.698 20.5419 288.641C20.259 288.585 19.9693 288.841 19.8958 289.212Z" fill="#FFE779"/>
<path d="M11.5584 296.59C11.4848 296.961 11.6549 297.308 11.9379 297.364C12.2208 297.42 12.5104 297.164 12.584 296.794C12.6575 296.423 12.4874 296.076 12.2045 296.02C11.9216 295.964 11.6319 296.219 11.5584 296.59Z" fill="#FFE779"/>
<path d="M3.56205 304.012C3.53666 304.14 3.59525 304.26 3.69291 304.279C3.79057 304.298 3.8903 304.21 3.91569 304.082C3.94108 303.954 3.88252 303.835 3.78486 303.816C3.68721 303.796 3.58744 303.884 3.56205 304.012Z" fill="#FFE779"/>
<path d="M146.448 161.005C146.084 162.835 146.917 164.566 148.332 164.847C149.746 165.128 151.172 163.869 151.54 162.015C151.908 160.161 151.07 158.453 149.656 158.173C148.241 157.892 146.815 159.151 146.448 161.005Z" fill="#FFE779"/>
<path d="M138.115 168.359C137.751 170.189 138.584 171.92 139.999 172.201C141.413 172.482 142.839 171.223 143.207 169.369C143.575 167.515 142.737 165.807 141.323 165.527C139.908 165.246 138.482 166.505 138.115 168.359Z" fill="#FFE779"/>
<path d="M129.759 175.735C129.393 177.578 130.237 179.298 131.643 179.577C133.049 179.856 134.485 178.588 134.851 176.745C135.217 174.902 134.373 173.182 132.967 172.903C131.561 172.624 130.124 173.892 129.759 175.735Z" fill="#FFE779"/>
<path d="M121.515 183.107C121.162 184.887 121.976 186.547 123.334 186.816C124.691 187.086 126.078 185.862 126.431 184.083C126.784 182.304 125.969 180.643 124.612 180.374C123.255 180.104 121.868 181.328 121.515 183.107Z" fill="#FFE779"/>
<path d="M113.236 190.473C112.893 192.201 113.684 193.814 115.002 194.076C116.321 194.337 117.667 193.149 118.01 191.421C118.353 189.693 117.562 188.08 116.244 187.818C114.925 187.557 113.579 188.746 113.236 190.473Z" fill="#FFE779"/>
<path d="M105.148 197.901C104.844 199.431 105.551 200.871 106.718 201.103C107.885 201.334 109.088 200.272 109.391 198.743C109.695 197.213 108.988 195.772 107.821 195.541C106.654 195.309 105.451 196.371 105.148 197.901Z" fill="#FFE779"/>
<path d="M96.6542 205.225C96.3277 206.87 97.0867 208.418 98.3421 208.667C99.5976 208.916 100.89 207.775 101.216 206.13C101.543 204.484 100.784 202.937 99.5283 202.688C98.2729 202.439 96.9806 203.579 96.6542 205.225Z" fill="#FFE779"/>
<path d="M88.4762 212.635C88.1728 214.165 88.8794 215.606 90.0464 215.837C91.2134 216.069 92.4166 215.007 92.72 213.477C93.0235 211.948 92.3169 210.507 91.1498 210.275C89.9828 210.044 88.7797 211.106 88.4762 212.635Z" fill="#FFE779"/>
<path d="M80.4439 220.051C80.1819 221.372 80.7838 222.599 81.7917 222.799C82.7996 222.999 83.8244 222.094 84.0865 220.773C84.3486 219.452 83.7467 218.225 82.7388 218.025C81.7309 217.825 80.706 218.73 80.4439 220.051Z" fill="#FFE779"/>
<path d="M71.9844 227.404C71.7086 228.795 72.3497 230.102 73.4107 230.313C74.4716 230.523 75.5633 229.56 75.8392 228.169C76.115 226.779 75.4739 225.471 74.413 225.261C73.352 225.05 72.2603 226.014 71.9844 227.404Z" fill="#FFE779"/>
<path d="M63.8796 234.806C63.6359 236.034 64.2032 237.159 65.1226 237.341C66.0421 237.523 67.0002 236.678 67.2392 235.473C67.4783 234.268 66.9157 233.12 65.9962 232.938C65.0767 232.755 64.1187 233.601 63.8796 234.806Z" fill="#FFE779"/>
<path d="M55.7906 242.233C55.585 243.269 56.0595 244.237 56.8505 244.394C57.6415 244.551 58.4495 243.838 58.6552 242.801C58.8609 241.764 58.3863 240.797 57.5953 240.64C56.8043 240.483 55.9963 241.196 55.7906 242.233Z" fill="#FFE779"/>
<path d="M47.7933 249.656C47.637 250.444 48.0034 251.191 48.6046 251.31C49.2058 251.429 49.8296 250.879 49.9859 250.091C50.1423 249.303 49.7759 248.556 49.1747 248.436C48.5735 248.317 47.9497 248.868 47.7933 249.656Z" fill="#FFE779"/>
<path d="M39.3735 256.993C39.208 257.827 39.6005 258.628 40.2371 258.754C40.8736 258.88 41.542 258.29 41.7075 257.456C41.8731 256.622 41.4805 255.821 40.844 255.695C40.2074 255.568 39.539 256.158 39.3735 256.993Z" fill="#FFE779"/>
<path d="M31.3548 264.436C31.2306 265.062 31.5231 265.625 31.9828 265.717C32.4426 265.808 32.9327 265.375 33.0523 264.773C33.1718 264.17 32.8839 263.583 32.4242 263.492C31.9645 263.401 31.4743 263.833 31.3548 264.436Z" fill="#FFE779"/>
<path d="M23.3394 271.854C23.2658 272.225 23.4359 272.572 23.7188 272.628C24.0017 272.684 24.2914 272.428 24.365 272.057C24.4385 271.687 24.2684 271.34 23.9855 271.284C23.7026 271.227 23.4129 271.483 23.3394 271.854Z" fill="#FFE779"/>
<path d="M15.0008 279.233C14.9272 279.604 15.0973 279.951 15.3802 280.007C15.6631 280.063 15.9528 279.808 16.0263 279.437C16.0999 279.066 15.9298 278.719 15.6469 278.663C15.364 278.607 15.0743 278.862 15.0008 279.233Z" fill="#FFE779"/>
<path d="M7.00443 286.655C6.97904 286.783 7.03763 286.903 7.13529 286.922C7.23294 286.941 7.33268 286.853 7.35807 286.725C7.38347 286.597 7.3249 286.478 7.22725 286.459C7.12959 286.439 7.02982 286.527 7.00443 286.655Z" fill="#FFE779"/>
<path d="M150.386 143.745C150.092 145.228 150.772 146.615 151.904 146.84C153.035 147.064 154.194 146.042 154.488 144.558C154.782 143.075 154.102 141.688 152.97 141.463C151.839 141.239 150.68 142.261 150.386 143.745Z" fill="#FFE779"/>
<path d="M142 151.09C141.698 152.613 142.395 154.035 143.557 154.265C144.719 154.496 145.906 153.448 146.208 151.925C146.51 150.402 145.813 148.98 144.651 148.75C143.489 148.519 142.302 149.567 142 151.09Z" fill="#FFE779"/>
<path d="M133.451 158.426C133.12 160.095 133.892 161.669 135.165 161.921C136.438 162.174 137.753 161.014 138.084 159.345C138.415 157.676 137.643 156.102 136.37 155.85C135.097 155.597 133.782 156.757 133.451 158.426Z" fill="#FFE779"/>
<path d="M125.138 165.785C124.81 167.436 125.566 168.977 126.826 169.227C128.085 169.477 129.372 168.341 129.7 166.69C130.027 165.039 129.271 163.498 128.012 163.248C126.752 162.998 125.465 164.134 125.138 165.785Z" fill="#FFE779"/>
<path d="M117.047 173.212C116.758 174.672 117.42 176.056 118.552 176.28C119.684 176.505 120.82 175.502 121.114 174.019C121.409 172.535 120.741 171.175 119.61 170.95C118.478 170.726 117.342 171.729 117.047 173.212Z" fill="#FFE779"/>
<path d="M108.75 180.575C108.465 182.008 109.121 183.346 110.215 183.563C111.309 183.78 112.426 182.794 112.71 181.361C112.995 179.927 112.339 178.589 111.245 178.372C110.151 178.155 109.034 179.141 108.75 180.575Z" fill="#FFE779"/>
<path d="M100.257 187.899C99.9541 189.429 100.661 190.869 101.828 191.101C102.995 191.333 104.198 190.271 104.501 188.741C104.805 187.211 104.098 185.771 102.931 185.539C101.764 185.307 100.561 186.369 100.257 187.899Z" fill="#FFE779"/>
<path d="M92.1678 195.327C91.9011 196.671 92.5115 197.949 93.5548 198.156C94.598 198.362 95.6452 197.438 95.9165 196.071C96.1877 194.703 95.5727 193.449 94.5295 193.242C93.4862 193.035 92.4391 193.96 92.1678 195.327Z" fill="#FFE779"/>
<path d="M84.0112 202.717C83.7675 203.945 84.3347 205.069 85.2542 205.252C86.1737 205.434 87.1318 204.588 87.3708 203.383C87.6099 202.178 87.0473 201.031 86.1278 200.848C85.2083 200.666 84.2503 201.512 84.0112 202.717Z" fill="#FFE779"/>
<path d="M75.5331 210.067C75.271 211.388 75.8729 212.616 76.8808 212.816C77.8887 213.016 78.9135 212.111 79.1756 210.79C79.4377 209.469 78.8358 208.241 77.8279 208.042C76.82 207.842 75.7951 208.746 75.5331 210.067Z" fill="#FFE779"/>
<path d="M67.5173 217.486C67.3012 218.576 67.7984 219.59 68.6295 219.754C69.4605 219.919 70.3072 219.172 70.5233 218.083C70.7393 216.993 70.2421 215.979 69.4111 215.815C68.58 215.65 67.7334 216.397 67.5173 217.486Z" fill="#FFE779"/>
<path d="M59.3755 224.902C59.1901 225.837 59.6178 226.709 60.3307 226.85C61.0436 226.992 61.7717 226.349 61.9571 225.414C62.1425 224.48 61.7148 223.608 61.0019 223.467C60.289 223.325 59.5608 223.968 59.3755 224.902Z" fill="#FFE779"/>
<path d="M51.2724 232.304C51.1201 233.071 51.4716 233.788 52.0575 233.905C52.6435 234.021 53.242 233.492 53.3943 232.724C53.5467 231.957 53.1952 231.24 52.6092 231.124C52.0233 231.007 51.4248 231.536 51.2724 232.304Z" fill="#FFE779"/>
<path d="M42.8832 239.673C42.7257 240.466 43.089 241.207 43.6944 241.327C44.2999 241.447 44.9184 240.901 45.0758 240.108C45.2332 239.314 44.87 238.574 44.2645 238.453C43.6591 238.333 43.0406 238.879 42.8832 239.673Z" fill="#FFE779"/>
<path d="M34.8849 247.095C34.7745 247.651 35.0231 248.158 35.4475 248.242C35.8719 248.326 36.2952 247.953 36.4056 247.396C36.5159 246.84 36.2673 246.333 35.8429 246.249C35.4185 246.165 34.9952 246.539 34.8849 247.095Z" fill="#FFE779"/>
<path d="M26.783 254.495C26.7094 254.866 26.8795 255.213 27.1624 255.269C27.4453 255.325 27.735 255.07 27.8086 254.699C27.8821 254.328 27.712 253.981 27.4291 253.925C27.1462 253.869 26.8565 254.125 26.783 254.495Z" fill="#FFE779"/>
<path d="M18.4456 261.874C18.372 262.245 18.5421 262.592 18.8251 262.648C19.108 262.704 19.3976 262.448 19.4712 262.077C19.5447 261.707 19.3746 261.36 19.0917 261.304C18.8088 261.247 18.5191 261.503 18.4456 261.874Z" fill="#FFE779"/>
<path d="M10.4483 269.297C10.4229 269.425 10.4815 269.545 10.5791 269.564C10.6768 269.584 10.7765 269.495 10.8019 269.367C10.8273 269.239 10.7688 269.12 10.6711 269.101C10.5734 269.081 10.4737 269.169 10.4483 269.297Z" fill="#FFE779"/>
<path d="M145.675 133.777C145.408 135.121 146.018 136.398 147.062 136.605C148.105 136.812 149.152 135.888 149.423 134.521C149.695 133.153 149.08 131.899 148.036 131.692C146.993 131.485 145.946 132.409 145.675 133.777Z" fill="#FFE779"/>
<path d="M137.319 141.153C137.052 142.497 137.662 143.774 138.706 143.981C139.749 144.188 140.796 143.264 141.067 141.896C141.339 140.529 140.724 139.275 139.68 139.068C138.637 138.861 137.59 139.785 137.319 141.153Z" fill="#FFE779"/>
<path d="M128.986 148.507C128.72 149.851 129.33 151.129 130.373 151.336C131.416 151.543 132.464 150.618 132.735 149.251C133.006 147.884 132.391 146.63 131.348 146.423C130.305 146.216 129.257 147.14 128.986 148.507Z" fill="#FFE779"/>
<path d="M120.648 155.885C120.381 157.229 120.992 158.506 122.035 158.713C123.078 158.92 124.125 157.996 124.397 156.628C124.668 155.261 124.053 154.007 123.01 153.8C121.966 153.593 120.919 154.517 120.648 155.885Z" fill="#FFE779"/>
<path d="M112.387 163.256C112.13 164.548 112.722 165.755 113.708 165.951C114.695 166.146 115.702 165.257 115.959 163.964C116.215 162.671 115.624 161.465 114.637 161.269C113.651 161.074 112.643 161.963 112.387 163.256Z" fill="#FFE779"/>
<path d="M104.032 170.63C103.776 171.923 104.367 173.129 105.354 173.325C106.34 173.521 107.348 172.631 107.604 171.339C107.86 170.046 107.269 168.839 106.282 168.644C105.296 168.448 104.289 169.337 104.032 170.63Z" fill="#FFE779"/>
<path d="M95.8059 178.006C95.5622 179.235 96.1294 180.359 97.0489 180.541C97.9684 180.724 98.9264 179.878 99.1655 178.673C99.4046 177.468 98.8419 176.32 97.9225 176.138C97.003 175.956 96.0449 176.801 95.8059 178.006Z" fill="#FFE779"/>
<path d="M87.5783 185.384C87.353 186.519 87.8633 187.56 88.7297 187.732C89.5962 187.904 90.4651 187.137 90.6904 186.001C90.9157 184.866 90.4054 183.825 89.5389 183.653C88.6725 183.481 87.8036 184.248 87.5783 185.384Z" fill="#FFE779"/>
<path d="M79.2423 192.762C79.0171 193.898 79.5274 194.939 80.3938 195.11C81.2602 195.282 82.1292 194.515 82.3544 193.38C82.5797 192.244 82.0694 191.204 81.203 191.032C80.3365 190.86 79.4676 191.627 79.2423 192.762Z" fill="#FFE779"/>
<path d="M71.049 200.146C70.8467 201.165 71.3047 202.099 72.0827 202.254C72.8607 202.408 73.6405 201.72 73.8428 200.7C74.0451 199.68 73.5872 198.746 72.8091 198.592C72.0311 198.438 71.2513 199.126 71.049 200.146Z" fill="#FFE779"/>
<path d="M62.8886 207.559C62.7139 208.44 63.1195 209.267 63.7914 209.4C64.4634 209.534 65.154 208.924 65.3288 208.043C65.5035 207.163 65.0978 206.336 64.4259 206.202C63.754 206.069 63.0633 206.679 62.8886 207.559Z" fill="#FFE779"/>
<path d="M54.8937 214.981C54.765 215.63 55.0529 216.217 55.548 216.315C56.0431 216.414 56.5332 215.981 56.662 215.332C56.7907 214.683 56.5028 214.096 56.0077 213.998C55.5126 213.9 55.0225 214.332 54.8937 214.981Z" fill="#FFE779"/>
<path d="M46.4315 222.336C46.2893 223.052 46.6174 223.721 47.1643 223.83C47.7112 223.938 48.2698 223.445 48.412 222.728C48.5542 222.012 48.2261 221.343 47.6792 221.234C47.1323 221.126 46.5737 221.619 46.4315 222.336Z" fill="#FFE779"/>
<path d="M38.3287 229.736C38.2184 230.293 38.467 230.8 38.8914 230.884C39.3157 230.968 39.7391 230.594 39.8494 230.038C39.9598 229.482 39.7111 228.975 39.2868 228.891C38.8624 228.806 38.4391 229.18 38.3287 229.736Z" fill="#FFE779"/>
<path d="M30.309 237.178C30.2447 237.502 30.3886 237.796 30.6362 237.845C30.8837 237.894 31.1288 237.678 31.1932 237.353C31.2575 237.029 31.1136 236.735 30.866 236.686C30.6185 236.637 30.3734 236.853 30.309 237.178Z" fill="#FFE779"/>
<path d="M21.9582 244.531C21.8938 244.855 22.0378 245.149 22.2853 245.198C22.5329 245.247 22.778 245.031 22.8423 244.706C22.9067 244.382 22.7628 244.088 22.5152 244.039C22.2677 243.99 22.0226 244.206 21.9582 244.531Z" fill="#FFE779"/>
<path d="M13.876 251.935C13.8484 252.074 13.9185 252.184 14.0069 252.201C14.0953 252.219 14.2067 252.121 14.2297 252.005C14.2526 251.889 14.1872 251.755 14.0988 251.738C14.0104 251.72 13.899 251.819 13.876 251.935Z" fill="#FFE779"/>
<path d="M149.66 116.55C149.472 117.5 149.916 118.407 150.641 118.551C151.366 118.695 152.124 118.026 152.312 117.076C152.501 116.126 152.056 115.219 151.331 115.075C150.606 114.931 149.849 115.6 149.66 116.55Z" fill="#FFE779"/>
<path d="M141.027 123.846C140.798 125.005 141.334 126.099 142.218 126.274C143.102 126.45 144.016 125.643 144.246 124.484C144.476 123.326 143.939 122.232 143.055 122.056C142.171 121.881 141.257 122.687 141.027 123.846Z" fill="#FFE779"/>
<path d="M132.66 131.194C132.424 132.385 132.969 133.496 133.877 133.676C134.785 133.856 135.713 133.037 135.949 131.847C136.185 130.656 135.64 129.545 134.732 129.365C133.824 129.185 132.896 130.004 132.66 131.194Z" fill="#FFE779"/>
<path d="M124.534 138.616C124.327 139.659 124.798 140.619 125.593 140.777C126.389 140.935 127.191 140.227 127.398 139.184C127.605 138.141 127.134 137.181 126.338 137.023C125.543 136.865 124.74 137.573 124.534 138.616Z" fill="#FFE779"/>
<path d="M116.22 145.974C116.018 146.994 116.494 147.931 117.254 148.082C118.014 148.233 118.812 147.548 119.014 146.528C119.217 145.508 118.759 144.574 117.981 144.42C117.203 144.266 116.423 144.954 116.22 145.974Z" fill="#FFE779"/>
<path d="M107.653 153.308C107.422 154.473 107.955 155.56 108.844 155.736C109.732 155.912 110.64 155.111 110.871 153.946C111.102 152.782 110.569 151.694 109.68 151.518C108.792 151.342 107.884 152.143 107.653 153.308Z" fill="#FFE779"/>
<path d="M99.4269 160.684C99.2108 161.773 99.708 162.787 100.539 162.952C101.37 163.117 102.217 162.369 102.433 161.28C102.649 160.191 102.152 159.177 101.321 159.012C100.49 158.847 99.643 159.594 99.4269 160.684Z" fill="#FFE779"/>
<path d="M91.3192 168.108C91.1353 169.035 91.554 169.889 92.2613 170.029C92.9686 170.17 93.6816 169.54 93.8655 168.613C94.0494 167.686 93.6307 166.833 92.9234 166.692C92.2161 166.552 91.5032 167.181 91.3192 168.108Z" fill="#FFE779"/>
<path d="M82.8092 175.429C82.6035 176.465 83.078 177.433 83.8691 177.59C84.6601 177.747 85.4681 177.034 85.6737 175.997C85.8794 174.96 85.4049 173.992 84.6139 173.835C83.8229 173.679 83.0149 174.392 82.8092 175.429Z" fill="#FFE779"/>
<path d="M74.6359 182.816C74.452 183.743 74.8707 184.597 75.578 184.737C76.2853 184.878 76.9982 184.248 77.1822 183.321C77.3661 182.394 76.9473 181.541 76.2401 181.4C75.5328 181.26 74.8198 181.889 74.6359 182.816Z" fill="#FFE779"/>
<path d="M66.5634 190.247C66.4209 190.965 66.748 191.632 67.2961 191.741C67.8443 191.85 68.4013 191.358 68.5438 190.64C68.6863 189.921 68.3592 189.254 67.8111 189.145C67.2629 189.037 66.7059 189.528 66.5634 190.247Z" fill="#FFE779"/>
<path d="M58.4603 197.647C58.35 198.203 58.5986 198.71 59.023 198.794C59.4473 198.879 59.8707 198.505 59.981 197.949C60.0914 197.392 59.8427 196.885 59.4184 196.801C58.994 196.717 58.5707 197.091 58.4603 197.647Z" fill="#FFE779"/>
<path d="M49.9819 204.999C49.8531 205.648 50.141 206.235 50.6361 206.333C51.1312 206.431 51.6214 205.999 51.7501 205.35C51.8788 204.701 51.591 204.114 51.0959 204.016C50.6008 203.917 50.1106 204.35 49.9819 204.999Z" fill="#FFE779"/>
<path d="M41.986 212.421C41.9079 212.815 42.091 213.189 42.3916 213.249C42.6922 213.308 43.0042 213.033 43.0823 212.639C43.1605 212.245 42.9773 211.871 42.6767 211.812C42.3761 211.752 42.0642 212.027 41.986 212.421Z" fill="#FFE779"/>
<path d="M33.8776 219.845C33.8316 220.077 33.9363 220.29 34.1131 220.325C34.29 220.36 34.4682 220.203 34.5142 219.971C34.5601 219.74 34.4555 219.526 34.2787 219.491C34.1018 219.456 33.9236 219.613 33.8776 219.845Z" fill="#FFE779"/>
<path d="M25.4397 227.179C25.38 227.48 25.5285 227.75 25.7407 227.793C25.9529 227.835 26.198 227.618 26.2531 227.34C26.3083 227.062 26.1644 226.769 25.9522 226.726C25.74 226.684 25.4949 226.901 25.4397 227.179Z" fill="#FFE779"/>
<path d="M17.4016 234.617C17.4016 234.617 17.427 234.768 17.4802 234.778C17.5333 234.789 17.6003 234.729 17.6141 234.66C17.628 234.59 17.5887 234.509 17.5356 234.499C17.4824 234.488 17.4155 234.548 17.4016 234.617Z" fill="#FFE779"/>
<path d="M144.753 106.544C144.563 107.504 145.002 108.4 145.734 108.546C146.467 108.691 147.215 108.031 147.405 107.071C147.596 106.111 147.156 105.215 146.424 105.069C145.692 104.924 144.944 105.585 144.753 106.544Z" fill="#FFE779"/>
<path d="M136.577 113.956C136.412 114.79 136.804 115.59 137.441 115.717C138.077 115.843 138.746 115.253 138.911 114.419C139.077 113.584 138.684 112.784 138.048 112.658C137.411 112.531 136.743 113.121 136.577 113.956Z" fill="#FFE779"/>
<path d="M128.208 121.303C128.038 122.16 128.426 122.984 129.098 123.117C129.77 123.251 130.438 122.661 130.613 121.78C130.788 120.899 130.395 120.099 129.723 119.966C129.051 119.832 128.383 120.422 128.208 121.303Z" fill="#FFE779"/>
<path d="M119.858 128.655C119.687 129.513 120.075 130.337 120.747 130.47C121.419 130.603 122.088 130.013 122.262 129.133C122.437 128.252 122.044 127.451 121.373 127.318C120.701 127.185 120.032 127.775 119.858 128.655Z" fill="#FFE779"/>
<path d="M111.522 136.034C111.352 136.891 111.74 137.715 112.412 137.848C113.084 137.982 113.752 137.392 113.927 136.511C114.101 135.63 113.709 134.83 113.037 134.697C112.365 134.563 111.697 135.153 111.522 136.034Z" fill="#FFE779"/>
<path d="M103.258 143.403C103.098 144.209 103.467 144.962 104.082 145.084C104.697 145.206 105.326 144.651 105.485 143.845C105.645 143.038 105.276 142.286 104.661 142.164C104.046 142.042 103.417 142.596 103.258 143.403Z" fill="#FFE779"/>
<path d="M94.9572 150.788C94.8055 151.553 95.1588 152.274 95.7423 152.389C96.3258 152.505 96.9274 151.974 97.0791 151.209C97.2308 150.445 96.8775 149.724 96.294 149.608C95.7105 149.493 95.109 150.024 94.9572 150.788Z" fill="#FFE779"/>
<path d="M86.412 158.102C86.2292 159.023 86.651 159.884 87.3541 160.023C88.0572 160.163 88.7755 159.529 88.9583 158.607C89.1411 157.686 88.7193 156.825 88.0162 156.686C87.313 156.546 86.5948 157.18 86.412 158.102Z" fill="#FFE779"/>
<path d="M78.374 165.541C78.2361 166.236 78.5501 166.876 79.0806 166.981C79.6111 167.087 80.1458 166.615 80.2837 165.919C80.4216 165.224 80.1076 164.584 79.5771 164.479C79.0467 164.373 78.5119 164.845 78.374 165.541Z" fill="#FFE779"/>
<path d="M70.1662 172.92C70.0467 173.523 70.3214 174.083 70.7812 174.174C71.2409 174.265 71.7088 173.852 71.8283 173.25C71.9479 172.647 71.6731 172.087 71.2134 171.996C70.7536 171.905 70.2857 172.318 70.1662 172.92Z" fill="#FFE779"/>
<path d="M62.0109 180.311C61.9169 180.785 62.1337 181.227 62.495 181.299C62.8564 181.37 63.2254 181.044 63.3194 180.571C63.4133 180.097 63.1966 179.655 62.8353 179.584C62.4739 179.512 62.1048 179.838 62.0109 180.311Z" fill="#FFE779"/>
<path d="M53.6723 187.69C53.5803 188.154 53.7851 188.604 54.1564 188.677C54.5277 188.751 54.8842 188.436 54.9808 187.95C55.0773 187.463 54.868 187.036 54.4966 186.962C54.1253 186.889 53.7688 187.204 53.6723 187.69Z" fill="#FFE779"/>
<path d="M45.5164 195.081C45.4474 195.428 45.609 195.725 45.8566 195.775C46.1041 195.824 46.3715 195.588 46.4359 195.263C46.5003 194.939 46.3432 194.619 46.0957 194.569C45.8481 194.52 45.5808 194.756 45.5164 195.081Z" fill="#FFE779"/>
<path d="M37.3401 202.489C37.2987 202.698 37.3903 202.885 37.5494 202.916C37.7086 202.948 37.8646 202.81 37.9059 202.602C37.9473 202.393 37.8557 202.206 37.6966 202.175C37.5374 202.143 37.3815 202.281 37.3401 202.489Z" fill="#FFE779"/>
<path d="M29.0064 209.846C28.965 210.055 29.0566 210.241 29.2157 210.273C29.3749 210.304 29.5308 210.167 29.5722 209.958C29.6136 209.75 29.522 209.563 29.3629 209.531C29.2037 209.5 29.0477 209.637 29.0064 209.846Z" fill="#FFE779"/>
<path d="M20.9352 217.278C20.9326 217.291 20.9383 217.303 20.9479 217.305C20.9576 217.307 20.9675 217.298 20.9701 217.285C20.9727 217.271 20.967 217.259 20.9574 217.257C20.9478 217.255 20.9378 217.265 20.9352 217.278Z" fill="#FFE779"/>
<path d="M148.747 89.2955C148.636 89.8517 148.898 90.3853 149.322 90.4695C149.747 90.5537 150.192 90.1604 150.303 89.6042C150.413 89.048 150.151 88.5143 149.727 88.4301C149.302 88.3459 148.857 88.7393 148.747 89.2955Z" fill="#FFE779"/>
<path d="M140.303 96.6537C140.174 97.3026 140.462 97.8896 140.957 97.9878C141.452 98.086 141.942 97.6534 142.071 97.0045C142.2 96.3556 141.912 95.7685 141.417 95.6703C140.922 95.5721 140.431 96.0048 140.303 96.6537Z" fill="#FFE779"/>
<path d="M131.899 103.994C131.766 104.666 132.08 105.307 132.592 105.408C133.105 105.51 133.64 105.038 133.773 104.366C133.907 103.694 133.592 103.054 133.08 102.952C132.567 102.85 132.032 103.322 131.899 103.994Z" fill="#FFE779"/>
<path d="M123.774 111.416C123.668 111.949 123.904 112.43 124.311 112.51C124.717 112.591 125.118 112.237 125.224 111.704C125.33 111.171 125.094 110.691 124.688 110.61C124.281 110.529 123.88 110.883 123.774 111.416Z" fill="#FFE779"/>
<path d="M115.195 118.721C115.057 119.412 115.374 120.057 115.901 120.162C116.428 120.267 116.967 119.791 117.104 119.1C117.241 118.409 116.925 117.764 116.398 117.659C115.87 117.555 115.332 118.03 115.195 118.721Z" fill="#FFE779"/>
<path d="M106.88 126.081C106.747 126.753 107.061 127.393 107.574 127.495C108.087 127.597 108.621 127.125 108.755 126.453C108.888 125.781 108.574 125.14 108.061 125.039C107.548 124.937 107.014 125.409 106.88 126.081Z" fill="#FFE779"/>
<path d="M98.7898 133.508C98.6932 133.995 98.9157 134.448 99.287 134.522C99.6583 134.596 100.037 134.261 100.134 133.775C100.23 133.288 100.008 132.834 99.6364 132.761C99.2651 132.687 98.8863 133.021 98.7898 133.508Z" fill="#FFE779"/>
<path d="M90.2798 140.827C90.1557 141.453 90.4481 142.017 90.9079 142.108C91.3676 142.199 91.8578 141.767 91.9773 141.164C92.0969 140.562 91.809 139.975 91.3492 139.883C90.8895 139.792 90.3993 140.225 90.2798 140.827Z" fill="#FFE779"/>
<path d="M82.0129 148.22C81.9012 148.783 82.1589 149.309 82.5886 149.394C83.0183 149.48 83.4572 149.092 83.5689 148.529C83.6807 147.966 83.4229 147.44 82.9932 147.355C82.5635 147.27 82.1246 147.657 82.0129 148.22Z" fill="#FFE779"/>
<path d="M73.7688 155.594C73.6723 156.08 73.8949 156.534 74.266 156.607C74.6371 156.681 75.0162 156.347 75.1126 155.86C75.2091 155.374 74.9865 154.92 74.6154 154.846C74.2443 154.773 73.8653 155.107 73.7688 155.594Z" fill="#FFE779"/>
<path d="M65.7153 163.028C65.6602 163.306 65.791 163.573 66.0032 163.615C66.2154 163.657 66.4382 163.461 66.4933 163.183C66.5485 162.905 66.4177 162.638 66.2055 162.596C65.9933 162.554 65.7705 162.75 65.7153 163.028Z" fill="#FFE779"/>
<path d="M57.24 170.356C57.1664 170.727 57.3363 171.074 57.6195 171.13C57.9027 171.186 58.192 170.931 58.2656 170.56C58.3392 170.189 58.1694 169.842 57.8862 169.786C57.6029 169.73 57.3137 169.985 57.24 170.356Z" fill="#FFE779"/>
<path d="M49.0847 177.747C49.0365 177.99 49.1478 178.217 49.3333 178.254C49.5189 178.291 49.7084 178.123 49.7566 177.88C49.8049 177.637 49.6936 177.41 49.508 177.373C49.3225 177.336 49.1329 177.504 49.0847 177.747Z" fill="#FFE779"/>
<path d="M41.0465 185.185C41.0465 185.185 41.0418 185.209 41.0592 185.213C41.0767 185.216 41.0767 185.216 41.0814 185.192C41.0862 185.168 41.0862 185.168 41.0687 185.165C41.0513 185.162 41.0513 185.162 41.0465 185.185Z" fill="#FFE779"/>
<path d="M32.6094 192.52C32.6094 192.52 32.6303 192.693 32.701 192.707C32.7718 192.721 32.8386 192.662 32.857 192.569C32.8754 192.476 32.8361 192.396 32.7654 192.382C32.6947 192.368 32.6278 192.427 32.6094 192.52Z" fill="#FFE779"/>
<path d="M144.294 79.4037C144.243 79.6586 144.366 79.8756 144.543 79.9107C144.719 79.9458 144.92 79.7688 144.966 79.537C145.012 79.3053 144.894 79.0651 144.717 79.03C144.54 78.9949 144.34 79.1719 144.294 79.4037Z" fill="#FFE779"/>
<path d="M135.874 86.7413C135.814 87.0426 135.963 87.3129 136.175 87.355C136.387 87.3971 136.632 87.1808 136.687 86.9027C136.742 86.6246 136.598 86.331 136.386 86.2889C136.174 86.2468 135.929 86.4632 135.874 86.7413Z" fill="#FFE779"/>
<path d="M127.482 94.1096C127.416 94.4424 127.569 94.753 127.823 94.8034C128.077 94.8537 128.336 94.6248 128.402 94.292C128.468 93.9592 128.316 93.6486 128.062 93.5982C127.808 93.5479 127.548 93.7768 127.482 94.1096Z" fill="#FFE779"/>
<path d="M118.868 101.409C118.762 101.942 118.997 102.422 119.404 102.503C119.811 102.584 120.212 102.23 120.318 101.697C120.423 101.164 120.188 100.683 119.781 100.603C119.374 100.522 118.973 100.876 118.868 101.409Z" fill="#FFE779"/>
<path d="M110.794 108.841C110.725 109.188 110.887 109.485 111.134 109.534C111.382 109.583 111.649 109.347 111.714 109.023C111.778 108.698 111.621 108.378 111.374 108.329C111.126 108.28 110.859 108.516 110.794 108.841Z" fill="#FFE779"/>
<path d="M102.445 116.191C102.376 116.539 102.537 116.836 102.785 116.885C103.032 116.934 103.3 116.698 103.364 116.374C103.428 116.049 103.271 115.729 103.024 115.68C102.776 115.631 102.509 115.867 102.445 116.191Z" fill="#FFE779"/>
<path d="M93.9006 123.506C93.8041 123.992 94.0265 124.446 94.3978 124.52C94.7692 124.593 95.1479 124.259 95.2445 123.772C95.341 123.286 95.1186 122.832 94.7473 122.758C94.3759 122.685 93.9972 123.019 93.9006 123.506Z" fill="#FFE779"/>
<path d="M85.8108 130.934C85.7511 131.235 85.8996 131.505 86.1118 131.547C86.324 131.589 86.5691 131.373 86.6242 131.095C86.6794 130.817 86.5355 130.523 86.3233 130.481C86.1111 130.439 85.866 130.656 85.8108 130.934Z" fill="#FFE779"/>
<path d="M77.5668 138.306C77.5211 138.536 77.6266 138.751 77.8023 138.786C77.9781 138.821 78.1577 138.662 78.2034 138.432C78.2491 138.201 78.1436 137.986 77.9679 137.952C77.7921 137.917 77.6125 138.075 77.5668 138.306Z" fill="#FFE779"/>
<path d="M69.3167 145.703C69.2845 145.865 69.363 146.025 69.4868 146.05C69.6106 146.074 69.7442 145.956 69.7764 145.794C69.8086 145.632 69.7301 145.472 69.6063 145.447C69.4825 145.423 69.3489 145.541 69.3167 145.703Z" fill="#FFE779"/>
<path d="M60.8081 153.022C60.7529 153.301 60.8838 153.567 61.096 153.61C61.3081 153.652 61.5309 153.455 61.5861 153.177C61.6413 152.899 61.5104 152.632 61.2983 152.59C61.0861 152.548 60.8633 152.744 60.8081 153.022Z" fill="#FFE779"/>
<path d="M52.7883 160.464C52.7883 160.464 52.8053 160.565 52.8407 160.572C52.8761 160.579 52.9208 160.539 52.93 160.492C52.9393 160.446 52.913 160.392 52.8776 160.385C52.8422 160.378 52.7976 160.418 52.7883 160.464Z" fill="#FFE779"/>
<path d="M36.1601 175.183C36.1601 175.183 36.1553 175.207 36.1728 175.211C36.1902 175.214 36.1902 175.214 36.195 175.19C36.1997 175.167 36.1997 175.167 36.1823 175.163C36.1648 175.16 36.1648 175.16 36.1601 175.183Z" fill="#FFE779"/>
<path d="M148.04 62.1058C148.04 62.1058 148.036 62.1297 148.053 62.1331C148.071 62.1366 148.071 62.1366 148.075 62.1127C148.08 62.0889 148.08 62.0889 148.063 62.0854C148.045 62.0819 148.045 62.0819 148.04 62.1058Z" fill="#FFE779"/>
<path d="M139.6 69.4398C139.6 69.4398 139.621 69.6125 139.691 69.6266C139.762 69.6406 139.829 69.5816 139.847 69.4889C139.866 69.3962 139.826 69.3161 139.756 69.3021C139.685 69.2881 139.618 69.3471 139.6 69.4398Z" fill="#FFE779"/>
<path d="M122.842 84.1568C122.814 84.2958 122.875 84.4524 122.999 84.477C123.123 84.5015 123.234 84.4032 123.266 84.241C123.298 84.0788 123.233 83.9453 123.109 83.9208C122.985 83.8962 122.874 83.9946 122.842 84.1568Z" fill="#FFE779"/>
<path d="M114.469 91.5274C114.437 91.6897 114.516 91.8498 114.639 91.8743C114.763 91.8989 114.897 91.7809 114.929 91.6187C114.961 91.4564 114.883 91.2963 114.759 91.2718C114.635 91.2472 114.501 91.3652 114.469 91.5274Z" fill="#FFE779"/>
<path d="M106.119 98.879C106.087 99.0412 106.166 99.2013 106.289 99.2259C106.413 99.2505 106.547 99.1324 106.579 98.9702C106.611 98.808 106.533 98.6479 106.409 98.6233C106.285 98.5988 106.152 98.7168 106.119 98.879Z" fill="#FFE779"/>
<path d="M97.7822 106.258C97.7501 106.42 97.8286 106.58 97.9523 106.605C98.0761 106.629 98.2098 106.511 98.242 106.349C98.2742 106.187 98.1957 106.027 98.0719 106.002C97.9481 105.978 97.8144 106.096 97.7822 106.258Z" fill="#FFE779"/>
<path d="M89.4665 113.618C89.436 113.771 89.5063 113.915 89.6235 113.938C89.7407 113.961 89.8604 113.856 89.8909 113.702C89.9213 113.548 89.851 113.405 89.7339 113.382C89.6167 113.358 89.497 113.464 89.4665 113.618Z" fill="#FFE779"/>
<path d="M81.2034 120.986C81.2034 120.986 81.2243 121.159 81.295 121.173C81.3657 121.187 81.4326 121.128 81.451 121.035C81.4694 120.943 81.4301 120.863 81.3594 120.848C81.2886 120.834 81.2218 120.893 81.2034 120.986Z" fill="#FFE779"/>
<path d="M64.6239 135.738C64.6239 135.738 64.6192 135.762 64.6367 135.765C64.6541 135.769 64.6541 135.769 64.6588 135.745C64.6636 135.721 64.6636 135.721 64.6461 135.718C64.6287 135.714 64.6287 135.714 64.6239 135.738Z" fill="#FFE779"/>
</g>
</svg>
