<svg width="1440" height="745" viewBox="0 0 1440 745" fill="none" xmlns="http://www.w3.org/2000/svg">
<g clip-path="url(#clip0_699_1120)">
<rect width="1440" height="745" fill="#FFE779"/>
<g style="mix-blend-mode:multiply" opacity="0.5">
<path d="M1434.56 745.689C1432.89 754.15 1436.74 762.093 1443.24 763.383C1449.75 764.673 1456.33 758.865 1458.02 750.341C1459.71 741.817 1455.84 733.937 1449.34 732.647C1442.84 731.357 1436.26 737.165 1434.56 745.689Z" fill="#FFE779"/>
<path d="M1422.24 719.058C1420.67 726.959 1424.3 734.276 1430.28 735.462C1436.26 736.649 1442.42 731.211 1443.98 723.371C1445.53 715.532 1441.92 708.153 1435.93 706.966C1429.95 705.78 1423.79 711.218 1422.24 719.058Z" fill="#FFE779"/>
<path d="M1399.63 738.753C1398.04 746.779 1401.74 754.239 1407.81 755.445C1413.89 756.65 1420.17 751.106 1421.75 743.142C1423.33 735.178 1419.64 727.656 1413.57 726.451C1407.49 725.245 1401.21 730.789 1399.63 738.753Z" fill="#FFE779"/>
<path d="M1377.77 758.671C1376.26 766.262 1379.73 773.416 1385.57 774.574C1391.4 775.733 1397.33 770.506 1398.84 762.853C1400.36 755.2 1396.89 748.108 1391.05 746.949C1385.21 745.791 1379.29 751.018 1377.77 758.671Z" fill="#FFE779"/>
<path d="M1431.77 672.51C1430.25 680.163 1433.76 687.327 1439.6 688.485C1445.44 689.644 1451.42 684.364 1452.94 676.711C1454.46 669.058 1450.94 661.894 1445.1 660.736C1439.27 659.577 1433.28 664.857 1431.77 672.51Z" fill="#FFE779"/>
<path d="M1409.05 692.253C1407.48 700.155 1411.11 707.472 1417.09 708.658C1423.08 709.845 1429.24 704.406 1430.79 696.567C1432.35 688.727 1428.73 681.349 1422.75 680.162C1416.77 678.975 1410.61 684.414 1409.05 692.253Z" fill="#FFE779"/>
<path d="M1387.44 712.15C1385.98 719.492 1389.32 726.298 1394.92 727.409C1400.52 728.52 1406.2 723.504 1407.66 716.162C1409.12 708.82 1405.78 702.015 1400.18 700.904C1394.58 699.792 1388.89 704.808 1387.44 712.15Z" fill="#FFE779"/>
<path d="M1365.59 732.005C1364.22 738.911 1367.38 745.358 1372.65 746.404C1377.92 747.449 1383.3 742.697 1384.67 735.791C1386.04 728.884 1382.88 722.437 1377.61 721.392C1372.34 720.346 1366.96 725.098 1365.59 732.005Z" fill="#FFE779"/>
<path d="M1343.06 751.783C1341.67 758.813 1344.86 765.332 1350.23 766.397C1355.59 767.461 1361.03 762.656 1362.43 755.625C1363.82 748.595 1360.63 742.076 1355.26 741.011C1349.9 739.947 1344.45 744.752 1343.06 751.783Z" fill="#FFE779"/>
<path d="M1441.62 626.032C1440.19 633.249 1443.49 639.983 1449 641.076C1454.51 642.168 1460.13 637.205 1461.56 629.987C1462.99 622.77 1459.69 616.036 1454.19 614.944C1448.68 613.851 1443.06 618.814 1441.62 626.032Z" fill="#FFE779"/>
<path d="M1418.96 645.786C1417.49 653.19 1420.9 660.139 1426.55 661.26C1432.2 662.38 1438 657.259 1439.47 649.855C1440.94 642.451 1437.53 635.502 1431.88 634.381C1426.23 633.261 1420.43 638.382 1418.96 645.786Z" fill="#FFE779"/>
<path d="M1396.83 665.577C1395.4 672.794 1398.7 679.528 1404.21 680.621C1409.71 681.713 1415.33 676.75 1416.77 669.533C1418.2 662.315 1414.9 655.582 1409.39 654.489C1403.88 653.397 1398.26 658.36 1396.83 665.577Z" fill="#FFE779"/>
<path d="M1374.97 685.491C1373.62 692.272 1376.75 698.648 1381.92 699.675C1387.1 700.701 1392.42 696.002 1393.77 689.22C1395.11 682.438 1391.99 676.063 1386.81 675.036C1381.64 674.01 1376.31 678.709 1374.97 685.491Z" fill="#FFE779"/>
<path d="M1352.59 705.241C1351.25 712.022 1354.37 718.398 1359.55 719.425C1364.72 720.451 1370.05 715.752 1371.39 708.97C1372.74 702.188 1369.61 695.813 1364.44 694.786C1359.26 693.76 1353.94 698.459 1352.59 705.241Z" fill="#FFE779"/>
<path d="M1330.74 725.09C1329.47 731.499 1332.39 737.445 1337.28 738.415C1342.17 739.385 1347.13 735.002 1348.4 728.594C1349.68 722.185 1346.76 716.239 1341.87 715.269C1336.98 714.299 1332.02 718.682 1330.74 725.09Z" fill="#FFE779"/>
<path d="M1309.03 745.032C1307.85 750.942 1310.56 756.459 1315.07 757.353C1319.58 758.248 1324.18 754.182 1325.36 748.271C1326.53 742.361 1323.82 736.845 1319.31 735.95C1314.8 735.055 1310.2 739.121 1309.03 745.032Z" fill="#FFE779"/>
<path d="M1428.49 599.237C1427.06 606.453 1430.36 613.189 1435.87 614.281C1441.38 615.373 1447 610.409 1448.43 603.193C1449.86 595.977 1446.56 589.241 1441.05 588.149C1435.55 587.057 1429.92 592.021 1428.49 599.237Z" fill="#FFE779"/>
<path d="M1406.78 619.12C1405.45 625.839 1408.51 632.072 1413.63 633.089C1418.76 634.106 1423.96 629.512 1425.3 622.793C1426.63 616.073 1423.57 609.841 1418.45 608.824C1413.32 607.807 1408.12 612.4 1406.78 619.12Z" fill="#FFE779"/>
<path d="M1384.73 638.993C1383.45 645.464 1386.4 651.482 1391.34 652.461C1396.27 653.441 1401.3 649.005 1402.58 642.535C1403.87 636.064 1400.92 630.046 1395.98 629.067C1391.04 628.087 1386.02 632.523 1384.73 638.993Z" fill="#FFE779"/>
<path d="M1362.03 658.676C1360.71 665.333 1363.76 671.565 1368.84 672.573C1373.92 673.581 1379.13 668.987 1380.45 662.33C1381.77 655.672 1378.71 649.44 1373.63 648.432C1368.55 647.424 1363.35 652.018 1362.03 658.676Z" fill="#FFE779"/>
<path d="M1340.12 678.579C1338.86 684.902 1341.76 690.803 1346.58 691.76C1351.41 692.717 1356.33 688.368 1357.59 682.045C1358.84 675.722 1355.95 669.821 1351.13 668.864C1346.3 667.907 1341.37 672.256 1340.12 678.579Z" fill="#FFE779"/>
<path d="M1318.56 698.488C1317.42 704.212 1320.02 709.513 1324.39 710.38C1328.76 711.246 1333.18 707.339 1334.32 701.615C1335.45 695.891 1332.85 690.59 1328.49 689.723C1324.12 688.857 1319.69 692.764 1318.56 698.488Z" fill="#FFE779"/>
<path d="M1296.75 718.347C1295.71 723.636 1298.13 728.578 1302.16 729.379C1306.2 730.18 1310.33 726.536 1311.38 721.248C1312.43 715.959 1310 711.016 1305.97 710.216C1301.93 709.415 1297.8 713.058 1296.75 718.347Z" fill="#FFE779"/>
<path d="M1274.23 738.126C1273.16 743.487 1275.62 748.49 1279.71 749.301C1283.8 750.113 1287.98 746.425 1289.04 741.065C1290.1 735.704 1287.65 730.701 1283.56 729.889C1279.47 729.078 1275.29 732.766 1274.23 738.126Z" fill="#FFE779"/>
<path d="M1438.78 552.843C1437.49 559.314 1440.44 565.331 1445.38 566.311C1450.32 567.29 1455.34 562.855 1456.63 556.384C1457.91 549.913 1454.96 543.896 1450.02 542.916C1445.09 541.937 1440.06 546.372 1438.78 552.843Z" fill="#FFE779"/>
<path d="M1416.45 572.602C1415.18 579.01 1418.1 584.956 1422.99 585.926C1427.88 586.896 1432.84 582.514 1434.11 576.105C1435.39 569.697 1432.47 563.751 1427.58 562.781C1422.69 561.811 1417.73 566.193 1416.45 572.602Z" fill="#FFE779"/>
<path d="M1394.31 592.456C1393.07 598.678 1395.92 604.481 1400.67 605.423C1405.41 606.364 1410.26 602.087 1411.49 595.866C1412.73 589.644 1409.88 583.841 1405.14 582.899C1400.39 581.958 1395.54 586.234 1394.31 592.456Z" fill="#FFE779"/>
<path d="M1371.94 612.205C1370.7 618.427 1373.55 624.229 1378.3 625.171C1383.04 626.113 1387.89 621.836 1389.12 615.614C1390.36 609.392 1387.51 603.59 1382.77 602.648C1378.02 601.706 1373.17 605.983 1371.94 612.205Z" fill="#FFE779"/>
<path d="M1349.89 632.08C1348.71 638.025 1351.43 643.574 1355.97 644.474C1360.5 645.373 1365.13 641.284 1366.31 635.339C1367.49 629.394 1364.77 623.846 1360.24 622.946C1355.7 622.046 1351.07 626.136 1349.89 632.08Z" fill="#FFE779"/>
<path d="M1327.94 651.914C1326.83 657.515 1329.4 662.743 1333.67 663.591C1337.94 664.439 1342.31 660.585 1343.42 654.984C1344.53 649.383 1341.97 644.155 1337.69 643.308C1333.42 642.46 1329.06 646.313 1327.94 651.914Z" fill="#FFE779"/>
<path d="M1306.13 671.835C1305.09 677.062 1307.49 681.871 1311.43 682.653C1315.37 683.434 1319.44 679.844 1320.46 674.68C1321.49 669.516 1319.1 664.644 1315.16 663.863C1311.22 663.081 1307.15 666.671 1306.13 671.835Z" fill="#FFE779"/>
<path d="M1283.71 691.571C1282.67 696.798 1285.08 701.607 1289.02 702.388C1292.96 703.17 1297.02 699.58 1298.05 694.416C1299.07 689.251 1296.68 684.38 1292.74 683.598C1288.8 682.817 1284.74 686.407 1283.71 691.571Z" fill="#FFE779"/>
<path d="M1262.01 711.452C1261.07 716.16 1263.23 720.554 1266.82 721.266C1270.41 721.979 1274.08 718.74 1275.01 714.033C1275.95 709.325 1273.79 704.931 1270.2 704.219C1266.61 703.506 1262.94 706.745 1262.01 711.452Z" fill="#FFE779"/>
<path d="M1240.33 731.405C1239.5 735.574 1241.44 739.514 1244.62 740.145C1247.8 740.776 1251.09 737.872 1251.91 733.703C1252.74 729.534 1250.81 725.594 1247.63 724.963C1244.45 724.332 1241.16 727.236 1240.33 731.405Z" fill="#FFE779"/>
<path d="M1217.91 751.141C1217.09 755.31 1219.02 759.25 1222.2 759.881C1225.38 760.512 1228.67 757.607 1229.5 753.439C1230.32 749.27 1228.39 745.33 1225.21 744.699C1222.03 744.068 1218.74 746.972 1217.91 751.141Z" fill="#FFE779"/>
<path d="M1426.18 526.092C1424.98 532.128 1427.75 537.787 1432.36 538.7C1436.96 539.614 1441.69 535.443 1442.89 529.408C1444.08 523.372 1441.31 517.713 1436.7 516.799C1432.1 515.886 1427.37 520.057 1426.18 526.092Z" fill="#FFE779"/>
<path d="M1404.36 546.017C1403.24 551.652 1405.82 556.912 1410.12 557.765C1414.42 558.618 1418.81 554.741 1419.93 549.106C1421.05 543.47 1418.47 538.21 1414.17 537.357C1409.87 536.504 1405.48 540.381 1404.36 546.017Z" fill="#FFE779"/>
<path d="M1381.52 565.668C1380.34 571.613 1383.06 577.162 1387.59 578.061C1392.13 578.961 1396.76 574.872 1397.94 568.927C1399.12 562.982 1396.4 557.434 1391.87 556.534C1387.33 555.634 1382.7 559.724 1381.52 565.668Z" fill="#FFE779"/>
<path d="M1359.47 585.542C1358.33 591.266 1360.93 596.567 1365.3 597.434C1369.67 598.3 1374.09 594.393 1375.23 588.669C1376.36 582.944 1373.76 577.643 1369.4 576.777C1365.03 575.91 1360.6 579.818 1359.47 585.542Z" fill="#FFE779"/>
<path d="M1337.76 605.426C1336.72 610.653 1339.12 615.462 1343.06 616.243C1347 617.025 1351.07 613.435 1352.09 608.271C1353.12 603.106 1350.73 598.235 1346.79 597.453C1342.85 596.672 1338.78 600.262 1337.76 605.426Z" fill="#FFE779"/>
<path d="M1315.75 625.308C1314.78 630.223 1317.04 634.746 1320.74 635.48C1324.45 636.215 1328.27 632.836 1329.24 627.983C1330.2 623.129 1327.95 618.545 1324.25 617.81C1320.55 617.076 1316.72 620.455 1315.75 625.308Z" fill="#FFE779"/>
<path d="M1293.15 645.008C1292.14 650.059 1294.46 654.774 1298.31 655.538C1302.16 656.303 1306.1 652.828 1307.1 647.776C1308.1 642.725 1305.79 638.011 1301.94 637.246C1298.08 636.481 1294.15 639.956 1293.15 645.008Z" fill="#FFE779"/>
<path d="M1271.47 664.963C1270.57 669.505 1272.64 673.731 1276.11 674.419C1279.58 675.106 1283.11 671.991 1284.01 667.449C1284.91 662.907 1282.83 658.681 1279.37 657.993C1275.9 657.306 1272.37 660.421 1271.47 664.963Z" fill="#FFE779"/>
<path d="M1249.86 684.859C1249.07 688.841 1250.9 692.566 1253.94 693.168C1256.98 693.771 1260.09 691.026 1260.88 687.044C1261.67 683.062 1259.84 679.336 1256.8 678.734C1253.76 678.131 1250.65 680.877 1249.86 684.859Z" fill="#FFE779"/>
<path d="M1227.25 704.558C1226.44 708.664 1228.33 712.532 1231.47 713.154C1234.6 713.776 1237.83 710.924 1238.65 706.818C1239.46 702.711 1237.56 698.843 1234.43 698.221C1231.3 697.6 1228.07 700.451 1227.25 704.558Z" fill="#FFE779"/>
<path d="M1205.68 724.53C1204.97 728.076 1206.59 731.372 1209.29 731.909C1212 732.445 1214.75 730.017 1215.46 726.47C1216.16 722.924 1214.54 719.628 1211.84 719.091C1209.13 718.555 1206.38 720.983 1205.68 724.53Z" fill="#FFE779"/>
<path d="M1184.11 744.438C1183.53 747.363 1184.87 750.085 1187.1 750.528C1189.33 750.97 1191.6 748.964 1192.18 746.04C1192.76 743.115 1191.43 740.393 1189.2 739.95C1186.97 739.508 1184.69 741.514 1184.11 744.438Z" fill="#FFE779"/>
<path d="M1436.36 479.743C1435.3 485.094 1437.76 490.108 1441.84 490.918C1445.92 491.728 1450.11 488.032 1451.17 482.681C1452.23 477.33 1449.77 472.316 1445.69 471.506C1441.61 470.696 1437.42 474.392 1436.36 479.743Z" fill="#FFE779"/>
<path d="M1414.08 499.506C1413.03 504.798 1415.45 509.737 1419.49 510.538C1423.53 511.339 1427.65 507.699 1428.7 502.407C1429.75 497.115 1427.33 492.176 1423.29 491.375C1419.25 490.574 1415.13 494.214 1414.08 499.506Z" fill="#FFE779"/>
<path d="M1391.19 519.152C1390.07 524.788 1392.65 530.048 1396.95 530.901C1401.25 531.754 1405.64 527.877 1406.76 522.241C1407.88 516.606 1405.3 511.346 1401 510.493C1396.7 509.64 1392.31 513.517 1391.19 519.152Z" fill="#FFE779"/>
<path d="M1369.52 539.102C1368.5 544.204 1370.82 548.932 1374.72 549.705C1378.61 550.477 1382.56 546.992 1383.57 541.89C1384.58 536.788 1382.26 532.06 1378.37 531.288C1374.48 530.515 1370.53 534 1369.52 539.102Z" fill="#FFE779"/>
<path d="M1347.29 558.878C1346.3 563.861 1348.58 568.512 1352.38 569.266C1356.18 570.02 1360.07 566.592 1361.05 561.61C1362.04 556.627 1359.76 551.976 1355.96 551.222C1352.16 550.468 1348.28 553.896 1347.29 558.878Z" fill="#FFE779"/>
<path d="M1325.38 578.78C1324.46 583.419 1326.58 587.749 1330.12 588.451C1333.66 589.154 1337.28 585.962 1338.2 581.323C1339.12 576.684 1336.99 572.355 1333.45 571.652C1329.91 570.95 1326.3 574.142 1325.38 578.78Z" fill="#FFE779"/>
<path d="M1302.96 598.52C1302.03 603.187 1304.14 607.485 1307.7 608.191C1311.26 608.898 1314.85 605.73 1315.78 601.063C1316.7 596.397 1314.6 592.098 1311.03 591.392C1307.47 590.686 1303.89 593.854 1302.96 598.52Z" fill="#FFE779"/>
<path d="M1281 618.415C1280.14 622.77 1282.15 626.791 1285.43 627.441C1288.7 628.091 1292.11 625.081 1292.97 620.788C1293.82 616.495 1291.82 612.412 1288.54 611.762C1285.26 611.112 1281.85 614.122 1281 618.415Z" fill="#FFE779"/>
<path d="M1259.25 638.285C1258.49 642.143 1260.28 645.796 1263.22 646.38C1266.17 646.964 1269.22 644.271 1269.98 640.414C1270.75 636.556 1268.96 632.902 1266.01 632.319C1263.07 631.735 1260.02 634.427 1259.25 638.285Z" fill="#FFE779"/>
<path d="M1236.68 658.053C1235.89 662.035 1237.71 665.76 1240.75 666.363C1243.79 666.966 1246.9 664.22 1247.69 660.238C1248.48 656.256 1246.65 652.531 1243.62 651.929C1240.58 651.326 1237.47 654.071 1236.68 658.053Z" fill="#FFE779"/>
<path d="M1215.11 677.967C1214.45 681.327 1215.99 684.479 1218.56 684.988C1221.12 685.496 1223.75 683.173 1224.42 679.813C1225.08 676.453 1223.54 673.301 1220.98 672.793C1218.41 672.284 1215.78 674.607 1215.11 677.967Z" fill="#FFE779"/>
<path d="M1193.36 697.832C1192.78 700.756 1194.12 703.479 1196.35 703.921C1198.58 704.364 1200.85 702.357 1201.43 699.433C1202.01 696.509 1200.68 693.787 1198.45 693.344C1196.21 692.901 1193.94 694.908 1193.36 697.832Z" fill="#FFE779"/>
<path d="M1171.78 717.805C1171.32 720.107 1172.37 722.318 1174.17 722.676C1175.97 723.034 1177.77 721.45 1178.24 719.085C1178.71 716.721 1177.65 714.572 1175.85 714.214C1174.04 713.856 1172.25 715.44 1171.78 717.805Z" fill="#FFE779"/>
<path d="M1149.41 737.552C1148.95 739.854 1150 742.065 1151.8 742.423C1153.6 742.781 1155.4 741.197 1155.87 738.833C1156.34 736.469 1155.28 734.32 1153.48 733.962C1151.67 733.604 1149.88 735.188 1149.41 737.552Z" fill="#FFE779"/>
<path d="M1423.8 452.999C1422.83 457.914 1425.06 462.561 1428.86 463.315C1432.66 464.068 1436.49 460.689 1437.47 455.711C1438.46 450.734 1436.21 446.149 1432.41 445.396C1428.62 444.642 1424.79 448.022 1423.8 452.999Z" fill="#FFE779"/>
<path d="M1401.37 472.801C1400.39 477.749 1402.65 482.368 1406.43 483.117C1410.2 483.866 1414.06 480.462 1415.04 475.514C1416.02 470.565 1413.76 465.947 1409.98 465.198C1406.21 464.449 1402.35 467.853 1401.37 472.801Z" fill="#FFE779"/>
<path d="M1379.24 492.595C1378.29 497.372 1380.47 501.83 1384.12 502.553C1387.76 503.276 1391.49 499.99 1392.43 495.213C1393.38 490.437 1391.19 485.979 1387.55 485.256C1383.91 484.533 1380.18 487.819 1379.24 492.595Z" fill="#FFE779"/>
<path d="M1357.01 512.371C1356.09 517.01 1358.21 521.34 1361.75 522.042C1365.29 522.744 1368.91 519.553 1369.83 514.914C1370.75 510.275 1368.62 505.945 1365.08 505.243C1361.54 504.541 1357.93 507.732 1357.01 512.371Z" fill="#FFE779"/>
<path d="M1335.29 532.313C1334.48 536.419 1336.38 540.288 1339.51 540.909C1342.64 541.531 1345.87 538.68 1346.69 534.573C1347.5 530.467 1345.6 526.598 1342.47 525.977C1339.34 525.355 1336.11 528.206 1335.29 532.313Z" fill="#FFE779"/>
<path d="M1312.49 551.974C1311.61 556.392 1313.65 560.547 1317.02 561.215C1320.39 561.884 1323.86 558.822 1324.74 554.404C1325.61 549.987 1323.58 545.832 1320.21 545.163C1316.84 544.494 1313.37 547.557 1312.49 551.974Z" fill="#FFE779"/>
<path d="M1290.54 571.87C1289.72 575.977 1291.62 579.845 1294.75 580.467C1297.88 581.088 1301.11 578.237 1301.93 574.131C1302.74 570.024 1300.85 566.156 1297.71 565.534C1294.58 564.913 1291.35 567.764 1290.54 571.87Z" fill="#FFE779"/>
<path d="M1268.97 591.778C1268.27 595.325 1269.88 598.62 1272.59 599.157C1275.3 599.693 1278.05 597.265 1278.75 593.718C1279.45 590.172 1277.84 586.876 1275.13 586.34C1272.43 585.803 1269.67 588.232 1268.97 591.778Z" fill="#FFE779"/>
<path d="M1246.26 611.521C1245.52 615.254 1247.24 618.765 1250.09 619.33C1252.94 619.895 1255.87 617.307 1256.61 613.574C1257.35 609.841 1255.63 606.331 1252.78 605.766C1249.93 605.201 1247 607.788 1246.26 611.521Z" fill="#FFE779"/>
<path d="M1224.5 631.393C1223.85 634.69 1225.37 637.709 1227.84 638.198C1230.31 638.688 1232.88 636.418 1233.52 633.182C1234.16 629.947 1232.65 626.867 1230.18 626.377C1227.71 625.887 1225.14 628.157 1224.5 631.393Z" fill="#FFE779"/>
<path d="M1202.78 651.331C1202.23 654.114 1203.51 656.712 1205.63 657.134C1207.75 657.555 1209.92 655.64 1210.47 652.857C1211.03 650.073 1209.75 647.475 1207.63 647.054C1205.5 646.633 1203.34 648.548 1202.78 651.331Z" fill="#FFE779"/>
<path d="M1181.31 671.26C1180.89 673.375 1181.88 675.381 1183.49 675.701C1185.1 676.022 1186.78 674.543 1187.2 672.428C1187.62 670.312 1186.64 668.307 1185.02 667.986C1183.41 667.666 1181.73 669.145 1181.31 671.26Z" fill="#FFE779"/>
<path d="M1158.71 690.958C1158.26 693.198 1159.32 695.347 1161.03 695.686C1162.74 696.025 1164.53 694.441 1164.97 692.201C1165.42 689.961 1164.36 687.812 1162.66 687.473C1160.95 687.134 1159.15 688.718 1158.71 690.958Z" fill="#FFE779"/>
<path d="M1137.18 710.941C1136.85 712.621 1137.63 714.135 1138.87 714.379C1140.1 714.624 1141.42 713.463 1141.74 711.845C1142.06 710.227 1141.28 708.651 1140.05 708.406C1138.82 708.161 1137.5 709.323 1137.18 710.941Z" fill="#FFE779"/>
<path d="M1115.66 730.856C1115.46 731.852 1115.92 732.783 1116.68 732.934C1117.44 733.084 1118.22 732.398 1118.41 731.402C1118.61 730.407 1118.15 729.476 1117.4 729.325C1116.64 729.174 1115.86 729.861 1115.66 730.856Z" fill="#FFE779"/>
<path d="M1434.23 406.637C1433.42 410.726 1435.29 414.543 1438.41 415.162C1441.53 415.781 1444.72 412.968 1445.53 408.879C1446.34 404.79 1444.47 400.973 1441.35 400.354C1438.23 399.735 1435.04 402.548 1434.23 406.637Z" fill="#FFE779"/>
<path d="M1411.28 426.332C1410.39 430.812 1412.46 435.038 1415.88 435.716C1419.3 436.395 1422.83 433.279 1423.72 428.8C1424.61 424.32 1422.53 420.093 1419.12 419.415C1415.7 418.737 1412.17 421.852 1411.28 426.332Z" fill="#FFE779"/>
<path d="M1388.96 446.089C1388.08 450.522 1390.11 454.659 1393.49 455.33C1396.88 456.001 1400.33 452.952 1401.21 448.519C1402.09 444.086 1400.06 439.949 1396.68 439.278C1393.3 438.607 1389.84 441.656 1388.96 446.089Z" fill="#FFE779"/>
<path d="M1367.24 466.029C1366.46 469.948 1368.24 473.664 1371.28 474.267C1374.32 474.87 1377.37 472.177 1378.16 468.195C1378.95 464.213 1377.16 460.559 1374.12 459.956C1371.08 459.354 1368.03 462.047 1367.24 466.029Z" fill="#FFE779"/>
<path d="M1344.96 485.796C1344.2 489.645 1345.96 493.237 1348.9 493.82C1351.83 494.402 1354.83 491.755 1355.6 487.906C1356.36 484.057 1354.6 480.465 1351.66 479.883C1348.73 479.3 1345.73 481.948 1344.96 485.796Z" fill="#FFE779"/>
<path d="M1322.16 505.46C1321.35 509.566 1323.25 513.435 1326.38 514.056C1329.51 514.678 1332.74 511.827 1333.56 507.72C1334.37 503.614 1332.48 499.745 1329.34 499.124C1326.21 498.502 1322.98 501.353 1322.16 505.46Z" fill="#FFE779"/>
<path d="M1300.45 525.402C1299.73 529.011 1301.37 532.44 1304.17 532.996C1306.97 533.551 1309.78 531.07 1310.51 527.399C1311.24 523.728 1309.59 520.361 1306.79 519.805C1303.99 519.25 1301.17 521.731 1300.45 525.402Z" fill="#FFE779"/>
<path d="M1278.55 545.241C1277.89 548.539 1279.42 551.557 1281.89 552.047C1284.35 552.537 1286.93 550.266 1287.57 547.031C1288.21 543.796 1286.7 540.715 1284.23 540.225C1281.76 539.736 1279.19 542.006 1278.55 545.241Z" fill="#FFE779"/>
<path d="M1255.79 564.975C1255.08 568.522 1256.7 571.817 1259.4 572.354C1262.11 572.891 1264.86 570.462 1265.57 566.915C1266.27 563.369 1264.65 560.074 1261.95 559.537C1259.24 559 1256.49 561.429 1255.79 564.975Z" fill="#FFE779"/>
<path d="M1234.27 584.894C1233.69 587.818 1235.02 590.541 1237.25 590.983C1239.48 591.426 1241.76 589.419 1242.34 586.495C1242.92 583.571 1241.58 580.849 1239.35 580.406C1237.12 579.963 1234.85 581.97 1234.27 584.894Z" fill="#FFE779"/>
<path d="M1212.41 604.804C1211.91 607.313 1213.06 609.654 1214.97 610.034C1216.89 610.413 1218.84 608.688 1219.34 606.179C1219.84 603.671 1218.69 601.329 1216.77 600.95C1214.86 600.57 1212.91 602.296 1212.41 604.804Z" fill="#FFE779"/>
<path d="M1190.65 624.674C1190.24 626.736 1191.19 628.66 1192.76 628.972C1194.33 629.285 1195.94 627.866 1196.35 625.804C1196.76 623.743 1195.82 621.818 1194.24 621.506C1192.67 621.194 1191.06 622.612 1190.65 624.674Z" fill="#FFE779"/>
<path d="M1168.13 644.458C1167.71 646.589 1168.68 648.577 1170.31 648.9C1171.93 649.222 1173.59 647.757 1174.02 645.626C1174.44 643.496 1173.46 641.507 1171.84 641.185C1170.21 640.862 1168.55 642.328 1168.13 644.458Z" fill="#FFE779"/>
<path d="M1146.66 664.384C1146.36 665.878 1147.03 667.239 1148.17 667.465C1149.31 667.691 1150.44 666.688 1150.74 665.194C1151.04 663.701 1150.37 662.34 1149.23 662.114C1148.09 661.888 1146.95 662.891 1146.66 664.384Z" fill="#FFE779"/>
<path d="M1124.91 684.253C1124.71 685.249 1125.16 686.18 1125.92 686.331C1126.68 686.481 1127.46 685.795 1127.66 684.8C1127.86 683.804 1127.4 682.873 1126.64 682.722C1125.88 682.571 1125.1 683.258 1124.91 684.253Z" fill="#FFE779"/>
<path d="M1102.52 704.063C1102.32 705.058 1102.78 705.99 1103.54 706.14C1104.3 706.291 1105.08 705.605 1105.28 704.609C1105.47 703.614 1105.02 702.682 1104.26 702.532C1103.5 702.381 1102.72 703.067 1102.52 704.063Z" fill="#FFE779"/>
<path d="M1081.05 723.993C1080.98 724.336 1081.14 724.657 1081.4 724.709C1081.66 724.761 1081.93 724.525 1082 724.181C1082.07 723.838 1081.91 723.517 1081.65 723.465C1081.39 723.413 1081.12 723.649 1081.05 723.993Z" fill="#FFE779"/>
<path d="M1421.66 379.958C1420.95 383.567 1422.59 386.996 1425.39 387.552C1428.19 388.108 1431 385.626 1431.73 381.955C1432.46 378.284 1430.81 374.917 1428.01 374.362C1425.2 373.806 1422.39 376.288 1421.66 379.958Z" fill="#FFE779"/>
<path d="M1399.29 399.703C1398.58 403.312 1400.22 406.741 1403.02 407.297C1405.82 407.852 1408.63 405.371 1409.36 401.7C1410.09 398.029 1408.44 394.662 1405.63 394.106C1402.83 393.551 1400.02 396.032 1399.29 399.703Z" fill="#FFE779"/>
<path d="M1376.91 419.51C1376.19 423.118 1377.83 426.548 1380.63 427.103C1383.43 427.659 1386.24 425.177 1386.97 421.506C1387.7 417.835 1386.05 414.468 1383.25 413.913C1380.45 413.357 1377.64 415.839 1376.91 419.51Z" fill="#FFE779"/>
<path d="M1354.73 439.299C1354.04 442.769 1355.63 446.009 1358.28 446.534C1360.93 447.059 1363.63 444.672 1364.32 441.201C1365.01 437.73 1363.42 434.491 1360.77 433.966C1358.12 433.44 1355.42 435.828 1354.73 439.299Z" fill="#FFE779"/>
<path d="M1332.3 459.097C1331.61 462.568 1333.2 465.807 1335.85 466.332C1338.49 466.858 1341.2 464.47 1341.89 460.999C1342.58 457.529 1340.99 454.289 1338.34 453.764C1335.69 453.239 1332.99 455.626 1332.3 459.097Z" fill="#FFE779"/>
<path d="M1310.21 478.901C1309.56 482.198 1311.08 485.216 1313.55 485.706C1316.02 486.196 1318.59 483.925 1319.23 480.69C1319.88 477.455 1318.36 474.374 1315.9 473.885C1313.43 473.395 1310.86 475.665 1310.21 478.901Z" fill="#FFE779"/>
<path d="M1288.12 498.707C1287.52 501.756 1288.89 504.55 1291.22 505.011C1293.54 505.473 1295.87 503.414 1296.48 500.365C1297.08 497.316 1295.71 494.522 1293.39 494.061C1291.06 493.599 1288.73 495.659 1288.12 498.707Z" fill="#FFE779"/>
<path d="M1265.75 518.516C1265.14 521.565 1266.51 524.358 1268.84 524.82C1271.16 525.281 1273.5 523.222 1274.1 520.173C1274.71 517.125 1273.34 514.331 1271.01 513.869C1268.68 513.408 1266.35 515.467 1265.75 518.516Z" fill="#FFE779"/>
<path d="M1243.75 538.339C1243.21 541.076 1244.43 543.584 1246.52 543.998C1248.61 544.413 1250.71 542.565 1251.25 539.827C1251.79 537.089 1250.56 534.582 1248.47 534.168C1246.39 533.753 1244.29 535.601 1243.75 538.339Z" fill="#FFE779"/>
<path d="M1221.84 558.242C1221.37 560.607 1222.46 562.827 1224.26 563.185C1226.07 563.543 1227.92 561.906 1228.39 559.542C1228.86 557.178 1227.77 554.957 1225.97 554.599C1224.16 554.241 1222.31 555.878 1221.84 558.242Z" fill="#FFE779"/>
<path d="M1200.38 578.169C1200.03 579.911 1200.8 581.487 1202.13 581.75C1203.46 582.014 1204.78 580.853 1205.12 579.11C1205.47 577.368 1204.7 575.792 1203.37 575.529C1202.04 575.265 1200.72 576.427 1200.38 578.169Z" fill="#FFE779"/>
<path d="M1177.66 597.912C1177.28 599.837 1178.16 601.633 1179.62 601.924C1181.09 602.215 1182.59 600.891 1182.97 598.967C1183.36 597.043 1182.47 595.247 1181.01 594.956C1179.54 594.664 1178.04 595.988 1177.66 597.912Z" fill="#FFE779"/>
<path d="M1155.9 617.782C1155.61 619.275 1156.27 620.636 1157.41 620.862C1158.55 621.088 1159.69 620.085 1159.99 618.592C1160.28 617.099 1159.61 615.738 1158.47 615.512C1157.34 615.285 1156.2 616.289 1155.9 617.782Z" fill="#FFE779"/>
<path d="M1134.37 637.76C1134.2 638.631 1134.59 639.419 1135.25 639.551C1135.92 639.683 1136.57 639.102 1136.75 638.231C1136.92 637.36 1136.53 636.572 1135.87 636.44C1135.2 636.308 1134.55 636.889 1134.37 637.76Z" fill="#FFE779"/>
<path d="M1111.95 657.501C1111.78 658.372 1112.17 659.16 1112.83 659.292C1113.5 659.424 1114.15 658.843 1114.33 657.972C1114.5 657.101 1114.11 656.313 1113.45 656.181C1112.78 656.049 1112.13 656.63 1111.95 657.501Z" fill="#FFE779"/>
<path d="M1090.25 677.378C1090.18 677.751 1090.37 678.047 1090.6 678.094C1090.84 678.141 1091.14 677.877 1091.2 677.566C1091.26 677.255 1091.09 676.897 1090.85 676.85C1090.61 676.803 1090.32 677.067 1090.25 677.378Z" fill="#FFE779"/>
<path d="M1431.62 333.494C1431 336.605 1432.44 339.542 1434.82 340.013C1437.19 340.484 1439.64 338.319 1440.26 335.208C1440.88 332.097 1439.44 329.16 1437.06 328.689C1434.69 328.218 1432.24 330.383 1431.62 333.494Z" fill="#FFE779"/>
<path d="M1409.16 353.222C1408.52 356.418 1409.99 359.401 1412.42 359.884C1414.86 360.368 1417.35 358.17 1417.99 354.974C1418.62 351.778 1417.16 348.795 1414.72 348.312C1412.28 347.828 1409.79 350.026 1409.16 353.222Z" fill="#FFE779"/>
<path d="M1387.34 373.148C1386.78 375.948 1388.05 378.527 1390.18 378.951C1392.32 379.375 1394.47 377.474 1395.03 374.674C1395.59 371.874 1394.32 369.295 1392.18 368.871C1390.05 368.448 1387.89 370.348 1387.34 373.148Z" fill="#FFE779"/>
<path d="M1365.02 392.901C1364.48 395.639 1365.75 398.156 1367.8 398.561C1369.84 398.966 1371.98 397.127 1372.52 394.389C1373.06 391.652 1371.84 389.144 1369.75 388.73C1367.66 388.316 1365.56 390.164 1365.02 392.901Z" fill="#FFE779"/>
<path d="M1342.02 412.591C1341.4 415.718 1342.83 418.637 1345.22 419.11C1347.6 419.584 1350.04 417.432 1350.66 414.305C1351.28 411.178 1349.85 408.26 1347.46 407.787C1345.08 407.313 1342.64 409.464 1342.02 412.591Z" fill="#FFE779"/>
<path d="M1319.93 432.394C1319.35 435.318 1320.69 438.04 1322.92 438.483C1325.15 438.925 1327.42 436.919 1328.01 433.995C1328.59 431.07 1327.25 428.348 1325.02 427.906C1322.79 427.463 1320.51 429.469 1319.93 432.394Z" fill="#FFE779"/>
<path d="M1298.17 452.327C1297.67 454.816 1298.8 457.108 1300.7 457.485C1302.6 457.862 1304.51 456.172 1305 453.683C1305.5 451.195 1304.37 448.902 1302.48 448.526C1300.58 448.149 1298.66 449.838 1298.17 452.327Z" fill="#FFE779"/>
<path d="M1275.32 471.979C1274.77 474.763 1276.04 477.361 1278.17 477.782C1280.29 478.203 1282.46 476.288 1283.01 473.505C1283.56 470.722 1282.29 468.124 1280.17 467.702C1278.04 467.281 1275.87 469.196 1275.32 471.979Z" fill="#FFE779"/>
<path d="M1253.38 491.814C1252.88 494.302 1254.01 496.595 1255.91 496.971C1257.81 497.348 1259.72 495.658 1260.21 493.17C1260.71 490.681 1259.58 488.389 1257.68 488.012C1255.79 487.635 1253.87 489.325 1253.38 491.814Z" fill="#FFE779"/>
<path d="M1231.71 511.762C1231.32 513.691 1232.2 515.482 1233.67 515.774C1235.14 516.066 1236.64 514.746 1237.02 512.817C1237.41 510.888 1236.53 509.098 1235.06 508.806C1233.58 508.514 1232.09 509.834 1231.71 511.762Z" fill="#FFE779"/>
<path d="M1209.95 531.63C1209.65 533.123 1210.32 534.484 1211.46 534.71C1212.6 534.937 1213.74 533.933 1214.03 532.44C1214.33 530.947 1213.66 529.586 1212.52 529.36C1211.38 529.134 1210.25 530.137 1209.95 531.63Z" fill="#FFE779"/>
<path d="M1187.19 551.368C1186.84 553.11 1187.62 554.686 1188.94 554.95C1190.27 555.214 1191.59 554.052 1191.94 552.31C1192.28 550.568 1191.51 548.992 1190.18 548.728C1188.85 548.465 1187.53 549.626 1187.19 551.368Z" fill="#FFE779"/>
<path d="M1165.72 571.296C1165.51 572.354 1166 573.357 1166.81 573.517C1167.62 573.677 1168.45 572.938 1168.66 571.88C1168.87 570.822 1168.38 569.819 1167.58 569.659C1166.77 569.499 1165.93 570.238 1165.72 571.296Z" fill="#FFE779"/>
<path d="M1143.95 591.226C1143.83 591.848 1144.11 592.421 1144.58 592.516C1145.06 592.61 1145.54 592.187 1145.66 591.565C1145.79 590.943 1145.5 590.37 1145.03 590.276C1144.55 590.182 1144.08 590.604 1143.95 591.226Z" fill="#FFE779"/>
<path d="M1121.3 610.915C1121.14 611.724 1121.54 612.45 1122.11 612.563C1122.68 612.676 1123.33 612.095 1123.48 611.348C1123.63 610.602 1123.24 609.814 1122.67 609.701C1122.11 609.588 1121.45 610.169 1121.3 610.915Z" fill="#FFE779"/>
<path d="M1099.72 630.887C1099.72 630.887 1099.79 631.29 1099.93 631.318C1100.07 631.347 1100.25 631.187 1100.29 631C1100.33 630.812 1100.22 630.597 1100.08 630.568C1099.94 630.54 1099.76 630.699 1099.72 630.887Z" fill="#FFE779"/>
<path d="M1419.67 306.941C1419.23 309.181 1420.28 311.33 1421.99 311.669C1423.7 312.008 1425.5 310.424 1425.94 308.185C1426.38 305.945 1425.33 303.796 1423.62 303.457C1421.91 303.117 1420.12 304.701 1419.67 306.941Z" fill="#FFE779"/>
<path d="M1397.21 326.667C1396.75 328.969 1397.79 331.18 1399.59 331.538C1401.4 331.896 1403.19 330.312 1403.66 327.948C1404.13 325.583 1403.08 323.434 1401.27 323.076C1399.47 322.718 1397.67 324.303 1397.21 326.667Z" fill="#FFE779"/>
<path d="M1374.79 346.407C1374.33 348.709 1375.37 350.92 1377.17 351.278C1378.98 351.636 1380.77 350.052 1381.24 347.687C1381.71 345.323 1380.66 343.174 1378.85 342.816C1377.05 342.458 1375.26 344.042 1374.79 346.407Z" fill="#FFE779"/>
<path d="M1352.41 366.216C1351.95 368.518 1352.99 370.729 1354.8 371.087C1356.6 371.445 1358.39 369.861 1358.86 367.497C1359.33 365.132 1358.28 362.983 1356.47 362.625C1354.67 362.267 1352.88 363.851 1352.41 366.216Z" fill="#FFE779"/>
<path d="M1330.22 385.999C1329.79 388.164 1330.78 390.184 1332.43 390.512C1334.08 390.84 1335.77 389.35 1336.2 387.185C1336.63 385.021 1335.64 383 1333.99 382.672C1332.34 382.345 1330.65 383.834 1330.22 385.999Z" fill="#FFE779"/>
<path d="M1307.94 405.827C1307.53 407.88 1308.48 409.814 1310.04 410.125C1311.61 410.436 1313.22 409.01 1313.63 406.957C1314.04 404.904 1313.09 402.97 1311.52 402.659C1309.96 402.348 1308.34 403.774 1307.94 405.827Z" fill="#FFE779"/>
<path d="M1284.99 425.463C1284.5 427.937 1285.64 430.246 1287.52 430.621C1289.41 430.995 1291.34 429.293 1291.83 426.819C1292.32 424.345 1291.19 422.036 1289.3 421.661C1287.41 421.287 1285.48 422.989 1284.99 425.463Z" fill="#FFE779"/>
<path d="M1263.41 445.433C1263.04 447.3 1263.89 449.019 1265.31 449.301C1266.73 449.584 1268.17 448.317 1268.54 446.45C1268.91 444.584 1268.07 442.864 1266.64 442.582C1265.22 442.299 1263.78 443.566 1263.41 445.433Z" fill="#FFE779"/>
<path d="M1241.38 465.246C1241.06 466.863 1241.79 468.368 1243.03 468.612C1244.26 468.857 1245.52 467.749 1245.84 466.131C1246.16 464.513 1245.42 463.009 1244.19 462.764C1242.95 462.519 1241.7 463.628 1241.38 465.246Z" fill="#FFE779"/>
<path d="M1219.48 485.089C1219.23 486.36 1219.81 487.547 1220.78 487.74C1221.75 487.932 1222.74 487.057 1223 485.786C1223.25 484.515 1222.67 483.328 1221.7 483.135C1220.73 482.943 1219.74 483.818 1219.48 485.089Z" fill="#FFE779"/>
<path d="M1197.1 504.899C1196.85 506.144 1197.4 507.352 1198.4 507.55C1199.39 507.747 1200.35 506.903 1200.61 505.596C1200.87 504.289 1200.31 503.143 1199.31 502.945C1198.31 502.748 1197.36 503.593 1197.1 504.899Z" fill="#FFE779"/>
<path d="M1175.2 524.741C1175.01 525.674 1175.45 526.472 1176.11 526.604C1176.78 526.736 1177.5 526.102 1177.67 525.231C1177.84 524.36 1177.42 523.5 1176.75 523.368C1176.09 523.237 1175.37 523.87 1175.2 524.741Z" fill="#FFE779"/>
<path d="M1153.25 544.632C1153.14 545.192 1153.38 545.693 1153.81 545.778C1154.24 545.863 1154.66 545.493 1154.77 544.933C1154.88 544.373 1154.63 543.872 1154.21 543.787C1153.78 543.702 1153.36 544.072 1153.25 544.632Z" fill="#FFE779"/>
<path d="M1130.87 564.381C1130.76 564.941 1131.01 565.443 1131.44 565.527C1131.86 565.612 1132.28 565.243 1132.39 564.683C1132.5 564.123 1132.26 563.621 1131.83 563.536C1131.4 563.452 1130.99 563.821 1130.87 564.381Z" fill="#FFE779"/>
<path d="M1109.21 584.333C1109.2 584.368 1109.21 584.401 1109.24 584.406C1109.27 584.412 1109.29 584.387 1109.3 584.352C1109.31 584.316 1109.29 584.283 1109.26 584.278C1109.24 584.273 1109.21 584.298 1109.21 584.333Z" fill="#FFE779"/>
<path d="M1429.68 260.49C1429.33 262.232 1430.1 263.808 1431.43 264.072C1432.76 264.335 1434.08 263.174 1434.42 261.432C1434.77 259.69 1434 258.114 1432.67 257.85C1431.34 257.586 1430.02 258.748 1429.68 260.49Z" fill="#FFE779"/>
<path d="M1407.11 280.197C1406.76 282.002 1407.6 283.721 1408.98 283.994C1410.35 284.267 1411.79 283 1412.15 281.196C1412.5 279.391 1411.66 277.672 1410.28 277.399C1408.91 277.126 1407.47 278.393 1407.11 280.197Z" fill="#FFE779"/>
<path d="M1385.3 300.124C1385.02 301.555 1385.65 302.844 1386.74 303.061C1387.83 303.278 1388.91 302.327 1389.19 300.896C1389.48 299.465 1388.85 298.176 1387.75 297.959C1386.66 297.742 1385.58 298.693 1385.3 300.124Z" fill="#FFE779"/>
<path d="M1362.27 319.736C1361.9 321.591 1362.75 323.323 1364.16 323.604C1365.58 323.885 1367.03 322.608 1367.39 320.753C1367.76 318.897 1366.91 317.165 1365.5 316.884C1364.08 316.604 1362.63 317.88 1362.27 319.736Z" fill="#FFE779"/>
<path d="M1339.95 339.495C1339.59 341.299 1340.43 343.018 1341.81 343.291C1343.18 343.564 1344.62 342.297 1344.98 340.493C1345.34 338.689 1344.49 336.969 1343.12 336.696C1341.74 336.423 1340.3 337.69 1339.95 339.495Z" fill="#FFE779"/>
<path d="M1318.22 359.435C1317.97 360.741 1318.56 361.959 1319.56 362.157C1320.56 362.355 1321.57 361.457 1321.83 360.15C1322.09 358.844 1321.49 357.626 1320.5 357.428C1319.5 357.23 1318.48 358.128 1318.22 359.435Z" fill="#FFE779"/>
<path d="M1295.38 379.085C1295.04 380.765 1295.83 382.279 1297.06 382.523C1298.3 382.768 1299.61 381.607 1299.93 379.989C1300.26 378.371 1299.48 376.795 1298.25 376.55C1297.01 376.306 1295.7 377.467 1295.38 379.085Z" fill="#FFE779"/>
<path d="M1273.18 398.933C1272.88 400.445 1273.58 401.856 1274.73 402.085C1275.88 402.314 1277.06 401.274 1277.36 399.762C1277.66 398.25 1276.97 396.838 1275.82 396.61C1274.66 396.381 1273.48 397.421 1273.18 398.933Z" fill="#FFE779"/>
<path d="M1251.05 418.728C1250.79 420.034 1251.39 421.253 1252.38 421.45C1253.38 421.648 1254.4 420.75 1254.66 419.444C1254.92 418.138 1254.32 416.919 1253.32 416.722C1252.33 416.524 1251.31 417.422 1251.05 418.728Z" fill="#FFE779"/>
<path d="M1229.43 438.689C1229.28 439.435 1229.63 440.152 1230.2 440.265C1230.77 440.378 1231.37 439.85 1231.52 439.103C1231.67 438.357 1231.31 437.64 1230.74 437.527C1230.17 437.414 1229.58 437.942 1229.43 438.689Z" fill="#FFE779"/>
<path d="M1206.67 458.363C1206.48 459.359 1206.93 460.289 1207.69 460.44C1208.45 460.591 1209.23 459.905 1209.43 458.909C1209.63 457.912 1209.17 456.982 1208.41 456.831C1207.65 456.681 1206.87 457.366 1206.67 458.363Z" fill="#FFE779"/>
<path d="M1184.78 478.204C1184.65 478.857 1184.95 479.466 1185.45 479.565C1185.95 479.664 1186.45 479.215 1186.58 478.562C1186.71 477.909 1186.41 477.3 1185.92 477.201C1185.42 477.102 1184.91 477.551 1184.78 478.204Z" fill="#FFE779"/>
<path d="M1163.2 498.174C1163.2 498.174 1163.19 498.238 1163.23 498.248C1163.28 498.257 1163.28 498.257 1163.29 498.193C1163.31 498.129 1163.31 498.129 1163.26 498.12C1163.21 498.11 1163.21 498.11 1163.2 498.174Z" fill="#FFE779"/>
<path d="M1140.55 517.865C1140.55 517.865 1140.6 518.329 1140.79 518.367C1140.98 518.404 1141.16 518.246 1141.21 517.997C1141.26 517.748 1141.16 517.533 1140.97 517.496C1140.78 517.458 1140.6 517.616 1140.55 517.865Z" fill="#FFE779"/>
<path d="M1417.79 233.878C1417.62 234.687 1418.02 235.413 1418.59 235.526C1419.16 235.639 1419.82 235.058 1419.97 234.311C1420.12 233.565 1419.73 232.777 1419.16 232.664C1418.59 232.551 1417.93 233.132 1417.79 233.878Z" fill="#FFE779"/>
<path d="M1395.26 253.66C1395.08 254.553 1395.49 255.387 1396.17 255.522C1396.85 255.658 1397.55 255.043 1397.72 254.149C1397.9 253.256 1397.49 252.422 1396.81 252.287C1396.13 252.152 1395.43 252.766 1395.26 253.66Z" fill="#FFE779"/>
<path d="M1372.13 273.257C1371.84 274.688 1372.48 275.978 1373.57 276.194C1374.66 276.411 1375.74 275.46 1376.02 274.029C1376.3 272.598 1375.67 271.309 1374.58 271.092C1373.49 270.876 1372.41 271.826 1372.13 273.257Z" fill="#FFE779"/>
<path d="M1350.45 293.209C1350.27 294.142 1350.7 294.94 1351.37 295.072C1352.03 295.203 1352.75 294.57 1352.92 293.699C1353.09 292.828 1352.67 291.968 1352.01 291.836C1351.34 291.704 1350.63 292.338 1350.45 293.209Z" fill="#FFE779"/>
<path d="M1328.04 312.943C1327.85 313.877 1328.29 314.674 1328.95 314.806C1329.61 314.938 1330.33 314.304 1330.5 313.433C1330.68 312.562 1330.26 311.702 1329.59 311.571C1328.93 311.439 1328.21 312.072 1328.04 312.943Z" fill="#FFE779"/>
<path d="M1305.1 332.58C1304.84 333.887 1305.44 335.105 1306.43 335.302C1307.43 335.5 1308.45 334.603 1308.71 333.296C1308.97 331.989 1308.37 330.772 1307.37 330.574C1306.37 330.376 1305.36 331.274 1305.1 332.58Z" fill="#FFE779"/>
<path d="M1283.38 352.523C1283.22 353.332 1283.62 354.057 1284.19 354.17C1284.76 354.283 1285.42 353.703 1285.56 352.956C1285.71 352.209 1285.32 351.421 1284.76 351.308C1284.19 351.195 1283.53 351.776 1283.38 352.523Z" fill="#FFE779"/>
<path d="M1261.25 372.314C1261.12 372.933 1261.41 373.51 1261.88 373.604C1262.35 373.697 1262.83 373.272 1262.96 372.653C1263.08 372.035 1262.8 371.457 1262.32 371.364C1261.85 371.27 1261.37 371.696 1261.25 372.314Z" fill="#FFE779"/>
<path d="M1239.1 392.174C1239.01 392.61 1239.22 393.04 1239.55 393.106C1239.89 393.171 1240.25 392.855 1240.33 392.419C1240.42 391.984 1240.21 391.554 1239.87 391.488C1239.54 391.422 1239.18 391.739 1239.1 392.174Z" fill="#FFE779"/>
<path d="M1216.25 411.825C1216.11 412.572 1216.46 413.288 1217.03 413.401C1217.6 413.515 1218.19 412.986 1218.34 412.24C1218.49 411.493 1218.14 410.777 1217.57 410.664C1217 410.551 1216.4 411.079 1216.25 411.825Z" fill="#FFE779"/>
<path d="M1194.72 431.805C1194.72 431.805 1194.77 432.074 1194.86 432.092C1194.96 432.111 1195.08 432.005 1195.1 431.88C1195.13 431.755 1195.06 431.611 1194.96 431.593C1194.87 431.574 1194.75 431.68 1194.72 431.805Z" fill="#FFE779"/>
<path d="M1150.08 471.322C1150.08 471.322 1150.07 471.386 1150.11 471.395C1150.16 471.405 1150.16 471.404 1150.17 471.34C1150.19 471.276 1150.19 471.276 1150.14 471.267C1150.09 471.258 1150.09 471.258 1150.08 471.322Z" fill="#FFE779"/>
<path d="M1427.79 187.428C1427.79 187.428 1427.84 187.892 1428.03 187.929C1428.22 187.967 1428.4 187.808 1428.45 187.56C1428.5 187.311 1428.4 187.096 1428.21 187.058C1428.02 187.02 1427.84 187.179 1427.79 187.428Z" fill="#FFE779"/>
<path d="M1382.8 226.939C1382.72 227.312 1382.89 227.733 1383.22 227.799C1383.55 227.865 1383.85 227.601 1383.94 227.165C1384.02 226.73 1383.85 226.371 1383.52 226.305C1383.18 226.24 1382.88 226.504 1382.8 226.939Z" fill="#FFE779"/>
<path d="M1360.32 246.727C1360.23 247.163 1360.44 247.592 1360.78 247.658C1361.11 247.724 1361.47 247.407 1361.55 246.972C1361.64 246.536 1361.43 246.107 1361.1 246.041C1360.76 245.975 1360.41 246.292 1360.32 246.727Z" fill="#FFE779"/>
<path d="M1337.9 266.465C1337.82 266.9 1338.03 267.33 1338.36 267.396C1338.69 267.462 1339.05 267.145 1339.14 266.71C1339.22 266.274 1339.01 265.844 1338.68 265.778C1338.35 265.713 1337.99 266.029 1337.9 266.465Z" fill="#FFE779"/>
<path d="M1315.52 286.275C1315.43 286.71 1315.64 287.14 1315.98 287.206C1316.31 287.272 1316.67 286.955 1316.75 286.52C1316.84 286.084 1316.63 285.654 1316.3 285.588C1315.96 285.523 1315.61 285.839 1315.52 286.275Z" fill="#FFE779"/>
<path d="M1293.19 306.034C1293.11 306.447 1293.3 306.831 1293.62 306.894C1293.93 306.956 1294.25 306.673 1294.33 306.26C1294.42 305.848 1294.23 305.463 1293.91 305.401C1293.6 305.338 1293.28 305.622 1293.19 306.034Z" fill="#FFE779"/>
<path d="M1271.01 325.817C1271.01 325.817 1271.07 326.281 1271.26 326.318C1271.45 326.356 1271.62 326.198 1271.67 325.949C1271.72 325.7 1271.62 325.485 1271.43 325.447C1271.24 325.41 1271.06 325.568 1271.01 325.817Z" fill="#FFE779"/>
<path d="M1226.5 365.421C1226.5 365.421 1226.49 365.486 1226.53 365.495C1226.58 365.504 1226.58 365.504 1226.59 365.44C1226.6 365.376 1226.6 365.376 1226.56 365.367C1226.51 365.357 1226.51 365.357 1226.5 365.421Z" fill="#FFE779"/>
</g>
</g>
<defs>
<clipPath id="clip0_699_1120">
<rect width="1440" height="745" fill="white"/>
</clipPath>
</defs>
</svg>
