<svg width="858" height="151" viewBox="0 0 858 151" fill="none" xmlns="http://www.w3.org/2000/svg">
<g filter="url(#filter0_d_1485_9518)">
<path d="M3.01824 14.0328C3.01954 7.93918 7.95977 3 14.0534 3H843.88C849.975 3 854.915 7.94061 854.915 14.0352V87.3672C854.915 94.194 849.725 99.902 842.929 100.55L433.145 139.601C430.36 139.866 427.555 139.866 424.77 139.601L14.9885 100.55C8.19142 99.9021 3.00117 94.1925 3.00262 87.3646L3.01824 14.0328Z" fill="#342E72"/>
<path d="M843.88 1.89648C850.584 1.89648 856.019 7.33116 856.019 14.0352V87.3672C856.019 94.7628 850.396 100.947 843.034 101.648L433.25 140.699C430.395 140.971 427.52 140.971 424.665 140.699L14.8838 101.648C7.52027 100.947 1.89784 94.7611 1.89941 87.3643L1.91504 14.0322C1.91666 7.32939 7.35083 1.89648 14.0537 1.89648H843.88Z" stroke="black" stroke-width="2.20703"/>
</g>
<path d="M14.0928 4.10352H843.824C849.307 4.10358 853.753 8.54715 853.756 14.0303L853.787 81.0615C853.789 86.177 849.906 90.4582 844.814 90.9521L433.112 130.877C430.35 131.145 427.567 131.145 424.805 130.877L13.1025 90.9521C8.01093 90.4583 4.12748 86.177 4.12988 81.0615L4.16113 14.0303C4.16383 8.54711 8.60958 4.10353 14.0928 4.10352Z" fill="url(#paint0_linear_1485_9518)"/>
<path d="M14.0928 4.10352H843.824C849.307 4.10358 853.753 8.54715 853.756 14.0303L853.787 81.0615C853.789 86.177 849.906 90.4582 844.814 90.9521L433.112 130.877C430.35 131.145 427.567 131.145 424.805 130.877L13.1025 90.9521C8.01093 90.4583 4.12748 86.177 4.12988 81.0615L4.16113 14.0303C4.16383 8.54711 8.60958 4.10353 14.0928 4.10352Z" stroke="#D2BFFF" stroke-width="2.20703" style="mix-blend-mode:hard-light"/>
<path style="mix-blend-mode:hard-light" d="M843.962 5.53711C848.836 5.53711 852.788 9.4866 852.791 14.3604L852.799 29.8145C769.919 39.5471 611.174 46.1299 428.958 46.1299C246.741 46.1299 87.9957 39.5463 5.11621 29.8135L5.12402 14.3604C5.12669 9.48668 9.0785 5.53724 13.9521 5.53711H843.962Z" fill="url(#paint1_radial_1485_9518)" fill-opacity="0.25"/>
<g filter="url(#filter1_ddd_1485_9518)">
<mask id="path-5-outside-1_1485_9518" maskUnits="userSpaceOnUse" x="375.906" y="44.0054" width="107" height="38" fill="black">
<rect fill="white" x="375.906" y="44.0054" width="107" height="38"/>
<path d="M378.767 74.0054V47.0454H396.768V53.0054H386.327V58.1654H395.287V64.1254H386.327V74.0054H378.767ZM396.346 74.0054L403.946 47.0454H414.106L421.946 74.0054H414.386L413.146 69.0454H404.906L403.666 74.0054H396.346ZM406.186 63.8054H411.826L409.026 52.4454L406.186 63.8054ZM434.887 74.6054C430.941 74.6054 427.914 73.4054 425.807 71.0054C423.727 68.5787 422.687 65.0854 422.687 60.5254C422.687 55.9387 423.741 52.4454 425.847 50.0454C427.981 47.6454 431.061 46.4454 435.087 46.4454C439.087 46.4454 442.141 47.6454 444.247 50.0454C446.354 52.4454 447.407 55.9387 447.407 60.5254C447.407 65.272 446.141 68.8054 443.607 71.1254L447.807 73.2054L445.127 78.2054L437.847 74.3254C436.967 74.512 435.981 74.6054 434.887 74.6054ZM435.047 68.5254C436.621 68.5254 437.741 67.9254 438.407 66.7254C439.074 65.4987 439.407 63.432 439.407 60.5254C439.407 57.6187 439.074 55.5654 438.407 54.3654C437.741 53.1387 436.621 52.5254 435.047 52.5254C433.474 52.5254 432.354 53.1387 431.687 54.3654C431.021 55.5654 430.687 57.6187 430.687 60.5254C430.687 63.432 431.021 65.4987 431.687 66.7254C432.354 67.9254 433.474 68.5254 435.047 68.5254ZM449.855 58.9654L451.215 47.0454H458.655L455.375 58.9654H449.855ZM469.534 74.6054C466.36 74.6054 463.454 74.0854 460.814 73.0454L462.214 67.2054C463.254 67.6054 464.36 67.9254 465.534 68.1654C466.734 68.3787 467.854 68.4854 468.894 68.4854C470.44 68.4854 471.547 68.2854 472.214 67.8854C472.907 67.4854 473.254 66.832 473.254 65.9254C473.254 64.832 472.64 64.1654 471.414 63.9254L467.854 63.2054C463.427 62.2987 461.214 59.6454 461.214 55.2454C461.214 52.4987 462.12 50.352 463.934 48.8054C465.747 47.232 468.24 46.4454 471.414 46.4454C474.587 46.4454 477.414 46.9254 479.894 47.8854L478.454 53.6054C476.614 52.8854 474.454 52.5254 471.974 52.5254C469.52 52.5254 468.294 53.2854 468.294 54.8054C468.294 55.9254 469 56.6187 470.414 56.8854L473.454 57.4854C475.907 57.992 477.707 58.8987 478.854 60.2054C480.027 61.512 480.614 63.312 480.614 65.6054C480.614 68.6454 479.707 70.912 477.894 72.4054C476.08 73.872 473.294 74.6054 469.534 74.6054Z"/>
</mask>
<path d="M378.767 74.0054V47.0454H396.768V53.0054H386.327V58.1654H395.287V64.1254H386.327V74.0054H378.767ZM396.346 74.0054L403.946 47.0454H414.106L421.946 74.0054H414.386L413.146 69.0454H404.906L403.666 74.0054H396.346ZM406.186 63.8054H411.826L409.026 52.4454L406.186 63.8054ZM434.887 74.6054C430.941 74.6054 427.914 73.4054 425.807 71.0054C423.727 68.5787 422.687 65.0854 422.687 60.5254C422.687 55.9387 423.741 52.4454 425.847 50.0454C427.981 47.6454 431.061 46.4454 435.087 46.4454C439.087 46.4454 442.141 47.6454 444.247 50.0454C446.354 52.4454 447.407 55.9387 447.407 60.5254C447.407 65.272 446.141 68.8054 443.607 71.1254L447.807 73.2054L445.127 78.2054L437.847 74.3254C436.967 74.512 435.981 74.6054 434.887 74.6054ZM435.047 68.5254C436.621 68.5254 437.741 67.9254 438.407 66.7254C439.074 65.4987 439.407 63.432 439.407 60.5254C439.407 57.6187 439.074 55.5654 438.407 54.3654C437.741 53.1387 436.621 52.5254 435.047 52.5254C433.474 52.5254 432.354 53.1387 431.687 54.3654C431.021 55.5654 430.687 57.6187 430.687 60.5254C430.687 63.432 431.021 65.4987 431.687 66.7254C432.354 67.9254 433.474 68.5254 435.047 68.5254ZM449.855 58.9654L451.215 47.0454H458.655L455.375 58.9654H449.855ZM469.534 74.6054C466.36 74.6054 463.454 74.0854 460.814 73.0454L462.214 67.2054C463.254 67.6054 464.36 67.9254 465.534 68.1654C466.734 68.3787 467.854 68.4854 468.894 68.4854C470.44 68.4854 471.547 68.2854 472.214 67.8854C472.907 67.4854 473.254 66.832 473.254 65.9254C473.254 64.832 472.64 64.1654 471.414 63.9254L467.854 63.2054C463.427 62.2987 461.214 59.6454 461.214 55.2454C461.214 52.4987 462.12 50.352 463.934 48.8054C465.747 47.232 468.24 46.4454 471.414 46.4454C474.587 46.4454 477.414 46.9254 479.894 47.8854L478.454 53.6054C476.614 52.8854 474.454 52.5254 471.974 52.5254C469.52 52.5254 468.294 53.2854 468.294 54.8054C468.294 55.9254 469 56.6187 470.414 56.8854L473.454 57.4854C475.907 57.992 477.707 58.8987 478.854 60.2054C480.027 61.512 480.614 63.312 480.614 65.6054C480.614 68.6454 479.707 70.912 477.894 72.4054C476.08 73.872 473.294 74.6054 469.534 74.6054Z" fill="white"/>
<path d="M378.768 74.0054H376.525V76.2477H378.768V74.0054ZM378.768 47.0454V44.803H376.525V47.0454H378.768ZM396.768 47.0454H399.01V44.803H396.768V47.0454ZM396.768 53.0054V55.2477H399.01V53.0054H396.768ZM386.327 53.0054V50.763H384.085V53.0054H386.327ZM386.327 58.1654H384.085V60.4077H386.327V58.1654ZM395.288 58.1654H397.53V55.923H395.288V58.1654ZM395.288 64.1254V66.3677H397.53V64.1254H395.288ZM386.327 64.1254V61.883H384.085V64.1254H386.327ZM386.327 74.0054V76.2477H388.57V74.0054H386.327ZM378.768 74.0054H381.01V47.0454H378.768H376.525V74.0054H378.768ZM378.768 47.0454V49.2877H396.768V47.0454V44.803H378.768V47.0454ZM396.768 47.0454H394.525V53.0054H396.768H399.01V47.0454H396.768ZM396.768 53.0054V50.763H386.327V53.0054V55.2477H396.768V53.0054ZM386.327 53.0054H384.085V58.1654H386.327H388.57V53.0054H386.327ZM386.327 58.1654V60.4077H395.288V58.1654V55.923H386.327V58.1654ZM395.288 58.1654H393.045V64.1254H395.288H397.53V58.1654H395.288ZM395.288 64.1254V61.883H386.327V64.1254V66.3677H395.288V64.1254ZM386.327 64.1254H384.085V74.0054H386.327H388.57V64.1254H386.327ZM386.327 74.0054V71.763H378.768V74.0054V76.2477H386.327V74.0054ZM396.346 74.0054L394.188 73.397L393.384 76.2477H396.346V74.0054ZM403.946 47.0454V44.803H402.248L401.788 46.437L403.946 47.0454ZM414.106 47.0454L416.259 46.4192L415.789 44.803H414.106V47.0454ZM421.946 74.0054V76.2477H424.933L424.099 73.3792L421.946 74.0054ZM414.386 74.0054L412.211 74.5492L412.635 76.2477H414.386V74.0054ZM413.146 69.0454L415.321 68.5015L414.897 66.803H413.146V69.0454ZM404.906 69.0454V66.803H403.155L402.731 68.5015L404.906 69.0454ZM403.666 74.0054V76.2477H405.417L405.841 74.5492L403.666 74.0054ZM406.186 63.8054L404.011 63.2615L403.314 66.0477H406.186V63.8054ZM411.826 63.8054V66.0477H414.688L414.003 63.2687L411.826 63.8054ZM409.026 52.4454L411.203 51.9087L406.851 51.9015L409.026 52.4454ZM396.346 74.0054L398.504 74.6138L406.104 47.6538L403.946 47.0454L401.788 46.437L394.188 73.397L396.346 74.0054ZM403.946 47.0454V49.2877H414.106V47.0454V44.803H403.946V47.0454ZM414.106 47.0454L411.953 47.6715L419.793 74.6315L421.946 74.0054L424.099 73.3792L416.259 46.4192L414.106 47.0454ZM421.946 74.0054V71.763H414.386V74.0054V76.2477H421.946V74.0054ZM414.386 74.0054L416.561 73.4615L415.321 68.5015L413.146 69.0454L410.971 69.5892L412.211 74.5492L414.386 74.0054ZM413.146 69.0454V66.803H404.906V69.0454V71.2877H413.146V69.0454ZM404.906 69.0454L402.731 68.5015L401.491 73.4615L403.666 74.0054L405.841 74.5492L407.081 69.5892L404.906 69.0454ZM403.666 74.0054V71.763H396.346V74.0054V76.2477H403.666V74.0054ZM406.186 63.8054V66.0477H411.826V63.8054V61.563H406.186V63.8054ZM411.826 63.8054L414.003 63.2687L411.203 51.9087L409.026 52.4454L406.849 52.982L409.649 64.342L411.826 63.8054ZM409.026 52.4454L406.851 51.9015L404.011 63.2615L406.186 63.8054L408.361 64.3492L411.201 52.9892L409.026 52.4454ZM425.807 71.0054L424.105 72.4647L424.113 72.4747L424.122 72.4846L425.807 71.0054ZM425.847 50.0454L424.171 48.5556L424.162 48.5661L425.847 50.0454ZM444.247 50.0454L445.932 48.5661V48.5661L444.247 50.0454ZM443.607 71.1254L442.093 69.4717L439.679 71.6822L442.612 73.1348L443.607 71.1254ZM447.807 73.2054L449.784 74.2647L450.878 72.2237L448.802 71.1959L447.807 73.2054ZM445.127 78.2054L444.073 80.1842L446.047 81.2364L447.104 79.2647L445.127 78.2054ZM437.847 74.3254L438.902 72.3465L438.181 71.9623L437.382 72.1318L437.847 74.3254ZM438.407 66.7254L440.367 67.8144L440.372 67.8053L440.377 67.7961L438.407 66.7254ZM438.407 54.3654L436.437 55.4361L436.442 55.4453L436.447 55.4543L438.407 54.3654ZM431.687 54.3654L433.647 55.4543L433.652 55.4453L433.657 55.4361L431.687 54.3654ZM431.687 66.7254L429.717 67.7961L429.722 67.8053L429.727 67.8144L431.687 66.7254ZM434.887 74.6054V72.363C431.421 72.363 429.075 71.3296 427.492 69.5261L425.807 71.0054L424.122 72.4846C426.752 75.4811 430.46 76.8477 434.887 76.8477V74.6054ZM425.807 71.0054L427.51 69.5461C425.901 67.6691 424.93 64.7752 424.93 60.5254H422.687H420.445C420.445 65.3955 421.553 69.4883 424.105 72.4647L425.807 71.0054ZM422.687 60.5254H424.93C424.93 56.2488 425.914 53.3684 427.532 51.5246L425.847 50.0454L424.162 48.5661C421.567 51.5224 420.445 55.6286 420.445 60.5254H422.687ZM425.847 50.0454L427.523 51.5351C429.127 49.7306 431.526 48.6877 435.087 48.6877V46.4454V44.203C430.595 44.203 426.834 45.5601 424.171 48.5556L425.847 50.0454ZM435.087 46.4454V48.6877C438.618 48.6877 440.985 49.7277 442.562 51.5246L444.247 50.0454L445.932 48.5661C443.296 45.563 439.557 44.203 435.087 44.203V46.4454ZM444.247 50.0454L442.562 51.5246C444.18 53.3684 445.165 56.2488 445.165 60.5254H447.407H449.65C449.65 55.6286 448.527 51.5224 445.932 48.5661L444.247 50.0454ZM447.407 60.5254H445.165C445.165 64.8915 444.006 67.7193 442.093 69.4717L443.607 71.1254L445.122 72.779C448.275 69.8914 449.65 65.6526 449.65 60.5254H447.407ZM443.607 71.1254L442.612 73.1348L446.812 75.2148L447.807 73.2054L448.802 71.1959L444.602 69.1159L443.607 71.1254ZM447.807 73.2054L445.831 72.146L443.151 77.146L445.127 78.2054L447.104 79.2647L449.784 74.2647L447.807 73.2054ZM445.127 78.2054L446.182 76.2265L438.902 72.3465L437.847 74.3254L436.793 76.3042L444.073 80.1842L445.127 78.2054ZM437.847 74.3254L437.382 72.1318C436.683 72.28 435.856 72.363 434.887 72.363V74.6054V76.8477C436.105 76.8477 437.251 76.7441 438.312 76.5189L437.847 74.3254ZM435.047 68.5254V70.7677C437.291 70.7677 439.24 69.8435 440.367 67.8144L438.407 66.7254L436.447 65.6364C436.241 66.0073 435.95 66.283 435.047 66.283V68.5254ZM438.407 66.7254L440.377 67.7961C441.331 66.0421 441.65 63.4838 441.65 60.5254H439.407H437.165C437.165 63.3802 436.817 64.9553 436.437 65.6546L438.407 66.7254ZM439.407 60.5254H441.65C441.65 57.5743 441.333 55.0145 440.367 53.2764L438.407 54.3654L436.447 55.4543C436.815 56.1162 437.165 57.6631 437.165 60.5254H439.407ZM438.407 54.3654L440.377 53.2946C439.261 51.2407 437.315 50.283 435.047 50.283V52.5254V54.7677C435.926 54.7677 436.22 55.0367 436.437 55.4361L438.407 54.3654ZM435.047 52.5254V50.283C432.779 50.283 430.833 51.2407 429.717 53.2946L431.687 54.3654L433.657 55.4361C433.874 55.0367 434.169 54.7677 435.047 54.7677V52.5254ZM431.687 54.3654L429.727 53.2764C428.761 55.0145 428.445 57.5743 428.445 60.5254H430.687H432.93C432.93 57.6631 433.28 56.1162 433.647 55.4543L431.687 54.3654ZM430.687 60.5254H428.445C428.445 63.4838 428.764 66.0421 429.717 67.7961L431.687 66.7254L433.657 65.6546C433.277 64.9553 432.93 63.3802 432.93 60.5254H430.687ZM431.687 66.7254L429.727 67.8144C430.854 69.8435 432.803 70.7677 435.047 70.7677V68.5254V66.283C434.145 66.283 433.853 66.0073 433.647 65.6364L431.687 66.7254ZM449.855 58.9654L447.627 58.7112L447.342 61.2077H449.855V58.9654ZM451.215 47.0454V44.803H449.214L448.987 46.7912L451.215 47.0454ZM458.655 47.0454L460.817 47.6403L461.598 44.803H458.655V47.0454ZM455.375 58.9654V61.2077H457.084L457.537 59.5603L455.375 58.9654ZM449.855 58.9654L452.083 59.2196L453.443 47.2996L451.215 47.0454L448.987 46.7912L447.627 58.7112L449.855 58.9654ZM451.215 47.0454V49.2877H458.655V47.0454V44.803H451.215V47.0454ZM458.655 47.0454L456.493 46.4505L453.213 58.3705L455.375 58.9654L457.537 59.5603L460.817 47.6403L458.655 47.0454ZM455.375 58.9654V56.723H449.855V58.9654V61.2077H455.375V58.9654ZM460.814 73.0454L458.633 72.5226L458.179 74.4175L459.992 75.1317L460.814 73.0454ZM462.214 67.2054L463.019 65.1125L460.63 64.1937L460.033 66.6826L462.214 67.2054ZM465.534 68.1654L465.084 70.3622L465.113 70.368L465.141 70.3731L465.534 68.1654ZM472.214 67.8854L471.093 65.9431L471.077 65.9527L471.06 65.9626L472.214 67.8854ZM471.414 63.9254L470.969 66.1232L470.976 66.1246L470.983 66.126L471.414 63.9254ZM467.854 63.2054L467.404 65.4021L467.409 65.4032L467.854 63.2054ZM463.934 48.8054L465.389 50.5114L465.396 50.5053L465.403 50.4991L463.934 48.8054ZM479.894 47.8854L482.068 48.4328L482.552 46.51L480.703 45.7942L479.894 47.8854ZM478.454 53.6054L477.637 55.6935L480.007 56.621L480.628 54.1528L478.454 53.6054ZM470.414 56.8854L470.848 54.6855L470.839 54.6836L470.83 54.6819L470.414 56.8854ZM473.454 57.4854L473.907 55.2894L473.898 55.2874L473.888 55.2855L473.454 57.4854ZM478.854 60.2054L477.168 61.6844L477.177 61.694L477.185 61.7035L478.854 60.2054ZM477.894 72.4054L479.304 74.1488L479.312 74.1426L479.319 74.1363L477.894 72.4054ZM469.534 74.6054V72.363C466.609 72.363 463.985 71.8845 461.636 70.9591L460.814 73.0454L459.992 75.1317C462.923 76.2863 466.112 76.8477 469.534 76.8477V74.6054ZM460.814 73.0454L462.994 73.5681L464.394 67.7281L462.214 67.2054L460.033 66.6826L458.633 72.5226L460.814 73.0454ZM462.214 67.2054L461.409 69.2983C462.572 69.7458 463.799 70.0993 465.084 70.3622L465.534 68.1654L465.983 65.9685C464.922 65.7515 463.935 65.4649 463.019 65.1125L462.214 67.2054ZM465.534 68.1654L465.141 70.3731C466.449 70.6057 467.702 70.7277 468.894 70.7277V68.4854V66.243C468.005 66.243 467.018 66.1518 465.926 65.9576L465.534 68.1654ZM468.894 68.4854V70.7277C470.517 70.7277 472.15 70.5389 473.367 69.8082L472.214 67.8854L471.06 65.9626C470.945 66.0318 470.364 66.243 468.894 66.243V68.4854ZM472.214 67.8854L473.334 69.8277C474.826 68.9672 475.496 67.5056 475.496 65.9254H473.254H471.011C471.011 66.0099 471.003 66.0558 471 66.0714C470.997 66.0854 470.998 66.0727 471.013 66.0443C471.02 66.0308 471.029 66.0161 471.04 66.0011C471.051 65.9862 471.062 65.9732 471.073 65.9624C471.095 65.9399 471.107 65.9354 471.093 65.9431L472.214 67.8854ZM473.254 65.9254H475.496C475.496 64.9391 475.207 63.9167 474.444 63.0872C473.711 62.2909 472.752 61.9024 471.844 61.7247L471.414 63.9254L470.983 66.126C471.136 66.1559 471.209 66.1876 471.228 66.1968C471.242 66.2038 471.201 66.1857 471.144 66.1236C471.116 66.0936 471.09 66.0591 471.068 66.0217C471.046 65.9844 471.031 65.9504 471.021 65.9233C471.002 65.8689 471.011 65.8607 471.011 65.9254H473.254ZM471.414 63.9254L471.858 61.7275L468.298 61.0075L467.854 63.2054L467.409 65.4032L470.969 66.1232L471.414 63.9254ZM467.854 63.2054L468.304 61.0086C466.434 60.6257 465.288 59.9295 464.596 59.099C463.909 58.2754 463.456 57.0672 463.456 55.2454H461.214H458.971C458.971 57.8236 459.626 60.142 461.152 61.9717C462.672 63.7946 464.847 64.8784 467.404 65.4021L467.854 63.2054ZM461.214 55.2454H463.456C463.456 53.0439 464.154 51.5647 465.389 50.5114L463.934 48.8054L462.479 47.0993C460.087 49.1393 458.971 51.9536 458.971 55.2454H461.214ZM463.934 48.8054L465.403 50.4991C466.693 49.3802 468.604 48.6877 471.414 48.6877V46.4454V44.203C467.877 44.203 464.801 45.0839 462.464 47.1117L463.934 48.8054ZM471.414 46.4454V48.6877C474.363 48.6877 476.907 49.1337 479.084 49.9765L479.894 47.8854L480.703 45.7942C477.92 44.717 474.812 44.203 471.414 44.203V46.4454ZM479.894 47.8854L477.719 47.3379L476.279 53.0579L478.454 53.6054L480.628 54.1528L482.068 48.4328L479.894 47.8854ZM478.454 53.6054L479.271 51.5172C477.113 50.673 474.665 50.283 471.974 50.283V52.5254V54.7677C474.243 54.7677 476.114 55.0978 477.637 55.6935L478.454 53.6054ZM471.974 52.5254V50.283C470.588 50.283 469.17 50.4845 468.033 51.1892C466.718 52.0038 466.051 53.3192 466.051 54.8054H468.294H470.536C470.536 54.7315 470.549 54.7761 470.498 54.8703C470.445 54.9696 470.383 55.0089 470.395 55.0015C470.422 54.9848 470.541 54.9209 470.817 54.8639C471.091 54.8074 471.469 54.7677 471.974 54.7677V52.5254ZM468.294 54.8054H466.051C466.051 55.8811 466.412 56.9407 467.253 57.766C468.037 58.5346 469.043 58.9086 469.998 59.0888L470.414 56.8854L470.83 54.6819C470.612 54.6409 470.481 54.5941 470.411 54.5627C470.345 54.5325 470.354 54.5249 470.394 54.5648C470.44 54.6099 470.487 54.6767 470.516 54.7512C470.542 54.8201 470.536 54.8484 470.536 54.8054H468.294ZM470.414 56.8854L469.98 59.0853L473.02 59.6853L473.454 57.4854L473.888 55.2855L470.848 54.6855L470.414 56.8854ZM473.454 57.4854L473 59.6814C475.179 60.1314 476.458 60.8747 477.168 61.6844L478.854 60.2054L480.539 58.7263C478.956 56.9227 476.635 55.8527 473.907 55.2894L473.454 57.4854ZM478.854 60.2054L477.185 61.7035C477.888 62.4858 478.371 63.6919 478.371 65.6054H480.614H482.856C482.856 62.9322 482.166 60.5383 480.522 58.7072L478.854 60.2054ZM480.614 65.6054H478.371C478.371 68.1878 477.62 69.7259 476.468 70.6744L477.894 72.4054L479.319 74.1363C481.794 72.0982 482.856 69.103 482.856 65.6054H480.614ZM477.894 72.4054L476.484 70.6619C475.249 71.6603 473.073 72.363 469.534 72.363V74.6054V76.8477C473.514 76.8477 476.912 76.0838 479.304 74.1488L477.894 72.4054Z" fill="#3B3B3B" mask="url(#path-5-outside-1_1485_9518)"/>
</g>
<defs>
<filter id="filter0_d_1485_9518" x="0.795898" y="0.792969" width="856.326" height="150.042" filterUnits="userSpaceOnUse" color-interpolation-filters="sRGB">
<feFlood flood-opacity="0" result="BackgroundImageFix"/>
<feColorMatrix in="SourceAlpha" type="matrix" values="0 0 0 0 0 0 0 0 0 0 0 0 0 0 0 0 0 0 127 0" result="hardAlpha"/>
<feOffset dy="8.82814"/>
<feComposite in2="hardAlpha" operator="out"/>
<feColorMatrix type="matrix" values="0 0 0 0 0 0 0 0 0 0 0 0 0 0 0 0 0 0 0.25 0"/>
<feBlend mode="normal" in2="BackgroundImageFix" result="effect1_dropShadow_1485_9518"/>
<feBlend mode="normal" in="SourceGraphic" in2="effect1_dropShadow_1485_9518" result="shape"/>
</filter>
<filter id="filter1_ddd_1485_9518" x="370.92" y="42.5214" width="117.543" height="48.2449" filterUnits="userSpaceOnUse" color-interpolation-filters="sRGB">
<feFlood flood-opacity="0" result="BackgroundImageFix"/>
<feColorMatrix in="SourceAlpha" type="matrix" values="0 0 0 0 0 0 0 0 0 0 0 0 0 0 0 0 0 0 127 0" result="hardAlpha"/>
<feOffset dy="2.20703"/>
<feComposite in2="hardAlpha" operator="out"/>
<feColorMatrix type="matrix" values="0 0 0 0 0 0 0 0 0 0 0 0 0 0 0 0 0 0 1 0"/>
<feBlend mode="normal" in2="BackgroundImageFix" result="effect1_dropShadow_1485_9518"/>
<feColorMatrix in="SourceAlpha" type="matrix" values="0 0 0 0 0 0 0 0 0 0 0 0 0 0 0 0 0 0 127 0" result="hardAlpha"/>
<feOffset dy="2.20703"/>
<feComposite in2="hardAlpha" operator="out"/>
<feColorMatrix type="matrix" values="0 0 0 0 0 0 0 0 0 0 0 0 0 0 0 0 0 0 1 0"/>
<feBlend mode="normal" in2="effect1_dropShadow_1485_9518" result="effect2_dropShadow_1485_9518"/>
<feColorMatrix in="SourceAlpha" type="matrix" values="0 0 0 0 0 0 0 0 0 0 0 0 0 0 0 0 0 0 127 0" result="hardAlpha"/>
<feOffset dy="3.92411"/>
<feGaussianBlur stdDeviation="2.80293"/>
<feComposite in2="hardAlpha" operator="out"/>
<feColorMatrix type="matrix" values="0 0 0 0 0 0 0 0 0 0 0 0 0 0 0 0 0 0 0.8 0"/>
<feBlend mode="normal" in2="effect2_dropShadow_1485_9518" result="effect3_dropShadow_1485_9518"/>
<feBlend mode="normal" in="SourceGraphic" in2="effect3_dropShadow_1485_9518" result="shape"/>
</filter>
<linearGradient id="paint0_linear_1485_9518" x1="3.02149" y1="59.7657" x2="854.895" y2="59.7656" gradientUnits="userSpaceOnUse">
<stop stop-color="#4B42A2"/>
<stop offset="0.475" stop-color="#8383FF"/>
<stop offset="1" stop-color="#4C43A3"/>
</linearGradient>
<radialGradient id="paint1_radial_1485_9518" cx="0" cy="0" r="1" gradientUnits="userSpaceOnUse" gradientTransform="translate(428.958 82.9641) rotate(-90) scale(95.1863 2485.74)">
<stop offset="0.431628" stop-color="white" stop-opacity="0.26"/>
<stop offset="1" stop-color="white"/>
</radialGradient>
</defs>
</svg>
