<svg width="304" height="431" viewBox="0 0 304 431" fill="none" xmlns="http://www.w3.org/2000/svg">
<g style="mix-blend-mode:multiply" opacity="0.5">
<path d="M237.876 404.697C236.076 408.784 237.624 413.422 241.334 415.056C245.043 416.69 249.51 414.702 251.31 410.615C253.111 406.529 251.563 401.891 247.853 400.257C244.144 398.622 239.677 400.611 237.876 404.697Z" fill="#F5D95C"/>
<path d="M226.5 410.039C224.779 413.947 226.269 418.358 229.795 419.912C233.322 421.466 237.593 419.564 239.305 415.68C241.016 411.795 239.536 407.36 236.009 405.807C232.483 404.253 228.212 406.154 226.5 410.039Z" fill="#F5D95C"/>
<path d="M245.319 387.294C243.469 391.496 245.06 396.264 248.874 397.945C252.688 399.625 257.28 397.581 259.131 393.379C260.982 389.178 259.391 384.409 255.577 382.729C251.763 381.049 247.17 383.093 245.319 387.294Z" fill="#F5D95C"/>
<path d="M233.942 392.637C232.169 396.661 233.703 401.202 237.334 402.802C240.966 404.401 245.362 402.445 247.124 398.444C248.886 394.444 247.363 389.88 243.732 388.28C240.1 386.68 235.704 388.637 233.942 392.637Z" fill="#F5D95C"/>
<path d="M222.281 397.827C220.509 401.85 222.042 406.391 225.674 407.991C229.305 409.591 233.701 407.634 235.463 403.634C237.226 399.633 235.702 395.069 232.071 393.469C228.44 391.87 224.044 393.826 222.281 397.827Z" fill="#F5D95C"/>
<path d="M210.904 403.17C209.223 406.985 210.661 411.346 214.145 412.881C217.63 414.416 221.808 412.557 223.499 408.718C225.19 404.88 223.742 400.542 220.257 399.007C216.773 397.472 212.595 399.331 210.904 403.17Z" fill="#F5D95C"/>
<path d="M252.907 369.956C251.053 374.165 252.652 378.956 256.473 380.639C260.293 382.322 264.907 380.268 266.761 376.06C268.615 371.851 267.016 367.06 263.196 365.377C259.376 363.694 254.761 365.748 252.907 369.956Z" fill="#F5D95C"/>
<path d="M241.361 375.226C239.538 379.365 241.094 384.082 244.872 385.747C248.651 387.411 253.172 385.399 255.005 381.237C256.839 377.075 255.272 372.381 251.494 370.716C247.716 369.052 243.195 371.064 241.361 375.226Z" fill="#F5D95C"/>
<path d="M229.786 380.452C227.985 384.539 229.533 389.176 233.243 390.811C236.953 392.445 241.419 390.457 243.22 386.37C245.02 382.284 243.472 377.646 239.762 376.012C236.053 374.377 231.586 376.365 229.786 380.452Z" fill="#F5D95C"/>
<path d="M218.408 385.795C216.687 389.703 218.177 394.114 221.704 395.668C225.23 397.221 229.501 395.32 231.213 391.436C232.924 387.551 231.444 383.116 227.918 381.562C224.391 380.009 220.12 381.91 218.408 385.795Z" fill="#F5D95C"/>
<path d="M206.958 391.076C205.297 394.845 206.724 399.118 210.145 400.625C213.567 402.132 217.682 400.301 219.343 396.531C221.003 392.762 219.577 388.489 216.155 386.982C212.734 385.475 208.618 387.306 206.958 391.076Z" fill="#F5D95C"/>
<path d="M195.391 396.336C193.761 400.036 195.175 404.221 198.513 405.691C201.85 407.161 205.904 405.357 207.523 401.681C209.143 398.004 207.738 393.796 204.401 392.326C201.063 390.855 197.01 392.659 195.391 396.336Z" fill="#F5D95C"/>
<path d="M260.725 352.72C258.912 356.836 260.468 361.498 264.204 363.144C267.94 364.79 272.43 362.791 274.243 358.675C276.057 354.559 274.501 349.898 270.764 348.252C267.028 346.606 262.538 348.604 260.725 352.72Z" fill="#F5D95C"/>
<path d="M249.053 357.933C247.24 362.049 248.796 366.71 252.532 368.356C256.269 370.002 260.758 368.004 262.571 363.888C264.385 359.772 262.829 355.111 259.093 353.465C255.356 351.819 250.867 353.817 249.053 357.933Z" fill="#F5D95C"/>
<path d="M237.373 363.113C235.559 367.229 237.115 371.89 240.851 373.536C244.588 375.182 249.077 373.184 250.891 369.068C252.704 364.952 251.148 360.29 247.412 358.644C243.675 356.998 239.186 358.997 237.373 363.113Z" fill="#F5D95C"/>
<path d="M225.87 368.4C224.109 372.397 225.623 376.934 229.252 378.532C232.88 380.131 237.249 378.186 239.01 374.189C240.771 370.192 239.257 365.655 235.629 364.057C232 362.458 227.631 364.403 225.87 368.4Z" fill="#F5D95C"/>
<path d="M213.785 376.578C213.557 380.704 216.5 384.008 220.359 383.957C224.218 383.906 227.532 380.52 227.76 376.395C227.989 372.269 225.045 368.965 221.186 369.016C217.327 369.066 214.014 372.452 213.785 376.578Z" fill="#F5D95C"/>
<path d="M202.895 378.961C201.234 382.73 202.661 387.003 206.082 388.511C209.504 390.018 213.619 388.186 215.28 384.417C216.94 380.648 215.514 376.375 212.092 374.868C208.671 373.36 204.555 375.192 202.895 378.961Z" fill="#F5D95C"/>
<path d="M191.487 384.261C189.888 387.892 191.27 391.98 194.545 393.422C197.819 394.865 201.779 393.102 203.368 389.495C204.957 385.888 203.585 381.777 200.311 380.334C197.036 378.892 193.076 380.654 191.487 384.261Z" fill="#F5D95C"/>
<path d="M180.131 389.611C178.623 393.033 179.93 396.895 183.016 398.254C186.101 399.613 189.843 397.948 191.34 394.549C192.838 391.15 191.541 387.265 188.456 385.906C185.37 384.547 181.629 386.212 180.131 389.611Z" fill="#F5D95C"/>
<path d="M268.574 335.525C266.825 339.496 268.329 344.004 271.934 345.592C275.54 347.18 279.881 345.248 281.631 341.276C283.38 337.305 281.876 332.797 278.271 331.209C274.665 329.621 270.324 331.553 268.574 335.525Z" fill="#F5D95C"/>
<path d="M256.978 340.743C255.256 344.651 256.726 349.109 260.295 350.681C263.863 352.253 268.135 350.352 269.866 346.421C271.598 342.49 270.118 338.055 266.549 336.483C262.981 334.911 258.71 336.812 256.978 340.743Z" fill="#F5D95C"/>
<path d="M245.13 345.85C243.357 349.873 244.871 354.461 248.544 356.079C252.217 357.697 256.613 355.74 258.396 351.694C260.179 347.647 258.656 343.083 254.982 341.465C251.309 339.846 246.913 341.803 245.13 345.85Z" fill="#F5D95C"/>
<path d="M233.541 351.099C231.789 355.076 233.291 359.576 236.901 361.166C240.512 362.757 244.845 360.828 246.598 356.851C248.35 352.873 246.848 348.374 243.237 346.783C239.627 345.193 235.293 347.122 233.541 351.099Z" fill="#F5D95C"/>
<path d="M222.091 356.381C220.398 360.225 221.854 364.587 225.343 366.124C228.833 367.662 233.034 365.792 234.728 361.948C236.421 358.103 234.965 353.741 231.476 352.204C227.986 350.667 223.785 352.537 222.091 356.381Z" fill="#F5D95C"/>
<path d="M210.422 361.595C208.729 365.439 210.185 369.801 213.674 371.338C217.164 372.875 221.365 371.005 223.059 367.161C224.752 363.317 223.296 358.955 219.807 357.418C216.317 355.881 212.116 357.751 210.422 361.595Z" fill="#F5D95C"/>
<path d="M199.011 366.895C197.391 370.571 198.785 374.747 202.123 376.218C205.46 377.688 209.482 375.898 211.102 372.221C212.722 368.544 211.328 364.369 207.99 362.898C204.653 361.428 200.631 363.218 199.011 366.895Z" fill="#F5D95C"/>
<path d="M187.656 372.246C186.12 375.733 187.441 379.689 190.605 381.083C193.77 382.478 197.581 380.782 199.117 377.295C200.653 373.809 199.332 369.852 196.167 368.458C193.003 367.064 189.192 368.76 187.656 372.246Z" fill="#F5D95C"/>
<path d="M176.249 377.548C174.782 380.878 176.035 384.633 179.058 385.965C182.08 387.296 185.697 385.687 187.164 382.357C188.631 379.027 187.378 375.272 184.355 373.94C181.332 372.609 177.716 374.219 176.249 377.548Z" fill="#F5D95C"/>
<path d="M164.703 382.816C163.277 386.054 164.509 389.744 167.447 391.039C170.386 392.333 173.94 390.751 175.367 387.514C176.793 384.277 175.561 380.586 172.622 379.292C169.684 377.997 166.129 379.579 164.703 382.816Z" fill="#F5D95C"/>
<path d="M276.624 318.39C274.987 322.106 276.395 326.324 279.768 327.81C283.142 329.296 287.204 327.488 288.841 323.772C290.478 320.056 289.07 315.838 285.697 314.352C282.323 312.866 278.261 314.674 276.624 318.39Z" fill="#F5D95C"/>
<path d="M264.797 323.506C263.12 327.312 264.562 331.631 268.017 333.153C271.471 334.675 275.631 332.824 277.308 329.018C278.984 325.212 277.543 320.893 274.088 319.371C270.633 317.849 266.474 319.701 264.797 323.506Z" fill="#F5D95C"/>
<path d="M252.937 328.636C251.215 332.544 252.685 337.002 256.254 338.574C259.822 340.146 264.094 338.245 265.825 334.314C267.557 330.383 266.077 325.948 262.508 324.376C258.94 322.804 254.669 324.705 252.937 328.636Z" fill="#F5D95C"/>
<path d="M241.404 333.882C239.716 337.713 241.167 342.061 244.645 343.593C248.123 345.125 252.31 343.262 253.998 339.43C255.686 335.599 254.235 331.251 250.757 329.719C247.279 328.187 243.091 330.051 241.404 333.882Z" fill="#F5D95C"/>
<path d="M229.804 339.099C228.134 342.891 229.571 347.196 233.013 348.713C236.456 350.229 240.602 348.384 242.273 344.591C243.943 340.799 242.507 336.494 239.064 334.977C235.622 333.461 231.475 335.306 229.804 339.099Z" fill="#F5D95C"/>
<path d="M218.052 344.275C216.359 348.119 217.815 352.482 221.304 354.019C224.794 355.556 228.995 353.686 230.689 349.842C232.382 345.998 230.926 341.636 227.437 340.098C223.947 338.561 219.746 340.431 218.052 344.275Z" fill="#F5D95C"/>
<path d="M206.622 349.566C204.992 353.266 206.406 357.451 209.744 358.922C213.081 360.392 217.135 358.588 218.754 354.911C220.374 351.235 218.969 347.026 215.632 345.556C212.294 344.086 208.241 345.89 206.622 349.566Z" fill="#F5D95C"/>
<path d="M195.18 354.881C193.622 358.419 194.951 362.456 198.184 363.88C201.416 365.304 205.282 363.583 206.851 360.022C208.42 356.461 207.08 352.447 203.848 351.023C200.615 349.599 196.749 351.32 195.18 354.881Z" fill="#F5D95C"/>
<path d="M183.794 360.19C182.309 363.561 183.586 367.388 186.646 368.736C189.707 370.084 193.392 368.444 194.877 365.072C196.362 361.701 195.085 357.875 192.025 356.527C188.964 355.178 185.279 356.818 183.794 360.19Z" fill="#F5D95C"/>
<path d="M172.207 365.441C170.74 368.771 171.994 372.526 175.016 373.857C178.039 375.189 181.655 373.579 183.122 370.249C184.589 366.92 183.336 363.165 180.313 361.833C177.291 360.501 173.674 362.111 172.207 365.441Z" fill="#F5D95C"/>
<path d="M160.842 370.76C159.463 373.889 160.648 377.44 163.489 378.691C166.329 379.942 169.749 378.42 171.127 375.291C172.506 372.162 171.321 368.612 168.48 367.36C165.64 366.109 162.22 367.631 160.842 370.76Z" fill="#F5D95C"/>
<path d="M149.506 376.122C148.212 379.058 149.335 382.369 151.98 383.535C154.624 384.7 157.836 383.27 159.119 380.357C160.403 377.443 159.29 374.109 156.645 372.944C154 371.779 150.789 373.208 149.506 376.122Z" fill="#F5D95C"/>
<path d="M284.527 301.19C282.968 304.728 284.298 308.765 287.53 310.189C290.763 311.613 294.629 309.893 296.198 306.332C297.767 302.771 296.427 298.757 293.194 297.333C289.962 295.909 286.096 297.629 284.527 301.19Z" fill="#F5D95C"/>
<path d="M272.931 306.409C271.382 309.924 272.711 313.905 275.902 315.311C279.092 316.716 282.927 315.01 284.475 311.495C286.024 307.98 284.695 303.998 281.504 302.593C278.314 301.187 274.479 302.894 272.931 306.409Z" fill="#F5D95C"/>
<path d="M261.008 311.51C259.399 315.162 260.782 319.307 264.098 320.768C267.414 322.228 271.406 320.451 273.015 316.799C274.624 313.146 273.24 309.001 269.925 307.541C266.609 306.08 262.617 307.857 261.008 311.51Z" fill="#F5D95C"/>
<path d="M249.201 316.635C247.558 320.364 248.97 324.596 252.356 326.087C255.741 327.579 259.817 325.764 261.46 322.035C263.102 318.306 261.69 314.074 258.305 312.583C254.92 311.092 250.844 312.906 249.201 316.635Z" fill="#F5D95C"/>
<path d="M237.551 321.857C235.914 325.573 237.322 329.791 240.695 331.277C244.069 332.763 248.131 330.955 249.768 327.239C251.405 323.522 249.998 319.305 246.624 317.819C243.251 316.333 239.189 318.141 237.551 321.857Z" fill="#F5D95C"/>
<path d="M225.492 328.168C224.419 332.075 226.462 335.947 230.055 336.816C233.648 337.685 237.43 335.222 238.503 331.315C239.576 327.408 237.534 323.536 233.941 322.667C230.348 321.798 226.565 324.261 225.492 328.168Z" fill="#F5D95C"/>
<path d="M214.336 332.283C212.736 335.914 214.119 340.057 217.415 341.509C220.71 342.961 224.701 341.185 226.3 337.554C227.9 333.924 226.517 329.78 223.221 328.328C219.926 326.877 215.935 328.653 214.336 332.283Z" fill="#F5D95C"/>
<path d="M202.853 337.581C201.305 341.096 202.645 345.11 205.835 346.516C209.026 347.921 212.892 346.201 214.44 342.686C215.989 339.171 214.649 335.157 211.458 333.751C208.268 332.346 204.402 334.067 202.853 337.581Z" fill="#F5D95C"/>
<path d="M191.424 342.872C189.939 346.243 191.216 350.069 194.276 351.417C197.337 352.766 201.022 351.126 202.507 347.754C203.992 344.383 202.715 340.556 199.655 339.208C196.594 337.86 192.909 339.5 191.424 342.872Z" fill="#F5D95C"/>
<path d="M179.753 348.084C178.268 351.456 179.545 355.282 182.605 356.63C185.666 357.979 189.351 356.338 190.836 352.967C192.321 349.595 191.044 345.769 187.984 344.421C184.923 343.073 181.238 344.713 179.753 348.084Z" fill="#F5D95C"/>
<path d="M168.367 353.394C166.961 356.586 168.17 360.21 171.068 361.486C173.966 362.763 177.456 361.21 178.862 358.017C180.269 354.825 179.06 351.201 176.161 349.925C173.263 348.648 169.774 350.201 168.367 353.394Z" fill="#F5D95C"/>
<path d="M157.052 358.763C155.738 361.746 156.882 365.122 159.569 366.306C162.256 367.489 165.53 366.032 166.833 363.072C168.137 360.113 167.003 356.714 164.316 355.53C161.629 354.346 158.356 355.803 157.052 358.763Z" fill="#F5D95C"/>
<path d="M145.37 363.945C144.056 366.928 145.201 370.304 147.887 371.487C150.574 372.671 153.848 371.214 155.152 368.254C156.456 365.294 155.321 361.895 152.635 360.712C149.948 359.528 146.674 360.985 145.37 363.945Z" fill="#F5D95C"/>
<path d="M134.119 369.342C132.917 372.071 133.943 375.146 136.42 376.237C138.897 377.329 141.859 376.01 143.061 373.282C144.263 370.553 143.236 367.478 140.759 366.387C138.283 365.296 135.321 366.614 134.119 369.342Z" fill="#F5D95C"/>
<path d="M292.726 284.121C291.31 287.335 292.52 290.961 295.437 292.246C298.355 293.531 301.847 291.977 303.263 288.763C304.679 285.549 303.469 281.923 300.551 280.638C297.633 279.353 294.142 280.907 292.726 284.121Z" fill="#F5D95C"/>
<path d="M280.812 289.201C279.335 292.554 280.61 296.374 283.653 297.714C286.697 299.055 290.376 297.418 291.853 294.065C293.33 290.712 292.055 286.892 289.012 285.551C285.968 284.211 282.289 285.848 280.812 289.201Z" fill="#F5D95C"/>
<path d="M268.869 294.294C267.322 297.806 268.653 301.791 271.841 303.196C275.029 304.6 278.867 302.892 280.414 299.38C281.962 295.868 280.631 291.882 277.443 290.478C274.255 289.073 270.417 290.782 268.869 294.294Z" fill="#F5D95C"/>
<path d="M257.293 299.52C255.775 302.966 257.082 306.883 260.21 308.261C263.338 309.638 267.11 307.959 268.628 304.514C270.146 301.068 268.839 297.152 265.711 295.774C262.583 294.396 258.811 296.075 257.293 299.52Z" fill="#F5D95C"/>
<path d="M245.56 304.704C244.024 308.191 245.344 312.147 248.509 313.541C251.674 314.936 255.485 313.24 257.021 309.753C258.557 306.267 257.236 302.31 254.071 300.916C250.906 299.522 247.096 301.218 245.56 304.704Z" fill="#F5D95C"/>
<path d="M233.667 309.792C232.068 313.422 233.45 317.51 236.725 318.953C240 320.395 243.959 318.633 245.548 315.025C247.137 311.418 245.765 307.307 242.491 305.864C239.216 304.422 235.257 306.184 233.667 309.792Z" fill="#F5D95C"/>
<path d="M222.058 315.033C220.479 318.618 221.85 322.673 225.083 324.097C228.316 325.521 232.244 323.773 233.813 320.212C235.382 316.651 234.02 312.572 230.788 311.148C227.555 309.724 223.627 311.472 222.058 315.033Z" fill="#F5D95C"/>
<path d="M210.631 320.323C209.123 323.746 210.409 327.653 213.537 329.031C216.665 330.409 220.406 328.744 221.924 325.298C223.442 321.853 222.145 317.968 219.018 316.591C215.89 315.213 212.149 316.878 210.631 320.323Z" fill="#F5D95C"/>
<path d="M199.117 325.579C197.65 328.909 198.914 332.697 201.937 334.028C204.959 335.36 208.607 333.736 210.074 330.406C211.541 327.077 210.277 323.289 207.254 321.958C204.232 320.626 200.584 322.25 199.117 325.579Z" fill="#F5D95C"/>
<path d="M187.383 330.764C185.898 334.136 187.175 337.962 190.236 339.31C193.296 340.658 196.981 339.018 198.466 335.647C199.952 332.275 198.675 328.449 195.614 327.101C192.554 325.752 188.869 327.393 187.383 330.764Z" fill="#F5D95C"/>
<path d="M176.017 336.085C174.611 339.276 175.821 342.902 178.718 344.178C181.615 345.454 185.107 343.9 186.512 340.709C187.918 337.518 186.708 333.892 183.811 332.616C180.915 331.34 177.423 332.894 176.017 336.085Z" fill="#F5D95C"/>
<path d="M164.64 341.427C163.318 344.428 164.454 347.834 167.179 349.034C169.903 350.234 173.183 348.774 174.506 345.773C175.828 342.772 174.691 339.366 171.967 338.166C169.242 336.966 165.962 338.426 164.64 341.427Z" fill="#F5D95C"/>
<path d="M153 346.625C151.686 349.608 152.831 352.984 155.518 354.168C158.205 355.352 161.478 353.895 162.782 350.935C164.086 347.975 162.952 344.576 160.265 343.392C157.578 342.209 154.304 343.666 153 346.625Z" fill="#F5D95C"/>
<path d="M141.665 351.985C140.442 354.76 141.49 357.9 144.009 359.01C146.528 360.119 149.552 358.773 150.775 355.998C151.997 353.223 150.949 350.083 148.43 348.974C145.911 347.864 142.887 349.21 141.665 351.985Z" fill="#F5D95C"/>
<path d="M130.078 358.108C129.337 360.806 130.747 363.481 133.229 364.081C135.71 364.682 138.323 362.981 139.065 360.283C139.807 357.584 138.396 354.91 135.914 354.309C133.433 353.709 130.82 355.409 130.078 358.108Z" fill="#F5D95C"/>
<path d="M118.712 362.555C117.602 365.076 118.563 367.957 120.851 368.965C123.139 369.973 125.914 368.738 127.024 366.217C128.135 363.697 127.173 360.816 124.885 359.808C122.597 358.8 119.822 360.035 118.712 362.555Z" fill="#F5D95C"/>
<path d="M300.669 266.94C299.341 269.954 300.483 273.374 303.219 274.58C305.955 275.785 309.249 274.319 310.577 271.305C311.905 268.291 310.763 264.871 308.027 263.665C305.291 262.46 301.997 263.926 300.669 266.94Z" fill="#F5D95C"/>
<path d="M288.737 272.009C287.341 275.177 288.54 278.771 291.416 280.037C294.292 281.304 297.752 279.764 299.148 276.596C300.544 273.428 299.344 269.835 296.469 268.568C293.593 267.301 290.132 268.841 288.737 272.009Z" fill="#F5D95C"/>
<path d="M277.066 277.222C275.67 280.39 276.869 283.983 279.745 285.25C282.621 286.517 286.081 284.977 287.477 281.809C288.873 278.641 287.673 275.048 284.798 273.781C281.922 272.514 278.461 274.054 277.066 277.222Z" fill="#F5D95C"/>
<path d="M265.216 282.329C263.77 285.613 265.012 289.336 267.993 290.649C270.974 291.962 274.559 290.366 276.006 287.082C277.452 283.799 276.21 280.076 273.229 278.763C270.248 277.45 266.663 279.046 265.216 282.329Z" fill="#F5D95C"/>
<path d="M253.056 288.504C252.087 292.035 253.933 295.534 257.18 296.32C260.428 297.105 263.846 294.879 264.816 291.348C265.786 287.817 263.939 284.318 260.692 283.532C257.445 282.747 254.026 284.973 253.056 288.504Z" fill="#F5D95C"/>
<path d="M241.738 292.666C240.261 296.019 241.536 299.838 244.58 301.179C247.623 302.52 251.302 300.883 252.779 297.53C254.256 294.177 252.982 290.357 249.938 289.016C246.894 287.675 243.215 289.313 241.738 292.666Z" fill="#F5D95C"/>
<path d="M230.027 297.862C228.54 301.238 229.814 305.058 232.879 306.408C235.944 307.758 239.623 306.12 241.11 302.744C242.597 299.368 241.322 295.548 238.258 294.198C235.193 292.848 231.514 294.486 230.027 297.862Z" fill="#F5D95C"/>
<path d="M218.387 303.061C216.907 306.42 218.179 310.232 221.228 311.575C224.277 312.918 227.948 311.284 229.428 307.925C230.907 304.567 229.635 300.755 226.586 299.412C223.537 298.069 219.866 299.702 218.387 303.061Z" fill="#F5D95C"/>
<path d="M206.863 308.339C205.428 311.595 206.661 315.291 209.618 316.593C212.574 317.896 216.133 316.311 217.568 313.055C219.003 309.798 217.769 306.102 214.813 304.8C211.857 303.498 208.297 305.082 206.863 308.339Z" fill="#F5D95C"/>
<path d="M195.202 313.528C193.768 316.785 195.001 320.48 197.957 321.783C200.914 323.085 204.473 321.501 205.908 318.244C207.342 314.988 206.109 311.292 203.153 309.99C200.197 308.687 196.637 310.272 195.202 313.528Z" fill="#F5D95C"/>
<path d="M183.709 318.793C182.323 321.938 183.501 325.522 186.377 326.788C189.253 328.055 192.682 326.529 194.078 323.361C195.474 320.193 194.285 316.632 191.41 315.365C188.534 314.098 185.104 315.625 183.709 318.793Z" fill="#F5D95C"/>
<path d="M172.269 324.105C170.945 327.112 172.079 330.51 174.808 331.713C177.537 332.915 180.811 331.458 182.135 328.452C183.459 325.446 182.325 322.047 179.596 320.844C176.867 319.642 173.594 321.099 172.269 324.105Z" fill="#F5D95C"/>
<path d="M160.61 329.297C159.286 332.303 160.42 335.702 163.149 336.904C165.878 338.106 169.151 336.649 170.476 333.643C171.8 330.637 170.666 327.238 167.937 326.036C165.208 324.834 161.934 326.291 160.61 329.297Z" fill="#F5D95C"/>
<path d="M149.192 334.62C147.949 337.442 149.008 340.669 151.59 341.807C154.172 342.944 157.258 341.57 158.511 338.726C159.764 335.882 158.695 332.677 156.113 331.54C153.531 330.402 150.445 331.776 149.192 334.62Z" fill="#F5D95C"/>
<path d="M137.907 339.976C136.756 342.589 137.739 345.534 140.111 346.579C142.483 347.624 145.32 346.361 146.471 343.748C147.622 341.135 146.639 338.19 144.267 337.145C141.895 336.1 139.058 337.363 137.907 339.976Z" fill="#F5D95C"/>
<path d="M126.28 345.209C125.149 347.776 126.121 350.689 128.451 351.715C130.782 352.742 133.587 351.493 134.718 348.926C135.849 346.359 134.877 343.446 132.546 342.42C130.216 341.393 127.411 342.642 126.28 345.209Z" fill="#F5D95C"/>
<path d="M114.913 350.526C113.864 352.908 114.76 355.595 116.922 356.547C119.084 357.5 121.672 356.348 122.721 353.966C123.771 351.584 122.874 348.898 120.712 347.945C118.55 346.993 115.962 348.144 114.913 350.526Z" fill="#F5D95C"/>
<path d="M103.662 355.926C102.725 358.053 103.525 360.448 105.456 361.299C107.387 362.15 109.694 361.123 110.631 358.996C111.568 356.868 110.769 354.473 108.838 353.622C106.907 352.771 104.599 353.798 103.662 355.926Z" fill="#F5D95C"/>
<path d="M296.965 254.981C295.733 257.777 296.792 260.951 299.331 262.07C301.87 263.188 304.927 261.828 306.159 259.031C307.391 256.234 306.332 253.06 303.793 251.942C301.254 250.823 298.197 252.184 296.965 254.981Z" fill="#F5D95C"/>
<path d="M284.989 260.032C283.675 263.015 284.819 266.391 287.506 267.574C290.193 268.758 293.467 267.301 294.77 264.341C296.074 261.381 294.94 257.982 292.253 256.799C289.566 255.615 286.293 257.072 284.989 260.032Z" fill="#F5D95C"/>
<path d="M273.12 265.13C271.745 268.251 272.923 271.78 275.757 273.028C278.59 274.276 281.989 272.764 283.364 269.642C284.739 266.52 283.562 262.992 280.728 261.744C277.894 260.495 274.496 262.008 273.12 265.13Z" fill="#F5D95C"/>
<path d="M261.554 270.389C260.22 273.418 261.376 276.882 264.125 278.093C266.875 279.305 270.201 277.843 271.546 274.791C272.89 271.738 271.745 268.307 268.974 267.086C266.204 265.866 262.899 267.337 261.554 270.389Z" fill="#F5D95C"/>
<path d="M249.622 275.46C248.206 278.674 249.416 282.3 252.333 283.585C255.251 284.87 258.743 283.316 260.159 280.102C261.575 276.888 260.365 273.262 257.447 271.977C254.529 270.691 251.038 272.246 249.622 275.46Z" fill="#F5D95C"/>
<path d="M237.866 280.634C236.44 283.871 237.671 287.561 240.61 288.856C243.549 290.151 247.103 288.569 248.529 285.331C249.955 282.094 248.724 278.404 245.785 277.109C242.846 275.815 239.292 277.397 237.866 280.634Z" fill="#F5D95C"/>
<path d="M226.414 285.916C225.039 289.037 226.217 292.566 229.051 293.814C231.884 295.063 235.283 293.55 236.658 290.428C238.033 287.307 236.856 283.778 234.022 282.53C231.188 281.281 227.79 282.794 226.414 285.916Z" fill="#F5D95C"/>
<path d="M214.767 291.139C213.402 294.237 214.569 297.733 217.381 298.973C220.194 300.212 223.561 298.713 224.926 295.615C226.291 292.516 225.125 289.02 222.312 287.781C219.499 286.542 216.132 288.04 214.767 291.139Z" fill="#F5D95C"/>
<path d="M202.938 296.254C201.532 299.445 202.742 303.071 205.639 304.347C208.536 305.623 212.027 304.069 213.433 300.878C214.839 297.687 213.629 294.061 210.732 292.785C207.836 291.509 204.344 293.063 202.938 296.254Z" fill="#F5D95C"/>
<path d="M191.371 301.514C189.999 304.63 191.179 308.167 194.008 309.413C196.836 310.659 200.242 309.143 201.615 306.027C202.988 302.911 201.807 299.375 198.979 298.128C196.15 296.882 192.744 298.398 191.371 301.514Z" fill="#F5D95C"/>
<path d="M180.026 306.842C178.732 309.779 179.855 313.09 182.5 314.255C185.145 315.42 188.356 313.991 189.639 311.078C190.923 308.164 189.81 304.83 187.165 303.665C184.52 302.499 181.309 303.929 180.026 306.842Z" fill="#F5D95C"/>
<path d="M168.261 311.986C166.947 314.969 168.091 318.345 170.778 319.528C173.465 320.712 176.739 319.255 178.042 316.295C179.346 313.335 178.212 309.936 175.525 308.753C172.838 307.569 169.565 309.026 168.261 311.986Z" fill="#F5D95C"/>
<path d="M156.821 317.301C155.579 320.122 156.638 323.35 159.22 324.487C161.802 325.625 164.888 324.251 166.141 321.407C167.394 318.563 166.325 315.358 163.743 314.221C161.161 313.083 158.074 314.457 156.821 317.301Z" fill="#F5D95C"/>
<path d="M145.537 322.657C144.386 325.27 145.369 328.216 147.741 329.261C150.113 330.306 152.95 329.043 154.102 326.43C155.253 323.817 154.27 320.871 151.898 319.826C149.526 318.782 146.688 320.044 145.537 322.657Z" fill="#F5D95C"/>
<path d="M133.825 327.851C132.663 330.487 133.657 333.465 136.05 334.519C138.443 335.574 141.311 334.297 142.473 331.661C143.634 329.025 142.64 326.047 140.247 324.993C137.854 323.938 134.986 325.215 133.825 327.851Z" fill="#F5D95C"/>
<path d="M122.523 333.199C121.463 335.604 122.371 338.323 124.554 339.285C126.737 340.247 129.356 339.081 130.415 336.676C131.475 334.272 130.567 331.552 128.384 330.591C126.201 329.629 123.582 330.795 122.523 333.199Z" fill="#F5D95C"/>
<path d="M111.208 338.569C110.252 340.74 111.074 343.204 113.045 344.072C115.015 344.94 117.388 343.884 118.345 341.713C119.301 339.542 118.479 337.078 116.508 336.21C114.537 335.342 112.164 336.398 111.208 338.569Z" fill="#F5D95C"/>
<path d="M99.884 343.906C99.0176 345.873 99.7625 348.105 101.548 348.891C103.333 349.678 105.483 348.721 106.349 346.754C107.216 344.788 106.471 342.556 104.685 341.769C102.9 340.983 100.75 341.94 99.884 343.906Z" fill="#F5D95C"/>
<path d="M88.2549 349.137C87.3992 351.079 88.144 353.257 89.8863 354.025C91.6285 354.792 93.7486 353.848 94.5941 351.929C95.4396 350.01 94.705 347.809 92.9627 347.041C91.2205 346.274 89.1004 347.217 88.2549 349.137Z" fill="#F5D95C"/>
<path d="M304.911 237.8C303.76 240.413 304.743 243.359 307.115 244.404C309.487 245.448 312.324 244.186 313.475 241.573C314.626 238.96 313.643 236.014 311.271 234.969C308.899 233.924 306.062 235.187 304.911 237.8Z" fill="#F5D95C"/>
<path d="M292.934 242.851C291.702 245.648 292.761 248.821 295.3 249.94C297.839 251.058 300.896 249.698 302.128 246.901C303.36 244.104 302.301 240.93 299.762 239.812C297.223 238.693 294.166 240.054 292.934 242.851Z" fill="#F5D95C"/>
<path d="M281.347 248.102C280.145 250.831 281.182 253.938 283.659 255.029C286.136 256.121 289.129 254.788 290.331 252.06C291.533 249.331 290.496 246.224 288.019 245.132C285.542 244.041 282.549 245.373 281.347 248.102Z" fill="#F5D95C"/>
<path d="M269.456 253.19C268.193 256.057 269.284 259.327 271.887 260.473C274.49 261.62 277.639 260.219 278.902 257.351C280.165 254.484 279.074 251.214 276.471 250.068C273.868 248.921 270.719 250.323 269.456 253.19Z" fill="#F5D95C"/>
<path d="M257.522 258.258C256.187 261.287 257.343 264.751 260.093 265.962C262.843 267.174 266.179 265.689 267.514 262.66C268.848 259.63 267.692 256.167 264.942 254.955C262.192 253.744 258.867 255.206 257.522 258.258Z" fill="#F5D95C"/>
<path d="M245.999 263.537C244.706 266.474 245.808 269.831 248.495 271.015C251.182 272.198 254.393 270.769 255.697 267.809C257.001 264.85 255.888 261.515 253.201 260.332C250.515 259.148 247.303 260.577 245.999 263.537Z" fill="#F5D95C"/>
<path d="M234.254 268.689C232.94 271.672 234.084 275.048 236.771 276.231C239.458 277.415 242.732 275.958 244.036 272.998C245.34 270.038 244.205 266.639 241.518 265.456C238.831 264.272 235.558 265.729 234.254 268.689Z" fill="#F5D95C"/>
<path d="M222.583 273.902C221.269 276.885 222.414 280.261 225.1 281.444C227.787 282.628 231.061 281.171 232.365 278.211C233.669 275.251 232.534 271.852 229.847 270.669C227.161 269.485 223.887 270.942 222.583 273.902Z" fill="#F5D95C"/>
<path d="M210.903 279.083C209.589 282.065 210.733 285.441 213.42 286.625C216.107 287.809 219.381 286.352 220.685 283.392C221.988 280.432 220.854 277.033 218.167 275.849C215.48 274.666 212.207 276.123 210.903 279.083Z" fill="#F5D95C"/>
<path d="M199.272 284.314C197.973 287.265 199.09 290.612 201.768 291.792C204.446 292.972 207.67 291.537 208.97 288.587C210.27 285.637 209.152 282.289 206.474 281.109C203.796 279.929 200.572 281.364 199.272 284.314Z" fill="#F5D95C"/>
<path d="M187.783 289.577C186.53 292.421 187.61 295.659 190.192 296.796C192.774 297.933 195.892 296.546 197.145 293.702C198.398 290.857 197.317 287.62 194.736 286.483C192.154 285.345 189.036 286.733 187.783 289.577Z" fill="#F5D95C"/>
<path d="M175.965 294.727C174.671 297.664 175.794 300.975 178.439 302.14C181.084 303.305 184.295 301.876 185.579 298.962C186.862 296.049 185.75 292.715 183.105 291.549C180.46 290.384 177.249 291.813 175.965 294.727Z" fill="#F5D95C"/>
<path d="M164.639 300.063C163.437 302.792 164.463 305.867 166.94 306.958C169.417 308.049 172.379 306.731 173.581 304.003C174.783 301.274 173.756 298.199 171.279 297.107C168.803 296.016 165.841 297.335 164.639 300.063Z" fill="#F5D95C"/>
<path d="M153.208 305.355C152.078 307.922 153.05 310.835 155.38 311.862C157.71 312.888 160.516 311.639 161.647 309.073C162.778 306.506 161.805 303.593 159.475 302.566C157.145 301.54 154.339 302.789 153.208 305.355Z" fill="#F5D95C"/>
<path d="M141.474 310.54C140.323 313.153 141.306 316.099 143.678 317.144C146.05 318.189 148.887 316.926 150.039 314.313C151.19 311.7 150.207 308.754 147.835 307.709C145.463 306.664 142.625 307.927 141.474 310.54Z" fill="#F5D95C"/>
<path d="M130.152 315.878C129.093 318.283 130 321.002 132.183 321.964C134.366 322.926 136.985 321.76 138.045 319.355C139.104 316.95 138.197 314.231 136.014 313.269C133.831 312.308 131.212 313.473 130.152 315.878Z" fill="#F5D95C"/>
<path d="M118.774 321.221C117.8 323.43 118.637 325.937 120.643 326.821C122.648 327.705 125.063 326.63 126.037 324.42C127.01 322.211 126.173 319.704 124.167 318.82C122.162 317.937 119.747 319.011 118.774 321.221Z" fill="#F5D95C"/>
<path d="M107.471 326.568C106.595 328.556 107.351 330.822 109.157 331.618C110.962 332.413 113.144 331.442 114.02 329.453C114.896 327.464 114.14 325.198 112.335 324.403C110.53 323.608 108.347 324.579 107.471 326.568Z" fill="#F5D95C"/>
<path d="M95.822 331.79C94.9556 333.757 95.7005 335.989 97.4858 336.775C99.2711 337.562 101.421 336.605 102.287 334.638C103.154 332.671 102.409 330.44 100.623 329.653C98.8381 328.867 96.6884 329.823 95.822 331.79Z" fill="#F5D95C"/>
<path d="M84.5184 337.137C83.7477 338.887 84.4103 340.872 85.9986 341.572C87.5868 342.272 89.4991 341.421 90.2699 339.671C91.0407 337.921 90.378 335.936 88.7898 335.236C87.2016 334.536 85.2892 335.388 84.5184 337.137Z" fill="#F5D95C"/>
<path d="M73.2868 342.545C72.6349 344.025 73.1967 345.708 74.5401 346.3C75.8835 346.892 77.5047 346.17 78.1567 344.69C78.8087 343.21 78.2468 341.527 76.9034 340.935C75.56 340.343 73.9388 341.065 73.2868 342.545Z" fill="#F5D95C"/>
<path d="M301.216 225.82C300.156 228.224 301.064 230.944 303.247 231.905C305.43 232.867 308.049 231.701 309.108 229.296C310.168 226.892 309.26 224.172 307.077 223.211C304.894 222.249 302.275 223.415 301.216 225.82Z" fill="#F5D95C"/>
<path d="M289.272 230.911C288.147 233.465 289.115 236.364 291.433 237.385C293.752 238.407 296.543 237.164 297.669 234.61C298.794 232.056 297.826 229.157 295.508 228.136C293.189 227.114 290.398 228.357 289.272 230.911Z" fill="#F5D95C"/>
<path d="M277.401 236.008C276.219 238.69 277.235 241.734 279.669 242.806C282.104 243.879 285.035 242.574 286.217 239.892C287.398 237.21 286.382 234.167 283.948 233.094C281.513 232.022 278.582 233.326 277.401 236.008Z" fill="#F5D95C"/>
<path d="M265.731 241.222C264.55 243.904 265.565 246.948 268 248.02C270.434 249.093 273.366 247.788 274.547 245.106C275.729 242.424 274.713 239.381 272.278 238.308C269.844 237.236 266.913 238.54 265.731 241.222Z" fill="#F5D95C"/>
<path d="M253.902 246.338C252.68 249.112 253.728 252.252 256.247 253.362C258.765 254.472 261.79 253.126 263.012 250.351C264.235 247.576 263.187 244.436 260.668 243.326C258.149 242.217 255.125 243.563 253.902 246.338Z" fill="#F5D95C"/>
<path d="M242.137 251.482C240.894 254.303 241.953 257.531 244.535 258.668C247.117 259.806 250.204 258.432 251.457 255.588C252.71 252.743 251.64 249.539 249.058 248.401C246.476 247.264 243.39 248.638 242.137 251.482Z" fill="#F5D95C"/>
<path d="M230.676 256.786C229.484 259.492 230.52 262.544 232.955 263.617C235.39 264.689 238.352 263.371 239.534 260.689C240.715 258.006 239.689 254.931 237.254 253.858C234.819 252.786 231.857 254.104 230.676 256.786Z" fill="#F5D95C"/>
<path d="M218.763 261.865C217.51 264.71 218.591 267.947 221.173 269.084C223.755 270.221 226.872 268.834 228.125 265.99C229.378 263.145 228.298 259.908 225.716 258.771C223.134 257.633 220.016 259.021 218.763 261.865Z" fill="#F5D95C"/>
<path d="M207.113 267.085C205.87 269.906 206.93 273.134 209.511 274.272C212.093 275.409 215.18 274.035 216.433 271.191C217.686 268.347 216.616 265.142 214.034 264.005C211.453 262.867 208.366 264.241 207.113 267.085Z" fill="#F5D95C"/>
<path d="M195.683 272.379C194.501 275.062 195.517 278.105 197.952 279.177C200.387 280.25 203.317 278.946 204.499 276.263C205.681 273.581 204.665 270.538 202.23 269.465C199.795 268.393 196.864 269.697 195.683 272.379Z" fill="#F5D95C"/>
<path d="M183.888 277.536C182.676 280.288 183.724 283.428 186.222 284.528C188.719 285.629 191.744 284.283 192.956 281.531C194.168 278.779 193.12 275.639 190.622 274.539C188.124 273.438 185.1 274.784 183.888 277.536Z" fill="#F5D95C"/>
<path d="M172.334 282.772C171.152 285.454 172.168 288.497 174.603 289.57C177.037 290.643 179.968 289.338 181.15 286.656C182.332 283.973 181.316 280.931 178.881 279.858C176.446 278.785 173.515 280.09 172.334 282.772Z" fill="#F5D95C"/>
<path d="M160.893 288.087C159.783 290.607 160.744 293.488 163.032 294.496C165.32 295.504 168.095 294.269 169.206 291.748C170.316 289.228 169.354 286.347 167.066 285.339C164.778 284.331 162.004 285.566 160.893 288.087Z" fill="#F5D95C"/>
<path d="M149.232 293.276C148.122 295.796 149.083 298.677 151.371 299.685C153.659 300.693 156.434 299.458 157.545 296.938C158.655 294.417 157.693 291.536 155.405 290.528C153.117 289.52 150.343 290.755 149.232 293.276Z" fill="#F5D95C"/>
<path d="M137.803 298.568C136.754 300.95 137.65 303.637 139.813 304.589C141.975 305.542 144.562 304.39 145.612 302.008C146.661 299.626 145.764 296.94 143.602 295.987C141.44 295.035 138.852 296.186 137.803 298.568Z" fill="#F5D95C"/>
<path d="M126.424 303.91C125.456 306.106 126.288 308.599 128.282 309.477C130.276 310.356 132.677 309.287 133.645 307.091C134.613 304.894 133.781 302.401 131.787 301.523C129.793 300.644 127.392 301.713 126.424 303.91Z" fill="#F5D95C"/>
<path d="M115.1 309.249C114.222 311.241 114.977 313.502 116.785 314.298C118.594 315.095 120.771 314.126 121.649 312.134C122.527 310.141 121.772 307.881 119.964 307.084C118.155 306.287 115.978 307.256 115.1 309.249Z" fill="#F5D95C"/>
<path d="M103.408 314.451C102.53 316.443 103.285 318.704 105.093 319.501C106.902 320.297 109.079 319.328 109.957 317.336C110.834 315.344 110.08 313.083 108.271 312.286C106.463 311.489 104.285 312.458 103.408 314.451Z" fill="#F5D95C"/>
<path d="M92.1264 319.808C91.3522 321.565 92.0221 323.572 93.6174 324.275C95.2127 324.978 97.1457 324.117 97.9199 322.36C98.6941 320.603 98.0242 318.596 96.4289 317.893C94.8336 317.19 92.9006 318.05 92.1264 319.808Z" fill="#F5D95C"/>
<path d="M80.813 325.179C80.1407 326.705 80.7241 328.453 82.1095 329.063C83.4949 329.673 85.1785 328.924 85.8508 327.398C86.5232 325.872 85.9397 324.124 84.5543 323.513C83.1689 322.903 81.4854 323.652 80.813 325.179Z" fill="#F5D95C"/>
<path d="M69.1519 330.368C68.4795 331.894 69.0629 333.642 70.4483 334.253C71.8337 334.863 73.5173 334.114 74.1897 332.587C74.862 331.061 74.2786 329.313 72.8932 328.703C71.5078 328.093 69.8242 328.842 69.1519 330.368Z" fill="#F5D95C"/>
<path d="M57.9226 335.776C57.3725 337.025 57.8479 338.449 58.9814 338.948C60.1149 339.448 61.4867 338.837 62.0368 337.588C62.5869 336.34 62.1116 334.915 60.978 334.416C59.8445 333.917 58.4727 334.527 57.9226 335.776Z" fill="#F5D95C"/>
<path d="M297.574 213.888C296.626 216.038 297.447 218.499 299.4 219.359C301.352 220.219 303.721 219.164 304.669 217.013C305.616 214.863 304.795 212.403 302.843 211.543C300.891 210.683 298.521 211.737 297.574 213.888Z" fill="#F5D95C"/>
<path d="M285.639 218.956C284.62 221.268 285.495 223.89 287.595 224.815C289.694 225.74 292.219 224.616 293.238 222.304C294.256 219.991 293.381 217.369 291.282 216.444C289.183 215.52 286.658 216.644 285.639 218.956Z" fill="#F5D95C"/>
<path d="M273.655 224.031C272.555 226.528 273.495 229.344 275.762 230.343C278.029 231.342 280.741 230.134 281.841 227.637C282.941 225.14 282.001 222.323 279.734 221.325C277.467 220.326 274.755 221.533 273.655 224.031Z" fill="#F5D95C"/>
<path d="M261.804 229.139C260.653 231.752 261.636 234.697 264.008 235.742C266.38 236.787 269.218 235.525 270.369 232.912C271.52 230.299 270.537 227.353 268.165 226.308C265.793 225.263 262.956 226.526 261.804 229.139Z" fill="#F5D95C"/>
<path d="M250.282 234.415C249.172 236.935 250.122 239.784 252.41 240.792C254.698 241.8 257.442 240.579 258.552 238.058C259.663 235.538 258.712 232.689 256.424 231.681C254.136 230.673 251.392 231.894 250.282 234.415Z" fill="#F5D95C"/>
<path d="M238.578 239.587C237.464 242.115 238.422 244.985 240.718 245.996C243.013 247.007 245.777 245.777 246.891 243.248C248.005 240.72 247.047 237.85 244.752 236.839C242.456 235.828 239.692 237.058 238.578 239.587Z" fill="#F5D95C"/>
<path d="M226.624 244.647C225.432 247.352 226.468 250.404 228.903 251.477C231.338 252.55 234.3 251.231 235.482 248.549C236.664 245.867 235.637 242.791 233.202 241.719C230.767 240.646 227.805 241.964 226.624 244.647Z" fill="#F5D95C"/>
<path d="M215.185 249.961C214.06 252.515 215.027 255.414 217.346 256.435C219.664 257.457 222.456 256.214 223.581 253.66C224.706 251.106 223.739 248.207 221.42 247.186C219.102 246.164 216.31 247.407 215.185 249.961Z" fill="#F5D95C"/>
<path d="M203.568 255.17C202.457 257.691 203.419 260.572 205.707 261.58C207.995 262.588 210.77 261.353 211.88 258.832C212.99 256.312 212.029 253.431 209.741 252.423C207.453 251.415 204.678 252.65 203.568 255.17Z" fill="#F5D95C"/>
<path d="M191.646 260.273C190.464 262.955 191.48 265.998 193.915 267.071C196.349 268.143 199.28 266.839 200.462 264.157C201.643 261.475 200.628 258.431 198.193 257.359C195.758 256.286 192.827 257.591 191.646 260.273Z" fill="#F5D95C"/>
<path d="M180.277 265.592C179.177 268.09 180.117 270.906 182.384 271.905C184.651 272.903 187.364 271.696 188.464 269.199C189.564 266.701 188.624 263.885 186.357 262.886C184.09 261.888 181.378 263.095 180.277 265.592Z" fill="#F5D95C"/>
<path d="M168.754 270.869C167.694 273.274 168.602 275.993 170.785 276.955C172.968 277.917 175.587 276.751 176.646 274.346C177.706 271.941 176.798 269.222 174.615 268.261C172.432 267.299 169.813 268.464 168.754 270.869Z" fill="#F5D95C"/>
<path d="M156.946 275.994C155.856 278.468 156.796 281.284 159.042 282.274C161.288 283.263 164 282.056 165.09 279.582C166.18 277.107 165.24 274.291 162.994 273.302C160.748 272.312 158.036 273.52 156.946 275.994Z" fill="#F5D95C"/>
<path d="M145.485 281.299C144.45 283.649 145.34 286.316 147.473 287.255C149.606 288.195 152.174 287.052 153.21 284.702C154.245 282.352 153.355 279.685 151.222 278.746C149.089 277.806 146.52 278.949 145.485 281.299Z" fill="#F5D95C"/>
<path d="M134.182 286.646C133.245 288.774 134.045 291.169 135.976 292.02C137.907 292.871 140.214 291.844 141.151 289.716C142.088 287.589 141.289 285.194 139.358 284.343C137.427 283.492 135.119 284.519 134.182 286.646Z" fill="#F5D95C"/>
<path d="M122.774 291.947C121.908 293.913 122.654 296.146 124.438 296.932C126.222 297.718 128.373 296.761 129.239 294.795C130.105 292.83 129.36 290.596 127.576 289.81C125.791 289.024 123.64 289.982 122.774 291.947Z" fill="#F5D95C"/>
<path d="M111.038 297.131C110.161 299.124 110.915 301.384 112.724 302.181C114.532 302.978 116.71 302.009 117.588 300.016C118.465 298.024 117.711 295.763 115.902 294.967C114.094 294.17 111.916 295.139 111.038 297.131Z" fill="#F5D95C"/>
<path d="M99.7568 302.487C98.9826 304.245 99.6524 306.252 101.248 306.955C102.843 307.657 104.776 306.797 105.55 305.04C106.324 303.282 105.655 301.275 104.059 300.573C102.464 299.87 100.531 300.73 99.7568 302.487Z" fill="#F5D95C"/>
<path d="M88.4216 307.849C87.739 309.398 88.3333 311.179 89.7396 311.798C91.146 312.418 92.8608 311.655 93.5433 310.105C94.2259 308.556 93.6316 306.776 92.2253 306.156C90.8189 305.536 89.1041 306.3 88.4216 307.849Z" fill="#F5D95C"/>
<path d="M76.7409 313.031C76.0584 314.58 76.6526 316.36 78.059 316.98C79.4654 317.599 81.1801 316.836 81.8627 315.287C82.5452 313.738 81.951 311.957 80.5446 311.338C79.1382 310.718 77.4234 311.481 76.7409 313.031Z" fill="#F5D95C"/>
<path d="M65.5098 318.436C64.9416 319.726 65.4301 321.19 66.601 321.706C67.7719 322.222 69.1817 321.594 69.7499 320.304C70.3182 319.014 69.8296 317.551 68.6587 317.035C67.4878 316.519 66.078 317.146 65.5098 318.436Z" fill="#F5D95C"/>
<path d="M54.1653 323.767C53.6865 324.853 54.0971 326.083 55.0836 326.518C56.0702 326.953 57.2549 326.425 57.7337 325.339C58.2125 324.252 57.802 323.022 56.8154 322.587C55.8288 322.152 54.6441 322.68 54.1653 323.767Z" fill="#F5D95C"/>
<path d="M42.9775 329.191C42.6311 329.978 42.9336 330.884 43.6473 331.198C44.361 331.513 45.234 331.124 45.5803 330.338C45.9267 329.552 45.6242 328.645 44.9105 328.331C44.1968 328.017 43.3238 328.405 42.9775 329.191Z" fill="#F5D95C"/>
<path d="M305.519 196.705C304.658 198.659 305.398 200.877 307.172 201.658C308.946 202.44 311.082 201.489 311.942 199.535C312.803 197.581 312.063 195.364 310.289 194.582C308.516 193.801 306.38 194.751 305.519 196.705Z" fill="#F5D95C"/>
<path d="M293.625 201.794C292.702 203.889 293.496 206.266 295.397 207.103C297.298 207.941 299.587 206.922 300.51 204.827C301.433 202.733 300.639 200.356 298.738 199.519C296.837 198.681 294.548 199.7 293.625 201.794Z" fill="#F5D95C"/>
<path d="M281.934 206.997C281.007 209.102 281.816 211.474 283.705 212.306C285.595 213.139 287.902 212.112 288.819 210.031C289.735 207.949 288.936 205.554 287.047 204.722C285.158 203.889 282.85 204.916 281.934 206.997Z" fill="#F5D95C"/>
<path d="M270.043 212.086C269.055 214.329 269.898 216.854 271.934 217.751C273.97 218.648 276.402 217.566 277.39 215.323C278.378 213.08 277.536 210.555 275.499 209.658C273.463 208.761 271.031 209.843 270.043 212.086Z" fill="#F5D95C"/>
<path d="M258.225 217.235C257.201 219.559 258.081 222.197 260.191 223.127C262.301 224.056 264.841 222.925 265.865 220.601C266.889 218.277 266.009 215.639 263.899 214.71C261.789 213.78 259.249 214.911 258.225 217.235Z" fill="#F5D95C"/>
<path d="M246.461 222.379C245.412 224.76 246.33 227.456 248.471 228.4C250.612 229.343 253.221 228.2 254.27 225.819C255.319 223.437 254.422 220.75 252.26 219.798C250.098 218.845 247.51 219.997 246.461 222.379Z" fill="#F5D95C"/>
<path d="M234.769 227.582C233.72 229.963 234.637 232.66 236.778 233.603C238.919 234.546 241.528 233.403 242.577 231.022C243.627 228.64 242.73 225.953 240.568 225.001C238.406 224.048 235.818 225.2 234.769 227.582Z" fill="#F5D95C"/>
<path d="M223.067 232.753C222.008 235.158 222.915 237.877 225.098 238.839C227.282 239.801 229.9 238.635 230.96 236.23C232.019 233.825 231.112 231.106 228.929 230.144C226.746 229.183 224.127 230.348 223.067 232.753Z" fill="#F5D95C"/>
<path d="M211.407 237.944C210.347 240.348 211.255 243.068 213.438 244.029C215.621 244.991 218.24 243.825 219.299 241.42C220.359 239.016 219.451 236.296 217.268 235.335C215.085 234.373 212.466 235.539 211.407 237.944Z" fill="#F5D95C"/>
<path d="M199.735 243.154C198.675 245.559 199.583 248.278 201.766 249.24C203.949 250.202 206.568 249.036 207.627 246.631C208.687 244.227 207.779 241.507 205.596 240.546C203.413 239.584 200.794 240.75 199.735 243.154Z" fill="#F5D95C"/>
<path d="M188.096 248.354C187.047 250.736 187.944 253.423 190.106 254.375C192.268 255.328 194.856 254.176 195.905 251.794C196.954 249.412 196.058 246.726 193.896 245.773C191.733 244.821 189.146 245.972 188.096 248.354Z" fill="#F5D95C"/>
<path d="M176.53 253.613C175.511 255.926 176.387 258.548 178.486 259.472C180.585 260.397 183.11 259.273 184.129 256.961C185.148 254.648 184.272 252.026 182.173 251.102C180.074 250.177 177.549 251.301 176.53 253.613Z" fill="#F5D95C"/>
<path d="M164.869 258.803C163.85 261.115 164.725 263.737 166.824 264.662C168.923 265.587 171.449 264.463 172.467 262.15C173.486 259.838 172.611 257.216 170.512 256.291C168.413 255.366 165.887 256.49 164.869 258.803Z" fill="#F5D95C"/>
<path d="M153.346 264.08C152.373 266.29 153.209 268.797 155.215 269.68C157.221 270.564 159.635 269.489 160.609 267.28C161.582 265.07 160.745 262.563 158.74 261.68C156.734 260.796 154.319 261.871 153.346 264.08Z" fill="#F5D95C"/>
<path d="M141.875 269.354C140.958 271.436 141.746 273.798 143.636 274.631C145.526 275.463 147.801 274.45 148.718 272.369C149.635 270.287 148.847 267.925 146.957 267.092C145.067 266.26 142.792 267.273 141.875 269.354Z" fill="#F5D95C"/>
<path d="M130.455 274.678C129.599 276.62 130.344 278.798 132.086 279.566C133.829 280.333 135.949 279.389 136.794 277.47C137.64 275.551 136.905 273.35 135.163 272.582C133.421 271.815 131.301 272.758 130.455 274.678Z" fill="#F5D95C"/>
<path d="M118.774 279.858C117.918 281.801 118.663 283.979 120.405 284.746C122.148 285.514 124.268 284.57 125.113 282.651C125.959 280.732 125.224 278.53 123.482 277.763C121.74 276.995 119.619 277.939 118.774 279.858Z" fill="#F5D95C"/>
<path d="M107.408 285.177C106.637 286.927 107.3 288.912 108.888 289.612C110.476 290.312 112.389 289.461 113.16 287.711C113.93 285.961 113.268 283.976 111.679 283.276C110.091 282.576 108.179 283.428 107.408 285.177Z" fill="#F5D95C"/>
<path d="M96.0515 290.529C95.3689 292.078 95.9631 293.858 97.3695 294.478C98.7759 295.097 100.491 294.334 101.173 292.785C101.856 291.236 101.262 289.455 99.8551 288.836C98.4487 288.216 96.734 288.979 96.0515 290.529Z" fill="#F5D95C"/>
<path d="M84.3708 295.71C83.6883 297.26 84.2825 299.04 85.6889 299.66C87.0953 300.279 88.81 299.516 89.4926 297.967C90.1751 296.417 89.5809 294.637 88.1745 294.017C86.7681 293.398 85.0533 294.161 84.3708 295.71Z" fill="#F5D95C"/>
<path d="M73.0983 301.098C72.5177 302.416 73.0147 303.905 74.2111 304.432C75.4076 304.959 76.8418 304.321 77.4224 303.003C78.0031 301.685 77.5061 300.196 76.3096 299.669C75.1132 299.142 73.679 299.78 73.0983 301.098Z" fill="#F5D95C"/>
<path d="M61.7957 306.445C61.3174 307.531 61.7286 308.763 62.714 309.197C63.6994 309.631 64.8859 309.103 65.3641 308.017C65.8423 306.932 65.4312 305.7 64.4458 305.266C63.4604 304.832 62.2739 305.36 61.7957 306.445Z" fill="#F5D95C"/>
<path d="M50.5237 311.835C50.1524 312.678 50.4716 313.634 51.2367 313.971C52.0019 314.308 52.9231 313.898 53.2945 313.055C53.6658 312.213 53.3465 311.256 52.5814 310.919C51.8163 310.582 50.895 310.992 50.5237 311.835Z" fill="#F5D95C"/>
<path d="M38.8415 317.015C38.4748 317.847 38.799 318.818 39.5546 319.151C40.3103 319.484 41.2456 319.068 41.6123 318.235C41.9791 317.403 41.655 316.432 40.8993 316.099C40.1436 315.766 39.2083 316.182 38.8415 317.015Z" fill="#F5D95C"/>
<path d="M27.6537 322.44C27.4092 322.995 27.6145 323.61 28.1183 323.832C28.6221 324.054 29.2144 323.791 29.4589 323.236C29.7034 322.681 29.4981 322.066 28.9944 321.844C28.4906 321.622 27.8982 321.885 27.6537 322.44Z" fill="#F5D95C"/>
<path d="M16.4123 327.815C16.2901 328.092 16.3981 328.416 16.65 328.527C16.9019 328.638 17.2137 328.499 17.3359 328.222C17.4582 327.944 17.3501 327.62 17.0983 327.509C16.8464 327.398 16.5346 327.537 16.4123 327.815Z" fill="#F5D95C"/>
<path d="M301.918 184.794C301.175 186.482 301.812 188.392 303.345 189.067C304.877 189.742 306.716 188.923 307.46 187.235C308.204 185.547 307.566 183.637 306.034 182.962C304.502 182.287 302.662 183.106 301.918 184.794Z" fill="#F5D95C"/>
<path d="M289.902 189.827C289.066 191.723 289.779 193.859 291.501 194.618C293.222 195.376 295.28 194.46 296.115 192.564C296.95 190.668 296.237 188.531 294.516 187.773C292.795 187.015 290.737 187.931 289.902 189.827Z" fill="#F5D95C"/>
<path d="M277.989 194.906C277.093 196.941 277.87 199.271 279.718 200.085C281.565 200.899 283.81 199.9 284.706 197.865C285.602 195.83 284.825 193.499 282.977 192.685C281.13 191.872 278.885 192.871 277.989 194.906Z" fill="#F5D95C"/>
<path d="M266.465 200.183C265.609 202.125 266.333 204.35 268.118 205.136C269.902 205.922 272.022 204.978 272.888 203.013C273.754 201.047 273.019 198.846 271.235 198.06C269.45 197.274 267.33 198.217 266.465 200.183Z" fill="#F5D95C"/>
<path d="M254.637 205.298C253.74 207.333 254.518 209.664 256.366 210.478C258.213 211.291 260.458 210.292 261.354 208.257C262.25 206.223 261.473 203.892 259.625 203.078C257.778 202.264 255.533 203.263 254.637 205.298Z" fill="#F5D95C"/>
<path d="M242.692 210.391C241.719 212.6 242.556 215.107 244.561 215.991C246.567 216.874 248.982 215.8 249.955 213.59C250.928 211.381 250.091 208.874 248.086 207.99C246.08 207.107 243.665 208.181 242.692 210.391Z" fill="#F5D95C"/>
<path d="M230.949 215.544C229.959 217.792 230.81 220.343 232.85 221.242C234.891 222.14 237.347 221.047 238.337 218.799C239.328 216.552 238.476 214.001 236.436 213.102C234.396 212.203 231.939 213.297 230.949 215.544Z" fill="#F5D95C"/>
<path d="M219.244 221.468C218.631 223.697 219.796 225.906 221.845 226.402C223.895 226.899 226.053 225.494 226.666 223.266C227.279 221.037 226.114 218.828 224.065 218.332C222.015 217.835 219.857 219.24 219.244 221.468Z" fill="#F5D95C"/>
<path d="M207.597 225.937C206.609 228.18 207.462 230.737 209.498 231.634C211.534 232.531 213.997 231.435 214.985 229.192C215.974 226.949 215.12 224.392 213.084 223.495C211.048 222.598 208.585 223.694 207.597 225.937Z" fill="#F5D95C"/>
<path d="M195.935 231.127C194.947 233.37 195.8 235.928 197.837 236.825C199.873 237.722 202.336 236.625 203.324 234.382C204.312 232.139 203.458 229.582 201.422 228.685C199.386 227.788 196.923 228.884 195.935 231.127Z" fill="#F5D95C"/>
<path d="M184.517 236.452C183.594 238.546 184.388 240.923 186.289 241.76C188.19 242.598 190.479 241.579 191.402 239.485C192.325 237.39 191.531 235.013 189.63 234.176C187.729 233.338 185.44 234.357 184.517 236.452Z" fill="#F5D95C"/>
<path d="M172.647 241.549C171.674 243.758 172.511 246.266 174.516 247.149C176.522 248.033 178.937 246.958 179.91 244.748C180.883 242.539 180.047 240.032 178.041 239.148C176.035 238.265 173.621 239.34 172.647 241.549Z" fill="#F5D95C"/>
<path d="M161.124 246.826C160.187 248.953 160.986 251.349 162.918 252.2C164.849 253.05 167.156 252.024 168.093 249.896C169.03 247.769 168.231 245.373 166.3 244.523C164.369 243.672 162.061 244.699 161.124 246.826Z" fill="#F5D95C"/>
<path d="M149.756 252.145C148.901 254.088 149.645 256.266 151.388 257.033C153.13 257.801 155.25 256.857 156.096 254.938C156.941 253.019 156.206 250.817 154.464 250.05C152.722 249.282 150.602 250.226 149.756 252.145Z" fill="#F5D95C"/>
<path d="M138.254 257.432C137.449 259.259 138.151 261.307 139.788 262.028C141.426 262.75 143.421 261.862 144.216 260.058C145.01 258.254 144.319 256.183 142.681 255.461C141.044 254.74 139.049 255.628 138.254 257.432Z" fill="#F5D95C"/>
<path d="M126.488 262.575C125.661 264.452 126.372 266.583 128.077 267.334C129.781 268.084 131.833 267.171 132.66 265.294C133.487 263.416 132.776 261.286 131.072 260.535C129.367 259.784 127.315 260.698 126.488 262.575Z" fill="#F5D95C"/>
<path d="M115.133 267.928C114.389 269.616 115.027 271.526 116.559 272.201C118.091 272.876 119.931 272.058 120.674 270.37C121.418 268.682 120.781 266.772 119.248 266.097C117.716 265.422 115.876 266.24 115.133 267.928Z" fill="#F5D95C"/>
<path d="M103.807 273.266C103.155 274.745 103.717 276.429 105.06 277.021C106.404 277.612 108.025 276.891 108.677 275.411C109.329 273.931 108.767 272.248 107.423 271.656C106.08 271.064 104.459 271.786 103.807 273.266Z" fill="#F5D95C"/>
<path d="M92.0425 278.408C91.3702 279.934 91.9536 281.682 93.339 282.293C94.7244 282.903 96.408 282.154 97.0803 280.627C97.7526 279.101 97.1692 277.353 95.7838 276.743C94.3984 276.133 92.7148 276.882 92.0425 278.408Z" fill="#F5D95C"/>
<path d="M80.7277 283.779C80.1471 285.097 80.6441 286.586 81.8405 287.113C83.037 287.64 84.4712 287.002 85.0518 285.683C85.6325 284.365 85.1355 282.876 83.939 282.349C82.7425 281.822 81.3084 282.461 80.7277 283.779Z" fill="#F5D95C"/>
<path d="M69.4256 289.127C68.9468 290.214 69.3573 291.444 70.3439 291.878C71.3304 292.313 72.5152 291.786 72.994 290.699C73.4728 289.612 73.0622 288.382 72.0756 287.947C71.0891 287.513 69.9043 288.04 69.4256 289.127Z" fill="#F5D95C"/>
<path d="M58.1103 294.495C57.7333 295.351 58.0473 296.345 58.8449 296.697C59.6426 297.048 60.5779 296.632 60.965 295.753C61.3521 294.874 61.028 293.903 60.2303 293.552C59.4327 293.2 58.4974 293.617 58.1103 294.495Z" fill="#F5D95C"/>
<path d="M46.4496 299.685C46.0727 300.541 46.3866 301.535 47.1843 301.886C47.9819 302.238 48.9173 301.821 49.3044 300.943C49.6915 300.064 49.3673 299.093 48.5697 298.741C47.772 298.39 46.8367 298.806 46.4496 299.685Z" fill="#F5D95C"/>
<path d="M35.1994 305.083C34.9346 305.684 35.1615 306.364 35.7072 306.604C36.253 306.845 36.9077 306.553 37.1726 305.952C37.4374 305.351 37.2106 304.671 36.6648 304.431C36.119 304.19 35.4643 304.482 35.1994 305.083Z" fill="#F5D95C"/>
<path d="M23.8968 310.431C23.7338 310.801 23.8742 311.222 24.2101 311.37C24.5459 311.518 24.9512 311.337 25.1142 310.967C25.2772 310.598 25.1368 310.177 24.8009 310.029C24.4651 309.881 24.0598 310.061 23.8968 310.431Z" fill="#F5D95C"/>
<path d="M12.3081 315.68C12.1655 316.004 12.2843 316.36 12.5782 316.489C12.8721 316.619 13.215 316.466 13.3576 316.143C13.5002 315.819 13.3814 315.463 13.0875 315.333C12.7937 315.204 12.4507 315.356 12.3081 315.68Z" fill="#F5D95C"/>
<path d="M1.13274 321.085C1.13274 321.085 1.12235 321.109 1.14307 321.118C1.16378 321.127 1.16378 321.127 1.17418 321.104C1.18458 321.08 1.18458 321.08 1.16387 321.071C1.14315 321.062 1.14314 321.062 1.13274 321.085Z" fill="#F5D95C"/>
<path d="M297.867 172.654C297.124 174.342 297.761 176.252 299.293 176.927C300.826 177.602 302.665 176.783 303.409 175.095C304.152 173.407 303.515 171.497 301.983 170.822C300.45 170.147 298.611 170.966 297.867 172.654Z" fill="#F5D95C"/>
<path d="M286.28 177.904C285.557 179.546 286.173 181.391 287.663 182.048C289.153 182.704 290.93 181.913 291.654 180.271C292.377 178.63 291.761 176.784 290.271 176.128C288.78 175.471 287.003 176.262 286.28 177.904Z" fill="#F5D95C"/>
<path d="M274.237 183.541C273.731 185.38 274.692 187.203 276.383 187.613C278.075 188.023 279.856 186.864 280.362 185.025C280.867 183.185 279.906 181.362 278.215 180.953C276.523 180.543 274.742 181.702 274.237 183.541Z" fill="#F5D95C"/>
<path d="M262.581 188.118C261.765 189.969 262.467 192.071 264.148 192.811C265.829 193.552 267.853 192.651 268.668 190.799C269.484 188.947 268.783 186.846 267.102 186.105C265.421 185.365 263.397 186.266 262.581 188.118Z" fill="#F5D95C"/>
<path d="M250.912 193.33C250.096 195.182 250.797 197.284 252.478 198.024C254.159 198.765 256.183 197.864 256.999 196.012C257.815 194.16 257.113 192.059 255.432 191.318C253.751 190.578 251.727 191.479 250.912 193.33Z" fill="#F5D95C"/>
<path d="M239.104 198.455C238.248 200.397 238.993 202.575 240.735 203.343C242.478 204.11 244.598 203.167 245.443 201.248C246.289 199.328 245.554 197.127 243.812 196.36C242.07 195.592 239.95 196.536 239.104 198.455Z" fill="#F5D95C"/>
<path d="M227.37 203.641C226.503 205.607 227.248 207.839 229.034 208.626C230.819 209.412 232.969 208.456 233.835 206.489C234.701 204.522 233.957 202.29 232.171 201.504C230.386 200.717 228.236 201.674 227.37 203.641Z" fill="#F5D95C"/>
<path d="M215.456 208.72C214.519 210.847 215.319 213.242 217.25 214.093C219.181 214.944 221.488 213.917 222.425 211.79C223.362 209.662 222.563 207.267 220.632 206.416C218.701 205.565 216.393 206.592 215.456 208.72Z" fill="#F5D95C"/>
<path d="M203.976 214.016C203.1 216.005 203.856 218.271 205.661 219.066C207.467 219.861 209.649 218.89 210.525 216.901C211.401 214.913 210.645 212.647 208.84 211.851C207.034 211.056 204.852 212.027 203.976 214.016Z" fill="#F5D95C"/>
<path d="M192.355 219.223C191.489 221.189 192.234 223.421 194.019 224.208C195.804 224.994 197.954 224.038 198.82 222.071C199.687 220.104 198.942 217.872 197.157 217.086C195.371 216.299 193.222 217.256 192.355 219.223Z" fill="#F5D95C"/>
<path d="M180.466 224.313C179.543 226.407 180.336 228.784 182.238 229.622C184.139 230.459 186.428 229.44 187.351 227.346C188.274 225.252 187.48 222.875 185.579 222.037C183.678 221.2 181.389 222.218 180.466 224.313Z" fill="#F5D95C"/>
<path d="M169.11 229.663C168.274 231.559 168.987 233.695 170.709 234.454C172.43 235.212 174.488 234.296 175.323 232.4C176.158 230.504 175.445 228.367 173.724 227.609C172.003 226.851 169.945 227.767 169.11 229.663Z" fill="#F5D95C"/>
<path d="M157.513 234.881C156.697 236.733 157.398 238.834 159.079 239.575C160.76 240.316 162.784 239.415 163.6 237.563C164.416 235.711 163.714 233.61 162.033 232.869C160.353 232.129 158.329 233.029 157.513 234.881Z" fill="#F5D95C"/>
<path d="M146.05 240.185C145.291 241.91 145.944 243.866 147.509 244.556C149.074 245.245 150.958 244.406 151.718 242.682C152.477 240.958 151.824 239.002 150.259 238.312C148.694 237.623 146.81 238.461 146.05 240.185Z" fill="#F5D95C"/>
<path d="M134.369 245.367C133.605 247.101 134.253 249.044 135.827 249.737C137.402 250.431 139.272 249.598 140.036 247.864C140.8 246.13 140.152 244.187 138.578 243.494C137.004 242.8 135.133 243.633 134.369 245.367Z" fill="#F5D95C"/>
<path d="M122.888 250.663C122.175 252.282 122.801 254.104 124.249 254.742C125.698 255.38 127.475 254.589 128.178 252.994C128.881 251.398 128.265 249.553 126.817 248.915C125.368 248.277 123.591 249.068 122.888 250.663Z" fill="#F5D95C"/>
<path d="M111.502 255.973C110.87 257.407 111.421 259.058 112.723 259.631C114.024 260.205 115.614 259.497 116.246 258.063C116.877 256.629 116.326 254.979 115.025 254.405C113.724 253.832 112.134 254.54 111.502 255.973Z" fill="#F5D95C"/>
<path d="M99.7458 261.148C99.0939 262.628 99.6557 264.312 100.999 264.903C102.342 265.495 103.964 264.774 104.616 263.294C105.268 261.814 104.706 260.13 103.362 259.539C102.019 258.947 100.398 259.668 99.7458 261.148Z" fill="#F5D95C"/>
<path d="M88.4427 266.498C87.8926 267.746 88.3679 269.171 89.5014 269.67C90.635 270.169 92.0068 269.559 92.5569 268.31C93.107 267.061 92.6316 265.637 91.4981 265.138C90.3646 264.638 88.9928 265.249 88.4427 266.498Z" fill="#F5D95C"/>
<path d="M77.0554 271.806C76.5766 272.892 76.9872 274.123 77.9738 274.557C78.9603 274.992 80.1451 274.464 80.6239 273.378C81.1026 272.291 80.6921 271.061 79.7055 270.626C78.719 270.191 77.5342 270.719 77.0554 271.806Z" fill="#F5D95C"/>
<path d="M65.7406 277.175C65.3637 278.031 65.6776 279.025 66.4753 279.376C67.2729 279.728 68.2083 279.311 68.5954 278.433C68.9825 277.554 68.6584 276.583 67.8607 276.232C67.0631 275.88 66.1277 276.296 65.7406 277.175Z" fill="#F5D95C"/>
<path d="M54.08 282.365C53.7031 283.22 54.017 284.214 54.8146 284.566C55.6123 284.917 56.5476 284.501 56.9347 283.622C57.3218 282.743 56.9977 281.772 56.2001 281.421C55.4024 281.07 54.4671 281.486 54.08 282.365Z" fill="#F5D95C"/>
<path d="M42.8094 287.755C42.5344 288.38 42.7822 289.069 43.328 289.309C43.8737 289.55 44.5597 289.244 44.8245 288.643C45.0894 288.042 44.8517 287.33 44.3059 287.089C43.7602 286.849 43.0743 287.154 42.8094 287.755Z" fill="#F5D95C"/>
<path d="M31.5267 293.11C31.3637 293.48 31.5041 293.901 31.84 294.049C32.1758 294.197 32.5811 294.016 32.7441 293.646C32.9071 293.276 32.7667 292.855 32.4308 292.707C32.0949 292.559 31.6897 292.74 31.5267 293.11Z" fill="#F5D95C"/>
<path d="M19.8553 298.323C19.6923 298.693 19.8328 299.114 20.1686 299.261C20.5045 299.409 20.9098 299.229 21.0728 298.859C21.2357 298.489 21.0953 298.068 20.7594 297.92C20.4236 297.772 20.0183 297.953 19.8553 298.323Z" fill="#F5D95C"/>
<path d="M8.59355 303.69C8.53729 303.818 8.58568 303.962 8.70161 304.014C8.81754 304.065 8.9571 304.003 9.01336 303.875C9.06962 303.747 9.02127 303.602 8.90535 303.551C8.78942 303.5 8.64981 303.562 8.59355 303.69Z" fill="#F5D95C"/>
<path d="M294.266 160.741C293.634 162.175 294.175 163.793 295.476 164.367C296.777 164.94 298.336 164.246 298.968 162.813C299.6 161.379 299.059 159.76 297.758 159.187C296.456 158.614 294.898 159.307 294.266 160.741Z" fill="#F5D95C"/>
<path d="M282.376 165.83C281.694 167.38 282.288 169.16 283.694 169.78C285.101 170.399 286.815 169.636 287.498 168.087C288.18 166.537 287.586 164.757 286.18 164.137C284.773 163.518 283.059 164.281 282.376 165.83Z" fill="#F5D95C"/>
<path d="M270.873 171.116C270.241 172.55 270.792 174.2 272.094 174.774C273.395 175.347 274.985 174.639 275.617 173.206C276.249 171.772 275.698 170.121 274.396 169.548C273.095 168.975 271.505 169.682 270.873 171.116Z" fill="#F5D95C"/>
<path d="M258.878 176.159C258.152 177.806 258.776 179.676 260.272 180.335C261.767 180.993 263.568 180.192 264.294 178.544C265.02 176.897 264.396 175.027 262.9 174.369C261.405 173.71 259.604 174.511 258.878 176.159Z" fill="#F5D95C"/>
<path d="M247.028 181.265C246.257 183.015 246.92 185 248.508 185.7C250.096 186.4 252.008 185.548 252.779 183.799C253.55 182.049 252.887 180.064 251.299 179.364C249.711 178.664 247.798 179.515 247.028 181.265Z" fill="#F5D95C"/>
<path d="M235.587 186.579C234.874 188.198 235.5 190.02 236.948 190.658C238.397 191.296 240.174 190.505 240.877 188.91C241.58 187.314 240.964 185.469 239.515 184.831C238.067 184.193 236.29 184.984 235.587 186.579Z" fill="#F5D95C"/>
<path d="M223.634 191.64C222.85 193.421 223.52 195.428 225.136 196.14C226.752 196.852 228.706 196.001 229.491 194.22C230.275 192.44 229.605 190.433 227.968 189.711C226.331 188.99 224.419 189.86 223.634 191.64Z" fill="#F5D95C"/>
<path d="M211.858 196.808C211.054 198.635 211.735 200.73 213.414 201.47C215.093 202.209 217.089 201.321 217.904 199.471C218.719 197.622 218.027 195.55 216.348 194.81C214.669 194.07 212.673 194.958 211.858 196.808Z" fill="#F5D95C"/>
<path d="M200.197 201.996C199.392 203.822 200.074 205.917 201.753 206.657C203.432 207.397 205.428 206.509 206.243 204.659C207.058 202.809 206.366 200.737 204.687 199.997C203.008 199.258 201.012 200.146 200.197 201.996Z" fill="#F5D95C"/>
<path d="M188.504 207.2C187.694 209.039 188.391 211.126 190.06 211.861C191.729 212.597 193.74 211.702 194.55 209.863C195.36 208.024 194.663 205.937 192.994 205.202C191.325 204.466 189.314 205.361 188.504 207.2Z" fill="#F5D95C"/>
<path d="M176.949 212.435C176.167 214.211 176.84 216.225 178.451 216.935C180.062 217.645 182.003 216.781 182.785 215.006C183.567 213.231 182.894 211.217 181.283 210.507C179.672 209.797 177.731 210.66 176.949 212.435Z" fill="#F5D95C"/>
<path d="M165.352 217.655C164.592 219.379 165.245 221.336 166.81 222.025C168.375 222.715 170.26 221.876 171.019 220.152C171.779 218.428 171.126 216.471 169.561 215.782C167.996 215.092 166.111 215.931 165.352 217.655Z" fill="#F5D95C"/>
<path d="M153.977 222.998C153.305 224.524 153.888 226.272 155.274 226.882C156.659 227.493 158.343 226.743 159.015 225.217C159.687 223.691 159.104 221.943 157.718 221.333C156.333 220.722 154.649 221.472 153.977 222.998Z" fill="#F5D95C"/>
<path d="M142.126 228.103C141.403 229.745 142.03 231.622 143.52 232.279C145.01 232.935 146.819 232.131 147.542 230.489C148.265 228.847 147.638 226.97 146.148 226.313C144.658 225.656 142.849 226.461 142.126 228.103Z" fill="#F5D95C"/>
<path d="M130.645 233.398C129.972 234.924 130.556 236.672 131.941 237.283C133.326 237.893 135.01 237.144 135.682 235.618C136.355 234.091 135.771 232.343 134.386 231.733C133 231.123 131.317 231.872 130.645 233.398Z" fill="#F5D95C"/>
<path d="M119.341 238.746C118.76 240.064 119.257 241.553 120.454 242.081C121.65 242.608 123.084 241.969 123.665 240.651C124.246 239.333 123.749 237.844 122.552 237.317C121.356 236.79 119.922 237.428 119.341 238.746Z" fill="#F5D95C"/>
<path d="M107.525 243.895C106.914 245.283 107.443 246.869 108.703 247.424C109.962 247.978 111.49 247.299 112.101 245.911C112.712 244.524 112.183 242.938 110.923 242.383C109.664 241.828 108.136 242.508 107.525 243.895Z" fill="#F5D95C"/>
<path d="M96.1353 249.204C95.5954 250.43 96.0701 251.799 97.1617 252.28C98.2532 252.761 99.5938 252.164 100.124 250.961C100.653 249.759 100.189 248.367 99.0972 247.886C98.0056 247.405 96.665 248.002 96.1353 249.204Z" fill="#F5D95C"/>
<path d="M84.7587 254.547C84.303 255.581 84.6948 256.755 85.6338 257.169C86.5729 257.583 87.7035 257.079 88.1592 256.045C88.615 255.01 88.2231 253.837 87.2841 253.423C86.3451 253.009 85.2144 253.512 84.7587 254.547Z" fill="#F5D95C"/>
<path d="M73.497 259.913C73.1507 260.699 73.4532 261.606 74.1669 261.92C74.8805 262.234 75.7535 261.846 76.0999 261.06C76.4462 260.273 76.1437 259.367 75.43 259.053C74.7163 258.738 73.8434 259.127 73.497 259.913Z" fill="#F5D95C"/>
<path d="M61.7322 265.056C61.3654 265.888 61.6896 266.859 62.4452 267.192C63.2009 267.525 64.1362 267.109 64.503 266.276C64.8697 265.444 64.5456 264.473 63.7899 264.14C63.0342 263.807 62.0989 264.223 61.7322 265.056Z" fill="#F5D95C"/>
<path d="M50.4407 270.435C50.1657 271.059 50.4136 271.748 50.9593 271.989C51.5051 272.229 52.191 271.924 52.4558 271.323C52.7207 270.722 52.483 270.009 51.9373 269.769C51.3915 269.529 50.7056 269.834 50.4407 270.435Z" fill="#F5D95C"/>
<path d="M39.1565 275.791C38.9936 276.161 39.134 276.582 39.4698 276.73C39.8057 276.878 40.211 276.698 40.374 276.328C40.537 275.958 40.3965 275.537 40.0607 275.389C39.7248 275.241 39.3195 275.421 39.1565 275.791Z" fill="#F5D95C"/>
<path d="M27.4852 281.005C27.3222 281.375 27.4626 281.796 27.7985 281.944C28.1343 282.092 28.5396 281.912 28.7026 281.542C28.8656 281.172 28.7252 280.751 28.3893 280.603C28.0535 280.455 27.6482 280.635 27.4852 281.005Z" fill="#F5D95C"/>
<path d="M16.2239 286.371C16.1677 286.498 16.216 286.643 16.332 286.694C16.4479 286.745 16.5875 286.683 16.6437 286.555C16.7 286.428 16.6516 286.283 16.5357 286.232C16.4198 286.181 16.2802 286.243 16.2239 286.371Z" fill="#F5D95C"/>
<path d="M302.652 143.754C302.235 144.702 302.602 145.803 303.463 146.182C304.323 146.561 305.383 146.09 305.801 145.142C306.219 144.193 305.851 143.093 304.991 142.714C304.13 142.335 303.07 142.806 302.652 143.754Z" fill="#F5D95C"/>
<path d="M290.74 148.834C290.251 149.944 290.672 151.207 291.68 151.651C292.687 152.095 293.903 151.553 294.392 150.443C294.881 149.333 294.46 148.071 293.452 147.627C292.445 147.183 291.229 147.724 290.74 148.834Z" fill="#F5D95C"/>
<path d="M278.818 153.937C278.268 155.186 278.743 156.61 279.876 157.109C281.01 157.609 282.382 156.998 282.932 155.75C283.482 154.501 283.007 153.077 281.873 152.577C280.74 152.078 279.368 152.688 278.818 153.937Z" fill="#F5D95C"/>
<path d="M266.843 158.987C266.207 160.43 266.754 162.068 268.064 162.645C269.374 163.222 270.951 162.52 271.587 161.077C272.222 159.634 271.676 157.996 270.366 157.419C269.056 156.842 267.479 157.544 266.843 158.987Z" fill="#F5D95C"/>
<path d="M255.317 164.263C254.726 165.604 255.224 167.149 256.463 167.694C257.701 168.24 259.166 167.588 259.767 166.224C260.368 164.859 259.861 163.338 258.622 162.792C257.384 162.247 255.918 162.899 255.317 164.263Z" fill="#F5D95C"/>
<path d="M243.512 169.391C242.882 170.821 243.424 172.444 244.722 173.016C246.021 173.588 247.584 172.892 248.214 171.462C248.844 170.032 248.302 168.408 247.004 167.836C245.706 167.264 244.142 167.96 243.512 169.391Z" fill="#F5D95C"/>
<path d="M231.535 174.442C230.822 176.06 231.448 177.882 232.896 178.52C234.345 179.158 236.122 178.368 236.825 176.772C237.528 175.176 236.912 173.331 235.464 172.693C234.015 172.055 232.238 172.846 231.535 174.442Z" fill="#F5D95C"/>
<path d="M220.075 179.746C219.423 181.226 219.985 182.909 221.329 183.501C222.672 184.093 224.293 183.371 224.945 181.891C225.597 180.411 225.035 178.728 223.692 178.136C222.349 177.544 220.727 178.266 220.075 179.746Z" fill="#F5D95C"/>
<path d="M208.352 184.909C207.682 186.429 208.258 188.154 209.637 188.761C211.017 189.369 212.678 188.63 213.347 187.11C214.017 185.59 213.441 183.866 212.062 183.258C210.682 182.65 209.021 183.39 208.352 184.909Z" fill="#F5D95C"/>
<path d="M196.429 190.01C195.696 191.675 196.333 193.585 197.844 194.25C199.356 194.916 201.195 194.097 201.929 192.433C202.662 190.768 202.025 188.858 200.513 188.192C199.002 187.526 197.163 188.345 196.429 190.01Z" fill="#F5D95C"/>
<path d="M184.791 195.209C184.065 196.857 184.689 198.727 186.184 199.385C187.68 200.044 189.481 199.243 190.206 197.595C190.932 195.948 190.308 194.078 188.813 193.419C187.317 192.761 185.517 193.562 184.791 195.209Z" fill="#F5D95C"/>
<path d="M173.414 200.552C172.772 202.009 173.313 203.683 174.657 204.275C176 204.866 177.59 204.159 178.242 202.679C178.894 201.199 178.343 199.548 177 198.956C175.656 198.364 174.066 199.072 173.414 200.552Z" fill="#F5D95C"/>
<path d="M161.795 205.761C161.165 207.191 161.707 208.814 163.005 209.386C164.304 209.958 165.867 209.262 166.497 207.832C167.127 206.402 166.586 204.778 165.287 204.207C163.989 203.635 162.425 204.33 161.795 205.761Z" fill="#F5D95C"/>
<path d="M149.946 210.867C149.273 212.393 149.857 214.141 151.242 214.752C152.628 215.362 154.311 214.613 154.984 213.086C155.656 211.56 155.073 209.812 153.687 209.202C152.302 208.592 150.618 209.341 149.946 210.867Z" fill="#F5D95C"/>
<path d="M138.569 216.21C137.978 217.552 138.476 219.096 139.714 219.642C140.952 220.187 142.418 219.535 143.019 218.171C143.62 216.807 143.112 215.285 141.874 214.74C140.635 214.194 139.17 214.846 138.569 216.21Z" fill="#F5D95C"/>
<path d="M127.118 221.491C126.578 222.716 127.053 224.085 128.144 224.566C129.236 225.047 130.576 224.45 131.106 223.248C131.636 222.045 131.171 220.653 130.08 220.172C128.988 219.691 127.647 220.288 127.118 221.491Z" fill="#F5D95C"/>
<path d="M115.279 226.63C114.698 227.948 115.195 229.437 116.392 229.964C117.588 230.491 119.022 229.853 119.603 228.535C120.184 227.217 119.687 225.728 118.49 225.201C117.294 224.674 115.86 225.312 115.279 226.63Z" fill="#F5D95C"/>
<path d="M103.996 231.986C103.517 233.073 103.928 234.303 104.914 234.738C105.901 235.172 107.086 234.645 107.564 233.558C108.043 232.471 107.633 231.241 106.646 230.807C105.659 230.372 104.475 230.899 103.996 231.986Z" fill="#F5D95C"/>
<path d="M92.556 237.3C92.1453 238.232 92.4984 239.29 93.3447 239.663C94.1909 240.036 95.2099 239.582 95.6206 238.65C96.0313 237.718 95.6782 236.66 94.8319 236.287C93.9857 235.914 92.9667 236.368 92.556 237.3Z" fill="#F5D95C"/>
<path d="M81.1687 242.61C80.8312 243.376 81.1214 244.246 81.817 244.552C82.5125 244.858 83.3501 244.486 83.6876 243.719C84.0252 242.953 83.735 242.084 83.0394 241.777C82.3438 241.471 81.5063 241.844 81.1687 242.61Z" fill="#F5D95C"/>
<path d="M69.4365 247.797C69.0876 248.589 69.3875 249.487 70.1063 249.804C70.8251 250.12 71.6905 249.735 72.0393 248.943C72.3881 248.152 72.0882 247.253 71.3695 246.936C70.6507 246.62 69.7853 247.005 69.4365 247.797Z" fill="#F5D95C"/>
<path d="M58.1733 253.162C57.9288 253.717 58.134 254.332 58.6378 254.554C59.1416 254.776 59.734 254.512 59.9785 253.957C60.223 253.402 60.0177 252.787 59.5139 252.565C59.0101 252.343 58.4177 252.607 58.1733 253.162Z" fill="#F5D95C"/>
<path d="M46.7864 258.472C46.6234 258.842 46.7639 259.263 47.0997 259.411C47.4356 259.559 47.8409 259.378 48.0039 259.008C48.1669 258.639 48.0264 258.218 47.6906 258.07C47.3547 257.922 46.9494 258.102 46.7864 258.472Z" fill="#F5D95C"/>
<path d="M35.1155 263.685C34.9525 264.055 35.093 264.476 35.4289 264.624C35.7647 264.772 36.17 264.591 36.333 264.221C36.496 263.851 36.3556 263.431 36.0197 263.283C35.6838 263.135 35.2785 263.315 35.1155 263.685Z" fill="#F5D95C"/>
<path d="M23.8528 269.051C23.7966 269.179 23.845 269.324 23.9609 269.375C24.0768 269.426 24.2164 269.364 24.2727 269.236C24.3289 269.108 24.2806 268.963 24.1646 268.912C24.0487 268.861 23.9091 268.923 23.8528 269.051Z" fill="#F5D95C"/>
<path d="M298.749 131.681C298.361 132.559 298.696 133.563 299.494 133.914C300.292 134.266 301.258 133.836 301.645 132.957C302.032 132.078 301.697 131.075 300.9 130.723C300.102 130.372 299.136 130.802 298.749 131.681Z" fill="#F5D95C"/>
<path d="M287.183 136.94C286.827 137.749 287.129 138.656 287.864 138.979C288.598 139.303 289.471 138.915 289.828 138.105C290.184 137.296 289.882 136.39 289.147 136.066C288.413 135.742 287.54 136.131 287.183 136.94Z" fill="#F5D95C"/>
<path d="M275.143 141.963C274.687 142.997 275.079 144.171 276.018 144.585C276.957 144.999 278.087 144.495 278.543 143.461C278.999 142.426 278.607 141.253 277.668 140.839C276.729 140.425 275.598 140.928 275.143 141.963Z" fill="#F5D95C"/>
<path d="M263.305 147.102C262.806 148.235 263.227 149.497 264.256 149.95C265.284 150.403 266.5 149.862 267 148.729C267.499 147.596 267.077 146.334 266.049 145.881C265.02 145.427 263.804 145.969 263.305 147.102Z" fill="#F5D95C"/>
<path d="M251.436 152.199C250.884 153.45 251.359 154.871 252.495 155.371C253.631 155.872 254.999 155.263 255.55 154.011C256.101 152.76 255.627 151.339 254.491 150.839C253.355 150.338 251.987 150.947 251.436 152.199Z" fill="#F5D95C"/>
<path d="M239.744 157.404C239.194 158.653 239.67 160.077 240.803 160.576C241.937 161.076 243.309 160.465 243.859 159.216C244.409 157.968 243.933 156.543 242.8 156.044C241.666 155.545 240.295 156.155 239.744 157.404Z" fill="#F5D95C"/>
<path d="M228.02 162.564C227.45 163.859 227.936 165.316 229.111 165.834C230.287 166.352 231.69 165.727 232.26 164.432C232.831 163.137 232.344 161.681 231.169 161.163C229.994 160.645 228.591 161.269 228.02 162.564Z" fill="#F5D95C"/>
<path d="M216.254 167.708C215.663 169.05 216.161 170.594 217.399 171.14C218.637 171.685 220.103 171.033 220.704 169.669C221.305 168.305 220.797 166.783 219.559 166.238C218.32 165.692 216.855 166.344 216.254 167.708Z" fill="#F5D95C"/>
<path d="M204.563 172.914C203.972 174.255 204.47 175.799 205.708 176.345C206.947 176.89 208.412 176.238 209.013 174.874C209.614 173.51 209.106 171.988 207.868 171.443C206.629 170.897 205.164 171.549 204.563 172.914Z" fill="#F5D95C"/>
<path d="M192.902 178.103C192.311 179.444 192.809 180.989 194.047 181.534C195.286 182.08 196.751 181.428 197.352 180.063C197.953 178.699 197.446 177.178 196.207 176.632C194.969 176.087 193.503 176.739 192.902 178.103Z" fill="#F5D95C"/>
<path d="M181.231 183.314C180.641 184.655 181.138 186.2 182.377 186.745C183.615 187.291 185.08 186.639 185.681 185.274C186.282 183.91 185.775 182.389 184.536 181.843C183.298 181.297 181.832 181.95 181.231 183.314Z" fill="#F5D95C"/>
<path d="M169.655 188.542C169.087 189.832 169.575 191.295 170.746 191.811C171.917 192.327 173.327 191.7 173.895 190.41C174.463 189.12 173.975 187.656 172.804 187.14C171.633 186.624 170.223 187.252 169.655 188.542Z" fill="#F5D95C"/>
<path d="M157.964 193.745C157.396 195.035 157.884 196.499 159.055 197.014C160.226 197.53 161.636 196.903 162.204 195.613C162.772 194.323 162.284 192.859 161.113 192.343C159.942 191.828 158.532 192.455 157.964 193.745Z" fill="#F5D95C"/>
<path d="M146.429 198.991C145.889 200.216 146.364 201.585 147.455 202.066C148.547 202.547 149.887 201.95 150.417 200.748C150.947 199.545 150.482 198.153 149.391 197.672C148.299 197.191 146.958 197.788 146.429 198.991Z" fill="#F5D95C"/>
<path d="M134.894 204.235C134.395 205.369 134.816 206.631 135.845 207.084C136.873 207.537 138.089 206.996 138.588 205.863C139.088 204.73 138.666 203.467 137.638 203.014C136.609 202.561 135.393 203.102 134.894 204.235Z" fill="#F5D95C"/>
<path d="M123.225 209.449C122.726 210.582 123.147 211.845 124.176 212.298C125.204 212.751 126.42 212.21 126.919 211.077C127.419 209.944 126.997 208.681 125.969 208.228C124.94 207.775 123.724 208.316 123.225 209.449Z" fill="#F5D95C"/>
<path d="M111.731 214.713C111.283 215.731 111.661 216.864 112.584 217.271C113.508 217.678 114.599 217.192 115.047 216.174C115.496 215.157 115.117 214.024 114.194 213.617C113.27 213.21 112.179 213.696 111.731 214.713Z" fill="#F5D95C"/>
<path d="M100.27 220.019C99.8829 220.897 100.218 221.901 101.015 222.252C101.813 222.604 102.78 222.173 103.167 221.295C103.554 220.416 103.219 219.413 102.421 219.061C101.624 218.71 100.657 219.14 100.27 220.019Z" fill="#F5D95C"/>
<path d="M89.0088 225.385C88.7235 226.032 88.9612 226.744 89.549 227.003C90.1367 227.262 90.8226 226.957 91.1078 226.31C91.3931 225.662 91.1554 224.95 90.5676 224.691C89.9799 224.432 89.294 224.737 89.0088 225.385Z" fill="#F5D95C"/>
<path d="M77.1909 230.533C76.8758 231.248 77.1467 232.059 77.7959 232.345C78.4451 232.631 79.2268 232.284 79.5418 231.568C79.8569 230.853 79.586 230.042 78.9368 229.756C78.2876 229.47 77.5059 229.818 77.1909 230.533Z" fill="#F5D95C"/>
<path d="M65.8031 235.842C65.5587 236.397 65.7639 237.012 66.2677 237.234C66.7715 237.456 67.3639 237.192 67.6084 236.637C67.8528 236.082 67.6475 235.467 67.1438 235.245C66.64 235.023 66.0476 235.287 65.8031 235.842Z" fill="#F5D95C"/>
<path d="M54.5098 241.22C54.3671 241.544 54.486 241.9 54.7799 242.029C55.0737 242.159 55.4167 242.006 55.5593 241.683C55.7019 241.359 55.5831 241.003 55.2892 240.873C54.9953 240.744 54.6524 240.896 54.5098 241.22Z" fill="#F5D95C"/>
<path d="M42.8276 246.402C42.685 246.726 42.8039 247.082 43.0977 247.211C43.3916 247.341 43.7345 247.188 43.8772 246.864C44.0198 246.54 43.9009 246.184 43.6071 246.055C43.3132 245.925 42.9702 246.078 42.8276 246.402Z" fill="#F5D95C"/>
<path d="M31.4637 251.721C31.4025 251.86 31.4668 251.999 31.5717 252.045C31.6767 252.091 31.8325 252.022 31.8835 251.906C31.9344 251.79 31.8804 251.629 31.7755 251.582C31.6705 251.536 31.5146 251.605 31.4637 251.721Z" fill="#F5D95C"/>
<path d="M295.21 119.796C294.963 120.358 295.176 120.996 295.686 121.221C296.196 121.445 296.81 121.172 297.058 120.61C297.305 120.048 297.092 119.411 296.582 119.186C296.072 118.961 295.458 119.235 295.21 119.796Z" fill="#F5D95C"/>
<path d="M283.153 124.81C282.798 125.615 283.103 126.528 283.833 126.85C284.564 127.171 285.443 126.78 285.798 125.975C286.152 125.171 285.847 124.258 285.117 123.936C284.387 123.614 283.507 124.006 283.153 124.81Z" fill="#F5D95C"/>
<path d="M271.627 130.086C271.312 130.803 271.582 131.612 272.232 131.899C272.883 132.186 273.663 131.839 273.978 131.122C274.294 130.405 274.024 129.596 273.373 129.309C272.723 129.023 271.943 129.37 271.627 130.086Z" fill="#F5D95C"/>
<path d="M259.8 135.204C259.445 136.008 259.75 136.921 260.48 137.243C261.211 137.565 262.09 137.173 262.445 136.369C262.799 135.564 262.494 134.651 261.764 134.33C261.034 134.008 260.154 134.399 259.8 135.204Z" fill="#F5D95C"/>
<path d="M247.752 140.25C247.296 141.284 247.688 142.458 248.627 142.872C249.566 143.286 250.697 142.782 251.152 141.748C251.608 140.714 251.216 139.54 250.277 139.126C249.338 138.712 248.208 139.216 247.752 140.25Z" fill="#F5D95C"/>
<path d="M235.944 145.376C235.455 146.486 235.876 147.749 236.884 148.193C237.891 148.637 239.107 148.095 239.596 146.985C240.085 145.875 239.664 144.613 238.656 144.169C237.649 143.725 236.433 144.266 235.944 145.376Z" fill="#F5D95C"/>
<path d="M224.524 150.698C224.107 151.646 224.474 152.746 225.335 153.126C226.195 153.505 227.255 153.033 227.673 152.085C228.091 151.137 227.723 150.036 226.863 149.657C226.002 149.278 224.942 149.75 224.524 150.698Z" fill="#F5D95C"/>
<path d="M212.508 155.732C211.999 156.888 212.442 158.215 213.491 158.678C214.541 159.14 215.819 158.571 216.328 157.415C216.838 156.259 216.395 154.931 215.345 154.469C214.296 154.007 213.017 154.576 212.508 155.732Z" fill="#F5D95C"/>
<path d="M200.805 160.903C200.282 162.091 200.732 163.439 201.81 163.914C202.888 164.389 204.186 163.811 204.709 162.623C205.233 161.435 204.783 160.088 203.705 159.613C202.626 159.138 201.328 159.715 200.805 160.903Z" fill="#F5D95C"/>
<path d="M189.385 166.227C188.926 167.267 189.315 168.432 190.26 168.849C191.204 169.265 192.327 168.765 192.785 167.725C193.244 166.684 192.855 165.519 191.91 165.103C190.966 164.686 189.843 165.186 189.385 166.227Z" fill="#F5D95C"/>
<path d="M177.747 171.425C177.299 172.443 177.698 173.585 178.6 173.983C179.503 174.38 180.615 173.904 181.063 172.886C181.512 171.869 181.133 170.736 180.21 170.329C179.286 169.922 178.195 170.408 177.747 171.425Z" fill="#F5D95C"/>
<path d="M165.804 176.518C165.292 177.68 165.732 178.999 166.787 179.464C167.842 179.928 169.112 179.363 169.624 178.201C170.136 177.039 169.696 175.72 168.641 175.255C167.586 174.79 166.316 175.356 165.804 176.518Z" fill="#F5D95C"/>
<path d="M154.27 181.764C153.791 182.85 154.202 184.081 155.189 184.515C156.175 184.95 157.36 184.422 157.839 183.336C158.317 182.249 157.907 181.019 156.92 180.584C155.934 180.149 154.749 180.677 154.27 181.764Z" fill="#F5D95C"/>
<path d="M142.872 187.098C142.465 188.023 142.811 189.059 143.65 189.429C144.49 189.799 145.487 189.354 145.895 188.43C146.302 187.505 145.957 186.469 145.117 186.099C144.277 185.729 143.28 186.173 142.872 187.098Z" fill="#F5D95C"/>
<path d="M131.001 192.194C130.545 193.229 130.937 194.403 131.876 194.816C132.815 195.23 133.946 194.727 134.401 193.692C134.857 192.658 134.465 191.484 133.526 191.07C132.587 190.657 131.457 191.16 131.001 192.194Z" fill="#F5D95C"/>
<path d="M119.53 197.467C119.122 198.392 119.468 199.428 120.307 199.798C121.147 200.168 122.145 199.724 122.552 198.799C122.96 197.874 122.614 196.838 121.774 196.468C120.935 196.098 119.937 196.542 119.53 197.467Z" fill="#F5D95C"/>
<path d="M108.173 202.82C107.858 203.537 108.128 204.346 108.778 204.633C109.429 204.919 110.208 204.572 110.524 203.855C110.84 203.139 110.57 202.329 109.919 202.043C109.269 201.756 108.489 202.103 108.173 202.82Z" fill="#F5D95C"/>
<path d="M96.7856 208.127C96.5411 208.682 96.7464 209.297 97.2501 209.519C97.7539 209.741 98.3463 209.477 98.5908 208.922C98.8353 208.367 98.63 207.752 98.1262 207.53C97.6224 207.308 97.03 207.572 96.7856 208.127Z" fill="#F5D95C"/>
<path d="M84.9468 213.268C84.6615 213.915 84.8992 214.627 85.4869 214.886C86.0747 215.145 86.7606 214.84 87.0458 214.192C87.3311 213.545 87.0934 212.833 86.5056 212.574C85.9179 212.315 85.232 212.62 84.9468 213.268Z" fill="#F5D95C"/>
<path d="M73.686 218.634C73.5128 219.027 73.6641 219.48 74.0209 219.637C74.3778 219.794 74.8142 219.6 74.9874 219.207C75.1606 218.814 75.0094 218.361 74.6525 218.204C74.2957 218.046 73.8592 218.241 73.686 218.634Z" fill="#F5D95C"/>
<path d="M62.2885 223.967C62.1866 224.198 62.2731 224.457 62.483 224.55C62.6929 224.642 62.9423 224.531 63.0442 224.3C63.146 224.069 63.0596 223.81 62.8497 223.717C62.6398 223.625 62.3904 223.736 62.2885 223.967Z" fill="#F5D95C"/>
<path d="M50.5018 229.101C50.3693 229.401 50.4984 229.734 50.7503 229.845C51.0022 229.956 51.3451 229.803 51.4674 229.526C51.5896 229.248 51.4708 228.892 51.2189 228.781C50.967 228.67 50.624 228.823 50.5018 229.101Z" fill="#F5D95C"/>
<path d="M39.1865 234.47C39.1865 234.47 39.1882 234.637 39.2511 234.665C39.3141 234.693 39.4077 234.651 39.4383 234.581C39.4689 234.512 39.4366 234.415 39.3736 234.387C39.3107 234.359 39.2171 234.401 39.1865 234.47Z" fill="#F5D95C"/>
<path d="M303.155 102.615C302.992 102.985 303.132 103.405 303.468 103.553C303.805 103.702 304.209 103.521 304.373 103.151C304.536 102.781 304.395 102.36 304.059 102.212C303.723 102.064 303.318 102.244 303.155 102.615Z" fill="#F5D95C"/>
<path d="M291.474 107.795C291.311 108.165 291.451 108.586 291.787 108.734C292.123 108.882 292.528 108.702 292.691 108.332C292.854 107.962 292.714 107.541 292.378 107.393C292.042 107.245 291.637 107.425 291.474 107.795Z" fill="#F5D95C"/>
<path d="M279.615 112.926C279.401 113.411 279.585 113.962 280.026 114.156C280.466 114.35 280.997 114.114 281.211 113.629C281.424 113.143 281.241 112.593 280.8 112.399C280.359 112.205 279.829 112.441 279.615 112.926Z" fill="#F5D95C"/>
<path d="M267.746 118.022C267.471 118.646 267.719 119.335 268.265 119.576C268.811 119.816 269.497 119.511 269.762 118.91C270.026 118.309 269.789 117.596 269.243 117.356C268.697 117.116 268.011 117.421 267.746 118.022Z" fill="#F5D95C"/>
<path d="M256.055 123.227C255.779 123.851 256.027 124.54 256.573 124.781C257.119 125.021 257.805 124.716 258.07 124.115C258.334 123.514 258.097 122.801 257.551 122.561C257.005 122.321 256.319 122.626 256.055 123.227Z" fill="#F5D95C"/>
<path d="M244.226 128.342C243.91 129.059 244.18 129.868 244.831 130.155C245.481 130.442 246.261 130.095 246.577 129.378C246.892 128.661 246.622 127.852 245.971 127.565C245.321 127.278 244.541 127.625 244.226 128.342Z" fill="#F5D95C"/>
<path d="M232.45 133.508C232.114 134.271 232.406 135.145 233.098 135.45C233.791 135.756 234.633 135.381 234.969 134.618C235.305 133.855 235.013 132.981 234.321 132.676C233.628 132.37 232.786 132.745 232.45 133.508Z" fill="#F5D95C"/>
<path d="M220.473 138.559C220.051 139.517 220.414 140.604 221.283 140.987C222.153 141.37 223.2 140.904 223.622 139.946C224.044 138.988 223.681 137.901 222.811 137.518C221.942 137.135 220.895 137.601 220.473 138.559Z" fill="#F5D95C"/>
<path d="M208.993 143.857C208.626 144.69 208.95 145.661 209.706 145.994C210.462 146.327 211.397 145.91 211.764 145.078C212.13 144.245 211.806 143.274 211.051 142.941C210.295 142.609 209.36 143.025 208.993 143.857Z" fill="#F5D95C"/>
<path d="M197.289 149.027C196.913 149.882 197.226 150.877 198.024 151.228C198.822 151.579 199.757 151.163 200.144 150.284C200.531 149.406 200.207 148.434 199.41 148.083C198.612 147.732 197.677 148.148 197.289 149.027Z" fill="#F5D95C"/>
<path d="M185.607 154.208C185.23 155.064 185.544 156.058 186.342 156.41C187.14 156.761 188.075 156.345 188.462 155.466C188.849 154.587 188.525 153.616 187.727 153.265C186.93 152.913 185.994 153.33 185.607 154.208Z" fill="#F5D95C"/>
<path d="M173.938 159.422C173.561 160.278 173.875 161.272 174.673 161.623C175.471 161.975 176.406 161.559 176.793 160.68C177.18 159.801 176.856 158.83 176.058 158.479C175.261 158.127 174.325 158.544 173.938 159.422Z" fill="#F5D95C"/>
<path d="M162.359 164.647C162.005 165.452 162.31 166.365 163.04 166.686C163.77 167.008 164.65 166.617 165.004 165.812C165.359 165.008 165.054 164.095 164.324 163.773C163.593 163.451 162.714 163.843 162.359 164.647Z" fill="#F5D95C"/>
<path d="M150.733 169.878C150.397 170.641 150.689 171.515 151.381 171.821C152.074 172.126 152.916 171.751 153.252 170.988C153.588 170.225 153.297 169.351 152.604 169.046C151.911 168.741 151.069 169.115 150.733 169.878Z" fill="#F5D95C"/>
<path d="M138.821 174.958C138.415 175.878 138.764 176.921 139.598 177.289C140.433 177.657 141.438 177.209 141.843 176.29C142.248 175.37 141.9 174.327 141.065 173.959C140.231 173.591 139.226 174.039 138.821 174.958Z" fill="#F5D95C"/>
<path d="M127.505 180.328C127.2 181.022 127.459 181.799 128.089 182.076C128.718 182.354 129.467 182.021 129.772 181.327C130.078 180.633 129.818 179.856 129.189 179.579C128.559 179.301 127.811 179.634 127.505 180.328Z" fill="#F5D95C"/>
<path d="M115.992 185.582C115.728 186.183 115.954 186.863 116.5 187.103C117.046 187.344 117.701 187.052 117.966 186.451C118.23 185.85 118.004 185.17 117.458 184.93C116.912 184.689 116.257 184.981 115.992 185.582Z" fill="#F5D95C"/>
<path d="M104.542 190.866C104.334 191.338 104.513 191.874 104.942 192.063C105.371 192.252 105.888 192.022 106.096 191.55C106.304 191.077 106.125 190.541 105.696 190.352C105.267 190.163 104.751 190.393 104.542 190.866Z" fill="#F5D95C"/>
<path d="M92.8705 196.079C92.6668 196.541 92.8295 197.082 93.2703 197.276C93.7111 197.47 94.2099 197.248 94.4239 196.763C94.6378 196.277 94.4649 195.759 94.0241 195.565C93.5833 195.371 93.0845 195.593 92.8705 196.079Z" fill="#F5D95C"/>
<path d="M81.4205 201.361C81.2677 201.707 81.4075 202.073 81.7014 202.202C81.9952 202.332 82.3694 202.165 82.512 201.841C82.6546 201.518 82.5249 201.129 82.2311 201C81.9372 200.87 81.5631 201.037 81.4205 201.361Z" fill="#F5D95C"/>
<path d="M69.9397 206.656C69.848 206.864 69.9237 207.091 70.1126 207.174C70.3015 207.257 70.5197 207.16 70.6114 206.952C70.7031 206.744 70.6275 206.517 70.4386 206.434C70.2496 206.351 70.0314 206.448 69.9397 206.656Z" fill="#F5D95C"/>
<path d="M58.2781 211.847C58.1864 212.055 58.2621 212.281 58.451 212.364C58.6399 212.448 58.8581 212.351 58.9498 212.142C59.0415 211.934 58.9659 211.708 58.777 211.625C58.588 211.541 58.3698 211.638 58.2781 211.847Z" fill="#F5D95C"/>
<path d="M46.9238 217.199C46.918 217.212 46.9226 217.226 46.9341 217.231C46.9455 217.236 46.9594 217.23 46.9652 217.217C46.9709 217.204 46.9663 217.189 46.9549 217.184C46.9434 217.179 46.9295 217.186 46.9238 217.199Z" fill="#F5D95C"/>
<path d="M299.514 90.683C299.458 90.8107 299.506 90.9556 299.622 91.0067C299.738 91.0578 299.878 90.9957 299.934 90.868C299.99 90.7403 299.942 90.5953 299.826 90.5442C299.71 90.4932 299.57 90.5553 299.514 90.683Z" fill="#F5D95C"/>
<path d="M287.581 95.7542C287.457 96.0351 287.563 96.354 287.818 96.4663C288.074 96.5787 288.381 96.442 288.504 96.1611C288.628 95.8801 288.522 95.5613 288.267 95.4489C288.012 95.3365 287.705 95.4732 287.581 95.7542Z" fill="#F5D95C"/>
<path d="M276.046 100.998C275.956 101.202 276.034 101.434 276.219 101.516C276.405 101.598 276.628 101.498 276.718 101.294C276.808 101.089 276.731 100.858 276.545 100.776C276.36 100.694 276.136 100.794 276.046 100.998Z" fill="#F5D95C"/>
<path d="M264.061 106.073C263.888 106.466 264.04 106.919 264.396 107.077C264.753 107.234 265.19 107.04 265.363 106.647C265.536 106.253 265.385 105.8 265.028 105.643C264.671 105.486 264.235 105.68 264.061 106.073Z" fill="#F5D95C"/>
<path d="M252.232 111.19C252.018 111.675 252.202 112.225 252.643 112.42C253.083 112.614 253.613 112.378 253.827 111.892C254.041 111.407 253.858 110.856 253.417 110.662C252.976 110.468 252.446 110.704 252.232 111.19Z" fill="#F5D95C"/>
<path d="M240.729 116.475C240.566 116.845 240.707 117.266 241.043 117.414C241.378 117.562 241.784 117.381 241.947 117.011C242.11 116.641 241.969 116.221 241.633 116.073C241.298 115.925 240.892 116.105 240.729 116.475Z" fill="#F5D95C"/>
<path d="M228.754 121.527C228.51 122.082 228.726 122.729 229.23 122.951C229.734 123.173 230.357 122.896 230.602 122.341C230.846 121.786 230.63 121.138 230.126 120.916C229.622 120.694 228.999 120.972 228.754 121.527Z" fill="#F5D95C"/>
<path d="M216.958 126.686C216.673 127.333 216.91 128.045 217.498 128.304C218.086 128.563 218.772 128.258 219.057 127.61C219.342 126.963 219.105 126.251 218.517 125.992C217.929 125.733 217.243 126.038 216.958 126.686Z" fill="#F5D95C"/>
<path d="M205.213 131.837C204.917 132.508 205.176 133.285 205.785 133.553C206.394 133.821 207.142 133.488 207.438 132.817C207.733 132.147 207.474 131.37 206.865 131.102C206.256 130.834 205.508 131.167 205.213 131.837Z" fill="#F5D95C"/>
<path d="M193.794 137.161C193.56 137.693 193.754 138.276 194.237 138.489C194.72 138.701 195.281 138.452 195.515 137.92C195.75 137.388 195.555 136.805 195.072 136.593C194.59 136.38 194.028 136.63 193.794 137.161Z" fill="#F5D95C"/>
<path d="M181.841 142.222C181.537 142.911 181.798 143.694 182.424 143.97C183.05 144.245 183.804 143.91 184.108 143.22C184.411 142.531 184.15 141.748 183.524 141.472C182.898 141.197 182.144 141.532 181.841 142.222Z" fill="#F5D95C"/>
<path d="M170.2 147.421C169.905 148.092 170.164 148.869 170.773 149.137C171.382 149.405 172.13 149.072 172.425 148.401C172.721 147.731 172.462 146.954 171.853 146.686C171.244 146.418 170.496 146.751 170.2 147.421Z" fill="#F5D95C"/>
<path d="M158.824 152.763C158.61 153.248 158.794 153.799 159.235 153.993C159.676 154.187 160.206 153.951 160.42 153.466C160.633 152.98 160.45 152.43 160.009 152.236C159.568 152.041 159.038 152.277 158.824 152.763Z" fill="#F5D95C"/>
<path d="M146.954 157.86C146.679 158.484 146.927 159.173 147.473 159.414C148.018 159.654 148.704 159.349 148.969 158.748C149.234 158.146 148.996 157.434 148.45 157.194C147.905 156.953 147.219 157.259 146.954 157.86Z" fill="#F5D95C"/>
<path d="M135.367 163.11C135.119 163.672 135.332 164.31 135.842 164.534C136.352 164.759 136.966 164.486 137.214 163.924C137.461 163.362 137.249 162.724 136.739 162.499C136.228 162.275 135.614 162.548 135.367 163.11Z" fill="#F5D95C"/>
<path d="M123.812 168.346C123.598 168.831 123.782 169.382 124.222 169.576C124.663 169.77 125.193 169.534 125.407 169.049C125.621 168.563 125.437 168.013 124.996 167.819C124.556 167.624 124.025 167.861 123.812 168.346Z" fill="#F5D95C"/>
<path d="M112.476 173.707C112.354 173.985 112.462 174.309 112.714 174.419C112.966 174.53 113.278 174.392 113.4 174.114C113.522 173.837 113.414 173.513 113.162 173.402C112.91 173.291 112.599 173.43 112.476 173.707Z" fill="#F5D95C"/>
<path d="M100.648 178.823C100.485 179.193 100.625 179.613 100.961 179.761C101.297 179.91 101.702 179.729 101.865 179.359C102.028 178.989 101.888 178.568 101.552 178.42C101.216 178.272 100.811 178.452 100.648 178.823Z" fill="#F5D95C"/>
<path d="M89.1982 184.106C89.0913 184.348 89.1833 184.624 89.4035 184.721C89.6238 184.818 89.889 184.7 89.9959 184.457C90.1028 184.214 90.0109 183.939 89.7906 183.842C89.5704 183.745 89.3051 183.863 89.1982 184.106Z" fill="#F5D95C"/>
<path d="M77.8827 189.475C77.8827 189.475 77.8723 189.499 77.893 189.508C77.9137 189.517 77.9138 189.517 77.9242 189.493C77.9346 189.47 77.9346 189.47 77.9138 189.461C77.8931 189.451 77.8931 189.451 77.8827 189.475Z" fill="#F5D95C"/>
<path d="M66.098 194.609C66.098 194.609 66.0897 194.799 66.1735 194.836C66.2573 194.872 66.3506 194.831 66.3913 194.739C66.4319 194.646 66.3996 194.549 66.3158 194.513C66.232 194.476 66.1387 194.517 66.098 194.609Z" fill="#F5D95C"/>
<path d="M271.985 88.8827C271.893 89.0908 271.969 89.3174 272.158 89.4006C272.346 89.4838 272.565 89.3867 272.656 89.1786C272.748 88.9705 272.672 88.7439 272.483 88.6606C272.295 88.5774 272.076 88.6745 271.985 88.8827Z" fill="#F5D95C"/>
<path d="M260.535 94.1668C260.535 94.1668 260.537 94.3335 260.6 94.3612C260.663 94.389 260.756 94.3472 260.787 94.2777C260.818 94.2082 260.785 94.1109 260.722 94.0832C260.659 94.0555 260.566 94.0973 260.535 94.1668Z" fill="#F5D95C"/>
<path d="M248.694 99.3043C248.623 99.4662 248.687 99.6604 248.834 99.7252C248.981 99.7899 249.168 99.7066 249.24 99.5448C249.311 99.3829 249.246 99.1887 249.099 99.1239C248.952 99.0592 248.765 99.1425 248.694 99.3043Z" fill="#F5D95C"/>
<path d="M236.699 104.345C236.536 104.715 236.676 105.136 237.012 105.284C237.348 105.432 237.753 105.251 237.916 104.882C238.079 104.512 237.939 104.091 237.603 103.943C237.267 103.795 236.862 103.975 236.699 104.345Z" fill="#F5D95C"/>
<path d="M225.238 109.65C225.126 109.905 225.233 110.173 225.443 110.266C225.653 110.358 225.934 110.233 226.035 110.002C226.137 109.771 226.04 109.479 225.83 109.387C225.62 109.294 225.34 109.419 225.238 109.65Z" fill="#F5D95C"/>
<path d="M213.473 114.795C213.341 115.096 213.47 115.429 213.721 115.539C213.973 115.65 214.316 115.498 214.439 115.22C214.561 114.943 214.442 114.587 214.19 114.476C213.938 114.365 213.595 114.517 213.473 114.795Z" fill="#F5D95C"/>
<path d="M201.74 119.98C201.594 120.312 201.719 120.689 202.021 120.821C202.322 120.954 202.685 120.793 202.831 120.461C202.978 120.129 202.852 119.752 202.55 119.619C202.249 119.486 201.886 119.648 201.74 119.98Z" fill="#F5D95C"/>
<path d="M189.743 125.022C189.509 125.554 189.703 126.136 190.186 126.349C190.669 126.562 191.23 126.312 191.464 125.78C191.698 125.248 191.504 124.666 191.021 124.453C190.538 124.24 189.977 124.49 189.743 125.022Z" fill="#F5D95C"/>
<path d="M178.386 130.373C178.234 130.72 178.373 131.085 178.667 131.215C178.961 131.344 179.335 131.178 179.478 130.854C179.62 130.53 179.491 130.142 179.197 130.012C178.903 129.883 178.529 130.05 178.386 130.373Z" fill="#F5D95C"/>
<path d="M166.705 135.552C166.552 135.899 166.692 136.264 166.986 136.394C167.279 136.523 167.654 136.357 167.796 136.033C167.939 135.709 167.809 135.321 167.515 135.191C167.221 135.062 166.847 135.228 166.705 135.552Z" fill="#F5D95C"/>
<path d="M154.794 140.633C154.58 141.119 154.764 141.669 155.205 141.863C155.645 142.057 156.175 141.821 156.389 141.336C156.603 140.85 156.42 140.3 155.979 140.106C155.538 139.911 155.008 140.147 154.794 140.633Z" fill="#F5D95C"/>
<path d="M143.416 145.975C143.284 146.275 143.413 146.608 143.665 146.719C143.917 146.83 144.26 146.678 144.382 146.4C144.504 146.123 144.385 145.766 144.133 145.655C143.882 145.545 143.539 145.697 143.416 145.975Z" fill="#F5D95C"/>
<path d="M131.862 151.211C131.76 151.441 131.848 151.702 132.056 151.794C132.265 151.886 132.516 151.774 132.617 151.544C132.719 151.314 132.632 151.053 132.423 150.961C132.214 150.87 131.963 150.981 131.862 151.211Z" fill="#F5D95C"/>
<path d="M120.295 156.471C120.224 156.633 120.288 156.827 120.435 156.892C120.582 156.957 120.769 156.874 120.841 156.712C120.912 156.55 120.847 156.356 120.7 156.291C120.553 156.226 120.366 156.309 120.295 156.471Z" fill="#F5D95C"/>
<path d="M108.425 161.568C108.302 161.845 108.41 162.169 108.662 162.28C108.914 162.391 109.226 162.252 109.348 161.975C109.47 161.697 109.362 161.373 109.11 161.262C108.859 161.151 108.547 161.29 108.425 161.568Z" fill="#F5D95C"/>
<path d="M97.1312 166.948C97.1312 166.948 97.1323 167.06 97.1743 167.078C97.2162 167.097 97.2786 167.069 97.299 167.022C97.3194 166.976 97.2979 166.911 97.2559 166.893C97.2139 166.874 97.1516 166.902 97.1312 166.948Z" fill="#F5D95C"/>
<path d="M73.8549 177.347C73.8549 177.347 73.8445 177.371 73.8652 177.38C73.8859 177.389 73.8859 177.389 73.8963 177.365C73.9067 177.342 73.9067 177.342 73.886 177.333C73.8653 177.324 73.8653 177.324 73.8549 177.347Z" fill="#F5D95C"/>
<path d="M233.227 92.4897C233.227 92.4897 233.217 92.5133 233.237 92.5225C233.258 92.5316 233.258 92.5316 233.268 92.508C233.279 92.4844 233.279 92.4844 233.258 92.4752C233.237 92.4661 233.237 92.4661 233.227 92.4897Z" fill="#F5D95C"/>
<path d="M221.438 97.6221C221.438 97.6221 221.43 97.8113 221.514 97.8482C221.598 97.8851 221.691 97.8436 221.732 97.7513C221.772 97.6591 221.74 97.5622 221.656 97.5252C221.572 97.4883 221.479 97.5299 221.438 97.6221Z" fill="#F5D95C"/>
<path d="M198.003 107.979C197.942 108.118 197.986 108.303 198.133 108.368C198.279 108.433 198.435 108.363 198.507 108.201C198.578 108.039 198.524 107.878 198.377 107.813C198.23 107.748 198.074 107.818 198.003 107.979Z" fill="#F5D95C"/>
<path d="M186.29 113.174C186.218 113.336 186.283 113.531 186.43 113.595C186.577 113.66 186.764 113.577 186.835 113.415C186.907 113.253 186.842 113.059 186.695 112.994C186.548 112.929 186.361 113.013 186.29 113.174Z" fill="#F5D95C"/>
<path d="M174.608 118.354C174.537 118.516 174.602 118.71 174.749 118.775C174.896 118.84 175.083 118.756 175.154 118.595C175.226 118.433 175.161 118.238 175.014 118.174C174.867 118.109 174.68 118.192 174.608 118.354Z" fill="#F5D95C"/>
<path d="M162.938 123.568C162.867 123.73 162.932 123.924 163.078 123.989C163.225 124.054 163.412 123.97 163.484 123.808C163.555 123.647 163.49 123.452 163.343 123.388C163.196 123.323 163.009 123.406 162.938 123.568Z" fill="#F5D95C"/>
<path d="M151.299 128.767C151.232 128.921 151.29 129.095 151.429 129.156C151.568 129.217 151.736 129.143 151.803 128.989C151.871 128.836 151.813 128.662 151.673 128.601C151.534 128.54 151.367 128.614 151.299 128.767Z" fill="#F5D95C"/>
<path d="M139.722 133.992C139.722 133.992 139.714 134.181 139.798 134.218C139.881 134.255 139.975 134.214 140.015 134.121C140.056 134.029 140.024 133.932 139.94 133.895C139.856 133.858 139.763 133.9 139.722 133.992Z" fill="#F5D95C"/>
<path d="M116.495 144.443C116.495 144.443 116.485 144.466 116.505 144.476C116.526 144.485 116.526 144.485 116.536 144.461C116.547 144.438 116.547 144.438 116.526 144.428C116.505 144.419 116.505 144.419 116.495 144.443Z" fill="#F5D95C"/>
</g>
</svg>
