<svg width="19" height="13" viewBox="0 0 19 13" fill="none" xmlns="http://www.w3.org/2000/svg">
<mask id="path-1-outside-1_202_3458" maskUnits="userSpaceOnUse" x="0.268554" y="0.0781243" width="19" height="12" fill="black">
<rect fill="white" x="0.268554" y="0.0781243" width="19" height="12"/>
<path d="M15.8302 1.07812C17.0424 1.07929 17.6919 2.47615 16.9611 3.40039L16.8868 3.48828L10.3722 10.5703C9.80272 11.1892 8.82606 11.1882 8.25696 10.5703L8.25598 10.5703L1.74036 3.48828C0.892866 2.56629 1.54838 1.07812 2.79895 1.07812L15.8302 1.07812Z"/>
</mask>
<g filter="url(#filter0_i_202_3458)">
<path d="M15.8302 1.07812C17.0424 1.07929 17.6919 2.47615 16.9611 3.40039L16.8868 3.48828L10.3722 10.5703C9.80272 11.1892 8.82606 11.1882 8.25696 10.5703L8.25598 10.5703L1.74036 3.48828C0.892866 2.56629 1.54838 1.07812 2.79895 1.07812L15.8302 1.07812Z" fill="#00D958"/>
</g>
<path d="M15.8302 1.07812L15.8312 0.0781249L15.8302 0.0781249L15.8302 1.07812ZM16.9611 3.40039L17.7251 4.04557L17.7355 4.03326L17.7455 4.02063L16.9611 3.40039ZM16.8868 3.48828L17.6228 4.16529L17.6372 4.14967L17.6509 4.13346L16.8868 3.48828ZM10.3722 10.5703L11.1081 11.2474L11.1082 11.2473L10.3722 10.5703ZM8.25696 10.5703L8.99252 9.89285L8.69545 9.57031L8.25696 9.57031L8.25696 10.5703ZM8.25598 10.5703L7.52006 11.2474L7.81717 11.5703L8.25598 11.5703L8.25598 10.5703ZM1.74036 3.48828L1.00413 4.16502L1.00443 4.16535L1.74036 3.48828ZM2.79895 1.07812L2.79895 2.07812L2.79895 1.07812ZM15.8302 1.07812L15.8292 2.07812C16.194 2.07847 16.3968 2.50176 16.1766 2.78016L16.9611 3.40039L17.7455 4.02063C18.9869 2.45054 17.8908 0.0800997 15.8312 0.0781254L15.8302 1.07812ZM16.9611 3.40039L16.197 2.75521L16.1228 2.8431L16.8868 3.48828L17.6509 4.13346L17.7251 4.04557L16.9611 3.40039ZM16.8868 3.48828L16.1509 2.81127L9.63622 9.8933L10.3722 10.5703L11.1082 11.2473L17.6228 4.16529L16.8868 3.48828ZM10.3722 10.5703L9.6363 9.89322C9.4636 10.0809 9.16617 10.0814 8.99252 9.89285L8.25696 10.5703L7.5214 11.2478C8.48596 12.295 10.1418 12.2976 11.1081 11.2474L10.3722 10.5703ZM8.25696 10.5703L8.25696 9.57031L8.25598 9.57031L8.25598 10.5703L8.25598 11.5703L8.25696 11.5703L8.25696 10.5703ZM8.25598 10.5703L8.9919 9.89325L2.47628 2.81122L1.74036 3.48828L1.00443 4.16535L7.52006 11.2474L8.25598 10.5703ZM1.74036 3.48828L2.47658 2.81154C2.21953 2.5319 2.41741 2.07812 2.79895 2.07812L2.79895 1.07812L2.79895 0.0781244C0.679344 0.0781242 -0.4338 2.60068 1.00413 4.16502L1.74036 3.48828ZM2.79895 1.07812L2.79895 2.07812L15.8302 2.07812L15.8302 1.07812L15.8302 0.0781249L2.79895 0.0781244L2.79895 1.07812Z" fill="black" mask="url(#path-1-outside-1_202_3458)"/>
<defs>
<filter id="filter0_i_202_3458" x="0.356201" y="-1.92188" width="17.9131" height="13.956" filterUnits="userSpaceOnUse" color-interpolation-filters="sRGB">
<feFlood flood-opacity="0" result="BackgroundImageFix"/>
<feBlend mode="normal" in="SourceGraphic" in2="BackgroundImageFix" result="shape"/>
<feColorMatrix in="SourceAlpha" type="matrix" values="0 0 0 0 0 0 0 0 0 0 0 0 0 0 0 0 0 0 127 0" result="hardAlpha"/>
<feOffset dy="-4"/>
<feGaussianBlur stdDeviation="1"/>
<feComposite in2="hardAlpha" operator="arithmetic" k2="-1" k3="1"/>
<feColorMatrix type="matrix" values="0 0 0 0 0 0 0 0 0 0 0 0 0 0 0 0 0 0 0.45 0"/>
<feBlend mode="normal" in2="shape" result="effect1_innerShadow_202_3458"/>
</filter>
</defs>
</svg>
