<svg width="388" height="69" viewBox="0 0 388 69" fill="none" xmlns="http://www.w3.org/2000/svg">
<g filter="url(#filter0_d_202_7231)">
<path d="M1.00827 5.99894C1.00886 3.23793 3.24726 1 6.00827 1H382C384.761 1 387 3.23858 387 6V39.5714C387 42.6629 384.651 45.2483 381.574 45.5439L195.912 63.375C194.64 63.4971 193.36 63.4971 192.088 63.375L6.42756 45.544C3.34972 45.2484 1.00052 42.6622 1.00118 39.5702L1.00827 5.99894Z" fill="#342E72"/>
<path d="M382 0.5C385.038 0.5 387.5 2.96243 387.5 6V39.5713C387.5 42.9204 384.955 45.7218 381.621 46.042L195.96 63.873C194.656 63.9982 193.344 63.9982 192.04 63.873L6.37988 46.042C3.04563 45.7218 0.500382 42.9199 0.500977 39.5703L0.507812 5.99902C0.508454 2.96207 2.97091 0.500249 6.00781 0.5H382Z" stroke="black"/>
</g>
<path d="M6.02612 1.5H381.974C384.459 1.5 386.473 3.51357 386.474 5.99805L386.489 36.6846C386.49 39.0011 384.732 40.9397 382.427 41.165L195.897 59.3955C194.636 59.5188 193.365 59.5188 192.103 59.3955L5.57397 41.165C3.26845 40.9397 1.51046 39.0011 1.51147 36.6846L1.52612 5.99805C1.52728 3.51359 3.54166 1.5 6.02612 1.5Z" fill="url(#paint0_linear_202_7231)"/>
<path d="M6.02612 1.5H381.974C384.459 1.5 386.473 3.51357 386.474 5.99805L386.489 36.6846C386.49 39.0011 384.732 40.9397 382.427 41.165L195.897 59.3955C194.636 59.5188 193.365 59.5188 192.103 59.3955L5.57397 41.165C3.26845 40.9397 1.51046 39.0011 1.51147 36.6846L1.52612 5.99805C1.52728 3.51359 3.54166 1.5 6.02612 1.5Z" stroke="#D2BFFF" style="mix-blend-mode:hard-light"/>
<path style="mix-blend-mode:hard-light" d="M382.038 2.15881C384.246 2.15904 386.037 3.94792 386.038 6.15588L386.041 13.2418C348.488 17.6861 276.561 20.694 194 20.694C111.438 20.694 39.5113 17.6861 1.95898 13.2418L1.96289 6.15588C1.9643 3.94778 3.75473 2.15881 5.96289 2.15881H382.038Z" fill="url(#paint1_radial_202_7231)" fill-opacity="0.25"/>
<g filter="url(#filter1_ddd_202_7231)">
<mask id="path-5-outside-1_202_7231" maskUnits="userSpaceOnUse" x="76" y="17.3953" width="235" height="20" fill="black">
<rect fill="white" x="76" y="17.3953" width="235" height="20"/>
<path d="M83.3702 35.7553C81.4662 35.7553 79.7222 35.4433 78.1382 34.8193L78.9782 31.3153C79.6022 31.5553 80.2662 31.7473 80.9702 31.8913C81.6902 32.0193 82.3622 32.0833 82.9862 32.0833C83.9142 32.0833 84.5782 31.9633 84.9782 31.7233C85.3942 31.4833 85.6022 31.0913 85.6022 30.5473C85.6022 29.8913 85.2342 29.4913 84.4982 29.3473L82.3622 28.9153C79.7062 28.3713 78.3782 26.7793 78.3782 24.1393C78.3782 22.4913 78.9222 21.2033 80.0102 20.2753C81.0982 19.3313 82.5942 18.8593 84.4982 18.8593C86.4022 18.8593 88.0982 19.1473 89.5862 19.7233L88.7222 23.1553C87.6182 22.7233 86.3222 22.5073 84.8342 22.5073C83.3622 22.5073 82.6262 22.9633 82.6262 23.8753C82.6262 24.5473 83.0502 24.9633 83.8982 25.1233L85.7222 25.4833C87.1942 25.7873 88.2742 26.3313 88.9622 27.1153C89.6662 27.8993 90.0182 28.9793 90.0182 30.3553C90.0182 32.1793 89.4742 33.5393 88.3862 34.4353C87.2982 35.3153 85.6262 35.7553 83.3702 35.7553ZM94.8263 35.3953V22.8673H90.8663V19.2193H103.394V22.8673H99.4343V35.3953H94.8263ZM102.659 35.3953L107.219 19.2193H113.315L118.019 35.3953H113.483L112.739 32.4193H107.795L107.051 35.3953H102.659ZM108.563 29.2753H111.947L110.267 22.4593L108.563 29.2753ZM119.394 35.3953V19.2193H125.754C127.802 19.2193 129.354 19.6753 130.41 20.5873C131.482 21.4993 132.018 22.8193 132.018 24.5473C132.018 25.6673 131.762 26.6193 131.25 27.4033C130.738 28.1713 130.026 28.7153 129.114 29.0353L133.05 35.3953H128.25L124.962 29.7073H123.762V35.3953H119.394ZM125.346 22.4833H123.762V26.6113H125.346C126.77 26.6113 127.482 25.9233 127.482 24.5473C127.482 23.1713 126.77 22.4833 125.346 22.4833ZM136.98 35.3953V22.8673H133.02V19.2193H145.548V22.8673H141.588V35.3953H136.98ZM154.952 35.3953V30.1153L149.696 19.2193H154.328L157.328 25.6273L160.352 19.2193H164.696L159.56 29.6353V35.3953H154.952ZM172.147 35.7553C169.731 35.7553 167.891 35.0353 166.627 33.5953C165.363 32.1553 164.731 30.0593 164.731 27.3073C164.731 24.5553 165.363 22.4593 166.627 21.0193C167.891 19.5793 169.731 18.8593 172.147 18.8593C174.563 18.8593 176.403 19.5793 177.667 21.0193C178.931 22.4593 179.563 24.5553 179.563 27.3073C179.563 30.0593 178.931 32.1553 177.667 33.5953C176.403 35.0353 174.563 35.7553 172.147 35.7553ZM172.147 32.1073C173.091 32.1073 173.763 31.7473 174.163 31.0273C174.563 30.2913 174.763 29.0513 174.763 27.3073C174.763 25.5633 174.563 24.3313 174.163 23.6113C173.763 22.8753 173.091 22.5073 172.147 22.5073C171.203 22.5073 170.531 22.8753 170.131 23.6113C169.731 24.3313 169.531 25.5633 169.531 27.3073C169.531 29.0513 169.731 30.2913 170.131 31.0273C170.531 31.7473 171.203 32.1073 172.147 32.1073ZM188.304 35.7553C185.92 35.7553 184.192 35.2113 183.12 34.1233C182.064 33.0193 181.536 31.2273 181.536 28.7473V19.2193H186.168V29.7313C186.168 31.2673 186.888 32.0353 188.328 32.0353C189.736 32.0353 190.44 31.2673 190.44 29.7313V19.2193H195.072V28.7473C195.072 31.2273 194.536 33.0193 193.464 34.1233C192.408 35.2113 190.688 35.7553 188.304 35.7553ZM197.725 35.3953V19.2193H204.085C206.133 19.2193 207.685 19.6753 208.741 20.5873C209.813 21.4993 210.349 22.8193 210.349 24.5473C210.349 25.6673 210.093 26.6193 209.581 27.4033C209.069 28.1713 208.357 28.7153 207.445 29.0353L211.381 35.3953H206.581L203.293 29.7073H202.093V35.3953H197.725ZM203.677 22.4833H202.093V26.6113H203.677C205.101 26.6113 205.813 25.9233 205.813 24.5473C205.813 23.1713 205.101 22.4833 203.677 22.4833ZM217.062 35.3953V19.2193H222.342L226.014 28.4113L229.71 19.2193H234.846V35.3953H230.862V25.0033L227.742 32.8033H224.19L221.07 25.1713V35.3953H217.062ZM237.723 35.3953V19.2193H242.331V35.3953H237.723ZM249.747 35.7553C247.843 35.7553 246.099 35.4433 244.515 34.8193L245.355 31.3153C245.979 31.5553 246.643 31.7473 247.347 31.8913C248.067 32.0193 248.739 32.0833 249.363 32.0833C250.291 32.0833 250.955 31.9633 251.355 31.7233C251.771 31.4833 251.979 31.0913 251.979 30.5473C251.979 29.8913 251.611 29.4913 250.875 29.3473L248.739 28.9153C246.083 28.3713 244.755 26.7793 244.755 24.1393C244.755 22.4913 245.299 21.2033 246.387 20.2753C247.475 19.3313 248.971 18.8593 250.875 18.8593C252.779 18.8593 254.475 19.1473 255.963 19.7233L255.099 23.1553C253.995 22.7233 252.699 22.5073 251.211 22.5073C249.739 22.5073 249.003 22.9633 249.003 23.8753C249.003 24.5473 249.427 24.9633 250.275 25.1233L252.099 25.4833C253.571 25.7873 254.651 26.3313 255.339 27.1153C256.043 27.8993 256.395 28.9793 256.395 30.3553C256.395 32.1793 255.851 33.5393 254.763 34.4353C253.675 35.3153 252.003 35.7553 249.747 35.7553ZM262.697 35.7553C260.793 35.7553 259.049 35.4433 257.465 34.8193L258.305 31.3153C258.929 31.5553 259.593 31.7473 260.297 31.8913C261.017 32.0193 261.689 32.0833 262.313 32.0833C263.241 32.0833 263.905 31.9633 264.305 31.7233C264.721 31.4833 264.929 31.0913 264.929 30.5473C264.929 29.8913 264.561 29.4913 263.825 29.3473L261.689 28.9153C259.033 28.3713 257.705 26.7793 257.705 24.1393C257.705 22.4913 258.249 21.2033 259.337 20.2753C260.425 19.3313 261.921 18.8593 263.825 18.8593C265.729 18.8593 267.425 19.1473 268.913 19.7233L268.049 23.1553C266.945 22.7233 265.649 22.5073 264.161 22.5073C262.689 22.5073 261.953 22.9633 261.953 23.8753C261.953 24.5473 262.377 24.9633 263.225 25.1233L265.049 25.4833C266.521 25.7873 267.601 26.3313 268.289 27.1153C268.993 27.8993 269.345 28.9793 269.345 30.3553C269.345 32.1793 268.801 33.5393 267.713 34.4353C266.625 35.3153 264.953 35.7553 262.697 35.7553ZM271.345 35.3953V19.2193H275.953V35.3953H271.345ZM285.554 35.7553C283.138 35.7553 281.298 35.0353 280.034 33.5953C278.77 32.1553 278.138 30.0593 278.138 27.3073C278.138 24.5553 278.77 22.4593 280.034 21.0193C281.298 19.5793 283.138 18.8593 285.554 18.8593C287.97 18.8593 289.81 19.5793 291.074 21.0193C292.338 22.4593 292.97 24.5553 292.97 27.3073C292.97 30.0593 292.338 32.1553 291.074 33.5953C289.81 35.0353 287.97 35.7553 285.554 35.7553ZM285.554 32.1073C286.498 32.1073 287.17 31.7473 287.57 31.0273C287.97 30.2913 288.17 29.0513 288.17 27.3073C288.17 25.5633 287.97 24.3313 287.57 23.6113C287.17 22.8753 286.498 22.5073 285.554 22.5073C284.61 22.5073 283.938 22.8753 283.538 23.6113C283.138 24.3313 282.938 25.5633 282.938 27.3073C282.938 29.0513 283.138 30.2913 283.538 31.0273C283.938 31.7473 284.61 32.1073 285.554 32.1073ZM295.159 35.3953V19.2193H299.959L305.167 29.3473V19.2193H309.175V35.3953H304.375L299.167 25.2673V35.3953H295.159Z"/>
</mask>
<path d="M83.3702 35.7553C81.4662 35.7553 79.7222 35.4433 78.1382 34.8193L78.9782 31.3153C79.6022 31.5553 80.2662 31.7473 80.9702 31.8913C81.6902 32.0193 82.3622 32.0833 82.9862 32.0833C83.9142 32.0833 84.5782 31.9633 84.9782 31.7233C85.3942 31.4833 85.6022 31.0913 85.6022 30.5473C85.6022 29.8913 85.2342 29.4913 84.4982 29.3473L82.3622 28.9153C79.7062 28.3713 78.3782 26.7793 78.3782 24.1393C78.3782 22.4913 78.9222 21.2033 80.0102 20.2753C81.0982 19.3313 82.5942 18.8593 84.4982 18.8593C86.4022 18.8593 88.0982 19.1473 89.5862 19.7233L88.7222 23.1553C87.6182 22.7233 86.3222 22.5073 84.8342 22.5073C83.3622 22.5073 82.6262 22.9633 82.6262 23.8753C82.6262 24.5473 83.0502 24.9633 83.8982 25.1233L85.7222 25.4833C87.1942 25.7873 88.2742 26.3313 88.9622 27.1153C89.6662 27.8993 90.0182 28.9793 90.0182 30.3553C90.0182 32.1793 89.4742 33.5393 88.3862 34.4353C87.2982 35.3153 85.6262 35.7553 83.3702 35.7553ZM94.8263 35.3953V22.8673H90.8663V19.2193H103.394V22.8673H99.4343V35.3953H94.8263ZM102.659 35.3953L107.219 19.2193H113.315L118.019 35.3953H113.483L112.739 32.4193H107.795L107.051 35.3953H102.659ZM108.563 29.2753H111.947L110.267 22.4593L108.563 29.2753ZM119.394 35.3953V19.2193H125.754C127.802 19.2193 129.354 19.6753 130.41 20.5873C131.482 21.4993 132.018 22.8193 132.018 24.5473C132.018 25.6673 131.762 26.6193 131.25 27.4033C130.738 28.1713 130.026 28.7153 129.114 29.0353L133.05 35.3953H128.25L124.962 29.7073H123.762V35.3953H119.394ZM125.346 22.4833H123.762V26.6113H125.346C126.77 26.6113 127.482 25.9233 127.482 24.5473C127.482 23.1713 126.77 22.4833 125.346 22.4833ZM136.98 35.3953V22.8673H133.02V19.2193H145.548V22.8673H141.588V35.3953H136.98ZM154.952 35.3953V30.1153L149.696 19.2193H154.328L157.328 25.6273L160.352 19.2193H164.696L159.56 29.6353V35.3953H154.952ZM172.147 35.7553C169.731 35.7553 167.891 35.0353 166.627 33.5953C165.363 32.1553 164.731 30.0593 164.731 27.3073C164.731 24.5553 165.363 22.4593 166.627 21.0193C167.891 19.5793 169.731 18.8593 172.147 18.8593C174.563 18.8593 176.403 19.5793 177.667 21.0193C178.931 22.4593 179.563 24.5553 179.563 27.3073C179.563 30.0593 178.931 32.1553 177.667 33.5953C176.403 35.0353 174.563 35.7553 172.147 35.7553ZM172.147 32.1073C173.091 32.1073 173.763 31.7473 174.163 31.0273C174.563 30.2913 174.763 29.0513 174.763 27.3073C174.763 25.5633 174.563 24.3313 174.163 23.6113C173.763 22.8753 173.091 22.5073 172.147 22.5073C171.203 22.5073 170.531 22.8753 170.131 23.6113C169.731 24.3313 169.531 25.5633 169.531 27.3073C169.531 29.0513 169.731 30.2913 170.131 31.0273C170.531 31.7473 171.203 32.1073 172.147 32.1073ZM188.304 35.7553C185.92 35.7553 184.192 35.2113 183.12 34.1233C182.064 33.0193 181.536 31.2273 181.536 28.7473V19.2193H186.168V29.7313C186.168 31.2673 186.888 32.0353 188.328 32.0353C189.736 32.0353 190.44 31.2673 190.44 29.7313V19.2193H195.072V28.7473C195.072 31.2273 194.536 33.0193 193.464 34.1233C192.408 35.2113 190.688 35.7553 188.304 35.7553ZM197.725 35.3953V19.2193H204.085C206.133 19.2193 207.685 19.6753 208.741 20.5873C209.813 21.4993 210.349 22.8193 210.349 24.5473C210.349 25.6673 210.093 26.6193 209.581 27.4033C209.069 28.1713 208.357 28.7153 207.445 29.0353L211.381 35.3953H206.581L203.293 29.7073H202.093V35.3953H197.725ZM203.677 22.4833H202.093V26.6113H203.677C205.101 26.6113 205.813 25.9233 205.813 24.5473C205.813 23.1713 205.101 22.4833 203.677 22.4833ZM217.062 35.3953V19.2193H222.342L226.014 28.4113L229.71 19.2193H234.846V35.3953H230.862V25.0033L227.742 32.8033H224.19L221.07 25.1713V35.3953H217.062ZM237.723 35.3953V19.2193H242.331V35.3953H237.723ZM249.747 35.7553C247.843 35.7553 246.099 35.4433 244.515 34.8193L245.355 31.3153C245.979 31.5553 246.643 31.7473 247.347 31.8913C248.067 32.0193 248.739 32.0833 249.363 32.0833C250.291 32.0833 250.955 31.9633 251.355 31.7233C251.771 31.4833 251.979 31.0913 251.979 30.5473C251.979 29.8913 251.611 29.4913 250.875 29.3473L248.739 28.9153C246.083 28.3713 244.755 26.7793 244.755 24.1393C244.755 22.4913 245.299 21.2033 246.387 20.2753C247.475 19.3313 248.971 18.8593 250.875 18.8593C252.779 18.8593 254.475 19.1473 255.963 19.7233L255.099 23.1553C253.995 22.7233 252.699 22.5073 251.211 22.5073C249.739 22.5073 249.003 22.9633 249.003 23.8753C249.003 24.5473 249.427 24.9633 250.275 25.1233L252.099 25.4833C253.571 25.7873 254.651 26.3313 255.339 27.1153C256.043 27.8993 256.395 28.9793 256.395 30.3553C256.395 32.1793 255.851 33.5393 254.763 34.4353C253.675 35.3153 252.003 35.7553 249.747 35.7553ZM262.697 35.7553C260.793 35.7553 259.049 35.4433 257.465 34.8193L258.305 31.3153C258.929 31.5553 259.593 31.7473 260.297 31.8913C261.017 32.0193 261.689 32.0833 262.313 32.0833C263.241 32.0833 263.905 31.9633 264.305 31.7233C264.721 31.4833 264.929 31.0913 264.929 30.5473C264.929 29.8913 264.561 29.4913 263.825 29.3473L261.689 28.9153C259.033 28.3713 257.705 26.7793 257.705 24.1393C257.705 22.4913 258.249 21.2033 259.337 20.2753C260.425 19.3313 261.921 18.8593 263.825 18.8593C265.729 18.8593 267.425 19.1473 268.913 19.7233L268.049 23.1553C266.945 22.7233 265.649 22.5073 264.161 22.5073C262.689 22.5073 261.953 22.9633 261.953 23.8753C261.953 24.5473 262.377 24.9633 263.225 25.1233L265.049 25.4833C266.521 25.7873 267.601 26.3313 268.289 27.1153C268.993 27.8993 269.345 28.9793 269.345 30.3553C269.345 32.1793 268.801 33.5393 267.713 34.4353C266.625 35.3153 264.953 35.7553 262.697 35.7553ZM271.345 35.3953V19.2193H275.953V35.3953H271.345ZM285.554 35.7553C283.138 35.7553 281.298 35.0353 280.034 33.5953C278.77 32.1553 278.138 30.0593 278.138 27.3073C278.138 24.5553 278.77 22.4593 280.034 21.0193C281.298 19.5793 283.138 18.8593 285.554 18.8593C287.97 18.8593 289.81 19.5793 291.074 21.0193C292.338 22.4593 292.97 24.5553 292.97 27.3073C292.97 30.0593 292.338 32.1553 291.074 33.5953C289.81 35.0353 287.97 35.7553 285.554 35.7553ZM285.554 32.1073C286.498 32.1073 287.17 31.7473 287.57 31.0273C287.97 30.2913 288.17 29.0513 288.17 27.3073C288.17 25.5633 287.97 24.3313 287.57 23.6113C287.17 22.8753 286.498 22.5073 285.554 22.5073C284.61 22.5073 283.938 22.8753 283.538 23.6113C283.138 24.3313 282.938 25.5633 282.938 27.3073C282.938 29.0513 283.138 30.2913 283.538 31.0273C283.938 31.7473 284.61 32.1073 285.554 32.1073ZM295.159 35.3953V19.2193H299.959L305.167 29.3473V19.2193H309.175V35.3953H304.375L299.167 25.2673V35.3953H295.159Z" fill="white"/>
<path d="M78.1382 34.8193L77.1502 34.5825L76.9444 35.441L77.7658 35.7646L78.1382 34.8193ZM78.9782 31.3153L79.3429 30.367L78.2606 29.9507L77.9902 31.0785L78.9782 31.3153ZM80.9702 31.8913L80.7666 32.8867L80.7795 32.8893L80.7924 32.8916L80.9702 31.8913ZM84.9782 31.7233L84.4705 30.8433L84.463 30.8476L84.4555 30.8521L84.9782 31.7233ZM84.4982 29.3473L84.2968 30.3432L84.3031 30.3444L84.4982 29.3473ZM82.3622 28.9153L82.1584 29.9107L82.1608 29.9112L82.3622 28.9153ZM80.0102 20.2753L80.6696 21.0484L80.6761 21.0427L80.0102 20.2753ZM89.5862 19.7233L90.5715 19.9714L90.7908 19.1001L89.953 18.7758L89.5862 19.7233ZM88.7222 23.1553L88.352 24.1015L89.4259 24.5217L89.7075 23.4034L88.7222 23.1553ZM83.8982 25.1233L84.095 24.1265L84.0866 24.1249L83.8982 25.1233ZM85.7222 25.4833L85.9277 24.4883L85.919 24.4866L85.7222 25.4833ZM88.9622 27.1153L88.1985 27.7855L88.2063 27.7941L88.9622 27.1153ZM88.3862 34.4353L89.0252 35.2253L89.0321 35.2196L88.3862 34.4353ZM83.3702 35.7553V34.7393C81.5786 34.7393 79.9628 34.4461 78.5106 33.874L78.1382 34.8193L77.7658 35.7646C79.4817 36.4406 81.3538 36.7713 83.3702 36.7713V35.7553ZM78.1382 34.8193L79.1262 35.0562L79.9662 31.5522L78.9782 31.3153L77.9902 31.0785L77.1502 34.5825L78.1382 34.8193ZM78.9782 31.3153L78.6135 32.2636C79.2935 32.5252 80.0118 32.7323 80.7666 32.8867L80.9702 31.8913L81.1738 30.8959C80.5207 30.7623 79.9109 30.5855 79.3429 30.367L78.9782 31.3153ZM80.9702 31.8913L80.7924 32.8916C81.5614 33.0283 82.2935 33.0993 82.9862 33.0993V32.0833V31.0673C82.431 31.0673 81.8191 31.0103 81.1481 30.891L80.9702 31.8913ZM82.9862 32.0833V33.0993C83.9489 33.0993 84.8512 32.9844 85.5009 32.5945L84.9782 31.7233L84.4555 30.8521C84.3053 30.9423 83.8796 31.0673 82.9862 31.0673V32.0833ZM84.9782 31.7233L85.4859 32.6034C86.2636 32.1547 86.6182 31.3965 86.6182 30.5473H85.6022H84.5862C84.5862 30.6903 84.5592 30.7533 84.5487 30.7731C84.5415 30.7867 84.5274 30.8105 84.4705 30.8433L84.9782 31.7233ZM85.6022 30.5473H86.6182C86.6182 30.0201 86.4648 29.4922 86.0739 29.0674C85.6969 28.6577 85.1948 28.4483 84.6933 28.3502L84.4982 29.3473L84.3031 30.3444C84.5377 30.3903 84.5875 30.453 84.5785 30.4432C84.5738 30.4381 84.5721 30.4329 84.5738 30.4377C84.5765 30.4454 84.5862 30.4779 84.5862 30.5473H85.6022ZM84.4982 29.3473L84.6996 28.3515L82.5636 27.9195L82.3622 28.9153L82.1608 29.9112L84.2968 30.3432L84.4982 29.3473ZM82.3622 28.9153L82.5661 27.92C81.3937 27.6799 80.6309 27.2337 80.1544 26.6625C79.6805 26.0944 79.3942 25.288 79.3942 24.1393H78.3782H77.3622C77.3622 25.6307 77.7399 26.9402 78.594 27.9641C79.4456 28.9849 80.6747 29.6068 82.1584 29.9107L82.3622 28.9153ZM78.3782 24.1393H79.3942C79.3942 22.7383 79.8436 21.7528 80.6696 21.0483L80.0102 20.2753L79.3509 19.5023C78.0008 20.6539 77.3622 22.2443 77.3622 24.1393H78.3782ZM80.0102 20.2753L80.6761 21.0427C81.5267 20.3046 82.759 19.8753 84.4982 19.8753V18.8593V17.8433C82.4295 17.8433 80.6697 18.358 79.3444 19.5079L80.0102 20.2753ZM84.4982 18.8593V19.8753C86.3005 19.8753 87.8687 20.1479 89.2195 20.6708L89.5862 19.7233L89.953 18.7758C88.3278 18.1467 86.504 17.8433 84.4982 17.8433V18.8593ZM89.5862 19.7233L88.601 19.4753L87.737 22.9073L88.7222 23.1553L89.7075 23.4034L90.5715 19.9714L89.5862 19.7233ZM88.7222 23.1553L89.0925 22.2092C87.8446 21.7209 86.4178 21.4913 84.8342 21.4913V22.5073V23.5233C86.2266 23.5233 87.3918 23.7257 88.352 24.1015L88.7222 23.1553ZM84.8342 22.5073V21.4913C84.0263 21.4913 83.2486 21.6105 82.6431 21.9857C81.9573 22.4106 81.6102 23.0903 81.6102 23.8753H82.6262H83.6422C83.6422 23.8296 83.6468 23.8 83.6507 23.783C83.6545 23.7667 83.6581 23.7597 83.6589 23.7582C83.6597 23.7568 83.6612 23.754 83.6666 23.7485C83.6723 23.7425 83.686 23.7299 83.7133 23.713C83.8439 23.6321 84.1702 23.5233 84.8342 23.5233V22.5073ZM82.6262 23.8753H81.6102C81.6102 24.445 81.7997 24.9917 82.2327 25.4166C82.6395 25.8157 83.1733 26.0205 83.7098 26.1217L83.8982 25.1233L84.0866 24.1249C83.7752 24.0662 83.6729 23.9829 83.6558 23.9661C83.6519 23.9623 83.6513 23.9611 83.6521 23.9622C83.6529 23.9634 83.653 23.9639 83.6524 23.9624C83.6516 23.9604 83.6422 23.9359 83.6422 23.8753H82.6262ZM83.8982 25.1233L83.7015 26.1201L85.5255 26.4801L85.7222 25.4833L85.919 24.4866L84.095 24.1266L83.8982 25.1233ZM85.7222 25.4833L85.5167 26.4783C86.8645 26.7567 87.7082 27.2266 88.1986 27.7855L88.9622 27.1153L89.7259 26.4452C88.8403 25.436 87.5239 24.818 85.9277 24.4883L85.7222 25.4833ZM88.9622 27.1153L88.2063 27.7941C88.6969 28.3405 89.0022 29.1514 89.0022 30.3553H90.0182H91.0342C91.0342 28.8072 90.6355 27.4581 89.7182 26.4365L88.9622 27.1153ZM90.0182 30.3553H89.0022C89.0022 31.972 88.5286 33.0019 87.7403 33.651L88.3862 34.4353L89.0321 35.2196C90.4198 34.0768 91.0342 32.3867 91.0342 30.3553H90.0182ZM88.3862 34.4353L87.7473 33.6454C86.9216 34.3132 85.5263 34.7393 83.3702 34.7393V35.7553V36.7713C85.7262 36.7713 87.6748 36.3175 89.0252 35.2253L88.3862 34.4353ZM94.8263 35.3953H93.8103V36.4113H94.8263V35.3953ZM94.8263 22.8673H95.8423V21.8513H94.8263V22.8673ZM90.8663 22.8673H89.8503V23.8833H90.8663V22.8673ZM90.8663 19.2193V18.2033H89.8503V19.2193H90.8663ZM103.394 19.2193H104.41V18.2033H103.394V19.2193ZM103.394 22.8673V23.8833H104.41V22.8673H103.394ZM99.4343 22.8673V21.8513H98.4183V22.8673H99.4343ZM99.4343 35.3953V36.4113H100.45V35.3953H99.4343ZM94.8263 35.3953H95.8423V22.8673H94.8263H93.8103V35.3953H94.8263ZM94.8263 22.8673V21.8513H90.8663V22.8673V23.8833H94.8263V22.8673ZM90.8663 22.8673H91.8823V19.2193H90.8663H89.8503V22.8673H90.8663ZM90.8663 19.2193V20.2353H103.394V19.2193V18.2033H90.8663V19.2193ZM103.394 19.2193H102.378V22.8673H103.394H104.41V19.2193H103.394ZM103.394 22.8673V21.8513H99.4343V22.8673V23.8833H103.394V22.8673ZM99.4343 22.8673H98.4183V35.3953H99.4343H100.45V22.8673H99.4343ZM99.4343 35.3953V34.3793H94.8263V35.3953V36.4113H99.4343V35.3953ZM102.659 35.3953L101.681 35.1197L101.317 36.4113H102.659V35.3953ZM107.219 19.2193V18.2033H106.45L106.241 18.9437L107.219 19.2193ZM113.315 19.2193L114.291 18.9356L114.078 18.2033H113.315V19.2193ZM118.019 35.3953V36.4113H119.373L118.995 35.1116L118.019 35.3953ZM113.483 35.3953L112.497 35.6417L112.69 36.4113H113.483V35.3953ZM112.739 32.4193L113.725 32.1729L113.532 31.4033H112.739V32.4193ZM107.795 32.4193V31.4033H107.002L106.809 32.1729L107.795 32.4193ZM107.051 35.3953V36.4113H107.844L108.037 35.6417L107.051 35.3953ZM108.563 29.2753L107.577 29.0289L107.262 30.2913H108.563V29.2753ZM111.947 29.2753V30.2913H113.244L112.934 29.0322L111.947 29.2753ZM110.267 22.4593L111.254 22.2162L109.281 22.2129L110.267 22.4593ZM102.659 35.3953L103.637 35.671L108.197 19.495L107.219 19.2193L106.241 18.9437L101.681 35.1197L102.659 35.3953ZM107.219 19.2193V20.2353H113.315V19.2193V18.2033H107.219V19.2193ZM113.315 19.2193L112.34 19.503L117.044 35.679L118.019 35.3953L118.995 35.1116L114.291 18.9356L113.315 19.2193ZM118.019 35.3953V34.3793H113.483V35.3953V36.4113H118.019V35.3953ZM113.483 35.3953L114.469 35.1489L113.725 32.1729L112.739 32.4193L111.753 32.6657L112.497 35.6417L113.483 35.3953ZM112.739 32.4193V31.4033H107.795V32.4193V33.4353H112.739V32.4193ZM107.795 32.4193L106.809 32.1729L106.065 35.1489L107.051 35.3953L108.037 35.6417L108.781 32.6657L107.795 32.4193ZM107.051 35.3953V34.3793H102.659V35.3953V36.4113H107.051V35.3953ZM108.563 29.2753V30.2913H111.947V29.2753V28.2593H108.563V29.2753ZM111.947 29.2753L112.934 29.0322L111.254 22.2162L110.267 22.4593L109.281 22.7025L110.961 29.5185L111.947 29.2753ZM110.267 22.4593L109.281 22.2129L107.577 29.0289L108.563 29.2753L109.549 29.5217L111.253 22.7057L110.267 22.4593ZM119.394 35.3953H118.378V36.4113H119.394V35.3953ZM119.394 19.2193V18.2033H118.378V19.2193H119.394ZM130.41 20.5873L129.746 21.3563L129.752 21.3612L130.41 20.5873ZM131.25 27.4033L132.096 27.9669L132.101 27.9589L131.25 27.4033ZM129.114 29.0353L128.778 28.0766L127.585 28.4951L128.25 29.57L129.114 29.0353ZM133.05 35.3953V36.4113H134.874L133.914 34.8607L133.05 35.3953ZM128.25 35.3953L127.371 35.9038L127.664 36.4113H128.25V35.3953ZM124.962 29.7073L125.842 29.1989L125.548 28.6913H124.962V29.7073ZM123.762 29.7073V28.6913H122.746V29.7073H123.762ZM123.762 35.3953V36.4113H124.778V35.3953H123.762ZM123.762 22.4833V21.4673H122.746V22.4833H123.762ZM123.762 26.6113H122.746V27.6273H123.762V26.6113ZM119.394 35.3953H120.41V19.2193H119.394H118.378V35.3953H119.394ZM119.394 19.2193V20.2353H125.754V19.2193V18.2033H119.394V19.2193ZM125.754 19.2193V20.2353C127.67 20.2353 128.944 20.6638 129.746 21.3563L130.41 20.5873L131.074 19.8184C129.764 18.6868 127.935 18.2033 125.754 18.2033V19.2193ZM130.41 20.5873L129.752 21.3612C130.546 22.0368 131.002 23.0432 131.002 24.5473H132.018H133.034C133.034 22.5954 132.418 20.9618 131.069 19.8135L130.41 20.5873ZM132.018 24.5473H131.002C131.002 25.5092 130.784 26.259 130.4 26.8478L131.25 27.4033L132.101 27.9589C132.74 26.9796 133.034 25.8254 133.034 24.5473H132.018ZM131.25 27.4033L130.405 26.8397C130.021 27.4153 129.492 27.8259 128.778 28.0766L129.114 29.0353L129.451 29.994C130.56 29.6047 131.455 28.9274 132.096 27.9669L131.25 27.4033ZM129.114 29.0353L128.25 29.57L132.186 35.93L133.05 35.3953L133.914 34.8607L129.978 28.5007L129.114 29.0353ZM133.05 35.3953V34.3793H128.25V35.3953V36.4113H133.05V35.3953ZM128.25 35.3953L129.13 34.8869L125.842 29.1989L124.962 29.7073L124.083 30.2158L127.371 35.9038L128.25 35.3953ZM124.962 29.7073V28.6913H123.762V29.7073V30.7233H124.962V29.7073ZM123.762 29.7073H122.746V35.3953H123.762H124.778V29.7073H123.762ZM123.762 35.3953V34.3793H119.394V35.3953V36.4113H123.762V35.3953ZM125.346 22.4833V21.4673H123.762V22.4833V23.4993H125.346V22.4833ZM123.762 22.4833H122.746V26.6113H123.762H124.778V22.4833H123.762ZM123.762 26.6113V27.6273H125.346V26.6113V25.5953H123.762V26.6113ZM125.346 26.6113V27.6273C126.206 27.6273 127.039 27.42 127.654 26.826C128.275 26.2257 128.498 25.401 128.498 24.5473H127.482H126.466C126.466 25.0697 126.333 25.277 126.242 25.3647C126.145 25.4587 125.91 25.5953 125.346 25.5953V26.6113ZM127.482 24.5473H128.498C128.498 23.6937 128.275 22.869 127.654 22.2687C127.039 21.6747 126.206 21.4673 125.346 21.4673V22.4833V23.4993C125.91 23.4993 126.145 23.636 126.242 23.73C126.333 23.8177 126.466 24.025 126.466 24.5473H127.482ZM136.98 35.3953H135.964V36.4113H136.98V35.3953ZM136.98 22.8673H137.996V21.8513H136.98V22.8673ZM133.02 22.8673H132.004V23.8833H133.02V22.8673ZM133.02 19.2193V18.2033H132.004V19.2193H133.02ZM145.548 19.2193H146.564V18.2033H145.548V19.2193ZM145.548 22.8673V23.8833H146.564V22.8673H145.548ZM141.588 22.8673V21.8513H140.572V22.8673H141.588ZM141.588 35.3953V36.4113H142.604V35.3953H141.588ZM136.98 35.3953H137.996V22.8673H136.98H135.964V35.3953H136.98ZM136.98 22.8673V21.8513H133.02V22.8673V23.8833H136.98V22.8673ZM133.02 22.8673H134.036V19.2193H133.02H132.004V22.8673H133.02ZM133.02 19.2193V20.2353H145.548V19.2193V18.2033H133.02V19.2193ZM145.548 19.2193H144.532V22.8673H145.548H146.564V19.2193H145.548ZM145.548 22.8673V21.8513H141.588V22.8673V23.8833H145.548V22.8673ZM141.588 22.8673H140.572V35.3953H141.588H142.604V22.8673H141.588ZM141.588 35.3953V34.3793H136.98V35.3953V36.4113H141.588V35.3953ZM154.952 35.3953H153.936V36.4113H154.952V35.3953ZM154.952 30.1153H155.968V29.8831L155.867 29.6739L154.952 30.1153ZM149.696 19.2193V18.2033H148.078L148.781 19.6607L149.696 19.2193ZM154.328 19.2193L155.248 18.7885L154.974 18.2033H154.328V19.2193ZM157.328 25.6273L156.408 26.0581L157.324 28.0157L158.247 26.0609L157.328 25.6273ZM160.352 19.2193V18.2033H159.708L159.433 18.7857L160.352 19.2193ZM164.696 19.2193L165.607 19.6686L166.33 18.2033H164.696V19.2193ZM159.56 29.6353L158.649 29.186L158.544 29.3985V29.6353H159.56ZM159.56 35.3953V36.4113H160.576V35.3953H159.56ZM154.952 35.3953H155.968V30.1153H154.952H153.936V35.3953H154.952ZM154.952 30.1153L155.867 29.6739L150.611 18.7779L149.696 19.2193L148.781 19.6607L154.037 30.5567L154.952 30.1153ZM149.696 19.2193V20.2353H154.328V19.2193V18.2033H149.696V19.2193ZM154.328 19.2193L153.408 19.6501L156.408 26.0581L157.328 25.6273L158.248 25.1965L155.248 18.7885L154.328 19.2193ZM157.328 25.6273L158.247 26.0609L161.271 19.6529L160.352 19.2193L159.433 18.7857L156.409 25.1937L157.328 25.6273ZM160.352 19.2193V20.2353H164.696V19.2193V18.2033H160.352V19.2193ZM164.696 19.2193L163.785 18.77L158.649 29.186L159.56 29.6353L160.471 30.0846L165.607 19.6686L164.696 19.2193ZM159.56 29.6353H158.544V35.3953H159.56H160.576V29.6353H159.56ZM159.56 35.3953V34.3793H154.952V35.3953V36.4113H159.56V35.3953ZM166.627 33.5953L165.864 34.2656L166.627 33.5953ZM166.627 21.0193L165.864 20.3491L166.627 21.0193ZM177.667 21.0193L178.431 20.3491H178.431L177.667 21.0193ZM174.163 31.0273L175.052 31.5208L175.056 31.5125L174.163 31.0273ZM174.163 23.6113L173.271 24.0965L173.275 24.1047L174.163 23.6113ZM170.131 23.6113L171.02 24.1048L171.024 24.0965L170.131 23.6113ZM170.131 31.0273L169.239 31.5125L169.243 31.5207L170.131 31.0273ZM172.147 35.7553V34.7393C169.942 34.7393 168.414 34.0904 167.391 32.9251L166.627 33.5953L165.864 34.2656C167.369 35.9803 169.521 36.7713 172.147 36.7713V35.7553ZM166.627 33.5953L167.391 32.9251C166.348 31.7371 165.747 29.9188 165.747 27.3073H164.731H163.715C163.715 30.1999 164.379 32.5735 165.864 34.2656L166.627 33.5953ZM164.731 27.3073H165.747C165.747 24.6959 166.348 22.8775 167.391 21.6896L166.627 21.0193L165.864 20.3491C164.379 22.0411 163.715 24.4148 163.715 27.3073H164.731ZM166.627 21.0193L167.391 21.6896C168.414 20.5243 169.942 19.8753 172.147 19.8753V18.8593V17.8433C169.521 17.8433 167.369 18.6344 165.864 20.3491L166.627 21.0193ZM172.147 18.8593V19.8753C174.353 19.8753 175.881 20.5243 176.904 21.6896L177.667 21.0193L178.431 20.3491C176.926 18.6344 174.774 17.8433 172.147 17.8433V18.8593ZM177.667 21.0193L176.904 21.6896C177.947 22.8775 178.547 24.6959 178.547 27.3073H179.563H180.579C180.579 24.4148 179.916 22.0411 178.431 20.3491L177.667 21.0193ZM179.563 27.3073H178.547C178.547 29.9188 177.947 31.7371 176.904 32.9251L177.667 33.5953L178.431 34.2656C179.916 32.5735 180.579 30.1999 180.579 27.3073H179.563ZM177.667 33.5953L176.904 32.9251C175.881 34.0904 174.353 34.7393 172.147 34.7393V35.7553V36.7713C174.774 36.7713 176.926 35.9803 178.431 34.2656L177.667 33.5953ZM172.147 32.1073V33.1233C173.395 33.1233 174.443 32.6164 175.051 31.5207L174.163 31.0273L173.275 30.5339C173.084 30.8782 172.787 31.0913 172.147 31.0913V32.1073ZM174.163 31.0273L175.056 31.5125C175.586 30.5375 175.779 29.0748 175.779 27.3073H174.763H173.747C173.747 29.0278 173.541 30.0451 173.271 30.5422L174.163 31.0273ZM174.763 27.3073H175.779C175.779 25.5432 175.587 24.0817 175.051 23.1179L174.163 23.6113L173.275 24.1047C173.54 24.5809 173.747 25.5834 173.747 27.3073H174.763ZM174.163 23.6113L175.056 23.1262C174.452 22.0154 173.406 21.4913 172.147 21.4913V22.5073V23.5233C172.777 23.5233 173.074 23.7353 173.271 24.0965L174.163 23.6113ZM172.147 22.5073V21.4913C170.889 21.4913 169.842 22.0154 169.239 23.1262L170.131 23.6113L171.024 24.0965C171.22 23.7353 171.518 23.5233 172.147 23.5233V22.5073ZM170.131 23.6113L169.243 23.1179C168.708 24.0817 168.515 25.5432 168.515 27.3073H169.531H170.547C170.547 25.5834 170.755 24.5809 171.019 24.1047L170.131 23.6113ZM169.531 27.3073H168.515C168.515 29.0748 168.709 30.5375 169.239 31.5125L170.131 31.0273L171.024 30.5422C170.754 30.0451 170.547 29.0278 170.547 27.3073H169.531ZM170.131 31.0273L169.243 31.5207C169.852 32.6164 170.899 33.1233 172.147 33.1233V32.1073V31.0913C171.507 31.0913 171.211 30.8782 171.019 30.5339L170.131 31.0273ZM183.12 34.1233L182.386 34.8256L182.391 34.831L182.396 34.8364L183.12 34.1233ZM181.536 19.2193V18.2033H180.52V19.2193H181.536ZM186.168 19.2193H187.184V18.2033H186.168V19.2193ZM190.44 19.2193V18.2033H189.424V19.2193H190.44ZM195.072 19.2193H196.088V18.2033H195.072V19.2193ZM193.464 34.1233L192.735 33.4155L192.735 33.4157L193.464 34.1233ZM188.304 35.7553V34.7393C186.043 34.7393 184.641 34.2194 183.844 33.4102L183.12 34.1233L182.396 34.8364C183.743 36.2033 185.797 36.7713 188.304 36.7713V35.7553ZM183.12 34.1233L183.854 33.421C183.064 32.5944 182.552 31.1206 182.552 28.7473H181.536H180.52C180.52 31.334 181.065 33.4443 182.386 34.8256L183.12 34.1233ZM181.536 28.7473H182.552V19.2193H181.536H180.52V28.7473H181.536ZM181.536 19.2193V20.2353H186.168V19.2193V18.2033H181.536V19.2193ZM186.168 19.2193H185.152V29.7313H186.168H187.184V19.2193H186.168ZM186.168 29.7313H185.152C185.152 30.6402 185.364 31.5109 185.967 32.1542C186.581 32.8098 187.434 33.0513 188.328 33.0513V32.0353V31.0193C187.782 31.0193 187.555 30.8768 187.449 30.7644C187.332 30.6397 187.184 30.3584 187.184 29.7313H186.168ZM188.328 32.0353V33.0513C189.212 33.0513 190.056 32.806 190.661 32.1459C191.251 31.5024 191.456 30.6351 191.456 29.7313H190.44H189.424C189.424 30.3636 189.277 30.6482 189.163 30.7728C189.064 30.8806 188.852 31.0193 188.328 31.0193V32.0353ZM190.44 29.7313H191.456V19.2193H190.44H189.424V29.7313H190.44ZM190.44 19.2193V20.2353H195.072V19.2193V18.2033H190.44V19.2193ZM195.072 19.2193H194.056V28.7473H195.072H196.088V19.2193H195.072ZM195.072 28.7473H194.056C194.056 31.1174 193.538 32.5887 192.735 33.4155L193.464 34.1233L194.193 34.8311C195.534 33.4499 196.088 31.3372 196.088 28.7473H195.072ZM193.464 34.1233L192.735 33.4157C191.956 34.2187 190.566 34.7393 188.304 34.7393V35.7553V36.7713C190.81 36.7713 192.86 36.204 194.193 34.8309L193.464 34.1233ZM197.725 35.3953H196.709V36.4113H197.725V35.3953ZM197.725 19.2193V18.2033H196.709V19.2193H197.725ZM208.741 20.5873L208.077 21.3563L208.083 21.3612L208.741 20.5873ZM209.581 27.4033L210.427 27.9669L210.432 27.9589L209.581 27.4033ZM207.445 29.0353L207.109 28.0766L205.916 28.4951L206.581 29.57L207.445 29.0353ZM211.381 35.3953V36.4113H213.205L212.245 34.8607L211.381 35.3953ZM206.581 35.3953L205.702 35.9038L205.995 36.4113H206.581V35.3953ZM203.293 29.7073L204.173 29.1989L203.879 28.6913H203.293V29.7073ZM202.093 29.7073V28.6913H201.077V29.7073H202.093ZM202.093 35.3953V36.4113H203.109V35.3953H202.093ZM202.093 22.4833V21.4673H201.077V22.4833H202.093ZM202.093 26.6113H201.077V27.6273H202.093V26.6113ZM197.725 35.3953H198.741V19.2193H197.725H196.709V35.3953H197.725ZM197.725 19.2193V20.2353H204.085V19.2193V18.2033H197.725V19.2193ZM204.085 19.2193V20.2353C206.001 20.2353 207.275 20.6638 208.077 21.3563L208.741 20.5873L209.405 19.8184C208.095 18.6868 206.266 18.2033 204.085 18.2033V19.2193ZM208.741 20.5873L208.083 21.3612C208.877 22.0368 209.333 23.0432 209.333 24.5473H210.349H211.365C211.365 22.5954 210.749 20.9618 209.4 19.8135L208.741 20.5873ZM210.349 24.5473H209.333C209.333 25.5092 209.115 26.259 208.73 26.8478L209.581 27.4033L210.432 27.9589C211.071 26.9796 211.365 25.8254 211.365 24.5473H210.349ZM209.581 27.4033L208.736 26.8397C208.352 27.4153 207.823 27.8259 207.109 28.0766L207.445 29.0353L207.782 29.994C208.891 29.6047 209.786 28.9274 210.427 27.9669L209.581 27.4033ZM207.445 29.0353L206.581 29.57L210.517 35.93L211.381 35.3953L212.245 34.8607L208.309 28.5007L207.445 29.0353ZM211.381 35.3953V34.3793H206.581V35.3953V36.4113H211.381V35.3953ZM206.581 35.3953L207.461 34.8869L204.173 29.1989L203.293 29.7073L202.414 30.2158L205.702 35.9038L206.581 35.3953ZM203.293 29.7073V28.6913H202.093V29.7073V30.7233H203.293V29.7073ZM202.093 29.7073H201.077V35.3953H202.093H203.109V29.7073H202.093ZM202.093 35.3953V34.3793H197.725V35.3953V36.4113H202.093V35.3953ZM203.677 22.4833V21.4673H202.093V22.4833V23.4993H203.677V22.4833ZM202.093 22.4833H201.077V26.6113H202.093H203.109V22.4833H202.093ZM202.093 26.6113V27.6273H203.677V26.6113V25.5953H202.093V26.6113ZM203.677 26.6113V27.6273C204.537 27.6273 205.37 27.42 205.985 26.826C206.606 26.2257 206.829 25.401 206.829 24.5473H205.813H204.797C204.797 25.0697 204.664 25.277 204.573 25.3647C204.476 25.4587 204.241 25.5953 203.677 25.5953V26.6113ZM205.813 24.5473H206.829C206.829 23.6937 206.606 22.869 205.985 22.2687C205.37 21.6747 204.537 21.4673 203.677 21.4673V22.4833V23.4993C204.241 23.4993 204.476 23.636 204.573 23.73C204.664 23.8177 204.797 24.025 204.797 24.5473H205.813ZM217.062 35.3953H216.046V36.4113H217.062V35.3953ZM217.062 19.2193V18.2033H216.046V19.2193H217.062ZM222.342 19.2193L223.286 18.8424L223.03 18.2033H222.342V19.2193ZM226.014 28.4113L225.071 28.7882L226.011 31.1424L226.957 28.7904L226.014 28.4113ZM229.71 19.2193V18.2033H229.023L228.767 18.8403L229.71 19.2193ZM234.846 19.2193H235.862V18.2033H234.846V19.2193ZM234.846 35.3953V36.4113H235.862V35.3953H234.846ZM230.862 35.3953H229.846V36.4113H230.862V35.3953ZM230.862 25.0033H231.878L229.919 24.626L230.862 25.0033ZM227.742 32.8033V33.8193H228.43L228.685 33.1807L227.742 32.8033ZM224.19 32.8033L223.25 33.1878L223.508 33.8193H224.19V32.8033ZM221.07 25.1713L222.01 24.7869L220.054 25.1713H221.07ZM221.07 35.3953V36.4113H222.086V35.3953H221.07ZM217.062 35.3953H218.078V19.2193H217.062H216.046V35.3953H217.062ZM217.062 19.2193V20.2353H222.342V19.2193V18.2033H217.062V19.2193ZM222.342 19.2193L221.399 19.5962L225.071 28.7882L226.014 28.4113L226.958 28.0344L223.286 18.8424L222.342 19.2193ZM226.014 28.4113L226.957 28.7904L230.653 19.5984L229.71 19.2193L228.767 18.8403L225.071 28.0323L226.014 28.4113ZM229.71 19.2193V20.2353H234.846V19.2193V18.2033H229.71V19.2193ZM234.846 19.2193H233.83V35.3953H234.846H235.862V19.2193H234.846ZM234.846 35.3953V34.3793H230.862V35.3953V36.4113H234.846V35.3953ZM230.862 35.3953H231.878V25.0033H230.862H229.846V35.3953H230.862ZM230.862 25.0033L229.919 24.626L226.799 32.426L227.742 32.8033L228.685 33.1807L231.805 25.3807L230.862 25.0033ZM227.742 32.8033V31.7873H224.19V32.8033V33.8193H227.742V32.8033ZM224.19 32.8033L225.13 32.4189L222.01 24.7869L221.07 25.1713L220.13 25.5558L223.25 33.1878L224.19 32.8033ZM221.07 25.1713H220.054V35.3953H221.07H222.086V25.1713H221.07ZM221.07 35.3953V34.3793H217.062V35.3953V36.4113H221.07V35.3953ZM237.723 35.3953H236.707V36.4113H237.723V35.3953ZM237.723 19.2193V18.2033H236.707V19.2193H237.723ZM242.331 19.2193H243.347V18.2033H242.331V19.2193ZM242.331 35.3953V36.4113H243.347V35.3953H242.331ZM237.723 35.3953H238.739V19.2193H237.723H236.707V35.3953H237.723ZM237.723 19.2193V20.2353H242.331V19.2193V18.2033H237.723V19.2193ZM242.331 19.2193H241.315V35.3953H242.331H243.347V19.2193H242.331ZM242.331 35.3953V34.3793H237.723V35.3953V36.4113H242.331V35.3953ZM244.515 34.8193L243.527 34.5825L243.322 35.441L244.143 35.7646L244.515 34.8193ZM245.355 31.3153L245.72 30.367L244.638 29.9507L244.367 31.0785L245.355 31.3153ZM247.347 31.8913L247.144 32.8867L247.157 32.8893L247.17 32.8916L247.347 31.8913ZM251.355 31.7233L250.848 30.8433L250.84 30.8476L250.833 30.8521L251.355 31.7233ZM250.875 29.3473L250.674 30.3432L250.68 30.3444L250.875 29.3473ZM248.739 28.9153L248.536 29.9107L248.538 29.9112L248.739 28.9153ZM246.387 20.2753L247.047 21.0484L247.053 21.0427L246.387 20.2753ZM255.963 19.7233L256.949 19.9714L257.168 19.1001L256.33 18.7758L255.963 19.7233ZM255.099 23.1553L254.729 24.1015L255.803 24.5217L256.085 23.4034L255.099 23.1553ZM250.275 25.1233L250.472 24.1265L250.464 24.1249L250.275 25.1233ZM252.099 25.4833L252.305 24.4883L252.296 24.4866L252.099 25.4833ZM255.339 27.1153L254.576 27.7855L254.583 27.7941L255.339 27.1153ZM254.763 34.4353L255.402 35.2253L255.409 35.2196L254.763 34.4353ZM249.747 35.7553V34.7393C247.956 34.7393 246.34 34.4461 244.888 33.874L244.515 34.8193L244.143 35.7646C245.859 36.4406 247.731 36.7713 249.747 36.7713V35.7553ZM244.515 34.8193L245.503 35.0562L246.343 31.5522L245.355 31.3153L244.367 31.0785L243.527 34.5825L244.515 34.8193ZM245.355 31.3153L244.991 32.2636C245.671 32.5252 246.389 32.7323 247.144 32.8867L247.347 31.8913L247.551 30.8959C246.898 30.7623 246.288 30.5855 245.72 30.367L245.355 31.3153ZM247.347 31.8913L247.17 32.8916C247.939 33.0283 248.671 33.0993 249.363 33.0993V32.0833V31.0673C248.808 31.0673 248.196 31.0103 247.525 30.891L247.347 31.8913ZM249.363 32.0833V33.0993C250.326 33.0993 251.228 32.9844 251.878 32.5945L251.355 31.7233L250.833 30.8521C250.682 30.9423 250.257 31.0673 249.363 31.0673V32.0833ZM251.355 31.7233L251.863 32.6034C252.641 32.1547 252.995 31.3965 252.995 30.5473H251.979H250.963C250.963 30.6903 250.936 30.7533 250.926 30.7731C250.919 30.7867 250.905 30.8105 250.848 30.8433L251.355 31.7233ZM251.979 30.5473H252.995C252.995 30.0201 252.842 29.4922 252.451 29.0674C252.074 28.6577 251.572 28.4483 251.07 28.3502L250.875 29.3473L250.68 30.3444C250.915 30.3903 250.965 30.453 250.956 30.4432C250.951 30.4381 250.949 30.4329 250.951 30.4377C250.954 30.4454 250.963 30.4779 250.963 30.5473H251.979ZM250.875 29.3473L251.077 28.3515L248.941 27.9195L248.739 28.9153L248.538 29.9112L250.674 30.3432L250.875 29.3473ZM248.739 28.9153L248.943 27.92C247.771 27.6799 247.008 27.2337 246.532 26.6625C246.058 26.0944 245.771 25.288 245.771 24.1393H244.755H243.739C243.739 25.6307 244.117 26.9402 244.971 27.9641C245.823 28.9849 247.052 29.6068 248.536 29.9107L248.739 28.9153ZM244.755 24.1393H245.771C245.771 22.7383 246.221 21.7528 247.047 21.0483L246.387 20.2753L245.728 19.5023C244.378 20.6539 243.739 22.2443 243.739 24.1393H244.755ZM246.387 20.2753L247.053 21.0427C247.904 20.3046 249.136 19.8753 250.875 19.8753V18.8593V17.8433C248.807 17.8433 247.047 18.358 245.722 19.5079L246.387 20.2753ZM250.875 18.8593V19.8753C252.678 19.8753 254.246 20.1479 255.597 20.6708L255.963 19.7233L256.33 18.7758C254.705 18.1467 252.881 17.8433 250.875 17.8433V18.8593ZM255.963 19.7233L254.978 19.4753L254.114 22.9073L255.099 23.1553L256.085 23.4034L256.949 19.9714L255.963 19.7233ZM255.099 23.1553L255.47 22.2092C254.222 21.7209 252.795 21.4913 251.211 21.4913V22.5073V23.5233C252.604 23.5233 253.769 23.7257 254.729 24.1015L255.099 23.1553ZM251.211 22.5073V21.4913C250.403 21.4913 249.626 21.6105 249.02 21.9857C248.335 22.4106 247.987 23.0903 247.987 23.8753H249.003H250.019C250.019 23.8296 250.024 23.8 250.028 23.783C250.032 23.7667 250.035 23.7597 250.036 23.7582C250.037 23.7568 250.038 23.754 250.044 23.7485C250.05 23.7425 250.063 23.7299 250.09 23.713C250.221 23.6321 250.547 23.5233 251.211 23.5233V22.5073ZM249.003 23.8753H247.987C247.987 24.445 248.177 24.9917 248.61 25.4166C249.017 25.8157 249.55 26.0205 250.087 26.1217L250.275 25.1233L250.464 24.1249C250.152 24.0662 250.05 23.9829 250.033 23.9661C250.029 23.9623 250.029 23.9611 250.029 23.9622C250.03 23.9634 250.03 23.9639 250.03 23.9624C250.029 23.9604 250.019 23.9359 250.019 23.8753H249.003ZM250.275 25.1233L250.079 26.1201L251.903 26.4801L252.099 25.4833L252.296 24.4866L250.472 24.1266L250.275 25.1233ZM252.099 25.4833L251.894 26.4783C253.242 26.7567 254.085 27.2266 254.576 27.7855L255.339 27.1153L256.103 26.4452C255.217 25.436 253.901 24.818 252.305 24.4883L252.099 25.4833ZM255.339 27.1153L254.583 27.7941C255.074 28.3405 255.379 29.1514 255.379 30.3553H256.395H257.411C257.411 28.8072 257.013 27.4581 256.095 26.4365L255.339 27.1153ZM256.395 30.3553H255.379C255.379 31.972 254.906 33.0019 254.118 33.651L254.763 34.4353L255.409 35.2196C256.797 34.0768 257.411 32.3867 257.411 30.3553H256.395ZM254.763 34.4353L254.124 33.6454C253.299 34.3132 251.903 34.7393 249.747 34.7393V35.7553V36.7713C252.103 36.7713 254.052 36.3175 255.402 35.2253L254.763 34.4353ZM257.465 34.8193L256.477 34.5825L256.271 35.441L257.093 35.7646L257.465 34.8193ZM258.305 31.3153L258.67 30.367L257.587 29.9507L257.317 31.0785L258.305 31.3153ZM260.297 31.8913L260.093 32.8867L260.106 32.8893L260.119 32.8916L260.297 31.8913ZM264.305 31.7233L263.797 30.8433L263.79 30.8476L263.782 30.8521L264.305 31.7233ZM263.825 29.3473L263.624 30.3432L263.63 30.3444L263.825 29.3473ZM261.689 28.9153L261.485 29.9107L261.488 29.9112L261.689 28.9153ZM259.337 20.2753L259.996 21.0484L260.003 21.0427L259.337 20.2753ZM268.913 19.7233L269.898 19.9714L270.118 19.1001L269.28 18.7758L268.913 19.7233ZM268.049 23.1553L267.679 24.1015L268.753 24.5217L269.034 23.4034L268.049 23.1553ZM263.225 25.1233L263.422 24.1265L263.413 24.1249L263.225 25.1233ZM265.049 25.4833L265.255 24.4883L265.246 24.4866L265.049 25.4833ZM268.289 27.1153L267.525 27.7855L267.533 27.7941L268.289 27.1153ZM267.713 34.4353L268.352 35.2253L268.359 35.2196L267.713 34.4353ZM262.697 35.7553V34.7393C260.906 34.7393 259.29 34.4461 257.837 33.874L257.465 34.8193L257.093 35.7646C258.809 36.4406 260.681 36.7713 262.697 36.7713V35.7553ZM257.465 34.8193L258.453 35.0562L259.293 31.5522L258.305 31.3153L257.317 31.0785L256.477 34.5825L257.465 34.8193ZM258.305 31.3153L257.94 32.2636C258.62 32.5252 259.339 32.7323 260.093 32.8867L260.297 31.8913L260.501 30.8959C259.848 30.7623 259.238 30.5855 258.67 30.367L258.305 31.3153ZM260.297 31.8913L260.119 32.8916C260.888 33.0283 261.62 33.0993 262.313 33.0993V32.0833V31.0673C261.758 31.0673 261.146 31.0103 260.475 30.891L260.297 31.8913ZM262.313 32.0833V33.0993C263.276 33.0993 264.178 32.9844 264.828 32.5945L264.305 31.7233L263.782 30.8521C263.632 30.9423 263.206 31.0673 262.313 31.0673V32.0833ZM264.305 31.7233L264.813 32.6034C265.59 32.1547 265.945 31.3965 265.945 30.5473H264.929H263.913C263.913 30.6903 263.886 30.7533 263.876 30.7731C263.868 30.7867 263.854 30.8105 263.797 30.8433L264.305 31.7233ZM264.929 30.5473H265.945C265.945 30.0201 265.792 29.4922 265.401 29.0674C265.024 28.6577 264.522 28.4483 264.02 28.3502L263.825 29.3473L263.63 30.3444C263.865 30.3903 263.914 30.453 263.905 30.4432C263.901 30.4381 263.899 30.4329 263.901 30.4377C263.903 30.4454 263.913 30.4779 263.913 30.5473H264.929ZM263.825 29.3473L264.027 28.3515L261.891 27.9195L261.689 28.9153L261.488 29.9112L263.624 30.3432L263.825 29.3473ZM261.689 28.9153L261.893 27.92C260.721 27.6799 259.958 27.2337 259.481 26.6625C259.007 26.0944 258.721 25.288 258.721 24.1393H257.705H256.689C256.689 25.6307 257.067 26.9402 257.921 27.9641C258.772 28.9849 260.002 29.6068 261.485 29.9107L261.689 28.9153ZM257.705 24.1393H258.721C258.721 22.7383 259.171 21.7528 259.996 21.0483L259.337 20.2753L258.678 19.5023C257.328 20.6539 256.689 22.2443 256.689 24.1393H257.705ZM259.337 20.2753L260.003 21.0427C260.854 20.3046 262.086 19.8753 263.825 19.8753V18.8593V17.8433C261.756 17.8433 259.997 18.358 258.671 19.5079L259.337 20.2753ZM263.825 18.8593V19.8753C265.627 19.8753 267.196 20.1479 268.546 20.6708L268.913 19.7233L269.28 18.7758C267.655 18.1467 265.831 17.8433 263.825 17.8433V18.8593ZM268.913 19.7233L267.928 19.4753L267.064 22.9073L268.049 23.1553L269.034 23.4034L269.898 19.9714L268.913 19.7233ZM268.049 23.1553L268.419 22.2092C267.171 21.7209 265.745 21.4913 264.161 21.4913V22.5073V23.5233C265.553 23.5233 266.719 23.7257 267.679 24.1015L268.049 23.1553ZM264.161 22.5073V21.4913C263.353 21.4913 262.575 21.6105 261.97 21.9857C261.284 22.4106 260.937 23.0903 260.937 23.8753H261.953H262.969C262.969 23.8296 262.974 23.8 262.978 23.783C262.981 23.7667 262.985 23.7597 262.986 23.7582C262.987 23.7568 262.988 23.754 262.993 23.7485C262.999 23.7425 263.013 23.7299 263.04 23.713C263.171 23.6321 263.497 23.5233 264.161 23.5233V22.5073ZM261.953 23.8753H260.937C260.937 24.445 261.127 24.9917 261.56 25.4166C261.966 25.8157 262.5 26.0205 263.037 26.1217L263.225 25.1233L263.413 24.1249C263.102 24.0662 263 23.9829 262.983 23.9661C262.979 23.9623 262.978 23.9611 262.979 23.9622C262.98 23.9634 262.98 23.9639 262.979 23.9624C262.978 23.9604 262.969 23.9359 262.969 23.8753H261.953ZM263.225 25.1233L263.028 26.1201L264.852 26.4801L265.049 25.4833L265.246 24.4866L263.422 24.1266L263.225 25.1233ZM265.049 25.4833L264.844 26.4783C266.191 26.7567 267.035 27.2266 267.525 27.7855L268.289 27.1153L269.053 26.4452C268.167 25.436 266.851 24.818 265.255 24.4883L265.049 25.4833ZM268.289 27.1153L267.533 27.7941C268.024 28.3405 268.329 29.1514 268.329 30.3553H269.345H270.361C270.361 28.8072 269.962 27.4581 269.045 26.4365L268.289 27.1153ZM269.345 30.3553H268.329C268.329 31.972 267.855 33.0019 267.067 33.651L267.713 34.4353L268.359 35.2196C269.747 34.0768 270.361 32.3867 270.361 30.3553H269.345ZM267.713 34.4353L267.074 33.6454C266.249 34.3132 264.853 34.7393 262.697 34.7393V35.7553V36.7713C265.053 36.7713 267.002 36.3175 268.352 35.2253L267.713 34.4353ZM271.345 35.3953H270.329V36.4113H271.345V35.3953ZM271.345 19.2193V18.2033H270.329V19.2193H271.345ZM275.953 19.2193H276.969V18.2033H275.953V19.2193ZM275.953 35.3953V36.4113H276.969V35.3953H275.953ZM271.345 35.3953H272.361V19.2193H271.345H270.329V35.3953H271.345ZM271.345 19.2193V20.2353H275.953V19.2193V18.2033H271.345V19.2193ZM275.953 19.2193H274.937V35.3953H275.953H276.969V19.2193H275.953ZM275.953 35.3953V34.3793H271.345V35.3953V36.4113H275.953V35.3953ZM280.034 33.5953L279.27 34.2656L280.034 33.5953ZM280.034 21.0193L279.27 20.3491L280.034 21.0193ZM291.074 21.0193L291.837 20.3491L291.074 21.0193ZM287.57 31.0273L288.458 31.5208L288.463 31.5125L287.57 31.0273ZM287.57 23.6113L286.677 24.0965L286.682 24.1047L287.57 23.6113ZM283.538 23.6113L284.426 24.1048L284.431 24.0965L283.538 23.6113ZM283.538 31.0273L282.645 31.5125L282.65 31.5207L283.538 31.0273ZM285.554 35.7553V34.7393C283.348 34.7393 281.82 34.0904 280.797 32.9251L280.034 33.5953L279.27 34.2656C280.775 35.9803 282.928 36.7713 285.554 36.7713V35.7553ZM280.034 33.5953L280.797 32.9251C279.755 31.7371 279.154 29.9188 279.154 27.3073H278.138H277.122C277.122 30.1999 277.785 32.5735 279.27 34.2656L280.034 33.5953ZM278.138 27.3073H279.154C279.154 24.6959 279.755 22.8775 280.797 21.6896L280.034 21.0193L279.27 20.3491C277.785 22.0411 277.122 24.4148 277.122 27.3073H278.138ZM280.034 21.0193L280.797 21.6896C281.82 20.5243 283.348 19.8753 285.554 19.8753V18.8593V17.8433C282.928 17.8433 280.775 18.6344 279.27 20.3491L280.034 21.0193ZM285.554 18.8593V19.8753C287.76 19.8753 289.288 20.5243 290.31 21.6896L291.074 21.0193L291.837 20.3491C290.332 18.6344 288.18 17.8433 285.554 17.8433V18.8593ZM291.074 21.0193L290.31 21.6896C291.353 22.8775 291.954 24.6959 291.954 27.3073H292.97H293.986C293.986 24.4148 293.323 22.0411 291.837 20.3491L291.074 21.0193ZM292.97 27.3073H291.954C291.954 29.9188 291.353 31.7371 290.31 32.9251L291.074 33.5953L291.837 34.2656C293.323 32.5735 293.986 30.1999 293.986 27.3073H292.97ZM291.074 33.5953L290.31 32.9251C289.288 34.0904 287.76 34.7393 285.554 34.7393V35.7553V36.7713C288.18 36.7713 290.332 35.9803 291.837 34.2656L291.074 33.5953ZM285.554 32.1073V33.1233C286.802 33.1233 287.849 32.6164 288.458 31.5207L287.57 31.0273L286.682 30.5339C286.49 30.8782 286.194 31.0913 285.554 31.0913V32.1073ZM287.57 31.0273L288.463 31.5125C288.992 30.5375 289.186 29.0748 289.186 27.3073H288.17H287.154C287.154 29.0278 286.947 30.0451 286.677 30.5422L287.57 31.0273ZM288.17 27.3073H289.186C289.186 25.5432 288.994 24.0817 288.458 23.1179L287.57 23.6113L286.682 24.1047C286.946 24.5809 287.154 25.5834 287.154 27.3073H288.17ZM287.57 23.6113L288.463 23.1262C287.859 22.0154 286.813 21.4913 285.554 21.4913V22.5073V23.5233C286.183 23.5233 286.481 23.7353 286.677 24.0965L287.57 23.6113ZM285.554 22.5073V21.4913C284.295 21.4913 283.249 22.0154 282.645 23.1262L283.538 23.6113L284.431 24.0965C284.627 23.7353 284.925 23.5233 285.554 23.5233V22.5073ZM283.538 23.6113L282.65 23.1179C282.114 24.0817 281.922 25.5432 281.922 27.3073H282.938H283.954C283.954 25.5834 284.162 24.5809 284.426 24.1047L283.538 23.6113ZM282.938 27.3073H281.922C281.922 29.0748 282.115 30.5375 282.645 31.5125L283.538 31.0273L284.431 30.5422C284.16 30.0451 283.954 29.0278 283.954 27.3073H282.938ZM283.538 31.0273L282.65 31.5207C283.258 32.6164 284.306 33.1233 285.554 33.1233V32.1073V31.0913C284.914 31.0913 284.617 30.8782 284.426 30.5339L283.538 31.0273ZM295.159 35.3953H294.143V36.4113H295.159V35.3953ZM295.159 19.2193V18.2033H294.143V19.2193H295.159ZM299.959 19.2193L300.862 18.7547L300.579 18.2033H299.959V19.2193ZM305.167 29.3473L304.263 29.8119L306.183 29.3473H305.167ZM305.167 19.2193V18.2033H304.151V19.2193H305.167ZM309.175 19.2193H310.191V18.2033H309.175V19.2193ZM309.175 35.3953V36.4113H310.191V35.3953H309.175ZM304.375 35.3953L303.471 35.8599L303.755 36.4113H304.375V35.3953ZM299.167 25.2673L300.07 24.8027L298.151 25.2673H299.167ZM299.167 35.3953V36.4113H300.183V35.3953H299.167ZM295.159 35.3953H296.175V19.2193H295.159H294.143V35.3953H295.159ZM295.159 19.2193V20.2353H299.959V19.2193V18.2033H295.159V19.2193ZM299.959 19.2193L299.055 19.6839L304.263 29.8119L305.167 29.3473L306.07 28.8827L300.862 18.7547L299.959 19.2193ZM305.167 29.3473H306.183V19.2193H305.167H304.151V29.3473H305.167ZM305.167 19.2193V20.2353H309.175V19.2193V18.2033H305.167V19.2193ZM309.175 19.2193H308.159V35.3953H309.175H310.191V19.2193H309.175ZM309.175 35.3953V34.3793H304.375V35.3953V36.4113H309.175V35.3953ZM304.375 35.3953L305.278 34.9307L300.07 24.8027L299.167 25.2673L298.263 25.7319L303.471 35.8599L304.375 35.3953ZM299.167 25.2673H298.151V35.3953H299.167H300.183V25.2673H299.167ZM299.167 35.3953V34.3793H295.159V35.3953V36.4113H299.167V35.3953Z" fill="#3B3B3B" mask="url(#path-5-outside-1_202_7231)"/>
</g>
<defs>
<filter id="filter0_d_202_7231" x="0.0012207" y="0" width="387.999" height="68.4666" filterUnits="userSpaceOnUse" color-interpolation-filters="sRGB">
<feFlood flood-opacity="0" result="BackgroundImageFix"/>
<feColorMatrix in="SourceAlpha" type="matrix" values="0 0 0 0 0 0 0 0 0 0 0 0 0 0 0 0 0 0 127 0" result="hardAlpha"/>
<feOffset dy="4"/>
<feComposite in2="hardAlpha" operator="out"/>
<feColorMatrix type="matrix" values="0 0 0 0 0 0 0 0 0 0 0 0 0 0 0 0 0 0 0.25 0"/>
<feBlend mode="normal" in2="BackgroundImageFix" result="effect1_dropShadow_202_7231"/>
<feBlend mode="normal" in="SourceGraphic" in2="effect1_dropShadow_202_7231" result="shape"/>
</filter>
<filter id="filter1_ddd_202_7231" x="74.4043" y="17.0813" width="238.326" height="24.008" filterUnits="userSpaceOnUse" color-interpolation-filters="sRGB">
<feFlood flood-opacity="0" result="BackgroundImageFix"/>
<feColorMatrix in="SourceAlpha" type="matrix" values="0 0 0 0 0 0 0 0 0 0 0 0 0 0 0 0 0 0 127 0" result="hardAlpha"/>
<feOffset dy="1"/>
<feComposite in2="hardAlpha" operator="out"/>
<feColorMatrix type="matrix" values="0 0 0 0 0 0 0 0 0 0 0 0 0 0 0 0 0 0 1 0"/>
<feBlend mode="normal" in2="BackgroundImageFix" result="effect1_dropShadow_202_7231"/>
<feColorMatrix in="SourceAlpha" type="matrix" values="0 0 0 0 0 0 0 0 0 0 0 0 0 0 0 0 0 0 127 0" result="hardAlpha"/>
<feOffset dy="1"/>
<feComposite in2="hardAlpha" operator="out"/>
<feColorMatrix type="matrix" values="0 0 0 0 0 0 0 0 0 0 0 0 0 0 0 0 0 0 1 0"/>
<feBlend mode="normal" in2="effect1_dropShadow_202_7231" result="effect2_dropShadow_202_7231"/>
<feColorMatrix in="SourceAlpha" type="matrix" values="0 0 0 0 0 0 0 0 0 0 0 0 0 0 0 0 0 0 127 0" result="hardAlpha"/>
<feOffset dy="1.778"/>
<feGaussianBlur stdDeviation="1.27"/>
<feComposite in2="hardAlpha" operator="out"/>
<feColorMatrix type="matrix" values="0 0 0 0 0 0 0 0 0 0 0 0 0 0 0 0 0 0 0.8 0"/>
<feBlend mode="normal" in2="effect2_dropShadow_202_7231" result="effect3_dropShadow_202_7231"/>
<feBlend mode="normal" in="SourceGraphic" in2="effect3_dropShadow_202_7231" result="shape"/>
</filter>
<linearGradient id="paint0_linear_202_7231" x1="1.00952" y1="26.921" x2="386.991" y2="26.921" gradientUnits="userSpaceOnUse">
<stop stop-color="#4B42A2"/>
<stop offset="0.475" stop-color="#8383FF"/>
<stop offset="1" stop-color="#4C43A3"/>
</linearGradient>
<radialGradient id="paint1_radial_202_7231" cx="0" cy="0" r="1" gradientUnits="userSpaceOnUse" gradientTransform="translate(194 37.5129) rotate(-90) scale(43.4632 1126.28)">
<stop offset="0.431628" stop-color="white" stop-opacity="0.26"/>
<stop offset="1" stop-color="white"/>
</radialGradient>
</defs>
</svg>
