<svg width="1440" height="441" viewBox="0 0 1440 441" fill="none" xmlns="http://www.w3.org/2000/svg">
<g clip-path="url(#clip0_699_1615)">
<rect width="1440" height="482" fill="#82C9FF"/>
<g style="mix-blend-mode:multiply" opacity="0.5">
<path d="M5.9247 441.099C-0.0270996 442.252 -4.01844 446.789 -2.99022 451.233C-1.96199 455.676 3.69643 458.344 9.64824 457.191C15.6 456.038 19.5914 451.501 18.5632 447.058C17.5349 442.614 11.8765 439.946 5.9247 441.099Z" fill="#B9E1FF"/>
<path d="M-12.0202 432.666C-17.972 433.819 -21.9634 438.356 -20.9352 442.8C-19.9069 447.243 -14.2485 449.911 -8.29671 448.758C-2.34491 447.605 1.64644 443.068 0.618214 438.625C-0.410011 434.181 -6.06844 431.513 -12.0202 432.666Z" fill="#B9E1FF"/>
<path d="M36.5229 435.268C30.6447 436.407 26.6938 440.898 27.7093 445.286C28.7248 449.675 34.326 452.316 40.2042 451.177C46.0824 450.038 50.0333 445.548 49.0178 441.159C48.0023 436.77 42.4011 434.13 36.5229 435.268Z" fill="#B9E1FF"/>
<path d="M18.5548 426.744C12.603 427.897 8.61168 432.434 9.63991 436.877C10.6681 441.321 16.3266 443.988 22.2784 442.836C28.2302 441.683 32.2215 437.146 31.1933 432.702C30.1651 428.259 24.5066 425.591 18.5548 426.744Z" fill="#B9E1FF"/>
<path d="M0.749073 418.73C-4.8842 419.821 -8.66629 424.12 -7.69309 428.326C-6.71989 432.532 -1.35812 435.06 4.27515 433.968C9.90842 432.877 13.6905 428.578 12.7173 424.373C11.7441 420.167 6.38234 417.639 0.749073 418.73Z" fill="#B9E1FF"/>
<path d="M84.9942 437.758C79.0649 438.906 75.0887 443.426 76.113 447.853C77.1373 452.28 82.7743 454.937 88.7036 453.789C94.6329 452.64 98.6091 448.12 97.5847 443.694C96.5604 439.267 90.9234 436.609 84.9942 437.758Z" fill="#B9E1FF"/>
<path d="M67.0986 429.538C61.3497 430.652 57.4944 435.034 58.4876 439.326C59.4808 443.618 64.9463 446.195 70.6952 445.081C76.4441 443.968 80.2994 439.586 79.3062 435.293C78.313 431.001 72.8475 428.425 67.0986 429.538Z" fill="#B9E1FF"/>
<path d="M49.1955 421.096C43.4466 422.21 39.5913 426.592 40.5845 430.884C41.5777 435.176 47.0432 437.753 52.7921 436.639C58.541 435.526 62.3963 431.144 61.4031 426.852C60.4099 422.559 54.9444 419.983 49.1955 421.096Z" fill="#B9E1FF"/>
<path d="M31.3449 412.898C25.7932 413.973 22.0379 418.204 23.004 422.379C23.9702 426.554 29.2362 429.037 34.8286 427.954C40.4211 426.87 44.1356 422.648 43.1695 418.473C42.2034 414.297 36.9373 411.815 31.3449 412.898Z" fill="#B9E1FF"/>
<path d="M13.4771 404.8C8.1704 405.828 4.62473 409.858 5.54151 413.82C6.45829 417.782 11.4849 420.152 16.7916 419.124C22.0983 418.096 25.644 414.066 24.7273 410.104C23.8105 406.142 18.7838 403.772 13.4771 404.8Z" fill="#B9E1FF"/>
<path d="M-4.42555 396.362C-9.73225 397.39 -13.278 401.42 -12.3612 405.382C-11.4444 409.344 -6.41774 411.714 -1.11104 410.686C4.19567 409.658 7.74134 405.628 6.82456 401.666C5.90778 397.704 0.881153 395.334 -4.42555 396.362Z" fill="#B9E1FF"/>
<path d="M133.538 440.548C127.823 441.655 123.973 446.031 124.961 450.298C125.948 454.564 131.406 457.137 137.121 456.03C142.835 454.923 146.685 450.548 145.698 446.281C144.71 442.014 139.253 439.441 133.538 440.548Z" fill="#B9E1FF"/>
<path d="M115.704 432.413C110.194 433.481 106.513 437.664 107.465 441.779C108.417 445.893 113.635 448.353 119.146 447.286C124.657 446.218 128.338 442.034 127.385 437.92C126.433 433.806 121.215 431.346 115.704 432.413Z" fill="#B9E1FF"/>
<path d="M97.765 424.011C92.295 425.071 88.648 429.216 89.593 433.3C90.538 437.384 95.7082 439.822 101.178 438.762C106.648 437.703 110.295 433.557 109.35 429.473C108.405 425.389 103.235 422.952 97.765 424.011Z" fill="#B9E1FF"/>
<path d="M79.8056 415.327C74.1724 416.419 70.3903 420.717 71.3635 424.923C72.3367 429.129 77.6984 431.657 83.3317 430.566C88.965 429.474 92.747 425.175 91.7738 420.97C90.8006 416.764 85.4389 414.236 79.8056 415.327Z" fill="#B9E1FF"/>
<path d="M61.893 407.044C56.3921 408.11 52.7031 412.303 53.6534 416.41C54.6038 420.517 59.8335 422.982 65.3345 421.917C70.8354 420.851 74.5243 416.658 73.574 412.551C72.6236 408.444 67.3939 405.978 61.893 407.044Z" fill="#B9E1FF"/>
<path d="M44.0938 399.062C38.9096 400.067 35.4722 404.012 36.3608 407.852C37.2494 411.692 42.1803 414.017 47.3237 413.021C52.4671 412.024 55.9453 408.071 55.0567 404.231C54.1681 400.391 49.2372 398.066 44.0938 399.062Z" fill="#B9E1FF"/>
<path d="M26.1572 390.468C20.8913 391.488 17.3864 395.511 18.2891 399.412C19.1917 403.313 24.2184 405.683 29.4435 404.67C34.6685 403.658 38.2142 399.628 37.3116 395.727C36.4089 391.826 31.3822 389.456 26.1572 390.468Z" fill="#B9E1FF"/>
<path d="M8.28649 382.372C3.30635 383.336 -0.0775735 387.144 0.78984 390.893C1.65725 394.642 6.39668 396.876 11.4176 395.903C16.4386 394.931 19.7817 391.131 18.9143 387.382C18.0469 383.634 13.3074 381.399 8.28649 382.372Z" fill="#B9E1FF"/>
<path d="M-9.48961 374.478C-14.1024 375.371 -17.1753 378.864 -16.3784 382.308C-15.5816 385.752 -11.2251 387.806 -6.61233 386.912C-1.99958 386.019 1.07334 382.526 0.276449 379.082C-0.520443 375.638 -4.87685 373.584 -9.48961 374.478Z" fill="#B9E1FF"/>
<path d="M164.279 435.36C159.095 436.364 155.576 440.325 156.479 444.226C157.381 448.127 162.312 450.452 167.537 449.44C172.762 448.428 176.24 444.474 175.338 440.573C174.435 436.672 169.504 434.348 164.279 435.36Z" fill="#B9E1FF"/>
<path d="M146.35 426.795C141.084 427.815 137.579 431.837 138.482 435.738C139.384 439.639 144.411 442.009 149.636 440.997C154.861 439.985 158.407 435.954 157.504 432.053C156.601 428.152 151.575 425.782 146.35 426.795Z" fill="#B9E1FF"/>
<path d="M128.402 418.36C123.136 419.38 119.631 423.403 120.534 427.304C121.436 431.205 126.463 433.575 131.688 432.563C136.913 431.55 140.459 427.52 139.556 423.619C138.654 419.718 133.627 417.348 128.402 418.36Z" fill="#B9E1FF"/>
<path d="M110.492 409.89C105.226 410.91 101.721 414.933 102.624 418.834C103.526 422.735 108.553 425.104 113.778 424.092C119.003 423.08 122.549 419.05 121.646 415.149C120.743 411.248 115.717 408.878 110.492 409.89Z" fill="#B9E1FF"/>
<path d="M92.5586 401.518C87.3508 402.527 83.8584 406.497 84.7581 410.385C85.6578 414.273 90.6089 416.607 95.8167 415.599C101.025 414.59 104.517 410.62 103.617 406.732C102.718 402.844 97.7664 400.51 92.5586 401.518Z" fill="#B9E1FF"/>
<path d="M74.7124 393.322C69.6915 394.295 66.3145 398.133 67.182 401.882C68.0494 405.63 72.8367 407.887 77.8577 406.915C82.8786 405.942 86.2555 402.104 85.3881 398.355C84.5207 394.606 79.7334 392.35 74.7124 393.322Z" fill="#B9E1FF"/>
<path d="M56.7181 384.676C51.5338 385.68 48.0964 389.626 48.985 393.466C49.8736 397.306 54.8045 399.63 59.948 398.634C65.0914 397.638 68.5695 393.684 67.681 389.844C66.7924 386.004 61.8615 383.679 56.7181 384.676Z" fill="#B9E1FF"/>
<path d="M38.9272 376.721C34.1103 377.654 30.9023 381.3 31.7344 384.896C32.5666 388.493 37.1145 390.637 41.9314 389.704C46.7482 388.771 49.9563 385.124 49.1241 381.528C48.292 377.932 43.744 375.788 38.9272 376.721Z" fill="#B9E1FF"/>
<path d="M21.0971 368.616C16.566 369.493 13.5268 372.948 14.3096 376.331C15.0924 379.714 19.401 381.745 23.9321 380.867C28.4632 379.989 31.5024 376.535 30.7196 373.152C29.9368 369.769 25.6282 367.738 21.0971 368.616Z" fill="#B9E1FF"/>
<path d="M3.13265 360.09C-1.4801 360.983 -4.55302 364.476 -3.75613 367.92C-2.95924 371.364 1.39717 373.418 6.00992 372.524C10.6227 371.631 13.6957 368.138 12.8988 364.694C12.1019 361.25 7.7454 359.196 3.13265 360.09Z" fill="#B9E1FF"/>
<path d="M212.908 438.518C208.173 439.435 204.998 443.044 205.816 446.579C206.634 450.113 211.135 452.235 215.87 451.318C220.604 450.401 223.779 446.792 222.961 443.258C222.143 439.723 217.642 437.601 212.908 438.518Z" fill="#B9E1FF"/>
<path d="M194.948 429.833C190.049 430.782 186.774 434.505 187.62 438.162C188.466 441.819 193.11 444.008 198.008 443.06C202.907 442.111 206.182 438.388 205.336 434.73C204.49 431.073 199.846 428.884 194.948 429.833Z" fill="#B9E1FF"/>
<path d="M177.008 421.239C172.028 422.204 168.644 426.012 169.511 429.761C170.379 433.509 175.118 435.744 180.139 434.771C185.16 433.798 188.503 429.998 187.636 426.25C186.768 422.501 182.029 420.267 177.008 421.239Z" fill="#B9E1FF"/>
<path d="M159.133 413.11C154.357 414.036 151.19 417.674 152.008 421.209C152.826 424.745 157.374 426.889 162.109 425.972C166.844 425.054 170.052 421.408 169.234 417.873C168.416 414.337 163.868 412.193 159.133 413.11Z" fill="#B9E1FF"/>
<path d="M141.143 404.304C136.122 405.276 132.745 409.114 133.612 412.863C134.48 416.612 139.267 418.869 144.288 417.896C149.309 416.924 152.686 413.085 151.818 409.337C150.951 405.588 146.164 403.331 141.143 404.304Z" fill="#B9E1FF"/>
<path d="M123.207 395.9C118.226 396.864 114.842 400.672 115.71 404.421C116.577 408.169 121.317 410.404 126.338 409.431C131.359 408.459 134.702 404.659 133.834 400.91C132.967 397.161 128.227 394.927 123.207 395.9Z" fill="#B9E1FF"/>
<path d="M105.377 387.794C100.641 388.711 97.4671 392.319 98.2852 395.855C99.1032 399.39 103.603 401.511 108.338 400.594C113.074 399.677 116.248 396.069 115.43 392.534C114.612 388.998 110.112 386.877 105.377 387.794Z" fill="#B9E1FF"/>
<path d="M87.3896 379.18C82.5319 380.121 79.2564 383.844 80.0956 387.471C80.9348 391.097 85.5784 393.287 90.4361 392.346C95.2938 391.405 98.5694 387.681 97.7302 384.055C96.891 380.428 92.2473 378.239 87.3896 379.18Z" fill="#B9E1FF"/>
<path d="M69.5231 370.892C64.7879 371.809 61.6137 375.417 62.4317 378.953C63.2497 382.488 67.7498 384.609 72.485 383.692C77.2203 382.775 80.3945 379.167 79.5764 375.632C78.7584 372.096 74.2584 369.975 69.5231 370.892Z" fill="#B9E1FF"/>
<path d="M51.6554 362.795C47.2059 363.657 44.2004 367.073 44.9691 370.395C45.7378 373.717 49.9986 375.726 54.448 374.864C58.8975 374.002 61.9029 370.586 61.1342 367.264C60.3655 363.942 56.1048 361.933 51.6554 362.795Z" fill="#B9E1FF"/>
<path d="M33.7491 354.353C29.2997 355.215 26.2943 358.631 27.0629 361.953C27.8316 365.275 32.0923 367.283 36.5418 366.422C40.9912 365.56 43.9966 362.144 43.2279 358.822C42.4593 355.5 38.1986 353.491 33.7491 354.353Z" fill="#B9E1FF"/>
<path d="M15.9224 346.247C11.7178 347.061 8.91501 350.247 9.64138 353.386C10.3678 356.525 14.3412 358.398 18.5458 357.584C22.7503 356.77 25.5531 353.584 24.8267 350.445C24.1004 347.306 20.1269 345.432 15.9224 346.247Z" fill="#B9E1FF"/>
<path d="M-1.92369 338.24C-5.80138 338.991 -8.4018 341.947 -7.7319 344.842C-7.062 347.737 -3.37544 349.475 0.502254 348.724C4.37994 347.973 6.98037 345.017 6.31047 342.122C5.64056 339.227 1.954 337.489 -1.92369 338.24Z" fill="#B9E1FF"/>
<path d="M261.634 441.911C257.552 442.702 254.817 445.811 255.522 448.859C256.227 451.906 260.105 453.735 264.187 452.944C268.269 452.153 271.004 449.044 270.299 445.996C269.594 442.949 265.716 441.121 261.634 441.911Z" fill="#B9E1FF"/>
<path d="M243.583 433.022C239.175 433.876 236.237 437.216 236.998 440.507C237.76 443.799 241.925 445.762 246.334 444.908C250.742 444.054 253.68 440.715 252.919 437.423C252.157 434.132 247.992 432.168 243.583 433.022Z" fill="#B9E1FF"/>
<path d="M225.613 424.307C221 425.201 217.927 428.693 218.724 432.137C219.521 435.581 223.878 437.635 228.49 436.741C233.103 435.848 236.176 432.355 235.379 428.911C234.582 425.467 230.226 423.414 225.613 424.307Z" fill="#B9E1FF"/>
<path d="M207.719 416.087C203.27 416.948 200.298 420.326 201.067 423.648C201.835 426.97 206.048 428.956 210.498 428.094C214.947 427.232 217.919 423.855 217.15 420.533C216.381 417.211 212.169 415.225 207.719 416.087Z" fill="#B9E1FF"/>
<path d="M189.799 407.584C185.336 408.448 182.342 411.851 183.113 415.184C183.884 418.516 188.128 420.517 192.592 419.653C197.056 418.788 200.049 415.385 199.278 412.053C198.507 408.72 194.263 406.719 189.799 407.584Z" fill="#B9E1FF"/>
<path d="M171.797 398.715C167.021 399.64 163.853 403.279 164.671 406.814C165.489 410.349 170.037 412.493 174.773 411.576C179.508 410.659 182.716 407.012 181.898 403.477C181.08 399.942 176.532 397.798 171.797 398.715Z" fill="#B9E1FF"/>
<path d="M153.929 390.619C149.42 391.492 146.396 394.929 147.175 398.296C147.954 401.662 152.241 403.683 156.75 402.809C161.259 401.936 164.282 398.499 163.503 395.133C162.724 391.766 158.438 389.745 153.929 390.619Z" fill="#B9E1FF"/>
<path d="M136.039 382.24C131.589 383.102 128.584 386.518 129.353 389.84C130.121 393.162 134.382 395.171 138.832 394.309C143.281 393.447 146.286 390.031 145.518 386.709C144.749 383.387 140.488 381.378 136.039 382.24Z" fill="#B9E1FF"/>
<path d="M118.01 373.442C113.276 374.359 110.101 377.968 110.919 381.502C111.737 385.037 116.238 387.159 120.972 386.242C125.706 385.325 128.881 381.716 128.063 378.181C127.246 374.647 122.745 372.525 118.01 373.442Z" fill="#B9E1FF"/>
<path d="M100.202 365.426C95.7933 366.28 92.8554 369.619 93.6171 372.911C94.3787 376.202 98.5436 378.166 102.952 377.312C107.361 376.458 110.299 373.119 109.537 369.827C108.776 366.536 104.611 364.572 100.202 365.426Z" fill="#B9E1FF"/>
<path d="M82.3074 357.207C78.062 358.029 75.2254 361.253 75.9589 364.423C76.6923 367.592 80.7136 369.488 84.959 368.666C89.2043 367.843 92.0409 364.619 91.3075 361.45C90.5741 358.28 86.5527 356.384 82.3074 357.207Z" fill="#B9E1FF"/>
<path d="M64.3519 348.552C59.9841 349.398 57.0462 352.737 57.8007 355.998C58.5553 359.259 62.7203 361.223 67.0881 360.377C71.4559 359.531 74.3938 356.191 73.6392 352.93C72.8846 349.669 68.7197 347.706 64.3519 348.552Z" fill="#B9E1FF"/>
<path d="M46.4773 340.423C42.3291 341.227 39.5472 344.389 40.2638 347.486C40.9805 350.583 44.9243 352.442 49.0725 351.639C53.2207 350.835 56.0025 347.673 55.2859 344.576C54.5693 341.479 50.6255 339.62 46.4773 340.423Z" fill="#B9E1FF"/>
<path d="M28.6931 332.502C24.9376 333.229 22.4387 336.07 23.0875 338.874C23.7363 341.678 27.2789 343.348 31.0344 342.62C34.7899 341.893 37.2888 339.052 36.64 336.248C35.9912 333.445 32.4486 331.774 28.6931 332.502Z" fill="#B9E1FF"/>
<path d="M10.8732 324.426C7.4034 325.098 5.07339 327.746 5.67282 330.337C6.27225 332.927 9.57546 334.485 13.0452 333.812C16.515 333.14 18.8451 330.492 18.2456 327.901C17.6462 325.311 14.3429 323.754 10.8732 324.426Z" fill="#B9E1FF"/>
<path d="M-7.09187 315.899C-10.6088 316.58 -12.9674 319.261 -12.3598 321.887C-11.7522 324.513 -8.40857 326.089 -4.89159 325.408C-1.37462 324.727 0.983895 322.046 0.376307 319.42C-0.231281 316.794 -3.57489 315.218 -7.09187 315.899Z" fill="#B9E1FF"/>
<path d="M292.326 436.505C288.628 437.221 286.149 440.04 286.788 442.8C287.426 445.56 290.942 447.218 294.639 446.501C298.336 445.785 300.816 442.967 300.177 440.206C299.538 437.446 296.023 435.789 292.326 436.505Z" fill="#B9E1FF"/>
<path d="M274.375 428.042C270.66 428.761 268.202 431.594 268.837 434.337C269.471 437.079 273.014 438.75 276.688 438.038C280.362 437.326 282.861 434.486 282.226 431.743C281.591 429 278.049 427.33 274.375 428.042Z" fill="#B9E1FF"/>
<path d="M256.392 419.266C252.432 420.033 249.798 423.027 250.482 425.983C251.166 428.94 254.9 430.7 258.86 429.933C262.819 429.166 265.453 426.172 264.769 423.216C264.085 420.26 260.351 418.499 256.392 419.266Z" fill="#B9E1FF"/>
<path d="M238.397 410.621C234.294 411.416 231.543 414.543 232.252 417.607C232.96 420.67 236.861 422.509 240.964 421.714C245.068 420.92 247.819 417.792 247.11 414.729C246.401 411.665 242.501 409.826 238.397 410.621Z" fill="#B9E1FF"/>
<path d="M220.46 402.027C216.256 402.842 213.46 406.058 214.179 409.167C214.899 412.275 218.879 414.179 223.084 413.365C227.288 412.55 230.091 409.364 229.365 406.225C228.638 403.086 224.665 401.213 220.46 402.027Z" fill="#B9E1FF"/>
<path d="M202.506 393.564C198.302 394.378 195.506 397.594 196.225 400.703C196.945 403.812 200.925 405.715 205.13 404.901C209.334 404.086 212.137 400.901 211.411 397.762C210.684 394.622 206.711 392.749 202.506 393.564Z" fill="#B9E1FF"/>
<path d="M184.589 385.063C180.344 385.885 177.507 389.11 178.241 392.279C178.974 395.449 182.995 397.345 187.241 396.522C191.486 395.7 194.323 392.476 193.589 389.306C192.856 386.136 188.834 384.241 184.589 385.063Z" fill="#B9E1FF"/>
<path d="M166.683 376.621C162.438 377.443 159.601 380.667 160.334 383.837C161.068 387.006 165.089 388.902 169.334 388.08C173.58 387.257 176.416 384.033 175.683 380.864C174.95 377.694 170.928 375.798 166.683 376.621Z" fill="#B9E1FF"/>
<path d="M148.738 368.187C144.493 369.009 141.656 372.233 142.39 375.403C143.123 378.572 147.145 380.468 151.39 379.646C155.635 378.823 158.472 375.599 157.738 372.43C157.005 369.26 152.984 367.364 148.738 368.187Z" fill="#B9E1FF"/>
<path d="M130.84 359.777C126.636 360.592 123.833 363.778 124.559 366.917C125.285 370.056 129.259 371.929 133.463 371.115C137.668 370.3 140.471 367.115 139.744 363.975C139.018 360.836 135.045 358.963 130.84 359.777Z" fill="#B9E1FF"/>
<path d="M112.931 351.496C108.849 352.287 106.114 355.396 106.819 358.444C107.524 361.491 111.402 363.32 115.484 362.529C119.566 361.738 122.301 358.629 121.596 355.581C120.891 352.534 117.013 350.706 112.931 351.496Z" fill="#B9E1FF"/>
<path d="M95.0263 343.056C90.9442 343.847 88.209 346.956 88.9142 350.004C89.6194 353.051 93.4971 354.88 97.5792 354.089C101.661 353.298 104.397 350.189 103.691 347.141C102.986 344.094 99.1084 342.266 95.0263 343.056Z" fill="#B9E1FF"/>
<path d="M77.1312 334.837C73.231 335.592 70.6155 338.565 71.2893 341.477C71.9631 344.389 75.6711 346.137 79.5713 345.382C83.4715 344.626 86.0871 341.653 85.4133 338.741C84.7395 335.829 81.0315 334.081 77.1312 334.837Z" fill="#B9E1FF"/>
<path d="M59.2884 326.67C55.6136 327.382 53.1493 330.183 53.7841 332.927C54.419 335.671 57.9126 337.318 61.5874 336.606C65.2622 335.894 67.7266 333.093 67.0917 330.349C66.4569 327.606 62.9632 325.959 59.2884 326.67Z" fill="#B9E1FF"/>
<path d="M41.428 318.601C37.9991 319.265 35.7436 321.867 36.3289 324.397C36.9142 326.926 40.1696 328.461 43.5578 327.805C46.9459 327.149 49.2421 324.538 48.6568 322.009C48.0715 319.479 44.8161 317.945 41.428 318.601Z" fill="#B9E1FF"/>
<path d="M23.5182 310.13C20.0893 310.794 17.8339 313.397 18.4192 315.926C19.0045 318.456 22.2598 319.99 25.648 319.334C29.0361 318.678 31.3323 316.068 30.747 313.538C30.1617 311.009 26.9064 309.474 23.5182 310.13Z" fill="#B9E1FF"/>
<path d="M5.71191 302.116C2.62329 302.715 0.552039 305.069 1.08563 307.375C1.61921 309.681 4.55558 311.065 7.6442 310.467C10.7328 309.869 12.8041 307.514 12.2705 305.208C11.737 302.903 8.80054 301.518 5.71191 302.116Z" fill="#B9E1FF"/>
<path d="M341.009 439.908C337.965 440.498 335.924 442.818 336.45 445.09C336.976 447.362 339.869 448.726 342.913 448.137C345.957 447.547 347.998 445.227 347.472 442.955C346.946 440.683 344.052 439.319 341.009 439.908Z" fill="#B9E1FF"/>
<path d="M323.086 431.568C320.106 432.145 318.114 434.41 318.629 436.634C319.144 438.859 321.968 440.191 324.948 439.614C327.928 439.036 329.92 436.772 329.406 434.547C328.891 432.322 326.066 430.991 323.086 431.568Z" fill="#B9E1FF"/>
<path d="M305.064 422.611C301.717 423.259 299.488 425.793 300.066 428.292C300.644 430.791 303.804 432.281 307.151 431.632C310.499 430.984 312.727 428.45 312.149 425.951C311.571 423.452 308.411 421.963 305.064 422.611Z" fill="#B9E1FF"/>
<path d="M287.072 413.801C283.48 414.497 281.049 417.261 281.669 419.943C282.29 422.625 285.737 424.25 289.329 423.554C292.921 422.858 295.353 420.094 294.732 417.412C294.111 414.73 290.665 413.105 287.072 413.801Z" fill="#B9E1FF"/>
<path d="M269.178 405.583C265.749 406.247 263.412 408.865 264.011 411.455C264.611 414.046 267.866 415.581 271.336 414.909C274.805 414.236 277.102 411.626 276.502 409.036C275.903 406.445 272.648 404.911 269.178 405.583Z" fill="#B9E1FF"/>
<path d="M251.217 396.898C247.624 397.594 245.193 400.357 245.814 403.039C246.434 405.721 249.881 407.346 253.473 406.65C257.066 405.955 259.497 403.191 258.876 400.509C258.256 397.827 254.809 396.202 251.217 396.898Z" fill="#B9E1FF"/>
<path d="M233.179 388.067C229.278 388.822 226.663 391.795 227.337 394.707C228.01 397.619 231.718 399.367 235.619 398.612C239.519 397.856 242.134 394.883 241.461 391.971C240.787 389.059 237.079 387.311 233.179 388.067Z" fill="#B9E1FF"/>
<path d="M215.248 379.506C211.28 380.274 208.619 383.299 209.304 386.261C209.99 389.224 213.762 391.002 217.73 390.233C221.698 389.465 224.359 386.44 223.673 383.478C222.988 380.516 219.216 378.737 215.248 379.506Z" fill="#B9E1FF"/>
<path d="M196.308 371.621C192.718 372.785 190.812 375.87 192.051 378.511C193.29 381.153 197.205 382.35 200.795 381.186C204.385 380.022 206.291 376.937 205.052 374.295C203.813 371.654 199.898 370.456 196.308 371.621Z" fill="#B9E1FF"/>
<path d="M179.391 362.6C175.431 363.367 172.763 366.399 173.447 369.355C174.131 372.312 177.913 374.095 181.873 373.328C185.833 372.561 188.5 369.528 187.816 366.572C187.132 363.616 183.35 361.833 179.391 362.6Z" fill="#B9E1FF"/>
<path d="M161.486 354.16C157.527 354.927 154.859 357.959 155.543 360.916C156.227 363.872 160.009 365.655 163.969 364.888C167.928 364.121 170.596 361.088 169.912 358.132C169.228 355.176 165.446 353.393 161.486 354.16Z" fill="#B9E1FF"/>
<path d="M143.624 346.092C139.927 346.809 137.447 349.627 138.086 352.387C138.725 355.148 142.24 356.805 145.937 356.089C149.635 355.373 152.114 352.554 151.475 349.794C150.837 347.033 147.321 345.376 143.624 346.092Z" fill="#B9E1FF"/>
<path d="M125.651 337.347C121.751 338.103 119.136 341.076 119.809 343.988C120.483 346.9 124.191 348.648 128.091 347.892C131.992 347.137 134.607 344.164 133.933 341.252C133.259 338.34 129.552 336.592 125.651 337.347Z" fill="#B9E1FF"/>
<path d="M107.756 329.128C104.001 329.855 101.502 332.696 102.151 335.5C102.799 338.303 106.342 339.974 110.098 339.246C113.853 338.519 116.352 335.678 115.703 332.874C115.054 330.071 111.512 328.4 107.756 329.128Z" fill="#B9E1FF"/>
<path d="M89.947 321.113C86.5181 321.777 84.2626 324.379 84.848 326.909C85.4333 329.438 88.6886 330.973 92.0768 330.317C95.4649 329.66 97.7612 327.05 97.1758 324.521C96.5905 321.991 93.3351 320.456 89.947 321.113Z" fill="#B9E1FF"/>
<path d="M72.06 312.923C68.8351 313.548 66.7148 315.996 67.2648 318.374C67.8149 320.751 70.8788 322.195 74.0628 321.578C77.2468 320.962 79.408 318.505 78.858 316.128C78.3079 313.751 75.244 312.306 72.06 312.923Z" fill="#B9E1FF"/>
<path d="M54.1211 304.329C50.807 304.971 48.5846 307.497 49.1571 309.971C49.7296 312.445 52.8804 313.931 56.1944 313.289C59.5085 312.647 61.7309 310.121 61.1584 307.646C60.5859 305.172 57.4352 303.687 54.1211 304.329Z" fill="#B9E1FF"/>
<path d="M36.2782 296.354C33.2983 296.931 31.3059 299.196 31.8207 301.421C32.3356 303.645 35.1601 304.977 38.14 304.4C41.1199 303.822 43.1122 301.558 42.5974 299.333C42.0826 297.108 39.2582 295.777 36.2782 296.354Z" fill="#B9E1FF"/>
<path d="M18.4893 288.4C15.8767 288.906 14.1207 290.902 14.5721 292.852C15.0234 294.803 17.5128 295.977 20.1254 295.47C22.7379 294.964 24.4939 292.968 24.0425 291.018C23.5912 289.067 21.1018 287.894 18.4893 288.4Z" fill="#B9E1FF"/>
<path d="M0.549684 279.805C-2.14449 280.327 -3.96799 282.4 -3.50254 284.411C-3.0371 286.423 -0.451973 287.642 2.2422 287.12C4.93637 286.598 6.75993 284.525 6.29449 282.514C5.82904 280.502 3.24386 279.283 0.549684 279.805Z" fill="#B9E1FF"/>
<path d="M371.827 435.024C369.541 435.466 368.022 437.194 368.416 438.9C368.811 440.607 370.966 441.623 373.252 441.18C375.538 440.737 377.057 439.01 376.662 437.303C376.267 435.597 374.113 434.581 371.827 435.024Z" fill="#B9E1FF"/>
<path d="M353.788 426.195C351.216 426.693 349.453 428.659 349.905 430.609C350.356 432.56 352.798 433.711 355.41 433.205C358.023 432.699 359.745 430.741 359.293 428.791C358.842 426.84 356.401 425.689 353.788 426.195Z" fill="#B9E1FF"/>
<path d="M335.751 417.175C332.771 417.752 330.779 420.017 331.294 422.241C331.809 424.466 334.633 425.798 337.613 425.22C340.593 424.643 342.585 422.379 342.071 420.154C341.556 417.929 338.731 416.597 335.751 417.175Z" fill="#B9E1FF"/>
<path d="M317.833 408.86C314.934 409.422 313.01 411.61 313.51 413.774C314.011 415.937 316.74 417.224 319.638 416.663C322.536 416.101 324.461 413.913 323.96 411.749C323.46 409.586 320.731 408.299 317.833 408.86Z" fill="#B9E1FF"/>
<path d="M298.966 400.371C296.003 401.331 294.43 403.878 295.453 406.058C296.475 408.237 299.706 409.226 302.669 408.265C305.632 407.304 307.205 404.758 306.182 402.578C305.16 400.398 301.929 399.41 298.966 400.371Z" fill="#B9E1FF"/>
<path d="M281.896 391.431C278.627 392.064 276.435 394.556 277 396.997C277.565 399.437 280.673 400.902 283.942 400.269C287.211 399.636 289.403 397.144 288.838 394.703C288.273 392.263 285.165 390.798 281.896 391.431Z" fill="#B9E1FF"/>
<path d="M263.952 383C260.683 383.633 258.491 386.125 259.056 388.566C259.621 391.006 262.728 392.472 265.997 391.838C269.266 391.205 271.459 388.713 270.894 386.273C270.329 383.832 267.221 382.367 263.952 383Z" fill="#B9E1FF"/>
<path d="M246 374.346C242.571 375.011 240.315 377.613 240.901 380.142C241.486 382.672 244.741 384.207 248.13 383.55C251.518 382.894 253.814 380.284 253.229 377.754C252.643 375.225 249.388 373.69 246 374.346Z" fill="#B9E1FF"/>
<path d="M228.032 365.821C224.56 366.493 222.232 369.14 222.831 371.732C223.431 374.324 226.732 375.88 230.204 375.207C233.676 374.535 236.004 371.888 235.404 369.296C234.804 366.704 231.504 365.148 228.032 365.821Z" fill="#B9E1FF"/>
<path d="M210.042 357.013C206.287 357.74 203.788 360.581 204.437 363.384C205.085 366.188 208.628 367.858 212.383 367.131C216.139 366.403 218.638 363.563 217.989 360.759C217.34 357.955 213.798 356.285 210.042 357.013Z" fill="#B9E1FF"/>
<path d="M192.161 348.856C188.65 349.536 186.286 352.223 186.893 354.844C187.499 357.465 190.85 359.045 194.361 358.365C197.872 357.685 200.235 354.998 199.629 352.377C199.022 349.756 195.671 348.176 192.161 348.856Z" fill="#B9E1FF"/>
<path d="M174.271 340.473C170.799 341.145 168.471 343.792 169.071 346.384C169.671 348.976 172.971 350.532 176.443 349.86C179.915 349.187 182.244 346.541 181.644 343.949C181.044 341.357 177.743 339.8 174.271 340.473Z" fill="#B9E1FF"/>
<path d="M156.289 331.699C152.591 332.416 150.112 335.234 150.751 337.994C151.389 340.755 154.904 342.412 158.602 341.696C162.299 340.98 164.779 338.161 164.14 335.401C163.501 332.64 159.986 330.983 156.289 331.699Z" fill="#B9E1FF"/>
<path d="M138.45 323.722C135.102 324.371 132.874 326.904 133.452 329.403C134.03 331.902 137.19 333.392 140.537 332.744C143.884 332.095 146.113 329.562 145.535 327.063C144.957 324.564 141.797 323.074 138.45 323.722Z" fill="#B9E1FF"/>
<path d="M120.566 315.373C117.297 316.006 115.105 318.498 115.669 320.938C116.234 323.379 119.342 324.844 122.611 324.211C125.88 323.578 128.072 321.086 127.507 318.645C126.943 316.205 123.835 314.74 120.566 315.373Z" fill="#B9E1FF"/>
<path d="M102.692 307.243C99.6488 307.833 97.6077 310.153 98.1335 312.425C98.6593 314.697 101.553 316.061 104.596 315.472C107.64 314.882 109.681 312.562 109.155 310.29C108.629 308.018 105.736 306.654 102.692 307.243Z" fill="#B9E1FF"/>
<path d="M84.7792 298.772C81.7176 299.365 79.6915 301.668 80.2204 303.954C80.7493 306.24 83.6217 307.594 86.6833 307.001C89.7448 306.408 91.771 304.105 91.2421 301.819C90.7131 299.534 87.8407 298.179 84.7792 298.772Z" fill="#B9E1FF"/>
<path d="M66.8975 290.613C64.0401 291.167 62.1561 293.347 62.6427 295.449C63.1293 297.552 65.858 298.839 68.6747 298.293C71.4913 297.748 73.4161 295.56 72.9295 293.457C72.4429 291.354 69.7142 290.067 66.8975 290.613Z" fill="#B9E1FF"/>
<path d="M49.0857 282.571C46.5548 283.061 44.8326 285.019 45.2698 286.909C45.7071 288.798 48.1486 289.949 50.6795 289.459C53.2104 288.969 54.9326 287.011 54.4953 285.122C54.0581 283.232 51.6166 282.081 49.0857 282.571Z" fill="#B9E1FF"/>
<path d="M31.1131 274.014C28.5006 274.52 26.7446 276.516 27.1959 278.467C27.6473 280.417 30.1367 281.591 32.7492 281.085C35.3617 280.579 37.1177 278.583 36.6663 276.632C36.215 274.682 33.7256 273.508 31.1131 274.014Z" fill="#B9E1FF"/>
<path d="M13.3257 266.092C11.1214 266.519 9.6356 268.208 10.0164 269.854C10.3972 271.5 12.5036 272.493 14.708 272.066C16.9123 271.639 18.3981 269.95 18.0173 268.304C17.6364 266.659 15.5301 265.666 13.3257 266.092Z" fill="#B9E1FF"/>
<path d="M-4.48396 258.047C-6.40254 258.419 -7.68571 259.877 -7.35426 261.31C-7.02281 262.742 -5.20368 263.6 -3.2851 263.228C-1.36652 262.857 -0.0832881 261.398 -0.414739 259.966C-0.74619 258.533 -2.56539 257.676 -4.48396 258.047Z" fill="#B9E1FF"/>
<path d="M420.545 438.577C419.035 438.87 417.981 440.029 418.249 441.188C418.517 442.346 419.953 443.023 421.504 442.722C423.056 442.422 424.069 441.27 423.801 440.112C423.533 438.954 422.097 438.277 420.545 438.577Z" fill="#B9E1FF"/>
<path d="M402.513 429.589C400.594 429.96 399.311 431.419 399.643 432.851C399.974 434.284 401.793 435.141 403.712 434.77C405.63 434.398 406.914 432.94 406.582 431.507C406.251 430.075 404.432 429.217 402.513 429.589Z" fill="#B9E1FF"/>
<path d="M384.597 421.275C382.76 421.631 381.545 423.013 381.862 424.384C382.179 425.756 383.903 426.568 385.74 426.212C387.577 425.856 388.792 424.475 388.475 423.103C388.158 421.732 386.434 420.919 384.597 421.275Z" fill="#B9E1FF"/>
<path d="M366.564 412.288C364.359 412.715 362.873 414.404 363.254 416.05C363.635 417.696 365.742 418.689 367.946 418.262C370.15 417.835 371.636 416.146 371.255 414.5C370.874 412.854 368.768 411.861 366.564 412.288Z" fill="#B9E1FF"/>
<path d="M348.527 403.457C345.996 403.948 344.307 405.867 344.745 407.756C345.182 409.646 347.575 410.774 350.106 410.284C352.637 409.794 354.326 407.875 353.888 405.985C353.451 404.096 351.058 402.967 348.527 403.457Z" fill="#B9E1FF"/>
<path d="M330.545 394.682C327.81 395.212 325.953 397.323 326.425 399.365C326.898 401.407 329.531 402.648 332.266 402.118C335.001 401.589 336.858 399.478 336.385 397.436C335.913 395.394 333.28 394.152 330.545 394.682Z" fill="#B9E1FF"/>
<path d="M312.657 386.494C310.126 386.984 308.404 388.941 308.841 390.831C309.278 392.72 311.72 393.872 314.251 393.381C316.782 392.891 318.504 390.933 318.067 389.044C317.629 387.154 315.188 386.003 312.657 386.494Z" fill="#B9E1FF"/>
<path d="M294.641 377.566C291.733 378.13 289.783 380.346 290.285 382.518C290.788 384.689 293.552 385.993 296.461 385.429C299.369 384.866 301.319 382.649 300.817 380.478C300.314 378.306 297.549 377.003 294.641 377.566Z" fill="#B9E1FF"/>
<path d="M276.671 368.849C273.582 369.447 271.511 371.802 272.044 374.107C272.578 376.413 275.514 377.798 278.603 377.199C281.691 376.601 283.763 374.247 283.229 371.941C282.696 369.635 279.759 368.251 276.671 368.849Z" fill="#B9E1FF"/>
<path d="M258.805 360.751C255.947 361.305 254.063 363.485 254.55 365.588C255.036 367.69 257.765 368.977 260.582 368.431C263.398 367.886 265.323 365.698 264.837 363.595C264.35 361.492 261.621 360.206 258.805 360.751Z" fill="#B9E1FF"/>
<path d="M240.802 351.885C237.659 352.494 235.565 354.873 236.108 357.22C236.651 359.567 239.626 360.997 242.769 360.388C245.912 359.779 248.006 357.399 247.456 355.022C246.906 352.645 243.945 351.276 240.802 351.885Z" fill="#B9E1FF"/>
<path d="M222.819 343.299C219.594 343.924 217.392 346.388 217.956 348.826C218.52 351.264 221.584 352.709 224.85 352.076C228.115 351.444 230.277 348.987 229.713 346.549C229.148 344.111 226.084 342.666 222.819 343.299Z" fill="#B9E1FF"/>
<path d="M204.916 334.856C201.691 335.481 199.489 337.946 200.054 340.384C200.618 342.822 203.682 344.266 206.947 343.634C210.213 343.001 212.374 340.545 211.81 338.106C211.246 335.668 208.182 334.224 204.916 334.856Z" fill="#B9E1FF"/>
<path d="M186.962 326.392C183.716 327.021 181.539 329.496 182.099 331.919C182.66 334.343 185.747 335.798 188.993 335.169C192.24 334.541 194.417 332.066 193.856 329.642C193.295 327.218 190.209 325.763 186.962 326.392Z" fill="#B9E1FF"/>
<path d="M169.094 318.104C165.96 318.711 163.859 321.1 164.4 323.439C164.942 325.779 167.921 327.184 171.055 326.577C174.188 325.97 176.29 323.581 175.749 321.241C175.207 318.902 172.228 317.497 169.094 318.104Z" fill="#B9E1FF"/>
<path d="M151.211 309.756C148.168 310.345 146.127 312.665 146.652 314.938C147.178 317.21 150.072 318.574 153.115 317.984C156.159 317.395 158.2 315.075 157.674 312.803C157.148 310.53 154.255 309.166 151.211 309.756Z" fill="#B9E1FF"/>
<path d="M133.366 301.752C130.671 302.274 128.848 304.346 129.313 306.358C129.779 308.369 132.364 309.588 135.058 309.066C137.752 308.544 139.576 306.471 139.11 304.46C138.645 302.449 136.06 301.23 133.366 301.752Z" fill="#B9E1FF"/>
<path d="M115.397 293.033C112.499 293.594 110.54 295.821 111.041 297.985C111.542 300.148 114.319 301.457 117.217 300.896C120.115 300.335 122.074 298.108 121.573 295.944C121.072 293.781 118.296 292.472 115.397 293.033Z" fill="#B9E1FF"/>
<path d="M97.5147 284.875C94.8205 285.397 92.997 287.47 93.4625 289.481C93.9279 291.493 96.5131 292.711 99.2072 292.19C101.901 291.668 103.725 289.595 103.259 287.584C102.794 285.572 100.209 284.353 97.5147 284.875Z" fill="#B9E1FF"/>
<path d="M79.7297 276.952C77.4029 277.403 75.8495 279.169 76.2515 280.906C76.6535 282.643 78.8556 283.681 81.1824 283.23C83.5092 282.78 85.0626 281.014 84.6606 279.277C84.2586 277.54 82.0564 276.502 79.7297 276.952Z" fill="#B9E1FF"/>
<path d="M61.7365 268.308C59.2873 268.783 57.6326 270.664 58.0558 272.492C58.4789 274.321 60.8247 275.427 63.2739 274.952C65.7232 274.478 67.3778 272.597 66.9547 270.768C66.5316 268.94 64.1858 267.834 61.7365 268.308Z" fill="#B9E1FF"/>
<path d="M43.9215 260.26C41.758 260.679 40.3467 262.322 40.7135 263.907C41.0802 265.492 43.1388 266.462 45.2614 266.051C47.3841 265.64 48.8362 263.989 48.4694 262.405C48.1027 260.82 46.0442 259.849 43.9215 260.26Z" fill="#B9E1FF"/>
<path d="M26.0776 252.255C24.2514 252.608 23.0268 254 23.3423 255.364C23.6577 256.727 25.3939 257.545 27.22 257.192C29.0461 256.838 30.2707 255.446 29.9553 254.083C29.6398 252.719 27.9037 251.901 26.0776 252.255Z" fill="#B9E1FF"/>
<path d="M8.30487 244.392C6.91696 244.661 5.97146 245.736 6.21124 246.772C6.45101 247.808 7.79143 248.44 9.17934 248.171C10.5672 247.903 11.5127 246.828 11.273 245.792C11.0332 244.755 9.69278 244.123 8.30487 244.392Z" fill="#B9E1FF"/>
<path d="M451.263 433.264C450.181 433.473 449.455 434.298 449.642 435.106C449.829 435.914 450.858 436.399 451.94 436.19C453.022 435.98 453.748 435.155 453.561 434.347C453.374 433.539 452.345 433.054 451.263 433.264Z" fill="#B9E1FF"/>
<path d="M433.357 424.824C432.297 425.029 431.587 425.837 431.77 426.628C431.953 427.419 432.96 427.894 434.02 427.689C435.079 427.483 435.79 426.676 435.607 425.884C435.424 425.093 434.417 424.618 433.357 424.824Z" fill="#B9E1FF"/>
<path d="M415.305 415.934C413.917 416.203 412.971 417.277 413.211 418.314C413.451 419.35 414.791 419.982 416.179 419.713C417.567 419.444 418.513 418.369 418.273 417.333C418.033 416.297 416.693 415.665 415.305 415.934Z" fill="#B9E1FF"/>
<path d="M397.269 406.916C395.432 407.271 394.216 408.653 394.533 410.025C394.851 411.396 396.574 412.209 398.411 411.853C400.248 411.497 401.464 410.115 401.146 408.744C400.829 407.372 399.106 406.56 397.269 406.916Z" fill="#B9E1FF"/>
<path d="M379.356 398.631C377.683 398.956 376.535 400.261 376.824 401.51C377.113 402.76 378.741 403.527 380.414 403.203C382.088 402.879 383.236 401.574 382.947 400.324C382.658 399.075 381.03 398.307 379.356 398.631Z" fill="#B9E1FF"/>
<path d="M361.366 389.824C359.407 390.204 358.09 391.701 358.428 393.164C358.767 394.627 360.634 395.507 362.593 395.127C364.553 394.748 365.87 393.251 365.531 391.788C365.193 390.325 363.326 389.445 361.366 389.824Z" fill="#B9E1FF"/>
<path d="M343.338 381.029C341.133 381.456 339.648 383.144 340.028 384.79C340.409 386.436 342.516 387.429 344.72 387.002C346.924 386.575 348.41 384.886 348.029 383.24C347.649 381.595 345.542 380.602 343.338 381.029Z" fill="#B9E1FF"/>
<path d="M325.328 372.13C322.781 372.623 321.072 374.565 321.512 376.467C321.952 378.369 324.374 379.511 326.922 379.018C329.469 378.524 331.178 376.582 330.738 374.68C330.298 372.778 327.876 371.636 325.328 372.13Z" fill="#B9E1FF"/>
<path d="M307.433 363.907C305.065 364.366 303.438 366.177 303.854 367.976C304.27 369.774 306.52 370.834 308.928 370.368C311.337 369.901 312.924 368.097 312.508 366.299C312.092 364.501 309.842 363.44 307.433 363.907Z" fill="#B9E1FF"/>
<path d="M289.478 355.256C286.953 355.745 285.259 357.669 285.696 359.555C286.132 361.44 288.532 362.571 291.057 362.082C293.582 361.593 295.276 359.669 294.84 357.783C294.403 355.898 292.003 354.767 289.478 355.256Z" fill="#B9E1FF"/>
<path d="M271.467 346.357C268.61 346.91 266.726 349.09 267.212 351.193C267.699 353.296 270.428 354.582 273.244 354.037C276.061 353.491 277.986 351.303 277.499 349.2C277.013 347.098 274.284 345.811 271.467 346.357Z" fill="#B9E1FF"/>
<path d="M253.592 338.229C250.98 338.735 249.224 340.731 249.675 342.682C250.126 344.632 252.616 345.806 255.228 345.3C257.841 344.793 259.597 342.798 259.145 340.847C258.694 338.897 256.205 337.723 253.592 338.229Z" fill="#B9E1FF"/>
<path d="M235.665 329.696C232.982 330.216 231.183 332.261 231.647 334.264C232.11 336.267 234.661 337.469 237.343 336.95C240.026 336.43 241.825 334.385 241.362 332.382C240.898 330.379 238.348 329.177 235.665 329.696Z" fill="#B9E1FF"/>
<path d="M217.636 320.899C214.697 321.468 212.705 323.733 213.212 325.927C213.72 328.121 216.545 329.453 219.484 328.883C222.423 328.314 224.415 326.05 223.907 323.855C223.4 321.661 220.575 320.329 217.636 320.899Z" fill="#B9E1FF"/>
<path d="M199.741 312.49C196.832 313.053 194.882 315.27 195.384 317.442C195.887 319.613 198.652 320.916 201.56 320.353C204.468 319.79 206.419 317.573 205.916 315.402C205.414 313.23 202.649 311.927 199.741 312.49Z" fill="#B9E1FF"/>
<path d="M181.895 304.483C179.323 304.981 177.56 306.946 178.011 308.897C178.463 310.847 180.904 311.998 183.517 311.492C186.129 310.986 187.852 309.029 187.4 307.078C186.949 305.128 184.507 303.977 181.895 304.483Z" fill="#B9E1FF"/>
<path d="M164.003 296.102C161.478 296.591 159.785 298.516 160.221 300.401C160.657 302.286 163.058 303.418 165.583 302.929C168.108 302.439 169.801 300.515 169.365 298.63C168.928 296.744 166.528 295.613 164.003 296.102Z" fill="#B9E1FF"/>
<path d="M146.034 287.386C143.34 287.908 141.517 289.981 141.982 291.992C142.447 294.004 145.033 295.223 147.727 294.701C150.421 294.179 152.244 292.106 151.779 290.095C151.314 288.083 148.728 286.865 146.034 287.386Z" fill="#B9E1FF"/>
<path d="M128.187 279.381C125.819 279.839 124.191 281.651 124.608 283.449C125.024 285.247 127.274 286.308 129.682 285.842C132.09 285.375 133.678 283.571 133.262 281.773C132.845 279.975 130.595 278.914 128.187 279.381Z" fill="#B9E1FF"/>
<path d="M110.355 271.242C108.191 271.661 106.78 273.304 107.147 274.889C107.513 276.474 109.572 277.444 111.695 277.033C113.817 276.622 115.269 274.971 114.903 273.386C114.536 271.802 112.477 270.831 110.355 271.242Z" fill="#B9E1FF"/>
<path d="M92.353 262.567C90.0262 263.017 88.4728 264.783 88.8748 266.52C89.2768 268.257 91.4789 269.295 93.8057 268.845C96.1325 268.394 97.6859 266.628 97.2839 264.891C96.8819 263.154 94.6798 262.116 92.353 262.567Z" fill="#B9E1FF"/>
<path d="M74.5735 254.672C72.655 255.044 71.3717 256.502 71.7032 257.935C72.0347 259.367 73.8538 260.225 75.7724 259.853C77.691 259.482 78.9742 258.023 78.6428 256.591C78.3113 255.158 76.4921 254.301 74.5735 254.672Z" fill="#B9E1FF"/>
<path d="M56.7087 246.575C55.063 246.894 53.9593 248.149 54.2436 249.377C54.5279 250.606 56.0926 251.344 57.7383 251.025C59.3841 250.706 60.4878 249.452 60.2035 248.223C59.9191 246.994 58.3545 246.257 56.7087 246.575Z" fill="#B9E1FF"/>
<path d="M38.8959 238.53C37.5433 238.792 36.6361 239.823 36.8698 240.833C37.1035 241.843 38.3895 242.449 39.7422 242.187C41.0949 241.925 42.002 240.894 41.7683 239.884C41.5346 238.874 40.2486 238.268 38.8959 238.53Z" fill="#B9E1FF"/>
<path d="M20.9279 230.009C19.5301 230.279 18.5927 231.345 18.8342 232.388C19.0757 233.432 20.4046 234.058 21.8024 233.788C23.2002 233.517 24.1375 232.451 23.896 231.408C23.6545 230.364 22.3257 229.738 20.9279 230.009Z" fill="#B9E1FF"/>
<path d="M3.15693 222.144C2.17723 222.334 1.53559 223.063 1.70484 223.794C1.87409 224.526 2.78371 224.955 3.76341 224.765C4.74311 224.575 5.38468 223.846 5.21543 223.114C5.04618 222.383 4.13663 221.954 3.15693 222.144Z" fill="#B9E1FF"/>
<path d="M500.002 436.912C499.757 436.959 499.547 437.159 499.597 437.372C499.646 437.586 499.886 437.699 500.171 437.643C500.457 437.588 500.626 437.396 500.577 437.183C500.527 436.969 500.288 436.856 500.002 436.912Z" fill="#B9E1FF"/>
<path d="M482.089 428.44C481.844 428.488 481.635 428.687 481.684 428.901C481.734 429.114 481.973 429.227 482.259 429.172C482.544 429.116 482.713 428.924 482.664 428.711C482.615 428.498 482.375 428.385 482.089 428.44Z" fill="#B9E1FF"/>
<path d="M464.018 419.46C463.364 419.587 462.926 420.085 463.039 420.573C463.152 421.061 463.773 421.354 464.427 421.228C465.081 421.101 465.519 420.603 465.406 420.115C465.293 419.627 464.672 419.334 464.018 419.46Z" fill="#B9E1FF"/>
<path d="M446.012 410.589C445.032 410.778 444.391 411.508 444.56 412.239C444.729 412.971 445.639 413.399 446.618 413.21C447.598 413.02 448.24 412.291 448.071 411.559C447.901 410.828 446.992 410.399 446.012 410.589Z" fill="#B9E1FF"/>
<path d="M428.11 402.15C427.13 402.339 426.488 403.069 426.658 403.8C426.827 404.532 427.736 404.96 428.716 404.771C429.696 404.581 430.337 403.852 430.168 403.12C429.999 402.389 429.089 401.96 428.11 402.15Z" fill="#B9E1FF"/>
<path d="M410.043 393.196C408.737 393.449 407.818 394.455 408.051 395.461C408.284 396.466 409.528 397.053 410.876 396.792C412.223 396.531 413.101 395.533 412.868 394.528C412.635 393.522 411.39 392.935 410.043 393.196Z" fill="#B9E1FF"/>
<path d="M392.07 384.452C390.519 384.753 389.472 385.942 389.74 387.101C390.008 388.259 391.492 388.958 393.043 388.658C394.594 388.357 395.641 387.168 395.373 386.009C395.105 384.851 393.621 384.152 392.07 384.452Z" fill="#B9E1FF"/>
<path d="M374.161 376.174C372.732 376.451 371.786 377.526 372.033 378.592C372.28 379.659 373.62 380.291 375.049 380.014C376.478 379.738 377.423 378.663 377.177 377.596C376.93 376.529 375.589 375.897 374.161 376.174Z" fill="#B9E1FF"/>
<path d="M356.126 367.181C354.3 367.535 353.075 368.927 353.391 370.29C353.706 371.653 355.442 372.472 357.268 372.118C359.095 371.764 360.319 370.372 360.004 369.009C359.688 367.646 357.952 366.827 356.126 367.181Z" fill="#B9E1FF"/>
<path d="M338.126 358.505C336.126 358.893 334.809 360.39 335.154 361.883C335.5 363.376 337.367 364.257 339.367 363.869C341.367 363.482 342.684 361.985 342.339 360.491C341.993 358.998 340.126 358.118 338.126 358.505Z" fill="#B9E1FF"/>
<path d="M320.152 349.759C317.942 350.187 316.461 351.872 316.842 353.521C317.224 355.171 319.325 356.161 321.534 355.733C323.743 355.305 325.225 353.621 324.843 351.971C324.462 350.322 322.361 349.332 320.152 349.759Z" fill="#B9E1FF"/>
<path d="M302.2 341.297C299.996 341.724 298.51 343.413 298.891 345.059C299.271 346.704 301.378 347.697 303.582 347.271C305.786 346.844 307.272 345.155 306.891 343.509C306.511 341.863 304.404 340.87 302.2 341.297Z" fill="#B9E1FF"/>
<path d="M284.275 332.762C281.989 333.205 280.469 334.933 280.864 336.639C281.259 338.346 283.413 339.362 285.699 338.919C287.985 338.476 289.505 336.749 289.11 335.042C288.715 333.335 286.561 332.32 284.275 332.762Z" fill="#B9E1FF"/>
<path d="M266.334 324.172C263.966 324.63 262.338 326.442 262.754 328.24C263.17 330.038 265.42 331.099 267.829 330.633C270.237 330.166 271.824 328.362 271.408 326.564C270.992 324.766 268.742 323.705 266.334 324.172Z" fill="#B9E1FF"/>
<path d="M248.38 315.707C246.012 316.166 244.384 317.978 244.8 319.776C245.216 321.574 247.466 322.635 249.875 322.168C252.283 321.702 253.87 319.898 253.454 318.1C253.038 316.301 250.788 315.241 248.38 315.707Z" fill="#B9E1FF"/>
<path d="M230.476 307.266C228.108 307.724 226.481 309.536 226.897 311.334C227.313 313.133 229.563 314.193 231.971 313.727C234.38 313.26 235.967 311.456 235.551 309.658C235.134 307.86 232.884 306.799 230.476 307.266Z" fill="#B9E1FF"/>
<path d="M212.532 298.831C210.164 299.289 208.536 301.101 208.952 302.899C209.369 304.698 211.619 305.758 214.027 305.292C216.435 304.825 218.023 303.021 217.606 301.223C217.19 299.425 214.94 298.364 212.532 298.831Z" fill="#B9E1FF"/>
<path d="M194.654 290.513C192.377 290.955 190.85 292.69 191.243 294.39C191.637 296.09 193.802 297.111 196.079 296.67C198.356 296.229 199.883 294.493 199.489 292.793C199.096 291.093 196.931 290.072 194.654 290.513Z" fill="#B9E1FF"/>
<path d="M176.703 282.05C174.426 282.491 172.899 284.227 173.292 285.927C173.685 287.627 175.85 288.647 178.127 288.206C180.404 287.765 181.931 286.03 181.538 284.33C181.144 282.63 178.98 281.609 176.703 282.05Z" fill="#B9E1FF"/>
<path d="M158.842 273.792C156.678 274.211 155.267 275.854 155.634 277.439C156 279.023 158.059 279.994 160.182 279.583C162.304 279.172 163.756 277.521 163.39 275.936C163.023 274.351 160.964 273.381 158.842 273.792Z" fill="#B9E1FF"/>
<path d="M140.977 265.533C138.977 265.921 137.66 267.418 138.006 268.911C138.351 270.404 140.218 271.284 142.219 270.897C144.219 270.51 145.536 269.013 145.19 267.519C144.845 266.026 142.978 265.146 140.977 265.533Z" fill="#B9E1FF"/>
<path d="M123.033 257.102C121.033 257.49 119.716 258.987 120.061 260.48C120.407 261.974 122.274 262.854 124.274 262.466C126.274 262.079 127.591 260.582 127.246 259.089C126.9 257.595 125.033 256.715 123.033 257.102Z" fill="#B9E1FF"/>
<path d="M105.183 248.902C103.387 249.25 102.205 250.593 102.516 251.934C102.826 253.275 104.501 254.065 106.298 253.717C108.094 253.37 109.276 252.026 108.965 250.685C108.655 249.344 106.979 248.554 105.183 248.902Z" fill="#B9E1FF"/>
<path d="M87.3088 240.773C85.7576 241.074 84.7108 242.264 84.9788 243.422C85.2468 244.58 86.7308 245.28 88.282 244.979C89.8332 244.679 90.88 243.489 90.612 242.331C90.3441 241.173 88.86 240.473 87.3088 240.773Z" fill="#B9E1FF"/>
<path d="M69.5399 232.915C68.3969 233.136 67.654 233.98 67.8514 234.834C68.0489 235.687 69.1021 236.184 70.2451 235.962C71.3881 235.741 72.131 234.896 71.9335 234.043C71.7361 233.19 70.6829 232.693 69.5399 232.915Z" fill="#B9E1FF"/>
<path d="M51.5443 224.266C50.2818 224.511 49.4351 225.473 49.6533 226.416C49.8714 227.358 51.0716 227.924 52.3341 227.68C53.5966 227.435 54.4433 226.473 54.2252 225.53C54.0071 224.588 52.8068 224.022 51.5443 224.266Z" fill="#B9E1FF"/>
<path d="M33.732 216.221C32.7523 216.411 32.1107 217.14 32.2799 217.872C32.4492 218.603 33.3588 219.032 34.3385 218.842C35.3182 218.653 35.9598 217.923 35.7905 217.192C35.6213 216.46 34.7117 216.032 33.732 216.221Z" fill="#B9E1FF"/>
<path d="M15.9139 208.336C15.3424 208.447 14.9709 208.869 15.0696 209.296C15.1684 209.722 15.695 209.97 16.2665 209.86C16.838 209.749 17.2094 209.327 17.1107 208.9C17.012 208.474 16.4854 208.225 15.9139 208.336Z" fill="#B9E1FF"/>
<path d="M494.728 414.116C494.483 414.163 494.355 414.347 494.391 414.5C494.426 414.652 494.665 414.765 494.869 414.726C495.073 414.686 495.242 414.494 495.207 414.342C495.172 414.189 494.932 414.076 494.728 414.116Z" fill="#B9E1FF"/>
<path d="M476.846 405.794C476.846 405.794 476.622 405.933 476.643 406.025C476.664 406.116 476.808 406.184 476.931 406.16C477.054 406.136 477.156 406.021 477.135 405.93C477.114 405.838 476.969 405.771 476.846 405.794Z" fill="#B9E1FF"/>
<path d="M458.77 396.783C458.199 396.894 457.827 397.316 457.926 397.743C458.025 398.169 458.551 398.418 459.123 398.307C459.694 398.196 460.066 397.774 459.967 397.347C459.868 396.921 459.342 396.673 458.77 396.783Z" fill="#B9E1FF"/>
<path d="M440.767 387.915C439.909 388.081 439.335 388.734 439.483 389.374C439.631 390.014 440.445 390.398 441.303 390.232C442.16 390.066 442.734 389.413 442.586 388.773C442.438 388.133 441.624 387.749 440.767 387.915Z" fill="#B9E1FF"/>
<path d="M422.897 379.626C422.163 379.768 421.69 380.305 421.817 380.854C421.944 381.403 422.614 381.719 423.349 381.576C424.084 381.434 424.556 380.897 424.429 380.348C424.302 379.799 423.632 379.483 422.897 379.626Z" fill="#B9E1FF"/>
<path d="M404.868 370.829C403.876 371.021 403.211 371.777 403.382 372.517C403.553 373.258 404.496 373.703 405.488 373.511C406.48 373.318 407.146 372.562 406.974 371.822C406.803 371.081 405.86 370.636 404.868 370.829Z" fill="#B9E1FF"/>
<path d="M386.829 361.809C385.409 362.085 384.456 363.167 384.702 364.228C384.947 365.288 386.298 365.925 387.718 365.65C389.138 365.374 390.091 364.292 389.845 363.231C389.6 362.171 388.25 361.534 386.829 361.809Z" fill="#B9E1FF"/>
<path d="M368.933 353.588C367.668 353.833 366.824 354.792 367.042 355.737C367.261 356.682 368.458 357.246 369.723 357.001C370.989 356.756 371.833 355.796 371.614 354.851C371.395 353.907 370.199 353.342 368.933 353.588Z" fill="#B9E1FF"/>
<path d="M350.972 344.903C349.552 345.178 348.6 346.261 348.845 347.321C349.09 348.382 350.441 349.018 351.861 348.743C353.281 348.468 354.234 347.386 353.988 346.325C353.743 345.265 352.393 344.628 350.972 344.903Z" fill="#B9E1FF"/>
<path d="M332.9 335.922C331.074 336.275 329.849 337.667 330.165 339.031C330.48 340.394 332.216 341.212 334.042 340.859C335.869 340.505 337.093 339.113 336.778 337.75C336.462 336.386 334.726 335.568 332.9 335.922Z" fill="#B9E1FF"/>
<path d="M314.947 327.268C312.988 327.648 311.671 329.145 312.009 330.608C312.348 332.071 314.215 332.951 316.174 332.571C318.134 332.192 319.451 330.695 319.112 329.232C318.774 327.769 316.907 326.889 314.947 327.268Z" fill="#B9E1FF"/>
<path d="M297.087 319.198C295.413 319.522 294.265 320.828 294.554 322.077C294.843 323.327 296.471 324.094 298.144 323.77C299.818 323.446 300.966 322.141 300.677 320.891C300.388 319.641 298.76 318.874 297.087 319.198Z" fill="#B9E1FF"/>
<path d="M279.062 310.241C277.021 310.636 275.637 312.21 275.989 313.734C276.342 315.257 278.305 316.183 280.346 315.787C282.387 315.392 283.771 313.818 283.419 312.294C283.066 310.771 281.103 309.845 279.062 310.241Z" fill="#B9E1FF"/>
<path d="M261.145 301.74C259.048 302.146 257.642 303.744 258.004 305.31C258.366 306.875 260.36 307.815 262.456 307.409C264.553 307.003 265.959 305.404 265.597 303.839C265.235 302.274 263.241 301.334 261.145 301.74Z" fill="#B9E1FF"/>
<path d="M243.281 293.671C241.444 294.026 240.228 295.408 240.546 296.78C240.863 298.151 242.586 298.964 244.423 298.608C246.26 298.252 247.476 296.87 247.159 295.499C246.841 294.127 245.118 293.315 243.281 293.671Z" fill="#B9E1FF"/>
<path d="M225.386 285.262C223.59 285.61 222.415 286.984 222.718 288.295C223.021 289.605 224.704 290.426 226.5 290.078C228.296 289.73 229.478 288.386 229.168 287.045C228.857 285.704 227.182 284.915 225.386 285.262Z" fill="#B9E1FF"/>
<path d="M207.348 276.433C205.296 276.83 203.92 278.394 204.275 279.926C204.629 281.458 206.58 282.377 208.631 281.98C210.683 281.582 212.059 280.019 211.704 278.487C211.35 276.955 209.399 276.036 207.348 276.433Z" fill="#B9E1FF"/>
<path d="M189.487 268.175C187.568 268.547 186.285 270.005 186.616 271.438C186.948 272.87 188.767 273.728 190.686 273.356C192.604 272.985 193.887 271.526 193.556 270.094C193.224 268.661 191.405 267.804 189.487 268.175Z" fill="#B9E1FF"/>
<path d="M171.633 260.139C170 260.455 168.919 261.683 169.201 262.902C169.484 264.121 171.015 264.844 172.648 264.527C174.281 264.211 175.362 262.983 175.08 261.764C174.798 260.545 173.266 259.822 171.633 260.139Z" fill="#B9E1FF"/>
<path d="M153.657 251.392C151.831 251.746 150.606 253.138 150.922 254.501C151.237 255.865 152.973 256.683 154.799 256.329C156.626 255.976 157.85 254.584 157.535 253.22C157.219 251.857 155.483 251.039 153.657 251.392Z" fill="#B9E1FF"/>
<path d="M135.815 243.226C134.183 243.542 133.102 244.771 133.384 245.99C133.666 247.209 135.198 247.931 136.831 247.615C138.464 247.298 139.544 246.07 139.262 244.851C138.98 243.632 137.448 242.91 135.815 243.226Z" fill="#B9E1FF"/>
<path d="M117.976 235.249C116.711 235.494 115.867 236.454 116.085 237.399C116.304 238.343 117.501 238.908 118.766 238.663C120.032 238.417 120.876 237.458 120.657 236.513C120.439 235.568 119.242 235.004 117.976 235.249Z" fill="#B9E1FF"/>
<path d="M100.165 227.203C99.1851 227.393 98.5435 228.122 98.7128 228.854C98.882 229.585 99.7916 230.014 100.771 229.824C101.751 229.635 102.393 228.905 102.223 228.174C102.054 227.442 101.145 227.014 100.165 227.203Z" fill="#B9E1FF"/>
<path d="M82.1615 218.528C81.0185 218.749 80.2756 219.594 80.473 220.447C80.6705 221.3 81.7237 221.797 82.8667 221.576C84.0097 221.354 84.7526 220.51 84.5551 219.656C84.3576 218.803 83.3044 218.306 82.1615 218.528Z" fill="#B9E1FF"/>
<path d="M64.3911 210.668C63.6971 210.802 63.2243 211.339 63.3442 211.857C63.4641 212.376 64.1343 212.692 64.8283 212.557C65.5222 212.423 65.995 211.885 65.8751 211.367C65.7552 210.849 65.085 210.533 64.3911 210.668Z" fill="#B9E1FF"/>
<path d="M46.5372 202.629C46.129 202.708 45.8589 203.015 45.9294 203.32C45.9999 203.625 46.3829 203.805 46.7911 203.726C47.1993 203.647 47.4695 203.34 47.3989 203.035C47.3284 202.731 46.9454 202.55 46.5372 202.629Z" fill="#B9E1FF"/>
<path d="M28.5922 194.006C28.0615 194.109 27.7309 194.523 27.8155 194.889C27.9001 195.255 28.4268 195.503 28.9166 195.408C29.4065 195.313 29.7779 194.891 29.6933 194.525C29.6086 194.159 29.0821 193.911 28.5922 194.006Z" fill="#B9E1FF"/>
<path d="M10.7656 186.09C10.7656 186.09 10.5407 186.229 10.5618 186.32C10.583 186.412 10.7272 186.479 10.8501 186.455C10.9731 186.432 11.0749 186.316 11.0538 186.225C11.0326 186.134 10.8885 186.066 10.7656 186.09Z" fill="#B9E1FF"/>
<path d="M489.479 391.44C489.479 391.44 489.254 391.579 489.275 391.67C489.296 391.762 489.44 391.829 489.563 391.805C489.686 391.782 489.788 391.666 489.767 391.575C489.746 391.484 489.602 391.416 489.479 391.44Z" fill="#B9E1FF"/>
<path d="M471.602 383.123C471.602 383.123 471.56 383.131 471.567 383.162C471.574 383.192 471.574 383.192 471.616 383.184C471.658 383.176 471.658 383.176 471.651 383.145C471.644 383.115 471.644 383.115 471.602 383.123Z" fill="#B9E1FF"/>
<path d="M453.551 374.229C453.184 374.3 452.948 374.569 453.011 374.843C453.075 375.117 453.41 375.275 453.777 375.204C454.144 375.133 454.381 374.864 454.317 374.59C454.254 374.316 453.919 374.158 453.551 374.229Z" fill="#B9E1FF"/>
<path d="M435.548 365.361C434.894 365.487 434.456 365.986 434.569 366.474C434.681 366.962 435.303 367.255 435.957 367.128C436.611 367.002 437.049 366.503 436.936 366.015C436.823 365.527 436.202 365.234 435.548 365.361Z" fill="#B9E1FF"/>
<path d="M417.637 356.891C416.984 357.018 416.545 357.517 416.658 358.004C416.771 358.492 417.393 358.786 418.046 358.659C418.699 358.532 419.138 358.033 419.025 357.546C418.913 357.058 418.29 356.765 417.637 356.891Z" fill="#B9E1FF"/>
<path d="M399.628 348.184C398.771 348.35 398.197 349.003 398.345 349.643C398.493 350.283 399.307 350.667 400.164 350.501C401.021 350.335 401.595 349.682 401.447 349.042C401.299 348.402 400.485 348.019 399.628 348.184Z" fill="#B9E1FF"/>
<path d="M381.655 339.44C380.553 339.653 379.851 340.49 380.034 341.282C380.218 342.074 381.271 342.571 382.332 342.365C383.394 342.16 384.137 341.315 383.953 340.523C383.77 339.731 382.717 339.234 381.655 339.44Z" fill="#B9E1FF"/>
<path d="M363.703 330.979C362.601 331.192 361.899 332.029 362.082 332.821C362.265 333.614 363.319 334.11 364.38 333.904C365.441 333.699 366.184 332.854 366.001 332.062C365.817 331.27 364.764 330.773 363.703 330.979Z" fill="#B9E1FF"/>
<path d="M345.74 322.29C344.474 322.535 343.63 323.495 343.849 324.44C344.067 325.384 345.264 325.949 346.529 325.704C347.795 325.458 348.639 324.499 348.421 323.554C348.202 322.609 347.005 322.045 345.74 322.29Z" fill="#B9E1FF"/>
<path d="M327.76 313.706C326.413 313.967 325.501 315.003 325.734 316.009C325.967 317.015 327.259 317.624 328.606 317.363C329.954 317.102 330.865 316.066 330.633 315.06C330.4 314.054 329.107 313.445 327.76 313.706Z" fill="#B9E1FF"/>
<path d="M309.749 304.804C308.058 305.132 306.924 306.421 307.216 307.683C307.508 308.945 309.116 309.703 310.807 309.376C312.498 309.048 313.632 307.759 313.339 306.497C313.047 305.235 311.44 304.477 309.749 304.804Z" fill="#B9E1FF"/>
<path d="M291.867 296.65C290.397 296.934 289.384 298.086 289.638 299.183C289.892 300.28 291.328 300.957 292.798 300.673C294.267 300.388 295.28 299.237 295.026 298.139C294.773 297.042 293.336 296.365 291.867 296.65Z" fill="#B9E1FF"/>
<path d="M273.949 288.146C272.439 288.438 271.385 289.598 271.653 290.756C271.921 291.914 273.357 292.591 274.908 292.291C276.459 291.99 277.473 290.839 277.205 289.681C276.937 288.522 275.5 287.845 273.949 288.146Z" fill="#B9E1FF"/>
<path d="M256.037 279.674C254.526 279.967 253.473 281.126 253.741 282.284C254.009 283.442 255.445 284.119 256.996 283.819C258.547 283.518 259.56 282.367 259.292 281.209C259.024 280.051 257.588 279.374 256.037 279.674Z" fill="#B9E1FF"/>
<path d="M238.093 271.243C236.582 271.536 235.528 272.695 235.796 273.854C236.064 275.012 237.501 275.689 239.052 275.388C240.603 275.088 241.616 273.936 241.348 272.778C241.08 271.62 239.644 270.943 238.093 271.243Z" fill="#B9E1FF"/>
<path d="M220.215 262.92C218.795 263.195 217.842 264.278 218.088 265.338C218.333 266.399 219.683 267.035 221.104 266.76C222.524 266.485 223.476 265.403 223.231 264.342C222.986 263.282 221.635 262.645 220.215 262.92Z" fill="#B9E1FF"/>
<path d="M202.285 254.551C200.938 254.812 200.026 255.848 200.259 256.854C200.492 257.86 201.784 258.469 203.131 258.208C204.478 257.947 205.39 256.911 205.157 255.905C204.925 254.9 203.632 254.29 202.285 254.551Z" fill="#B9E1FF"/>
<path d="M184.295 245.744C182.672 246.059 181.584 247.296 181.864 248.508C182.144 249.72 183.688 250.447 185.311 250.133C186.934 249.818 188.023 248.581 187.742 247.369C187.462 246.157 185.919 245.43 184.295 245.744Z" fill="#B9E1FF"/>
<path d="M166.469 237.827C165.244 238.064 164.434 238.985 164.645 239.9C164.857 240.814 166.006 241.356 167.23 241.118C168.455 240.881 169.265 239.96 169.054 239.046C168.842 238.131 167.693 237.59 166.469 237.827Z" fill="#B9E1FF"/>
<path d="M148.615 229.601C147.553 229.807 146.844 230.613 147.028 231.405C147.211 232.197 148.216 232.671 149.278 232.466C150.339 232.26 151.048 231.454 150.865 230.662C150.681 229.869 149.676 229.395 148.615 229.601Z" fill="#B9E1FF"/>
<path d="M130.781 221.466C129.947 221.628 129.387 222.263 129.531 222.886C129.675 223.509 130.468 223.883 131.303 223.721C132.137 223.56 132.696 222.924 132.552 222.301C132.408 221.678 131.615 221.304 130.781 221.466Z" fill="#B9E1FF"/>
<path d="M112.834 213.031C112.018 213.189 111.436 213.811 111.585 214.451C111.733 215.091 112.499 215.452 113.356 215.286C114.213 215.12 114.753 214.506 114.605 213.866C114.457 213.226 113.691 212.865 112.834 213.031Z" fill="#B9E1FF"/>
<path d="M95.0002 204.895C94.3879 205.013 94.0235 205.466 94.1222 205.893C94.2209 206.319 94.7954 206.59 95.3669 206.48C95.9384 206.369 96.3436 205.908 96.2449 205.482C96.1461 205.055 95.5717 204.784 95.0002 204.895Z" fill="#B9E1FF"/>
<path d="M77.1217 196.738C76.7543 196.809 76.5179 197.078 76.5814 197.352C76.6449 197.627 76.98 197.785 77.3474 197.713C77.7148 197.642 77.9511 197.374 77.8877 197.099C77.8242 196.825 77.4891 196.667 77.1217 196.738Z" fill="#B9E1FF"/>
<path d="M59.2154 188.296C58.848 188.367 58.6117 188.636 58.6751 188.91C58.7386 189.184 59.0737 189.342 59.4411 189.271C59.8085 189.2 60.0449 188.931 59.9814 188.657C59.9179 188.383 59.5828 188.225 59.2154 188.296Z" fill="#B9E1FF"/>
<path d="M41.3749 180.321C41.3517 180.326 41.336 180.343 41.3399 180.36C41.3438 180.377 41.3658 180.387 41.389 180.382C41.4122 180.378 41.4279 180.36 41.424 180.344C41.4201 180.327 41.3981 180.317 41.3749 180.321Z" fill="#B9E1FF"/>
<path d="M448.313 351.587C448.088 351.631 447.937 351.803 447.976 351.971C448.015 352.139 448.229 352.24 448.454 352.197C448.68 352.153 448.831 351.981 448.792 351.813C448.753 351.645 448.539 351.544 448.313 351.587Z" fill="#B9E1FF"/>
<path d="M430.314 342.749C429.818 342.846 429.485 343.224 429.571 343.594C429.656 343.964 430.128 344.187 430.624 344.09C431.12 343.994 431.453 343.616 431.367 343.246C431.281 342.876 430.81 342.653 430.314 342.749Z" fill="#B9E1FF"/>
<path d="M412.454 334.491C412.093 334.561 411.851 334.836 411.913 335.105C411.976 335.375 412.319 335.536 412.679 335.466C413.04 335.396 413.282 335.122 413.22 334.852C413.157 334.583 412.814 334.421 412.454 334.491Z" fill="#B9E1FF"/>
<path d="M394.404 325.602C393.71 325.737 393.237 326.274 393.357 326.792C393.477 327.31 394.147 327.626 394.841 327.492C395.535 327.357 396.007 326.82 395.888 326.302C395.768 325.784 395.097 325.468 394.404 325.602Z" fill="#B9E1FF"/>
<path d="M376.442 316.915C375.585 317.081 375.011 317.733 375.159 318.374C375.307 319.014 376.121 319.397 376.978 319.231C377.835 319.065 378.409 318.413 378.261 317.773C378.113 317.133 377.299 316.749 376.442 316.915Z" fill="#B9E1FF"/>
<path d="M358.554 308.727C357.901 308.853 357.462 309.352 357.575 309.84C357.687 310.328 358.31 310.621 358.963 310.494C359.616 310.368 360.055 309.869 359.942 309.381C359.829 308.894 359.207 308.6 358.554 308.727Z" fill="#B9E1FF"/>
<path d="M340.543 299.83C339.563 300.019 338.887 300.787 339.057 301.518C339.226 302.25 340.183 302.701 341.163 302.511C342.143 302.322 342.818 301.554 342.649 300.823C342.48 300.091 341.522 299.64 340.543 299.83Z" fill="#B9E1FF"/>
<path d="M322.554 291.213C321.411 291.435 320.668 292.279 320.865 293.133C321.063 293.986 322.116 294.482 323.259 294.261C324.402 294.04 325.145 293.195 324.947 292.342C324.75 291.489 323.697 290.992 322.554 291.213Z" fill="#B9E1FF"/>
<path d="M304.622 282.649C303.438 282.878 302.628 283.8 302.832 284.683C303.037 285.567 304.186 286.109 305.37 285.88C306.554 285.65 307.364 284.729 307.159 283.845C306.955 282.961 305.806 282.42 304.622 282.649Z" fill="#B9E1FF"/>
<path d="M286.76 274.583C285.821 274.765 285.213 275.456 285.375 276.157C285.537 276.858 286.399 277.264 287.338 277.082C288.277 276.9 288.885 276.209 288.722 275.508C288.56 274.807 287.698 274.401 286.76 274.583Z" fill="#B9E1FF"/>
<path d="M268.759 265.716C267.541 265.951 266.725 266.879 266.935 267.788C267.145 268.697 268.303 269.243 269.52 269.007C270.738 268.771 271.554 267.843 271.344 266.934C271.133 266.025 269.976 265.48 268.759 265.716Z" fill="#B9E1FF"/>
<path d="M250.861 257.307C249.677 257.536 248.867 258.457 249.071 259.341C249.276 260.225 250.425 260.767 251.609 260.537C252.793 260.308 253.603 259.387 253.398 258.503C253.194 257.619 252.045 257.077 250.861 257.307Z" fill="#B9E1FF"/>
<path d="M233.015 249.299C232.158 249.465 231.584 250.118 231.732 250.758C231.88 251.398 232.694 251.781 233.551 251.615C234.408 251.449 234.982 250.797 234.834 250.157C234.686 249.517 233.872 249.133 233.015 249.299Z" fill="#B9E1FF"/>
<path d="M215.04 240.552C213.938 240.765 213.236 241.602 213.419 242.394C213.603 243.187 214.656 243.683 215.717 243.478C216.779 243.272 217.522 242.428 217.338 241.635C217.155 240.843 216.102 240.346 215.04 240.552Z" fill="#B9E1FF"/>
<path d="M197.123 232.241C196.131 232.433 195.465 233.189 195.637 233.93C195.808 234.67 196.751 235.115 197.743 234.923C198.735 234.73 199.4 233.974 199.229 233.234C199.058 232.493 198.115 232.049 197.123 232.241Z" fill="#B9E1FF"/>
<path d="M179.253 223.953C178.396 224.118 177.822 224.771 177.97 225.411C178.118 226.051 178.932 226.435 179.789 226.269C180.646 226.103 181.22 225.45 181.072 224.81C180.924 224.171 180.11 223.787 179.253 223.953Z" fill="#B9E1FF"/>
<path d="M161.421 216.008C160.931 216.103 160.594 216.487 160.678 216.853C160.763 217.218 161.242 217.444 161.732 217.349C162.221 217.254 162.559 216.871 162.474 216.505C162.39 216.139 161.911 215.913 161.421 216.008Z" fill="#B9E1FF"/>
<path d="M143.459 207.322C142.805 207.449 142.367 207.947 142.48 208.435C142.593 208.923 143.214 209.216 143.868 209.09C144.522 208.963 144.96 208.465 144.847 207.977C144.734 207.488 144.113 207.195 143.459 207.322Z" fill="#B9E1FF"/>
<path d="M125.625 199.187C125.197 199.27 124.91 199.596 124.984 199.916C125.058 200.236 125.465 200.428 125.893 200.345C126.322 200.262 126.609 199.936 126.535 199.616C126.461 199.296 126.054 199.104 125.625 199.187Z" fill="#B9E1FF"/>
<path d="M107.799 191.269C107.799 191.269 107.757 191.277 107.764 191.308C107.771 191.338 107.771 191.338 107.813 191.33C107.855 191.322 107.855 191.322 107.848 191.291C107.841 191.261 107.841 191.261 107.799 191.269Z" fill="#B9E1FF"/>
<path d="M89.8531 182.649C89.8531 182.649 89.5885 182.796 89.6166 182.917C89.6448 183.039 89.7883 183.107 89.9516 183.075C90.1149 183.043 90.2162 182.928 90.1881 182.807C90.1599 182.685 90.0163 182.617 89.8531 182.649Z" fill="#B9E1FF"/>
<path d="M425.076 320.106C424.709 320.177 424.473 320.446 424.536 320.72C424.599 320.994 424.935 321.152 425.302 321.081C425.669 321.01 425.906 320.741 425.842 320.467C425.779 320.193 425.444 320.035 425.076 320.106Z" fill="#B9E1FF"/>
<path d="M407.242 311.971C407.242 311.971 407.017 312.11 407.039 312.202C407.06 312.293 407.204 312.361 407.327 312.337C407.45 312.313 407.552 312.198 407.53 312.106C407.509 312.015 407.365 311.947 407.242 311.971Z" fill="#B9E1FF"/>
<path d="M389.24 303.292C388.954 303.347 388.751 303.578 388.801 303.791C388.85 304.004 389.137 304.14 389.423 304.084C389.709 304.029 389.912 303.799 389.862 303.585C389.813 303.372 389.526 303.236 389.24 303.292Z" fill="#B9E1FF"/>
<path d="M371.225 294.363C370.572 294.49 370.133 294.989 370.246 295.476C370.359 295.964 370.981 296.257 371.634 296.131C372.287 296.004 372.726 295.505 372.613 295.018C372.501 294.53 371.878 294.237 371.225 294.363Z" fill="#B9E1FF"/>
<path d="M353.348 286.235C352.899 286.322 352.635 286.659 352.706 286.964C352.776 287.269 353.207 287.472 353.616 287.393C354.024 287.314 354.328 286.968 354.257 286.664C354.187 286.359 353.756 286.156 353.348 286.235Z" fill="#B9E1FF"/>
<path d="M335.409 277.643C334.879 277.746 334.548 278.16 334.633 278.526C334.717 278.891 335.244 279.14 335.734 279.045C336.224 278.95 336.595 278.528 336.51 278.162C336.426 277.796 335.899 277.548 335.409 277.643Z" fill="#B9E1FF"/>
<path d="M317.442 269.116C316.856 269.229 316.463 269.676 316.564 270.114C316.665 270.552 317.223 270.814 317.809 270.701C318.395 270.587 318.788 270.14 318.687 269.703C318.586 269.265 318.028 269.002 317.442 269.116Z" fill="#B9E1FF"/>
<path d="M299.425 260.189C298.486 260.371 297.878 261.062 298.04 261.763C298.202 262.464 299.064 262.87 300.003 262.688C300.942 262.507 301.55 261.816 301.387 261.115C301.225 260.414 300.363 260.008 299.425 260.189Z" fill="#B9E1FF"/>
<path d="M281.584 252.211C280.972 252.33 280.607 252.782 280.706 253.209C280.805 253.636 281.379 253.907 281.951 253.796C282.522 253.685 282.928 253.225 282.829 252.798C282.73 252.371 282.156 252.1 281.584 252.211Z" fill="#B9E1FF"/>
<path d="M263.675 243.74C263.062 243.859 262.698 244.311 262.797 244.738C262.895 245.165 263.47 245.435 264.041 245.325C264.613 245.214 265.018 244.753 264.919 244.327C264.821 243.9 264.246 243.629 263.675 243.74Z" fill="#B9E1FF"/>
<path d="M245.685 234.935C244.828 235.101 244.254 235.754 244.402 236.394C244.55 237.034 245.364 237.418 246.221 237.252C247.078 237.086 247.653 236.433 247.504 235.793C247.356 235.153 246.543 234.769 245.685 234.935Z" fill="#B9E1FF"/>
<path d="M227.838 226.929C227.307 227.032 226.976 227.446 227.061 227.812C227.146 228.178 227.672 228.426 228.162 228.331C228.652 228.236 229.023 227.814 228.939 227.448C228.854 227.083 228.328 226.834 227.838 226.929Z" fill="#B9E1FF"/>
<path d="M209.97 218.64C209.564 218.719 209.292 219.028 209.362 219.331C209.432 219.634 209.818 219.816 210.223 219.738C210.629 219.659 210.901 219.35 210.831 219.047C210.761 218.744 210.375 218.562 209.97 218.64Z" fill="#B9E1FF"/>
<path d="M192.057 210.358C191.772 210.414 191.569 210.644 191.618 210.857C191.668 211.071 191.955 211.206 192.241 211.151C192.527 211.095 192.729 210.865 192.68 210.652C192.63 210.438 192.343 210.303 192.057 210.358Z" fill="#B9E1FF"/>
<path d="M174.084 201.614C173.594 201.709 173.257 202.092 173.341 202.458C173.426 202.824 173.905 203.05 174.394 202.955C174.884 202.86 175.222 202.476 175.137 202.11C175.053 201.745 174.574 201.519 174.084 201.614Z" fill="#B9E1FF"/>
<path d="M156.265 193.729C156.265 193.729 156.115 193.822 156.129 193.883C156.143 193.943 156.239 193.989 156.321 193.973C156.403 193.957 156.471 193.88 156.457 193.819C156.443 193.758 156.347 193.713 156.265 193.729Z" fill="#B9E1FF"/>
<path d="M120.469 176.91C120.469 176.91 120.427 176.918 120.434 176.949C120.441 176.979 120.441 176.979 120.483 176.971C120.525 176.963 120.525 176.963 120.518 176.933C120.511 176.902 120.511 176.902 120.469 176.91Z" fill="#B9E1FF"/>
<path d="M384.043 280.833C384.043 280.833 384.001 280.841 384.008 280.872C384.015 280.902 384.015 280.902 384.057 280.894C384.099 280.886 384.099 280.886 384.092 280.855C384.085 280.825 384.085 280.825 384.043 280.833Z" fill="#B9E1FF"/>
<path d="M366.096 272.208C366.096 272.208 365.831 272.355 365.86 272.476C365.888 272.598 366.031 272.666 366.195 272.634C366.358 272.602 366.459 272.487 366.431 272.366C366.403 272.244 366.259 272.177 366.096 272.208Z" fill="#B9E1FF"/>
<path d="M330.21 255.181C329.965 255.229 329.756 255.429 329.805 255.642C329.854 255.855 330.094 255.968 330.38 255.913C330.665 255.857 330.834 255.665 330.785 255.452C330.735 255.239 330.496 255.126 330.21 255.181Z" fill="#B9E1FF"/>
<path d="M312.252 246.687C311.967 246.742 311.764 246.972 311.813 247.186C311.863 247.399 312.15 247.535 312.436 247.479C312.721 247.424 312.924 247.194 312.875 246.98C312.825 246.767 312.538 246.632 312.252 246.687Z" fill="#B9E1FF"/>
<path d="M294.342 238.216C294.056 238.272 293.854 238.502 293.903 238.715C293.952 238.928 294.24 239.064 294.525 239.009C294.811 238.953 295.014 238.723 294.964 238.51C294.915 238.296 294.628 238.161 294.342 238.216Z" fill="#B9E1FF"/>
<path d="M276.396 229.784C276.11 229.839 275.908 230.069 275.957 230.283C276.006 230.496 276.294 230.631 276.579 230.576C276.865 230.521 277.068 230.29 277.018 230.077C276.969 229.864 276.682 229.728 276.396 229.784Z" fill="#B9E1FF"/>
<path d="M258.498 221.372C258.227 221.425 258.046 221.631 258.092 221.833C258.139 222.035 258.396 222.156 258.667 222.104C258.937 222.051 259.119 221.845 259.072 221.643C259.025 221.441 258.768 221.32 258.498 221.372Z" fill="#B9E1FF"/>
<path d="M240.622 213.051C240.622 213.051 240.357 213.198 240.385 213.32C240.414 213.441 240.557 213.509 240.72 213.477C240.884 213.446 240.985 213.331 240.957 213.209C240.929 213.087 240.785 213.02 240.622 213.051Z" fill="#B9E1FF"/>
<path d="M204.807 196.332C204.807 196.332 204.765 196.34 204.772 196.371C204.779 196.401 204.779 196.401 204.821 196.393C204.864 196.385 204.864 196.385 204.856 196.354C204.849 196.324 204.849 196.324 204.807 196.332Z" fill="#B9E1FF"/>
</g>
</g>
<defs>
<clipPath id="clip0_699_1615">
<rect width="1440" height="441" fill="white"/>
</clipPath>
</defs>
</svg>
