<svg width="41" height="41" viewBox="0 0 41 41" fill="none" xmlns="http://www.w3.org/2000/svg">
<path d="M20.2129 3.66602C21.2831 3.66605 22.1776 4.2509 22.918 5.03809C23.6588 5.82588 24.2941 6.86769 24.8506 7.89551C25.1302 8.41187 25.3943 8.9328 25.6426 9.42285C25.8921 9.91548 26.1254 10.3752 26.3486 10.7803C26.5728 11.187 26.7784 11.5238 26.9707 11.7734C27.121 11.9685 27.2418 12.0812 27.3311 12.1406L27.4102 12.1836L27.5459 12.2285C27.7003 12.2733 27.9121 12.3169 28.1836 12.3584C28.5383 12.4126 28.9645 12.4596 29.4434 12.5088C30.3938 12.6064 31.5435 12.7104 32.666 12.8896C33.7855 13.0684 34.914 13.3271 35.8232 13.748C36.6711 14.1406 37.3975 14.7082 37.6895 15.5498L37.7422 15.7217V15.7227C37.9845 16.6481 37.6568 17.6054 37.1309 18.4941C36.6001 19.3911 35.819 20.2998 35.0254 21.1602C34.2171 22.0365 33.4091 22.8489 32.7559 23.6094C32.4329 23.9853 32.1618 24.3337 31.96 24.6514C31.7557 24.973 31.639 25.2388 31.5996 25.4512C31.5087 25.9443 31.5906 26.7045 31.7686 27.6699C31.8557 28.1429 31.9626 28.648 32.0732 29.1738C32.1835 29.6975 32.2976 30.2414 32.3984 30.7842C32.5991 31.865 32.7525 32.9714 32.7109 33.9512C32.6696 34.9246 32.4324 35.8501 31.7754 36.4863C31.0646 37.1747 30.0558 37.162 29.0703 36.9053C28.0699 36.6447 26.946 36.0967 25.8506 35.5049C24.7268 34.8978 23.665 34.2632 22.6768 33.7529C22.1913 33.5023 21.7465 33.2943 21.3535 33.1494C20.9551 33.0026 20.6393 32.9327 20.4043 32.9326C20.1693 32.9326 19.8535 33.0026 19.4551 33.1494C19.0621 33.2943 18.6172 33.5023 18.1318 33.7529C17.1435 34.2633 16.081 34.8977 14.957 35.5049C13.8617 36.0966 12.7386 36.6447 11.7383 36.9053C10.7527 37.162 9.74308 37.1748 9.03223 36.4863C8.37551 35.8501 8.13895 34.9245 8.09766 33.9512C8.05609 32.9714 8.20945 31.8651 8.41016 30.7842C8.51095 30.2414 8.62513 29.6975 8.73535 29.1738C8.84602 28.648 8.95287 28.1429 9.04004 27.6699C9.21795 26.7046 9.29988 25.9443 9.20898 25.4512L9.16504 25.2812C9.10611 25.1019 9.00182 24.8926 8.84863 24.6514C8.64678 24.3336 8.37484 23.9855 8.05176 23.6094C7.39842 22.8489 6.59059 22.0366 5.78223 21.1602C4.98866 20.2998 4.20852 19.3911 3.67773 18.4941C3.1518 17.6054 2.82311 16.6481 3.06543 15.7227V15.7217C3.31348 14.7846 4.08097 14.1667 4.98535 13.748C5.89467 13.3271 7.02309 13.0684 8.14258 12.8896C9.26526 12.7104 10.4147 12.6065 11.3652 12.5088C11.8441 12.4596 12.2703 12.4126 12.625 12.3584C12.9867 12.3031 13.2425 12.2447 13.3975 12.1836H13.3984C13.4852 12.1495 13.6257 12.039 13.8145 11.7812C13.9955 11.5339 14.1868 11.1999 14.3926 10.7939C14.5975 10.3897 14.8094 9.93006 15.0361 9.4375C15.2616 8.94774 15.5006 8.4267 15.7559 7.91016C16.2638 6.88225 16.8506 5.83785 17.5566 5.04688C18.264 4.25456 19.1376 3.66602 20.2129 3.66602Z" fill="#1F90FF" stroke="black" stroke-width="0.866667"/>
<path d="M24.5588 32.4376C22.666 31.3716 20.7116 30.2509 20.1718 30.2509C19.632 30.2509 17.3565 31.2213 15.4636 32.2873C13.9808 33.1209 11.8283 34.4056 10.8785 33.7564C9.92863 33.1073 10.6598 30.6746 10.9946 29.0961C11.3568 27.3809 12.0743 24.9141 11.76 24.2717C11.3431 23.4244 9.68263 22.1466 8.2203 20.5954C7.12013 19.4337 5.15213 17.5477 5.52796 16.3724C5.9038 15.1971 9.92863 14.9306 11.2885 14.7939C12.6005 14.6641 14.7188 14.5411 15.2655 14.0286C15.7438 13.5776 16.2221 12.4432 17.0968 10.5572C17.8348 8.95142 19.2288 6.38892 20.4041 6.38892C21.5795 6.38892 22.8778 8.93092 23.7115 10.5709C24.6476 12.4159 25.7888 14.1652 26.1031 14.4317C26.4175 14.6982 27.8935 14.7802 29.2055 14.9169C30.5653 15.0536 33.9546 14.9169 34.6585 16.2289C35.3623 17.5409 33.0731 19.4747 31.973 20.6364C30.5106 22.1807 29.0893 23.4654 28.7476 24.1077C28.529 24.9482 29.0278 26.5678 29.3831 28.2761C29.7111 29.8341 30.6268 32.9843 29.6838 33.6949C28.7408 34.4056 26.0348 33.2712 24.552 32.4307L24.5588 32.4376Z" fill="white" style="mix-blend-mode:soft-light"/>
<path d="M20.4793 7.90578C21.4496 6.92861 21.723 5.58928 21.1421 4.79661C21.6751 4.82394 22.174 5.03578 22.6318 5.37061C21.9211 4.60528 21.1285 4.09961 20.2128 4.09961C19.9873 4.09961 19.7755 4.12694 19.5705 4.18844H19.5568C18.4361 4.50278 17.541 5.59611 16.7825 6.90128C16.2892 7.75436 15.8544 8.69825 15.453 9.5695C14.7645 11.0641 14.1744 12.3449 13.5571 12.5866C13.0896 12.7713 12.1244 12.8684 10.9674 12.9848C8.09998 13.2734 4.05444 13.6805 3.4848 15.8324C3.0176 17.6166 5.08802 19.8044 6.95377 21.7759C8.25355 23.1493 9.454 24.4178 9.62796 25.3718C9.78859 26.2412 9.48687 27.6748 9.15762 29.2391C8.60448 31.8673 7.97367 34.8645 9.3273 36.1753C9.4093 36.2504 9.49813 36.3188 9.5938 36.3803C8.66046 34.6007 9.28082 31.7383 9.80853 29.3035C10.1501 27.7273 10.4529 26.3303 10.2703 25.5221C9.97739 24.2101 8.59595 22.7483 7.2258 21.2984C5.52737 19.5011 3.84629 17.7221 4.27746 16.2698C4.90009 14.1781 8.9472 13.7728 11.8096 13.4861C12.9683 13.37 13.9329 13.2734 14.3976 13.0923C15.0179 12.8511 15.6062 11.5921 16.2929 10.1226C16.5595 9.55228 16.8408 8.9502 17.1446 8.36361C17.1583 8.38411 17.1788 8.40461 17.1993 8.42511C17.9646 9.18361 19.427 8.95128 20.4793 7.90578Z" fill="white" style="mix-blend-mode:hard-light"/>
<path d="M30.682 13.8766C29.4353 13.7386 28.3912 13.6231 27.914 13.4066C27.3203 13.134 27.1616 12.8614 26.9143 12.4365C26.8826 12.3821 26.8495 12.3252 26.8138 12.2655C27.0325 12.4568 27.1691 12.5456 27.2511 12.5798C27.7185 12.7655 28.6852 12.8635 29.844 12.9809C32.5648 13.2566 36.3447 13.6395 37.2073 15.5181C35.7554 14.4379 32.8984 14.1218 30.682 13.8766Z" fill="white" style="mix-blend-mode:hard-light"/>
</svg>
