<svg width="390" height="70" viewBox="0 0 390 70" fill="none" xmlns="http://www.w3.org/2000/svg">
<g filter="url(#filter0_d_202_6861)">
<path d="M2.00828 6.55754C2.00886 3.79652 4.24727 1.55859 7.00828 1.55859H383C385.761 1.55859 388 3.79717 388 6.55859V40.4442C388 43.5342 385.653 46.1189 382.578 46.4164L196.925 64.3724C195.645 64.4962 194.355 64.4962 193.075 64.3724L7.42356 46.4165C4.34745 46.119 2.00052 43.5335 2.00117 40.4431L2.00828 6.55754Z" fill="#342E72"/>
<path d="M383 1.05859C386.038 1.05859 388.5 3.52103 388.5 6.55859V40.4443C388.5 43.7917 385.958 46.5917 382.626 46.9141L196.974 64.8701C195.661 64.9971 194.339 64.9971 193.026 64.8701L7.375 46.9141C4.04289 46.5916 1.50046 43.791 1.50098 40.4434L1.50781 6.55762C1.50845 3.52066 3.97091 1.05885 7.00781 1.05859H383Z" stroke="black"/>
</g>
<path d="M7.02612 2.05859H382.974C385.459 2.05859 387.473 4.07217 387.474 6.55664L387.489 37.5303C387.49 39.8455 385.734 41.784 383.429 42.0107L196.91 60.3682C195.64 60.4931 194.361 60.4931 193.091 60.3682L6.57104 42.0107C4.26691 41.784 2.51056 39.8455 2.51147 37.5303L2.52612 6.55664C2.52724 4.14973 4.41766 2.18478 6.79468 2.06445L7.02612 2.05859Z" fill="url(#paint0_linear_202_6861)"/>
<path d="M7.02612 2.05859H382.974C385.459 2.05859 387.473 4.07217 387.474 6.55664L387.489 37.5303C387.49 39.8455 385.734 41.784 383.429 42.0107L196.91 60.3682C195.64 60.4931 194.361 60.4931 193.091 60.3682L6.57104 42.0107C4.26691 41.784 2.51056 39.8455 2.51147 37.5303L2.52612 6.55664C2.52724 4.14973 4.41766 2.18478 6.79468 2.06445L7.02612 2.05859Z" stroke="#D2BFFF" style="mix-blend-mode:hard-light"/>
<path style="mix-blend-mode:hard-light" d="M383.037 2.72559C385.245 2.72559 387.036 4.51532 387.037 6.72363L387.04 13.8867C349.487 18.3623 277.561 21.3926 195 21.3926C112.438 21.3926 40.5114 18.3624 2.95898 13.8867L2.96289 6.72363C2.96406 4.51532 4.75458 2.72559 6.96289 2.72559H383.037Z" fill="url(#paint1_radial_202_6861)" fill-opacity="0.25"/>
<g filter="url(#filter1_ddd_202_6861)">
<mask id="path-5-outside-1_202_6861" maskUnits="userSpaceOnUse" x="94" y="16.5586" width="202" height="21" fill="black">
<rect fill="white" x="94" y="16.5586" width="202" height="21"/>
<path d="M99.055 35.5586V23.0306H95.095V19.3826H107.623V23.0306H103.663V35.5586H99.055ZM115.612 35.9186C113.196 35.9186 111.356 35.1986 110.092 33.7586C108.828 32.3186 108.196 30.2226 108.196 27.4706C108.196 24.7186 108.828 22.6226 110.092 21.1826C111.356 19.7426 113.196 19.0226 115.612 19.0226C118.028 19.0226 119.868 19.7426 121.132 21.1826C122.396 22.6226 123.028 24.7186 123.028 27.4706C123.028 30.2226 122.396 32.3186 121.132 33.7586C119.868 35.1986 118.028 35.9186 115.612 35.9186ZM115.612 32.2706C116.556 32.2706 117.228 31.9106 117.628 31.1906C118.028 30.4546 118.228 29.2146 118.228 27.4706C118.228 25.7266 118.028 24.4946 117.628 23.7746C117.228 23.0386 116.556 22.6706 115.612 22.6706C114.668 22.6706 113.996 23.0386 113.596 23.7746C113.196 24.4946 112.996 25.7266 112.996 27.4706C112.996 29.2146 113.196 30.4546 113.596 31.1906C113.996 31.9106 114.668 32.2706 115.612 32.2706ZM125.217 35.5586V19.3826H131.097C136.521 19.3826 139.233 22.0866 139.233 27.4946C139.233 30.1506 138.545 32.1586 137.169 33.5186C135.809 34.8786 133.785 35.5586 131.097 35.5586H125.217ZM131.049 22.9346H129.801V32.0066H131.049C132.297 32.0066 133.177 31.6626 133.689 30.9746C134.201 30.2866 134.457 29.1186 134.457 27.4706C134.457 25.8066 134.201 24.6386 133.689 23.9666C133.177 23.2786 132.297 22.9346 131.049 22.9346ZM139.561 35.5586L144.121 19.3826H150.217L154.921 35.5586H150.385L149.641 32.5826H144.697L143.953 35.5586H139.561ZM145.465 29.4386H148.849L147.169 22.6226L145.465 29.4386ZM158.583 35.5586V30.2786L153.327 19.3826H157.959L160.959 25.7906L163.983 19.3826H168.327L163.191 29.7986V35.5586H158.583ZM169.825 26.5586L169.345 18.4706H173.785L173.305 26.5586H169.825ZM180.426 35.9186C178.522 35.9186 176.778 35.6066 175.194 34.9826L176.034 31.4786C176.658 31.7186 177.322 31.9106 178.026 32.0546C178.746 32.1826 179.418 32.2466 180.042 32.2466C180.97 32.2466 181.634 32.1266 182.034 31.8866C182.45 31.6466 182.658 31.2546 182.658 30.7106C182.658 30.0546 182.29 29.6546 181.554 29.5106L179.418 29.0786C176.762 28.5346 175.434 26.9426 175.434 24.3026C175.434 22.6546 175.978 21.3666 177.066 20.4386C178.154 19.4946 179.65 19.0226 181.554 19.0226C183.458 19.0226 185.154 19.3106 186.642 19.8866L185.778 23.3186C184.674 22.8866 183.378 22.6706 181.89 22.6706C180.418 22.6706 179.682 23.1266 179.682 24.0386C179.682 24.7106 180.106 25.1266 180.954 25.2866L182.778 25.6466C184.25 25.9506 185.33 26.4946 186.018 27.2786C186.722 28.0626 187.074 29.1426 187.074 30.5186C187.074 32.3426 186.53 33.7026 185.442 34.5986C184.354 35.4786 182.682 35.9186 180.426 35.9186ZM196.021 35.9186C194.629 35.9186 193.397 35.6706 192.325 35.1746L193.189 31.8386C193.589 31.9986 193.949 32.1106 194.269 32.1746C194.589 32.2386 194.885 32.2706 195.157 32.2706C195.909 32.2706 196.445 32.1026 196.765 31.7666C197.085 31.4146 197.245 30.8466 197.245 30.0626V23.0786H193.261V19.3826H201.853V30.4946C201.853 32.3346 201.381 33.7026 200.437 34.5986C199.493 35.4786 198.021 35.9186 196.021 35.9186ZM211.241 35.9186C208.825 35.9186 206.985 35.1986 205.721 33.7586C204.457 32.3186 203.825 30.2226 203.825 27.4706C203.825 24.7186 204.457 22.6226 205.721 21.1826C206.985 19.7426 208.825 19.0226 211.241 19.0226C213.657 19.0226 215.497 19.7426 216.761 21.1826C218.025 22.6226 218.657 24.7186 218.657 27.4706C218.657 30.2226 218.025 32.3186 216.761 33.7586C215.497 35.1986 213.657 35.9186 211.241 35.9186ZM211.241 32.2706C212.185 32.2706 212.857 31.9106 213.257 31.1906C213.657 30.4546 213.857 29.2146 213.857 27.4706C213.857 25.7266 213.657 24.4946 213.257 23.7746C212.857 23.0386 212.185 22.6706 211.241 22.6706C210.297 22.6706 209.625 23.0386 209.225 23.7746C208.825 24.4946 208.625 25.7266 208.625 27.4706C208.625 29.2146 208.825 30.4546 209.225 31.1906C209.625 31.9106 210.297 32.2706 211.241 32.2706ZM227.397 35.9186C225.013 35.9186 223.285 35.3746 222.213 34.2866C221.157 33.1826 220.629 31.3906 220.629 28.9106V19.3826H225.261V29.8946C225.261 31.4306 225.981 32.1986 227.421 32.1986C228.829 32.1986 229.533 31.4306 229.533 29.8946V19.3826H234.165V28.9106C234.165 31.3906 233.629 33.1826 232.557 34.2866C231.501 35.3746 229.781 35.9186 227.397 35.9186ZM236.819 35.5586V19.3826H243.179C245.227 19.3826 246.779 19.8386 247.835 20.7506C248.907 21.6626 249.443 22.9826 249.443 24.7106C249.443 25.8306 249.187 26.7826 248.675 27.5666C248.163 28.3346 247.451 28.8786 246.539 29.1986L250.475 35.5586H245.675L242.387 29.8706H241.187V35.5586H236.819ZM242.771 22.6466H241.187V26.7746H242.771C244.195 26.7746 244.907 26.0866 244.907 24.7106C244.907 23.3346 244.195 22.6466 242.771 22.6466ZM252.065 35.5586V19.3826H256.865L262.073 29.5106V19.3826H266.081V35.5586H261.281L256.073 25.4306V35.5586H252.065ZM267.44 35.5586L272 19.3826H278.096L282.8 35.5586H278.264L277.52 32.5826H272.576L271.832 35.5586H267.44ZM273.344 29.4386H276.728L275.048 22.6226L273.344 29.4386ZM284.175 35.5586V19.3826H288.783V31.8626H294.447V35.5586H284.175Z"/>
</mask>
<path d="M99.055 35.5586V23.0306H95.095V19.3826H107.623V23.0306H103.663V35.5586H99.055ZM115.612 35.9186C113.196 35.9186 111.356 35.1986 110.092 33.7586C108.828 32.3186 108.196 30.2226 108.196 27.4706C108.196 24.7186 108.828 22.6226 110.092 21.1826C111.356 19.7426 113.196 19.0226 115.612 19.0226C118.028 19.0226 119.868 19.7426 121.132 21.1826C122.396 22.6226 123.028 24.7186 123.028 27.4706C123.028 30.2226 122.396 32.3186 121.132 33.7586C119.868 35.1986 118.028 35.9186 115.612 35.9186ZM115.612 32.2706C116.556 32.2706 117.228 31.9106 117.628 31.1906C118.028 30.4546 118.228 29.2146 118.228 27.4706C118.228 25.7266 118.028 24.4946 117.628 23.7746C117.228 23.0386 116.556 22.6706 115.612 22.6706C114.668 22.6706 113.996 23.0386 113.596 23.7746C113.196 24.4946 112.996 25.7266 112.996 27.4706C112.996 29.2146 113.196 30.4546 113.596 31.1906C113.996 31.9106 114.668 32.2706 115.612 32.2706ZM125.217 35.5586V19.3826H131.097C136.521 19.3826 139.233 22.0866 139.233 27.4946C139.233 30.1506 138.545 32.1586 137.169 33.5186C135.809 34.8786 133.785 35.5586 131.097 35.5586H125.217ZM131.049 22.9346H129.801V32.0066H131.049C132.297 32.0066 133.177 31.6626 133.689 30.9746C134.201 30.2866 134.457 29.1186 134.457 27.4706C134.457 25.8066 134.201 24.6386 133.689 23.9666C133.177 23.2786 132.297 22.9346 131.049 22.9346ZM139.561 35.5586L144.121 19.3826H150.217L154.921 35.5586H150.385L149.641 32.5826H144.697L143.953 35.5586H139.561ZM145.465 29.4386H148.849L147.169 22.6226L145.465 29.4386ZM158.583 35.5586V30.2786L153.327 19.3826H157.959L160.959 25.7906L163.983 19.3826H168.327L163.191 29.7986V35.5586H158.583ZM169.825 26.5586L169.345 18.4706H173.785L173.305 26.5586H169.825ZM180.426 35.9186C178.522 35.9186 176.778 35.6066 175.194 34.9826L176.034 31.4786C176.658 31.7186 177.322 31.9106 178.026 32.0546C178.746 32.1826 179.418 32.2466 180.042 32.2466C180.97 32.2466 181.634 32.1266 182.034 31.8866C182.45 31.6466 182.658 31.2546 182.658 30.7106C182.658 30.0546 182.29 29.6546 181.554 29.5106L179.418 29.0786C176.762 28.5346 175.434 26.9426 175.434 24.3026C175.434 22.6546 175.978 21.3666 177.066 20.4386C178.154 19.4946 179.65 19.0226 181.554 19.0226C183.458 19.0226 185.154 19.3106 186.642 19.8866L185.778 23.3186C184.674 22.8866 183.378 22.6706 181.89 22.6706C180.418 22.6706 179.682 23.1266 179.682 24.0386C179.682 24.7106 180.106 25.1266 180.954 25.2866L182.778 25.6466C184.25 25.9506 185.33 26.4946 186.018 27.2786C186.722 28.0626 187.074 29.1426 187.074 30.5186C187.074 32.3426 186.53 33.7026 185.442 34.5986C184.354 35.4786 182.682 35.9186 180.426 35.9186ZM196.021 35.9186C194.629 35.9186 193.397 35.6706 192.325 35.1746L193.189 31.8386C193.589 31.9986 193.949 32.1106 194.269 32.1746C194.589 32.2386 194.885 32.2706 195.157 32.2706C195.909 32.2706 196.445 32.1026 196.765 31.7666C197.085 31.4146 197.245 30.8466 197.245 30.0626V23.0786H193.261V19.3826H201.853V30.4946C201.853 32.3346 201.381 33.7026 200.437 34.5986C199.493 35.4786 198.021 35.9186 196.021 35.9186ZM211.241 35.9186C208.825 35.9186 206.985 35.1986 205.721 33.7586C204.457 32.3186 203.825 30.2226 203.825 27.4706C203.825 24.7186 204.457 22.6226 205.721 21.1826C206.985 19.7426 208.825 19.0226 211.241 19.0226C213.657 19.0226 215.497 19.7426 216.761 21.1826C218.025 22.6226 218.657 24.7186 218.657 27.4706C218.657 30.2226 218.025 32.3186 216.761 33.7586C215.497 35.1986 213.657 35.9186 211.241 35.9186ZM211.241 32.2706C212.185 32.2706 212.857 31.9106 213.257 31.1906C213.657 30.4546 213.857 29.2146 213.857 27.4706C213.857 25.7266 213.657 24.4946 213.257 23.7746C212.857 23.0386 212.185 22.6706 211.241 22.6706C210.297 22.6706 209.625 23.0386 209.225 23.7746C208.825 24.4946 208.625 25.7266 208.625 27.4706C208.625 29.2146 208.825 30.4546 209.225 31.1906C209.625 31.9106 210.297 32.2706 211.241 32.2706ZM227.397 35.9186C225.013 35.9186 223.285 35.3746 222.213 34.2866C221.157 33.1826 220.629 31.3906 220.629 28.9106V19.3826H225.261V29.8946C225.261 31.4306 225.981 32.1986 227.421 32.1986C228.829 32.1986 229.533 31.4306 229.533 29.8946V19.3826H234.165V28.9106C234.165 31.3906 233.629 33.1826 232.557 34.2866C231.501 35.3746 229.781 35.9186 227.397 35.9186ZM236.819 35.5586V19.3826H243.179C245.227 19.3826 246.779 19.8386 247.835 20.7506C248.907 21.6626 249.443 22.9826 249.443 24.7106C249.443 25.8306 249.187 26.7826 248.675 27.5666C248.163 28.3346 247.451 28.8786 246.539 29.1986L250.475 35.5586H245.675L242.387 29.8706H241.187V35.5586H236.819ZM242.771 22.6466H241.187V26.7746H242.771C244.195 26.7746 244.907 26.0866 244.907 24.7106C244.907 23.3346 244.195 22.6466 242.771 22.6466ZM252.065 35.5586V19.3826H256.865L262.073 29.5106V19.3826H266.081V35.5586H261.281L256.073 25.4306V35.5586H252.065ZM267.44 35.5586L272 19.3826H278.096L282.8 35.5586H278.264L277.52 32.5826H272.576L271.832 35.5586H267.44ZM273.344 29.4386H276.728L275.048 22.6226L273.344 29.4386ZM284.175 35.5586V19.3826H288.783V31.8626H294.447V35.5586H284.175Z" fill="white"/>
<path d="M99.055 35.5586H98.039V36.5746H99.055V35.5586ZM99.055 23.0306H100.071V22.0146H99.055V23.0306ZM95.095 23.0306H94.079V24.0466H95.095V23.0306ZM95.095 19.3826V18.3666H94.079V19.3826H95.095ZM107.623 19.3826H108.639V18.3666H107.623V19.3826ZM107.623 23.0306V24.0466H108.639V23.0306H107.623ZM103.663 23.0306V22.0146H102.647V23.0306H103.663ZM103.663 35.5586V36.5746H104.679V35.5586H103.663ZM99.055 35.5586H100.071V23.0306H99.055H98.039V35.5586H99.055ZM99.055 23.0306V22.0146H95.095V23.0306V24.0466H99.055V23.0306ZM95.095 23.0306H96.111V19.3826H95.095H94.079V23.0306H95.095ZM95.095 19.3826V20.3986H107.623V19.3826V18.3666H95.095V19.3826ZM107.623 19.3826H106.607V23.0306H107.623H108.639V19.3826H107.623ZM107.623 23.0306V22.0146H103.663V23.0306V24.0466H107.623V23.0306ZM103.663 23.0306H102.647V35.5586H103.663H104.679V23.0306H103.663ZM103.663 35.5586V34.5426H99.055V35.5586V36.5746H103.663V35.5586ZM110.092 33.7586L109.328 34.4288L110.092 33.7586ZM110.092 21.1826L109.328 20.5124L110.092 21.1826ZM121.132 21.1826L121.896 20.5124H121.896L121.132 21.1826ZM117.628 31.1906L118.516 31.684L118.521 31.6757L117.628 31.1906ZM117.628 23.7746L116.735 24.2598L116.74 24.268L117.628 23.7746ZM113.596 23.7746L114.484 24.268L114.489 24.2597L113.596 23.7746ZM113.596 31.1906L112.703 31.6758L112.708 31.684L113.596 31.1906ZM115.612 35.9186V34.9026C113.406 34.9026 111.878 34.2536 110.856 33.0884L110.092 33.7586L109.328 34.4288C110.834 36.1436 112.986 36.9346 115.612 36.9346V35.9186ZM110.092 33.7586L110.856 33.0884C109.813 31.9004 109.212 30.0821 109.212 27.4706H108.196H107.18C107.18 30.3631 107.843 32.7368 109.328 34.4288L110.092 33.7586ZM108.196 27.4706H109.212C109.212 24.8591 109.813 23.0408 110.856 21.8528L110.092 21.1826L109.328 20.5124C107.843 22.2044 107.18 24.5781 107.18 27.4706H108.196ZM110.092 21.1826L110.856 21.8528C111.878 20.6876 113.406 20.0386 115.612 20.0386V19.0226V18.0066C112.986 18.0066 110.834 18.7976 109.328 20.5124L110.092 21.1826ZM115.612 19.0226V20.0386C117.818 20.0386 119.346 20.6876 120.368 21.8528L121.132 21.1826L121.896 20.5124C120.39 18.7976 118.238 18.0066 115.612 18.0066V19.0226ZM121.132 21.1826L120.368 21.8528C121.411 23.0408 122.012 24.8591 122.012 27.4706H123.028H124.044C124.044 24.5781 123.381 22.2044 121.896 20.5124L121.132 21.1826ZM123.028 27.4706H122.012C122.012 30.0821 121.411 31.9004 120.368 33.0884L121.132 33.7586L121.896 34.4288C123.381 32.7368 124.044 30.3631 124.044 27.4706H123.028ZM121.132 33.7586L120.368 33.0884C119.346 34.2536 117.818 34.9026 115.612 34.9026V35.9186V36.9346C118.238 36.9346 120.39 36.1436 121.896 34.4288L121.132 33.7586ZM115.612 32.2706V33.2866C116.86 33.2866 117.907 32.7797 118.516 31.684L117.628 31.1906L116.74 30.6972C116.549 31.0415 116.252 31.2546 115.612 31.2546V32.2706ZM117.628 31.1906L118.521 31.6757C119.051 30.7008 119.244 29.2381 119.244 27.4706H118.228H117.212C117.212 29.1911 117.006 30.2084 116.735 30.7054L117.628 31.1906ZM118.228 27.4706H119.244C119.244 25.7065 119.052 24.245 118.516 23.2812L117.628 23.7746L116.74 24.268C117.004 24.7442 117.212 25.7467 117.212 27.4706H118.228ZM117.628 23.7746L118.521 23.2894C117.917 22.1786 116.871 21.6546 115.612 21.6546V22.6706V23.6866C116.241 23.6866 116.539 23.8986 116.735 24.2597L117.628 23.7746ZM115.612 22.6706V21.6546C114.353 21.6546 113.307 22.1786 112.703 23.2894L113.596 23.7746L114.489 24.2597C114.685 23.8986 114.983 23.6866 115.612 23.6866V22.6706ZM113.596 23.7746L112.708 23.2812C112.172 24.245 111.98 25.7065 111.98 27.4706H112.996H114.012C114.012 25.7467 114.22 24.7442 114.484 24.268L113.596 23.7746ZM112.996 27.4706H111.98C111.98 29.2381 112.174 30.7008 112.703 31.6757L113.596 31.1906L114.489 30.7054C114.219 30.2084 114.012 29.1911 114.012 27.4706H112.996ZM113.596 31.1906L112.708 31.684C113.317 32.7797 114.364 33.2866 115.612 33.2866V32.2706V31.2546C114.972 31.2546 114.675 31.0415 114.484 30.6972L113.596 31.1906ZM125.217 35.5586H124.201V36.5746H125.217V35.5586ZM125.217 19.3826V18.3666H124.201V19.3826H125.217ZM137.169 33.5186L136.454 32.796L136.45 32.8002L137.169 33.5186ZM129.801 22.9346V21.9186H128.785V22.9346H129.801ZM129.801 32.0066H128.785V33.0226H129.801V32.0066ZM133.689 30.9746L132.874 30.368L133.689 30.9746ZM133.689 23.9666L132.874 24.5732L132.881 24.5823L133.689 23.9666ZM125.217 35.5586H126.233V19.3826H125.217H124.201V35.5586H125.217ZM125.217 19.3826V20.3986H131.097V19.3826V18.3666H125.217V19.3826ZM131.097 19.3826V20.3986C133.653 20.3986 135.383 21.0352 136.481 22.1301C137.579 23.2244 138.217 24.948 138.217 27.4946H139.233H140.249C140.249 24.6332 139.53 22.3007 137.916 20.6911C136.302 19.082 133.965 18.3666 131.097 18.3666V19.3826ZM139.233 27.4946H138.217C138.217 29.9828 137.574 31.6891 136.455 32.796L137.169 33.5186L137.883 34.2412C139.515 32.6281 140.249 30.3184 140.249 27.4946H139.233ZM137.169 33.5186L136.45 32.8002C135.346 33.9045 133.624 34.5426 131.097 34.5426V35.5586V36.5746C133.945 36.5746 136.271 35.8527 137.887 34.237L137.169 33.5186ZM131.097 35.5586V34.5426H125.217V35.5586V36.5746H131.097V35.5586ZM131.049 22.9346V21.9186H129.801V22.9346V23.9506H131.049V22.9346ZM129.801 22.9346H128.785V32.0066H129.801H130.817V22.9346H129.801ZM129.801 32.0066V33.0226H131.049V32.0066V30.9906H129.801V32.0066ZM131.049 32.0066V33.0226C132.464 33.0226 133.724 32.6291 134.504 31.5812L133.689 30.9746L132.874 30.368C132.63 30.6961 132.129 30.9906 131.049 30.9906V32.0066ZM133.689 30.9746L134.504 31.5812C135.221 30.6176 135.473 29.1655 135.473 27.4706H134.457H133.441C133.441 29.0717 133.181 29.9556 132.874 30.368L133.689 30.9746ZM134.457 27.4706H135.473C135.473 25.7663 135.223 24.3041 134.497 23.3509L133.689 23.9666L132.881 24.5823C133.178 24.9731 133.441 25.8469 133.441 27.4706H134.457ZM133.689 23.9666L134.504 23.36C133.724 22.3121 132.464 21.9186 131.049 21.9186V22.9346V23.9506C132.129 23.9506 132.63 24.2451 132.874 24.5732L133.689 23.9666ZM139.561 35.5586L138.583 35.2829L138.219 36.5746H139.561V35.5586ZM144.121 19.3826V18.3666H143.351L143.143 19.1069L144.121 19.3826ZM150.217 19.3826L151.192 19.0989L150.979 18.3666H150.217V19.3826ZM154.921 35.5586V36.5746H156.274L155.896 35.2749L154.921 35.5586ZM150.385 35.5586L149.399 35.805L149.591 36.5746H150.385V35.5586ZM149.641 32.5826L150.626 32.3362L150.434 31.5666H149.641V32.5826ZM144.697 32.5826V31.5666H143.903L143.711 32.3362L144.697 32.5826ZM143.953 35.5586V36.5746H144.746L144.938 35.805L143.953 35.5586ZM145.465 29.4386L144.479 29.1922L144.163 30.4546H145.465V29.4386ZM148.849 29.4386V30.4546H150.145L149.835 29.1954L148.849 29.4386ZM147.169 22.6226L148.155 22.3794L146.183 22.3762L147.169 22.6226ZM139.561 35.5586L140.539 35.8343L145.099 19.6583L144.121 19.3826L143.143 19.1069L138.583 35.2829L139.561 35.5586ZM144.121 19.3826V20.3986H150.217V19.3826V18.3666H144.121V19.3826ZM150.217 19.3826L149.241 19.6663L153.945 35.8423L154.921 35.5586L155.896 35.2749L151.192 19.0989L150.217 19.3826ZM154.921 35.5586V34.5426H150.385V35.5586V36.5746H154.921V35.5586ZM150.385 35.5586L151.37 35.3122L150.626 32.3362L149.641 32.5826L148.655 32.829L149.399 35.805L150.385 35.5586ZM149.641 32.5826V31.5666H144.697V32.5826V33.5986H149.641V32.5826ZM144.697 32.5826L143.711 32.3362L142.967 35.3122L143.953 35.5586L144.938 35.805L145.682 32.829L144.697 32.5826ZM143.953 35.5586V34.5426H139.561V35.5586V36.5746H143.953V35.5586ZM145.465 29.4386V30.4546H148.849V29.4386V28.4226H145.465V29.4386ZM148.849 29.4386L149.835 29.1954L148.155 22.3794L147.169 22.6226L146.182 22.8657L147.862 29.6817L148.849 29.4386ZM147.169 22.6226L146.183 22.3762L144.479 29.1922L145.465 29.4386L146.45 29.685L148.154 22.869L147.169 22.6226ZM158.583 35.5586H157.567V36.5746H158.583V35.5586ZM158.583 30.2786H159.599V30.0463L159.498 29.8372L158.583 30.2786ZM153.327 19.3826V18.3666H151.709L152.412 19.824L153.327 19.3826ZM157.959 19.3826L158.879 18.9518L158.605 18.3666H157.959V19.3826ZM160.959 25.7906L160.039 26.2214L160.955 28.179L161.878 26.2242L160.959 25.7906ZM163.983 19.3826V18.3666H163.339L163.064 18.949L163.983 19.3826ZM168.327 19.3826L169.238 19.8319L169.96 18.3666H168.327V19.3826ZM163.191 29.7986L162.279 29.3493L162.175 29.5617V29.7986H163.191ZM163.191 35.5586V36.5746H164.207V35.5586H163.191ZM158.583 35.5586H159.599V30.2786H158.583H157.567V35.5586H158.583ZM158.583 30.2786L159.498 29.8372L154.242 18.9412L153.327 19.3826L152.412 19.824L157.668 30.72L158.583 30.2786ZM153.327 19.3826V20.3986H157.959V19.3826V18.3666H153.327V19.3826ZM157.959 19.3826L157.039 19.8134L160.039 26.2214L160.959 25.7906L161.879 25.3598L158.879 18.9518L157.959 19.3826ZM160.959 25.7906L161.878 26.2242L164.902 19.8162L163.983 19.3826L163.064 18.949L160.04 25.357L160.959 25.7906ZM163.983 19.3826V20.3986H168.327V19.3826V18.3666H163.983V19.3826ZM168.327 19.3826L167.415 18.9333L162.279 29.3493L163.191 29.7986L164.102 30.2479L169.238 19.8319L168.327 19.3826ZM163.191 29.7986H162.175V35.5586H163.191H164.207V29.7986H163.191ZM163.191 35.5586V34.5426H158.583V35.5586V36.5746H163.191V35.5586ZM169.825 26.5586L168.81 26.6188L168.867 27.5746H169.825V26.5586ZM169.345 18.4706V17.4546H168.267L168.33 18.5308L169.345 18.4706ZM173.785 18.4706L174.799 18.5308L174.863 17.4546H173.785V18.4706ZM173.305 26.5586V27.5746H174.262L174.319 26.6188L173.305 26.5586ZM169.825 26.5586L170.839 26.4984L170.359 18.4104L169.345 18.4706L168.33 18.5308L168.81 26.6188L169.825 26.5586ZM169.345 18.4706V19.4866H173.785V18.4706V17.4546H169.345V18.4706ZM173.785 18.4706L172.77 18.4104L172.29 26.4984L173.305 26.5586L174.319 26.6188L174.799 18.5308L173.785 18.4706ZM173.305 26.5586V25.5426H169.825V26.5586V27.5746H173.305V26.5586ZM175.194 34.9826L174.206 34.7457L174.001 35.6043L174.822 35.9279L175.194 34.9826ZM176.034 31.4786L176.399 30.5303L175.317 30.114L175.046 31.2417L176.034 31.4786ZM178.026 32.0546L177.823 33.05L177.836 33.0526L177.849 33.0549L178.026 32.0546ZM182.034 31.8866L181.527 31.0065L181.519 31.0109L181.512 31.0154L182.034 31.8866ZM181.554 29.5106L181.353 30.5065L181.359 30.5077L181.554 29.5106ZM179.418 29.0786L179.215 30.0739L179.217 30.0744L179.418 29.0786ZM177.066 20.4386L177.726 21.2116L177.732 21.206L177.066 20.4386ZM186.642 19.8866L187.628 20.1346L187.847 19.2634L187.009 18.9391L186.642 19.8866ZM185.778 23.3186L185.408 24.2647L186.482 24.685L186.764 23.5666L185.778 23.3186ZM180.954 25.2866L181.151 24.2898L181.143 24.2882L180.954 25.2866ZM182.778 25.6466L182.984 24.6516L182.975 24.6498L182.778 25.6466ZM186.018 27.2786L185.255 27.9488L185.263 27.9574L186.018 27.2786ZM185.442 34.5986L186.081 35.3886L186.088 35.3829L185.442 34.5986ZM180.426 35.9186V34.9026C178.635 34.9026 177.019 34.6094 175.567 34.0373L175.194 34.9826L174.822 35.9279C176.538 36.6038 178.41 36.9346 180.426 36.9346V35.9186ZM175.194 34.9826L176.182 35.2194L177.022 31.7154L176.034 31.4786L175.046 31.2417L174.206 34.7457L175.194 34.9826ZM176.034 31.4786L175.67 32.4269C176.35 32.6884 177.068 32.8956 177.823 33.05L178.026 32.0546L178.23 31.0592C177.577 30.9256 176.967 30.7488 176.399 30.5303L176.034 31.4786ZM178.026 32.0546L177.849 33.0549C178.618 33.1916 179.35 33.2626 180.042 33.2626V32.2466V31.2306C179.487 31.2306 178.875 31.1736 178.204 31.0543L178.026 32.0546ZM180.042 32.2466V33.2626C181.005 33.2626 181.907 33.1477 182.557 32.7578L182.034 31.8866L181.512 31.0154C181.362 31.1055 180.936 31.2306 180.042 31.2306V32.2466ZM182.034 31.8866L182.542 32.7666C183.32 32.318 183.674 31.5598 183.674 30.7106H182.658H181.642C181.642 30.8536 181.615 30.9166 181.605 30.9364C181.598 30.95 181.584 30.9737 181.527 31.0065L182.034 31.8866ZM182.658 30.7106H183.674C183.674 30.1834 183.521 29.6555 183.13 29.2307C182.753 28.8209 182.251 28.6116 181.75 28.5135L181.554 29.5106L181.359 30.5077C181.594 30.5536 181.644 30.6163 181.635 30.6065C181.63 30.6014 181.628 30.5961 181.63 30.6009C181.633 30.6086 181.642 30.6412 181.642 30.7106H182.658ZM181.554 29.5106L181.756 28.5148L179.62 28.0828L179.418 29.0786L179.217 30.0744L181.353 30.5064L181.554 29.5106ZM179.418 29.0786L179.622 28.0833C178.45 27.8431 177.687 27.397 177.211 26.8258C176.737 26.2577 176.45 25.4512 176.45 24.3026H175.434H174.418C174.418 25.7939 174.796 27.1035 175.65 28.1274C176.502 29.1482 177.731 29.77 179.215 30.0739L179.418 29.0786ZM175.434 24.3026H176.45C176.45 22.9016 176.9 21.9161 177.726 21.2116L177.066 20.4386L176.407 19.6656C175.057 20.8171 174.418 22.4076 174.418 24.3026H175.434ZM177.066 20.4386L177.732 21.206C178.583 20.4679 179.815 20.0386 181.554 20.0386V19.0226V18.0066C179.486 18.0066 177.726 18.5213 176.401 19.6712L177.066 20.4386ZM181.554 19.0226V20.0386C183.357 20.0386 184.925 20.3112 186.276 20.8341L186.642 19.8866L187.009 18.9391C185.384 18.31 183.56 18.0066 181.554 18.0066V19.0226ZM186.642 19.8866L185.657 19.6386L184.793 23.0706L185.778 23.3186L186.764 23.5666L187.628 20.1346L186.642 19.8866ZM185.778 23.3186L186.149 22.3724C184.901 21.8842 183.474 21.6546 181.89 21.6546V22.6706V23.6866C183.283 23.6866 184.448 23.889 185.408 24.2647L185.778 23.3186ZM181.89 22.6706V21.6546C181.083 21.6546 180.305 21.7738 179.699 22.1489C179.014 22.5738 178.666 23.2536 178.666 24.0386H179.682H180.698C180.698 23.9929 180.703 23.9632 180.707 23.9462C180.711 23.9299 180.714 23.923 180.715 23.9215C180.716 23.9201 180.717 23.9173 180.723 23.9118C180.729 23.9058 180.742 23.8932 180.77 23.8763C180.9 23.7954 181.226 23.6866 181.89 23.6866V22.6706ZM179.682 24.0386H178.666C178.666 24.6082 178.856 25.155 179.289 25.5798C179.696 25.979 180.23 26.1837 180.766 26.285L180.954 25.2866L181.143 24.2882C180.831 24.2294 180.729 24.1462 180.712 24.1294C180.708 24.1256 180.708 24.1243 180.708 24.1255C180.709 24.1266 180.709 24.1272 180.709 24.1257C180.708 24.1236 180.698 24.0992 180.698 24.0386H179.682ZM180.954 25.2866L180.758 26.2834L182.582 26.6434L182.778 25.6466L182.975 24.6498L181.151 24.2898L180.954 25.2866ZM182.778 25.6466L182.573 26.6416C183.921 26.9199 184.764 27.3899 185.255 27.9487L186.018 27.2786L186.782 26.6084C185.897 25.5993 184.58 24.9812 182.984 24.6516L182.778 25.6466ZM186.018 27.2786L185.263 27.9574C185.753 28.5038 186.058 29.3147 186.058 30.5186H187.074H188.09C188.09 28.9705 187.692 27.6214 186.774 26.5998L186.018 27.2786ZM187.074 30.5186H186.058C186.058 32.1353 185.585 33.1651 184.797 33.8143L185.442 34.5986L186.088 35.3829C187.476 34.2401 188.09 32.5499 188.09 30.5186H187.074ZM185.442 34.5986L184.804 33.8086C183.978 34.4764 182.583 34.9026 180.426 34.9026V35.9186V36.9346C182.782 36.9346 184.731 36.4807 186.081 35.3885L185.442 34.5986ZM192.325 35.1746L191.341 34.9199L191.129 35.7406L191.898 36.0967L192.325 35.1746ZM193.189 31.8386L193.566 30.8953L192.495 30.4667L192.205 31.5839L193.189 31.8386ZM194.269 32.1746L194.07 33.1709L194.269 32.1746ZM196.765 31.7666L197.501 32.4673L197.509 32.4587L197.517 32.45L196.765 31.7666ZM197.245 23.0786H198.261V22.0626H197.245V23.0786ZM193.261 23.0786H192.245V24.0946H193.261V23.0786ZM193.261 19.3826V18.3666H192.245V19.3826H193.261ZM201.853 19.3826H202.869V18.3666H201.853V19.3826ZM200.437 34.5986L201.13 35.3418L201.136 35.3355L200.437 34.5986ZM196.021 35.9186V34.9026C194.75 34.9026 193.668 34.6766 192.751 34.2525L192.325 35.1746L191.898 36.0967C193.126 36.6646 194.508 36.9346 196.021 36.9346V35.9186ZM192.325 35.1746L193.308 35.4293L194.172 32.0933L193.189 31.8386L192.205 31.5839L191.341 34.9199L192.325 35.1746ZM193.189 31.8386L192.812 32.7819C193.252 32.9581 193.673 33.0915 194.07 33.1709L194.269 32.1746L194.468 31.1783C194.225 31.1296 193.926 31.0391 193.566 30.8953L193.189 31.8386ZM194.269 32.1746L194.07 33.1709C194.443 33.2455 194.806 33.2866 195.157 33.2866V32.2706V31.2546C194.963 31.2546 194.735 31.2317 194.468 31.1783L194.269 32.1746ZM195.157 32.2706V33.2866C196.02 33.2866 196.898 33.0997 197.501 32.4673L196.765 31.7666L196.029 31.0659C195.991 31.1055 195.797 31.2546 195.157 31.2546V32.2706ZM196.765 31.7666L197.517 32.45C198.087 31.8221 198.261 30.9458 198.261 30.0626H197.245H196.229C196.229 30.7474 196.082 31.007 196.013 31.0832L196.765 31.7666ZM197.245 30.0626H198.261V23.0786H197.245H196.229V30.0626H197.245ZM197.245 23.0786V22.0626H193.261V23.0786V24.0946H197.245V23.0786ZM193.261 23.0786H194.277V19.3826H193.261H192.245V23.0786H193.261ZM193.261 19.3826V20.3986H201.853V19.3826V18.3666H193.261V19.3826ZM201.853 19.3826H200.837V30.4946H201.853H202.869V19.3826H201.853ZM201.853 30.4946H200.837C200.837 32.1735 200.407 33.2257 199.737 33.8617L200.437 34.5986L201.136 35.3355C202.354 34.1795 202.869 32.4957 202.869 30.4946H201.853ZM200.437 34.5986L199.744 33.8554C199.069 34.4851 197.9 34.9026 196.021 34.9026V35.9186V36.9346C198.142 36.9346 199.917 36.472 201.13 35.3418L200.437 34.5986ZM205.721 33.7586L204.957 34.4288L205.721 33.7586ZM205.721 21.1826L204.957 20.5124L205.721 21.1826ZM216.761 21.1826L217.524 20.5124L216.761 21.1826ZM213.257 31.1906L214.145 31.684L214.149 31.6757L213.257 31.1906ZM213.257 23.7746L212.364 24.2598L212.369 24.268L213.257 23.7746ZM209.225 23.7746L210.113 24.268L210.117 24.2597L209.225 23.7746ZM209.225 31.1906L208.332 31.6758L208.337 31.684L209.225 31.1906ZM211.241 35.9186V34.9026C209.035 34.9026 207.507 34.2536 206.484 33.0884L205.721 33.7586L204.957 34.4288C206.462 36.1436 208.614 36.9346 211.241 36.9346V35.9186ZM205.721 33.7586L206.484 33.0884C205.442 31.9004 204.841 30.0821 204.841 27.4706H203.825H202.809C202.809 30.3631 203.472 32.7368 204.957 34.4288L205.721 33.7586ZM203.825 27.4706H204.841C204.841 24.8591 205.442 23.0408 206.484 21.8528L205.721 21.1826L204.957 20.5124C203.472 22.2044 202.809 24.5781 202.809 27.4706H203.825ZM205.721 21.1826L206.484 21.8528C207.507 20.6876 209.035 20.0386 211.241 20.0386V19.0226V18.0066C208.614 18.0066 206.462 18.7976 204.957 20.5124L205.721 21.1826ZM211.241 19.0226V20.0386C213.446 20.0386 214.974 20.6876 215.997 21.8528L216.761 21.1826L217.524 20.5124C216.019 18.7976 213.867 18.0066 211.241 18.0066V19.0226ZM216.761 21.1826L215.997 21.8528C217.04 23.0408 217.641 24.8591 217.641 27.4706H218.657H219.673C219.673 24.5781 219.01 22.2044 217.524 20.5124L216.761 21.1826ZM218.657 27.4706H217.641C217.641 30.0821 217.04 31.9004 215.997 33.0884L216.761 33.7586L217.524 34.4288C219.01 32.7368 219.673 30.3631 219.673 27.4706H218.657ZM216.761 33.7586L215.997 33.0884C214.974 34.2536 213.446 34.9026 211.241 34.9026V35.9186V36.9346C213.867 36.9346 216.019 36.1436 217.524 34.4288L216.761 33.7586ZM211.241 32.2706V33.2866C212.489 33.2866 213.536 32.7797 214.145 31.684L213.257 31.1906L212.369 30.6972C212.177 31.0415 211.881 31.2546 211.241 31.2546V32.2706ZM213.257 31.1906L214.149 31.6757C214.679 30.7008 214.873 29.2381 214.873 27.4706H213.857H212.841C212.841 29.1911 212.634 30.2084 212.364 30.7054L213.257 31.1906ZM213.857 27.4706H214.873C214.873 25.7065 214.68 24.245 214.145 23.2812L213.257 23.7746L212.369 24.268C212.633 24.7442 212.841 25.7467 212.841 27.4706H213.857ZM213.257 23.7746L214.149 23.2894C213.546 22.1786 212.5 21.6546 211.241 21.6546V22.6706V23.6866C211.87 23.6866 212.168 23.8986 212.364 24.2597L213.257 23.7746ZM211.241 22.6706V21.6546C209.982 21.6546 208.936 22.1786 208.332 23.2894L209.225 23.7746L210.117 24.2597C210.314 23.8986 210.612 23.6866 211.241 23.6866V22.6706ZM209.225 23.7746L208.337 23.2812C207.801 24.245 207.609 25.7065 207.609 27.4706H208.625H209.641C209.641 25.7467 209.848 24.7442 210.113 24.268L209.225 23.7746ZM208.625 27.4706H207.609C207.609 29.2381 207.802 30.7008 208.332 31.6757L209.225 31.1906L210.117 30.7054C209.847 30.2084 209.641 29.1911 209.641 27.4706H208.625ZM209.225 31.1906L208.337 31.684C208.945 32.7797 209.993 33.2866 211.241 33.2866V32.2706V31.2546C210.601 31.2546 210.304 31.0415 210.113 30.6972L209.225 31.1906ZM222.213 34.2866L221.479 34.9889L221.484 34.9943L221.49 34.9997L222.213 34.2866ZM220.629 19.3826V18.3666H219.613V19.3826H220.629ZM225.261 19.3826H226.277V18.3666H225.261V19.3826ZM229.533 19.3826V18.3666H228.517V19.3826H229.533ZM234.165 19.3826H235.181V18.3666H234.165V19.3826ZM232.557 34.2866L231.829 33.5788L231.828 33.579L232.557 34.2866ZM227.397 35.9186V34.9026C225.137 34.9026 223.734 34.3827 222.937 33.5735L222.213 34.2866L221.49 34.9997C222.837 36.3665 224.89 36.9346 227.397 36.9346V35.9186ZM222.213 34.2866L222.948 33.5843C222.157 32.7576 221.645 31.2839 221.645 28.9106H220.629H219.613C219.613 31.4973 220.158 33.6076 221.479 34.9889L222.213 34.2866ZM220.629 28.9106H221.645V19.3826H220.629H219.613V28.9106H220.629ZM220.629 19.3826V20.3986H225.261V19.3826V18.3666H220.629V19.3826ZM225.261 19.3826H224.245V29.8946H225.261H226.277V19.3826H225.261ZM225.261 29.8946H224.245C224.245 30.8035 224.457 31.6742 225.06 32.3175C225.675 32.9731 226.527 33.2146 227.421 33.2146V32.1986V31.1826C226.875 31.1826 226.648 31.0401 226.543 30.9277C226.426 30.803 226.277 30.5217 226.277 29.8946H225.261ZM227.421 32.1986V33.2146C228.306 33.2146 229.149 32.9693 229.754 32.3091C230.344 31.6657 230.549 30.7984 230.549 29.8946H229.533H228.517C228.517 30.5268 228.371 30.8115 228.257 30.9361C228.158 31.0439 227.945 31.1826 227.421 31.1826V32.1986ZM229.533 29.8946H230.549V19.3826H229.533H228.517V29.8946H229.533ZM229.533 19.3826V20.3986H234.165V19.3826V18.3666H229.533V19.3826ZM234.165 19.3826H233.149V28.9106H234.165H235.181V19.3826H234.165ZM234.165 28.9106H233.149C233.149 31.2807 232.631 32.752 231.829 33.5788L232.557 34.2866L233.286 34.9944C234.628 33.6132 235.181 31.5005 235.181 28.9106H234.165ZM232.557 34.2866L231.828 33.579C231.049 34.3819 229.66 34.9026 227.397 34.9026V35.9186V36.9346C229.903 36.9346 231.954 36.3673 233.287 34.9942L232.557 34.2866ZM236.819 35.5586H235.803V36.5746H236.819V35.5586ZM236.819 19.3826V18.3666H235.803V19.3826H236.819ZM247.835 20.7506L247.171 21.5195L247.176 21.5244L247.835 20.7506ZM248.675 27.5666L249.52 28.1302L249.525 28.1221L248.675 27.5666ZM246.539 29.1986L246.202 28.2399L245.009 28.6584L245.675 29.7333L246.539 29.1986ZM250.475 35.5586V36.5746H252.298L251.339 35.0239L250.475 35.5586ZM245.675 35.5586L244.795 36.0671L245.088 36.5746H245.675V35.5586ZM242.387 29.8706L243.266 29.3621L242.973 28.8546H242.387V29.8706ZM241.187 29.8706V28.8546H240.171V29.8706H241.187ZM241.187 35.5586V36.5746H242.203V35.5586H241.187ZM241.187 22.6466V21.6306H240.171V22.6466H241.187ZM241.187 26.7746H240.171V27.7906H241.187V26.7746ZM236.819 35.5586H237.835V19.3826H236.819H235.803V35.5586H236.819ZM236.819 19.3826V20.3986H243.179V19.3826V18.3666H236.819V19.3826ZM243.179 19.3826V20.3986C245.094 20.3986 246.369 20.8271 247.171 21.5195L247.835 20.7506L248.499 19.9817C247.188 18.8501 245.359 18.3666 243.179 18.3666V19.3826ZM247.835 20.7506L247.176 21.5244C247.97 22.2001 248.427 23.2065 248.427 24.7106H249.443H250.459C250.459 22.7587 249.843 21.1251 248.493 19.9767L247.835 20.7506ZM249.443 24.7106H248.427C248.427 25.6725 248.208 26.4223 247.824 27.0111L248.675 27.5666L249.525 28.1221C250.165 27.1429 250.459 25.9887 250.459 24.7106H249.443ZM248.675 27.5666L247.829 27.003C247.446 27.5785 246.917 27.9892 246.202 28.2399L246.539 29.1986L246.875 30.1573C247.985 29.768 248.88 29.0907 249.52 28.1302L248.675 27.5666ZM246.539 29.1986L245.675 29.7333L249.611 36.0933L250.475 35.5586L251.339 35.0239L247.403 28.6639L246.539 29.1986ZM250.475 35.5586V34.5426H245.675V35.5586V36.5746H250.475V35.5586ZM245.675 35.5586L246.554 35.0501L243.266 29.3621L242.387 29.8706L241.507 30.3791L244.795 36.0671L245.675 35.5586ZM242.387 29.8706V28.8546H241.187V29.8706V30.8866H242.387V29.8706ZM241.187 29.8706H240.171V35.5586H241.187H242.203V29.8706H241.187ZM241.187 35.5586V34.5426H236.819V35.5586V36.5746H241.187V35.5586ZM242.771 22.6466V21.6306H241.187V22.6466V23.6626H242.771V22.6466ZM241.187 22.6466H240.171V26.7746H241.187H242.203V22.6466H241.187ZM241.187 26.7746V27.7906H242.771V26.7746V25.7586H241.187V26.7746ZM242.771 26.7746V27.7906C243.631 27.7906 244.464 27.5832 245.079 26.9892C245.7 26.3889 245.923 25.5642 245.923 24.7106H244.907H243.891C243.891 25.233 243.757 25.4402 243.667 25.528C243.569 25.6219 243.335 25.7586 242.771 25.7586V26.7746ZM244.907 24.7106H245.923C245.923 23.857 245.7 23.0322 245.079 22.432C244.464 21.8379 243.631 21.6306 242.771 21.6306V22.6466V23.6626C243.335 23.6626 243.569 23.7992 243.667 23.8932C243.757 23.9809 243.891 24.1882 243.891 24.7106H244.907ZM252.065 35.5586H251.049V36.5746H252.065V35.5586ZM252.065 19.3826V18.3666H251.049V19.3826H252.065ZM256.865 19.3826L257.769 18.918L257.485 18.3666H256.865V19.3826ZM262.073 29.5106L261.17 29.9752L263.089 29.5106H262.073ZM262.073 19.3826V18.3666H261.057V19.3826H262.073ZM266.081 19.3826H267.097V18.3666H266.081V19.3826ZM266.081 35.5586V36.5746H267.097V35.5586H266.081ZM261.281 35.5586L260.378 36.0232L260.661 36.5746H261.281V35.5586ZM256.073 25.4306L256.977 24.966L255.057 25.4306H256.073ZM256.073 35.5586V36.5746H257.089V35.5586H256.073ZM252.065 35.5586H253.081V19.3826H252.065H251.049V35.5586H252.065ZM252.065 19.3826V20.3986H256.865V19.3826V18.3666H252.065V19.3826ZM256.865 19.3826L255.962 19.8472L261.17 29.9752L262.073 29.5106L262.977 29.046L257.769 18.918L256.865 19.3826ZM262.073 29.5106H263.089V19.3826H262.073H261.057V29.5106H262.073ZM262.073 19.3826V20.3986H266.081V19.3826V18.3666H262.073V19.3826ZM266.081 19.3826H265.065V35.5586H266.081H267.097V19.3826H266.081ZM266.081 35.5586V34.5426H261.281V35.5586V36.5746H266.081V35.5586ZM261.281 35.5586L262.185 35.094L256.977 24.966L256.073 25.4306L255.17 25.8952L260.378 36.0232L261.281 35.5586ZM256.073 25.4306H255.057V35.5586H256.073H257.089V25.4306H256.073ZM256.073 35.5586V34.5426H252.065V35.5586V36.5746H256.073V35.5586ZM267.44 35.5586L266.462 35.2829L266.098 36.5746H267.44V35.5586ZM272 19.3826V18.3666H271.231L271.022 19.1069L272 19.3826ZM278.096 19.3826L279.072 19.0989L278.859 18.3666H278.096V19.3826ZM282.8 35.5586V36.5746H284.154L283.776 35.2749L282.8 35.5586ZM278.264 35.5586L277.279 35.805L277.471 36.5746H278.264V35.5586ZM277.52 32.5826L278.506 32.3362L278.314 31.5666H277.52V32.5826ZM272.576 32.5826V31.5666H271.783L271.591 32.3362L272.576 32.5826ZM271.832 35.5586V36.5746H272.626L272.818 35.805L271.832 35.5586ZM273.344 29.4386L272.359 29.1922L272.043 30.4546H273.344V29.4386ZM276.728 29.4386V30.4546H278.025L277.715 29.1954L276.728 29.4386ZM275.048 22.6226L276.035 22.3794L274.063 22.3762L275.048 22.6226ZM267.44 35.5586L268.418 35.8343L272.978 19.6583L272 19.3826L271.022 19.1069L266.462 35.2829L267.44 35.5586ZM272 19.3826V20.3986H278.096V19.3826V18.3666H272V19.3826ZM278.096 19.3826L277.121 19.6663L281.825 35.8423L282.8 35.5586L283.776 35.2749L279.072 19.0989L278.096 19.3826ZM282.8 35.5586V34.5426H278.264V35.5586V36.5746H282.8V35.5586ZM278.264 35.5586L279.25 35.3122L278.506 32.3362L277.52 32.5826L276.535 32.829L277.279 35.805L278.264 35.5586ZM277.52 32.5826V31.5666H272.576V32.5826V33.5986H277.52V32.5826ZM272.576 32.5826L271.591 32.3362L270.847 35.3122L271.832 35.5586L272.818 35.805L273.562 32.829L272.576 32.5826ZM271.832 35.5586V34.5426H267.44V35.5586V36.5746H271.832V35.5586ZM273.344 29.4386V30.4546H276.728V29.4386V28.4226H273.344V29.4386ZM276.728 29.4386L277.715 29.1954L276.035 22.3794L275.048 22.6226L274.062 22.8657L275.742 29.6817L276.728 29.4386ZM275.048 22.6226L274.063 22.3762L272.359 29.1922L273.344 29.4386L274.33 29.685L276.034 22.869L275.048 22.6226ZM284.175 35.5586H283.159V36.5746H284.175V35.5586ZM284.175 19.3826V18.3666H283.159V19.3826H284.175ZM288.783 19.3826H289.799V18.3666H288.783V19.3826ZM288.783 31.8626H287.767V32.8786H288.783V31.8626ZM294.447 31.8626H295.463V30.8466H294.447V31.8626ZM294.447 35.5586V36.5746H295.463V35.5586H294.447ZM284.175 35.5586H285.191V19.3826H284.175H283.159V35.5586H284.175ZM284.175 19.3826V20.3986H288.783V19.3826V18.3666H284.175V19.3826ZM288.783 19.3826H287.767V31.8626H288.783H289.799V19.3826H288.783ZM288.783 31.8626V32.8786H294.447V31.8626V30.8466H288.783V31.8626ZM294.447 31.8626H293.431V35.5586H294.447H295.463V31.8626H294.447ZM294.447 35.5586V34.5426H284.175V35.5586V36.5746H294.447V35.5586Z" fill="#3B3B3B" mask="url(#path-5-outside-1_202_6861)"/>
</g>
<defs>
<filter id="filter0_d_202_6861" x="1.00122" y="0.558594" width="387.999" height="68.9067" filterUnits="userSpaceOnUse" color-interpolation-filters="sRGB">
<feFlood flood-opacity="0" result="BackgroundImageFix"/>
<feColorMatrix in="SourceAlpha" type="matrix" values="0 0 0 0 0 0 0 0 0 0 0 0 0 0 0 0 0 0 127 0" result="hardAlpha"/>
<feOffset dy="4"/>
<feComposite in2="hardAlpha" operator="out"/>
<feColorMatrix type="matrix" values="0 0 0 0 0 0 0 0 0 0 0 0 0 0 0 0 0 0 0.25 0"/>
<feBlend mode="normal" in2="BackgroundImageFix" result="effect1_dropShadow_202_6861"/>
<feBlend mode="normal" in="SourceGraphic" in2="effect1_dropShadow_202_6861" result="shape"/>
</filter>
<filter id="filter1_ddd_202_6861" x="91.5391" y="16.6926" width="206.464" height="24.56" filterUnits="userSpaceOnUse" color-interpolation-filters="sRGB">
<feFlood flood-opacity="0" result="BackgroundImageFix"/>
<feColorMatrix in="SourceAlpha" type="matrix" values="0 0 0 0 0 0 0 0 0 0 0 0 0 0 0 0 0 0 127 0" result="hardAlpha"/>
<feOffset dy="1"/>
<feComposite in2="hardAlpha" operator="out"/>
<feColorMatrix type="matrix" values="0 0 0 0 0 0 0 0 0 0 0 0 0 0 0 0 0 0 1 0"/>
<feBlend mode="normal" in2="BackgroundImageFix" result="effect1_dropShadow_202_6861"/>
<feColorMatrix in="SourceAlpha" type="matrix" values="0 0 0 0 0 0 0 0 0 0 0 0 0 0 0 0 0 0 127 0" result="hardAlpha"/>
<feOffset dy="1"/>
<feComposite in2="hardAlpha" operator="out"/>
<feColorMatrix type="matrix" values="0 0 0 0 0 0 0 0 0 0 0 0 0 0 0 0 0 0 1 0"/>
<feBlend mode="normal" in2="effect1_dropShadow_202_6861" result="effect2_dropShadow_202_6861"/>
<feColorMatrix in="SourceAlpha" type="matrix" values="0 0 0 0 0 0 0 0 0 0 0 0 0 0 0 0 0 0 127 0" result="hardAlpha"/>
<feOffset dy="1.778"/>
<feGaussianBlur stdDeviation="1.27"/>
<feComposite in2="hardAlpha" operator="out"/>
<feColorMatrix type="matrix" values="0 0 0 0 0 0 0 0 0 0 0 0 0 0 0 0 0 0 0.8 0"/>
<feBlend mode="normal" in2="effect2_dropShadow_202_6861" result="effect3_dropShadow_202_6861"/>
<feBlend mode="normal" in="SourceGraphic" in2="effect3_dropShadow_202_6861" result="shape"/>
</filter>
<linearGradient id="paint0_linear_202_6861" x1="2.00952" y1="27.6625" x2="387.991" y2="27.6625" gradientUnits="userSpaceOnUse">
<stop stop-color="#4B42A2"/>
<stop offset="0.475" stop-color="#8383FF"/>
<stop offset="1" stop-color="#4C43A3"/>
</linearGradient>
<radialGradient id="paint1_radial_202_6861" cx="0" cy="0" r="1" gradientUnits="userSpaceOnUse" gradientTransform="translate(195 38.3311) rotate(-90) scale(43.7723 1126.28)">
<stop offset="0.431628" stop-color="white" stop-opacity="0.26"/>
<stop offset="1" stop-color="white"/>
</radialGradient>
</defs>
</svg>
