<svg width="27" height="30" viewBox="0 0 27 30" fill="none" xmlns="http://www.w3.org/2000/svg">
<mask id="path-1-outside-1_516_1795" maskUnits="userSpaceOnUse" x="-0.500488" y="-0.000488281" width="28" height="30" fill="black">
<rect fill="white" x="-0.500488" y="-0.000488281" width="28" height="30"/>
<path d="M16.6606 3.00146C16.6606 2.13282 15.6299 1.67736 14.9878 2.26221L1.82666 14.2612C1.3916 14.6579 1.3916 15.3421 1.82666 15.7388L14.9878 27.7368C15.6297 28.322 16.6603 27.8671 16.6606 26.9985V21.2046L23.8257 27.7368C24.4676 28.322 25.4992 27.8671 25.4995 26.9985V3.00146C25.4995 2.1327 24.4677 1.67699 23.8257 2.26221L16.6606 8.79443V3.00146Z"/>
</mask>
<g filter="url(#filter0_i_516_1795)">
<path d="M16.6606 3.00146C16.6606 2.13282 15.6299 1.67736 14.9878 2.26221L1.82666 14.2612C1.3916 14.6579 1.3916 15.3421 1.82666 15.7388L14.9878 27.7368C15.6297 28.322 16.6603 27.8671 16.6606 26.9985V21.2046L23.8257 27.7368C24.4676 28.322 25.4992 27.8671 25.4995 26.9985V3.00146C25.4995 2.1327 24.4677 1.67699 23.8257 2.26221L16.6606 8.79443V3.00146Z" fill="#00D958"/>
</g>
<path d="M16.6606 3.00146L18.1606 3.00144V3.00146H16.6606ZM14.9878 2.26221L13.9772 1.15374L13.9777 1.15328L14.9878 2.26221ZM1.82666 14.2612L2.83725 15.3697L2.83722 15.3697L1.82666 14.2612ZM1.82666 15.7388L0.816113 16.8473L0.816103 16.8473L1.82666 15.7388ZM14.9878 27.7368L13.9773 28.8454L13.9772 28.8453L14.9878 27.7368ZM16.6606 26.9985H18.1606V26.9991L16.6606 26.9985ZM16.6606 21.2046H15.1606V17.8073L17.6712 20.0961L16.6606 21.2046ZM23.8257 27.7368L22.8151 28.8453L22.8151 28.8453L23.8257 27.7368ZM25.4995 26.9985H26.9995L26.9995 26.9991L25.4995 26.9985ZM25.4995 3.00146L26.9995 3.00144V3.00146H25.4995ZM23.8257 2.26221L22.8151 1.15373L22.8152 1.15362L23.8257 2.26221ZM16.6606 8.79443L17.6712 9.90291L15.1606 12.1918V8.79443H16.6606ZM16.6606 3.00146L15.1606 3.00149C15.1607 3.43525 15.6764 3.66398 15.9979 3.37113L14.9878 2.26221L13.9777 1.15328C15.5833 -0.309258 18.1606 0.830395 18.1606 3.00144L16.6606 3.00146ZM14.9878 2.26221L15.9984 3.37068L2.83725 15.3697L1.82666 14.2612L0.816067 13.1528L13.9772 1.15374L14.9878 2.26221ZM1.82666 14.2612L2.83722 15.3697C3.05475 15.1714 3.05475 14.8286 2.83722 14.6303L1.82666 15.7388L0.816103 16.8473C-0.271549 15.8557 -0.271549 14.1443 0.816103 13.1527L1.82666 14.2612ZM1.82666 15.7388L2.83721 14.6303L15.9983 26.6283L14.9878 27.7368L13.9772 28.8453L0.816113 16.8473L1.82666 15.7388ZM14.9878 27.7368L15.9983 26.6283C15.6773 26.3357 15.1608 26.5637 15.1606 26.998L16.6606 26.9985L18.1606 26.9991C18.1599 29.1705 15.5822 30.3083 13.9773 28.8454L14.9878 27.7368ZM16.6606 26.9985H15.1606V21.2046H16.6606H18.1606V26.9985H16.6606ZM16.6606 21.2046L17.6712 20.0961L24.8363 26.6283L23.8257 27.7368L22.8151 28.8453L15.6501 22.3131L16.6606 21.2046ZM23.8257 27.7368L24.8362 26.6283C24.5161 26.3365 23.9997 26.5625 23.9995 26.998L25.4995 26.9985L26.9995 26.9991C26.9988 29.1717 24.4191 30.3076 22.8151 28.8453L23.8257 27.7368ZM25.4995 26.9985H23.9995V3.00146H25.4995H26.9995V26.9985H25.4995ZM25.4995 3.00146L23.9995 3.00149C23.9995 3.43549 24.5148 3.66367 24.8361 3.37079L23.8257 2.26221L22.8152 1.15362C24.4206 -0.309693 26.9995 0.829913 26.9995 3.00144L25.4995 3.00146ZM23.8257 2.26221L24.8363 3.37069L17.6712 9.90291L16.6606 8.79443L15.6501 7.68595L22.8151 1.15373L23.8257 2.26221ZM16.6606 8.79443H15.1606V3.00146H16.6606H18.1606V8.79443H16.6606Z" fill="black" mask="url(#path-1-outside-1_516_1795)"/>
<defs>
<filter id="filter0_i_516_1795" x="0.000488281" y="-1.50366" width="26.999" height="31.0063" filterUnits="userSpaceOnUse" color-interpolation-filters="sRGB">
<feFlood flood-opacity="0" result="BackgroundImageFix"/>
<feBlend mode="normal" in="SourceGraphic" in2="BackgroundImageFix" result="shape"/>
<feColorMatrix in="SourceAlpha" type="matrix" values="0 0 0 0 0 0 0 0 0 0 0 0 0 0 0 0 0 0 127 0" result="hardAlpha"/>
<feOffset dy="-4"/>
<feGaussianBlur stdDeviation="1"/>
<feComposite in2="hardAlpha" operator="arithmetic" k2="-1" k3="1"/>
<feColorMatrix type="matrix" values="0 0 0 0 0 0 0 0 0 0 0 0 0 0 0 0 0 0 0.45 0"/>
<feBlend mode="normal" in2="shape" result="effect1_innerShadow_516_1795"/>
</filter>
</defs>
</svg>
