<svg width="66" height="66" viewBox="0 0 66 66" fill="none" xmlns="http://www.w3.org/2000/svg">
<path d="M49.1255 49.8376C46.1363 52.7503 41.3524 52.6884 38.4396 49.6993L32.3828 43.4836L26.1671 49.5405C23.1779 52.4531 18.3941 52.3913 15.4813 49.4022L15.2114 49.1252C12.2987 46.136 12.3606 41.3522 15.3497 38.4394L21.5654 32.3825L15.5086 26.1669C12.5959 23.1777 12.6578 18.3938 15.6469 15.481L15.9238 15.2112C18.913 12.2984 23.6968 12.3604 26.6096 15.3495L32.6665 21.5651L38.8822 15.5083C41.8713 12.5956 46.6552 12.6575 49.568 15.6466L49.8379 15.9236C52.7506 18.9127 52.6886 23.6966 49.6996 26.6094L43.4839 32.6662L49.5407 38.8819C52.4534 41.8711 52.3915 46.6549 49.4024 49.5677L49.1255 49.8376Z" fill="#B3FD09" stroke="black" stroke-width="1.97143"/>
<g filter="url(#filter0_i_1540_303)">
<path d="M32.4008 42.0903L39.1452 49.0116C41.6781 51.6109 45.8385 51.6647 48.4378 49.1318L48.7147 48.8621C51.314 46.3292 51.3678 42.1687 48.835 39.5694L42.0906 32.6482L49.0118 25.9038C51.6111 23.3709 51.665 19.2105 49.1321 16.6112L48.8623 16.3343C46.3294 13.735 42.169 13.6812 39.5697 16.2141L32.6484 22.9584L25.9041 16.0372C23.3712 13.4379 19.2107 13.384 16.6114 15.9169L16.3346 16.1867C13.7353 18.7196 13.6814 22.88 16.2143 25.4793L22.9587 32.4006L16.0375 39.1449C13.4382 41.6778 13.3843 45.8383 15.9172 48.4376L16.187 48.7144C18.7198 51.3137 22.8803 51.3676 25.4796 48.8347L32.4008 42.0903Z" fill="#A02B1C"/>
</g>
<defs>
<filter id="filter0_i_1540_303" x="14.0518" y="14.0518" width="36.9453" height="36.9448" filterUnits="userSpaceOnUse" color-interpolation-filters="sRGB">
<feFlood flood-opacity="0" result="BackgroundImageFix"/>
<feBlend mode="normal" in="SourceGraphic" in2="BackgroundImageFix" result="shape"/>
<feColorMatrix in="SourceAlpha" type="matrix" values="0 0 0 0 0 0 0 0 0 0 0 0 0 0 0 0 0 0 127 0" result="hardAlpha"/>
<feOffset dy="3.28571"/>
<feComposite in2="hardAlpha" operator="arithmetic" k2="-1" k3="1"/>
<feColorMatrix type="matrix" values="0 0 0 0 0 0 0 0 0 0 0 0 0 0 0 0 0 0 0.5 0"/>
<feBlend mode="normal" in2="shape" result="effect1_innerShadow_1540_303"/>
</filter>
</defs>
</svg>
