<svg width="28" height="30" viewBox="0 0 28 30" fill="none" xmlns="http://www.w3.org/2000/svg">
<mask id="path-1-outside-1_516_1793" maskUnits="userSpaceOnUse" x="0.000488281" y="0.262939" width="28" height="30" fill="black">
<rect fill="white" x="0.000488281" y="0.262939" width="28" height="30"/>
<path d="M10.8384 3.26489C10.8384 2.39611 11.8702 1.94038 12.5122 2.52563L25.6733 14.5237C26.1084 14.9203 26.1084 15.6056 25.6733 16.0022L12.5122 28.0002C11.8702 28.5856 10.8384 28.1298 10.8384 27.261V21.468L3.67334 28.0002C3.03128 28.5854 2.00049 28.1297 2.00049 27.261V3.26489C2.00049 2.39623 3.03127 1.94075 3.67334 2.52563L10.8384 9.05688V3.26489Z"/>
</mask>
<g filter="url(#filter0_i_516_1793)">
<path d="M10.8384 3.26489C10.8384 2.39611 11.8702 1.94038 12.5122 2.52563L25.6733 14.5237C26.1084 14.9203 26.1084 15.6056 25.6733 16.0022L12.5122 28.0002C11.8702 28.5856 10.8384 28.1298 10.8384 27.261V21.468L3.67334 28.0002C3.03128 28.5854 2.00049 28.1297 2.00049 27.261V3.26489C2.00049 2.39623 3.03127 1.94075 3.67334 2.52563L10.8384 9.05688V3.26489Z" fill="#00D958"/>
</g>
<path d="M12.5122 2.52563L13.5228 1.41713L13.5227 1.41707L12.5122 2.52563ZM25.6733 14.5237L26.6839 13.4152L26.6839 13.4152L25.6733 14.5237ZM25.6733 16.0022L26.6839 17.1107L26.6839 17.1107L25.6733 16.0022ZM12.5122 28.0002L11.5017 26.8917L11.5017 26.8917L12.5122 28.0002ZM10.8384 21.468H12.3384V18.0707L9.8278 20.3595L10.8384 21.468ZM3.67334 28.0002L4.68373 29.1089L4.68392 29.1087L3.67334 28.0002ZM2.00049 27.261H3.50049H2.00049ZM2.00049 3.26489H0.500488H2.00049ZM3.67334 2.52563L4.68384 1.41708L4.68347 1.41675L3.67334 2.52563ZM10.8384 9.05688L9.82788 10.1654L12.3384 12.4539V9.05688H10.8384ZM10.8384 3.26489H12.3384C12.3384 3.69886 11.8231 3.92711 11.5017 3.6342L12.5122 2.52563L13.5227 1.41707C11.9173 -0.0463457 9.33838 1.09335 9.33838 3.26489H10.8384ZM12.5122 2.52563L11.5017 3.63414L24.6628 15.6322L25.6733 14.5237L26.6839 13.4152L13.5228 1.41713L12.5122 2.52563ZM25.6733 14.5237L24.6628 15.6322C24.4453 15.4339 24.4453 15.092 24.6628 14.8937L25.6733 16.0022L26.6839 17.1107C27.7715 16.1191 27.7715 14.4067 26.6839 13.4152L25.6733 14.5237ZM25.6733 16.0022L24.6628 14.8937L11.5017 26.8917L12.5122 28.0002L13.5228 29.1088L26.6839 17.1107L25.6733 16.0022ZM12.5122 28.0002L11.5017 26.8917C11.8231 26.5987 12.3384 26.8272 12.3384 27.261H10.8384H9.33838C9.33838 29.4324 11.9172 30.5725 13.5228 29.1087L12.5122 28.0002ZM10.8384 27.261H12.3384V21.468H10.8384H9.33838V27.261H10.8384ZM10.8384 21.468L9.8278 20.3595L2.66276 26.8918L3.67334 28.0002L4.68392 29.1087L11.849 22.5765L10.8384 21.468ZM3.67334 28.0002L2.66295 26.8916C2.98505 26.598 3.50049 26.828 3.50049 27.261H2.00049H0.500488C0.500488 29.4314 3.07751 30.5728 4.68373 29.1089L3.67334 28.0002ZM2.00049 27.261H3.50049V3.26489H2.00049H0.500488V27.261H2.00049ZM2.00049 3.26489L3.50049 3.26489C3.50049 3.6986 2.98476 3.92744 2.66321 3.63452L3.67334 2.52563L4.68347 1.41675C3.07778 -0.0459452 0.500488 1.09386 0.500488 3.26489L2.00049 3.26489ZM3.67334 2.52563L2.66284 3.63419L9.82788 10.1654L10.8384 9.05688L11.8489 7.94833L4.68384 1.41708L3.67334 2.52563ZM10.8384 9.05688H12.3384V3.26489H10.8384H9.33838V9.05688H10.8384Z" fill="black" mask="url(#path-1-outside-1_516_1793)"/>
<defs>
<filter id="filter0_i_516_1793" x="0.500488" y="-1.24023" width="26.999" height="31.0063" filterUnits="userSpaceOnUse" color-interpolation-filters="sRGB">
<feFlood flood-opacity="0" result="BackgroundImageFix"/>
<feBlend mode="normal" in="SourceGraphic" in2="BackgroundImageFix" result="shape"/>
<feColorMatrix in="SourceAlpha" type="matrix" values="0 0 0 0 0 0 0 0 0 0 0 0 0 0 0 0 0 0 127 0" result="hardAlpha"/>
<feOffset dy="-4"/>
<feGaussianBlur stdDeviation="1"/>
<feComposite in2="hardAlpha" operator="arithmetic" k2="-1" k3="1"/>
<feColorMatrix type="matrix" values="0 0 0 0 0 0 0 0 0 0 0 0 0 0 0 0 0 0 0.45 0"/>
<feBlend mode="normal" in2="shape" result="effect1_innerShadow_516_1793"/>
</filter>
</defs>
</svg>
