<svg width="364" height="443" viewBox="0 0 364 443" fill="none" xmlns="http://www.w3.org/2000/svg">
<g filter="url(#filter0_d_587_14366)">
<g clip-path="url(#clip0_587_14366)">
<rect x="2" y="2" width="360" height="433" rx="6" fill="#616881"/>
<g filter="url(#filter1_i_587_14366)">
<rect x="2" y="2" width="360" height="428" rx="6" fill="#FFE6FF"/>
<g filter="url(#filter2_i_587_14366)">
<rect x="7" y="7" width="350" height="418" rx="4" fill="#FF9D91"/>
</g>
</g>
<g style="mix-blend-mode:hard-light">
<rect x="311" y="2" width="13" height="433" fill="white" fill-opacity="0.2"/>
</g>
<g style="mix-blend-mode:hard-light">
<rect x="329" y="2" width="13" height="433" fill="white" fill-opacity="0.2"/>
</g>
</g>
<rect x="1" y="1" width="362" height="435" rx="7" stroke="black" stroke-width="2"/>
</g>
<path d="M4 0.5H360C361.933 0.5 363.5 2.067 363.5 4V40.5215C363.5 42.3073 362.155 43.8069 360.38 44.001L184.119 63.2656C182.711 63.4195 181.29 63.4195 179.882 63.2656L3.62012 44.001C1.84487 43.8069 0.500006 42.3073 0.5 40.5215V4C0.5 2.067 2.067 0.5 4 0.5Z" fill="#72211C" stroke="black"/>
<path d="M1 4C1 2.34314 2.34315 1 4 1H360C361.657 1 363 2.34315 363 4V36.5264C363 38.5579 361.477 40.2668 359.459 40.5L184.295 60.7349C182.77 60.911 181.23 60.911 179.705 60.7349L4.54098 40.5C2.52286 40.2668 1 38.5579 1 36.5264V4Z" fill="#C3331B"/>
<path d="M4 1.5H360C361.381 1.5 362.5 2.61929 362.5 4V36.5264C362.5 38.304 361.167 39.7989 359.401 40.0029L184.237 60.2383C182.751 60.41 181.249 60.41 179.763 60.2383L4.59863 40.0029C2.83277 39.7989 1.5 38.304 1.5 36.5264V4C1.5 2.61929 2.61929 1.5 4 1.5Z" stroke="#C4C4C4" stroke-opacity="0.7" style="mix-blend-mode:hard-light"/>
<path style="mix-blend-mode:hard-light" d="M359.984 1C361.641 1.00014 362.984 2.34323 362.984 4V4.41309C332.388 9.47242 263.751 13 183.984 13C100.543 13 29.2795 9.13902 1 3.70312C1.14893 2.18549 2.4276 1 3.98438 1H359.984Z" fill="#F5F5F5" fill-opacity="0.2"/>
<defs>
<filter id="filter0_d_587_14366" x="0" y="0" width="364" height="443" filterUnits="userSpaceOnUse" color-interpolation-filters="sRGB">
<feFlood flood-opacity="0" result="BackgroundImageFix"/>
<feColorMatrix in="SourceAlpha" type="matrix" values="0 0 0 0 0 0 0 0 0 0 0 0 0 0 0 0 0 0 127 0" result="hardAlpha"/>
<feOffset dy="6"/>
<feComposite in2="hardAlpha" operator="out"/>
<feColorMatrix type="matrix" values="0 0 0 0 0 0 0 0 0 0 0 0 0 0 0 0 0 0 0.3 0"/>
<feBlend mode="multiply" in2="BackgroundImageFix" result="effect1_dropShadow_587_14366"/>
<feBlend mode="normal" in="SourceGraphic" in2="effect1_dropShadow_587_14366" result="shape"/>
</filter>
<filter id="filter1_i_587_14366" x="2" y="2" width="360" height="428" filterUnits="userSpaceOnUse" color-interpolation-filters="sRGB">
<feFlood flood-opacity="0" result="BackgroundImageFix"/>
<feBlend mode="normal" in="SourceGraphic" in2="BackgroundImageFix" result="shape"/>
<feColorMatrix in="SourceAlpha" type="matrix" values="0 0 0 0 0 0 0 0 0 0 0 0 0 0 0 0 0 0 127 0" result="hardAlpha"/>
<feMorphology radius="1" operator="dilate" in="SourceAlpha" result="effect1_innerShadow_587_14366"/>
<feOffset dy="-2"/>
<feGaussianBlur stdDeviation="0.5"/>
<feComposite in2="hardAlpha" operator="arithmetic" k2="-1" k3="1"/>
<feColorMatrix type="matrix" values="0 0 0 0 0.410206 0 0 0 0 0.0210361 0 0 0 0 0.0210361 0 0 0 0.35 0"/>
<feBlend mode="hard-light" in2="shape" result="effect1_innerShadow_587_14366"/>
</filter>
<filter id="filter2_i_587_14366" x="7" y="7" width="350" height="418" filterUnits="userSpaceOnUse" color-interpolation-filters="sRGB">
<feFlood flood-opacity="0" result="BackgroundImageFix"/>
<feBlend mode="normal" in="SourceGraphic" in2="BackgroundImageFix" result="shape"/>
<feColorMatrix in="SourceAlpha" type="matrix" values="0 0 0 0 0 0 0 0 0 0 0 0 0 0 0 0 0 0 127 0" result="hardAlpha"/>
<feMorphology radius="8" operator="erode" in="SourceAlpha" result="effect1_innerShadow_587_14366"/>
<feOffset/>
<feGaussianBlur stdDeviation="15"/>
<feComposite in2="hardAlpha" operator="arithmetic" k2="-1" k3="1"/>
<feColorMatrix type="matrix" values="0 0 0 0 0 0 0 0 0 0 0 0 0 0 0 0 0 0 0.05 0"/>
<feBlend mode="normal" in2="shape" result="effect1_innerShadow_587_14366"/>
</filter>
<clipPath id="clip0_587_14366">
<rect x="2" y="2" width="360" height="433" rx="6" fill="white"/>
</clipPath>
</defs>
</svg>
