<svg width="859" height="151" viewBox="0 0 859 151" fill="none" xmlns="http://www.w3.org/2000/svg">
<g filter="url(#filter0_d_628_1705)">
<path d="M2.63077 14.0328C2.63207 7.93917 7.5723 3 13.6659 3H845.267C851.362 3 856.302 7.94061 856.302 14.0352V87.3648C856.302 94.1926 851.111 99.9011 844.314 100.548L433.636 139.603C430.857 139.867 428.058 139.867 425.279 139.603L14.6036 100.548C7.8054 99.9012 2.61366 94.1911 2.61512 87.3622L2.63077 14.0328Z" fill="#342E72"/>
<path d="M845.268 1.89648C851.972 1.89672 857.406 7.3313 857.406 14.0352V87.3652C857.406 94.7619 851.782 100.946 844.418 101.646L433.74 140.701C430.891 140.972 428.023 140.972 425.174 140.701L14.4992 101.646C7.13456 100.946 1.51049 94.7601 1.5119 87.3623L1.52753 14.0322C1.52915 7.32938 6.96331 1.89648 13.6662 1.89648H845.268Z" stroke="black" stroke-width="2.20703"/>
</g>
<path d="M13.705 4.10352H845.211C850.694 4.10352 855.14 8.5471 855.142 14.0303L855.174 81.0596C855.176 86.1759 851.292 90.4574 846.199 90.9502L433.603 130.879C430.846 131.146 428.07 131.146 425.312 130.879L12.7167 90.9502C7.62423 90.4573 3.73966 86.1758 3.74207 81.0596L3.77332 14.0303C3.77601 8.54713 8.2218 4.10357 13.705 4.10352Z" fill="url(#paint0_linear_628_1705)"/>
<path d="M13.705 4.10352H845.211C850.694 4.10352 855.14 8.5471 855.142 14.0303L855.174 81.0596C855.176 86.1759 851.292 90.4574 846.199 90.9502L433.603 130.879C430.846 131.146 428.07 131.146 425.312 130.879L12.7167 90.9502C7.62423 90.4573 3.73966 86.1758 3.74207 81.0596L3.77332 14.0303C3.77601 8.54713 8.2218 4.10357 13.705 4.10352Z" stroke="#D2BFFF" stroke-width="2.20703" style="mix-blend-mode:hard-light"/>
<path style="mix-blend-mode:hard-light" d="M845.346 5.53711C850.219 5.53715 854.171 9.48662 854.174 14.3604L854.182 29.8145C771.129 39.5471 612.053 46.1299 429.458 46.1299C246.862 46.1299 87.7856 39.5462 4.73334 29.8135L4.74115 14.3604C4.74382 9.48671 8.69566 5.53728 13.5693 5.53711H845.346Z" fill="url(#paint1_radial_628_1705)" fill-opacity="0.25"/>
<g filter="url(#filter1_ddd_628_1705)">
<mask id="path-5-outside-1_628_1705" maskUnits="userSpaceOnUse" x="246.85" y="44.0054" width="366" height="33" fill="black">
<rect fill="white" x="246.85" y="44.0054" width="366" height="33"/>
<path d="M249.8 74.0054V47.0454H258.6L264.72 62.3654L270.88 47.0454H279.44V74.0054H272.8V56.6854L267.6 69.6854H261.68L256.48 56.9654V74.0054H249.8ZM284.235 74.0054V47.0454H302.315V52.8854H291.635V57.4454H300.275V63.2854H291.635V68.1654H302.475V74.0054H284.235ZM306.521 74.0054V47.0454H324.601V52.8854H313.921V57.4454H322.561V63.2854H313.921V68.1654H324.761V74.0054H306.521ZM333.487 74.0054V53.1254H326.887V47.0454H347.767V53.1254H341.167V74.0054H333.487ZM363.44 74.0054V65.2054L354.68 47.0454H362.4L367.4 57.7254L372.44 47.0454H379.68L371.12 64.4054V74.0054H363.44ZM392.099 74.6054C388.072 74.6054 385.006 73.4054 382.899 71.0054C380.792 68.6054 379.739 65.112 379.739 60.5254C379.739 55.9387 380.792 52.4454 382.899 50.0454C385.006 47.6454 388.072 46.4454 392.099 46.4454C396.126 46.4454 399.192 47.6454 401.299 50.0454C403.406 52.4454 404.459 55.9387 404.459 60.5254C404.459 65.112 403.406 68.6054 401.299 71.0054C399.192 73.4054 396.126 74.6054 392.099 74.6054ZM392.099 68.5254C393.672 68.5254 394.792 67.9254 395.459 66.7254C396.126 65.4987 396.459 63.432 396.459 60.5254C396.459 57.6187 396.126 55.5654 395.459 54.3654C394.792 53.1387 393.672 52.5254 392.099 52.5254C390.526 52.5254 389.406 53.1387 388.739 54.3654C388.072 55.5654 387.739 57.6187 387.739 60.5254C387.739 63.432 388.072 65.4987 388.739 66.7254C389.406 67.9254 390.526 68.5254 392.099 68.5254ZM419.027 74.6054C415.053 74.6054 412.173 73.6987 410.387 71.8854C408.627 70.0454 407.747 67.0587 407.747 62.9254V47.0454H415.467V64.5654C415.467 67.1254 416.667 68.4054 419.067 68.4054C421.413 68.4054 422.587 67.1254 422.587 64.5654V47.0454H430.307V62.9254C430.307 67.0587 429.413 70.0454 427.627 71.8854C425.867 73.6987 423 74.6054 419.027 74.6054ZM434.729 74.0054V47.0454H445.329C448.742 47.0454 451.329 47.8054 453.089 49.3254C454.875 50.8454 455.769 53.0454 455.769 55.9254C455.769 57.792 455.342 59.3787 454.489 60.6854C453.635 61.9654 452.449 62.872 450.929 63.4054L457.489 74.0054H449.489L444.009 64.5254H442.009V74.0054H434.729ZM444.649 52.4854H442.009V59.3654H444.649C447.022 59.3654 448.209 58.2187 448.209 55.9254C448.209 53.632 447.022 52.4854 444.649 52.4854ZM466.957 74.0054V47.0454H474.637V57.3254H482.277V47.0454H489.957V74.0054H482.277V63.3254H474.637V74.0054H466.957ZM494.75 74.0054V47.0454H512.83V52.8854H502.15V57.4454H510.79V63.2854H502.15V68.1654H512.99V74.0054H494.75ZM517.036 74.0054V47.0454H527.636C531.05 47.0454 533.636 47.8054 535.396 49.3254C537.183 50.8454 538.076 53.0454 538.076 55.9254C538.076 57.792 537.65 59.3787 536.796 60.6854C535.943 61.9654 534.756 62.872 533.236 63.4054L539.796 74.0054H531.796L526.316 64.5254H524.316V74.0054H517.036ZM526.956 52.4854H524.316V59.3654H526.956C529.33 59.3654 530.516 58.2187 530.516 55.9254C530.516 53.632 529.33 52.4854 526.956 52.4854ZM553.647 74.6054C549.621 74.6054 546.554 73.4054 544.447 71.0054C542.341 68.6054 541.287 65.112 541.287 60.5254C541.287 55.9387 542.341 52.4454 544.447 50.0454C546.554 47.6454 549.621 46.4454 553.647 46.4454C557.674 46.4454 560.741 47.6454 562.847 50.0454C564.954 52.4454 566.007 55.9387 566.007 60.5254C566.007 65.112 564.954 68.6054 562.847 71.0054C560.741 73.4054 557.674 74.6054 553.647 74.6054ZM553.647 68.5254C555.221 68.5254 556.341 67.9254 557.007 66.7254C557.674 65.4987 558.007 63.432 558.007 60.5254C558.007 57.6187 557.674 55.5654 557.007 54.3654C556.341 53.1387 555.221 52.5254 553.647 52.5254C552.074 52.5254 550.954 53.1387 550.287 54.3654C549.621 55.5654 549.287 57.6187 549.287 60.5254C549.287 63.432 549.621 65.4987 550.287 66.7254C550.954 67.9254 552.074 68.5254 553.647 68.5254ZM569.655 74.0054V47.0454H587.735V52.8854H577.055V57.4454H585.695V63.2854H577.055V68.1654H587.895V74.0054H569.655ZM599.501 74.6054C596.328 74.6054 593.421 74.0854 590.781 73.0454L592.181 67.2054C593.221 67.6054 594.328 67.9254 595.501 68.1654C596.701 68.3787 597.821 68.4854 598.861 68.4854C600.408 68.4854 601.514 68.2854 602.181 67.8854C602.874 67.4854 603.221 66.832 603.221 65.9254C603.221 64.832 602.608 64.1654 601.381 63.9254L597.821 63.2054C593.394 62.2987 591.181 59.6454 591.181 55.2454C591.181 52.4987 592.088 50.352 593.901 48.8054C595.714 47.232 598.208 46.4454 601.381 46.4454C604.554 46.4454 607.381 46.9254 609.861 47.8854L608.421 53.6054C606.581 52.8854 604.421 52.5254 601.941 52.5254C599.488 52.5254 598.261 53.2854 598.261 54.8054C598.261 55.9254 598.968 56.6187 600.381 56.8854L603.421 57.4854C605.874 57.992 607.674 58.8987 608.821 60.2054C609.994 61.512 610.581 63.312 610.581 65.6054C610.581 68.6454 609.674 70.912 607.861 72.4054C606.048 73.872 603.261 74.6054 599.501 74.6054Z"/>
</mask>
<path d="M249.8 74.0054V47.0454H258.6L264.72 62.3654L270.88 47.0454H279.44V74.0054H272.8V56.6854L267.6 69.6854H261.68L256.48 56.9654V74.0054H249.8ZM284.235 74.0054V47.0454H302.315V52.8854H291.635V57.4454H300.275V63.2854H291.635V68.1654H302.475V74.0054H284.235ZM306.521 74.0054V47.0454H324.601V52.8854H313.921V57.4454H322.561V63.2854H313.921V68.1654H324.761V74.0054H306.521ZM333.487 74.0054V53.1254H326.887V47.0454H347.767V53.1254H341.167V74.0054H333.487ZM363.44 74.0054V65.2054L354.68 47.0454H362.4L367.4 57.7254L372.44 47.0454H379.68L371.12 64.4054V74.0054H363.44ZM392.099 74.6054C388.072 74.6054 385.006 73.4054 382.899 71.0054C380.792 68.6054 379.739 65.112 379.739 60.5254C379.739 55.9387 380.792 52.4454 382.899 50.0454C385.006 47.6454 388.072 46.4454 392.099 46.4454C396.126 46.4454 399.192 47.6454 401.299 50.0454C403.406 52.4454 404.459 55.9387 404.459 60.5254C404.459 65.112 403.406 68.6054 401.299 71.0054C399.192 73.4054 396.126 74.6054 392.099 74.6054ZM392.099 68.5254C393.672 68.5254 394.792 67.9254 395.459 66.7254C396.126 65.4987 396.459 63.432 396.459 60.5254C396.459 57.6187 396.126 55.5654 395.459 54.3654C394.792 53.1387 393.672 52.5254 392.099 52.5254C390.526 52.5254 389.406 53.1387 388.739 54.3654C388.072 55.5654 387.739 57.6187 387.739 60.5254C387.739 63.432 388.072 65.4987 388.739 66.7254C389.406 67.9254 390.526 68.5254 392.099 68.5254ZM419.027 74.6054C415.053 74.6054 412.173 73.6987 410.387 71.8854C408.627 70.0454 407.747 67.0587 407.747 62.9254V47.0454H415.467V64.5654C415.467 67.1254 416.667 68.4054 419.067 68.4054C421.413 68.4054 422.587 67.1254 422.587 64.5654V47.0454H430.307V62.9254C430.307 67.0587 429.413 70.0454 427.627 71.8854C425.867 73.6987 423 74.6054 419.027 74.6054ZM434.729 74.0054V47.0454H445.329C448.742 47.0454 451.329 47.8054 453.089 49.3254C454.875 50.8454 455.769 53.0454 455.769 55.9254C455.769 57.792 455.342 59.3787 454.489 60.6854C453.635 61.9654 452.449 62.872 450.929 63.4054L457.489 74.0054H449.489L444.009 64.5254H442.009V74.0054H434.729ZM444.649 52.4854H442.009V59.3654H444.649C447.022 59.3654 448.209 58.2187 448.209 55.9254C448.209 53.632 447.022 52.4854 444.649 52.4854ZM466.957 74.0054V47.0454H474.637V57.3254H482.277V47.0454H489.957V74.0054H482.277V63.3254H474.637V74.0054H466.957ZM494.75 74.0054V47.0454H512.83V52.8854H502.15V57.4454H510.79V63.2854H502.15V68.1654H512.99V74.0054H494.75ZM517.036 74.0054V47.0454H527.636C531.05 47.0454 533.636 47.8054 535.396 49.3254C537.183 50.8454 538.076 53.0454 538.076 55.9254C538.076 57.792 537.65 59.3787 536.796 60.6854C535.943 61.9654 534.756 62.872 533.236 63.4054L539.796 74.0054H531.796L526.316 64.5254H524.316V74.0054H517.036ZM526.956 52.4854H524.316V59.3654H526.956C529.33 59.3654 530.516 58.2187 530.516 55.9254C530.516 53.632 529.33 52.4854 526.956 52.4854ZM553.647 74.6054C549.621 74.6054 546.554 73.4054 544.447 71.0054C542.341 68.6054 541.287 65.112 541.287 60.5254C541.287 55.9387 542.341 52.4454 544.447 50.0454C546.554 47.6454 549.621 46.4454 553.647 46.4454C557.674 46.4454 560.741 47.6454 562.847 50.0454C564.954 52.4454 566.007 55.9387 566.007 60.5254C566.007 65.112 564.954 68.6054 562.847 71.0054C560.741 73.4054 557.674 74.6054 553.647 74.6054ZM553.647 68.5254C555.221 68.5254 556.341 67.9254 557.007 66.7254C557.674 65.4987 558.007 63.432 558.007 60.5254C558.007 57.6187 557.674 55.5654 557.007 54.3654C556.341 53.1387 555.221 52.5254 553.647 52.5254C552.074 52.5254 550.954 53.1387 550.287 54.3654C549.621 55.5654 549.287 57.6187 549.287 60.5254C549.287 63.432 549.621 65.4987 550.287 66.7254C550.954 67.9254 552.074 68.5254 553.647 68.5254ZM569.655 74.0054V47.0454H587.735V52.8854H577.055V57.4454H585.695V63.2854H577.055V68.1654H587.895V74.0054H569.655ZM599.501 74.6054C596.328 74.6054 593.421 74.0854 590.781 73.0454L592.181 67.2054C593.221 67.6054 594.328 67.9254 595.501 68.1654C596.701 68.3787 597.821 68.4854 598.861 68.4854C600.408 68.4854 601.514 68.2854 602.181 67.8854C602.874 67.4854 603.221 66.832 603.221 65.9254C603.221 64.832 602.608 64.1654 601.381 63.9254L597.821 63.2054C593.394 62.2987 591.181 59.6454 591.181 55.2454C591.181 52.4987 592.088 50.352 593.901 48.8054C595.714 47.232 598.208 46.4454 601.381 46.4454C604.554 46.4454 607.381 46.9254 609.861 47.8854L608.421 53.6054C606.581 52.8854 604.421 52.5254 601.941 52.5254C599.488 52.5254 598.261 53.2854 598.261 54.8054C598.261 55.9254 598.968 56.6187 600.381 56.8854L603.421 57.4854C605.874 57.992 607.674 58.8987 608.821 60.2054C609.994 61.512 610.581 63.312 610.581 65.6054C610.581 68.6454 609.674 70.912 607.861 72.4054C606.048 73.872 603.261 74.6054 599.501 74.6054Z" fill="white"/>
<path d="M249.8 74.0054H247.558V76.2477H249.8V74.0054ZM249.8 47.0454V44.803H247.558V47.0454H249.8ZM258.6 47.0454L260.683 46.2135L260.119 44.803H258.6V47.0454ZM264.72 62.3654L262.638 63.1972L264.714 68.3929L266.801 63.2019L264.72 62.3654ZM270.88 47.0454V44.803H269.365L268.8 46.2088L270.88 47.0454ZM279.44 47.0454H281.683V44.803H279.44V47.0454ZM279.44 74.0054V76.2477H281.683V74.0054H279.44ZM272.8 74.0054H270.558V76.2477H272.8V74.0054ZM272.8 56.6854H275.043L270.718 55.8526L272.8 56.6854ZM267.6 69.6854V71.9277H269.119L269.682 70.5182L267.6 69.6854ZM261.68 69.6854L259.605 70.5339L260.175 71.9277H261.68V69.6854ZM256.48 56.9654L258.556 56.1169L254.238 56.9654H256.48ZM256.48 74.0054V76.2477H258.723V74.0054H256.48ZM249.8 74.0054H252.043V47.0454H249.8H247.558V74.0054H249.8ZM249.8 47.0454V49.2877H258.6V47.0454V44.803H249.8V47.0454ZM258.6 47.0454L256.518 47.8772L262.638 63.1972L264.72 62.3654L266.803 61.5335L260.683 46.2135L258.6 47.0454ZM264.72 62.3654L266.801 63.2019L272.961 47.8819L270.88 47.0454L268.8 46.2088L262.64 61.5288L264.72 62.3654ZM270.88 47.0454V49.2877H279.44V47.0454V44.803H270.88V47.0454ZM279.44 47.0454H277.198V74.0054H279.44H281.683V47.0454H279.44ZM279.44 74.0054V71.763H272.8V74.0054V76.2477H279.44V74.0054ZM272.8 74.0054H275.043V56.6854H272.8H270.558V74.0054H272.8ZM272.8 56.6854L270.718 55.8526L265.518 68.8526L267.6 69.6854L269.682 70.5182L274.882 57.5182L272.8 56.6854ZM267.6 69.6854V67.443H261.68V69.6854V71.9277H267.6V69.6854ZM261.68 69.6854L263.756 68.8369L258.556 56.1169L256.48 56.9654L254.405 57.8139L259.605 70.5339L261.68 69.6854ZM256.48 56.9654H254.238V74.0054H256.48H258.723V56.9654H256.48ZM256.48 74.0054V71.763H249.8V74.0054V76.2477H256.48V74.0054ZM284.235 74.0054H281.992V76.2477H284.235V74.0054ZM284.235 47.0454V44.803H281.992V47.0454H284.235ZM302.315 47.0454H304.557V44.803H302.315V47.0454ZM302.315 52.8854V55.1277H304.557V52.8854H302.315ZM291.635 52.8854V50.643H289.392V52.8854H291.635ZM291.635 57.4454H289.392V59.6877H291.635V57.4454ZM300.275 57.4454H302.517V55.203H300.275V57.4454ZM300.275 63.2854V65.5277H302.517V63.2854H300.275ZM291.635 63.2854V61.043H289.392V63.2854H291.635ZM291.635 68.1654H289.392V70.4077H291.635V68.1654ZM302.475 68.1654H304.717V65.923H302.475V68.1654ZM302.475 74.0054V76.2477H304.717V74.0054H302.475ZM284.235 74.0054H286.477V47.0454H284.235H281.992V74.0054H284.235ZM284.235 47.0454V49.2877H302.315V47.0454V44.803H284.235V47.0454ZM302.315 47.0454H300.072V52.8854H302.315H304.557V47.0454H302.315ZM302.315 52.8854V50.643H291.635V52.8854V55.1277H302.315V52.8854ZM291.635 52.8854H289.392V57.4454H291.635H293.877V52.8854H291.635ZM291.635 57.4454V59.6877H300.275V57.4454V55.203H291.635V57.4454ZM300.275 57.4454H298.032V63.2854H300.275H302.517V57.4454H300.275ZM300.275 63.2854V61.043H291.635V63.2854V65.5277H300.275V63.2854ZM291.635 63.2854H289.392V68.1654H291.635H293.877V63.2854H291.635ZM291.635 68.1654V70.4077H302.475V68.1654V65.923H291.635V68.1654ZM302.475 68.1654H300.232V74.0054H302.475H304.717V68.1654H302.475ZM302.475 74.0054V71.763H284.235V74.0054V76.2477H302.475V74.0054ZM306.521 74.0054H304.278V76.2477H306.521V74.0054ZM306.521 47.0454V44.803H304.278V47.0454H306.521ZM324.601 47.0454H326.843V44.803H324.601V47.0454ZM324.601 52.8854V55.1277H326.843V52.8854H324.601ZM313.921 52.8854V50.643H311.678V52.8854H313.921ZM313.921 57.4454H311.678V59.6877H313.921V57.4454ZM322.561 57.4454H324.803V55.203H322.561V57.4454ZM322.561 63.2854V65.5277H324.803V63.2854H322.561ZM313.921 63.2854V61.043H311.678V63.2854H313.921ZM313.921 68.1654H311.678V70.4077H313.921V68.1654ZM324.761 68.1654H327.003V65.923H324.761V68.1654ZM324.761 74.0054V76.2477H327.003V74.0054H324.761ZM306.521 74.0054H308.763V47.0454H306.521H304.278V74.0054H306.521ZM306.521 47.0454V49.2877H324.601V47.0454V44.803H306.521V47.0454ZM324.601 47.0454H322.358V52.8854H324.601H326.843V47.0454H324.601ZM324.601 52.8854V50.643H313.921V52.8854V55.1277H324.601V52.8854ZM313.921 52.8854H311.678V57.4454H313.921H316.163V52.8854H313.921ZM313.921 57.4454V59.6877H322.561V57.4454V55.203H313.921V57.4454ZM322.561 57.4454H320.318V63.2854H322.561H324.803V57.4454H322.561ZM322.561 63.2854V61.043H313.921V63.2854V65.5277H322.561V63.2854ZM313.921 63.2854H311.678V68.1654H313.921H316.163V63.2854H313.921ZM313.921 68.1654V70.4077H324.761V68.1654V65.923H313.921V68.1654ZM324.761 68.1654H322.518V74.0054H324.761H327.003V68.1654H324.761ZM324.761 74.0054V71.763H306.521V74.0054V76.2477H324.761V74.0054ZM333.487 74.0054H331.244V76.2477H333.487V74.0054ZM333.487 53.1254H335.729V50.883H333.487V53.1254ZM326.887 53.1254H324.644V55.3677H326.887V53.1254ZM326.887 47.0454V44.803H324.644V47.0454H326.887ZM347.767 47.0454H350.009V44.803H347.767V47.0454ZM347.767 53.1254V55.3677H350.009V53.1254H347.767ZM341.167 53.1254V50.883H338.924V53.1254H341.167ZM341.167 74.0054V76.2477H343.409V74.0054H341.167ZM333.487 74.0054H335.729V53.1254H333.487H331.244V74.0054H333.487ZM333.487 53.1254V50.883H326.887V53.1254V55.3677H333.487V53.1254ZM326.887 53.1254H329.129V47.0454H326.887H324.644V53.1254H326.887ZM326.887 47.0454V49.2877H347.767V47.0454V44.803H326.887V47.0454ZM347.767 47.0454H345.524V53.1254H347.767H350.009V47.0454H347.767ZM347.767 53.1254V50.883H341.167V53.1254V55.3677H347.767V53.1254ZM341.167 53.1254H338.924V74.0054H341.167H343.409V53.1254H341.167ZM341.167 74.0054V71.763H333.487V74.0054V76.2477H341.167V74.0054ZM363.44 74.0054H361.198V76.2477H363.44V74.0054ZM363.44 65.2054H365.682V64.6928L365.46 64.2311L363.44 65.2054ZM354.68 47.0454V44.803H351.109L352.66 48.0196L354.68 47.0454ZM362.4 47.0454L364.431 46.0946L363.826 44.803H362.4V47.0454ZM367.4 57.7254L365.369 58.6761L367.392 62.9967L369.428 58.6824L367.4 57.7254ZM372.44 47.0454V44.803H371.019L370.412 46.0884L372.44 47.0454ZM379.68 47.0454L381.691 48.037L383.286 44.803H379.68V47.0454ZM371.12 64.4054L369.109 63.4137L368.878 63.8826V64.4054H371.12ZM371.12 74.0054V76.2477H373.362V74.0054H371.12ZM363.44 74.0054H365.682V65.2054H363.44H361.198V74.0054H363.44ZM363.44 65.2054L365.46 64.2311L356.7 46.0711L354.68 47.0454L352.66 48.0196L361.421 66.1796L363.44 65.2054ZM354.68 47.0454V49.2877H362.4V47.0454V44.803H354.68V47.0454ZM362.4 47.0454L360.369 47.9961L365.369 58.6761L367.4 57.7254L369.431 56.7746L364.431 46.0946L362.4 47.0454ZM367.4 57.7254L369.428 58.6824L374.468 48.0023L372.44 47.0454L370.412 46.0884L365.372 56.7684L367.4 57.7254ZM372.44 47.0454V49.2877H379.68V47.0454V44.803H372.44V47.0454ZM379.68 47.0454L377.669 46.0537L369.109 63.4137L371.12 64.4054L373.131 65.397L381.691 48.037L379.68 47.0454ZM371.12 64.4054H368.878V74.0054H371.12H373.362V64.4054H371.12ZM371.12 74.0054V71.763H363.44V74.0054V76.2477H371.12V74.0054ZM382.899 71.0054L381.214 72.4846L382.899 71.0054ZM382.899 50.0454L381.214 48.5661L381.214 48.5661L382.899 50.0454ZM401.299 50.0454L402.984 48.5661V48.5661L401.299 50.0454ZM395.459 66.7254L397.419 67.8144L397.424 67.8053L397.429 67.7961L395.459 66.7254ZM395.459 54.3654L393.489 55.4361L393.494 55.4453L393.499 55.4543L395.459 54.3654ZM388.739 54.3654L390.699 55.4543L390.704 55.4453L390.709 55.4361L388.739 54.3654ZM388.739 66.7254L386.769 67.7961L386.774 67.8053L386.779 67.8144L388.739 66.7254ZM392.099 74.6054V72.363C388.536 72.363 386.159 71.3198 384.584 69.5261L382.899 71.0054L381.214 72.4846C383.853 75.4909 387.608 76.8477 392.099 76.8477V74.6054ZM382.899 71.0054L384.584 69.5261C382.966 67.6824 381.981 64.8019 381.981 60.5254H379.739H377.497C377.497 65.4222 378.619 69.5284 381.214 72.4846L382.899 71.0054ZM379.739 60.5254H381.981C381.981 56.2488 382.966 53.3684 384.584 51.5246L382.899 50.0454L381.214 48.5661C378.619 51.5224 377.497 55.6286 377.497 60.5254H379.739ZM382.899 50.0454L384.584 51.5246C386.159 49.7309 388.536 48.6877 392.099 48.6877V46.4454V44.203C387.608 44.203 383.853 45.5598 381.214 48.5661L382.899 50.0454ZM392.099 46.4454V48.6877C395.661 48.6877 398.039 49.7309 399.614 51.5246L401.299 50.0454L402.984 48.5661C400.345 45.5598 396.59 44.203 392.099 44.203V46.4454ZM401.299 50.0454L399.614 51.5246C401.232 53.3684 402.217 56.2488 402.217 60.5254H404.459H406.701C406.701 55.6286 405.579 51.5224 402.984 48.5661L401.299 50.0454ZM404.459 60.5254H402.217C402.217 64.8019 401.232 67.6824 399.614 69.5261L401.299 71.0054L402.984 72.4846C405.579 69.5284 406.701 65.4222 406.701 60.5254H404.459ZM401.299 71.0054L399.614 69.5261C398.039 71.3198 395.661 72.363 392.099 72.363V74.6054V76.8477C396.59 76.8477 400.345 75.4909 402.984 72.4846L401.299 71.0054ZM392.099 68.5254V70.7677C394.343 70.7677 396.292 69.8435 397.419 67.8144L395.459 66.7254L393.499 65.6364C393.293 66.0073 393.001 66.283 392.099 66.283V68.5254ZM395.459 66.7254L397.429 67.7961C398.382 66.0421 398.701 63.4838 398.701 60.5254H396.459H394.217C394.217 63.3802 393.869 64.9553 393.489 65.6546L395.459 66.7254ZM396.459 60.5254H398.701C398.701 57.5743 398.385 55.0145 397.419 53.2764L395.459 54.3654L393.499 55.4543C393.866 56.1162 394.217 57.6631 394.217 60.5254H396.459ZM395.459 54.3654L397.429 53.2946C396.313 51.2407 394.367 50.283 392.099 50.283V52.5254V54.7677C392.977 54.7677 393.272 55.0367 393.489 55.4361L395.459 54.3654ZM392.099 52.5254V50.283C389.831 50.283 387.885 51.2407 386.769 53.2946L388.739 54.3654L390.709 55.4361C390.926 55.0367 391.22 54.7677 392.099 54.7677V52.5254ZM388.739 54.3654L386.779 53.2764C385.813 55.0145 385.497 57.5743 385.497 60.5254H387.739H389.981C389.981 57.6631 390.331 56.1162 390.699 55.4543L388.739 54.3654ZM387.739 60.5254H385.497C385.497 63.4838 385.815 66.0421 386.769 67.7961L388.739 66.7254L390.709 65.6546C390.329 64.9553 389.981 63.3802 389.981 60.5254H387.739ZM388.739 66.7254L386.779 67.8144C387.906 69.8435 389.855 70.7677 392.099 70.7677V68.5254V66.283C391.196 66.283 390.905 66.0073 390.699 65.6364L388.739 66.7254ZM410.387 71.8854L408.766 73.4353L408.778 73.4473L408.789 73.4592L410.387 71.8854ZM407.747 47.0454V44.803H405.504V47.0454H407.747ZM415.467 47.0454H417.709V44.803H415.467V47.0454ZM422.587 47.0454V44.803H420.344V47.0454H422.587ZM430.307 47.0454H432.549V44.803H430.307V47.0454ZM427.627 71.8854L426.018 70.3233L426.018 70.3236L427.627 71.8854ZM419.027 74.6054V72.363C415.326 72.363 413.164 71.5095 411.984 70.3116L410.387 71.8854L408.789 73.4592C411.182 75.8879 414.781 76.8477 419.027 76.8477V74.6054ZM410.387 71.8854L412.007 70.3354C410.833 69.1075 409.989 66.8232 409.989 62.9254H407.747H405.504C405.504 67.2942 406.421 70.9833 408.766 73.4353L410.387 71.8854ZM407.747 62.9254H409.989V47.0454H407.747H405.504V62.9254H407.747ZM407.747 47.0454V49.2877H415.467V47.0454V44.803H407.747V47.0454ZM415.467 47.0454H413.224V64.5654H415.467H417.709V47.0454H415.467ZM415.467 64.5654H413.224C413.224 66.1563 413.594 67.7668 414.731 68.979C415.893 70.2184 417.483 70.6477 419.067 70.6477V68.4054V66.163C418.251 66.163 418.041 65.9523 418.003 65.9117C417.939 65.8439 417.709 65.5345 417.709 64.5654H415.467ZM419.067 68.4054V70.6477C420.638 70.6477 422.214 70.2101 423.36 68.9606C424.471 67.748 424.829 66.145 424.829 64.5654H422.587H420.344C420.344 65.5457 420.116 65.8627 420.054 65.9302C420.026 65.9607 419.842 66.163 419.067 66.163V68.4054ZM422.587 64.5654H424.829V47.0454H422.587H420.344V64.5654H422.587ZM422.587 47.0454V49.2877H430.307V47.0454V44.803H422.587V47.0454ZM430.307 47.0454H428.064V62.9254H430.307H432.549V47.0454H430.307ZM430.307 62.9254H428.064C428.064 66.8162 427.211 69.0951 426.018 70.3233L427.627 71.8854L429.235 73.4475C431.616 70.9957 432.549 67.3012 432.549 62.9254H430.307ZM427.627 71.8854L426.018 70.3236C424.868 71.5078 422.732 72.363 419.027 72.363V74.6054V76.8477C423.268 76.8477 426.865 75.8896 429.236 73.4471L427.627 71.8854ZM434.729 74.0054H432.486V76.2477H434.729V74.0054ZM434.729 47.0454V44.803H432.486V47.0454H434.729ZM453.089 49.3254L451.623 51.0224L451.629 51.0279L451.636 51.0333L453.089 49.3254ZM454.489 60.6854L456.354 61.9292L456.36 61.9204L456.366 61.9115L454.489 60.6854ZM450.929 63.4054L450.186 61.2895L447.554 62.2132L449.022 64.5854L450.929 63.4054ZM457.489 74.0054V76.2477H461.513L459.395 72.8253L457.489 74.0054ZM449.489 74.0054L447.547 75.1276L448.195 76.2477H449.489V74.0054ZM444.009 64.5254L445.95 63.4032L445.302 62.283H444.009V64.5254ZM442.009 64.5254V62.283H439.766V64.5254H442.009ZM442.009 74.0054V76.2477H444.251V74.0054H442.009ZM442.009 52.4854V50.243H439.766V52.4854H442.009ZM442.009 59.3654H439.766V61.6077H442.009V59.3654ZM434.729 74.0054H436.971V47.0454H434.729H432.486V74.0054H434.729ZM434.729 47.0454V49.2877H445.329V47.0454V44.803H434.729V47.0454ZM445.329 47.0454V49.2877C448.449 49.2877 450.424 49.987 451.623 51.0224L453.089 49.3254L454.554 47.6283C452.233 45.6238 449.034 44.803 445.329 44.803V47.0454ZM453.089 49.3254L451.636 51.0333C452.809 52.0316 453.526 53.5395 453.526 55.9254H455.769H458.011C458.011 52.5513 456.941 49.6591 454.542 47.6175L453.089 49.3254ZM455.769 55.9254H453.526C453.526 57.4431 453.183 58.5835 452.611 59.4593L454.489 60.6854L456.366 61.9115C457.501 60.1739 458.011 58.1409 458.011 55.9254H455.769ZM454.489 60.6854L452.623 59.4415C452.053 60.2967 451.27 60.9091 450.186 61.2895L450.929 63.4054L451.671 65.5212C453.627 64.8349 455.218 63.634 456.354 61.9292L454.489 60.6854ZM450.929 63.4054L449.022 64.5854L455.582 75.1854L457.489 74.0054L459.395 72.8253L452.835 62.2253L450.929 63.4054ZM457.489 74.0054V71.763H449.489V74.0054V76.2477H457.489V74.0054ZM449.489 74.0054L451.43 72.8832L445.95 63.4032L444.009 64.5254L442.067 65.6476L447.547 75.1276L449.489 74.0054ZM444.009 64.5254V62.283H442.009V64.5254V66.7677H444.009V64.5254ZM442.009 64.5254H439.766V74.0054H442.009H444.251V64.5254H442.009ZM442.009 74.0054V71.763H434.729V74.0054V76.2477H442.009V74.0054ZM444.649 52.4854V50.243H442.009V52.4854V54.7277H444.649V52.4854ZM442.009 52.4854H439.766V59.3654H442.009H444.251V52.4854H442.009ZM442.009 59.3654V61.6077H444.649V59.3654V57.123H442.009V59.3654ZM444.649 59.3654V61.6077C446.162 61.6077 447.712 61.243 448.877 60.1179C450.055 58.9789 450.451 57.4376 450.451 55.9254H448.209H445.966C445.966 56.7065 445.768 56.8851 445.76 56.8928C445.738 56.9144 445.509 57.123 444.649 57.123V59.3654ZM448.209 55.9254H450.451C450.451 54.4131 450.055 52.8718 448.877 51.7328C447.712 50.6077 446.162 50.243 444.649 50.243V52.4854V54.7277C445.509 54.7277 445.738 54.9364 445.76 54.9579C445.768 54.9656 445.966 55.1443 445.966 55.9254H448.209ZM466.957 74.0054H464.714V76.2477H466.957V74.0054ZM466.957 47.0454V44.803H464.714V47.0454H466.957ZM474.637 47.0454H476.879V44.803H474.637V47.0454ZM474.637 57.3254H472.394V59.5677H474.637V57.3254ZM482.277 57.3254V59.5677H484.519V57.3254H482.277ZM482.277 47.0454V44.803H480.034V47.0454H482.277ZM489.957 47.0454H492.199V44.803H489.957V47.0454ZM489.957 74.0054V76.2477H492.199V74.0054H489.957ZM482.277 74.0054H480.034V76.2477H482.277V74.0054ZM482.277 63.3254H484.519V61.083H482.277V63.3254ZM474.637 63.3254V61.083H472.394V63.3254H474.637ZM474.637 74.0054V76.2477H476.879V74.0054H474.637ZM466.957 74.0054H469.199V47.0454H466.957H464.714V74.0054H466.957ZM466.957 47.0454V49.2877H474.637V47.0454V44.803H466.957V47.0454ZM474.637 47.0454H472.394V57.3254H474.637H476.879V47.0454H474.637ZM474.637 57.3254V59.5677H482.277V57.3254V55.083H474.637V57.3254ZM482.277 57.3254H484.519V47.0454H482.277H480.034V57.3254H482.277ZM482.277 47.0454V49.2877H489.957V47.0454V44.803H482.277V47.0454ZM489.957 47.0454H487.714V74.0054H489.957H492.199V47.0454H489.957ZM489.957 74.0054V71.763H482.277V74.0054V76.2477H489.957V74.0054ZM482.277 74.0054H484.519V63.3254H482.277H480.034V74.0054H482.277ZM482.277 63.3254V61.083H474.637V63.3254V65.5677H482.277V63.3254ZM474.637 63.3254H472.394V74.0054H474.637H476.879V63.3254H474.637ZM474.637 74.0054V71.763H466.957V74.0054V76.2477H474.637V74.0054ZM494.75 74.0054H492.508V76.2477H494.75V74.0054ZM494.75 47.0454V44.803H492.508V47.0454H494.75ZM512.83 47.0454H515.073V44.803H512.83V47.0454ZM512.83 52.8854V55.1277H515.073V52.8854H512.83ZM502.15 52.8854V50.643H499.908V52.8854H502.15ZM502.15 57.4454H499.908V59.6877H502.15V57.4454ZM510.79 57.4454H513.033V55.203H510.79V57.4454ZM510.79 63.2854V65.5277H513.033V63.2854H510.79ZM502.15 63.2854V61.043H499.908V63.2854H502.15ZM502.15 68.1654H499.908V70.4077H502.15V68.1654ZM512.99 68.1654H515.233V65.923H512.99V68.1654ZM512.99 74.0054V76.2477H515.233V74.0054H512.99ZM494.75 74.0054H496.993V47.0454H494.75H492.508V74.0054H494.75ZM494.75 47.0454V49.2877H512.83V47.0454V44.803H494.75V47.0454ZM512.83 47.0454H510.588V52.8854H512.83H515.073V47.0454H512.83ZM512.83 52.8854V50.643H502.15V52.8854V55.1277H512.83V52.8854ZM502.15 52.8854H499.908V57.4454H502.15H504.393V52.8854H502.15ZM502.15 57.4454V59.6877H510.79V57.4454V55.203H502.15V57.4454ZM510.79 57.4454H508.548V63.2854H510.79H513.033V57.4454H510.79ZM510.79 63.2854V61.043H502.15V63.2854V65.5277H510.79V63.2854ZM502.15 63.2854H499.908V68.1654H502.15H504.393V63.2854H502.15ZM502.15 68.1654V70.4077H512.99V68.1654V65.923H502.15V68.1654ZM512.99 68.1654H510.748V74.0054H512.99H515.233V68.1654H512.99ZM512.99 74.0054V71.763H494.75V74.0054V76.2477H512.99V74.0054ZM517.036 74.0054H514.794V76.2477H517.036V74.0054ZM517.036 47.0454V44.803H514.794V47.0454H517.036ZM535.396 49.3254L533.931 51.0224L533.937 51.0279L533.943 51.0333L535.396 49.3254ZM536.796 60.6854L538.662 61.9292L538.668 61.9204L538.674 61.9115L536.796 60.6854ZM533.236 63.4054L532.494 61.2895L529.862 62.2132L531.33 64.5854L533.236 63.4054ZM539.796 74.0054V76.2477H543.821L541.703 72.8253L539.796 74.0054ZM531.796 74.0054L529.855 75.1276L530.503 76.2477H531.796V74.0054ZM526.316 64.5254L528.258 63.4032L527.61 62.283H526.316V64.5254ZM524.316 64.5254V62.283H522.074V64.5254H524.316ZM524.316 74.0054V76.2477H526.559V74.0054H524.316ZM524.316 52.4854V50.243H522.074V52.4854H524.316ZM524.316 59.3654H522.074V61.6077H524.316V59.3654ZM517.036 74.0054H519.279V47.0454H517.036H514.794V74.0054H517.036ZM517.036 47.0454V49.2877H527.636V47.0454V44.803H517.036V47.0454ZM527.636 47.0454V49.2877C530.757 49.2877 532.732 49.987 533.931 51.0224L535.396 49.3254L536.862 47.6283C534.541 45.6238 531.342 44.803 527.636 44.803V47.0454ZM535.396 49.3254L533.943 51.0333C535.117 52.0316 535.834 53.5395 535.834 55.9254H538.076H540.319C540.319 52.5513 539.249 49.6591 536.849 47.6175L535.396 49.3254ZM538.076 55.9254H535.834C535.834 57.4431 535.491 58.5835 534.919 59.4593L536.796 60.6854L538.674 61.9115C539.809 60.1739 540.319 58.1409 540.319 55.9254H538.076ZM536.796 60.6854L534.931 59.4415C534.361 60.2967 533.578 60.9091 532.494 61.2895L533.236 63.4054L533.979 65.5212C535.935 64.8349 537.526 63.634 538.662 61.9292L536.796 60.6854ZM533.236 63.4054L531.33 64.5854L537.89 75.1854L539.796 74.0054L541.703 72.8253L535.143 62.2253L533.236 63.4054ZM539.796 74.0054V71.763H531.796V74.0054V76.2477H539.796V74.0054ZM531.796 74.0054L533.738 72.8832L528.258 63.4032L526.316 64.5254L524.375 65.6476L529.855 75.1276L531.796 74.0054ZM526.316 64.5254V62.283H524.316V64.5254V66.7677H526.316V64.5254ZM524.316 64.5254H522.074V74.0054H524.316H526.559V64.5254H524.316ZM524.316 74.0054V71.763H517.036V74.0054V76.2477H524.316V74.0054ZM526.956 52.4854V50.243H524.316V52.4854V54.7277H526.956V52.4854ZM524.316 52.4854H522.074V59.3654H524.316H526.559V52.4854H524.316ZM524.316 59.3654V61.6077H526.956V59.3654V57.123H524.316V59.3654ZM526.956 59.3654V61.6077C528.47 61.6077 530.02 61.243 531.185 60.1179C532.363 58.9789 532.759 57.4376 532.759 55.9254H530.516H528.274C528.274 56.7065 528.076 56.8851 528.068 56.8928C528.046 56.9144 527.816 57.123 526.956 57.123V59.3654ZM530.516 55.9254H532.759C532.759 54.4131 532.363 52.8718 531.185 51.7328C530.02 50.6077 528.47 50.243 526.956 50.243V52.4854V54.7277C527.816 54.7277 528.046 54.9364 528.068 54.9579C528.076 54.9656 528.274 55.1443 528.274 55.9254H530.516ZM544.447 71.0054L542.762 72.4846L544.447 71.0054ZM544.447 50.0454L542.762 48.5661V48.5661L544.447 50.0454ZM562.847 50.0454L564.533 48.5661V48.5661L562.847 50.0454ZM557.007 66.7254L558.967 67.8144L558.973 67.8053L558.978 67.7961L557.007 66.7254ZM557.007 54.3654L555.037 55.4361L555.042 55.4453L555.047 55.4543L557.007 54.3654ZM550.287 54.3654L552.247 55.4543L552.253 55.4453L552.258 55.4361L550.287 54.3654ZM550.287 66.7254L548.317 67.7961L548.322 67.8053L548.327 67.8144L550.287 66.7254ZM553.647 74.6054V72.363C550.085 72.363 547.707 71.3198 546.133 69.5261L544.447 71.0054L542.762 72.4846C545.401 75.4909 549.156 76.8477 553.647 76.8477V74.6054ZM544.447 71.0054L546.133 69.5261C544.514 67.6824 543.53 64.8019 543.53 60.5254H541.287H539.045C539.045 65.4222 540.167 69.5284 542.762 72.4846L544.447 71.0054ZM541.287 60.5254H543.53C543.53 56.2488 544.514 53.3684 546.133 51.5246L544.447 50.0454L542.762 48.5661C540.167 51.5224 539.045 55.6286 539.045 60.5254H541.287ZM544.447 50.0454L546.133 51.5246C547.707 49.7309 550.085 48.6877 553.647 48.6877V46.4454V44.203C549.156 44.203 545.401 45.5598 542.762 48.5661L544.447 50.0454ZM553.647 46.4454V48.6877C557.21 48.6877 559.588 49.7309 561.162 51.5246L562.847 50.0454L564.533 48.5661C561.894 45.5598 558.138 44.203 553.647 44.203V46.4454ZM562.847 50.0454L561.162 51.5246C562.781 53.3684 563.765 56.2488 563.765 60.5254H566.007H568.25C568.25 55.6286 567.127 51.5224 564.533 48.5661L562.847 50.0454ZM566.007 60.5254H563.765C563.765 64.8019 562.781 67.6824 561.162 69.5261L562.847 71.0054L564.533 72.4846C567.127 69.5284 568.25 65.4222 568.25 60.5254H566.007ZM562.847 71.0054L561.162 69.5261C559.588 71.3198 557.21 72.363 553.647 72.363V74.6054V76.8477C558.138 76.8477 561.894 75.4909 564.533 72.4846L562.847 71.0054ZM553.647 68.5254V70.7677C555.891 70.7677 557.84 69.8435 558.967 67.8144L557.007 66.7254L555.047 65.6364C554.841 66.0073 554.55 66.283 553.647 66.283V68.5254ZM557.007 66.7254L558.978 67.7961C559.931 66.0421 560.25 63.4838 560.25 60.5254H558.007H555.765C555.765 63.3802 555.417 64.9553 555.037 65.6546L557.007 66.7254ZM558.007 60.5254H560.25C560.25 57.5743 559.933 55.0145 558.967 53.2764L557.007 54.3654L555.047 55.4543C555.415 56.1162 555.765 57.6631 555.765 60.5254H558.007ZM557.007 54.3654L558.978 53.2946C557.861 51.2407 555.915 50.283 553.647 50.283V52.5254V54.7677C554.526 54.7677 554.82 55.0367 555.037 55.4361L557.007 54.3654ZM553.647 52.5254V50.283C551.379 50.283 549.433 51.2407 548.317 53.2946L550.287 54.3654L552.258 55.4361C552.475 55.0367 552.769 54.7677 553.647 54.7677V52.5254ZM550.287 54.3654L548.327 53.2764C547.362 55.0145 547.045 57.5743 547.045 60.5254H549.287H551.53C551.53 57.6631 551.88 56.1162 552.247 55.4543L550.287 54.3654ZM549.287 60.5254H547.045C547.045 63.4838 547.364 66.0421 548.317 67.7961L550.287 66.7254L552.258 65.6546C551.877 64.9553 551.53 63.3802 551.53 60.5254H549.287ZM550.287 66.7254L548.327 67.8144C549.454 69.8435 551.403 70.7677 553.647 70.7677V68.5254V66.283C552.745 66.283 552.454 66.0073 552.247 65.6364L550.287 66.7254ZM569.655 74.0054H567.413V76.2477H569.655V74.0054ZM569.655 47.0454V44.803H567.413V47.0454H569.655ZM587.735 47.0454H589.977V44.803H587.735V47.0454ZM587.735 52.8854V55.1277H589.977V52.8854H587.735ZM577.055 52.8854V50.643H574.813V52.8854H577.055ZM577.055 57.4454H574.813V59.6877H577.055V57.4454ZM585.695 57.4454H587.937V55.203H585.695V57.4454ZM585.695 63.2854V65.5277H587.937V63.2854H585.695ZM577.055 63.2854V61.043H574.813V63.2854H577.055ZM577.055 68.1654H574.813V70.4077H577.055V68.1654ZM587.895 68.1654H590.137V65.923H587.895V68.1654ZM587.895 74.0054V76.2477H590.137V74.0054H587.895ZM569.655 74.0054H571.897V47.0454H569.655H567.413V74.0054H569.655ZM569.655 47.0454V49.2877H587.735V47.0454V44.803H569.655V47.0454ZM587.735 47.0454H585.493V52.8854H587.735H589.977V47.0454H587.735ZM587.735 52.8854V50.643H577.055V52.8854V55.1277H587.735V52.8854ZM577.055 52.8854H574.813V57.4454H577.055H579.297V52.8854H577.055ZM577.055 57.4454V59.6877H585.695V57.4454V55.203H577.055V57.4454ZM585.695 57.4454H583.453V63.2854H585.695H587.937V57.4454H585.695ZM585.695 63.2854V61.043H577.055V63.2854V65.5277H585.695V63.2854ZM577.055 63.2854H574.813V68.1654H577.055H579.297V63.2854H577.055ZM577.055 68.1654V70.4077H587.895V68.1654V65.923H577.055V68.1654ZM587.895 68.1654H585.653V74.0054H587.895H590.137V68.1654H587.895ZM587.895 74.0054V71.763H569.655V74.0054V76.2477H587.895V74.0054ZM590.781 73.0454L588.601 72.5226L588.146 74.4175L589.959 75.1317L590.781 73.0454ZM592.181 67.2054L592.986 65.1125L590.597 64.1937L590.001 66.6826L592.181 67.2054ZM595.501 68.1654L595.052 70.3622L595.08 70.368L595.109 70.3731L595.501 68.1654ZM602.181 67.8854L601.061 65.9431L601.044 65.9527L601.027 65.9626L602.181 67.8854ZM601.381 63.9254L600.937 66.1232L600.944 66.1246L600.951 66.126L601.381 63.9254ZM597.821 63.2054L597.371 65.4021L597.377 65.4032L597.821 63.2054ZM593.901 48.8054L595.356 50.5114L595.363 50.5053L595.371 50.4991L593.901 48.8054ZM609.861 47.8854L612.036 48.4328L612.52 46.51L610.671 45.7942L609.861 47.8854ZM608.421 53.6054L607.604 55.6935L609.974 56.621L610.596 54.1528L608.421 53.6054ZM600.381 56.8854L600.815 54.6855L600.806 54.6836L600.797 54.6819L600.381 56.8854ZM603.421 57.4854L603.875 55.2894L603.865 55.2874L603.855 55.2855L603.421 57.4854ZM608.821 60.2054L607.136 61.6844L607.144 61.694L607.153 61.7035L608.821 60.2054ZM607.861 72.4054L609.271 74.1488L609.279 74.1426L609.287 74.1363L607.861 72.4054ZM599.501 74.6054V72.363C596.576 72.363 593.952 71.8845 591.603 70.9591L590.781 73.0454L589.959 75.1317C592.89 76.2863 596.08 76.8477 599.501 76.8477V74.6054ZM590.781 73.0454L592.962 73.5681L594.362 67.7281L592.181 67.2054L590.001 66.6826L588.601 72.5226L590.781 73.0454ZM592.181 67.2054L591.376 69.2983C592.54 69.7458 593.766 70.0993 595.052 70.3622L595.501 68.1654L595.95 65.9685C594.889 65.7515 593.902 65.4649 592.986 65.1125L592.181 67.2054ZM595.501 68.1654L595.109 70.3731C596.417 70.6057 597.669 70.7277 598.861 70.7277V68.4854V66.243C597.973 66.243 596.985 66.1518 595.894 65.9576L595.501 68.1654ZM598.861 68.4854V70.7277C600.484 70.7277 602.117 70.5389 603.335 69.8082L602.181 67.8854L601.027 65.9626C600.912 66.0318 600.331 66.243 598.861 66.243V68.4854ZM602.181 67.8854L603.302 69.8277C604.793 68.9672 605.463 67.5056 605.463 65.9254H603.221H600.979C600.979 66.0099 600.971 66.0558 600.967 66.0714C600.964 66.0854 600.965 66.0727 600.98 66.0443C600.987 66.0308 600.997 66.0161 601.008 66.0011C601.019 65.9862 601.03 65.9732 601.04 65.9624C601.063 65.9399 601.074 65.9354 601.061 65.9431L602.181 67.8854ZM603.221 65.9254H605.463C605.463 64.9391 605.174 63.9167 604.411 63.0872C603.679 62.2909 602.72 61.9024 601.812 61.7247L601.381 63.9254L600.951 66.126C601.104 66.1559 601.176 66.1876 601.195 66.1968C601.209 66.2038 601.168 66.1857 601.111 66.1236C601.083 66.0936 601.057 66.0591 601.035 66.0217C601.013 65.9844 600.998 65.9504 600.989 65.9233C600.97 65.8689 600.979 65.8607 600.979 65.9254H603.221ZM601.381 63.9254L601.826 61.7275L598.266 61.0075L597.821 63.2054L597.377 65.4032L600.937 66.1232L601.381 63.9254ZM597.821 63.2054L598.271 61.0086C596.401 60.6257 595.256 59.9295 594.563 59.099C593.876 58.2754 593.423 57.0672 593.423 55.2454H591.181H588.939C588.939 57.8236 589.593 60.142 591.119 61.9717C592.64 63.7946 594.814 64.8784 597.371 65.4021L597.821 63.2054ZM591.181 55.2454H593.423C593.423 53.0439 594.121 51.5647 595.356 50.5114L593.901 48.8054L592.446 47.0993C590.054 49.1393 588.939 51.9536 588.939 55.2454H591.181ZM593.901 48.8054L595.371 50.4991C596.66 49.3802 598.571 48.6877 601.381 48.6877V46.4454V44.203C597.844 44.203 594.769 45.0839 592.432 47.1117L593.901 48.8054ZM601.381 46.4454V48.6877C604.33 48.6877 606.874 49.1337 609.052 49.9765L609.861 47.8854L610.671 45.7942C607.888 44.717 604.779 44.203 601.381 44.203V46.4454ZM609.861 47.8854L607.687 47.3379L606.247 53.0579L608.421 53.6054L610.596 54.1528L612.036 48.4328L609.861 47.8854ZM608.421 53.6054L609.238 51.5172C607.081 50.673 604.632 50.283 601.941 50.283V52.5254V54.7677C604.21 54.7677 606.081 55.0978 607.604 55.6935L608.421 53.6054ZM601.941 52.5254V50.283C600.556 50.283 599.137 50.4845 598 51.1892C596.685 52.0038 596.019 53.3192 596.019 54.8054H598.261H600.503C600.503 54.7315 600.516 54.7761 600.466 54.8703C600.412 54.9696 600.35 55.0089 600.362 55.0015C600.389 54.9848 600.509 54.9209 600.785 54.8639C601.058 54.8074 601.437 54.7677 601.941 54.7677V52.5254ZM598.261 54.8054H596.019C596.019 55.8811 596.38 56.9407 597.221 57.766C598.004 58.5346 599.01 58.9086 599.965 59.0888L600.381 56.8854L600.797 54.6819C600.58 54.6409 600.448 54.5941 600.379 54.5627C600.312 54.5325 600.321 54.5249 600.361 54.5648C600.407 54.6099 600.454 54.6767 600.483 54.7512C600.51 54.8201 600.503 54.8484 600.503 54.8054H598.261ZM600.381 56.8854L599.947 59.0853L602.987 59.6853L603.421 57.4854L603.855 55.2855L600.815 54.6855L600.381 56.8854ZM603.421 57.4854L602.968 59.6814C605.147 60.1314 606.425 60.8747 607.136 61.6844L608.821 60.2054L610.507 58.7263C608.924 56.9227 606.602 55.8527 603.875 55.2894L603.421 57.4854ZM608.821 60.2054L607.153 61.7035C607.855 62.4858 608.339 63.6919 608.339 65.6054H610.581H612.823C612.823 62.9322 612.134 60.5383 610.49 58.7072L608.821 60.2054ZM610.581 65.6054H608.339C608.339 68.1878 607.587 69.7259 606.436 70.6744L607.861 72.4054L609.287 74.1363C611.761 72.0982 612.823 69.103 612.823 65.6054H610.581ZM607.861 72.4054L606.451 70.6619C605.217 71.6603 603.04 72.363 599.501 72.363V74.6054V76.8477C603.482 76.8477 606.879 76.0838 609.271 74.1488L607.861 72.4054Z" fill="#3B3B3B" mask="url(#path-5-outside-1_628_1705)"/>
</g>
<defs>
<filter id="filter0_d_628_1705" x="0.408081" y="0.792969" width="858.101" height="150.043" filterUnits="userSpaceOnUse" color-interpolation-filters="sRGB">
<feFlood flood-opacity="0" result="BackgroundImageFix"/>
<feColorMatrix in="SourceAlpha" type="matrix" values="0 0 0 0 0 0 0 0 0 0 0 0 0 0 0 0 0 0 127 0" result="hardAlpha"/>
<feOffset dy="8.82814"/>
<feComposite in2="hardAlpha" operator="out"/>
<feColorMatrix type="matrix" values="0 0 0 0 0 0 0 0 0 0 0 0 0 0 0 0 0 0 0.25 0"/>
<feBlend mode="normal" in2="BackgroundImageFix" result="effect1_dropShadow_628_1705"/>
<feBlend mode="normal" in="SourceGraphic" in2="effect1_dropShadow_628_1705" result="shape"/>
</filter>
<filter id="filter1_ddd_628_1705" x="241.952" y="42.5214" width="376.477" height="43.8563" filterUnits="userSpaceOnUse" color-interpolation-filters="sRGB">
<feFlood flood-opacity="0" result="BackgroundImageFix"/>
<feColorMatrix in="SourceAlpha" type="matrix" values="0 0 0 0 0 0 0 0 0 0 0 0 0 0 0 0 0 0 127 0" result="hardAlpha"/>
<feOffset dy="2.20703"/>
<feComposite in2="hardAlpha" operator="out"/>
<feColorMatrix type="matrix" values="0 0 0 0 0 0 0 0 0 0 0 0 0 0 0 0 0 0 1 0"/>
<feBlend mode="normal" in2="BackgroundImageFix" result="effect1_dropShadow_628_1705"/>
<feColorMatrix in="SourceAlpha" type="matrix" values="0 0 0 0 0 0 0 0 0 0 0 0 0 0 0 0 0 0 127 0" result="hardAlpha"/>
<feOffset dy="2.20703"/>
<feComposite in2="hardAlpha" operator="out"/>
<feColorMatrix type="matrix" values="0 0 0 0 0 0 0 0 0 0 0 0 0 0 0 0 0 0 1 0"/>
<feBlend mode="normal" in2="effect1_dropShadow_628_1705" result="effect2_dropShadow_628_1705"/>
<feColorMatrix in="SourceAlpha" type="matrix" values="0 0 0 0 0 0 0 0 0 0 0 0 0 0 0 0 0 0 127 0" result="hardAlpha"/>
<feOffset dy="3.92411"/>
<feGaussianBlur stdDeviation="2.80293"/>
<feComposite in2="hardAlpha" operator="out"/>
<feColorMatrix type="matrix" values="0 0 0 0 0 0 0 0 0 0 0 0 0 0 0 0 0 0 0.8 0"/>
<feBlend mode="normal" in2="effect2_dropShadow_628_1705" result="effect3_dropShadow_628_1705"/>
<feBlend mode="normal" in="SourceGraphic" in2="effect3_dropShadow_628_1705" result="shape"/>
</filter>
<linearGradient id="paint0_linear_628_1705" x1="2.63367" y1="59.7657" x2="856.282" y2="59.7656" gradientUnits="userSpaceOnUse">
<stop stop-color="#4B42A2"/>
<stop offset="0.475" stop-color="#8383FF"/>
<stop offset="1" stop-color="#4C43A3"/>
</linearGradient>
<radialGradient id="paint1_radial_628_1705" cx="0" cy="0" r="1" gradientUnits="userSpaceOnUse" gradientTransform="translate(429.457 82.9641) rotate(-90) scale(95.1863 2490.92)">
<stop offset="0.431628" stop-color="white" stop-opacity="0.26"/>
<stop offset="1" stop-color="white"/>
</radialGradient>
</defs>
</svg>
